<?xml version="1.0" encoding="UTF-8"?>
<svg width="161px" height="51px" viewBox="0 0 161 51" version="1.1" xmlns="http://www.w3.org/2000/svg" xmlns:xlink="http://www.w3.org/1999/xlink">
    <!-- Generator: Sketch 63.1 (92452) - https://sketch.com -->
    <title>logo</title>
    <desc>Created with Sketch.</desc>
    <g id="Symbols" stroke="none" stroke-width="1" fill="none" fill-rule="evenodd">
        <g id="footer-defalut" transform="translate(-640.000000, -36.000000)" fill="#CB6765">
            <g id="Group" transform="translate(617.000000, 36.000000)">
                <g id="logo" transform="translate(23.500000, 0.500000)">
                    <path d="M134.485804,12.9292929 C135.821044,12.9292929 136.90347,14.012402 136.90347,15.3484848 L136.90347,37.9343434 C136.920507,41.2330665 135.617271,44.4013645 133.284543,46.7323232 C131.99423,48.0080498 130.445084,48.9915173 128.741956,49.6161616 C128.477361,49.7154155 128.196762,49.7650649 127.914196,49.7627119 C126.741377,49.7544189 125.744362,48.9034279 125.551345,47.7458419 C125.358328,46.588256 126.025234,45.4594711 127.131861,45.0707071 C128.157528,44.6823139 129.089725,44.0816825 129.867508,43.3080808 C131.310337,41.8972031 132.106671,39.9526281 132.068139,37.9343434 L132.068139,15.3484848 C132.068139,14.012402 133.150565,12.9292929 134.485804,12.9292929 Z M104.936278,13.0974368 C111.613077,13.0974368 117.063299,18.4415722 117.198738,25.1212121 L117.168454,37.3737374 C117.156729,43.0798573 113.219358,48.0264354 107.663979,49.3143524 C102.1086,50.6022694 96.3984335,47.8923035 93.8801262,42.7727273 C93.5949339,42.1970427 93.5529866,41.5308068 93.7637182,40.9238586 C93.9744498,40.3169104 94.4201686,39.8202054 95.0006309,39.5454545 C96.1890875,38.9652898 97.6229814,39.4435562 98.2258675,40.6212121 C99.7120114,43.7338804 103.142779,45.4146743 106.511248,44.6803662 C109.879716,43.946058 112.300858,40.9895788 112.35836,37.540404 L112.35836,34.8484848 C108.662454,37.6972472 103.668394,38.1927261 99.4853857,36.1256596 C95.3023777,34.058593 92.6598351,29.7894264 92.6737618,25.1212121 C92.8092558,18.4415722 98.2594781,13.0974368 104.936278,13.0974368 Z M142.349527,12.8787881 C143.684767,12.8787881 144.767192,13.9618971 144.767192,15.2979798 L144.767192,27.520202 C144.767192,30.3095189 147.026954,32.5707071 149.814511,32.5707071 C152.602068,32.5707071 154.86183,30.3095189 154.86183,27.520202 L154.86183,15.2979798 C154.920924,14.0034717 155.986979,12.9843596 157.282019,12.9843596 C158.577059,12.9843596 159.643113,14.0034717 159.702208,15.2979798 L159.71735,15.2979798 L159.71735,27.6212121 C159.71735,33.0882733 155.288218,37.520202 149.824606,37.520202 C144.360994,37.520202 139.931861,33.0882733 139.931861,27.6212121 L139.931861,15.2979798 C139.931861,13.9618971 141.014287,12.8787881 142.349527,12.8787881 Z M65.0649842,12.8787879 C66.4002241,12.8787879 67.4826498,13.961897 67.4826498,15.2979798 L67.5028391,15.2979798 L67.5028391,27.6212121 C67.5028391,33.0882733 63.0737065,37.520202 57.6100946,37.520202 C52.1464827,37.520202 47.7173502,33.0882733 47.7173502,27.6212121 L47.7173502,15.2979798 C47.7173502,13.961897 48.7997759,12.8787879 50.1350158,12.8787879 C51.4702556,12.8787879 52.5526814,13.961897 52.5526814,15.2979798 L52.5526814,27.520202 C52.5526814,30.3095189 54.8124429,32.5707071 57.6,32.5707071 C60.3875571,32.5707071 62.6473186,30.3095189 62.6473186,27.520202 L62.6473186,15.2979798 C62.6473186,13.961897 63.7297444,12.8787879 65.0649842,12.8787879 Z M80.3230284,12.8282828 C85.7866403,12.8282828 90.2157729,17.2602116 90.2157729,22.7272727 L90.2157729,35.0505051 C90.156678,36.3450131 89.0906239,37.3641253 87.7955836,37.3641253 C86.5005433,37.3641253 85.4344892,36.3450131 85.3753943,35.0505051 L85.3753943,22.8282828 C85.3753943,20.0389659 83.1156328,17.7777778 80.3280757,17.7777778 C77.5405186,17.7777778 75.2807571,20.0389659 75.2807571,22.8282828 L75.2807571,35.0505051 C75.2807571,36.3865879 74.1983313,37.469697 72.8630915,37.469697 C71.5278516,37.469697 70.4454259,36.3865879 70.4454259,35.0505051 L70.4302839,35.0505051 L70.4302839,22.7272727 C70.4302839,17.2602116 74.8594165,12.8282828 80.3230284,12.8282828 Z M8.93375394,12.9040404 C13.1028391,12.9040404 16.918612,15.2525253 17.5141956,17.989899 C17.8119874,19.3080808 16.8580442,20.6313131 15.2479495,20.8737374 C13.7925159,21.1725447 12.3246331,20.4213536 11.7148265,19.0656566 C11.3564669,18.2828283 10.3419558,17.7424242 8.91356467,17.7424242 C7.24794953,17.7424242 5.8851735,18.8686869 5.8851735,20.2373737 C5.8851735,21.6060606 7.2681388,22.7272727 8.93375394,22.7272727 C11.2225533,22.7001085 13.4513748,23.4595628 15.2479495,24.8787879 C16.873887,26.1109243 17.8405448,28.0249596 17.8675079,30.0656566 C17.8675079,34.1060606 13.8801262,37.4444444 8.93375394,37.4444444 C4.70410095,37.4444444 1.31230284,34.9494949 0.176656151,32.1161616 C-0.358359621,30.8434343 0.893375394,29.5252525 2.44290221,29.2323232 C3.99242902,28.9393939 5.18359621,29.9141414 5.97602524,31.1363636 C6.76845426,32.3585859 7.52555205,32.6060606 8.95394322,32.6060606 C10.6246057,32.6060606 11.9823344,31.479798 11.9823344,30.0808081 C11.9823344,28.6818182 10.614511,27.5858586 8.95394322,27.5858586 C6.65654133,27.6125407 4.41990941,26.8475042 2.61955836,25.4191919 C0.988970491,24.1931921 0.0208673395,22.2781615 2.86906846e-13,20.2373737 C2.86906846e-13,16.1969697 3.99242902,12.9040404 8.93375394,12.9040404 Z M32.4744479,12.8383838 C38.384858,12.8585859 44.7394322,17.1717172 44.7394322,25.1262626 C44.7354633,25.7687352 44.4751877,26.383005 44.0164547,26.8325436 C43.5577217,27.2820823 42.9385401,27.5296428 42.29653,27.520202 L25.4435331,27.520202 C26.4667222,30.5349338 29.2926207,32.5648566 32.4744479,32.5707071 C34.4192946,32.6013093 36.3274646,32.0394177 37.9457413,30.959596 C39.0712934,30.2272727 40.585489,30.9090909 41.1709779,32.0808081 C41.7564669,33.2525253 41.1205047,34.5757576 40,35.3080808 C36.7747634,37.4444444 34.281388,37.3737374 32.4744479,37.3737374 C25.7034718,37.3737373 20.2145112,31.8813113 20.2145112,25.1060606 C20.2145112,18.3308099 25.7034718,12.8383838 32.4744479,12.8383838 Z M104.90347,17.6767677 C100.802974,17.6767677 97.4788644,21.0029754 97.4788644,25.1060606 C97.4788644,29.2091458 100.802974,32.5353535 104.90347,32.5353535 C108.990383,32.521576 112.303179,29.215703 112.328076,25.1262626 L112.328076,25.1060606 C112.328076,21.0029754 109.003967,17.6767677 104.90347,17.6767677 Z M32.5097792,17.6969226 C29.3345928,17.6857366 26.4997685,19.6855495 25.4435331,22.6818182 L39.5760252,22.6818182 C38.5665615,19.2575758 35.422082,17.6969226 32.5097792,17.6969226 Z M134.435331,0 C135.668078,0.0243224315 136.842943,0.527894984 137.711041,1.4040404 C138.621771,2.24833842 139.131744,3.43963991 139.114196,4.68181818 C139.133025,5.9242496 138.622837,7.11605097 137.711041,7.95959596 C136.833462,8.81018343 135.657071,9.28176238 134.435331,9.27272727 C133.217392,9.26207747 132.048033,8.79331745 131.159621,7.95959596 C130.311878,7.08035504 129.842526,5.90351576 129.852366,4.68181818 C129.843605,3.46032371 130.312799,2.28387697 131.159621,1.4040404 C132.039539,0.545446148 133.207126,0.0449931205 134.435331,0 Z" id="fill"></path>
                </g>
            </g>
        </g>
    </g>
</svg>