<?xml version="1.0" encoding="UTF-8"?>
<svg width="32px" height="32px" viewBox="0 0 32 32" version="1.1" xmlns="http://www.w3.org/2000/svg" xmlns:xlink="http://www.w3.org/1999/xlink">
    <!-- Generator: Sketch 63.1 (92452) - https://sketch.com -->
    <title>Icons/ion-md-log-out</title>
    <desc>Created with Sketch.</desc>
    <g id="Icons/ion-md-log-out" stroke="none" stroke-width="1" fill="none" fill-rule="evenodd" fill-opacity="0.9">
        <path d="M12,17.3125 L12,14.6875 L23.875,14.6875 L21.0625,11.875 L23,10 L29,16 L23,22 L21.125,20.125 L23.875,17.3125 L12,17.3125 Z M16,26.3125 C18.8333475,26.3125 21.24999,25.31251 23.25,23.3125 L25.125,25.1875 C24.5416637,25.7708363 23.9791694,26.2499981 23.4375,26.625 C21.1458219,28.2083413 18.66668,29 16,29 C12.4166488,29 9.35417938,27.7291794 6.8125,25.1875 C4.27082063,22.6458206 3,19.5833512 3,16 C3,12.4166488 4.27082063,9.35417938 6.8125,6.8125 C9.35417938,4.27082062 12.4166488,3 16,3 C18.7083469,3 21.1874887,3.77082563 23.4375,5.3125 C23.8541687,5.60416813 24.4166631,6.10416312 25.125,6.8125 L23.25,8.6875 C21.24999,6.68749 18.8333475,5.6875 16,5.6875 C13.1249856,5.6875 10.68751,6.68749 8.6875,8.6875 C6.68749,10.68751 5.6875,13.1249856 5.6875,16 C5.6875,18.8750144 6.68749,21.31249 8.6875,23.3125 C10.68751,25.31251 13.1249856,26.3125 16,26.3125 Z M28.0625,16 L28,15.9375 L27.9375,16 L28,16.0625 L28.0625,16 Z" id="↳-🎨-Fill" fill="#181C21"></path>
    </g>
</svg>