<?xml version="1.0" encoding="UTF-8"?>
<svg width="32px" height="32px" viewBox="0 0 32 32" version="1.1" xmlns="http://www.w3.org/2000/svg" xmlns:xlink="http://www.w3.org/1999/xlink">
    <!-- Generator: Sketch 63.1 (92452) - https://sketch.com -->
    <title>Icons/ion-logo-twitch</title>
    <desc>Created with Sketch.</desc>
    <g id="Icons/ion-logo-twitch" stroke="none" stroke-width="1" fill="none" fill-rule="evenodd" fill-opacity="0.9">
        <path d="M5,2 L29,2 L29,19 L22,26 L17,26 L13,30 L9,30 L9,26 L3,26 L3,7 L5,2 Z M26,18 L26,5 L7,5 L7,22 L12,22 L12,26 L16,22 L22,22 L26,18 Z M20,17 L20,8.9375 L23,8.9375 L23,17 L20,17 Z M13,17 L13,8.9375 L16,8.9375 L16,17 L13,17 Z" id="↳-🎨-Fill" fill="#181C21"></path>
    </g>
</svg>