<?xml version="1.0" encoding="UTF-8"?>
<svg width="32px" height="32px" viewBox="0 0 32 32" version="1.1" xmlns="http://www.w3.org/2000/svg" xmlns:xlink="http://www.w3.org/1999/xlink">
    <!-- Generator: Sketch 63.1 (92452) - https://sketch.com -->
    <title>Icons/ion-ios-trash</title>
    <desc>Created with Sketch.</desc>
    <g id="Icons/ion-ios-trash" stroke="none" stroke-width="1" fill="none" fill-rule="evenodd" fill-opacity="0.9">
        <path d="M8.3125,8 L23.75,8 L22.25,26.1875 C22.25,26.6875025 22.0729184,27.1145816 21.71875,27.46875 C21.3645816,27.8229184 20.9375025,28 20.4375,28 L11.625,28 C11.1249975,28 10.6979184,27.8229184 10.34375,27.46875 C9.98958156,27.1145816 9.8125,26.6875025 9.8125,26.1875 L8.3125,8 Z M12.1875,24.5625 L13.3125,24.5625 L12.875,10 L11.75,10 L12.1875,24.5625 Z M16.5625,24.5625 L16.5625,10 L15.4375,10 L15.4375,24.5625 L16.5625,24.5625 Z M19.8125,24.5625 L20.25,10 L19.125,10 L18.6875,24.5625 L19.8125,24.5625 Z M22.75,5.75 C24.0000062,5.75 24.625,6.29166125 24.625,7.375 L7.375,7.375 C7.375,6.29166125 7.99999375,5.75 9.25,5.75 L11.5,5.75 L13.125,4.3125 C13.4166681,4.10416563 13.7083319,4 14,4 L18,4 C18.2916681,4 18.5833319,4.10416563 18.875,4.3125 L20.5,5.75 L22.75,5.75 Z" id="↳-🎨-Fill" fill="#181C21"></path>
    </g>
</svg>