<?xml version="1.0" encoding="UTF-8"?>
<svg width="32px" height="32px" viewBox="0 0 32 32" version="1.1" xmlns="http://www.w3.org/2000/svg" xmlns:xlink="http://www.w3.org/1999/xlink">
    <!-- Generator: Sketch 63.1 (92452) - https://sketch.com -->
    <title>Icons/ion-md-brush</title>
    <desc>Created with Sketch.</desc>
    <g id="Icons/ion-md-brush" stroke="none" stroke-width="1" fill="none" fill-rule="evenodd" fill-opacity="0.9">
        <path d="M6.25,20.1875 C7.12500437,19.3124956 8.16666063,18.875 9.375,18.875 C10.5833394,18.875 11.6249956,19.3020791 12.5,20.15625 C13.3750044,21.0104209 13.8125,22.0416606 13.8125,23.25 C13.8125,24.8333413 13.2291725,26.1874944 12.0625,27.3125 C10.8958275,28.4375056 9.5,29 7.875,29 C5.45832125,29 3.5,28.0416762 2,26.125 C2.70833687,26.125 3.37499687,25.8645859 4,25.34375 C4.62500313,24.8229141 4.9375,24.1250044 4.9375,23.25 C4.9375,22.0416606 5.37499563,21.0208375 6.25,20.1875 Z M29.5625,5.375 C30.22917,6.04167 30.22917,6.70833 29.5625,7.375 L16.375,20.3125 L12.3125,16.375 L25.5,3.4375 C25.7916681,3.14583187 26.1458313,3 26.5625,3 C26.9791687,3 27.3333319,3.14583187 27.625,3.4375 L29.5625,5.375 Z" id="↳-🎨-Fill" fill="#181C21"></path>
    </g>
</svg>