<?xml version="1.0" encoding="UTF-8"?>
<svg width="32px" height="32px" viewBox="0 0 32 32" version="1.1" xmlns="http://www.w3.org/2000/svg" xmlns:xlink="http://www.w3.org/1999/xlink">
    <!-- Generator: Sketch 63.1 (92452) - https://sketch.com -->
    <title>Icons/ion-logo-tumblr</title>
    <desc>Created with Sketch.</desc>
    <g id="Icons/ion-logo-tumblr" stroke="none" stroke-width="1" fill="none" fill-rule="evenodd" fill-opacity="0.9">
        <path d="M20.0625,24.75 C21.4375069,24.75 22.7499938,24.3333375 24,23.5 L24,27.5625 C22.5833262,28.1875031 21.5833362,28.5624994 21,28.6875 C20.0416619,28.8958344 19.1041713,29 18.1875,29 C16.9791606,29 15.9375044,28.8541681 15.0625,28.5625 C14.062495,28.1874981 13.2708362,27.7500025 12.6875,27.25 C12.0624969,26.6666638 11.6250013,26.0833363 11.375,25.5 C11.1249987,24.8749969 11,23.9583394 11,22.75 L11,14 L8,14 L8,10.375 C8.87500437,10.0833319 9.74999563,9.58333688 10.625,8.875 C11.2500031,8.3749975 11.7916644,7.64583813 12.25,6.6875 C12.583335,6.02083 12.8749987,4.79167562 13.125,3 L17,3 L17,10 L23,10 L23,14 L17,14 L17,20.3125 C17,21.8958413 17.0833325,22.8749981 17.25,23.25 C17.3750006,23.6666687 17.6666644,24 18.125,24.25 C18.6250025,24.583335 19.2708294,24.75 20.0625,24.75 Z" id="↳-🎨-Fill" fill="#181C21"></path>
    </g>
</svg>