<?xml version="1.0" encoding="UTF-8"?>
<svg width="32px" height="32px" viewBox="0 0 32 32" version="1.1" xmlns="http://www.w3.org/2000/svg" xmlns:xlink="http://www.w3.org/1999/xlink">
    <!-- Generator: Sketch 63.1 (92452) - https://sketch.com -->
    <title>Icons/ion-ios-arrow-round-forward</title>
    <desc>Created with Sketch.</desc>
    <g id="Icons/ion-ios-arrow-round-forward" stroke="none" stroke-width="1" fill="none" fill-rule="evenodd" fill-opacity="0.9">
        <path d="M18.5,11.375 C18.1249981,10.9999981 18.1249981,10.6250019 18.5,10.25 C18.8750019,9.87499812 19.2499981,9.87499812 19.625,10.25 L24.75,15.4375 C24.9166675,15.6041675 25,15.7916656 25,16 C25,16.1250006 24.9791669,16.2291662 24.9375,16.3125 C24.8958331,16.3958338 24.8333338,16.4791662 24.75,16.5625 L19.625,21.75 C19.2499981,22.1250019 18.8750019,22.1250019 18.5,21.75 C18.0833313,21.3333313 18.0624981,20.958335 18.4375,20.625 L22.25,16.8125 L7.8125,16.8125 C7.27083063,16.8125 7,16.5416694 7,16 C7,15.4583306 7.27083063,15.1875 7.8125,15.1875 L22.25,15.1875 L18.5,11.375 Z" id="↳-🎨-Fill" fill="#181C21"></path>
    </g>
</svg>