<?xml version="1.0" encoding="UTF-8"?>
<svg width="32px" height="32px" viewBox="0 0 32 32" version="1.1" xmlns="http://www.w3.org/2000/svg" xmlns:xlink="http://www.w3.org/1999/xlink">
    <!-- Generator: Sketch 63.1 (92452) - https://sketch.com -->
    <title>Icons/ion-md-rainy</title>
    <desc>Created with Sketch.</desc>
    <g id="Icons/ion-md-rainy" stroke="none" stroke-width="1" fill="none" fill-rule="evenodd" fill-opacity="0.9">
        <path d="M8.6875,25 C9.64583813,26.0833387 10.125,26.9374969 10.125,27.5625 C10.125,27.9791687 9.98958469,28.3229153 9.71875,28.59375 C9.44791531,28.8645847 9.10416875,29 8.6875,29 C8.27083125,29 7.92708469,28.8645847 7.65625,28.59375 C7.38541531,28.3229153 7.25,27.9791687 7.25,27.5625 C7.25,27.2708319 7.37499875,26.9166687 7.625,26.5 C7.87500125,26.0833313 8.12499875,25.7291681 8.375,25.4375 L8.6875,25 Z M13.5625,23 C14.5208381,24.0833387 15,24.9374969 15,25.5625 C15,25.9791687 14.8645847,26.3229153 14.59375,26.59375 C14.3229153,26.8645847 13.9791687,27 13.5625,27 C13.1458313,27 12.8020847,26.8645847 12.53125,26.59375 C12.2604153,26.3229153 12.125,25.9791687 12.125,25.5625 C12.125,25.2708319 12.2499987,24.9166687 12.5,24.5 C12.7500013,24.0833313 12.9999987,23.7291681 13.25,23.4375 L13.5625,23 Z M18.4375,25 C19.3958381,26.0833387 19.875,26.9374969 19.875,27.5625 C19.875,27.9791687 19.7395847,28.3229153 19.46875,28.59375 C19.1979153,28.8645847 18.8541687,29 18.4375,29 C18.0208313,29 17.6770847,28.8645847 17.40625,28.59375 C17.1354153,28.3229153 17,27.9791687 17,27.5625 C17,27.2708319 17.1249987,26.9166687 17.375,26.5 C17.6250013,26.0833313 17.8749987,25.7291681 18.125,25.4375 L18.4375,25 Z M23.3125,23 C24.2708381,24.0833387 24.75,24.9374969 24.75,25.5625 C24.75,25.9791687 24.6145847,26.3229153 24.34375,26.59375 C24.0729153,26.8645847 23.7291687,27 23.3125,27 C22.8958313,27 22.5520847,26.8645847 22.28125,26.59375 C22.0104153,26.3229153 21.875,25.9791687 21.875,25.5625 C21.875,25.2708319 21.9999987,24.9166687 22.25,24.5 C22.5000013,24.0833313 22.7499987,23.7291681 23,23.4375 L23.3125,23 Z M24.5625,10.0625 C26.0625075,10.1458338 27.3437447,10.7499944 28.40625,11.875 C29.4687553,13 30,14.3333256 30,15.875 C30,17.5 29.4062559,18.9270772 28.21875,20.15625 C27.0312441,21.3854228 25.6250081,22 24,22 L8.8125,22 C6.89582375,22 5.28125656,21.2812572 3.96875,19.84375 C2.65624344,18.4062428 2,16.7083431 2,14.75 C2,13.0416581 2.53124469,11.5416731 3.59375,10.25 C4.65625531,8.95832688 6.020825,8.145835 7.6875,7.8125 C8.1875025,7.72916625 8.62499813,7.6875 9,7.6875 C10.5416744,7.6875 11.9166606,8.12499563 13.125,9 C14.3333394,9.87500437 15.1666644,11 15.625,12.375 L17.6875,12.375 C17.3124981,10.8333256 16.5416725,9.4791725 15.375,8.3125 C13.9166594,6.85415938 12.020845,6.02083437 9.6875,5.8125 C11.1875075,3.93749062 13.2916531,3 16,3 C18.1250106,3 19.9791587,3.66666 21.5625,5 C23.1458413,6.33334 24.1458313,8.02082312 24.5625,10.0625 Z" id="↳-🎨-Fill" fill="#181C21"></path>
    </g>
</svg>