<?xml version="1.0" encoding="UTF-8"?>
<svg width="32px" height="32px" viewBox="0 0 32 32" version="1.1" xmlns="http://www.w3.org/2000/svg" xmlns:xlink="http://www.w3.org/1999/xlink">
    <!-- Generator: Sketch 63.1 (92452) - https://sketch.com -->
    <title>Icons/ion-md-bulb</title>
    <desc>Created with Sketch.</desc>
    <g id="Icons/ion-md-bulb" stroke="none" stroke-width="1" fill="none" fill-rule="evenodd" fill-opacity="0.9">
        <path d="M12,26.75 L12,25.625 L20,25.625 L20,26.75 C20,27.083335 19.8750013,27.3749987 19.625,27.625 C19.3749987,27.8750013 19.083335,28 18.75,28 L13.25,28 C12.916665,28 12.6250013,27.8750013 12.375,27.625 C12.1249987,27.3749987 12,27.083335 12,26.75 Z M9.625,6.4375 C11.3750087,4.81249187 13.4999875,4 16,4 C18.5000125,4 20.6249913,4.81249187 22.375,6.4375 C24.1250087,8.06250813 25,10.041655 25,12.375 C25,15.3333481 23.7083463,17.645825 21.125,19.3125 L21.125,22 C21.125,22.333335 21,22.6145822 20.75,22.84375 C20.5,23.0729178 20.208335,23.1875 19.875,23.1875 L12.125,23.1875 C11.791665,23.1875 11.4895847,23.0729178 11.21875,22.84375 C10.9479153,22.6145822 10.8125,22.333335 10.8125,22 L10.8125,19.3125 C8.27082063,17.645825 7,15.3333481 7,12.375 C7,10.041655 7.87499125,8.06250813 9.625,6.4375 Z" id="↳-🎨-Fill" fill="#181C21"></path>
    </g>
</svg>