<?xml version="1.0" encoding="UTF-8"?>
<svg width="32px" height="32px" viewBox="0 0 32 32" version="1.1" xmlns="http://www.w3.org/2000/svg" xmlns:xlink="http://www.w3.org/1999/xlink">
    <!-- Generator: Sketch 63.1 (92452) - https://sketch.com -->
    <title>Icons/ion-md-cloudy</title>
    <desc>Created with Sketch.</desc>
    <g id="Icons/ion-md-cloudy" stroke="none" stroke-width="1" fill="none" fill-rule="evenodd" fill-opacity="0.9">
        <path d="M24.5625,13.6875 C26.0625075,13.7708338 27.3437447,14.3749944 28.40625,15.5 C29.4687553,16.625 30,17.9583256 30,19.5 C30,21.125 29.4375056,22.5104109 28.3125,23.65625 C27.1874944,24.8020891 25.8125081,25.375 24.1875,25.375 L9,25.375 C7.08332375,25.375 5.43750687,24.6875069 4.0625,23.3125 C2.68749312,21.9374931 2,20.2916763 2,18.375 C2,16.6666581 2.53124469,15.1666731 3.59375,13.875 C4.65625531,12.5833269 6.020825,11.770835 7.6875,11.4375 C8.1875025,11.3541662 8.62499813,11.3125 9,11.3125 C10.5416744,11.3125 11.9166606,11.7499956 13.125,12.625 C14.3333394,13.5000044 15.1666644,14.625 15.625,16 L17.6875,16 C17.3124981,14.4583256 16.5416725,13.1041725 15.375,11.9375 C13.9166594,10.4791594 12.020845,9.64583437 9.6875,9.4375 C11.1875075,7.56249063 13.2916531,6.625 16,6.625 C18.1250106,6.625 19.9791587,7.29166 21.5625,8.625 C23.1458413,9.95834 24.1458313,11.6458231 24.5625,13.6875 Z" id="↳-🎨-Fill" fill="#181C21"></path>
    </g>
</svg>