<?xml version="1.0" encoding="UTF-8"?>
<svg width="32px" height="32px" viewBox="0 0 32 32" version="1.1" xmlns="http://www.w3.org/2000/svg" xmlns:xlink="http://www.w3.org/1999/xlink">
    <!-- Generator: Sketch 63.1 (92452) - https://sketch.com -->
    <title>Icons/ion-ios-videocam</title>
    <desc>Created with Sketch.</desc>
    <g id="Icons/ion-ios-videocam" stroke="none" stroke-width="1" fill="none" fill-rule="evenodd" fill-opacity="0.9">
        <path d="M28.1875,9.625 L29.4375,9.625 C29.8125019,9.625 30,9.791665 30,10.125 L30,21.875 C30,22.2500019 29.8125019,22.4375 29.4375,22.4375 L28.1875,22.4375 C27.9375,22.4375 27.7291675,22.3750006 27.5625,22.25 L22.1875,18.8125 C22.0208325,18.6458325 21.9375,18.5000006 21.9375,18.375 L21.9375,13.625 C21.9375,13.4999994 22.0208325,13.3541675 22.1875,13.1875 L27.5625,9.75 C27.6875006,9.66666625 27.8958319,9.625 28.1875,9.625 Z M17.125,24 L5.25,24 C4.37499562,24 3.61458656,23.6875031 2.96875,23.0625 C2.32291344,22.4374969 2,21.6875044 2,20.8125 L2,11.1875 C2,10.3124956 2.31249687,9.56250312 2.9375,8.9375 C3.56250313,8.31249688 4.31249563,8 5.1875,8 L17.0625,8 C17.9375044,8 18.6979134,8.31249688 19.34375,8.9375 C19.9895866,9.56250312 20.3125,10.3124956 20.3125,11.1875 L20.3125,20.75 C20.3125,21.6250044 20,22.3854134 19.375,23.03125 C18.7499969,23.6770866 18,24 17.125,24 Z" id="↳-🎨-Fill" fill="#181C21"></path>
    </g>
</svg>