<?xml version="1.0" encoding="UTF-8"?>
<svg width="32px" height="32px" viewBox="0 0 32 32" version="1.1" xmlns="http://www.w3.org/2000/svg" xmlns:xlink="http://www.w3.org/1999/xlink">
    <!-- Generator: Sketch 63.1 (92452) - https://sketch.com -->
    <title>Icons/ion-md-options</title>
    <desc>Created with Sketch.</desc>
    <g id="Icons/ion-md-options" stroke="none" stroke-width="1" fill="none" fill-rule="evenodd" fill-opacity="0.9">
        <path d="M2,26 L2,24 L19,24 L19,26 L2,26 Z M25,26 L25,24 L30,24 L30,26 L25,26 Z M24,28 C24,28.5833362 23.8125019,29.0624981 23.4375,29.4375 C23.0624981,29.8125019 22.5833362,30 22,30 C21.4166638,30 20.9375019,29.8125019 20.5625,29.4375 C20.1874981,29.0624981 20,28.5833362 20,28 L20,22 C20,21.4166638 20.1874981,20.9375019 20.5625,20.5625 C20.9375019,20.1874981 21.4166638,20 22,20 C22.5833362,20 23.0624981,20.1874981 23.4375,20.5625 C23.8125019,20.9375019 24,21.4166638 24,22 L24,28 Z M2,17 L2,15 L7,15 L7,17 L2,17 Z M13,17 L13,15 L30,15 L30,17 L13,17 Z M12,19 C12,19.5833362 11.8125019,20.0624981 11.4375,20.4375 C11.0624981,20.8125019 10.5833363,21 10,21 C9.41666375,21 8.93750188,20.8125019 8.5625,20.4375 C8.18749812,20.0624981 8,19.5833362 8,19 L8,13 C8,12.4166637 8.18749812,11.9375019 8.5625,11.5625 C8.93750188,11.1874981 9.41666375,11 10,11 C10.5833363,11 11.0624981,11.1874981 11.4375,11.5625 C11.8125019,11.9375019 12,12.4166637 12,13 L12,19 Z M2,8 L2,6 L19,6 L19,8 L2,8 Z M25,8 L25,6 L30,6 L30,8 L25,8 Z M24,10 C24,10.5833363 23.8125019,11.0624981 23.4375,11.4375 C23.0624981,11.8125019 22.5833362,12 22,12 C21.4166638,12 20.9375019,11.8125019 20.5625,11.4375 C20.1874981,11.0624981 20,10.5833363 20,10 L20,4 C20,3.41666375 20.1874981,2.93750188 20.5625,2.5625 C20.9375019,2.18749812 21.4166638,2 22,2 C22.5833362,2 23.0624981,2.18749812 23.4375,2.5625 C23.8125019,2.93750188 24,3.41666375 24,4 L24,10 Z" id="↳-🎨-Fill" fill="#181C21"></path>
    </g>
</svg>