<?xml version="1.0" encoding="UTF-8"?>
<svg width="32px" height="32px" viewBox="0 0 32 32" version="1.1" xmlns="http://www.w3.org/2000/svg" xmlns:xlink="http://www.w3.org/1999/xlink">
    <!-- Generator: Sketch 63.1 (92452) - https://sketch.com -->
    <title>Icons/ion-ios-at</title>
    <desc>Created with Sketch.</desc>
    <g id="Icons/ion-ios-at" stroke="none" stroke-width="1" fill="none" fill-rule="evenodd" fill-opacity="0.9">
        <path d="M28,14.625 C28,16.9166781 27.4895884,18.7499931 26.46875,20.125 C25.4479116,21.5 24.0833419,22.1875 22.375,22.1875 C21.5,22.1875 20.7604197,21.9791687 20.15625,21.5625 C19.5520803,21.1458313 19.1875006,20.5833369 19.0625,19.875 L18.8125,19.875 C18.14583,21.3750075 16.9583419,22.125 15.25,22.125 C13.7083256,22.125 12.4687547,21.5625056 11.53125,20.4375 C10.5937453,19.3124944 10.125,17.8333425 10.125,16 C10.125,14.2499913 10.5937453,12.8333387 11.53125,11.75 C12.4687547,10.6666613 13.6874925,10.125 15.1875,10.125 C16.8958419,10.125 18.0416638,10.79166 18.625,12.125 L18.875,12.125 L18.875,10.375 L21.3125,10.375 L21.3125,18.5 C21.3125,19.5833387 21.8333281,20.125 22.875,20.125 C23.7500044,20.125 24.4479141,19.6354216 24.96875,18.65625 C25.4895859,17.6770784 25.75,16.3750081 25.75,14.75 C25.75,12.1666538 24.8541756,10.0729247 23.0625,8.46875 C21.2708244,6.86457531 18.9375144,6.0625 16.0625,6.0625 C13.2291525,6.0625 10.8958425,7 9.0625,8.875 C7.2291575,10.7500094 6.3125,13.1458188 6.3125,16.0625 C6.3125,19.062515 7.23957406,21.4583244 9.09375,23.25 C10.9479259,25.0416756 13.4374844,25.9375 16.5625,25.9375 C17.8125063,25.9375 18.9583281,25.8333344 20,25.625 C20.2916681,25.5833331 20.5520822,25.6562491 20.78125,25.84375 C21.0104178,26.0312509 21.125,26.291665 21.125,26.625 C21.125,27.1250025 20.8750025,27.4374994 20.375,27.5625 C19.04166,27.8541681 17.7500062,28 16.5,28 C12.7083144,28 9.67709469,26.9166775 7.40625,24.75 C5.13540531,22.5833225 4,19.666685 4,16 C4,12.4166488 5.12498875,9.52084437 7.375,7.3125 C9.62501125,5.10415562 12.5624819,4 16.1875,4 C19.6458506,4 22.4791556,4.97915688 24.6875,6.9375 C26.8958444,8.89584312 28,11.4583175 28,14.625 Z M13.5625,13.375 C13.0624975,14.0000031 12.8125,14.8958275 12.8125,16.0625 C12.8125,17.2291725 13.0729141,18.14583 13.59375,18.8125 C14.1145859,19.47917 14.8125,19.8125 15.6875,19.8125 C16.6041713,19.8125 17.3437472,19.4687534 17.90625,18.78125 C18.4687528,18.0937466 18.75,17.1875056 18.75,16.0625 C18.75,14.9374944 18.4687528,14.04167 17.90625,13.375 C17.3437472,12.70833 16.6041713,12.375 15.6875,12.375 C14.7708287,12.375 14.0625025,12.70833 13.5625,13.375 Z" id="↳-🎨-Fill" fill="#181C21"></path>
    </g>
</svg>