<?xml version="1.0" encoding="UTF-8"?>
<svg width="32px" height="32px" viewBox="0 0 32 32" version="1.1" xmlns="http://www.w3.org/2000/svg" xmlns:xlink="http://www.w3.org/1999/xlink">
    <!-- Generator: Sketch 63.1 (92452) - https://sketch.com -->
    <title>Icons/ion-md-search</title>
    <desc>Created with Sketch.</desc>
    <g id="Icons/ion-md-search" stroke="none" stroke-width="1" fill="none" fill-rule="evenodd" fill-opacity="0.9">
        <path d="M21.125,19.0625 L28,25.9375 L25.9375,28 L19.125,21.125 L19.125,20.0625 L18.6875,19.6875 C17.020825,21.1041738 15.0833444,21.8125 12.875,21.8125 C10.4166544,21.8125 8.32292531,20.9479253 6.59375,19.21875 C4.86457469,17.4895747 4,15.3958456 4,12.9375 C4,10.4791544 4.86457469,8.37500875 6.59375,6.625 C8.32292531,4.87499125 10.3958213,4 12.8125,4 C15.2708456,4 17.3645747,4.87499125 19.09375,6.625 C20.8229253,8.37500875 21.6875,10.4791544 21.6875,12.9375 C21.6875,15.1458444 20.9791738,17.083325 19.5625,18.75 L20,19.0625 L21.125,19.0625 Z M8.5,17.3125 C9.70833938,18.4791725 11.1666581,19.0625 12.875,19.0625 C14.5833419,19.0625 16.0416606,18.4687559 17.25,17.28125 C18.4583394,16.0937441 19.0625,14.6458419 19.0625,12.9375 C19.0625,11.2291581 18.4583394,9.77083938 17.25,8.5625 C16.0416606,7.35416062 14.5833419,6.75 12.875,6.75 C11.1666581,6.75 9.71875594,7.35416062 8.53125,8.5625 C7.34374406,9.77083938 6.75,11.2291581 6.75,12.9375 C6.75,14.6458419 7.3333275,16.1041606 8.5,17.3125 Z" id="↳-🎨-Fill" fill="#181C21"></path>
    </g>
</svg>