<?xml version="1.0" encoding="UTF-8"?>
<svg width="32px" height="32px" viewBox="0 0 32 32" version="1.1" xmlns="http://www.w3.org/2000/svg" xmlns:xlink="http://www.w3.org/1999/xlink">
    <!-- Generator: Sketch 63.1 (92452) - https://sketch.com -->
    <title>Icons/ion-md-color-wand</title>
    <desc>Created with Sketch.</desc>
    <g id="Icons/ion-md-color-wand" stroke="none" stroke-width="1" fill="none" fill-rule="evenodd" fill-opacity="0.9">
        <path d="M12.5625,9.8125 L28,25.6875 L25.75,28 L10.25,12.1875 L12.5625,9.8125 Z M11.3125,8.25 L11.3125,4 L13.625,4 L13.625,8.25 L11.3125,8.25 Z M11.3125,20.625 L11.3125,16.375 L13.625,16.375 L13.625,20.625 L11.3125,20.625 Z M16.875,13.3125 L16.875,11 L21.1875,11 L21.1875,13.3125 L16.875,13.3125 Z M19.125,7.25 L16.125,10.25 L14.5625,8.625 L17.5,5.625 L19.125,7.25 Z M10.5625,8.625 L8.9375,10.25 L6,7.25 L7.625,5.625 L10.5625,8.625 Z M6,17.375 L8.9375,14.375 L10.5625,16 L7.625,19 L6,17.375 Z M4,13.3125 L4,11 L8.0625,11 L8.0625,13.3125 L4,13.3125 Z" id="↳-🎨-Fill" fill="#181C21"></path>
    </g>
</svg>