<?xml version="1.0" encoding="UTF-8"?>
<svg width="32px" height="32px" viewBox="0 0 32 32" version="1.1" xmlns="http://www.w3.org/2000/svg" xmlns:xlink="http://www.w3.org/1999/xlink">
    <!-- Generator: Sketch 63.1 (92452) - https://sketch.com -->
    <title>Icons/ion-logo-bitcoin</title>
    <desc>Created with Sketch.</desc>
    <g id="Icons/ion-logo-bitcoin" stroke="none" stroke-width="1" fill="none" fill-rule="evenodd" fill-opacity="0.9">
        <path d="M23.875,15.5625 C24.7083375,16.0208356 25.291665,16.6458294 25.625,17.4375 C25.958335,18.2291706 26.0833337,19.1458281 26,20.1875 C25.9166662,21.5625069 25.5833362,22.6249962 25,23.375 C24.33333,24.2083375 23.3958394,24.8541644 22.1875,25.3125 C21.187495,25.7291687 19.9583406,25.9583331 18.5,26 L18.5,30 L16,30 L16,26 L14,26 L14,30 L11.4375,30 L11.4375,26 L6,26 L6.5625,23 L8.1875,23 C8.56250187,23 8.81249937,22.9791669 8.9375,22.9375 C9.06250063,22.8958331 9.16666625,22.7500013 9.25,22.5 C9.33333375,22.2499987 9.375,21.8958356 9.375,21.4375 L9.375,10.625 C9.375,10.0416637 9.33333375,9.6666675 9.25,9.5 C9.16666625,9.37499938 9.0416675,9.25000062 8.875,9.125 C8.74999937,9.04166625 8.37500312,9 7.75,9 L6,9 L6,6 L11.4375,6 L11.4375,2 L14,2 L14,6 L16,6 L16,2 L18.5,2 L18.5,6 C19.5833387,6.04166688 20.5416625,6.229165 21.375,6.5625 C22.3333381,6.93750188 23.1041637,7.5 23.6875,8.25 C24.1458356,8.87500312 24.4166662,9.81249375 24.5,11.0625 C24.5833337,11.72917 24.5208344,12.3124975 24.3125,12.8125 C24.1874994,13.3125025 23.8541694,13.7916644 23.3125,14.25 C22.979165,14.583335 22.645835,14.8124994 22.3125,14.9375 C22.6875019,15.0208338 23.20833,15.229165 23.875,15.5625 Z M14,9.375 L14,14 L16,14 L16,9.375 L14,9.375 Z M14,22.625 L16,22.625 L16,17 L14,17 L14,22.625 Z M18.5,9.625 L18.5,13.75 C18.7500013,13.625 19.0208319,13.3750019 19.3125,13 C19.6041681,12.666665 19.75,12.2500025 19.75,11.75 C19.75,11.2499975 19.6250013,10.8125019 19.375,10.4375 C19,9.97916437 18.7083344,9.70833375 18.5,9.625 Z M20.3125,21.3125 C20.7291687,20.9374981 20.9375,20.3958369 20.9375,19.6875 C20.9375,19.0624969 20.770835,18.5416687 20.4375,18.125 C20.1458319,17.791665 19.7291694,17.5208344 19.1875,17.3125 C19.0624994,17.2708331 18.833335,17.2083338 18.5,17.125 L18.5,22.25 C18.6250006,22.25 18.7708325,22.2083338 18.9375,22.125 C19.4791694,21.9166656 19.9374981,21.645835 20.3125,21.3125 Z" id="↳-🎨-Fill" fill="#181C21"></path>
    </g>
</svg>