<?xml version="1.0" encoding="UTF-8"?>
<svg width="32px" height="32px" viewBox="0 0 32 32" version="1.1" xmlns="http://www.w3.org/2000/svg" xmlns:xlink="http://www.w3.org/1999/xlink">
    <!-- Generator: Sketch 63.1 (92452) - https://sketch.com -->
    <title>Icons/ion-md-graph</title>
    <desc>Created with Sketch.</desc>
    <g id="Icons/ion-md-graph" stroke="none" stroke-width="1" fill="none" fill-rule="evenodd" fill-opacity="0.9">
        <path d="M19.5863242,9.45236719 C20.2863438,9.45236719 20.8558555,8.88285547 20.8558555,8.18283594 C20.8558555,7.48281641 20.2863438,6.91325391 19.5863242,6.91325391 C18.8863047,6.91325391 18.316793,7.48281641 18.316793,8.18283594 C18.316793,8.46873438 18.4118555,8.73279688 18.5719687,8.94526562 L16.4860781,11.8601602 C16.3616133,11.8192812 16.2288203,11.7968359 16.0907969,11.7968359 C15.7572148,11.7968359 15.4534414,11.9263789 15.2266523,12.1375273 L13.8363125,11.3485898 C13.8548477,11.2624648 13.8648008,11.1731914 13.8648008,11.0816328 C13.8648008,10.3816133 13.2952891,9.81210156 12.5952695,9.81210156 C11.89525,9.81210156 11.3257383,10.3816133 11.3257383,11.0816328 C11.3257383,11.1731914 11.3356914,11.2624648 11.3542266,11.3485898 L9.96388672,12.1375273 C9.73709766,11.9263789 9.43332422,11.7968867 9.09974219,11.7968867 C8.39972266,11.7968867 7.83021094,12.3664492 7.83021094,13.0664688 C7.83021094,13.7664883 8.39972266,14.3361016 9.09974219,14.3361016 C9.79976172,14.3361016 10.3692734,13.7664883 10.3692734,13.0664688 C10.3692734,12.9749102 10.3593203,12.8856367 10.3407852,12.7995117 L11.731125,12.0105742 C11.9579141,12.2217227 12.2616875,12.3512656 12.5952695,12.3512656 C12.9288516,12.3512656 13.2325742,12.2217227 13.4594141,12.010625 L14.8497539,12.7995625 C14.8312187,12.8856875 14.8212656,12.9749609 14.8212656,13.0665195 C14.8212656,13.7665391 15.3907773,14.3361016 16.0907969,14.3361016 C16.7908672,14.3361016 17.3603789,13.7665391 17.3603789,13.0665195 C17.3603789,12.7805703 17.2652656,12.516457 17.1051523,12.3039883 L19.191043,9.38909375 C19.315457,9.42992187 19.4483008,9.45236719 19.5863242,9.45236719 Z M19.5863242,7.67497266 C19.866332,7.67497266 20.0941367,7.90277734 20.0941367,8.18283594 C20.0941367,8.46284375 19.866332,8.69064844 19.5863242,8.69064844 C19.3063164,8.69064844 19.0785117,8.46284375 19.0785117,8.18283594 C19.0784609,7.90277734 19.3062656,7.67497266 19.5863242,7.67497266 Z M9.09958984,13.5742305 C8.81958203,13.5742305 8.59177734,13.3464258 8.59177734,13.0663672 C8.59177734,12.7863086 8.81958203,12.5585039 9.09958984,12.5585039 C9.37959766,12.5585039 9.60740234,12.7863086 9.60740234,13.0663672 C9.60740234,13.3464258 9.37959766,13.5742305 9.09958984,13.5742305 Z M12.595168,11.5894453 C12.3151602,11.5894453 12.0873555,11.3616406 12.0873555,11.081582 C12.0873555,10.8015742 12.3151602,10.5737695 12.595168,10.5737695 C12.8751758,10.5737695 13.1029805,10.8015742 13.1029805,11.081582 C13.1030312,11.3616406 12.8751758,11.5894453 12.595168,11.5894453 Z M5.87274609,4.73245312 C6.08308203,4.73245312 6.25360547,4.90292578 6.25360547,5.1133125 C6.25360547,5.32369922 6.08308203,5.49417187 5.87274609,5.49417187 L5.87274609,5.49417187 L4.07732422,5.49417187 C3.90329688,5.49417187 3.76171875,5.63575 3.76171875,5.80977734 L3.76171875,5.80977734 L3.76171875,21.5224609 C3.76171875,21.6964883 3.90329688,21.8380664 4.07732422,21.8380664 L4.07732422,21.8380664 L24.2669844,21.8380664 C24.4773203,21.8380664 24.6478438,22.0085391 24.6478438,22.2189258 C24.6478438,22.4293125 24.4773203,22.5997852 24.2669844,22.5997852 L24.2669844,22.5997852 L21.9825391,22.5997852 L21.9825391,23.4379805 C21.9825391,23.9155273 21.5940625,24.3039531 21.1165664,24.3039531 L21.1165664,24.3039531 L17.3042148,24.3039531 L19.0988242,27.8077578 C19.19475,27.9949883 19.1207109,28.2244687 18.9334805,28.3203945 C18.8779258,28.3487812 18.8186133,28.3623398 18.7601641,28.3623398 C18.6217852,28.3623398 18.488332,28.2866758 18.4208945,28.155 L18.4208945,28.155 L16.4483984,24.3039531 L12.2375156,24.3039531 L10.2650195,28.155 C10.1976328,28.2866758 10.0641289,28.3623398 9.92575,28.3623398 C9.86730078,28.3623398 9.80798828,28.3488828 9.75243359,28.3203945 C9.56520313,28.2244687 9.49121484,27.9949883 9.58708984,27.8077578 L9.58708984,27.8077578 L11.3816992,24.3039531 L7.56934766,24.3039531 C7.09185156,24.3039531 6.703375,23.9154766 6.703375,23.4379805 L6.703375,23.4379805 L6.703375,22.5997852 L4.07732422,22.5997852 C3.48328516,22.5997852 3,22.1165 3,21.5224609 L3,21.5224609 L3,5.80977734 C3,5.21573828 3.48328516,4.73245312 4.07732422,4.73245312 L4.07732422,4.73245312 Z M20.4955117,10.6978281 C22.872582,9.32546484 25.9230625,10.1426875 27.2954766,12.5199102 C27.9603047,13.6714258 28.1369219,15.0129141 27.7927773,16.2972227 C27.5774648,17.1007852 27.1743633,17.8217266 26.6207969,18.4117539 L26.6207969,18.4117539 L28.8057617,22.1962773 C28.9328672,22.4165664 29,22.6665625 29,22.9194023 C29,23.4354414 28.7224805,23.9161875 28.2758086,24.1740039 C28.0483594,24.3052227 27.7997344,24.3676328 27.5543086,24.3676328 C27.0535039,24.3676328 26.5659023,24.1080391 26.2981328,23.6440508 L26.2981328,23.6440508 L24.113625,19.8594258 C23.7461719,19.9454492 23.3704414,19.988918 22.9925273,19.988918 C22.560125,19.988918 22.1249805,19.9320938 21.696082,19.8171758 C20.4117734,19.4729805 19.3383086,18.6493086 18.6734805,17.497793 C17.3010664,15.1206719 18.1183906,12.0701914 20.4955117,10.6978281 Z M26.0437188,18.9356641 C25.8639023,19.0752109 25.6739805,19.2040938 25.4734453,19.319875 C25.2730625,19.4355547 25.0667891,19.5361016 24.8561484,19.6220742 L24.8561484,19.6220742 L26.9578828,23.263293 C27.1469414,23.590832 27.5674102,23.7034648 27.8951016,23.5142539 C28.1067578,23.3920742 28.2382813,23.1641172 28.2382813,22.9194531 C28.2382813,22.8001172 28.2063906,22.6816953 28.1460625,22.5770352 L28.1460625,22.5770352 Z M21.2208203,22.5997852 L7.46509375,22.5997852 L7.46509375,23.4379805 C7.46509375,23.4954648 7.51186328,23.5422344 7.56934766,23.5422344 L7.56934766,23.5422344 L21.1165664,23.5422344 C21.1740508,23.5422344 21.2208203,23.4954648 21.2208203,23.4379805 L21.2208203,23.4379805 L21.2208203,22.5997852 Z M9.87217578,16.2831563 C10.0825117,16.2831563 10.2530352,16.4536289 10.2530352,16.6640156 L10.2530352,16.6640156 L10.2530352,20.0293906 C10.2530352,20.2397773 10.0825117,20.41025 9.87217578,20.41025 L9.87217578,20.41025 L8.32705469,20.41025 C8.11671875,20.41025 7.94619531,20.2397773 7.94619531,20.0293906 L7.94619531,20.0293906 L7.94619531,16.6640156 C7.94619531,16.4536289 8.11671875,16.2831563 8.32705469,16.2831563 L8.32705469,16.2831563 Z M13.3677031,14.3368125 C13.5780391,14.3368125 13.7485625,14.5072852 13.7485625,14.7176719 L13.7485625,14.7176719 L13.7485625,20.0294414 C13.7485625,20.2398281 13.5780391,20.4103008 13.3677031,20.4103008 L13.3677031,20.4103008 L11.822582,20.4103008 C11.6122461,20.4103008 11.4417227,20.2398281 11.4417227,20.0294414 L11.4417227,20.0294414 L11.4417227,14.7176719 C11.4417227,14.5072852 11.6122461,14.3368125 11.822582,14.3368125 L11.822582,14.3368125 Z M16.8632813,16.2831563 C17.0736172,16.2831563 17.2441406,16.4536289 17.2441406,16.6640156 L17.2441406,16.6640156 L17.2441406,20.0293906 C17.2441406,20.2397773 17.0736172,20.41025 16.8632813,20.41025 L16.8632813,20.41025 L15.3181602,20.41025 C15.1078242,20.41025 14.9373008,20.2397773 14.9373008,20.0293906 L14.9373008,20.0293906 L14.9373008,16.6640156 C14.9373008,16.4536289 15.1078242,16.2831563 15.3181602,16.2831563 L15.3181602,16.2831563 Z M18.8137383,18.5305312 C19.0240742,18.5305312 19.1945977,18.7010039 19.1945977,18.9113906 L19.1945977,18.9113906 L19.1945977,19.648582 L20.3588594,19.648582 C20.5691953,19.648582 20.7397188,19.8190547 20.7397188,20.0294414 C20.7397188,20.2398281 20.5691953,20.4103008 20.3588594,20.4103008 L20.3588594,20.4103008 L18.8137383,20.4103008 C18.6034023,20.4103008 18.4328789,20.2398281 18.4328789,20.0294414 L18.4328789,20.0294414 L18.4328789,18.9113906 C18.4328789,18.7010039 18.6034023,18.5305312 18.8137383,18.5305312 Z M9.49131641,17.0449258 L8.70791406,17.0449258 L8.70791406,19.648582 L9.49131641,19.648582 L9.49131641,17.0449258 Z M12.9868945,15.0985312 L12.2034922,15.0985312 L12.2034922,19.648582 L12.9868945,19.648582 L12.9868945,15.0985312 Z M16.4824219,17.0449258 L15.6990195,17.0449258 L15.6990195,19.648582 L16.4824219,19.648582 L16.4824219,17.0449258 Z M22.9773438,10.7935 C22.2624453,10.7935 21.5386602,10.9750938 20.8763203,11.3574766 C18.8629961,12.5199102 18.1706953,15.1035586 19.3330781,17.1169336 C19.8961914,18.0922383 20.8054297,18.7899219 21.8932148,19.0814063 C22.9810508,19.3727891 24.1172305,19.2232891 25.0924844,18.6601758 C26.0677891,18.0970625 26.7654727,17.1879258 27.056957,16.1000898 C27.3484414,15.0122539 27.1988398,13.8760742 26.6357773,12.9007695 C25.8557773,11.5497852 24.4355273,10.7935 22.9773438,10.7935 Z M21.1763867,11.8771719 C22.4386563,11.1484102 24.0054609,11.2457578 25.1678945,12.1253398 C25.3356758,12.2522422 25.3687344,12.4911172 25.241832,12.6588477 C25.1149297,12.8266289 24.8761055,12.8596875 24.7083242,12.7327344 C23.7906563,12.0384531 22.5538789,11.9615703 21.5572969,12.5368711 C20.1942773,13.3238281 19.7255664,15.0729375 20.5125234,16.435957 C20.8936875,17.0962148 21.5092578,17.5685312 22.2456875,17.7658672 C22.9820664,17.9631523 23.7513516,17.8619961 24.4116094,17.4807305 C25.0355586,17.1204883 25.4967539,16.5434609 25.7102383,15.8558828 C25.9225547,15.1720625 25.8721289,14.4403555 25.5683047,13.7954336 C25.478625,13.6051562 25.5601797,13.3782656 25.7505078,13.2885859 C25.9407852,13.198957 26.1676758,13.2805117 26.2573555,13.4708398 C26.6425313,14.288418 26.7065664,15.2156836 26.4376797,16.0818086 C26.1672188,16.9530117 25.5829297,17.6840586 24.792418,18.1403789 C24.2352969,18.4620781 23.616832,18.6264062 22.990293,18.6264062 C22.6762109,18.6264062 22.3600469,18.5851211 22.0485039,18.5016367 C21.1155508,18.2515898 20.3357539,17.6532852 19.8528242,16.8167656 C19.3698945,15.9802969 19.2415703,15.0058047 19.4915664,14.0728516 C19.7415625,13.1398984 20.339918,12.3601016 21.1763867,11.8771719 Z M16.0907461,12.5585039 C16.3708047,12.5585039 16.5986094,12.7863086 16.5986094,13.0663672 C16.5986094,13.3464258 16.3707539,13.5742305 16.0907461,13.5742305 C15.8107383,13.5742305 15.5829336,13.3464258 15.5829336,13.0663672 C15.5829336,12.7863086 15.8107383,12.5585039 16.0907461,12.5585039 Z M15.5012266,3.02833594 C16.0281328,3.02833594 16.4567773,3.45698047 16.4567773,3.98383594 L16.4567773,3.98383594 L16.4567773,4.73245313 L24.6085391,4.73245313 C25.2025781,4.73245313 25.6858633,5.21573828 25.6858633,5.80977734 L25.6858633,5.80977734 L25.6858633,9.43103906 C25.6858633,9.64142578 25.5153398,9.81189844 25.3050039,9.81189844 C25.094668,9.81189844 24.9241445,9.64142578 24.9241445,9.43103906 L24.9241445,9.43103906 L24.9241445,5.80977734 C24.9241445,5.63575 24.7825664,5.49417188 24.6085391,5.49417188 L24.6085391,5.49417188 L7.39618359,5.49417188 C7.18584766,5.49417188 7.01532422,5.32369922 7.01532422,5.1133125 C7.01532422,4.90292578 7.18584766,4.73245313 7.39618359,4.73245313 L7.39618359,4.73245313 L12.2291367,4.73245313 L12.2291367,3.98383594 C12.2291367,3.45698047 12.657832,3.02833594 13.1846875,3.02833594 L13.1846875,3.02833594 Z M15.5012266,3.79005469 L13.1846875,3.79005469 C13.077793,3.79005469 12.9908555,3.87699219 12.9908555,3.98383594 L12.9909063,3.98383594 L12.9909063,4.73245313 L15.6950586,4.73245313 L15.6950586,3.98383594 C15.6950586,3.87699219 15.6080703,3.79005469 15.5012266,3.79005469 L15.5012266,3.79005469 Z" id="↳-🎨-Fill" fill="#181C21"></path>
    </g>
</svg>