<?xml version="1.0" encoding="UTF-8"?>
<svg width="32px" height="32px" viewBox="0 0 32 32" version="1.1" xmlns="http://www.w3.org/2000/svg" xmlns:xlink="http://www.w3.org/1999/xlink">
    <!-- Generator: Sketch 63.1 (92452) - https://sketch.com -->
    <title>Icons/ion-logo-euro</title>
    <desc>Created with Sketch.</desc>
    <g id="Icons/ion-logo-euro" stroke="none" stroke-width="1" fill="none" fill-rule="evenodd" fill-opacity="0.9">
        <path d="M14.625,17 L22.375,17 L21.9375,20 L14.625,20 L14.625,20.8125 C14.625,22.2291738 14.9687466,23.2395803 15.65625,23.84375 C16.3437534,24.4479197 17.6458237,24.75 19.5625,24.75 C21.1041744,24.75 23.041655,24.5625019 25.375,24.1875 L26,28.25 C23.8749894,28.7500025 21.6666781,29 19.375,29 C12.5416325,29 9.125,26.5625244 9.125,21.6875 L9.125,20 L6,20 L6,17 L9.125,17 L9.125,14 L6,14 L6,11 L9.125,11 L9.125,10.3125 C9.125,5.43747562 12.5416325,3 19.375,3 C21.6666781,3 23.8749894,3.2499975 26,3.75 L25.375,7.8125 C23.041655,7.43749812 21.1041744,7.25 19.5625,7.25 C17.6874906,7.25 16.3958369,7.55208031 15.6875,8.15625 C14.9791631,8.76041969 14.625,9.66666062 14.625,10.875 L14.625,11 L23.25,11 L22.8125,14 L14.625,14 L14.625,17 Z" id="↳-🎨-Fill" fill="#181C21"></path>
    </g>
</svg>