<?xml version="1.0" encoding="UTF-8"?>
<svg width="32px" height="32px" viewBox="0 0 32 32" version="1.1" xmlns="http://www.w3.org/2000/svg" xmlns:xlink="http://www.w3.org/1999/xlink">
    <!-- Generator: Sketch 63.1 (92452) - https://sketch.com -->
    <title>Icons/ion-ios-arrow-round-back</title>
    <desc>Created with Sketch.</desc>
    <g id="Icons/ion-ios-arrow-round-back" stroke="none" stroke-width="1" fill="none" fill-rule="evenodd" fill-opacity="0.9">
        <path d="M12.375,10.25 C12.7500019,9.87499812 13.1249981,9.87499812 13.5,10.25 C13.8750019,10.6250019 13.8750019,10.9999981 13.5,11.375 L9.75,15.1875 L24.1875,15.1875 C24.7291694,15.1875 25,15.4583306 25,16 C25,16.5416694 24.7291694,16.8125 24.1875,16.8125 L9.75,16.8125 L13.5,20.625 C13.8750019,21.0000019 13.8750019,21.3749981 13.5,21.75 C13.1249981,22.1250019 12.7500019,22.1250019 12.375,21.75 L7.25,16.5625 C7.16666625,16.4791662 7.10416688,16.3958338 7.0625,16.3125 C7.02083312,16.2291662 7,16.1250006 7,16 C7,15.7916656 7.0833325,15.6041675 7.25,15.4375 L12.375,10.25 Z" id="↳-🎨-Fill" fill="#181C21"></path>
    </g>
</svg>