<?xml version="1.0" encoding="UTF-8"?>
<svg width="32px" height="32px" viewBox="0 0 32 32" version="1.1" xmlns="http://www.w3.org/2000/svg" xmlns:xlink="http://www.w3.org/1999/xlink">
    <!-- Generator: Sketch 63.1 (92452) - https://sketch.com -->
    <title>Icons/ion-ios-keypad</title>
    <desc>Created with Sketch.</desc>
    <g id="Icons/ion-ios-keypad" stroke="none" stroke-width="1" fill="none" fill-rule="evenodd" fill-opacity="0.9">
        <path d="M24.6875,21.3125 C25.6041713,21.3125 26.3854134,21.6354134 27.03125,22.28125 C27.6770866,22.9270866 28,23.7291619 28,24.6875 C28,25.6458381 27.6875031,26.4374969 27.0625,27.0625 C26.4374969,27.6875031 25.6458381,28 24.6875,28 C23.7291619,28 22.9270866,27.6770866 22.28125,27.03125 C21.6354134,26.3854134 21.3125,25.6041713 21.3125,24.6875 C21.3125,23.7291619 21.6354134,22.9270866 22.28125,22.28125 C22.9270866,21.6354134 23.7291619,21.3125 24.6875,21.3125 Z M13.625,22.3125 C14.29167,21.64583 15.0833287,21.3125 16,21.3125 C16.9166713,21.3125 17.6979134,21.6354134 18.34375,22.28125 C18.9895866,22.9270866 19.3125,23.7291619 19.3125,24.6875 C19.3125,25.6458381 18.9895866,26.4374969 18.34375,27.0625 C17.6979134,27.6875031 16.9166713,28 16,28 C15.0833287,28 14.3020866,27.6875031 13.65625,27.0625 C13.0104134,26.4374969 12.6875,25.6458381 12.6875,24.6875 C12.6875,23.7291619 12.9999969,22.9375031 13.625,22.3125 Z M7.3125,21.3125 C8.27083813,21.3125 9.07291344,21.6354134 9.71875,22.28125 C10.3645866,22.9270866 10.6875,23.7291619 10.6875,24.6875 C10.6875,25.6041713 10.3645866,26.3854134 9.71875,27.03125 C9.07291344,27.6770866 8.27083813,28 7.3125,28 C6.35416187,28 5.56250313,27.6875031 4.9375,27.0625 C4.31249687,26.4374969 4,25.6458381 4,24.6875 C4,23.7291619 4.32291344,22.9270866 4.96875,22.28125 C5.61458656,21.6354134 6.39582875,21.3125 7.3125,21.3125 Z M22.25,13.6875 C22.91667,13.02083 23.7291619,12.6875 24.6875,12.6875 C25.6458381,12.6875 26.4374969,13.0104134 27.0625,13.65625 C27.6875031,14.3020866 28,15.0833287 28,16 C28,16.9166713 27.6875031,17.6979134 27.0625,18.34375 C26.4374969,18.9895866 25.6458381,19.3125 24.6875,19.3125 C23.7291619,19.3125 22.9270866,18.9895866 22.28125,18.34375 C21.6354134,17.6979134 21.3125,16.9166713 21.3125,16 C21.3125,15.0833287 21.6249969,14.3125031 22.25,13.6875 Z M13.625,13.6875 C14.29167,13.02083 15.0833287,12.6875 16,12.6875 C16.9166713,12.6875 17.6979134,13.0104134 18.34375,13.65625 C18.9895866,14.3020866 19.3125,15.0833287 19.3125,16 C19.3125,16.9166713 18.9895866,17.6979134 18.34375,18.34375 C17.6979134,18.9895866 16.9166713,19.3125 16,19.3125 C15.0833287,19.3125 14.3020866,18.9895866 13.65625,18.34375 C13.0104134,17.6979134 12.6875,16.9166713 12.6875,16 C12.6875,15.0833287 12.9999969,14.3125031 13.625,13.6875 Z M4.9375,13.6875 C5.56250313,13.02083 6.35416187,12.6875 7.3125,12.6875 C8.27083813,12.6875 9.07291344,13.0104134 9.71875,13.65625 C10.3645866,14.3020866 10.6875,15.0833287 10.6875,16 C10.6875,16.9166713 10.3645866,17.6979134 9.71875,18.34375 C9.07291344,18.9895866 8.27083813,19.3125 7.3125,19.3125 C6.35416187,19.3125 5.56250313,18.9895866 4.9375,18.34375 C4.31249687,17.6979134 4,16.9166713 4,16 C4,15.0833287 4.31249687,14.3125031 4.9375,13.6875 Z M22.25,5 C22.91667,4.33333 23.7291619,4 24.6875,4 C25.6458381,4 26.4374969,4.31249688 27.0625,4.9375 C27.6875031,5.56250312 28,6.35416187 28,7.3125 C28,8.27083812 27.6770866,9.07291344 27.03125,9.71875 C26.3854134,10.3645866 25.6041713,10.6875 24.6875,10.6875 C23.7291619,10.6875 22.9270866,10.3645866 22.28125,9.71875 C21.6354134,9.07291344 21.3125,8.27083812 21.3125,7.3125 C21.3125,6.39582875 21.6249969,5.62500312 22.25,5 Z M13.625,4.9375 C14.29167,4.31249688 15.0833287,4 16,4 C16.9166713,4 17.6979134,4.31249688 18.34375,4.9375 C18.9895866,5.56250312 19.3125,6.35416187 19.3125,7.3125 C19.3125,8.27083812 18.9895866,9.07291344 18.34375,9.71875 C17.6979134,10.3645866 16.9166713,10.6875 16,10.6875 C15.0833287,10.6875 14.3020866,10.3645866 13.65625,9.71875 C13.0104134,9.07291344 12.6875,8.27083812 12.6875,7.3125 C12.6875,6.35416187 12.9999969,5.56250312 13.625,4.9375 Z M4.9375,4.9375 C5.56250313,4.31249688 6.35416187,4 7.3125,4 C8.27083813,4 9.07291344,4.32291344 9.71875,4.96875 C10.3645866,5.61458656 10.6875,6.39582875 10.6875,7.3125 C10.6875,8.27083812 10.3645866,9.07291344 9.71875,9.71875 C9.07291344,10.3645866 8.27083813,10.6875 7.3125,10.6875 C6.39582875,10.6875 5.61458656,10.3645866 4.96875,9.71875 C4.32291344,9.07291344 4,8.27083812 4,7.3125 C4,6.35416187 4.31249687,5.56250312 4.9375,4.9375 Z" id="↳-🎨-Fill" fill="#181C21"></path>
    </g>
</svg>