<?xml version="1.0" encoding="UTF-8"?>
<svg width="32px" height="32px" viewBox="0 0 32 32" version="1.1" xmlns="http://www.w3.org/2000/svg" xmlns:xlink="http://www.w3.org/1999/xlink">
    <!-- Generator: Sketch 63.1 (92452) - https://sketch.com -->
    <title>Icons/ion-md-videocam</title>
    <desc>Created with Sketch.</desc>
    <g id="Icons/ion-md-videocam" stroke="none" stroke-width="1" fill="none" fill-rule="evenodd" fill-opacity="0.9">
        <path d="M24,13.75 L30,7.625 L30,24.375 L24,18.25 L24,23.625 C24,24.0416687 23.8437516,24.3958319 23.53125,24.6875 C23.2187484,24.9791681 22.8541687,25.125 22.4375,25.125 L3.5625,25.125 C3.14583125,25.125 2.78125156,24.9791681 2.46875,24.6875 C2.15624844,24.3958319 2,24.0416687 2,23.625 L2,8.375 C2,7.95833125 2.15624844,7.60416813 2.46875,7.3125 C2.78125156,7.02083187 3.14583125,6.875 3.5625,6.875 L22.4375,6.875 C22.8541687,6.875 23.2187484,7.02083187 23.53125,7.3125 C23.8437516,7.60416813 24,7.95833125 24,8.375 L24,13.75 Z" id="↳-🎨-Fill" fill="#181C21"></path>
    </g>
</svg>