<?xml version="1.0" encoding="UTF-8"?>
<svg width="32px" height="32px" viewBox="0 0 32 32" version="1.1" xmlns="http://www.w3.org/2000/svg" xmlns:xlink="http://www.w3.org/1999/xlink">
    <!-- Generator: Sketch 63.1 (92452) - https://sketch.com -->
    <title>Icons/ion-ios-star</title>
    <desc>Created with Sketch.</desc>
    <g id="Icons/ion-ios-star" stroke="none" stroke-width="1" fill="none" fill-rule="evenodd" fill-opacity="0.9">
        <path d="M28.9375,12 C29.2291681,12 29.4791656,12.0937491 29.6875,12.28125 C29.8958344,12.4687509 30,12.7083319 30,13 C30,13.2500013 29.8958344,13.4791656 29.6875,13.6875 L29.5,13.8125 L22,19.1875 L24.875,27.625 C25.0416675,28.1250025 24.9375019,28.5 24.5625,28.75 C24.3124987,28.9166675 24.1250006,29 24,29 C23.8333325,29 23.6250013,28.9166675 23.375,28.75 L16,23.5 L8.625,28.75 C8.37499875,28.9166675 8.1666675,29 8,29 C7.87499937,29 7.68750125,28.9166675 7.4375,28.75 C7.06249812,28.5 6.9583325,28.1250025 7.125,27.625 L10,19.1875 L2.4375,13.875 C2.14583187,13.6249987 2,13.3958344 2,13.1875 L2,13 C2,12.33333 2.33333,12 3,12 L12.25,12 L15.0625,3.6875 C15.2291675,3.22916437 15.5416644,3 16,3 C16.4583356,3 16.7708325,3.22916437 16.9375,3.6875 L19.75,12 L28.9375,12 Z" id="↳-🎨-Fill" fill="#181C21"></path>
    </g>
</svg>