<?xml version="1.0" encoding="UTF-8"?>
<svg width="32px" height="32px" viewBox="0 0 32 32" version="1.1" xmlns="http://www.w3.org/2000/svg" xmlns:xlink="http://www.w3.org/1999/xlink">
    <!-- Generator: Sketch 63.1 (92452) - https://sketch.com -->
    <title>Icons/ion-ios-shuffle</title>
    <desc>Created with Sketch.</desc>
    <g id="Icons/ion-ios-shuffle" stroke="none" stroke-width="1" fill="none" fill-rule="evenodd" fill-opacity="0.9">
        <path d="M25.375,18 L27.625,20.25 C27.8750013,20.5000013 28,20.8124981 28,21.1875 C28,21.6041687 27.8750013,21.9374987 27.625,22.1875 L25.5,24.25 C25.3333325,24.4166675 25.1250013,24.5 24.875,24.5 C24.6249987,24.5 24.4166675,24.4166675 24.25,24.25 C24.0833325,24.0833325 24,23.8750013 24,23.625 C24,23.3749987 24.0833325,23.1666675 24.25,23 L25.25,22 L20,22 C19.7499987,22 19.5208344,21.8958344 19.3125,21.6875 L16,17.5 L12.6875,21.6875 C12.4791656,21.8958344 12.2500013,22 12,22 L4.875,22 C4.29166375,22 4,21.7083363 4,21.125 C4,20.5416637 4.29166375,20.25 4.875,20.25 L11.5625,20.25 L14.875,16.125 L11.5625,12 L4.875,12 C4.29166375,12 4,11.7083363 4,11.125 C4,10.5416637 4.29166375,10.25 4.875,10.25 L12,10.25 C12.2500013,10.25 12.4791656,10.3541656 12.6875,10.5625 L20.4375,20.25 L25.125,20.25 L24.125,19.25 C23.9583325,19.0833325 23.875,18.8750013 23.875,18.625 C23.875,18.3749987 23.9583325,18.1666675 24.125,18 C24.2916675,17.8333325 24.5,17.75 24.75,17.75 C25,17.75 25.2083325,17.8333325 25.375,18 Z M17.4375,14.6875 L16.8125,13.9375 C16.6874994,13.8124994 16.6874994,13.6666675 16.8125,13.5 L19.3125,10.3125 C19.5208344,10.1041656 19.7499987,10 20,10 L25.25,10 L24.25,9 C24.0833325,8.8333325 24,8.62500125 24,8.375 C24,8.12499875 24.0833325,7.9166675 24.25,7.75 C24.4166675,7.5833325 24.6249987,7.5 24.875,7.5 C25.1250012,7.5 25.3333325,7.5833325 25.5,7.75 L27.625,9.875 C27.8750012,10.1250013 28,10.4374981 28,10.8125 C28,11.2291687 27.8750012,11.5624987 27.625,11.8125 L25.375,14 C25.2083325,14.1666675 25.0000012,14.25 24.75,14.25 C24.4999987,14.25 24.2916675,14.1666675 24.125,14 C23.9583325,13.8333325 23.875,13.6250013 23.875,13.375 C23.875,13.1249987 23.9583325,12.9166675 24.125,12.75 L25.125,11.75 L20.4375,11.75 L18.0625,14.6875 C17.9374994,14.8125006 17.8333337,14.875 17.75,14.875 C17.6666662,14.875 17.5625006,14.8125006 17.4375,14.6875 Z" id="↳-🎨-Fill" fill="#181C21"></path>
    </g>
</svg>