<?xml version="1.0" encoding="UTF-8"?>
<svg width="32px" height="32px" viewBox="0 0 32 32" version="1.1" xmlns="http://www.w3.org/2000/svg" xmlns:xlink="http://www.w3.org/1999/xlink">
    <!-- Generator: Sketch 63.1 (92452) - https://sketch.com -->
    <title>Icons/ion-logo-google</title>
    <desc>Created with Sketch.</desc>
    <g id="Icons/ion-logo-google" stroke="none" stroke-width="1" fill="none" fill-rule="evenodd" fill-opacity="0.9">
        <path d="M28.625,14 L28.625,14.125 C28.625,14.2083338 28.6354166,14.3124994 28.65625,14.4375 C28.6770834,14.5625006 28.6979166,14.7083325 28.71875,14.875 C28.7395834,15.0416675 28.75,15.2604153 28.75,15.53125 L28.75,16.3125 C28.75,19.9375181 27.6250113,22.9374881 25.375,25.3125 C23.041655,27.7708456 20.1041844,29 16.5625,29 C12.6041469,29 9.35417938,27.66668 6.8125,25 C4.43748812,22.5833213 3.25,19.5833512 3.25,16 C3.25,12.333315 4.47915438,9.27084562 6.9375,6.8125 C9.56251313,4.27082062 12.6874819,3 16.3125,3 C19.5208494,3 22.3749875,4.10415563 24.875,6.3125 L21.25,9.9375 C19.8749931,8.68749375 18.2708425,8.0625 16.4375,8.0625 C14.0624881,8.0625 12.1875069,8.79165937 10.8125,10.25 C9.18749188,11.8750081 8.375,13.7916556 8.375,16 C8.375,18.2916781 9.18749188,20.2083256 10.8125,21.75 C12.3958413,23.2500075 14.2916556,24 16.5,24 C18.0833412,24 19.5833262,23.5104216 21,22.53125 C22.4166738,21.5520784 23.291665,20.229175 23.625,18.5625 L16.375,18.5625 L16.375,13.4375 L28.5,13.4375 L28.625,14 Z" id="↳-🎨-Fill" fill="#181C21"></path>
    </g>
</svg>