<?xml version="1.0" encoding="UTF-8"?>
<svg width="32px" height="32px" viewBox="0 0 32 32" version="1.1" xmlns="http://www.w3.org/2000/svg" xmlns:xlink="http://www.w3.org/1999/xlink">
    <!-- Generator: Sketch 63.1 (92452) - https://sketch.com -->
    <title>Icons/ion-md-lab</title>
    <desc>Created with Sketch.</desc>
    <g id="Icons/ion-md-lab" stroke="none" stroke-width="1" fill="none" fill-rule="evenodd" fill-opacity="0.9">
        <path d="M23.9674185,24.7932739 L18.9265996,12.4228516 C18.6470694,11.7365723 18.5052128,11.0125732 18.5052128,10.270813 L18.5052128,7.00091552 C18.5052128,6.64880369 18.6414315,6.317749 18.8887712,6.06872556 C19.1903074,5.76513672 19.3565342,5.36138917 19.3565342,4.93200681 L19.3565342,4.46875 C19.3565342,4.20983884 19.1479323,4 18.8909536,4 L12.3904669,4 C12.1333064,4 11.9248863,4.20983884 11.9248863,4.46875 L11.9248863,4.93200681 C11.9248863,5.36138917 12.0909313,5.76513672 12.3924675,6.06872556 C12.6398071,6.317749 12.7760258,6.64880369 12.7760258,7.00109866 L12.7760258,10.270813 C12.7760258,11.0125732 12.6343511,11.7365723 12.354639,12.4228516 L10.9695369,15.8220215 C10.9689913,15.8233032 10.9684457,15.8245849 10.9679001,15.8258667 L7.31382017,24.7932739 C7.02119552,25.5115967 7.10285397,26.3255005 7.53242476,26.9702148 C7.9619956,27.6151123 8.67873503,28 9.44985283,28 L21.8313858,28 C22.6025036,28 23.3194249,27.6151123 23.7489957,26.9702148 C24.1783847,26.3253174 24.2600432,25.5115967 23.9674185,24.7932739 Z M13.216145,12.7786255 C13.5420514,11.9790039 13.7071869,11.1352539 13.7071869,10.270813 L13.7071869,7.00091552 C13.7071869,6.39849855 13.4742148,5.8319702 13.0510093,5.40588381 C12.9266121,5.28063963 12.8575024,5.11437991 12.8560475,4.9375 L18.425373,4.9375 C18.4239181,5.11437991 18.3548085,5.28045653 18.2302293,5.40588381 C17.8072057,5.8319702 17.5740517,6.39831541 17.5740517,7.00091552 L17.5740517,10.2706299 C17.5740517,11.1350708 17.7393692,11.9788208 18.0650937,12.7784424 L19.1892161,15.5371094 L12.0920225,15.5371094 L13.216145,12.7786255 Z M19.5711377,16.4747925 L23.1059126,25.149231 C23.2830515,25.5841065 23.235584,26.0576172 22.9755137,26.447998 C22.7154433,26.838562 22.2984213,27.0625 21.8313858,27.0625 L9.44985283,27.0625 C8.98299919,27.0625 8.56597724,26.838562 8.30572502,26.447998 C8.10949008,26.1533814 8.03456071,25.8117065 8.08548358,25.4747925 L8.85260027,25.4747925 C9.10957891,25.4747925 9.31818083,25.2647705 9.31818083,25.0060425 C9.31818083,24.7471314 9.10957891,24.5372925 8.85260027,24.5372925 L8.42484814,24.5372925 L8.95953831,23.2247925 L9.74484179,23.2247925 C10.0020023,23.2247925 10.2104223,23.0147705 10.2104223,22.7560425 C10.2104223,22.4971314 10.0020023,22.2872925 9.74484179,22.2872925 L9.34164176,22.2872925 L9.87633189,20.9747925 L10.6838232,20.9747925 C10.9409837,20.9747925 11.1494037,20.7647705 11.1494037,20.5060425 C11.1494037,20.2471314 10.9409837,20.0372925 10.6838232,20.0372925 L10.2584353,20.0372925 L10.7933074,18.7247925 L11.6226227,18.7247925 C11.8797832,18.7247925 12.0882033,18.5147705 12.0882033,18.2560425 C12.0882033,17.9971314 11.8797832,17.7872925 11.6226227,17.7872925 L11.1752289,17.7872925 L11.710101,16.4747925 L19.5711377,16.4747925 Z" id="↳-🎨-Fill" fill="#181C21"></path>
    </g>
</svg>