<?xml version="1.0" encoding="UTF-8"?>
<svg width="32px" height="32px" viewBox="0 0 32 32" version="1.1" xmlns="http://www.w3.org/2000/svg" xmlns:xlink="http://www.w3.org/1999/xlink">
    <!-- Generator: Sketch 63.1 (92452) - https://sketch.com -->
    <title>Icons/ion-md-attach</title>
    <desc>Created with Sketch.</desc>
    <g id="Icons/ion-md-attach" stroke="none" stroke-width="1" fill="none" fill-rule="evenodd" fill-opacity="0.9">
        <path d="M21.34375,8 L23.34375,8 L23.34375,22.6875 C23.34375,24.7291769 22.6250072,26.4583262 21.1875,27.875 C19.7499928,29.2916738 18.0104269,30 15.96875,30 C13.9270731,30 12.1979237,29.2916738 10.78125,27.875 C9.36457625,26.4583262 8.65625,24.7291769 8.65625,22.6875 L8.65625,7.3125 C8.65625,5.85415938 9.17707812,4.60417187 10.21875,3.5625 C11.2604219,2.52082813 12.5104094,2 13.96875,2 C15.4270906,2 16.6874947,2.52082813 17.75,3.5625 C18.8125053,4.60417187 19.34375,5.85415938 19.34375,7.3125 L19.34375,22.6875 C19.34375,23.6041713 19.0208366,24.3854134 18.375,25.03125 C17.7291634,25.6770866 16.9270881,26 15.96875,26 C15.0104119,26 14.2187531,25.6875031 13.59375,25.0625 C12.9687469,24.4374969 12.65625,23.6458381 12.65625,22.6875 L12.65625,10 L14.65625,10 L14.65625,22.6875 C14.65625,23.0625019 14.7812487,23.3749987 15.03125,23.625 C15.2812513,23.8750013 15.5937481,24 15.96875,24 C16.3437519,24 16.6666653,23.8750013 16.9375,23.625 C17.2083347,23.3749987 17.34375,23.0625019 17.34375,22.6875 L17.34375,7.3125 C17.34375,6.39582875 17.0208366,5.61458656 16.375,4.96875 C15.7291634,4.32291344 14.9270881,4 13.96875,4 C13.0104119,4 12.2187531,4.31249688 11.59375,4.9375 C10.9687469,5.56250312 10.65625,6.35416187 10.65625,7.3125 L10.65625,22.6875 C10.65625,24.1458406 11.1770781,25.3958281 12.21875,26.4375 C13.2604219,27.4791719 14.5104094,28 15.96875,28 C17.4270906,28 18.6874947,27.4791719 19.75,26.4375 C20.8125053,25.3958281 21.34375,24.1458406 21.34375,22.6875 L21.34375,8 Z" id="↳-🎨-Fill" fill="#181C21"></path>
    </g>
</svg>