<?xml version="1.0" encoding="UTF-8"?>
<svg width="32px" height="32px" viewBox="0 0 32 32" version="1.1" xmlns="http://www.w3.org/2000/svg" xmlns:xlink="http://www.w3.org/1999/xlink">
    <!-- Generator: Sketch 63.1 (92452) - https://sketch.com -->
    <title>Icons/ion-md-git-commit</title>
    <desc>Created with Sketch.</desc>
    <g id="Icons/ion-md-git-commit" stroke="none" stroke-width="1" fill="none" fill-rule="evenodd" fill-opacity="0.9">
        <path d="M30,14 L30,18 L23.75,18 C23.2916644,19.7500087 22.3437572,21.1874944 20.90625,22.3125 C19.4687428,23.4375056 17.8333425,24 16,24 C14.1666575,24 12.5416737,23.4375056 11.125,22.3125 C9.70832625,21.1874944 8.77083563,19.7500087 8.3125,18 L2,18 L2,14 L8.3125,14 C8.77083563,12.2499913 9.70832625,10.8125056 11.125,9.6875 C12.5416737,8.56249437 14.1666575,8 16,8 C17.8333425,8 19.4687428,8.56249437 20.90625,9.6875 C22.3437572,10.8125056 23.2916644,12.2499913 23.75,14 L30,14 Z M12.5,19.5625 C13.4583381,20.5208381 14.6249931,21 16,21 C17.3750069,21 18.5520784,20.5104216 19.53125,19.53125 C20.5104216,18.5520784 21,17.3750069 21,16 C21,14.6249931 20.5104216,13.4479216 19.53125,12.46875 C18.5520784,11.4895784 17.3750069,11 16,11 C14.6249931,11 13.4583381,11.4895784 12.5,12.46875 C11.5416619,13.4479216 11.0625,14.6249931 11.0625,16 C11.0625,17.3750069 11.5416619,18.562495 12.5,19.5625 Z" id="↳-🎨-Fill" fill="#181C21"></path>
    </g>
</svg>