<?xml version="1.0" encoding="UTF-8"?>
<svg width="32px" height="32px" viewBox="0 0 32 32" version="1.1" xmlns="http://www.w3.org/2000/svg" xmlns:xlink="http://www.w3.org/1999/xlink">
    <!-- Generator: Sketch 63.1 (92452) - https://sketch.com -->
    <title>Icons/ion-md-save</title>
    <desc>Created with Sketch.</desc>
    <g id="Icons/ion-md-save" stroke="none" stroke-width="1" fill="none" fill-rule="evenodd" fill-opacity="0.9">
        <path d="M22.6875,4 L28,9.3125 L28,25.3125 C28,26.0625038 27.7395859,26.6979141 27.21875,27.21875 C26.6979141,27.7395859 26.0625038,28 25.3125,28 L6.6875,28 C5.93749625,28 5.30208594,27.7395859 4.78125,27.21875 C4.26041406,26.6979141 4,26.0625038 4,25.3125 L4,6.6875 C4,5.93749625 4.26041406,5.30208594 4.78125,4.78125 C5.30208594,4.26041406 5.93749625,4 6.6875,4 L22.6875,4 Z M13.1875,24.125 C13.9791706,24.9166706 14.9166613,25.3125 16,25.3125 C17.0833387,25.3125 18.0208294,24.9166706 18.8125,24.125 C19.6041706,23.3333294 20,22.3958387 20,21.3125 C20,20.2291613 19.6041706,19.2916706 18.8125,18.5 C18.0208294,17.7083294 17.0833387,17.3125 16,17.3125 C14.9166613,17.3125 13.9791706,17.7083294 13.1875,18.5 C12.3958294,19.2916706 12,20.2291613 12,21.3125 C12,22.3958387 12.3958294,23.3333294 13.1875,24.125 Z M20,12 L20,6.6875 L6.6875,6.6875 L6.6875,12 L20,12 Z" id="↳-🎨-Fill" fill="#181C21"></path>
    </g>
</svg>