<?xml version="1.0" encoding="UTF-8"?>
<svg width="32px" height="32px" viewBox="0 0 32 32" version="1.1" xmlns="http://www.w3.org/2000/svg" xmlns:xlink="http://www.w3.org/1999/xlink">
    <!-- Generator: Sketch 63.1 (92452) - https://sketch.com -->
    <title>Icons/ion-md-film</title>
    <desc>Created with Sketch.</desc>
    <g id="Icons/ion-md-film" stroke="none" stroke-width="1" fill="none" fill-rule="evenodd" fill-opacity="0.9">
        <path d="M23.5,4 L26,4 L26,28 L23.5,28 L23.5,25.3125 L21,25.3125 L21,28 L11,28 L11,25.3125 L8.5,25.3125 L8.5,28 L6,28 L6,4 L8.5,4 L8.5,6.6875 L11,6.6875 L11,4 L21,4 L21,6.6875 L23.5,6.6875 L23.5,4 Z M11,22.6875 L11,20 L8.5,20 L8.5,22.6875 L11,22.6875 Z M11,17.3125 L11,14.6875 L8.5,14.6875 L8.5,17.3125 L11,17.3125 Z M11,12 L11,9.3125 L8.5,9.3125 L8.5,12 L11,12 Z M23.5,22.6875 L23.5,20 L21,20 L21,22.6875 L23.5,22.6875 Z M23.5,17.3125 L23.5,14.6875 L21,14.6875 L21,17.3125 L23.5,17.3125 Z M23.5,12 L23.5,9.3125 L21,9.3125 L21,12 L23.5,12 Z" id="↳-🎨-Fill" fill="#181C21"></path>
    </g>
</svg>