<?xml version="1.0" encoding="UTF-8"?>
<svg width="32px" height="32px" viewBox="0 0 32 32" version="1.1" xmlns="http://www.w3.org/2000/svg" xmlns:xlink="http://www.w3.org/1999/xlink">
    <!-- Generator: Sketch 63.1 (92452) - https://sketch.com -->
    <title>Icons/ion-ios-contacts</title>
    <desc>Created with Sketch.</desc>
    <g id="Icons/ion-ios-contacts" stroke="none" stroke-width="1" fill="none" fill-rule="evenodd" fill-opacity="0.9">
        <path d="M6.8125,6.8125 C9.35417938,4.27082062 12.4166488,3 16,3 C19.5833512,3 22.6458206,4.27082062 25.1875,6.8125 C27.7291794,9.35417938 29,12.4166488 29,16 C29,19.5833512 27.7291794,22.6458206 25.1875,25.1875 C22.6458206,27.7291794 19.5833512,29 16,29 C12.4166488,29 9.35417938,27.7291794 6.8125,25.1875 C4.27082063,22.6458206 3,19.5833512 3,16 C3,12.4166488 4.27082063,9.35417938 6.8125,6.8125 Z M24.9375,19.5 C25.5208362,19.7083344 25.9999981,20.0208312 26.375,20.4375 C26.9583363,19.1458269 27.25,17.666675 27.25,16 C27.25,12.8333175 26.1250113,10.1666775 23.875,8 C21.6249887,5.8333225 18.9583487,4.75 15.875,4.75 C12.9166519,4.75 10.3125113,5.8333225 8.0625,8 C5.85415562,10.2083444 4.75,12.8749844 4.75,16 C4.75,18.00001 5.27082812,19.9166575 6.3125,21.75 C6.645835,21.5833325 7.52082625,21.3541681 8.9375,21.0625 C9.89583813,20.9374994 10.4166662,20.6666687 10.5,20.25 C10.5833337,19.916665 10.625,19.4375031 10.625,18.8125 C10.625,18.7291662 10.5625006,18.6250006 10.4375,18.5 C10.2708325,18.3333325 10.1041675,18.0416687 9.9375,17.625 C9.85416625,17.291665 9.77083375,16.79167 9.6875,16.125 C9.5208325,16.1666669 9.38541719,16.1041675 9.28125,15.9375 C9.17708281,15.7708325 9.09375031,15.5520847 9.03125,15.28125 C8.96874969,15.0104153 8.9375,14.8541669 8.9375,14.8125 C8.7708325,14.0624963 8.854165,13.6041675 9.1875,13.4375 C9.06249937,13.2291656 8.95833375,12.8541694 8.875,12.3125 C8.75,11.3958287 8.81249875,10.5833369 9.0625,9.875 C9.35416812,9.08332938 9.86457969,8.47916875 10.59375,8.0625 C11.3229203,7.64583125 12.1249956,7.45833312 13,7.5 C15.00001,7.58333375 16.25,8.43749187 16.75,10.0625 C16.9583344,10.6875031 16.9791675,11.5208281 16.8125,12.5625 C16.7708331,12.8541681 16.6666675,13.1458319 16.5,13.4375 C16.9166687,13.6041675 16.9791681,14.1041625 16.6875,14.9375 C16.6875,14.9791669 16.6666669,15.0833325 16.625,15.25 C16.5833331,15.4166675 16.5416669,15.5624994 16.5,15.6875 C16.4583331,15.8125006 16.3958338,15.9270828 16.3125,16.03125 C16.2291662,16.1354172 16.1250006,16.1666669 16,16.125 C15.9166662,17.0416713 15.7708344,17.6874981 15.5625,18.0625 C15.5625,18.1041669 15.4791675,18.2083325 15.3125,18.375 C15.1458325,18.5416675 15.0625,18.6458331 15.0625,18.6875 L15.0625,19.375 C15.0625,19.7916687 15.1041662,20.1041656 15.1875,20.3125 C15.2708338,20.5208344 15.5624975,20.6874994 16.0625,20.8125 C16.3541681,20.8958337 16.7916637,20.9895828 17.375,21.09375 C17.9583363,21.1979172 18.3958319,21.3124994 18.6875,21.4375 C20.5625094,22.10417 21.5,23.4583231 21.5,25.5 C21.5,25.666667 21.6041656,25.7083338 21.8125,25.625 C21.8541669,25.625 21.9062497,25.6041669 21.96875,25.5625 C22.0312503,25.5208331 22.0833331,25.4791669 22.125,25.4375 C22.3750013,25.2708325 22.5,25.020835 22.5,24.6875 C22.3749994,23.5624944 21.9583369,22.6458369 21.25,21.9375 C20.8749981,21.604165 20.4479191,21.3020847 19.96875,21.03125 C19.4895809,20.7604153 19.1041681,20.5833338 18.8125,20.5 L18.375,20.375 C18.3333331,20.375 18.2708338,20.3645834 18.1875,20.34375 C18.1041662,20.3229166 18.0000006,20.2916669 17.875,20.25 C17.75,20.2083331 17.6666669,20.1875 17.625,20.1875 C17.4999994,20.1458331 17.4375,20.0625006 17.4375,19.9375 C17.4375,19.8124994 17.4999994,19.7291669 17.625,19.6875 C17.7083338,19.6458331 17.8124994,19.6041669 17.9375,19.5625 C18.0625006,19.5208331 18.1666662,19.4895834 18.25,19.46875 C18.3333338,19.4479166 18.4062497,19.4166669 18.46875,19.375 C18.5312503,19.3333331 18.5833331,19.3125 18.625,19.3125 C19.25,19.1458325 19.5833331,18.9583344 19.625,18.75 L19.625,17.875 L17.8125,17.5 C17.6458325,17.4166662 17.6458325,17.1875019 17.8125,16.8125 C17.9375006,16.5208319 18.0416662,15.4583425 18.125,13.625 C18.2083338,11.7916575 18.7708281,10.6666687 19.8125,10.25 C20.1875019,10.0833325 20.70833,10 21.375,10 C22.2083375,10 22.8541644,10.1458319 23.3125,10.4375 C24.1458375,10.9375025 24.5625,11.85416 24.5625,13.1875 C24.5625,13.3541675 24.5520834,13.6666644 24.53125,14.125 C24.5104166,14.5833356 24.5,14.9374987 24.5,15.1875 C24.5,15.4375012 24.5416662,15.75 24.625,16.125 C24.7083338,16.5000019 24.8333325,16.8124987 25,17.0625 C25.1250006,17.2708344 25.1250006,17.3958331 25,17.4375 C24.75,17.6458344 24.1041719,17.7708331 23.0625,17.8125 C22.9791662,18.3541694 22.9999994,18.7083325 23.125,18.875 C23.25,19.0000006 23.4166656,19.1041662 23.625,19.1875 C23.8333344,19.2708338 24.0729153,19.3333331 24.34375,19.375 C24.6145847,19.4166669 24.8124994,19.4583331 24.9375,19.5 Z" id="↳-🎨-Fill" fill="#181C21"></path>
    </g>
</svg>