<?xml version="1.0" encoding="UTF-8"?>
<svg width="32px" height="32px" viewBox="0 0 32 32" version="1.1" xmlns="http://www.w3.org/2000/svg" xmlns:xlink="http://www.w3.org/1999/xlink">
    <!-- Generator: Sketch 63.1 (92452) - https://sketch.com -->
    <title>Icons/ion-md-car</title>
    <desc>Created with Sketch.</desc>
    <g id="Icons/ion-md-car" stroke="none" stroke-width="1" fill="none" fill-rule="evenodd" fill-opacity="0.9">
        <path d="M28.5668333,19.4425709 L28.5668333,16.8851419 C28.5668333,16.7018761 28.447649,16.5385903 28.2704214,16.4806485 L25.8255438,15.6789045 C24.904722,14.1448966 23.6389412,12.6850142 20.8417412,12.2029488 C20.8365615,12.2020996 20.831331,12.2012505 20.8261513,12.2004014 C15.6603476,11.4979575 11.7820085,12.6441053 9.29203685,15.6081756 C7.43866271,15.634599 5.5466946,16.0156659 4.43391855,16.7164115 C3.85759877,17.0795464 3.51568661,17.711661 3.48359268,18.3842848 L3.43331894,19.4426209 C3.19413786,19.4426209 3,19.6335789 3,19.8688424 L3,21.5737785 C3,21.809042 3.19413786,22 3.43331894,22 L5.1666455,22 C5.40714691,22 5.59955819,21.8056454 5.59996444,21.5690832 C5.59996444,21.5669354 5.60042148,21.5648375 5.60042148,21.5622401 C5.60692152,19.919941 6.96197633,18.5900779 8.63334939,18.5900779 C10.3086326,18.5900779 11.6666836,19.9258851 11.6666836,21.5737285 C11.6355037,21.8324684 11.8430479,22 12.1000025,22 L19.9000482,22 C20.1405496,22 20.3329609,21.8055954 20.3333671,21.5690332 C20.3333671,21.5668854 20.3337734,21.5647875 20.3337734,21.5621901 C20.3402734,19.9198911 21.6953282,18.590028 23.3667013,18.590028 C25.0419845,18.590028 26.4000355,19.9258351 26.4000355,21.5736786 C26.3688556,21.8324185 26.5763998,22 26.8333544,22 L28.566681,22 C28.8058621,22 29,21.8089421 29,21.5736786 L29,19.8687425 C29,19.633529 28.8060144,19.4425709 28.5668333,19.4425709 Z M16.8667648,15.3933416 C16.8667648,15.5109733 16.7697213,15.6064773 16.6500799,15.6064773 L10.998957,15.6064773 C10.7987761,15.6064773 10.7077756,15.3643707 10.8554991,15.2318039 C12.3591915,13.8836093 14.2714723,13.1125344 16.62799,12.9075405 C16.7549438,12.8964516 16.8667648,12.9970505 16.8667648,13.1223745 L16.8667648,15.3933416 Z M22.0728383,15.3954394 C22.0715179,15.512222 21.9748806,15.6064273 21.8561534,15.6064273 L17.9500875,15.6064273 C17.830497,15.6064273 17.7334027,15.5109733 17.7334027,15.3932916 L17.7334027,13.0660312 C17.7334027,12.9479499 17.8291767,12.8507889 17.9487672,12.8507889 C18.8128153,12.8499484 19.7271878,12.9117363 20.6991466,13.0439034 C21.1619696,13.1240229 21.5744681,13.2340123 21.9497438,13.3691265 C22.0359708,13.4002452 22.091018,13.4825125 22.0901648,13.5728716 L22.0728383,15.3954394 Z M9,19 C10.1028195,19 11,19.8972274 11,21 C11,22.1028195 10.1027726,23 9,23 C7.89718049,23 7,22.1027726 7,21 C7,19.8971805 7.89722737,19 9,19 Z M23,19 C24.1027726,19 24.9999531,19.8972274 25,21 C25,22.1028195 24.1027726,23 23,23 C21.8971805,23 21,22.1027726 21,21 C21,19.8971805 21.8972274,19 23,19 Z M9,19.8000094 C8.33841142,19.8000094 7.80000937,20.3384114 7.80000937,21 C7.80000937,21.6615886 8.33841142,22.1999906 9,22.1999906 C9.66158858,22.1999906 10.1999906,21.6615886 10.1999906,21 C10.1999906,20.3384114 9.66158858,19.8000094 9,19.8000094 Z M23,19.8000094 C22.3384114,19.8000094 21.8000094,20.3384114 21.8000094,21 C21.8000094,21.6615886 22.3384114,22.1999906 23,22.1999906 C23.6615886,22.1999906 24.1999906,21.6615886 24.1999906,21 C24.1999906,20.3384114 23.6615886,19.8000094 23,19.8000094 Z M23.3009392,14.0685733 C23.769399,14.4052848 24.1589442,14.8063816 24.5060361,15.261624 C24.6143531,15.4035313 24.514669,15.6064273 24.3344452,15.6064273 L23.1562118,15.6064273 C23.035758,15.6064273 22.9382574,15.5096746 22.9395147,15.3911937 L22.9508004,14.2361049 C22.952527,14.0600819 23.156618,13.9645779 23.3009392,14.0685733 Z" id="↳-🎨-Fill" fill="#181C21"></path>
    </g>
</svg>