<?xml version="1.0" encoding="UTF-8"?>
<svg width="32px" height="32px" viewBox="0 0 32 32" version="1.1" xmlns="http://www.w3.org/2000/svg" xmlns:xlink="http://www.w3.org/1999/xlink">
    <!-- Generator: Sketch 63.1 (92452) - https://sketch.com -->
    <title>Icons/ion-md-install</title>
    <desc>Created with Sketch.</desc>
    <g id="Icons/ion-md-install" stroke="none" stroke-width="1" fill="none" fill-rule="evenodd" fill-opacity="0.9">
        <path d="M23.1315187,22 L25.3942235,24.2641423 L25.951998,23.6900758 C26.3266202,23.3154096 26.9308067,23.420103 27.1949719,23.8495295 L27.1949719,23.8495295 L28.8842652,26.6715932 C29.0754023,26.9745219 29.0276596,27.3733225 28.7568404,27.6442939 L28.7568404,27.6442939 L27.6412913,28.7603032 C27.3737991,29.0282786 26.9644096,29.0725528 26.6689704,28.8881325 L26.6689704,28.8881325 L23.8484911,27.1978902 C23.3923569,26.9169322 23.3346332,26.2766208 23.6891269,25.9542181 L23.6891269,25.9542181 L24.2628711,25.3961302 L22,23.1319879 L23.1315187,22 Z M21.5944181,13.0913285 C22.871474,11.8139005 24.8545725,11.6636148 26.3118246,12.6105086 L26.3118246,12.6105086 L23.7128598,15.2102307 C23.4274316,15.510802 23.4274316,15.9917789 23.7128598,16.2772902 C24.0053453,16.5698609 24.4720674,16.584764 24.7794516,16.2772902 L24.7794516,16.2772902 L27.37873,13.6774112 C28.3402466,15.1501478 28.1900048,17.1187644 26.8978933,18.4112523 C26.071563,19.2379803 24.8845268,19.6135375 23.7279153,19.4632519 L23.7279153,19.4632519 L19.4610776,23.731333 C19.6113195,24.8885953 19.2357148,26.0756637 18.4093846,26.9023916 C17.0973559,28.2146458 15.0800687,28.3186535 13.6769225,27.3832116 L13.6769225,27.3832116 L16.2760441,24.7831757 C16.5765279,24.4827613 16.5765279,24.0168444 16.2760441,23.7162731 C15.9906159,23.4309186 15.5099361,23.4309186 15.2092955,23.7162731 L15.2092955,23.7162731 L12.6103307,26.3161521 C11.6637129,24.8583185 11.8139547,22.874642 13.0910106,21.597214 C13.9171841,20.7557399 15.1040634,20.3798688 16.2609886,20.5453713 L16.2609886,20.5453713 L20.5428818,16.2622302 C20.3775844,15.1051249 20.7531891,13.9177427 21.5944181,13.0913285 Z M11.5239244,17 C11.629286,17.2400376 11.7646387,17.4500117 11.9601307,17.6451108 L11.9601307,17.6451108 L12.8327005,18.5000391 C12.4264853,18.5301025 12.1257887,18.8449855 12.1257887,19.2499021 C12.1257887,19.670007 12.4566334,20.0000783 12.8777657,20.0000783 C13.2838239,20.0000783 13.5997516,19.7000704 13.6300568,19.2951538 L13.6300568,19.2951538 L14,19.664057 C13.1790904,19.9134894 12.4260142,20.3600564 11.824778,20.9689971 C11.2412853,21.5524153 10.8214092,22.2510765 10.5719017,23 L10.5719017,23 L3.75197703,23 C3.33084479,23 3,22.6700853 3,22.2499804 L3,22.2499804 L3,17 Z M6.86085019,18.5000391 C6.43971791,18.5000391 6.10887316,18.8299538 6.10887316,19.2499021 C6.10887316,19.670007 6.43971791,20.0000783 6.86085019,20.0000783 C7.28198248,20.0000783 7.61298424,19.670007 7.61298424,19.2499021 C7.61298424,18.8299538 7.28198248,18.5000391 6.86085019,18.5000391 Z M9.86938646,18.5000391 C9.44809716,18.5000391 9.11725241,18.8299538 9.11725241,19.2499021 C9.11725241,19.670007 9.44809716,20.0000783 9.86938646,20.0000783 C10.2905187,20.0000783 10.6215205,19.670007 10.6215205,19.2499021 C10.6215205,18.8299538 10.2905187,18.5000391 9.86938646,18.5000391 Z M15.3348161,13.2121157 C15.6357737,12.9292948 16.1169606,12.9292948 16.4026898,13.2121157 L16.4026898,13.2121157 L19,15.7829893 C18.999529,15.7895159 18.999529,15.7963534 18.999529,15.8033462 C18.997959,15.8379995 18.9976451,15.8729636 18.9970171,15.907617 C17.5727668,17.3175261 18.9871265,15.9169408 15.8733057,19 L15.8733057,19 L13.2142969,16.3680557 C12.9285677,16.0852348 12.9285677,15.6087903 13.2142969,15.3110512 L13.2142969,15.3110512 Z M23,10 L23,10.1499704 C22.1276213,10.4001531 21.316437,10.9166986 20.6583184,11.6333206 C20.1377671,12.2001461 19.7244258,12.866662 19.4796485,13.5999861 L19.4796485,13.5999861 L17.5358099,11.4833501 C17.10713,11.0167368 16.5255442,10.7500261 15.9132814,10.7500261 C15.3010186,10.7500261 14.7194328,11.0167368 14.2909127,11.4833501 L14.2909127,11.4833501 L13.7245057,12.0999339 C13.6019573,11.8332231 13.3418414,11.6667247 13.0510485,11.6667247 C12.6225284,11.6667247 12.2858798,12.0332997 12.2858798,12.500087 C12.2858798,12.8167299 12.4386259,13.0999687 12.6837228,13.2334111 L12.6837228,13.2334111 L12.1173158,13.8501688 C11.8111843,14.1835137 11.6276014,14.5834928 11.53573,15 L11.53573,15 L3,15 L3,10 L23,10 Z M6.92857999,11.6667247 C6.50005989,11.6667247 6.16341123,12.0332997 6.16341123,12.500087 C6.16341123,12.9667003 6.50005989,13.3334493 6.92857999,13.3334493 C7.35710008,13.3334493 7.69390851,12.9667003 7.69390851,12.500087 C7.69390851,12.0332997 7.35710008,11.6667247 6.92857999,11.6667247 Z M9.98989414,11.6667247 C9.56121429,11.6667247 9.22456563,12.0332997 9.22456563,12.500087 C9.22456563,12.9667003 9.56121429,13.3334493 9.98989414,13.3334493 C10.4184142,13.3334493 10.7552227,12.9667003 10.7552227,12.500087 C10.7552227,12.0332997 10.4184142,11.6667247 9.98989414,11.6667247 Z M22.2348312,3 C22.6633513,3 23,3.32719085 23,3.74382733 L23,3.74382733 L23,9 L3,9 L3,3.74382733 C3,3.32719085 3.3366487,3 3.76516875,3 L3.76516875,3 Z M6.92857999,6.02500128 C6.50005989,6.02500128 6.16341123,6.35219214 6.16341123,6.7686733 C6.16341123,7.1851545 6.50005989,7.51234536 6.92857999,7.51234536 C7.35710008,7.51234536 7.69390851,7.1851545 7.69390851,6.7686733 C7.69390851,6.35219214 7.35710008,6.02500128 6.92857999,6.02500128 Z M9.98989414,6.02500128 C9.56121429,6.02500128 9.22456563,6.35219214 9.22456563,6.7686733 C9.22456563,7.1851545 9.56121429,7.51234536 9.98989414,7.51234536 C10.4184142,7.51234536 10.7552227,7.1851545 10.7552227,6.7686733 C10.7552227,6.35219214 10.4184142,6.02500128 9.98989414,6.02500128 Z M13.0510485,6.02500128 C12.6225284,6.02500128 12.2858798,6.35219214 12.2858798,6.7686733 C12.2858798,7.1851545 12.6225284,7.51234536 13.0510485,7.51234536 C13.4795686,7.51234536 13.8165368,7.1851545 13.8165368,6.7686733 C13.8165368,6.35219214 13.4795686,6.02500128 13.0510485,6.02500128 Z" id="↳-🎨-Fill" fill="#181C21"></path>
    </g>
</svg>