<?xml version="1.0" encoding="UTF-8"?>
<svg width="32px" height="32px" viewBox="0 0 32 32" version="1.1" xmlns="http://www.w3.org/2000/svg" xmlns:xlink="http://www.w3.org/1999/xlink">
    <!-- Generator: Sketch 63.1 (92452) - https://sketch.com -->
    <title>Icons/ion-ios-color-palette</title>
    <desc>Created with Sketch.</desc>
    <g id="Icons/ion-ios-color-palette" stroke="none" stroke-width="1" fill="none" fill-rule="evenodd" fill-opacity="0.9">
        <path d="M26.875,21.75 C27.2500019,22.1250019 27.4479166,22.6145803 27.46875,23.21875 C27.4895834,23.8229197 27.2916687,24.3333313 26.875,24.75 C24.3749875,26.9166775 21.2708519,28 17.5625,28 L17.5,28 C13.7083144,28 10.5208462,26.8541781 7.9375,24.5625 C5.31248688,22.2708219 4,19.4791831 4,16.1875 C4,12.8958169 5.31248688,10.083345 7.9375,7.75 C10.7291806,5.2499875 14.0208144,4 17.8125,4 C21.0208494,4 23.6874894,4.93749062 25.8125,6.8125 C27.2708406,8.10417312 28,9.65624094 28,11.46875 C28,13.2812591 27.2708406,14.8333269 25.8125,16.125 L23.9375,17.8125 C23.4791644,18.2291687 23.25,18.6874975 23.25,19.1875 C23.25,19.6875025 23.4791644,20.1458313 23.9375,20.5625 C24.3125019,20.895835 24.7916637,21.1041662 25.375,21.1875 C26.04167,21.2708338 26.541665,21.4583319 26.875,21.75 Z M8.0625,12.0625 C7.68749812,12.4375019 7.5,12.9166637 7.5,13.5 C7.5,14.0833363 7.68749812,14.5624981 8.0625,14.9375 C8.43750188,15.3125019 8.91666375,15.5 9.5,15.5 C10.0833363,15.5 10.5624981,15.3125019 10.9375,14.9375 C11.3125019,14.5624981 11.5,14.0833363 11.5,13.5 C11.5,12.9166637 11.3125019,12.4375019 10.9375,12.0625 C10.5624981,11.6874981 10.0833363,11.5 9.5,11.5 C8.91666375,11.5 8.43750188,11.6874981 8.0625,12.0625 Z M8.5625,20.8125 C8.93750188,21.1875019 9.41666375,21.375 10,21.375 C10.5833363,21.375 11.0624981,21.1875019 11.4375,20.8125 C11.8125019,20.4374981 12,19.9583363 12,19.375 C12,18.7916637 11.8125019,18.3125019 11.4375,17.9375 C11.0624981,17.5624981 10.5833363,17.375 10,17.375 C9.41666375,17.375 8.93750188,17.5624981 8.5625,17.9375 C8.18749812,18.3125019 8,18.7916637 8,19.375 C8,19.9583363 8.18749812,20.4374981 8.5625,20.8125 Z M12.5625,10.75 C12.9375019,11.1250019 13.4166637,11.3125 14,11.3125 C14.5833363,11.3125 15.0624981,11.1145853 15.4375,10.71875 C15.8125019,10.3229147 16,9.85416937 16,9.3125 C16,8.77083063 15.8125019,8.30208531 15.4375,7.90625 C15.0624981,7.51041469 14.5833363,7.3125 14,7.3125 C13.4166637,7.3125 12.9375019,7.51041469 12.5625,7.90625 C12.1874981,8.30208531 12,8.77083063 12,9.3125 C12,9.85416937 12.1874981,10.3333313 12.5625,10.75 Z M16.375,24.125 C16.9583363,24.7083363 17.6666625,25 18.5,25 C19.3333375,25 20.0416638,24.7083363 20.625,24.125 C21.2083362,23.5416637 21.5,22.8333375 21.5,22 C21.5,21.1666625 21.2083362,20.4583363 20.625,19.875 C20.0416638,19.2916637 19.3333375,19 18.5,19 C17.6666625,19 16.9583363,19.2916637 16.375,19.875 C15.7916637,20.4583363 15.5,21.1666625 15.5,22 C15.5,22.8333375 15.7916637,23.5416637 16.375,24.125 Z M18.5625,11.4375 C18.9375019,11.8125019 19.4166637,12 20,12 C20.5833363,12 21.0624981,11.8125019 21.4375,11.4375 C21.8125019,11.0624981 22,10.5833363 22,10 C22,9.41666375 21.8125019,8.93750187 21.4375,8.5625 C21.0624981,8.18749813 20.5833363,8 20,8 C19.4166637,8 18.9375019,8.18749813 18.5625,8.5625 C18.1874981,8.93750187 18,9.41666375 18,10 C18,10.5833363 18.1874981,11.0624981 18.5625,11.4375 Z" id="↳-🎨-Fill" fill="#181C21"></path>
    </g>
</svg>