<?xml version="1.0" encoding="UTF-8"?>
<svg width="32px" height="32px" viewBox="0 0 32 32" version="1.1" xmlns="http://www.w3.org/2000/svg" xmlns:xlink="http://www.w3.org/1999/xlink">
    <!-- Generator: Sketch 63.1 (92452) - https://sketch.com -->
    <title>Icons/ion-logo-codepen</title>
    <desc>Created with Sketch.</desc>
    <g id="Icons/ion-logo-codepen" stroke="none" stroke-width="1" fill="none" fill-rule="evenodd" fill-opacity="0.9">
        <path d="M15.0625,19 C15.1875006,19.1250006 15.25,19.2083331 15.25,19.25 L15.25,22.5625 C12.6666538,20.8541581 10.7291731,19.5625044 9.4375,18.6875 L11.875,17.0625 C11.9583338,17.0208331 12.0624994,17.0208331 12.1875,17.0625 C12.520835,17.2708344 13.0104134,17.5937478 13.65625,18.0312498 C14.3020866,18.4687522 14.7708319,18.7916656 15.0625,19 Z M12.1875,15.0625 C12.1041662,15.1458338 12.0208337,15.1458338 11.9375,15.0625 C11.6874987,14.8958325 10.8541738,14.3541713 9.4375,13.4375 L15.25,9.5625 L15.25,12.75 C15.25,12.8750006 15.1875006,12.9999994 15.0625,13.125 C14.7708319,13.3333344 14.29167,13.6562478 13.625,14.09375 C12.95833,14.5312522 12.4791681,14.8541656 12.1875,15.0625 Z M16.875,13.0625 C16.7916662,12.9791662 16.75,12.9166669 16.75,12.875 L16.75,9.5 L22.5625,13.4375 L20.0625,15.0625 C19.9791662,15.1458338 19.8958338,15.1458338 19.8125,15.0625 C19.479165,14.8541656 18.9895866,14.5208356 18.34375,14.0625 C17.6979134,13.6041644 17.208335,13.2708344 16.875,13.0625 Z M16.125,14.375 L18.625,16.0625 L16.1875,17.6875 C16.0624994,17.7291669 15.9375006,17.7291669 15.8125,17.6875 L13.375,16.0625 C14.0833369,15.6041644 14.604165,15.2500013 14.9375,15 C15.0625006,14.9166663 15.2083325,14.8125006 15.375,14.6875 C15.5416675,14.5624994 15.6874994,14.4791669 15.8125,14.4375 C15.9375006,14.3124994 16.0416662,14.2916663 16.125,14.375 Z M8.8125,14.8125 L10.6875,16.0625 L8.8125,17.3125 L8.8125,14.8125 Z M6.0625,6.125 C8.81251375,3.37498625 12.1249806,2 16,2 C19.8750194,2 23.1770697,3.36456969 25.90625,6.09375 C28.6354303,8.82293031 30,12.1249806 30,16 C30,19.8750194 28.6354303,23.1770697 25.90625,25.90625 C23.1770697,28.6354303 19.8750194,30 16,30 C12.1249806,30 8.82293031,28.6354303 6.09375,25.90625 C3.36456969,23.1770697 2,19.8750194 2,16 C2,12.1249806 3.35415312,8.83334688 6.0625,6.125 Z M24.6875,18.5625 L24.6875,13.5 C24.6875,13.166665 24.5416681,12.9166675 24.25,12.75 C23.4166625,12.2083306 22.1354253,11.3541725 20.40625,10.1875 C18.6770747,9.0208275 17.3750044,8.16666937 16.5,7.625 C16.1249981,7.37499875 15.770835,7.37499875 15.4375,7.625 C14.5624956,8.16666937 13.2812584,8.99999437 11.59375,10.125 C9.90624156,11.2500056 8.6458375,12.1041637 7.8125,12.6875 C7.479165,12.8958344 7.3125,13.1874981 7.3125,13.5625 L7.3125,18.5625 C7.3125,18.895835 7.479165,19.1666656 7.8125,19.375 C8.6458375,19.9583363 9.90624156,20.8124944 11.59375,21.9374991 L15.4375,24.5 C15.8125,24.7500012 16.166665,24.7500012 16.5,24.5 C17.3750044,23.9583306 18.6666581,23.1041725 20.375,21.9374991 C22.0833419,20.7708275 23.3541625,19.9166694 24.1875,19.375 C24.520835,19.1666656 24.6875,18.895835 24.6875,18.5625 Z M19.75,17.0625 C19.9166675,16.9374994 20.0624994,16.9374994 20.1875,17.0625 L22.5625,18.6875 L16.75,22.5625 L16.75,19.375 C16.75,19.2499994 16.8124994,19.1250006 16.9375,19 C17.270835,18.7916656 17.75,18.4687495 18.375,18.03125 C19.0000031,17.5937478 19.4583319,17.2708344 19.75,17.0625 Z M23.125,17.3125 L21.25,16.0625 L23.125,14.8125 L23.125,17.3125 Z" id="↳-🎨-Fill" fill="#181C21"></path>
    </g>
</svg>