<?xml version="1.0" encoding="UTF-8"?>
<svg width="32px" height="32px" viewBox="0 0 32 32" version="1.1" xmlns="http://www.w3.org/2000/svg" xmlns:xlink="http://www.w3.org/1999/xlink">
    <!-- Generator: Sketch 63.1 (92452) - https://sketch.com -->
    <title>Icons/ion-md-hand</title>
    <desc>Created with Sketch.</desc>
    <g id="Icons/ion-md-hand" stroke="none" stroke-width="1" fill="none" fill-rule="evenodd" fill-opacity="0.9">
        <path d="M28.125,17.125 C29.2500056,18.2500056 29.312505,19.312495 28.3125,20.3125 C24.31248,24.6041881 21.6875062,27.1249962 20.4375,27.875 C18.5624906,29.2916738 16.4791781,30 14.1875,30 C12.4791581,30 10.95834,29.5 9.625,28.5 C8.29166,27.5 7.3750025,26.2291744 6.875,24.6875 L6.875,24.625 L6.8125,24.5625 L6.8125,24.4375 L3.1875,12.625 C3.0208325,12.1666644 3.04166562,11.7083356 3.25,11.25 C3.45833437,10.7916644 3.79166437,10.4791675 4.25,10.3125 C4.70833562,10.1458325 5.14583125,10.1770822 5.5625,10.40625 C5.97916875,10.6354178 6.2708325,10.9791644 6.4375,11.4375 L8.5625,16.9375 L8.625,17.0625 C8.66666687,17.0208331 8.6875,16.9583338 8.6875,16.875 L7.3125,6.8125 C7.22916625,6.35416437 7.32291531,5.91666875 7.59375,5.5 C7.86458469,5.08333125 8.22916437,4.83333375 8.6875,4.75 C9.14583562,4.66666625 9.58333125,4.77083187 10,5.0625 C10.4166687,5.35416813 10.6666662,5.72916437 10.75,6.1875 L12.3125,14.8125 L12.4375,14.8125 L12.4375,3.75 C12.4375,3.29166437 12.6145816,2.88541844 12.96875,2.53125 C13.3229184,2.17708156 13.7291644,2 14.1875,2 C14.6458356,2 15.0520816,2.17708156 15.40625,2.53125 C15.7604184,2.88541844 15.9375,3.29166437 15.9375,3.75 L16.4375,14.6875 C16.4791669,14.8541675 16.5624994,14.8750006 16.6875,14.75 L18.125,6.3125 C18.2083337,5.85416437 18.4374981,5.46875156 18.8125,5.15625 C19.1875019,4.84374844 19.6041644,4.70833312 20.0625,4.75 C20.5208356,4.83333375 20.9062484,5.07291469 21.21875,5.46875 C21.5312516,5.86458531 21.6666669,6.29166437 21.625,6.75 L20.3125,17.5 C20.1874994,18.7916731 20.2291656,19.5416656 20.4375,19.75 C21.0208362,20.3750031 21.6666631,20.3333369 22.375,19.625 L25,17 C26.000005,16 27.0416612,16.0416613 28.125,17.125 Z" id="↳-🎨-Fill" fill="#181C21"></path>
    </g>
</svg>