<?xml version="1.0" encoding="UTF-8"?>
<svg width="32px" height="32px" viewBox="0 0 32 32" version="1.1" xmlns="http://www.w3.org/2000/svg" xmlns:xlink="http://www.w3.org/1999/xlink">
    <!-- Generator: Sketch 63.1 (92452) - https://sketch.com -->
    <title>Icons/ion-md-wallet</title>
    <desc>Created with Sketch.</desc>
    <g id="Icons/ion-md-wallet" stroke="none" stroke-width="1" fill="none" fill-rule="evenodd" fill-opacity="0.9">
        <path d="M12.6875,21.3125 C12.6875,22.0625037 12.9374975,22.6979141 13.4375,23.21875 C13.9375025,23.7395859 14.5624963,24 15.3125,24 L27.625,24 L27.625,25.3125 C27.625,26.0625038 27.3750025,26.6979141 26.875,27.21875 C26.3749975,27.7395859 25.7500037,28 25,28 L5.75,28 C5,28 4.35416937,27.7500025 3.8125,27.25 C3.27083063,26.7499975 3,26.1250038 3,25.375 L3,6.625 C3,5.87499625 3.27083063,5.2500025 3.8125,4.75 C4.35416937,4.2499975 5,4 5.75,4 L25,4 C25.7083369,4 26.3229141,4.26041406 26.84375,4.78125 C27.3645859,5.30208594 27.625,5.93749625 27.625,6.6875 L27.625,8 L15.3125,8 C14.5624963,8 13.9375025,8.26041406 13.4375,8.78125 C12.9374975,9.30208594 12.6875,9.93749625 12.6875,10.6875 L12.6875,21.3125 Z M15.3125,11.625 C15.3125,10.95833 15.64583,10.625 16.3125,10.625 L28,10.625 C28.66667,10.625 29,10.95833 29,11.625 L29,20.375 C29,21.04167 28.66667,21.375 28,21.375 L16.3125,21.375 C15.64583,21.375 15.3125,21.04167 15.3125,20.375 L15.3125,11.625 Z M20.125,18 C20.6250025,17.9583331 21.0520816,17.7604184 21.40625,17.40625 C21.7604184,17.0520816 21.9583331,16.6250025 22,16.125 C22.0416669,15.5416638 21.8437522,15.0312522 21.40625,14.59375 C20.9687478,14.1562478 20.4583362,13.9583331 19.875,14 C19.3749975,14.0416669 18.9479184,14.2395816 18.59375,14.59375 C18.2395816,14.9479184 18.0416669,15.3749975 18,15.875 C17.9583331,16.4583363 18.1562478,16.9687478 18.59375,17.40625 C19.0312522,17.8437522 19.5416637,18.0416669 20.125,18 Z" id="↳-🎨-Fill" fill="#181C21"></path>
    </g>
</svg>