<?xml version="1.0" encoding="UTF-8"?>
<svg width="32px" height="32px" viewBox="0 0 32 32" version="1.1" xmlns="http://www.w3.org/2000/svg" xmlns:xlink="http://www.w3.org/1999/xlink">
    <!-- Generator: Sketch 63.1 (92452) - https://sketch.com -->
    <title>Icons/ion-ios-leaf</title>
    <desc>Created with Sketch.</desc>
    <g id="Icons/ion-ios-leaf" stroke="none" stroke-width="1" fill="none" fill-rule="evenodd" fill-opacity="0.9">
        <path d="M28.4375,23.6875 C28.770835,23.7291669 28.9687497,23.9583313 29.03125,24.375 C29.0937503,24.7916687 29.0312509,25.1770816 28.84375,25.53125 C28.6562491,25.8854184 28.4166681,26.0416669 28.125,26 C27.2916625,25.9583331 26.0000087,25.6666694 24.25,25.125 C23.6249969,26.0833381 22.8333381,26.7916644 21.875,27.25 C21.1666631,27.583335 20.2500056,27.8333325 19.125,28 C17.9999944,28.1666675 16.5104259,28.0208356 14.65625,27.5625 C12.8020741,27.1041644 11.1458406,26.20834 9.6875,24.875 C6.64581812,22.0833194 4.58333875,17.3750331 3.5,10.75 C2.91666375,7.16664875 2.83333125,4.9583375 3.25,4.125 C3.33333375,3.9583325 3.43749937,3.93749938 3.5625,4.0625 C5.0625075,5.68750813 6.87498937,6.78124719 9,7.34375 C11.1250106,7.90625281 13.2187397,8.354165 15.28125,8.6875 C17.3437603,9.020835 18.9791606,9.687495 20.1875,10.6875 C21.9791756,12.1458406 23.3437453,13.9999887 24.28125,16.25 C25.2187547,18.5000113 25.4375025,20.7291556 24.9375,22.9375 C25.1041675,23.1041675 26.2708225,23.354165 28.4375,23.6875 Z M22.6875,24.125 C23.1041687,23.7083312 23.3125,23.2083362 23.3125,22.625 C18.8124775,21.1249925 14.7708513,18.875015 11.1875,15.875 C11.0624994,15.7916662 10.9479172,15.8020828 10.84375,15.90625 C10.7395828,16.0104172 10.7499994,16.1249994 10.875,16.25 C14.9166869,20.3750206 18.8541475,22.9999944 22.6875,24.125 Z" id="↳-🎨-Fill" fill="#181C21"></path>
    </g>
</svg>