<?xml version="1.0" encoding="UTF-8"?>
<svg width="32px" height="32px" viewBox="0 0 32 32" version="1.1" xmlns="http://www.w3.org/2000/svg" xmlns:xlink="http://www.w3.org/1999/xlink">
    <!-- Generator: Sketch 63.1 (92452) - https://sketch.com -->
    <title>Icons/ion-md-albums</title>
    <desc>Created with Sketch.</desc>
    <g id="Icons/ion-md-albums" stroke="none" stroke-width="1" fill="none" fill-rule="evenodd" fill-opacity="0.9">
        <path d="M9.6875,29 C8.93749625,29 8.30208594,28.7291694 7.78125,28.1875 C7.26041406,27.6458306 7,27.0208369 7,26.3125 L7,9.6875 C7,8.93749625 7.26041406,8.30208594 7.78125,7.78125 C8.30208594,7.26041406 8.93749625,7 9.6875,7 L26.3125,7 C27.0625038,7 27.6979141,7.26041406 28.21875,7.78125 C28.7395859,8.30208594 29,8.93749625 29,9.6875 L29,26.3125 C29,27.0625038 28.7395859,27.6979141 28.21875,28.21875 C27.6979141,28.7395859 27.0625038,29 26.3125,29 L9.6875,29 Z M5.6875,3 L22.3125,3 C23.0625038,3 23.6979141,3.26041406 24.21875,3.78125 C24.7395859,4.30208594 25,4.93749625 25,5.6875 L25,6 L8.6875,6 C7.93749625,6 7.30208594,6.26041406 6.78125,6.78125 C6.26041406,7.30208594 6,7.93749625 6,8.6875 L6,25 L5.6875,25 C4.93749625,25 4.30208594,24.7395859 3.78125,24.21875 C3.26041406,23.6979141 3,23.0625037 3,22.3125 L3,5.6875 C3,4.93749625 3.26041406,4.30208594 3.78125,3.78125 C4.30208594,3.26041406 4.93749625,3 5.6875,3 Z" id="↳-🎨-Fill" fill="#181C21"></path>
    </g>
</svg>