<?xml version="1.0" encoding="UTF-8"?>
<svg width="32px" height="32px" viewBox="0 0 32 32" version="1.1" xmlns="http://www.w3.org/2000/svg" xmlns:xlink="http://www.w3.org/1999/xlink">
    <!-- Generator: Sketch 63.1 (92452) - https://sketch.com -->
    <title>Icons/ion-ios-briefcase</title>
    <desc>Created with Sketch.</desc>
    <g id="Icons/ion-ios-briefcase" stroke="none" stroke-width="1" fill="none" fill-rule="evenodd" fill-opacity="0.9">
        <path d="M5,28 C4.41666375,28 3.93750187,27.8125019 3.5625,27.4375 C3.18749813,27.0624981 3,26.5833362 3,26 L3,14 L29,14 L29,26 C29,26.5833362 28.8125019,27.0624981 28.4375,27.4375 C28.0624981,27.8125019 27.5833362,28 27,28 L5,28 Z M27,8 C27.5833362,8 28.0624981,8.18749813 28.4375,8.5625 C28.8125019,8.93750187 29,9.41666375 29,10 L29,12.5 L3,12.5 L3,10 C3,9.41666375 3.18749813,8.93750187 3.5625,8.5625 C3.93750187,8.18749813 4.41666375,8 5,8 L5.5,8 L5.5,7.5 C5.5,7.166665 5.666665,7 6,7 L8,7 C8.333335,7 8.5,7.166665 8.5,7.5 L8.5,8 L10.25,8 L10.25,6 C10.25,5.41666375 10.4374981,4.93750188 10.8125,4.5625 C11.1875019,4.18749812 11.6666637,4 12.25,4 L19.75,4 C20.3333363,4 20.8124981,4.18749812 21.1875,4.5625 C21.5625019,4.93750188 21.75,5.41666375 21.75,6 L21.75,8 L23.5,8 L23.5,7.5 C23.5,7.166665 23.666665,7 24,7 L26,7 C26.333335,7 26.5,7.166665 26.5,7.5 L26.5,8 L27,8 Z M20,8 L20,6.25 C20,5.916665 19.833335,5.75 19.5,5.75 L12.5,5.75 C12.166665,5.75 12,5.916665 12,6.25 L12,8 L20,8 Z" id="↳-🎨-Fill" fill="#181C21"></path>
    </g>
</svg>