<?xml version="1.0" encoding="UTF-8"?>
<svg width="32px" height="32px" viewBox="0 0 32 32" version="1.1" xmlns="http://www.w3.org/2000/svg" xmlns:xlink="http://www.w3.org/1999/xlink">
    <!-- Generator: Sketch 63.1 (92452) - https://sketch.com -->
    <title>Icons/ion-md-stopwatch</title>
    <desc>Created with Sketch.</desc>
    <g id="Icons/ion-md-stopwatch" stroke="none" stroke-width="1" fill="none" fill-rule="evenodd" fill-opacity="0.9">
        <path d="M14.5,19.1875 L14.5,11 L17.5,11 L17.5,19.1875 L14.5,19.1875 Z M25.5,10.625 C27.166675,12.8333444 28,15.2916531 28,18 C28,21.33335 26.833345,24.166655 24.5,26.5 C22.166655,28.833345 19.33335,30 16,30 C12.66665,30 9.833345,28.833345 7.5,26.5 C5.166655,24.166655 4,21.33335 4,18 C4,14.66665 5.166655,11.833345 7.5,9.5 C9.833345,7.166655 12.66665,6 16,6 C18.7083469,6 21.1666556,6.833325 23.375,8.5 L25.3125,6.625 L27.375,8.6875 L25.5,10.625 Z M16,27.375 C18.5833462,27.375 20.7916575,26.4583425 22.625,24.625 C24.4583425,22.7916575 25.375,20.5833462 25.375,18 C25.375,15.4166538 24.4583425,13.2083425 22.625,11.375 C20.7916575,9.5416575 18.5833462,8.625 16,8.625 C13.4166538,8.625 11.2083425,9.5416575 9.375,11.375 C7.5416575,13.2083425 6.625,15.4166538 6.625,18 C6.625,20.5833462 7.5416575,22.7916575 9.375,24.625 C11.2083425,26.4583425 13.4166538,27.375 16,27.375 Z M12,5 L12,2 L20,2 L20,5 L12,5 Z" id="↳-🎨-Fill" fill="#181C21"></path>
    </g>
</svg>