<?xml version="1.0" encoding="UTF-8"?>
<svg width="32px" height="32px" viewBox="0 0 32 32" version="1.1" xmlns="http://www.w3.org/2000/svg" xmlns:xlink="http://www.w3.org/1999/xlink">
    <!-- Generator: Sketch 63.1 (92452) - https://sketch.com -->
    <title>Icons/ion-md-finger-print</title>
    <desc>Created with Sketch.</desc>
    <g id="Icons/ion-md-finger-print" stroke="none" stroke-width="1" fill="none" fill-rule="evenodd" fill-opacity="0.9">
        <path d="M4.875,12.875 C4.74999937,12.875 4.6041675,12.8333338 4.4375,12.75 C3.9374975,12.4583319 3.83333188,12.0625025 4.125,11.5625 C6.66667938,7.35414563 10.6249731,5.25 16,5.25 C19.2083494,5.25 21.979155,6.10415812 24.3125,7.8125 C25.7291738,8.812505 26.9166619,10.0416594 27.875,11.5 C28.208335,11.9583356 28.1250025,12.354165 27.625,12.6875 C27.1249975,13.020835 26.708335,12.9583356 26.375,12.5 C23.8749875,8.833315 20.4166887,7 16,7 C14.0416569,7 12.2604247,7.36457969 10.65625,8.09375 C9.05207531,8.82292031 7.92708656,9.54166312 7.28125,10.25 C6.63541344,10.9583369 6.08333563,11.6874962 5.625,12.4375 C5.4583325,12.7291681 5.208335,12.875 4.875,12.875 Z M19.75,30 L19.5,30 C17.9166588,29.5833313 16.5000063,28.7812559 15.25,27.59375 C13.9999938,26.4062441 13.1770853,25.4270872 12.78125,24.65625 C12.3854147,23.8854128 12.1458338,23.333335 12.0625,23 L12.0625,22.9375 C11.9791662,22.8124994 11.8854172,22.4375031 11.78125,21.8125 C11.6770828,21.1874969 11.6562497,20.375005 11.71875,19.375 C11.7812503,18.374995 12.0624975,17.54167 12.5625,16.875 C13.3125038,15.874995 14.4583256,15.375 16,15.375 C17.4166738,15.375 18.45833,15.8333287 19.125,16.75 C19.5000019,17.2083356 19.854165,18.0625 20.1875,19.3125 C20.3958344,20.0625 20.5729159,20.604165 20.71875,20.9375 C20.8645841,21.270835 21.1145816,21.5625 21.46875,21.8125 C21.8229184,22.0625 22.3124969,22.2083331 22.9375,22.25 C23.6458369,22.2916669 24.2291644,22.0000031 24.6875,21.375 C25.6041713,20.1249938 25.7083369,18.5208431 25,16.5625 C24.4583306,15.1041594 23.4062578,13.6875069 21.84375,12.3125 C20.2812422,10.9374931 18.333345,10.25 16,10.25 C13.7083219,10.25 11.729175,10.9583262 10.0625,12.375 C8.64582625,13.5416725 7.66666937,14.9999913 7.125,16.75 C6.99999937,17.1666687 6.90625031,17.6354141 6.84375,18.15625 C6.78124969,18.6770859 6.76041656,19.1770809 6.78125,19.65625 C6.80208344,20.1354191 6.83333312,20.6249975 6.875,21.125 C6.91666688,21.6250025 6.96874969,22.0729147 7.03125,22.46875 C7.09375031,22.8645853 7.15624969,23.229165 7.21875,23.5625 C7.28125031,23.895835 7.33333312,24.1666656 7.375,24.375 L7.4375,24.625 C7.6041675,25.2083362 7.39583625,25.5625 6.8125,25.6875 C6.27083063,25.8125006 5.9166675,25.6041694 5.75,25.0625 C4.83332875,21.3541481 4.72916312,18.3958444 5.4375,16.1875 C6.10417,14.1041563 7.37499063,12.3125075 9.25,10.8125 C11.1250094,9.3124925 13.3749869,8.5625 16,8.5625 C18.66668,8.5625 21.0416563,9.41665812 23.125,11.125 C24.791675,12.5416738 25.9791631,14.1458244 26.6875,15.9375 C27.6458381,18.4375125 27.4375069,20.5833244 26.0625,22.375 C25.2291625,23.5416725 24.14584,24.0833338 22.8125,24 C21.7708281,23.9583331 20.9270866,23.6770859 20.28125,23.15625 C19.6354134,22.6354141 19.2187509,22.1354191 19.03125,21.65625 C18.8437491,21.1770809 18.6458344,20.5416706 18.4375,19.75 C18.2708325,19.0416631 18.1250006,18.5416681 18,18.25 C17.8749994,17.9583319 17.645835,17.6979178 17.3125,17.46875 C16.979165,17.2395822 16.5416694,17.125 16,17.125 C15.0833288,17.125 14.4166688,17.3958306 14,17.9375 C13.5416644,18.5625 13.3541663,19.4791606 13.4375,20.6875 C13.4791669,21.5625 13.5833325,22.1458319 13.75,22.4375 C13.8750006,22.8125019 14.104165,23.3124969 14.4375,23.9375 C14.770835,24.5625 15.4583281,25.3645784 16.5,26.34375 C17.5416719,27.3229216 18.6874938,27.979165 19.9375,28.3125 C20.5208362,28.4375006 20.7291675,28.7916638 20.5625,29.375 C20.4374994,29.7916687 20.1666688,30 19.75,30 Z M12.875,29.625 C12.6249987,29.625 12.3958344,29.5208344 12.1875,29.3125 C10.0624894,27.0624887 8.79166551,24.3958487 8.375,21.3125 C8.041665,18.4791525 8.708325,16.1041763 10.375,14.1875 C11.7916655,12.6458256 13.666655,11.875 16,11.875 C18.8750144,11.875 21.0208262,13.1666538 22.4375,15.75 C23.2291706,17.1666738 23.625,18.3958281 23.625,19.4375 C23.7083337,19.9791694 23.4583362,20.2916662 22.875,20.375 C22.2916655,20.4583338 21.9583337,20.2083363 21.875,19.625 C21.7916655,18.5416613 21.4583362,17.500005 20.875,16.5 C19.8333281,14.5833237 18.2083444,13.625 16,13.625 C14.0833237,13.625 12.625005,14.1874944 11.625,15.3125 C10.3333269,16.7708406 9.83333187,18.6874881 10.125,21.0625 C10.5000019,23.7708469 11.6249906,26.12499 13.5,28.125 C13.8750019,28.5833356 13.8541687,28.9999981 13.4375,29.375 C13.1874987,29.5416675 13.0000006,29.625 12.875,29.625 Z M22.75,27.125 C20.8749906,27.125 19.2916731,26.5833388 18,25.5 C17.2499963,24.8749969 16.6354191,24.0833381 16.15625,23.125 C15.6770809,22.1666619 15.3854172,21.4375025 15.28125,20.9375 C15.1770828,20.4374975 15.125,20.0833344 15.125,19.875 C15.0416663,19.3333306 15.3124969,19.0208338 15.9375,18.9375 C16.4791694,18.8541663 16.7916663,19.1249969 16.875,19.75 C16.875,19.9166675 16.9166663,20.1979147 17,20.59375 C17.0833338,20.9895853 17.3124981,21.5624963 17.6875,22.3125 C18.0625019,23.0625038 18.5416638,23.6874975 19.125,24.1875 C20.3750063,25.187505 21.9166575,25.5625013 23.75,25.3125 C24.3333363,25.2291663 24.6666663,25.4791638 24.75,26.0625 C24.8333338,26.6041694 24.5625031,26.9166663 23.9375,27 C23.3541638,27.0833338 22.9583344,27.125 22.75,27.125 Z M24.1875,3.9375 C24.5625019,4.1041675 24.75,4.37499813 24.75,4.75 C24.75,5.29166937 24.4583363,5.5625 23.875,5.5625 C23.5833319,5.5625 23.3958338,5.52083375 23.3125,5.4375 C21.8125,4.31249437 19.3750169,3.75 16,3.75 C14.4999925,3.75 13.1458394,3.89583187 11.9375,4.1875 C10.7291606,4.47916813 9.8750025,4.74999875 9.375,5 L8.6875,5.4375 C8.60416625,5.52083375 8.43750125,5.5625 8.1875,5.5625 C7.60416375,5.5625 7.3125,5.29166937 7.3125,4.75 C7.3125,4.45833187 7.3958325,4.2291675 7.5625,4.0625 L7.625,4.0625 C7.625,4.02083312 7.64583312,4 7.6875,4 C9.68751,2.66666 12.4583156,2 16,2 C19.5000175,2 22.2291569,2.64582687 24.1875,3.9375 Z" id="↳-🎨-Fill" fill="#181C21"></path>
    </g>
</svg>