<?xml version="1.0" encoding="UTF-8"?>
<svg width="32px" height="32px" viewBox="0 0 32 32" version="1.1" xmlns="http://www.w3.org/2000/svg" xmlns:xlink="http://www.w3.org/1999/xlink">
    <!-- Generator: Sketch 63.1 (92452) - https://sketch.com -->
    <title>Icons/ion-md-map</title>
    <desc>Created with Sketch.</desc>
    <g id="Icons/ion-md-map" stroke="none" stroke-width="1" fill="none" fill-rule="evenodd" fill-opacity="0.9">
        <path d="M27.3125,4 C27.7708356,4 28,4.22916437 28,4.6875 L28,24.8125 C28,25.145835 27.8541681,25.3541662 27.5625,25.4375 L20,28 L12,25.1875 C7.62497813,26.8958419 5.37500063,27.7708331 5.25,27.8125 C5.20833313,27.8125 5.14583375,27.8333331 5.0625,27.875 C4.97916625,27.9166669 4.90625031,27.9479166 4.84375,27.96875 C4.78124969,27.9895834 4.72916687,28 4.6875,28 C4.22916437,28 4,27.7708356 4,27.3125 L4,7.1875 C4,6.854165 4.14583187,6.64583375 4.4375,6.5625 L12,4 L20,6.8125 C24.2916881,5.145825 26.5416656,4.27083375 26.75,4.1875 C27.0416681,4.06249938 27.2291662,4 27.3125,4 Z M20,25.3125 L20,9.4375 L12,6.6875 L12,22.5625 L20,25.3125 Z" id="↳-🎨-Fill" fill="#181C21"></path>
    </g>
</svg>