<?xml version="1.0" encoding="UTF-8"?>
<svg width="32px" height="32px" viewBox="0 0 32 32" version="1.1" xmlns="http://www.w3.org/2000/svg" xmlns:xlink="http://www.w3.org/1999/xlink">
    <!-- Generator: Sketch 63.1 (92452) - https://sketch.com -->
    <title>Icons/ion-ios-filing</title>
    <desc>Created with Sketch.</desc>
    <g id="Icons/ion-ios-filing" stroke="none" stroke-width="1" fill="none" fill-rule="evenodd" fill-opacity="0.9">
        <path d="M26.5,4 C27.16667,4 27.7499975,4.2499975 28.25,4.75 C28.7500025,5.2500025 29,5.83333 29,6.5 L29,25.5 C29,26.16667 28.7500025,26.7499975 28.25,27.25 C27.7499975,27.7500025 27.16667,28 26.5,28 L5.5,28 C4.83333,28 4.2500025,27.7500025 3.75,27.25 C3.2499975,26.7499975 3,26.16667 3,25.5 L3,6.5 C3,5.83333 3.2499975,5.2500025 3.75,4.75 C4.2500025,4.2499975 4.83333,4 5.5,4 L26.5,4 Z M27.25,15 L27.25,6.75 C27.25,6.08333 26.91667,5.75 26.25,5.75 L5.75,5.75 C5.08333,5.75 4.75,6.08333 4.75,6.75 L4.75,15 C4.75,15.66667 5.08333,16 5.75,16 L11.1875,16 C11.6458356,16 11.9583325,16.2291644 12.125,16.6875 C12.4166681,17.5625044 12.9583294,18 13.75,18 L18.25,18 C19.0416706,18 19.5833319,17.5625044 19.875,16.6875 C20.0416675,16.2291644 20.3541644,16 20.8125,16 L26.25,16 C26.91667,16 27.25,15.66667 27.25,15 Z M24.125,9.75 L7.875,9.75 C7.29166375,9.75 7,9.45833625 7,8.875 C7,8.29166375 7.29166375,8 7.875,8 L24.125,8 C24.7083363,8 25,8.29166375 25,8.875 C25,9.45833625 24.7083363,9.75 24.125,9.75 Z M24.125,13.75 L7.875,13.75 C7.29166375,13.75 7,13.4583363 7,12.875 C7,12.2916638 7.29166375,12 7.875,12 L24.125,12 C24.7083363,12 25,12.2916638 25,12.875 C25,13.4583363 24.7083363,13.75 24.125,13.75 Z" id="↳-🎨-Fill" fill="#181C21"></path>
    </g>
</svg>