<?xml version="1.0" encoding="UTF-8"?>
<svg width="32px" height="32px" viewBox="0 0 32 32" version="1.1" xmlns="http://www.w3.org/2000/svg" xmlns:xlink="http://www.w3.org/1999/xlink">
    <!-- Generator: Sketch 63.1 (92452) - https://sketch.com -->
    <title>Icons/ion-logo-usd</title>
    <desc>Created with Sketch.</desc>
    <g id="Icons/ion-logo-usd" stroke="none" stroke-width="1" fill="none" fill-rule="evenodd" fill-opacity="0.9">
        <path d="M25.6875,18.9375 C25.8958344,19.6458369 26,20.2499975 26,20.75 C26,22 25.7083363,23.1041619 25.125,24.0625 C24.5833306,24.9791713 23.8541713,25.7083306 22.9375,26.25 C21.8124944,26.91667 20.7708381,27.3541656 19.8125,27.5625 C19.3541644,27.6458338 18.7500037,27.7291662 18,27.8125 L18,30 L14,30 L14,27.8125 C13.9166663,27.8125 13.3333387,27.6875013 12.25,27.4375 C11,27.1458319 9.93750437,26.66667 9.0625,26 C8.14582875,25.33333 7.41666937,24.4791719 6.875,23.4375 C6.33333063,22.3958281 6.04166688,21.2500062 6,20 L10.3125,20 C10.3125,20.8333375 10.4583319,21.5208306 10.75,22.0625 C11.0416681,22.6041694 11.4791637,23.0833313 12.0625,23.5 C12.6458362,23.8750019 13.2916631,24.1666656 14,24.375 L14,16.875 L12.3125,16.5 C11.2708281,16.2499988 10.41667,15.9166687 9.75,15.5 C9.08333,15.0833313 8.52083563,14.6041694 8.0625,14.0625 C7.68749812,13.6458313 7.39583437,13.10417 7.1875,12.4375 C7.0208325,11.9374975 6.9375,11.35417 6.9375,10.6875 C6.9375,9.56249437 7.1874975,8.56250437 7.6875,7.6875 C8.1875025,6.8541625 8.87499563,6.14583625 9.75,5.5625 C10.7083381,4.97916375 11.6666619,4.56250125 12.625,4.3125 C12.8750013,4.22916625 13.33333,4.14583375 14,4.0625 L14,2 L18,2 L18,4.0625 L19.5,4.4375 C20.6666725,4.770835 21.6666625,5.22916375 22.5,5.8125 C23.3750044,6.43750312 24.0624975,7.20832875 24.5625,8.125 C25.0208356,8.9583375 25.2708331,9.91666125 25.3125,11 L21,11 C20.7916656,9.66666 20.2500044,8.70833625 19.375,8.125 C18.7499969,7.791665 18.2916681,7.58333375 18,7.5 L18,14.125 L18.75,14.3125 C19.083335,14.3958338 19.3541656,14.4583331 19.5625,14.5 C19.7708344,14.5416669 20.0729147,14.6145828 20.46875,14.71875 C20.8645853,14.8229172 21.1249994,14.8958331 21.25,14.9375 C21.91667,15.1458344 22.6041631,15.4583313 23.3125,15.875 C23.97917,16.3333356 24.479165,16.7916644 24.8125,17.25 C25.2291687,17.7916694 25.5208325,18.3541637 25.6875,18.9375 Z M14,13.125 L14,7.375 C13.33333,7.58333437 12.8958344,7.72916625 12.6875,7.8125 C12.3124981,8.02083437 11.958335,8.33333125 11.625,8.75 C11.3333319,9.083335 11.1875,9.56249688 11.1875,10.1875 C11.1875,11.0625044 11.4583306,11.7083313 12,12.125 C12.4166687,12.5000019 13.0833287,12.8333319 14,13.125 Z M21.4375,22.4375 C21.6041675,22.0624981 21.6875,21.6458356 21.6875,21.1875 C21.6875,20.3124956 21.4791687,19.6666687 21.0625,19.25 C20.6874981,18.875 20.2083362,18.5833344 19.625,18.375 C19.5,18.3333331 18.9583381,18.1666681 18,17.875 L18,24.5625 C18.2500013,24.5208331 18.541665,24.4583338 18.875,24.375 C19.4583363,24.2083325 20.0208306,23.9375019 20.5625,23.5625 C20.9375019,23.3124987 21.2291656,22.9375025 21.4375,22.4375 Z" id="↳-🎨-Fill" fill="#181C21"></path>
    </g>
</svg>