<?xml version="1.0" encoding="UTF-8"?>
<svg width="32px" height="32px" viewBox="0 0 32 32" version="1.1" xmlns="http://www.w3.org/2000/svg" xmlns:xlink="http://www.w3.org/1999/xlink">
    <!-- Generator: Sketch 63.1 (92452) - https://sketch.com -->
    <title>Icons/ion-logo-facebook</title>
    <desc>Created with Sketch.</desc>
    <g id="Icons/ion-logo-facebook" stroke="none" stroke-width="1" fill="none" fill-rule="evenodd" fill-opacity="0.9">
        <path d="M26.6875,4 C27.0625019,4 27.3749987,4.12499875 27.625,4.375 C27.8750013,4.62500125 28,4.93749813 28,5.3125 L28,26.6875 C28,27.0625019 27.8750013,27.3749987 27.625,27.625 C27.3749987,27.8750013 27.0625019,28 26.6875,28 L20,28 L20,18.5 L23.125,18.5 L23.5625,15 L20,15 L20,12.75 C20,12.1666638 20.1249987,11.7291681 20.375,11.4375 C20.6250013,11.1458319 21.1041631,11 21.8125,11 L24,11 L24,7.75 C23.5833313,7.66666625 22.5625081,7.625 20.9375,7.625 C19.5208262,7.625 18.3437547,8.05207906 17.40625,8.90625 C16.4687453,9.76042094 16,10.9374925 16,12.4375 L16,15 L13.125,15 L13.125,18.5 L16,18.5 L16,28 L5.3125,28 C4.93749812,28 4.62500125,27.8750013 4.375,27.625 C4.12499875,27.3749987 4,27.0625019 4,26.6875 L4,5.3125 C4,4.93749813 4.12499875,4.62500125 4.375,4.375 C4.62500125,4.12499875 4.93749812,4 5.3125,4 L26.6875,4 Z" id="↳-🎨-Fill" fill="#181C21"></path>
    </g>
</svg>