<?xml version="1.0" encoding="UTF-8"?>
<svg width="32px" height="32px" viewBox="0 0 32 32" version="1.1" xmlns="http://www.w3.org/2000/svg" xmlns:xlink="http://www.w3.org/1999/xlink">
    <!-- Generator: Sketch 63.1 (92452) - https://sketch.com -->
    <title>Icons/ion-ios-switch</title>
    <desc>Created with Sketch.</desc>
    <g id="Icons/ion-ios-switch" stroke="none" stroke-width="1" fill="none" fill-rule="evenodd" fill-opacity="0.9">
        <path d="M7.125,24.875 C6.6249975,24.3333306 6.375,23.7083369 6.375,23 C6.375,22.2916631 6.63541406,21.6770859 7.15625,21.15625 C7.67708594,20.6354141 8.29166312,20.375 9,20.375 C9.70833688,20.375 10.3229141,20.6354141 10.84375,21.15625 C11.3645859,21.6770859 11.625,22.2916631 11.625,23 C11.625,23.7083369 11.3645859,24.3229141 10.84375,24.84375 C10.3229141,25.3645859 9.70833688,25.625 9,25.625 C8.29166312,25.625 7.66666937,25.375 7.125,24.875 Z M23,17 C24.666675,17 26.0833275,17.5833275 27.25,18.75 C28.4166725,19.9166725 29,21.333325 29,23 C29,24.666675 28.4166725,26.0833275 27.25,27.25 C26.0833275,28.4166725 24.666675,29 23,29 L9,29 C7.333325,29 5.9166725,28.4166725 4.75,27.25 C3.5833275,26.0833275 3,24.666675 3,23 C3,21.333325 3.5833275,19.9166725 4.75,18.75 C5.9166725,17.5833275 7.333325,17 9,17 L23,17 Z M6.1875,25.8125 C6.97917063,26.6041706 7.91666125,27 9,27 C10.0833387,27 11.0208294,26.6041706 11.8125,25.8125 C12.6041706,25.0208294 13,24.0833387 13,23 C13,21.9166613 12.6041706,20.9791706 11.8125,20.1875 C11.0208294,19.3958294 10.0833387,19 9,19 C7.91666125,19 6.97917063,19.3958294 6.1875,20.1875 C5.39582937,20.9791706 5,21.9166613 5,23 C5,24.0833387 5.39582937,25.0208294 6.1875,25.8125 Z M21.125,10.875 C20.6249975,10.3333306 20.375,9.70833688 20.375,9 C20.375,8.29166312 20.6354141,7.67708594 21.15625,7.15625 C21.6770859,6.63541406 22.2916631,6.375 23,6.375 C23.7083369,6.375 24.3229141,6.63541406 24.84375,7.15625 C25.3645859,7.67708594 25.625,8.29166312 25.625,9 C25.625,9.70833688 25.3645859,10.3229141 24.84375,10.84375 C24.3229141,11.3645859 23.7083369,11.625 23,11.625 C22.2916631,11.625 21.6666694,11.375 21.125,10.875 Z M9,15 C7.333325,15 5.9166725,14.4166725 4.75,13.25 C3.5833275,12.0833275 3,10.666675 3,9 C3,7.333325 3.5833275,5.9166725 4.75,4.75 C5.9166725,3.5833275 7.333325,3 9,3 L23,3 C24.666675,3 26.0833275,3.5833275 27.25,4.75 C28.4166725,5.9166725 29,7.333325 29,9 C29,10.666675 28.4166725,12.0833275 27.25,13.25 C26.0833275,14.4166725 24.666675,15 23,15 L9,15 Z M25.8125,6.1875 C25.0208294,5.39582937 24.0833387,5 23,5 C21.9166613,5 20.9791706,5.39582937 20.1875,6.1875 C19.3958294,6.97917062 19,7.91666125 19,9 C19,10.0833387 19.3958294,11.0208294 20.1875,11.8125 C20.9791706,12.6041706 21.9166613,13 23,13 C24.0833387,13 25.0208294,12.6041706 25.8125,11.8125 C26.6041706,11.0208294 27,10.0833387 27,9 C27,7.91666125 26.6041706,6.97917062 25.8125,6.1875 Z" id="↳-🎨-Fill" fill="#181C21"></path>
    </g>
</svg>