<?xml version="1.0" encoding="UTF-8"?>
<svg width="32px" height="32px" viewBox="0 0 32 32" version="1.1" xmlns="http://www.w3.org/2000/svg" xmlns:xlink="http://www.w3.org/1999/xlink">
    <!-- Generator: Sketch 63.1 (92452) - https://sketch.com -->
    <title>Icons/ion-ios-repeat</title>
    <desc>Created with Sketch.</desc>
    <g id="Icons/ion-ios-repeat" stroke="none" stroke-width="1" fill="none" fill-rule="evenodd" fill-opacity="0.9">
        <path d="M21.0625,9.875 C21.3125013,10.1250013 21.4375,10.4374981 21.4375,10.8125 C21.4375,11.1875019 21.3125013,11.4999987 21.0625,11.75 L18.8125,14 C18.6458325,14.1666675 18.4375013,14.25 18.1875,14.25 C17.9374987,14.25 17.7291675,14.1666675 17.5625,14 C17.3958325,13.8333325 17.3125,13.6041681 17.3125,13.3125 C17.3125,13.1041656 17.3958325,12.9166675 17.5625,12.75 L18.5625,11.75 L8.875,11.75 C8.0416625,11.75 7.31250312,12.0624969 6.6875,12.6875 C6.06249688,13.3125031 5.75,14.0416625 5.75,14.875 L5.75,15.875 C5.75,16.4583363 5.45833625,16.75 4.875,16.75 C4.29166375,16.75 4,16.4583363 4,15.875 L4,14.875 C4,13.54166 4.47916187,12.3958381 5.4375,11.4375 C6.39583812,10.4791619 7.54166,10 8.875,10 L18.6875,10 L17.6875,9 C17.5208325,8.8333325 17.4375,8.64583437 17.4375,8.4375 C17.4375,8.06249812 17.5833319,7.7916675 17.875,7.625 C17.9583338,7.54166625 18.0208331,7.5 18.0625,7.5 C18.395835,7.41666625 18.6874987,7.49999875 18.9375,7.75 L21.0625,9.875 Z M26.25,16.125 C26.25,15.5416638 26.5416637,15.25 27.125,15.25 C27.7083363,15.25 28,15.5416638 28,16.125 L28,17.125 C28,18.45834 27.5208381,19.6041619 26.5625,20.5625 C25.6041619,21.5208381 24.45834,22 23.125,22 L13.3125,22 L14.3125,23 C14.4791675,23.1666675 14.5625,23.3541656 14.5625,23.5625 C14.5625,23.9375019 14.4166681,24.2083325 14.125,24.375 C14.0833331,24.4166669 14.0208338,24.4375 13.9375,24.4375 C13.5625,24.5208338 13.2708344,24.4583344 13.0625,24.25 L10.9375,22.125 C10.6874987,21.8749987 10.5625,21.5625019 10.5625,21.1875 C10.5625,20.7708313 10.6874987,20.4375013 10.9375,20.1875 L13.1875,18 C13.3541675,17.8333325 13.5625,17.75 13.8125,17.75 C14.0625,17.75 14.2708325,17.8333325 14.4375,18 C14.6041675,18.1666675 14.6875,18.3958319 14.6875,18.6875 C14.6875,18.8958344 14.6041675,19.0833325 14.4375,19.25 L13.4375,20.25 L23.125,20.25 C23.9583375,20.25 24.6874969,19.9375031 25.3125,19.3125 C25.9375031,18.6874969 26.25,17.9583375 26.25,17.125 L26.25,16.125 Z" id="↳-🎨-Fill" fill="#181C21"></path>
    </g>
</svg>