<?xml version="1.0" encoding="UTF-8"?>
<svg width="32px" height="32px" viewBox="0 0 32 32" version="1.1" xmlns="http://www.w3.org/2000/svg" xmlns:xlink="http://www.w3.org/1999/xlink">
    <!-- Generator: Sketch 63.1 (92452) - https://sketch.com -->
    <title>Icons/ion-md-pulse</title>
    <desc>Created with Sketch.</desc>
    <g id="Icons/ion-md-pulse" stroke="none" stroke-width="1" fill="none" fill-rule="evenodd" fill-opacity="0.9">
        <path d="M26.75,16.8125 C27.6666713,16.8125 28.4374969,17.1145803 29.0625,17.71875 C29.6875031,18.3229197 30,19.0833287 30,20 C30,20.9166713 29.6875031,21.6874969 29.0625,22.3125 C28.39583,22.97917 27.6250044,23.3125 26.75,23.3125 C25.2916594,23.3125 24.2916694,22.6666731 23.75,21.375 L20.25,21.375 C19.6666637,21.375 19.2708344,21.0833363 19.0625,20.5 L18.0625,18 L15.5625,28.125 C15.4374994,28.7083362 15.04167,29 14.375,29 L14.3125,29 C13.64583,28.9166662 13.2500006,28.5833362 13.125,28 L9.75,10.375 L7.8125,20.4375 C7.68749937,21.0625031 7.29167,21.375 6.625,21.375 L2,21.375 L2,18.875 L5.625,18.875 L8.8125,4 C8.93750063,3.33333 9.33333,3 10,3 C10.66667,3 11.0833325,3.37499625 11.25,4.125 L14.6875,22.375 L16.8125,13.875 C16.9375006,13.2916637 17.33333,13 18,13 C18.5833363,13 18.9791656,13.2708306 19.1875,13.8125 L21.125,18.875 L23.75,18.875 C24.2916694,17.5 25.2916594,16.8125 26.75,16.8125 Z" id="↳-🎨-Fill" fill="#181C21"></path>
    </g>
</svg>