<?xml version="1.0" encoding="UTF-8"?>
<svg width="32px" height="32px" viewBox="0 0 32 32" version="1.1" xmlns="http://www.w3.org/2000/svg" xmlns:xlink="http://www.w3.org/1999/xlink">
    <!-- Generator: Sketch 63.1 (92452) - https://sketch.com -->
    <title>Icons/ion-md-git-branch</title>
    <desc>Created with Sketch.</desc>
    <g id="Icons/ion-md-git-branch" stroke="none" stroke-width="1" fill="none" fill-rule="evenodd" fill-opacity="0.9">
        <path d="M26,10 C26,11.5 25.33334,12.6458294 24,13.4375 L24,14 C24,16.66668 22.8541781,18.7291594 20.5625,20.1875 C19.1458262,21.1041713 17.2291788,21.7499981 14.8125,22.125 C13.812495,22.2916675 13.1875013,22.6874969 12.9375,23.3125 C13.6458369,24.1041706 14,25 14,26 C14,27.0833387 13.6041706,28.0208294 12.8125,28.8125 C12.0208294,29.6041706 11.0833387,30 10,30 C8.91666125,30 7.97917063,29.6041706 7.1875,28.8125 C6.39582937,28.0208294 6,27.0833387 6,26 C6,24.5 6.66666,23.3541706 8,22.5625 L8,9.4375 C6.66666,8.64582937 6,7.5 6,6 C6,4.91666125 6.39582937,3.97917063 7.1875,3.1875 C7.97917063,2.39582937 8.91666125,2 10,2 C11.0833387,2 12.0208294,2.39582937 12.8125,3.1875 C13.6041706,3.97917063 14,4.91666125 14,6 C14,7.5 13.33334,8.64582937 12,9.4375 L12,18.8125 C12.7083369,18.479165 13.4374962,18.2500006 14.1875,18.125 C16.1041763,17.8749987 17.5208287,17.4375031 18.4375,16.8125 C19.4791719,16.1874969 20,15.2500062 20,14 L20,13.4375 C18.66666,12.6458294 18,11.5 18,10 C18,8.91666125 18.3958294,7.97917062 19.1875,7.1875 C19.9791706,6.39582938 20.9166613,6 22,6 C23.0833387,6 24.0208294,6.39582938 24.8125,7.1875 C25.6041706,7.97917062 26,8.91666125 26,10 Z M11.75,4.25 C11.2499975,3.7499975 10.66667,3.5 10,3.5 C9.33333,3.5 8.7500025,3.7499975 8.25,4.25 C7.7499975,4.7500025 7.5,5.33333 7.5,6 C7.5,6.66667 7.7499975,7.2499975 8.25,7.75 C8.7500025,8.2500025 9.33333,8.5 10,8.5 C10.66667,8.5 11.2499975,8.2500025 11.75,7.75 C12.2500025,7.2499975 12.5,6.66667 12.5,6 C12.5,5.33333 12.2500025,4.7500025 11.75,4.25 Z M8.25,27.75 C8.7500025,28.2500025 9.33333,28.5 10,28.5 C10.66667,28.5 11.2499975,28.2500025 11.75,27.75 C12.2500025,27.2499975 12.5,26.66667 12.5,26 C12.5,25.33333 12.2500025,24.7500025 11.75,24.25 C11.2499975,23.7499975 10.66667,23.5 10,23.5 C9.33333,23.5 8.7500025,23.7499975 8.25,24.25 C7.7499975,24.7500025 7.5,25.33333 7.5,26 C7.5,26.66667 7.7499975,27.2499975 8.25,27.75 Z M20.25,11.75 C20.7500025,12.2500025 21.33333,12.5 22,12.5 C22.66667,12.5 23.2499975,12.2500025 23.75,11.75 C24.2500025,11.2499975 24.5,10.66667 24.5,10 C24.5,9.33333 24.2500025,8.7500025 23.75,8.25 C23.2499975,7.7499975 22.66667,7.5 22,7.5 C21.33333,7.5 20.7500025,7.7499975 20.25,8.25 C19.7499975,8.7500025 19.5,9.33333 19.5,10 C19.5,10.66667 19.7499975,11.2499975 20.25,11.75 Z" id="↳-🎨-Fill" fill="#181C21"></path>
    </g>
</svg>