<?xml version="1.0" encoding="UTF-8"?>
<svg width="32px" height="32px" viewBox="0 0 32 32" version="1.1" xmlns="http://www.w3.org/2000/svg" xmlns:xlink="http://www.w3.org/1999/xlink">
    <!-- Generator: Sketch 63.1 (92452) - https://sketch.com -->
    <title>Icons/ion-md-mail-open</title>
    <desc>Created with Sketch.</desc>
    <g id="Icons/ion-md-mail-open" stroke="none" stroke-width="1" fill="none" fill-rule="evenodd" fill-opacity="0.9">
        <path d="M30,12.625 L30,25.3125 C30,26.0208369 29.7291694,26.6458306 29.1875,27.1875 C28.6458306,27.7291694 28.0208369,28 27.3125,28 L4.6875,28 C3.97916313,28 3.35416937,27.7291694 2.8125,27.1875 C2.27083063,26.6458306 2,26.0208369 2,25.3125 L2,12.625 C2,11.5833281 2.4166625,10.8125025 3.25,10.3125 L16,4 L28.75,10.3125 C29.5833375,10.7708356 30,11.5416613 30,12.625 Z M16,19 L26.6875,12 L16,6.6875 L5.3125,12 L16,19 Z" id="↳-🎨-Fill" fill="#181C21"></path>
    </g>
</svg>