<?xml version="1.0" encoding="UTF-8"?>
<svg width="32px" height="32px" viewBox="0 0 32 32" version="1.1" xmlns="http://www.w3.org/2000/svg" xmlns:xlink="http://www.w3.org/1999/xlink">
    <!-- Generator: Sketch 63.1 (92452) - https://sketch.com -->
    <title>Icons/ion-md-reverse-camera</title>
    <desc>Created with Sketch.</desc>
    <g id="Icons/ion-md-reverse-camera" stroke="none" stroke-width="1" fill="none" fill-rule="evenodd" fill-opacity="0.9">
        <path d="M27.5,6 C28.16667,6 28.7499975,6.2499975 29.25,6.75 C29.7500025,7.2500025 30,7.83333 30,8.5 L30,25.5 C30,26.16667 29.7500025,26.7499975 29.25,27.25 C28.7499975,27.7500025 28.16667,28 27.5,28 L4.5,28 C3.83333,28 3.2500025,27.7500025 2.75,27.25 C2.2499975,26.7499975 2,26.16667 2,25.5 L2,8.5 C2,7.83333 2.2499975,7.2500025 2.75,6.75 C3.2500025,6.2499975 3.83333,6 4.5,6 L10,6 L12,4 L20,4 L22,6 L27.5,6 Z M23,16.6875 L23,10.5 L20.9375,12.5625 C19.5624931,11.1874931 17.9166763,10.5 16,10.5 C14.0833237,10.5 12.4375069,11.1874931 11.0625,12.5625 C9.68749312,13.9375069 9,15.5833237 9,17.5 C9,19.4166763 9.68749312,21.0624931 11.0625,22.4375 C12.4375069,23.8125069 14.0833237,24.5 16,24.5 C17.6250081,24.5 19.0520772,24.0312547 20.28125,23.09375 C21.5104228,22.1562453 22.3333313,20.9375075 22.75,19.4375 L20.875,19.4375 C20.5,20.437505 19.8750044,21.2395803 19,21.84375 C18.1249956,22.4479197 17.1250056,22.75 16,22.75 C14.5833262,22.75 13.3541719,22.2291719 12.3125,21.1875 C11.2708281,20.1458281 10.75,18.9166738 10.75,17.5 C10.75,16.0833262 11.2708281,14.8541719 12.3125,13.8125 C13.3541719,12.7708281 14.5833262,12.25 16,12.25 C17.3750069,12.25 18.6041613,12.7916612 19.6875,13.875 L16.875,16.6875 L23,16.6875 Z" id="↳-🎨-Fill" fill="#181C21"></path>
    </g>
</svg>