<?xml version="1.0" encoding="UTF-8"?>
<svg width="32px" height="32px" viewBox="0 0 32 32" version="1.1" xmlns="http://www.w3.org/2000/svg" xmlns:xlink="http://www.w3.org/1999/xlink">
    <!-- Generator: Sketch 63.1 (92452) - https://sketch.com -->
    <title>Icons/ion-md-flag</title>
    <desc>Created with Sketch.</desc>
    <g id="Icons/ion-md-flag" stroke="none" stroke-width="1" fill="none" fill-rule="evenodd" fill-opacity="0.9">
        <path d="M24.75,5.1875 C25.2916694,5.10416625 25.7083319,5.04166688 26,5 L26,18 C25.5,18.0833338 25.083335,18.1458331 24.75,18.1875 C23.5833275,18.3541675 22.5833375,18.4375 21.75,18.4375 C20.4583269,18.4375 18.645845,18.1875025 16.3125,17.6875 C13.4791525,17.0624969 11.8125025,16.75 11.3125,16.75 C10.6041631,16.75 9.8333375,16.7916662 9,16.875 L9,28 L6,28 L6,5 L6.25,4.8125 C7.33333875,4.27083062 9.02082187,4 11.3125,4 C12.7291737,4 14.4791562,4.22916437 16.5625,4.6875 C19.1458463,5.1875025 20.8333294,5.4375 21.625,5.4375 C22.5416713,5.4375 23.5833275,5.3541675 24.75,5.1875 Z" id="↳-🎨-Fill" fill="#181C21"></path>
    </g>
</svg>