<?xml version="1.0" encoding="UTF-8"?>
<svg width="32px" height="32px" viewBox="0 0 32 32" version="1.1" xmlns="http://www.w3.org/2000/svg" xmlns:xlink="http://www.w3.org/1999/xlink">
    <!-- Generator: Sketch 63.1 (92452) - https://sketch.com -->
    <title>Icons/ion-ios-arrow-round-down</title>
    <desc>Created with Sketch.</desc>
    <g id="Icons/ion-ios-arrow-round-down" stroke="none" stroke-width="1" fill="none" fill-rule="evenodd" fill-opacity="0.9">
        <path d="M20.625,18.5 C21.0000019,18.1249981 21.3749981,18.1249981 21.75,18.5 C22.1250019,18.8750019 22.1250019,19.2499981 21.75,19.625 L16.5625,24.75 C16.3958325,24.9166675 16.2083344,25 16,25 C15.8749994,25 15.7708338,24.9791669 15.6875,24.9375 C15.6041662,24.8958331 15.5208338,24.8333338 15.4375,24.75 L10.25,19.625 C9.87499812,19.2499981 9.87499812,18.8750019 10.25,18.5 C10.6666687,18.0833313 11.041665,18.0624981 11.375,18.4375 L15.1875,22.25 L15.1875,7.8125 C15.1875,7.27083063 15.4583306,7 16,7 C16.5416694,7 16.8125,7.27083063 16.8125,7.8125 L16.8125,22.25 L20.625,18.5 Z" id="↳-🎨-Fill" fill="#181C21"></path>
    </g>
</svg>