<?xml version="1.0" encoding="UTF-8"?>
<svg width="32px" height="32px" viewBox="0 0 32 32" version="1.1" xmlns="http://www.w3.org/2000/svg" xmlns:xlink="http://www.w3.org/1999/xlink">
    <!-- Generator: Sketch 63.1 (92452) - https://sketch.com -->
    <title>Icons/ion-ios-flask</title>
    <desc>Created with Sketch.</desc>
    <g id="Icons/ion-ios-flask" stroke="none" stroke-width="1" fill="none" fill-rule="evenodd" fill-opacity="0.9">
        <path d="M27.34375,22.125 C27.8020856,23.0416713 28.03125,24 28.03125,25 C27.9895831,26.1250056 27.6041703,27.0729128 26.875,27.84375 C26.1458297,28.6145872 25.2187556,29 24.09375,29 L8.03125,29 C6.90624437,29 5.95833719,28.6145872 5.1875,27.84375 C4.41666281,27.0729128 4.01041687,26.1250056 3.96875,25 C3.96875,24.0833287 4.2187475,23.125005 4.71875,22.125 L11.96875,10 L11.96875,5 C11.96875,4.8333325 11.8854175,4.75 11.71875,4.75 C11.2187475,4.75 10.96875,4.5 10.96875,4 L10.96875,3.75 C10.96875,3.2499975 11.2187475,3 11.71875,3 L20.28125,3 C20.7812525,3 21.03125,3.2499975 21.03125,3.75 L21.03125,4 C21.03125,4.5 20.7812525,4.75 20.28125,4.75 C20.1145825,4.75 20.03125,4.8333325 20.03125,5 L20.03125,10 L27.34375,22.125 Z M10.09375,18 L21.90625,18 C22.0729175,18 22.2083328,17.9166675 22.3125,17.75 C22.4166672,17.5833325 22.4270837,17.4166675 22.34375,17.25 L18.53125,10.875 C18.3645825,10.5833319 18.28125,10.25 18.28125,9.875 L18.28125,4.75 L13.71875,4.75 L13.71875,9.875 C13.71875,10.25 13.6354175,10.5833319 13.46875,10.875 L9.65625,17.25 C9.57291625,17.4166675 9.58333281,17.5833325 9.6875,17.75 C9.79166719,17.9166675 9.9270825,18 10.09375,18 Z" id="↳-🎨-Fill" fill="#181C21"></path>
    </g>
</svg>