<?xml version="1.0" encoding="UTF-8"?>
<svg width="32px" height="32px" viewBox="0 0 32 32" version="1.1" xmlns="http://www.w3.org/2000/svg" xmlns:xlink="http://www.w3.org/1999/xlink">
    <!-- Generator: Sketch 63.1 (92452) - https://sketch.com -->
    <title>Icons/ion-md-cash</title>
    <desc>Created with Sketch.</desc>
    <g id="Icons/ion-md-cash" stroke="none" stroke-width="1" fill="none" fill-rule="evenodd" fill-opacity="0.9">
        <path d="M2,6 L30,6 L30,22 L2,22 L2,6 Z M12,20 C10.66666,18.4166587 10,16.4166787 10,14 C10,11.5833213 10.66666,9.58334125 12,8 L8,8 C8,9.08333875 7.60417063,10.0208294 6.8125,10.8125 C6.02082937,11.6041706 5.08333875,12 4,12 L4,17 C4.8333375,17 5.54166375,17.2916637 6.125,17.875 C6.70833625,18.4583363 7,19.1666625 7,20 L12,20 Z M28,17 L28,12 C26.9166613,12 25.9791706,11.6041706 25.1875,10.8125 C24.3958294,10.0208294 24,9.08333875 24,8 L20,8 C21.33334,9.58334125 22,11.5833213 22,14 C22,16.4166787 21.33334,18.4166587 20,20 L25,20 C25,19.1666625 25.2916638,18.4583363 25.875,17.875 C26.4583363,17.2916637 27.1666625,17 28,17 Z M2,26 L2,24 L30,24 L30,26 L2,26 Z" id="↳-🎨-Fill" fill="#181C21"></path>
    </g>
</svg>