<?xml version="1.0" encoding="UTF-8"?>
<svg width="32px" height="32px" viewBox="0 0 32 32" version="1.1" xmlns="http://www.w3.org/2000/svg" xmlns:xlink="http://www.w3.org/1999/xlink">
    <!-- Generator: Sketch 63.1 (92452) - https://sketch.com -->
    <title>Icons/ion-md-gift</title>
    <desc>Created with Sketch.</desc>
    <g id="Icons/ion-md-gift" stroke="none" stroke-width="1" fill="none" fill-rule="evenodd" fill-opacity="0.9">
        <path d="M26.5,8.375 C27.2083369,8.375 27.8229141,8.63541406 28.34375,9.15625 C28.8645859,9.67708594 29.125,10.3124962 29.125,11.0625 L29.125,26.375 C29.125,27.1250038 28.8645859,27.7499975 28.34375,28.25 C27.8229141,28.7500025 27.1875037,29 26.4375,29 L5.4375,29 C4.72916312,29 4.1250025,28.7500025 3.625,28.25 C3.1249975,27.7499975 2.875,27.1250038 2.875,26.375 L2.875,11.0625 C2.875,10.3124962 3.13541406,9.67708594 3.65625,9.15625 C4.17708594,8.63541406 4.79166313,8.375 5.5,8.375 L8.375,8.375 C8.2083325,7.79166375 8.125,7.35416813 8.125,7.0625 C8.125,5.97916125 8.51041281,5.03125406 9.28125,4.21875 C10.0520872,3.40624594 10.9791613,3 12.0625,3 C13.4791738,3 14.5833294,3.62499375 15.375,4.875 L16,5.75 L16.625,4.875 C17.375,3.7083275 18.4791594,3.125 19.9375,3.125 C21.0208387,3.125 21.9479128,3.51041281 22.71875,4.28125 C23.4895872,5.05208719 23.875,5.97916125 23.875,7.0625 C23.875,7.35416813 23.7916675,7.79166375 23.625,8.375 L26.5,8.375 Z M20.9375,6.0625 C20.6875,5.81249875 20.3750019,5.6875 20,5.6875 C19.6249981,5.6875 19.3125013,5.81249875 19.0625,6.0625 C18.8124987,6.31250125 18.6875,6.62499813 18.6875,7 C18.6875,7.37500187 18.8124987,7.6875 19.0625,7.9375 C19.3125013,8.1875 19.6249981,8.3125 20,8.3125 C20.3750019,8.3125 20.6875,8.1875 20.9375,7.9375 C21.1875,7.6875 21.3125,7.37500187 21.3125,7 C21.3125,6.62499813 21.1875,6.31250125 20.9375,6.0625 Z M12.9375,6.0625 C12.6875,5.81249875 12.3750019,5.6875 12,5.6875 C11.6249981,5.6875 11.3125013,5.81249875 11.0625,6.0625 C10.8124987,6.31250125 10.6875,6.62499813 10.6875,7 C10.6875,7.37500187 10.8124987,7.6875 11.0625,7.9375 C11.3125013,8.1875 11.6249981,8.3125 12,8.3125 C12.3750019,8.3125 12.6875,8.1875 12.9375,7.9375 C13.1875,7.6875 13.3125,7.37500187 13.3125,7 C13.3125,6.62499813 13.1875,6.31250125 12.9375,6.0625 Z M5.5,11.0625 L5.5,26.375 L14.6875,26.375 L14.6875,12.0625 L11.5625,16.375 L9.4375,14.875 L12.1875,11.0625 L5.5,11.0625 Z M26.5,26.375 L26.5,11.0625 L19.8125,11.0625 L22.5625,14.875 L20.4375,16.375 L17.3125,12.0625 L17.3125,26.375 L26.5,26.375 Z" id="↳-🎨-Fill" fill="#181C21"></path>
    </g>
</svg>