<?xml version="1.0" encoding="UTF-8"?>
<svg width="32px" height="32px" viewBox="0 0 32 32" version="1.1" xmlns="http://www.w3.org/2000/svg" xmlns:xlink="http://www.w3.org/1999/xlink">
    <!-- Generator: Sketch 63.1 (92452) - https://sketch.com -->
    <title>Icons/ion-ios-photos</title>
    <desc>Created with Sketch.</desc>
    <g id="Icons/ion-ios-photos" stroke="none" stroke-width="1" fill="none" fill-rule="evenodd" fill-opacity="0.9">
        <path d="M29,9 C29.5833362,9 30.0624981,9.18749813 30.4375,9.5625 C30.8125019,9.93750187 31,10.4166637 31,11 L31,26 C31,26.5833362 30.8125019,27.0624981 30.4375,27.4375 C30.0624981,27.8125019 29.5833362,28 29,28 L8,28 C7.41666375,28 6.93750187,27.8125019 6.5625,27.4375 C6.18749813,27.0624981 6,26.5833362 6,26 L6,11 C6,10.4166637 6.18749813,9.93750187 6.5625,9.5625 C6.93750187,9.18749813 7.41666375,9 8,9 L29,9 Z M6.25,7.25 C5.66666375,7.25 5.18750187,7.43749812 4.8125,7.8125 C4.43749813,8.18750187 4.25,8.66666375 4.25,9.25 L4.25,24 L3,24 C2.41666375,24 1.93750187,23.8125019 1.5625,23.4375 C1.18749812,23.0624981 1,22.5833363 1,22 L1,6 C1,5.41666375 1.18749812,4.93750188 1.5625,4.5625 C1.93750187,4.18749812 2.41666375,4 3,4 L25,4 C25.5833362,4 26.0624981,4.18749812 26.4375,4.5625 C26.8125019,4.93750188 27,5.41666375 27,6 L27,7.25 L6.25,7.25 Z" id="↳-🎨-Fill" fill="#181C21"></path>
    </g>
</svg>