<?xml version="1.0" encoding="UTF-8"?>
<svg width="32px" height="32px" viewBox="0 0 32 32" version="1.1" xmlns="http://www.w3.org/2000/svg" xmlns:xlink="http://www.w3.org/1999/xlink">
    <!-- Generator: Sketch 63.1 (92452) - https://sketch.com -->
    <title>Icons/ion-ios-airplane</title>
    <desc>Created with Sketch.</desc>
    <g id="Icons/ion-ios-airplane" stroke="none" stroke-width="1" fill="none" fill-rule="evenodd" fill-opacity="0.9">
        <path d="M25.5,14 C26.83334,14 27.9166625,14.1874981 28.75,14.5625 C29.5833375,14.9375019 30,15.4166637 30,16 C30,16.5833363 29.5833375,17.0624981 28.75,17.4375 C27.9166625,17.8125019 26.83334,18 25.5,18 L24.375,18 L20.3125,17.875 C20.2291662,17.875 20.1875,17.8958331 20.1875,17.9375 L14.125,27.0625 C13.9583325,27.3541681 13.6666687,27.5 13.25,27.5 L11.8125,27.5 C11.3958313,27.5 11.2708325,27.2708356 11.4375,26.8125 L14.5625,17.875 C14.5625,17.7916662 14.5208338,17.75 14.4375,17.75 L6.875,17.5625 C6.7083325,17.5625 6.56250063,17.6249994 6.4375,17.75 L4.0625,20.625 C3.85416563,20.8750013 3.60416812,21 3.3125,21 L2.25,21 C1.99999875,21 1.91666625,20.8750013 2,20.625 L3.25,16.375 C3.37500062,16.1249987 3.37500062,15.8750013 3.25,15.625 L2,11.3125 C1.91666625,11.1041656 1.99999875,11 2.25,11 L3.3125,11 C3.60416812,11 3.85416563,11.1249987 4.0625,11.375 L6.375,14.1875 C6.50000063,14.3125006 6.6458325,14.375 6.8125,14.375 L14.4375,14.25 C14.5208338,14.25 14.5625,14.2083338 14.5625,14.125 L11.4375,5.1875 C11.2708325,4.72916437 11.3958313,4.5 11.8125,4.5 L13.25,4.5 C13.6666687,4.5 13.9583325,4.64583187 14.125,4.9375 L20.1875,14.0625 C20.1875,14.1041669 20.2291662,14.125 20.3125,14.125 L24.375,14 L25.5,14 Z" id="↳-🎨-Fill" fill="#181C21"></path>
    </g>
</svg>