<?xml version="1.0" encoding="UTF-8"?>
<svg width="32px" height="32px" viewBox="0 0 32 32" version="1.1" xmlns="http://www.w3.org/2000/svg" xmlns:xlink="http://www.w3.org/1999/xlink">
    <!-- Generator: Sketch 63.1 (92452) - https://sketch.com -->
    <title>Icons/ion-ios-funnel</title>
    <desc>Created with Sketch.</desc>
    <g id="Icons/ion-ios-funnel" stroke="none" stroke-width="1" fill="none" fill-rule="evenodd" fill-opacity="0.9">
        <path d="M3.375,6.4375 C3.12499875,6.18749875 3,5.85416875 3,5.4375 C3,5.02083125 3.12499875,4.67708469 3.375,4.40625 C3.62500125,4.13541531 3.93749813,4 4.3125,4 L27.6875,4 C28.0625019,4 28.3749987,4.13541531 28.625,4.40625 C28.8750013,4.67708469 29,5.02083125 29,5.4375 C29,5.85416875 28.8750013,6.18749875 28.625,6.4375 L19.125,17.6875 C18.9166656,17.8958344 18.8125,18.2083313 18.8125,18.625 L18.8125,27 C18.8125,27.333335 18.6770847,27.6041656 18.40625,27.8125 C18.1354153,28.0208344 17.8541681,28.0625006 17.5625,27.9375 L14.125,26.6875 C13.5,26.4791656 13.1875,26.0208369 13.1875,25.3125 L13.1875,18.625 C13.1875,18.2083313 13.0833344,17.8958344 12.875,17.6875 L3.375,6.4375 Z" id="↳-🎨-Fill" fill="#181C21"></path>
    </g>
</svg>