<?xml version="1.0" encoding="UTF-8"?>
<svg width="32px" height="32px" viewBox="0 0 32 32" version="1.1" xmlns="http://www.w3.org/2000/svg" xmlns:xlink="http://www.w3.org/1999/xlink">
    <!-- Generator: Sketch 63.1 (92452) - https://sketch.com -->
    <title>Icons/ion-md-folder-open</title>
    <desc>Created with Sketch.</desc>
    <g id="Icons/ion-md-folder-open" stroke="none" stroke-width="1" fill="none" fill-rule="evenodd" fill-opacity="0.9">
        <path d="M27.3125,9 C28.0208369,9 28.6458306,9.27083063 29.1875,9.8125 C29.7291694,10.3541694 30,10.9791631 30,11.6875 L30,23.3125 C30,24.0208369 29.7291694,24.6458306 29.1875,25.1875 C28.6458306,25.7291694 28.0208369,26 27.3125,26 L4.6875,26 C3.97916313,26 3.35416937,25.7291694 2.8125,25.1875 C2.27083063,24.6458306 2,24.0208369 2,23.3125 L2,8.6875 C2,7.97916312 2.27083063,7.35416938 2.8125,6.8125 C3.35416937,6.27083063 3.97916313,6 4.6875,6 L13.3125,6 L16,9 L27.3125,9 Z M28,23.3125 L28,11.6875 C28,11.2291644 27.7708356,11 27.3125,11 L4,11 L4,23.3125 C4,23.7708356 4.22916437,24 4.6875,24 L27.3125,24 C27.7708356,24 28,23.7708356 28,23.3125 Z" id="↳-🎨-Fill" fill="#181C21"></path>
    </g>
</svg>