<?xml version="1.0" encoding="UTF-8"?>
<svg width="32px" height="32px" viewBox="0 0 32 32" version="1.1" xmlns="http://www.w3.org/2000/svg" xmlns:xlink="http://www.w3.org/1999/xlink">
    <!-- Generator: Sketch 63.1 (92452) - https://sketch.com -->
    <title>Icons/ion-ios-color-filter</title>
    <desc>Created with Sketch.</desc>
    <g id="Icons/ion-ios-color-filter" stroke="none" stroke-width="1" fill="none" fill-rule="evenodd" fill-opacity="0.9">
        <path d="M27.625,15.5625 C28.7083387,16.9791738 29.25,18.5833244 29.25,20.375 C29.25,22.5416775 28.4791744,24.3958256 26.9375,25.9375 C25.3958256,27.4791744 23.5625106,28.25 21.4375,28.25 C19.2708225,28.25 17.4583406,27.5208406 16,26.0625 C14.4583256,27.5208406 12.6458438,28.25 10.5625,28.25 C8.43748938,28.25 6.60417437,27.4791744 5.0625,25.9375 C3.52082562,24.3958256 2.75,22.5416775 2.75,20.375 C2.75,18.5833244 3.29166125,16.9791738 4.375,15.5625 C5.41667188,14.22916 6.70832563,13.3125025 8.25,12.8125 C8.20833312,12.5624987 8.1875,12.1666694 8.1875,11.625 C8.1875,9.41665563 8.9374925,7.5625075 10.4375,6.0625 C11.9791744,4.52082563 13.8333225,3.75 16,3.75 C18.1666775,3.75 20.0208256,4.52082563 21.5625,6.0625 C23.0625075,7.5625075 23.8125,9.41665563 23.8125,11.625 C23.8125,12.1666694 23.7916669,12.5624987 23.75,12.8125 C25.3333412,13.3541694 26.624995,14.2708269 27.625,15.5625 Z M20.375,7.1875 C19.1666606,5.97916062 17.7083419,5.375 16,5.375 C14.2916581,5.375 12.8229228,5.97916062 11.59375,7.1875 C10.3645772,8.39583938 9.75,9.875 9.75,11.625 C9.75,12.0000019 9.77083312,12.2916656 9.8125,12.5 L10.5625,12.5 C12.7291775,12.5 14.5416594,13.2291594 16,14.6875 C17.5416744,13.2291594 19.3541562,12.5 21.4375,12.5 L22.1875,12.5 C22.2291669,12.2916656 22.25,12.0000019 22.25,11.625 C22.25,9.875 21.6250062,8.39583938 20.375,7.1875 Z M15.625,17.9375 L16.375,17.9375 C16.3333331,17.8541662 16.2708338,17.7395841 16.1875,17.59375 C16.1041662,17.4479159 16.0416669,17.3333338 16,17.25 C15.9583331,17.3333338 15.8958338,17.4479159 15.8125,17.59375 C15.7291662,17.7395841 15.6666669,17.8541662 15.625,17.9375 Z M13.0625,26.125 C13.8958375,25.7499981 14.5416644,25.3333356 15,24.875 C14.0416619,23.4583262 13.5625,21.9583413 13.5625,20.375 C13.5625,20.0833319 13.6041662,19.6875025 13.6875,19.1875 C12.5208275,18.8124981 11.5000044,18.2083375 10.625,17.375 C9.74999563,16.5833294 9.08333563,15.5833394 8.625,14.375 C7.4583275,14.7500019 6.4583375,15.4791612 5.625,16.5625 C4.74999563,17.6875056 4.3125,18.9583262 4.3125,20.375 C4.3125,22.1250087 4.92707719,23.6041606 6.15625,24.8125 C7.38542281,26.0208394 8.85415812,26.625 10.5625,26.625 C11.5208381,26.625 12.3541631,26.458335 13.0625,26.125 Z M14.0625,17.625 C14.2708344,17.0416638 14.5833313,16.4583363 15,15.875 C14.5416644,15.4166644 13.8958375,15.0000019 13.0625,14.625 C12.2708294,14.2499981 11.4375044,14.0625 10.5625,14.0625 L10.25,14.0625 C11.0000037,15.8541756 12.2708244,17.0416638 14.0625,17.625 Z M16,23.5 C16.5833363,22.5416619 16.875,21.5 16.875,20.375 C16.875,20.2083325 16.8333338,19.9166687 16.75,19.5 L15.25,19.5 C15.2083331,19.7083344 15.1875,20 15.1875,20.375 C15.1875,21.5416725 15.4583306,22.5833287 16,23.5 Z M18.9375,14.625 C18.1041625,15.0000019 17.4583356,15.4166644 17,15.875 C17.4166687,16.4583363 17.7291656,17.0416638 17.9375,17.625 C19.7291756,17.0416638 21,15.8541756 21.75,14.0625 L21.4375,14.0625 C20.5624956,14.0625 19.7291706,14.2499981 18.9375,14.625 Z M21.4375,26.625 C23.1458419,26.625 24.6145772,26.0208394 25.84375,24.8125 C27.0729228,23.6041606 27.6875,22.1250087 27.6875,20.375 C27.6875,18.9583262 27.2500044,17.6875056 26.375,16.5625 C25.5416625,15.4791612 24.5416725,14.7500019 23.375,14.375 C22.9166644,15.5833394 22.2500044,16.5833294 21.375,17.375 C20.5,18.2083375 19.4791725,18.8124981 18.3125,19.1875 C18.3958338,19.6875025 18.4375,20.0833319 18.4375,20.375 C18.4375,21.9583413 17.9583381,23.4583262 17,24.875 C17.4583356,25.3333356 18.1041625,25.7499981 18.9375,26.125 C19.6458369,26.458335 20.4791619,26.625 21.4375,26.625 Z" id="↳-🎨-Fill" fill="#181C21"></path>
    </g>
</svg>