<?xml version="1.0" encoding="UTF-8"?>
<svg width="32px" height="32px" viewBox="0 0 32 32" version="1.1" xmlns="http://www.w3.org/2000/svg" xmlns:xlink="http://www.w3.org/1999/xlink">
    <!-- Generator: Sketch 63.1 (92452) - https://sketch.com -->
    <title>Icons/ion-md-compass</title>
    <desc>Created with Sketch.</desc>
    <g id="Icons/ion-md-compass" stroke="none" stroke-width="1" fill="none" fill-rule="evenodd" fill-opacity="0.9">
        <path d="M14.875,14.9375 C15.208335,14.604165 15.5833313,14.4375 16,14.4375 C16.4166687,14.4375 16.7812484,14.5937484 17.09375,14.90625 C17.4062516,15.2187516 17.5625,15.5833313 17.5625,16 C17.5625,16.4166687 17.4062516,16.7812484 17.09375,17.09375 C16.7812484,17.4062516 16.4166687,17.5625 16,17.5625 C15.5833313,17.5625 15.2187516,17.4062516 14.90625,17.09375 C14.5937484,16.7812484 14.4375,16.4166687 14.4375,16 C14.4375,15.5833313 14.5833319,15.2291681 14.875,14.9375 Z M6.125,6.125 C8.87501375,3.37498625 12.1666475,2 16,2 C19.8333525,2 23.1249862,3.37498625 25.875,6.125 C28.6250138,8.87501375 30,12.1666475 30,16 C30,19.8333525 28.6250138,23.1249862 25.875,25.875 C23.1249862,28.6250138 19.8333525,30 16,30 C12.1666475,30 8.87501375,28.6250138 6.125,25.875 C3.37498625,23.1249862 2,19.8333525 2,16 C2,12.1666475 3.37498625,8.87501375 6.125,6.125 Z M19.0625,19.0625 L24.375,7.625 L12.9375,12.9375 L7.625,24.375 L19.0625,19.0625 Z" id="↳-🎨-Fill" fill="#181C21"></path>
    </g>
</svg>