<?xml version="1.0" encoding="UTF-8"?>
<svg width="32px" height="32px" viewBox="0 0 32 32" version="1.1" xmlns="http://www.w3.org/2000/svg" xmlns:xlink="http://www.w3.org/1999/xlink">
    <!-- Generator: Sketch 63.1 (92452) - https://sketch.com -->
    <title>Icons/ion-md-settings</title>
    <desc>Created with Sketch.</desc>
    <g id="Icons/ion-md-settings" stroke="none" stroke-width="1" fill="none" fill-rule="evenodd" fill-opacity="0.9">
        <path d="M25.875,17.3125 L28.8125,19.4375 C29.0625013,19.6875013 29.1041675,19.979165 28.9375,20.3125 L26.25,24.75 C26.0833325,25.083335 25.833335,25.1875006 25.5,25.0625 L22.125,23.75 C21.0833281,24.4583369 20.3333356,24.8958325 19.875,25.0625 L19.375,28.5 C19.2916663,28.833335 19.0625019,29 18.6875,29 L13.375,29 C12.9999981,29 12.7708338,28.833335 12.6875,28.5 L12.1875,25.0625 C11.5624969,24.8124987 10.8125044,24.3750031 9.9375,23.75 L6.5625,25.0625 C6.229165,25.2291675 5.9791675,25.1250019 5.8125,24.75 L3.125,20.3125 C2.91666563,19.9374981 2.95833187,19.6458344 3.25,19.4375 L6.0625,17.3125 C6.0625,17.1874994 6.05208344,16.9791681 6.03125,16.6875 C6.01041656,16.3958319 6,16.1666675 6,16 C6,15.8333325 6.01041656,15.6041681 6.03125,15.3125 C6.05208344,15.0208319 6.0625,14.8125006 6.0625,14.6875 L3.1875,12.5625 C2.93749875,12.3124987 2.8958325,12.020835 3.0625,11.6875 L5.75,7.25 C5.9166675,6.916665 6.166665,6.81249938 6.5,6.9375 L9.875,8.25 C10.9166719,7.54166312 11.6666644,7.1041675 12.125,6.9375 L12.625,3.5 C12.7083338,3.166665 12.9374981,3 13.3125,3 L18.625,3 C19.0000019,3 19.2291663,3.166665 19.3125,3.5 L19.75,6.9375 C20.3750031,7.18750125 21.1249956,7.62499688 22,8.25 L25.3125,6.9375 C25.645835,6.7708325 25.9166656,6.87499812 26.125,7.25 L28.8125,11.6875 C29.0208344,12.0625019 28.9791681,12.3541656 28.6875,12.5625 L25.875,14.6875 C25.875,14.8125006 25.8854166,15.0208319 25.90625,15.3125 C25.9270834,15.6041681 25.9375,15.8333325 25.9375,16 C25.9375,16.6250031 25.9166669,17.0624987 25.875,17.3125 Z M12.625,19.25 C13.5416713,20.1250044 14.6458269,20.5625 15.9375,20.5625 C17.2291731,20.5625 18.3333287,20.1250044 19.25,19.25 C20.1666713,18.3749956 20.625,17.2916731 20.625,16 C20.625,14.7083269 20.1666713,13.6250044 19.25,12.75 C18.3333287,11.8749956 17.2291731,11.4375 15.9375,11.4375 C14.6458269,11.4375 13.5520878,11.8749956 12.65625,12.75 C11.7604122,13.6250044 11.3125,14.7083269 11.3125,16 C11.3125,17.2916731 11.7499956,18.3749956 12.625,19.25 Z" id="↳-🎨-Fill" fill="#181C21"></path>
    </g>
</svg>