<?xml version="1.0" encoding="UTF-8"?>
<svg width="32px" height="32px" viewBox="0 0 32 32" version="1.1" xmlns="http://www.w3.org/2000/svg" xmlns:xlink="http://www.w3.org/1999/xlink">
    <!-- Generator: Sketch 63.1 (92452) - https://sketch.com -->
    <title>Icons/ion-md-translation</title>
    <desc>Created with Sketch.</desc>
    <g id="Icons/ion-md-translation" stroke="none" stroke-width="1" fill="none" fill-rule="evenodd" fill-opacity="0.9">
        <path d="M22.2495308,18.3584364 C22.1687835,18.1142009 21.8366287,18 21.4955262,18 C21.1633713,18 20.8312165,18.1142009 20.7504692,18.3584364 L19.0178953,23.4790698 C19.0089477,23.5117269 19,23.544186 19,23.5604156 C19,23.8210787 19.4218498,24 19.7361093,24 C19.9336127,24 20.0861595,23.9431964 20.1311161,23.7884216 L20.4720003,22.7055913 L22.5277814,22.7055913 L22.8691022,23.7884216 C22.9138405,23.9431964 23.0663873,24 23.2638907,24 C23.5781502,24 24,23.8129639 24,23.5604156 C24,23.5360713 23.9910523,23.5115289 23.9821046,23.4790698 L22.2495308,18.3584364 Z M15.5919647,3 C16.9959869,3 18.1621704,4.0384369 18.3627167,5.38771056 L18.3627167,5.38771056 L20.9299469,7.22138976 C21.1300965,7.36441038 21.2489166,7.59510802 21.2489166,7.8412781 C21.2489166,8.08724978 21.1300965,8.31794737 20.9299469,8.46096799 L20.9299469,8.46096799 L18.3932648,10.2728271 L18.3932648,13.6065369 L26.1987,13.6065369 C27.7433624,13.6065369 29,14.8631744 29,16.4080353 L29,16.4080353 L29,26.1985016 C29,27.7431641 27.7433624,29 26.1987,29 L26.1987,29 L16.4080353,29 C15.0040131,29 13.8378296,27.9615631 13.6372833,26.6122894 L13.6372833,26.6122894 L11.0700531,24.7786102 C10.8699035,24.635788 10.7510834,24.404892 10.7510834,24.1589203 C10.7510834,23.9129486 10.8699035,23.6820526 11.0700531,23.539032 L11.0700531,23.539032 L13.6067352,21.7271729 L13.6067352,18.3934631 L5.80149843,18.3934631 C4.25663759,18.3934631 3,17.1368256 3,15.5921631 L3,15.5921631 L3,5.80149843 C3,4.25663759 4.25663759,3 5.80149843,3 L5.80149843,3 Z M26.1987,15.1299744 L16.4080353,15.1299744 C15.7034454,15.1299744 15.1301727,15.7032471 15.1301727,16.4080353 L15.1301727,16.4080353 L15.1301727,22.1191406 C15.1301727,22.3651123 15.0113525,22.5960083 14.811203,22.7390289 L14.811203,22.7390289 L12.8233947,24.1589203 L14.811203,25.5788116 C15.0113525,25.7216339 15.1301727,25.9525299 15.1301727,26.1985016 C15.1301727,26.9032898 15.7034454,27.4765625 16.4080353,27.4765625 L16.4080353,27.4765625 L26.1987,27.4765625 C26.9032898,27.4765625 27.4765625,26.9032898 27.4765625,26.1985016 L27.4765625,26.1985016 L27.4765625,16.4080353 C27.4765625,15.7032471 26.9032898,15.1299744 26.1987,15.1299744 L26.1987,15.1299744 Z M21.4953079,19.3759525 L22.276592,21.8751113 L20.7144603,21.8751113 L21.4953079,19.3759525 Z M15.5919647,4.5234375 L5.80149843,4.5234375 C5.09671018,4.5234375 4.5234375,5.09671018 4.5234375,5.80130002 L4.5234375,5.80130002 L4.5234375,15.5919647 C4.5234375,16.2967529 5.09671018,16.8700256 5.80149843,16.8700256 L5.80149843,16.8700256 L13.6067352,16.8700256 L13.6067352,16.4078369 C13.6067352,14.8631744 14.8633728,13.6065369 16.4080353,13.6065369 L16.4080353,13.6065369 L16.8698273,13.6065369 L16.8698273,9.88085938 C16.8698273,9.6348877 16.9886475,9.4039917 17.188797,9.26097108 L17.188797,9.26097108 L19.1766052,7.8410797 L17.188797,6.42118837 C16.9886475,6.2783661 16.8698273,6.04747011 16.8698273,5.80130002 C16.8698273,5.09671018 16.2965546,4.5234375 15.5919647,4.5234375 L15.5919647,4.5234375 Z M10.9998926,8 C11.2568482,8 11.4652487,8.19197781 11.4652487,8.4286845 L11.4652487,8.4286845 L11.4652487,9.46932313 L13.5348588,9.46932313 C13.7915995,9.46932313 14,9.66130094 14,9.89800763 C14,10.1347143 13.7915995,10.3266922 13.5348588,10.3266922 L13.5348588,10.3266922 L12.8935439,10.3266922 C12.7910624,11.2317588 12.3673864,12.0497427 11.7301536,12.6832695 C12.2584595,12.9749967 12.8754968,13.1428289 13.5348588,13.1428289 C13.7915995,13.1428289 14,13.3346088 14,13.5713155 C14,13.8080221 13.7915995,14 13.5348588,14 C12.5934042,14 11.7200559,13.728856 10.9998926,13.2677134 C10.2799441,13.728856 9.40659578,14 8.46514125,14 C8.2084005,14 8,13.8080221 8,13.5713155 C8,13.3346088 8.2084005,13.1428289 8.46514125,13.1428289 C9.12450319,13.1428289 9.74154047,12.9746008 10.2698464,12.6832695 C9.63261361,12.0497427 9.2089376,11.2317588 9.10645614,10.3266922 L9.10645614,10.3266922 L8.46514125,10.3266922 C8.2084005,10.3266922 8,10.1347143 8,9.89800763 C8,9.66130094 8.2084005,9.46932313 8.46514125,9.46932313 L8.46514125,9.46932313 L10.5347513,9.46932313 L10.5347513,8.4286845 C10.5347513,8.19197781 10.7431518,8 10.9998926,8 Z M11.9559566,10.3266922 L10.0440434,10.3266922 C10.1452358,11.0290935 10.4909228,11.6610371 10.9998926,12.1477108 C11.5090772,11.6610371 11.8547642,11.0290935 11.9559566,10.3266922 L11.9559566,10.3266922 Z" id="↳-🎨-Fill" fill="#181C21"></path>
    </g>
</svg>