<?xml version="1.0" encoding="UTF-8"?>
<svg width="32px" height="32px" viewBox="0 0 32 32" version="1.1" xmlns="http://www.w3.org/2000/svg" xmlns:xlink="http://www.w3.org/1999/xlink">
    <!-- Generator: Sketch 63.1 (92452) - https://sketch.com -->
    <title>Icons/ion-md-sync</title>
    <desc>Created with Sketch.</desc>
    <g id="Icons/ion-md-sync" stroke="none" stroke-width="1" fill="none" fill-rule="evenodd" fill-opacity="0.9">
        <path d="M16,5.8125 C18.7500138,5.8125 21.1041569,6.81249 23.0625,8.8125 C25.0208431,10.81251 26,13.2083194 26,16 C26,18 25.4791719,19.8124919 24.4375,21.4375 L22.625,19.5625 C23.2083362,18.4791613 23.5,17.2916731 23.5,16 C23.5,13.9166563 22.7604241,12.1250075 21.28125,10.625 C19.8020759,9.1249925 18.0416769,8.375 16,8.375 L16,12.1875 L11,7.0625 L16,2 L16,5.8125 Z M16,23.625 L16,19.8125 L21,24.9375 L16,30 L16,26.1875 C13.2499862,26.1875 10.8958431,25.18751 8.9375,23.1875 C6.97915688,21.18749 6,18.7916806 6,16 C6,13.9166563 6.52082813,12.1041744 7.5625,10.5625 L9.375,12.4375 C8.79166375,13.5208387 8.5,14.7083269 8.5,16 C8.5,18.0833438 9.23957594,19.8749925 10.71875,21.375 C12.1979241,22.8750075 13.9583231,23.625 16,23.625 Z" id="↳-🎨-Fill" fill="#181C21"></path>
    </g>
</svg>