<?xml version="1.0" encoding="UTF-8"?>
<svg width="32px" height="32px" viewBox="0 0 32 32" version="1.1" xmlns="http://www.w3.org/2000/svg" xmlns:xlink="http://www.w3.org/1999/xlink">
    <!-- Generator: Sketch 63.1 (92452) - https://sketch.com -->
    <title>Icons/ion-md-git-network</title>
    <desc>Created with Sketch.</desc>
    <g id="Icons/ion-md-git-network" stroke="none" stroke-width="1" fill="none" fill-rule="evenodd" fill-opacity="0.9">
        <path d="M28,6 C28,7.5 27.33334,8.64582937 26,9.4375 L26,15.25 L18,19.25 L18,22.5625 C19.33334,23.3541706 20,24.5 20,26 C20,27.0833387 19.6041706,28.0208294 18.8125,28.8125 C18.0208294,29.6041706 17.0833387,30 16,30 C14.9166613,30 13.9791706,29.6041706 13.1875,28.8125 C12.3958294,28.0208294 12,27.0833387 12,26 C12,24.5 12.66666,23.3541706 14,22.5625 L14,19.25 L6,15.25 L6,9.4375 C4.66666,8.64582937 4,7.5 4,6 C4,4.91666125 4.39582937,3.97917063 5.1875,3.1875 C5.97917063,2.39582937 6.91666125,2 8,2 C9.08333875,2 10.0208294,2.39582937 10.8125,3.1875 C11.6041706,3.97917063 12,4.91666125 12,6 C12,7.5 11.33334,8.64582937 10,9.4375 L10,12.75 L16,15.75 L22,12.75 L22,9.4375 C20.66666,8.64582937 20,7.5 20,6 C20,4.91666125 20.3958294,3.97917063 21.1875,3.1875 C21.9791706,2.39582937 22.9166613,2 24,2 C25.0833387,2 26.0208294,2.39582937 26.8125,3.1875 C27.6041706,3.97917063 28,4.91666125 28,6 Z M9.75,4.25 C9.2499975,3.7499975 8.66667,3.5 8,3.5 C7.33333,3.5 6.7500025,3.7499975 6.25,4.25 C5.7499975,4.7500025 5.5,5.33333 5.5,6 C5.5,6.66667 5.7499975,7.2499975 6.25,7.75 C6.7500025,8.2500025 7.33333,8.5 8,8.5 C8.66667,8.5 9.2499975,8.2500025 9.75,7.75 C10.2500025,7.2499975 10.5,6.66667 10.5,6 C10.5,5.33333 10.2500025,4.7500025 9.75,4.25 Z M14.25,27.75 C14.7500025,28.2500025 15.33333,28.5 16,28.5 C16.66667,28.5 17.2499975,28.2500025 17.75,27.75 C18.2500025,27.2499975 18.5,26.66667 18.5,26 C18.5,25.33333 18.2500025,24.7500025 17.75,24.25 C17.2499975,23.7499975 16.66667,23.5 16,23.5 C15.33333,23.5 14.7500025,23.7499975 14.25,24.25 C13.7499975,24.7500025 13.5,25.33333 13.5,26 C13.5,26.66667 13.7499975,27.2499975 14.25,27.75 Z M22.25,7.75 C22.7500025,8.2500025 23.33333,8.5 24,8.5 C24.66667,8.5 25.2499975,8.2500025 25.75,7.75 C26.2500025,7.2499975 26.5,6.66667 26.5,6 C26.5,5.33333 26.2500025,4.7500025 25.75,4.25 C25.2499975,3.7499975 24.66667,3.5 24,3.5 C23.33333,3.5 22.7500025,3.7499975 22.25,4.25 C21.7499975,4.7500025 21.5,5.33333 21.5,6 C21.5,6.66667 21.7499975,7.2499975 22.25,7.75 Z" id="↳-🎨-Fill" fill="#181C21"></path>
    </g>
</svg>