<?xml version="1.0" encoding="UTF-8"?>
<svg width="32px" height="32px" viewBox="0 0 32 32" version="1.1" xmlns="http://www.w3.org/2000/svg" xmlns:xlink="http://www.w3.org/1999/xlink">
    <!-- Generator: Sketch 63.1 (92452) - https://sketch.com -->
    <title>Icons/ion-md-helper</title>
    <desc>Created with Sketch.</desc>
    <g id="Icons/ion-md-helper" stroke="none" stroke-width="1" fill="none" fill-rule="evenodd" fill-opacity="0.9">
        <path d="M16.2846962,17.8823529 C16.2846962,17.2013729 15.7211742,16.6470588 15.0288822,16.6470588 L11.2614404,16.6470588 L11.2614404,14.5882353 C11.2614404,14.2778033 11.1404375,13.9969267 10.9474869,13.7795841 C11.6389613,13.3392693 12.0986497,12.5750517 12.0986497,11.7058824 L12.0986497,10.4705882 C12.0986497,9.10802506 10.9722189,8 9.58702176,8 C8.20182464,8 7.07539385,9.10802506 7.07539385,10.4705882 L7.07539385,11.7058824 C7.07539385,12.5322266 7.49154574,13.2636719 8.12701538,13.7124311 C7.95286931,14.1296243 7.81203992,14.5602884 7.70922832,15 L5.40097524,15 C4.70868326,15 4.14516129,15.5543141 4.14516129,16.2352941 C4.14516129,16.9162741 4.70868326,17.4705882 5.40097524,17.4705882 L5.81957989,17.4705882 L5.81957989,21.1764706 C5.81957989,21.9839154 6.29889038,22.6769589 6.98832084,23.0141314 L5.45881955,27.5266544 C5.42059734,27.6412569 5.40097524,27.7596795 5.40097524,27.8795094 C5.40097524,28.4971565 5.91217163,29 6.56767219,29 C7.0473915,29 7.47846434,28.7010283 7.64014223,28.2562902 L8.26723162,26.5294118 L12.5172543,26.5294118 L12.5172543,29 L21.307952,29 L21.307952,20.7647059 L22.1451613,20.7647059 L22.1451613,18.2941176 L16.2076386,18.2941176 C16.2546498,18.164838 16.2846962,18.027315 16.2846962,17.8823529 Z M15.0288822,17.4705882 C15.2598506,17.4705882 15.4474869,17.6551586 15.4474869,17.8823529 C15.4474869,18.1095473 15.2598506,18.2941176 15.0288822,18.2941176 L10.0056264,18.2941176 C9.77465805,18.2941176 9.58702176,18.1095473 9.58702176,17.8823529 L9.58702176,14.5882353 C9.58702176,14.3610409 9.77465805,14.1764706 10.0056264,14.1764706 C10.2365948,14.1764706 10.4242311,14.3610409 10.4242311,14.5882353 L10.4242311,17.4705882 L15.0288822,17.4705882 Z M10.0056264,19.1176471 L12.5172543,19.1176471 L12.5172543,20.7647059 L8.3312078,20.7647059 L8.3312078,16.8414809 C8.3312078,15.9928194 8.48348341,15.1429515 8.77495327,14.3427447 C8.75860153,14.4223633 8.74981245,14.5041935 8.74981245,14.5882353 L8.74981245,17.8823529 C8.74981245,18.563333 9.31333442,19.1176471 10.0056264,19.1176471 Z M7.91260315,10.4705882 C7.91260315,9.56221275 8.66355698,8.82352941 9.58702176,8.82352941 C10.5104865,8.82352941 11.2614404,9.56221275 11.2614404,10.4705882 L11.2614404,11.7058824 C11.2614404,12.6142578 10.5104865,13.3529412 9.58702176,13.3529412 C8.66355698,13.3529412 7.91260315,12.6142578 7.91260315,11.7058824 L7.91260315,10.4705882 Z M5.40097524,16.6470588 C5.17000688,16.6470588 4.98237059,16.4624885 4.98237059,16.2352941 C4.98237059,16.0080997 5.17000688,15.8235294 5.40097524,15.8235294 L7.56104065,15.8235294 C7.51750414,16.1611041 7.4939985,16.5012925 7.4939985,16.8414809 L7.4939985,20.7647059 C7.4939985,21.2188936 7.86947541,21.5882353 8.3312078,21.5882353 L12.5172543,21.5882353 L12.5172543,22.4117647 L7.91260315,22.4117647 C7.22031117,22.4117647 6.6567892,21.8574506 6.6567892,21.1764706 L6.6567892,16.6470588 L5.40097524,16.6470588 Z M9.46315727,23.2352941 L12.5172543,23.2352941 L12.5172543,24.0588235 L9.16432917,24.0588235 L9.46315727,23.2352941 Z M6.85219254,27.9792337 C6.8090648,28.0974552 6.69480698,28.1764706 6.54007861,28.1764706 C6.37349526,28.1764706 6.23818455,28.0433708 6.23818455,27.8795094 C6.23818455,27.8483456 6.24370327,27.8153722 6.25330988,27.7856158 L7.79916291,23.2238339 C7.83758951,23.2262466 7.87376773,23.2352941 7.91260315,23.2352941 L8.57444002,23.2352941 L6.85219254,27.9792337 Z M8.56646853,25.7058824 L8.86529663,24.8823529 L12.5172543,24.8823529 L12.5172543,25.7058824 L8.56646853,25.7058824 Z M20.4707427,28.1764706 L13.3544636,28.1764706 L13.3544636,20.7647059 L20.4707427,20.7647059 L20.4707427,28.1764706 Z M23.1451613,3 L23.1451567,4.27792125 C23.5672879,3.51540923 24.3666558,3 25.2815249,3 C26.6352403,3 27.7360704,4.12846726 27.7360704,5.51616866 L27.7360704,5.51616866 L27.7360704,6.77425299 C27.7360704,7.56977017 27.3727225,8.27928554 26.8090241,8.74062407 C27.6018374,9.16551422 28.1451613,10.0150897 28.1451613,10.9938728 L28.1451613,10.9938728 L28.1451613,29 L23.2360704,29 L23.2360704,17.677241 L22.4178886,17.677241 L22.4178886,15.1610724 L20.372434,15.1610724 C19.6958759,15.1610724 19.1451613,14.5965315 19.1451613,13.902988 C19.1451613,13.2094445 19.6958759,12.6449037 20.372434,12.6449037 L20.372434,12.6449037 L22.5275521,12.6449037 C22.6829587,11.6192291 23.006556,10.6386032 23.5117273,9.73251217 C23.6725272,9.44399643 23.8860615,9.1964339 24.133953,8.99678676 C23.5197852,8.66247559 23.0594729,8.06858914 22.8938973,7.35863335 L20.4784946,7.35821953 L20.4784946,9 L17.6887811,7.35821953 L15.1451613,7.35821953 L15.1451613,3 L23.1451613,3 Z M24.872434,17.6776505 L24.0542522,17.6776505 L24.0542522,28.1616866 L24.872434,28.1616866 L24.872434,17.6776505 Z M27.3269795,17.6776505 L25.6906158,17.6776505 L25.6906158,28.1616866 L27.3269795,28.1616866 L27.3269795,17.6776505 Z M21.307952,19.1176471 L21.307952,19.9411765 L13.3544636,19.9411765 L13.3544636,19.1176471 L21.307952,19.1176471 Z M26.4904205,9.52446958 C26.4994093,9.58528517 26.5087977,9.64651032 26.5087977,9.7097831 L26.5087977,9.7097831 L26.5087977,13.9033975 C26.5087977,14.5969411 25.958083,15.1614819 25.2815249,15.1614819 L25.2815249,15.1614819 L23.2360704,15.1614819 L23.2360704,16.8389276 L27.3269795,16.8389276 L27.3269795,10.9938728 C27.3269795,10.3640115 26.9878016,9.81871879 26.4904205,9.52446958 Z M19.1451613,10 L19.1451613,13.8855582 L17.5608281,13.8855582 L15.7165899,15 L15.7165899,13.8855582 L13.1451613,13.8855582 L13.1451613,10 L19.1451613,10 Z M25.3993783,9.31478886 C25.2487657,9.33997508 25.1035464,9.38686661 24.9669164,9.45177752 C24.910986,9.52365052 24.872434,9.61088095 24.872434,9.7097831 L24.872434,9.7097831 L24.872434,13.4840361 L20.372434,13.4840361 C20.1467149,13.4840361 19.9633431,13.6720116 19.9633431,13.9033975 C19.9633431,14.1347835 20.1467149,14.322759 20.372434,14.322759 L20.372434,14.322759 L25.2815249,14.322759 C25.507244,14.322759 25.6906158,14.1347835 25.6906158,13.9033975 L25.6906158,13.9033975 L25.6906158,9.7097831 C25.6906158,9.52139807 25.5665702,9.36761855 25.3993783,9.31478886 Z M18.2880184,10.7771116 L14.0023041,10.7771116 L14.0023041,13.1084466 L16.5737327,13.1084466 L16.5737327,13.548228 L17.300923,13.1084466 L18.2880184,13.1084466 L18.2880184,10.7771116 Z M24.0542522,10.488919 C23.7162728,11.1707909 23.4823639,11.8925922 23.3555218,12.6453132 L23.3555218,12.6453132 L24.0542522,12.6453132 Z M15.1451613,11 L15.1451613,12 L14.1451613,12 L14.1451613,11 L15.1451613,11 Z M17.1451613,11 L17.1451613,12 L16.1451613,12 L16.1451613,11 L17.1451613,11 Z M25.2815249,3.83872289 C24.379048,3.83872289 23.6451613,4.59103436 23.6451613,5.51616866 L23.6451613,5.51616866 L23.6451613,6.77425299 C23.6451613,7.6993873 24.379048,8.45169877 25.2815249,8.45169877 C26.1840019,8.45169877 26.9178886,7.6993873 26.9178886,6.77425299 L26.9178886,6.77425299 L26.9178886,5.51616866 C26.9178886,4.59103436 26.1840019,3.83872289 25.2815249,3.83872289 Z M22.2562724,3.87164391 L16.0340502,3.87164391 L16.0340502,6.48657563 L17.9348748,6.48657563 L19.5896057,7.45972688 L19.5896057,6.48657563 L22.2562724,6.48657563 L22.2562724,3.87164391 Z M21.1451613,5 L21.1451613,6 L20.1451613,6 L20.1451613,5 L21.1451613,5 Z M19.1451613,5 L19.1451613,6 L18.1451613,6 L18.1451613,5 L19.1451613,5 Z M17.1451613,5 L17.1451613,6 L16.1451613,6 L16.1451613,5 L17.1451613,5 Z" id="↳-🎨-Fill" fill="#181C21"></path>
    </g>
</svg>