<?xml version="1.0" encoding="UTF-8"?>
<svg width="32px" height="32px" viewBox="0 0 32 32" version="1.1" xmlns="http://www.w3.org/2000/svg" xmlns:xlink="http://www.w3.org/1999/xlink">
    <!-- Generator: Sketch 63.1 (92452) - https://sketch.com -->
    <title>Icons/ion-md-cut</title>
    <desc>Created with Sketch.</desc>
    <g id="Icons/ion-md-cut" stroke="none" stroke-width="1" fill="none" fill-rule="evenodd" fill-opacity="0.9">
        <path d="M12.6875,9.875 L30,27.1875 L30,28.625 L25.8125,28.625 L16,18.8125 L12.6875,22.125 C13.020835,22.8750038 13.1875,23.6249963 13.1875,24.375 C13.1875,25.9583413 12.6458388,27.2916613 11.5625,28.375 C10.4791613,29.4583388 9.16667437,30 7.625,30 C6.04165875,30 4.70833875,29.4583388 3.625,28.375 C2.54166125,27.2916613 2,25.9583413 2,24.375 C2,22.8333256 2.54166125,21.5208387 3.625,20.4375 C4.70833875,19.3541613 6.04165875,18.8125 7.625,18.8125 C8.37500375,18.8125 9.12499625,18.979165 9.875,19.3125 L13.1875,16 L9.875,12.6875 C9.12499625,13.020835 8.37500375,13.1875 7.625,13.1875 C6.04165875,13.1875 4.70833875,12.6458387 3.625,11.5625 C2.54166125,10.4791613 2,9.16667437 2,7.625 C2,6.04165875 2.54166125,4.70833875 3.625,3.625 C4.70833875,2.54166125 6.04165875,2 7.625,2 C9.16667437,2 10.4791613,2.54166125 11.5625,3.625 C12.6458388,4.70833875 13.1875,6.04165875 13.1875,7.625 C13.1875,8.37500375 13.020835,9.12499625 12.6875,9.875 Z M5.625,9.625 C6.16666938,10.1250025 6.83332937,10.375 7.625,10.375 C8.41667063,10.375 9.07291406,10.1145859 9.59375,9.59375 C10.1145859,9.07291406 10.375,8.41667063 10.375,7.625 C10.375,6.83332937 10.1145859,6.16666937 9.59375,5.625 C9.07291406,5.08333063 8.41667063,4.8125 7.625,4.8125 C6.83332937,4.8125 6.16666938,5.08333063 5.625,5.625 C5.08333063,6.16666937 4.8125,6.83332937 4.8125,7.625 C4.8125,8.41667063 5.08333063,9.08333063 5.625,9.625 Z M5.625,26.375 C6.16666938,26.9166694 6.83332937,27.1875 7.625,27.1875 C8.41667063,27.1875 9.07291406,26.9166694 9.59375,26.375 C10.1145859,25.8333306 10.375,25.1666706 10.375,24.375 C10.375,23.5833294 10.1145859,22.9270859 9.59375,22.40625 C9.07291406,21.8854141 8.41667063,21.625 7.625,21.625 C6.83332937,21.625 6.16666938,21.8854141 5.625,22.40625 C5.08333063,22.9270859 4.8125,23.5833294 4.8125,24.375 C4.8125,25.1666706 5.08333063,25.8333306 5.625,26.375 Z M15.3125,16 C15.3125,16.4583356 15.5416644,16.6875 16,16.6875 C16.4583356,16.6875 16.6875,16.4583356 16.6875,16 C16.6875,15.5416644 16.4583356,15.3125 16,15.3125 C15.5416644,15.3125 15.3125,15.5416644 15.3125,16 Z M25.8125,3.375 L30,3.375 L30,4.8125 L20.1875,14.625 L17.375,11.8125 L25.8125,3.375 Z" id="↳-🎨-Fill" fill="#181C21"></path>
    </g>
</svg>