<?xml version="1.0" encoding="UTF-8"?>
<svg width="32px" height="32px" viewBox="0 0 32 32" version="1.1" xmlns="http://www.w3.org/2000/svg" xmlns:xlink="http://www.w3.org/1999/xlink">
    <!-- Generator: Sketch 63.1 (92452) - https://sketch.com -->
    <title>Icons/ion-ios-happy</title>
    <desc>Created with Sketch.</desc>
    <g id="Icons/ion-ios-happy" stroke="none" stroke-width="1" fill="none" fill-rule="evenodd" fill-opacity="0.9">
        <path d="M6.8125,6.8125 C9.35417938,4.27082062 12.4166488,3 16,3 C19.5833512,3 22.6458206,4.27082062 25.1875,6.8125 C27.7291794,9.35417938 29,12.4166488 29,16 C29,19.5833512 27.7291794,22.6458206 25.1875,25.1875 C22.6458206,27.7291794 19.5833512,29 16,29 C12.4166488,29 9.35417938,27.7291794 6.8125,25.1875 C4.27082063,22.6458206 3,19.5833512 3,16 C3,12.4166488 4.27082063,9.35417938 6.8125,6.8125 Z M21.5625,12.9375 C21.2708319,12.6458319 20.9166687,12.5 20.5,12.5 C20.0833313,12.5 19.7291681,12.6458319 19.4375,12.9375 C19.1458319,13.2291681 19,13.5833313 19,14 C19,14.4166687 19.1458319,14.7708319 19.4375,15.0625 C19.7291681,15.3541681 20.0833313,15.5 20.5,15.5 C20.9166687,15.5 21.2708319,15.3541681 21.5625,15.0625 C21.8541681,14.7708319 22,14.4166687 22,14 C22,13.5833313 21.8541681,13.2291681 21.5625,12.9375 Z M12.5625,12.9375 C12.2708319,12.6458319 11.9166687,12.5 11.5,12.5 C11.0833313,12.5 10.7291681,12.6458319 10.4375,12.9375 C10.1458319,13.2291681 10,13.5833313 10,14 C10,14.4166687 10.1458319,14.7708319 10.4375,15.0625 C10.7291681,15.3541681 11.0833313,15.5 11.5,15.5 C11.9166687,15.5 12.2708319,15.3541681 12.5625,15.0625 C12.8541681,14.7708319 13,14.4166687 13,14 C13,13.5833313 12.8541681,13.2291681 12.5625,12.9375 Z M12.3125,21.8125 C13.3958387,22.6458375 14.6249931,23.0625 16,23.0625 C17.3750069,23.0625 18.6041612,22.6458375 19.6875,21.8125 C20.7708387,20.9791625 21.4999981,19.9166731 21.875,18.625 C21.9166669,18.4583325 21.8854172,18.3125006 21.78125,18.1875 C21.6770828,18.0624994 21.5416675,18 21.375,18 L10.625,18 C10.4583325,18 10.3229172,18.0624994 10.21875,18.1875 C10.1145828,18.3125006 10.0833331,18.4583325 10.125,18.625 C10.5000019,19.9166731 11.2291612,20.9791625 12.3125,21.8125 Z" id="↳-🎨-Fill" fill="#181C21"></path>
    </g>
</svg>