<?xml version="1.0" encoding="UTF-8"?>
<svg width="32px" height="32px" viewBox="0 0 32 32" version="1.1" xmlns="http://www.w3.org/2000/svg" xmlns:xlink="http://www.w3.org/1999/xlink">
    <!-- Generator: Sketch 63.1 (92452) - https://sketch.com -->
    <title>Icons/ion-md-at</title>
    <desc>Created with Sketch.</desc>
    <g id="Icons/ion-md-at" stroke="none" stroke-width="1" fill="none" fill-rule="evenodd" fill-opacity="0.9">
        <path d="M16,3 C23.18125,3 29,8.81875 29,16 C29,23.18125 23.18125,29 16,29 C8.81875,29 3,23.18125 3,16 C3,8.81875 8.81875,3 16,3 Z M16.49375,7.5 C13.98125,7.5 11.96875,8.2625 10.45,9.79375 C8.9375,11.325 8.11875,13.39375 8.00625,16.00625 C7.9,18.64375 8.5375,20.71875 9.9125,22.23125 C11.2875,23.75 13.25625,24.50625 15.80625,24.50625 C16.43125,24.50625 17.06875,24.4375 17.725,24.29375 C18.38125,24.15 18.91875,23.95 19.34375,23.69375 L19.34375,23.69375 L18.98125,22.18125 C18.56875,22.35 18.06875,22.49375 17.5,22.60625 C16.925,22.71875 16.375,22.775 15.84375,22.775 C13.93125,22.775 12.46875,22.16875 11.45,20.95625 C10.43125,19.75 9.975,18.1 10.08125,16.0125 C10.18125,13.86875 10.7875,12.18125 11.9125,10.9375 C13.0375,9.69375 14.55625,9.075 16.4625,9.075 C18.425,9.075 19.875,9.65625 20.81875,10.80625 C21.7625,11.95625 22.18125,13.5625 22.08125,15.625 C22.03125,16.625 21.79375,17.44375 21.36875,18.1 C20.94375,18.75625 20.375,19.075 19.66875,19.075 C19.49375,19.075 19.35625,18.96875 19.25,18.76875 C19.15,18.56875 19.1125,18.1875 19.14375,17.65625 L19.14375,17.65625 L19.625,12.44375 L19.594,12.443 L19.3317998,12.2949074 C18.9708044,12.1016204 18.6297164,11.9601852 18.3103877,11.8446759 L18.075,11.7625 C17.6125,11.60625 16.99375,11.525 16.23125,11.525 C15.14375,11.525 14.21875,11.98125 13.45625,12.9 C12.69375,13.81875 12.23125,15.04375 12.06875,16.56875 C11.9375,17.7625 12.11875,18.71875 12.61875,19.4375 C13.11875,20.15625 13.8375,20.51875 14.78125,20.51875 C15.3125,20.51875 15.775,20.3875 16.16875,20.13125 C16.5625,19.875 16.89375,19.4875 17.15,18.96875 C17.3,19.475 17.5625,19.86875 17.9375,20.14375 C18.30625,20.41875 18.75,20.55625 19.2625,20.55625 C20.8,20.55625 21.9625,20.06875 22.7375,19.09375 C23.5125,18.1125 23.93125,16.95625 23.9875,15.61875 C24.0875,13.1 23.4875,11.11875 22.1625,9.66875 C20.85625,8.225 18.9625,7.5 16.49375,7.5 Z M16.0294271,13.8333333 C16.1606771,13.8333333 16.2919271,13.8389958 16.4356771,13.8616459 C16.5669271,13.8786334 16.7044271,13.9012835 16.8419271,13.9295961 L16.8419271,13.9295961 L16.4606771,17.6668554 C16.2606771,18.114194 16.0231771,18.4199698 15.7544271,18.5841827 C15.4856771,18.7483956 15.1856771,18.8333333 14.8419271,18.8333333 C14.4669271,18.8333333 14.1919271,18.6634579 14.0231771,18.3237071 C13.8544271,17.9839562 13.7981771,17.485655 13.8544271,16.8231408 C13.9606771,15.8265383 14.1856771,15.0790864 14.5294271,14.5807852 C14.8731771,14.082484 15.3731771,13.8333333 16.0294271,13.8333333 Z" id="↳-🎨-Fill" fill="#181C21"></path>
    </g>
</svg>