<?xml version="1.0" encoding="UTF-8"?>
<svg width="32px" height="32px" viewBox="0 0 32 32" version="1.1" xmlns="http://www.w3.org/2000/svg" xmlns:xlink="http://www.w3.org/1999/xlink">
    <!-- Generator: Sketch 63.1 (92452) - https://sketch.com -->
    <title>Icons/ion-ios-undo</title>
    <desc>Created with Sketch.</desc>
    <g id="Icons/ion-ios-undo" stroke="none" stroke-width="1" fill="none" fill-rule="evenodd" fill-opacity="0.9">
        <path d="M29.9999994,24.6875 L29.9999994,27 L29.8125,27 C29.6874994,27 29.6041669,26.9375006 29.5625,26.8125 C29.3541656,26.14583 28.91667,25.312505 28.25,24.3125 C26.6249919,21.8958213 24.645845,20.1666719 22.3125,19.125 C20.2708231,18.2499956 18.25001,17.7708338 16.25,17.6875 C16.0833325,17.6875 15.9999994,17.7708325 15.9999994,17.9375 L15.9999994,23 C15.9999994,23.0833338 15.9583338,23.1562497 15.875,23.21875 C15.7916662,23.2812503 15.7083338,23.2916669 15.625,23.25 L2.125,14.375 C1.9583325,14.2083325 1.9583325,14.0625006 2.125,13.9375 L15.625,5.0625 C15.8750013,4.8958325 15.9999994,4.95833187 15.9999994,5.25 L15.9999994,10.4375 C15.9999994,10.6041675 16.0833325,10.6875 16.25,10.6875 C20.6250219,10.9375013 24.0208213,12.2916544 26.4375,14.75 C28.8125119,17.1666788 29.9999994,20.4791456 29.9999994,24.6875 Z" id="↳-🎨-Fill" fill="#181C21"></path>
    </g>
</svg>