<?xml version="1.0" encoding="UTF-8"?>
<svg width="32px" height="32px" viewBox="0 0 32 32" version="1.1" xmlns="http://www.w3.org/2000/svg" xmlns:xlink="http://www.w3.org/1999/xlink">
    <!-- Generator: Sketch 63.1 (92452) - https://sketch.com -->
    <title>Icons/ion-logo-sass</title>
    <desc>Created with Sketch.</desc>
    <g id="Icons/ion-logo-sass" stroke="none" stroke-width="1" fill="none" fill-rule="evenodd" fill-opacity="0.9">
        <path d="M32,20.5625 L32,21.0625 C31.9166662,21.6458363 31.6041694,22.104165 31.0625,22.4375 C30.6458312,22.6875013 30.3750006,22.7500006 30.25,22.625 C30.2083331,22.5833331 30.2916656,22.4791675 30.5,22.3125 C31.3750044,21.7708306 31.5833356,21.0833375 31.125,20.25 C30.8749987,19.7083306 30.3333375,19.2916681 29.5,19 C28.0833262,18.5416644 26.5833412,18.5416644 25,19 C25.2916681,19.9166713 25.2500019,20.6249975 24.875,21.125 C24.2499969,21.8333369 23.437505,22.2916656 22.4375,22.5 C21.8958306,22.6666675 21.5833337,22.4791694 21.5,21.9375 C21.3749994,21.1458294 21.9999931,20.1666725 23.375,19 C22.9999981,18.4583306 22.7083344,17.687505 22.5,16.6875 C21.16666,18.1875075 20.6249987,19.4583281 20.875,20.5 C21.0833344,21.4583381 20.7916706,22.2083306 20,22.75 C19.0833287,23.3750031 18.125005,23.6041675 17.125,23.4375 C16.8333319,23.3541662 16.7291662,23.1875013 16.8125,22.9375 C16.8541669,22.6874988 16.9999987,22.4062516 17.25,22.09375 C17.5000012,21.7812484 17.8333313,21.4166687 18.25,21 L19,20.25 C19.1250006,20.1249994 19.1458338,19.9791675 19.0625,19.8125 C18.729165,19.1874969 18.4375012,18.4375044 18.1875,17.5625 C18.1458331,17.6875006 17.9375019,18.1874956 17.5625,19.0625 C17.1874981,19.9375044 16.8958344,20.5729147 16.6875,20.96875 C16.4791656,21.3645853 16.1770853,21.8541637 15.78125,22.4375 C15.3854147,23.0208363 15.0000019,23.4374988 14.625,23.6875 C14.0416637,24.1041687 13.6041681,24.0000031 13.3125,23.375 C13.1874994,22.9999981 13.1666662,22.3958375 13.25,21.5625 C12.6666638,22.8541731 12.2500013,23.6458319 12,23.9375 C11.7916656,24.1875013 11.4791687,24.3020834 11.0625,24.28125 C10.6458313,24.2604166 10.3333344,24.1250013 10.125,23.875 C9.24999562,22.7499944 9.14583,21.2291763 9.8125,19.3125 L8,20.25 C8.41666875,21.2083381 8.50000125,22.2291613 8.25,23.3125 C7.916665,24.5208394 7.18750563,25.4791631 6.0625,26.1875 C5.60416437,26.4791681 5.07291969,26.7083325 4.46875,26.875 C3.86458031,27.0416675 3.23958656,27.0625006 2.59375,26.9375 C1.94791344,26.8124994 1.50000125,26.4791694 1.25,25.9375 C0.83333125,25.0208287 0.95833,24.1041713 1.625,23.1875 C2.20833625,22.3541625 3.7499875,21.3125062 6.25,20.0625 C5.95833187,19.8541656 5.27083875,19.4270866 4.1875,18.78125 C3.10416125,18.1354134 2.25000313,17.5312528 1.625,16.96875 C0.999996875,16.4062472 0.541668125,15.7708369 0.25,15.0625 C-0.458336875,13.395825 0.4374875,11.5416769 2.9375,9.5 C4.27084,8.41666125 5.770825,7.48958719 7.4375,6.71875 C9.104175,5.94791281 10.9166569,5.41666813 12.875,5.125 C14.8333431,4.83333187 16.6041587,5.06249625 18.1875,5.8125 C19.7291744,6.52083688 20.3750013,7.60415937 20.125,9.0625 C19.9166656,10.3541731 19.3333381,11.4791619 18.375,12.4375 C17.6666631,13.1458369 16.5520909,13.8124969 15.03125,14.4375 C13.5104091,15.0625031 11.9687578,15.3437503 10.40625,15.28125 C8.84374219,15.2187497 7.83333563,14.5833394 7.375,13.375 C7.33333312,13.3333331 7.32291656,13.2812503 7.34375,13.21875 C7.36458344,13.1562497 7.39583312,13.125 7.4375,13.125 L7.625,13.25 C7.75000063,13.3333338 7.88541594,13.4166663 8.03125,13.5 C8.17708406,13.5833338 8.35416563,13.6666663 8.5625,13.75 C8.77083437,13.8333338 9.02083188,13.9166662 9.3125,14 C9.60416812,14.0833338 9.87499875,14.125 10.125,14.125 C11.0416712,14.1666669 12.1249937,14.0000019 13.375,13.625 C16.2083475,12.6666619 17.8749975,11.2708425 18.375,9.4375 C18.6666681,8.437495 18.3541712,7.72916875 17.4375,7.3125 C15.1458219,6.18749438 11.833355,6.72915563 7.5,8.9375 C3.9999825,10.7291756 2.29166625,12.5416575 2.375,14.375 C2.375,15.0833369 2.65624719,15.7291638 3.21875,16.3125 C3.78125281,16.8958363 4.562495,17.52083 5.5625,18.1875 C6.562505,18.85417 7.18749875,19.2916656 7.4375,19.5 C7.56250063,19.4583331 7.90624719,19.3229178 8.46875,19.09375 C9.03125281,18.8645822 9.49999813,18.6458344 9.875,18.4375 C10.2500019,18.2291656 10.5208325,18.0208344 10.6875,17.8125 C11.5625044,16.7708281 12.4791619,16.2291669 13.4375,16.1875 C13.9791694,16.1875 14.3124994,16.3958313 14.4375,16.8125 C14.5208337,17.0208344 14.5208337,17.4166637 14.4375,18 C14.8125019,17.7083319 15.1249987,17.729165 15.375,18.0625 C15.6250012,18.3541681 15.5208356,19.0312447 15.0625,20.09375 C14.6041644,21.1562553 14.4999987,21.854165 14.75,22.1875 C15.083335,21.854165 15.4687478,21.1666719 15.90625,20.125 C16.3437522,19.0833281 16.5833331,18.5416669 16.625,18.5 C16.6666669,18.4166662 16.7916656,18.0833363 17,17.5 C17.2083344,16.9166637 17.4270822,16.3958356 17.65625,15.9375 C17.8854178,15.4791644 18.0833325,15.2291669 18.25,15.1875 C18.9583369,14.9791656 19.479165,14.9791656 19.8125,15.1875 C19.9791675,15.2708338 20.0208337,15.3749994 19.9375,15.5 C19.5208313,16.6250056 19.5833306,17.7083281 20.125,18.75 C21.3333394,17.0416581 22.0416656,15.6458388 22.25,14.5625 C22.2916669,14.4791663 22.3958325,14.3958338 22.5625,14.3125 C23.1875031,14.1458325 23.7083312,14.1458325 24.125,14.3125 C24.2500006,14.3541669 24.2916669,14.4583325 24.25,14.625 C23.8333312,15.9166731 23.95833,17.1249944 24.625,18.25 C27.1250125,17.3749956 29.1458256,17.4791613 30.6875,18.5625 C31.4375038,19.0625025 31.8749994,19.7291625 32,20.5625 Z M7.0625,22.125 C7.10416688,21.875 7.0416675,21.4583363 6.875,20.875 C5.95832875,21.1666681 5.05208781,21.6979128 4.15625,22.46875 C3.26041219,23.2395872 2.83333312,23.9999963 2.875,24.75 C2.91666687,25.3333363 3.27083,25.5833338 3.9375,25.5 C4.39583563,25.4583331 4.95833,25.1875025 5.625,24.6875 C6.54167125,23.9791631 7.02083313,23.125005 7.0625,22.125 Z M13.5,17.625 C13.5416669,17.5416662 13.5208335,17.4687503 13.4375,17.40625 C13.3541663,17.3437497 13.2708337,17.3333331 13.1875,17.375 C12.3124956,17.6250013 11.6666687,18.3333275 11.25,19.5 C10.8333312,20.6666725 10.791665,21.6458294 11.125,22.4375 C11.2083337,22.6458344 11.3333325,22.6666675 11.5,22.5 C12.3750044,21.6666625 13.0416644,20.0416788 13.5,17.625 Z M17.875,22.75 C18.1250012,22.8333337 18.4687478,22.6562522 18.90625,22.21875 C19.3437522,21.7812478 19.5416669,21.395835 19.5,21.0625 L18.6875,21.875 C18.3124981,22.2500019 18.0416675,22.5416656 17.875,22.75 Z M22.9375,21.625 C23.7291706,21.2083313 23.9791681,20.5833375 23.6875,19.75 C22.8124956,20.41667 22.3958331,21.0624969 22.4375,21.6875 C22.4791669,21.7291668 22.5520828,21.7395834 22.65625,21.71875 C22.7604172,21.6979166 22.8541662,21.6666669 22.9375,21.625 Z" id="↳-🎨-Fill" fill="#181C21"></path>
    </g>
</svg>