<?xml version="1.0" encoding="UTF-8"?>
<svg width="32px" height="32px" viewBox="0 0 32 32" version="1.1" xmlns="http://www.w3.org/2000/svg" xmlns:xlink="http://www.w3.org/1999/xlink">
    <!-- Generator: Sketch 63.1 (92452) - https://sketch.com -->
    <title>Icons/ion-md-academy</title>
    <desc>Created with Sketch.</desc>
    <g id="Icons/ion-md-academy" stroke="none" stroke-width="1" fill="none" fill-rule="evenodd" fill-opacity="0.9">
        <path d="M28.5805684,26.483871 L28.1612161,26.483871 L28.1612161,14.3225806 C28.1612161,14.2068387 28.1142486,14.102 28.0383459,14.0260968 L25.5222322,11.5099677 C25.4438133,11.431129 25.3368785,11.3870968 25.2257501,11.3870968 L25.2257501,9.70967742 L28.5805684,9.70967742 C28.7499867,9.70967742 28.9030503,9.60735484 28.9680499,9.45093548 C29.0330495,9.29409677 28.9969852,9.11377419 28.8770504,8.99383871 L27.9154756,8.03225806 L28.8770504,7.07067742 C28.9969852,6.95074194 29.0330495,6.77041935 28.9680499,6.61358065 C28.9030503,6.45716129 28.7499867,6.35483871 28.5805684,6.35483871 L24.8063978,6.35483871 C24.5749154,6.35483871 24.3870456,6.54270968 24.3870456,6.77419355 L24.3870456,11.3870968 L21.4515796,11.3870968 L21.4515796,8.87096774 L21.8709319,8.87096774 C22.1024144,8.87096774 22.2902842,8.68309677 22.2902842,8.4516129 L22.2902842,6.77419355 C22.2902842,6.54270968 22.1024144,6.35483871 21.8709319,6.35483871 L21.2058392,6.35483871 L17.9738912,3.12287097 C17.8954723,3.04403226 17.7885375,3 17.6774091,3 L14.3225909,3 C14.2114625,3 14.1045277,3.04403226 14.0261088,3.12287097 L10.7941608,6.35483871 L10.1290681,6.35483871 C9.89758564,6.35483871 9.70971582,6.54270968 9.70971582,6.77419355 L9.70971582,8.4516129 C9.70971582,8.68309677 9.89758564,8.87096774 10.1290681,8.87096774 L10.5484204,8.87096774 L10.5484204,11.3870968 L7.61295443,11.3870968 L7.61295443,6.77419355 C7.61295443,6.54270968 7.42508461,6.35483871 7.19360215,6.35483871 L3.41943164,6.35483871 C3.25001332,6.35483871 3.09694974,6.45716129 3.03195014,6.61358065 C2.96695054,6.77041935 3.00301483,6.95074194 3.12294958,7.07067742 L4.08452436,8.03225806 L3.12294958,8.99383871 C3.00301483,9.11377419 2.96695054,9.29409677 3.03195014,9.45093548 C3.09694974,9.60735484 3.25001332,9.70967742 3.41943164,9.70967742 L6.77424987,9.70967742 L6.77424987,11.3870968 C6.66312152,11.3870968 6.55618669,11.431129 6.47776781,11.5099677 L3.96165414,14.0260968 C3.88575138,14.102 3.83878392,14.2068387 3.83878392,14.3225806 L3.83878392,26.483871 L3.41943164,26.483871 C3.18794919,26.483871 3,26.6717419 3,26.9032258 L3,28.5806452 C3,28.812129 3.18794919,29 3.41943164,29 L28.5805684,29 C28.8120508,29 29,28.812129 29,28.5806452 L29,26.9032258 C29,26.6717419 28.8120508,26.483871 28.5805684,26.483871 Z M25.2257501,7.19354839 L27.568252,7.19354839 L27.0260295,7.73577419 C26.8620627,7.89974194 26.8620627,8.16477419 27.0260295,8.32874194 L27.568252,8.87096774 L25.2257501,8.87096774 L25.2257501,7.19354839 Z M4.43174804,8.87096774 L4.97397054,8.32874194 C5.13793728,8.16477419 5.13793728,7.89974194 4.97397054,7.73577419 L4.43174804,7.19354839 L6.77424987,7.19354839 L6.77424987,8.87096774 L4.43174804,8.87096774 Z M21.4515796,26.483871 L21.4515796,24.8064516 L27.3225115,24.8064516 L27.3225115,26.483871 L21.4515796,26.483871 Z M17.2580568,26.483871 L14.7419432,26.483871 L14.7419432,23.5483871 C14.7419432,22.8547742 15.3063913,22.2903226 16,22.2903226 C16.6936087,22.2903226 17.2580568,22.8547742 17.2580568,23.5483871 L17.2580568,26.483871 Z M16,21.4516129 C14.8438458,21.4516129 13.9032386,22.3922258 13.9032386,23.5483871 L13.9032386,26.483871 L13.0645341,26.483871 L13.0645341,18.9354839 L18.9354659,18.9354839 L18.9354659,26.483871 L18.0967614,26.483871 L18.0967614,23.5483871 C18.0967614,22.3922258 17.1561542,21.4516129 16,21.4516129 Z M4.67748848,14.7419355 L10.5484204,14.7419355 L10.5484204,16.4193548 L10.1290681,16.4193548 C9.89758564,16.4193548 9.70971582,16.6072258 9.70971582,16.8387097 L9.70971582,18.516129 C9.70971582,18.7476129 9.89758564,18.9354839 10.1290681,18.9354839 L10.5484204,18.9354839 L10.5484204,23.9677419 L4.67748848,23.9677419 L4.67748848,14.7419355 Z M21.4515796,14.7419355 L27.3225115,14.7419355 L27.3225115,23.9677419 L21.4515796,23.9677419 L21.4515796,18.9354839 L21.8709319,18.9354839 C22.1024144,18.9354839 22.2902842,18.7476129 22.2902842,18.516129 L22.2902842,16.8387097 C22.2902842,16.6072258 22.1024144,16.4193548 21.8709319,16.4193548 L21.4515796,16.4193548 L21.4515796,14.7419355 Z M21.4515796,17.2580645 L21.4515796,18.0967742 L10.5484204,18.0967742 L10.5484204,17.2580645 L21.4515796,17.2580645 Z M11.3871249,18.9354839 L12.2258295,18.9354839 L12.2258295,26.483871 L11.3871249,26.483871 L11.3871249,18.9354839 Z M19.7741705,18.9354839 L20.6128751,18.9354839 L20.6128751,26.483871 L19.7741705,26.483871 L19.7741705,18.9354839 Z M25.0521383,12.2258065 L26.7295474,13.9032258 L21.4515796,13.9032258 L21.4515796,12.2258065 L25.0521383,12.2258065 Z M14.4962027,3.83870968 L17.5037973,3.83870968 L20.0199109,6.35483871 L11.9800891,6.35483871 L14.4962027,3.83870968 Z M10.5484204,7.19354839 L21.4515796,7.19354839 L21.4515796,8.03225806 L10.5484204,8.03225806 L10.5484204,7.19354839 Z M20.6128751,8.87096774 L20.6128751,16.4193548 L11.3871249,16.4193548 L11.3871249,8.87096774 L20.6128751,8.87096774 Z M6.94786172,12.2258065 L10.5484204,12.2258065 L10.5484204,13.9032258 L5.2704526,13.9032258 L6.94786172,12.2258065 Z M4.67748848,24.8064516 L10.5484204,24.8064516 L10.5484204,26.483871 L4.67748848,26.483871 L4.67748848,24.8064516 Z M28.1612161,27.3225806 L28.1612161,28.1612903 L3.83878392,28.1612903 L3.83878392,27.3225806 L28.1612161,27.3225806 Z M8.625,20 C8.832,20 9,20.168 9,20.375 L9,20.375 L9,22.625 C9,22.832 8.832,23 8.625,23 L8.625,23 L6.375,23 C6.168,23 6,22.832 6,22.625 L6,22.625 L6,20.375 C6,20.168 6.168,20 6.375,20 L6.375,20 Z M25.625,20 C25.832,20 26,20.168 26,20.375 L26,20.375 L26,22.625 C26,22.832 25.832,23 25.625,23 L25.625,23 L23.375,23 C23.168,23 23,22.832 23,22.625 L23,22.625 L23,20.375 C23,20.168 23.168,20 23.375,20 L23.375,20 Z M8.25,20.75 L6.75,20.75 L6.75,22.25 L8.25,22.25 L8.25,20.75 Z M25.25,20.75 L23.75,20.75 L23.75,22.25 L25.25,22.25 L25.25,20.75 Z M8.625,16 C8.832,16 9,16.168 9,16.375 L9,16.375 L9,18.625 C9,18.832 8.832,19 8.625,19 L8.625,19 L6.375,19 C6.168,19 6,18.832 6,18.625 L6,18.625 L6,16.375 C6,16.168 6.168,16 6.375,16 L6.375,16 Z M25.625,16 C25.832,16 26,16.168 26,16.375 L26,16.375 L26,18.625 C26,18.832 25.832,19 25.625,19 L25.625,19 L23.375,19 C23.168,19 23,18.832 23,18.625 L23,18.625 L23,16.375 C23,16.168 23.168,16 23.375,16 L23.375,16 Z M8.25,16.75 L6.75,16.75 L6.75,18.25 L8.25,18.25 L8.25,16.75 Z M25.25,16.75 L23.75,16.75 L23.75,18.25 L25.25,18.25 L25.25,16.75 Z M16,10 C17.6542857,10 19,11.3457143 19,13 C19,14.6542857 17.6542857,16 16,16 C14.3457143,16 13,14.6542857 13,13 C13,11.3457143 14.3457143,10 16,10 Z M16,10.8571429 C14.8184286,10.8571429 13.8571429,11.8184286 13.8571429,13 C13.8571429,14.1815714 14.8184286,15.1428571 16,15.1428571 C17.1815714,15.1428571 18.1428571,14.1815714 18.1428571,13 C18.1428571,11.8184286 17.1815714,10.8571429 16,10.8571429 Z M16.0790397,12 L16.0790397,12.9062555 L17,13.5044682 L16.237119,14 L15.1580793,13.2991064 C15.0566496,13.2335728 15,13.1442089 15,13.0513405 L15,13.0513405 L15,12 L16.0790397,12 Z" id="↳-🎨-Fill" fill="#181C21"></path>
    </g>
</svg>