<?xml version="1.0" encoding="UTF-8"?>
<svg width="32px" height="32px" viewBox="0 0 32 32" version="1.1" xmlns="http://www.w3.org/2000/svg" xmlns:xlink="http://www.w3.org/1999/xlink">
    <!-- Generator: Sketch 63.1 (92452) - https://sketch.com -->
    <title>Icons/ion-ios-send</title>
    <desc>Created with Sketch.</desc>
    <g id="Icons/ion-ios-send" stroke="none" stroke-width="1" fill="none" fill-rule="evenodd" fill-opacity="0.9">
        <path d="M27.25,4.0625 C27.4583344,3.97916625 27.6458325,4.02083296 27.8125,4.1875 C27.979167,4.3541675 28.0208338,4.54166563 27.9375,4.75 L18.4375,27.6875 C18.3541662,27.8958344 18.1979178,28 17.96875,28 C17.7395822,28 17.5833337,27.8958344 17.5,27.6875 L13.4375,21.1875 C13.1458319,20.7708312 13.1874981,20.3750019 13.5625,20 L24.125,8.0625 C24.2916675,7.93749937 24.3333337,7.83333375 24.25,7.75 C24.1666662,7.66666625 24.0416675,7.7083325 23.875,7.875 L11.6875,18.375 C11.3124981,18.6666681 10.9166687,18.7083344 10.5,18.5 L4.3125,15 C4.10416563,14.9166662 4,14.7604178 4,14.53125 C4,14.3020822 4.10416563,14.1458338 4.3125,14.0625 L27.25,4.0625 Z" id="↳-🎨-Fill" fill="#181C21"></path>
    </g>
</svg>