<?xml version="1.0" encoding="UTF-8"?>
<svg width="32px" height="32px" viewBox="0 0 32 32" version="1.1" xmlns="http://www.w3.org/2000/svg" xmlns:xlink="http://www.w3.org/1999/xlink">
    <!-- Generator: Sketch 63.1 (92452) - https://sketch.com -->
    <title>Icons/ion-md-radio</title>
    <desc>Created with Sketch.</desc>
    <g id="Icons/ion-md-radio" stroke="none" stroke-width="1" fill="none" fill-rule="evenodd" fill-opacity="0.9">
        <path d="M4.625,8.875 L21.0625,2 L21.9375,4.1875 L11.1875,8.6875 L26.375,8.6875 C27.0833369,8.6875 27.6979141,8.9374975 28.21875,9.4375 C28.7395859,9.9375025 29,10.5624963 29,11.3125 L29,27.3125 C29,28.0625038 28.7395859,28.6979141 28.21875,29.21875 C27.6979141,29.7395859 27.0833369,30 26.375,30 L5.625,30 C4.91666313,30 4.30208594,29.7395859 3.78125,29.21875 C3.26041406,28.6979141 3,28.0625038 3,27.3125 L3,11.3125 C3,10.1041606 3.54166125,9.29166875 4.625,8.875 Z M7.1875,26.1875 C7.97917063,26.9791706 8.91666125,27.375 10,27.375 C11.0833387,27.375 12.0208294,26.9791706 12.8125,26.1875 C13.6041706,25.3958294 14,24.4583387 14,23.375 C14,22.2916613 13.6041706,21.3541706 12.8125,20.5625 C12.0208294,19.7708294 11.0833387,19.375 10,19.375 C8.91666125,19.375 7.97917063,19.7708294 7.1875,20.5625 C6.39582937,21.3541706 6,22.2916613 6,23.375 C6,24.4583387 6.39582937,25.3958294 7.1875,26.1875 Z M26,16.6875 L26,11.3125 L6,11.3125 L6,16.6875 L21.1875,16.6875 L21.1875,13.75 L24,13.75 L24,16.6875 L26,16.6875 Z" id="↳-🎨-Fill" fill="#181C21"></path>
    </g>
</svg>