<?xml version="1.0" encoding="UTF-8"?>
<svg width="32px" height="32px" viewBox="0 0 32 32" version="1.1" xmlns="http://www.w3.org/2000/svg" xmlns:xlink="http://www.w3.org/1999/xlink">
    <!-- Generator: Sketch 63.1 (92452) - https://sketch.com -->
    <title>Icons/ion-ios-text</title>
    <desc>Created with Sketch.</desc>
    <g id="Icons/ion-ios-text" stroke="none" stroke-width="1" fill="none" fill-rule="evenodd" fill-opacity="0.9">
        <path d="M6.8125,7.0625 C9.35417938,5.02082312 12.4166488,4 16,4 C19.5833512,4 22.6458206,5.02082312 25.1875,7.0625 C27.7291794,9.10417688 29,11.5833188 29,14.5 C29,17.4166812 27.7291794,19.8958231 25.1875,21.9375 C22.6458206,23.9791769 19.5833512,25 16,25 C15.5833313,25 15,24.9583338 14.25,24.875 C13.3333287,25.9583387 12.3541719,26.7291644 11.3125,27.1875 C10.312495,27.6458356 9.25000563,27.9166662 8.125,28 C8.04166625,28 7.97916688,27.9583338 7.9375,27.875 C7.89583312,27.7916662 7.89583312,27.7083338 7.9375,27.625 C9.06250563,26.29166 9.74999875,25.0208394 10,23.8125 C7.87498938,22.9374956 6.17708969,21.666675 4.90625,20 C3.63541031,18.333325 3,16.5 3,14.5 C3,11.5833188 4.27082063,9.10417688 6.8125,7.0625 Z" id="↳-🎨-Fill" fill="#181C21"></path>
    </g>
</svg>