<?xml version="1.0" encoding="UTF-8"?>
<svg width="32px" height="32px" viewBox="0 0 32 32" version="1.1" xmlns="http://www.w3.org/2000/svg" xmlns:xlink="http://www.w3.org/1999/xlink">
    <!-- Generator: Sketch 63.1 (92452) - https://sketch.com -->
    <title>Icons/ion-md-time</title>
    <desc>Created with Sketch.</desc>
    <g id="Icons/ion-md-time" stroke="none" stroke-width="1" fill="none" fill-rule="evenodd" fill-opacity="0.9">
        <path d="M6.8125,6.8125 C9.35417938,4.27082062 12.4166488,3 16,3 C19.5833512,3 22.6458206,4.27082062 25.1875,6.8125 C27.7291794,9.35417938 29,12.4166488 29,16 C29,19.5833512 27.7291794,22.6458206 25.1875,25.1875 C22.6458206,27.7291794 19.5833512,29 16,29 C12.4166488,29 9.35417938,27.7291794 6.8125,25.1875 C4.27082063,22.6458206 3,19.5833512 3,16 C3,12.4166488 4.27082063,9.35417938 6.8125,6.8125 Z M8.625,23.375 C10.6666769,25.37501 13.1249856,26.375 16,26.375 C18.8750144,26.375 21.3229066,25.3645934 23.34375,23.34375 C25.3645934,21.3229066 26.375,18.8750144 26.375,16 C26.375,13.1249856 25.3645934,10.6770934 23.34375,8.65625 C21.3229066,6.63540656 18.8750144,5.625 16,5.625 C13.1249856,5.625 10.6770934,6.63540656 8.65625,8.65625 C6.63540656,10.6770934 5.625,13.1249856 5.625,16 C5.625,18.8750144 6.625,21.3333231 8.625,23.375 Z M16.625,9.5 L16.625,16.3125 L22.5,19.8125 L21.5,21.375 L14.6875,17.3125 L14.6875,9.5 L16.625,9.5 Z" id="↳-🎨-Fill" fill="#181C21"></path>
    </g>
</svg>