<?xml version="1.0" encoding="UTF-8"?>
<svg width="32px" height="32px" viewBox="0 0 32 32" version="1.1" xmlns="http://www.w3.org/2000/svg" xmlns:xlink="http://www.w3.org/1999/xlink">
    <!-- Generator: Sketch 63.1 (92452) - https://sketch.com -->
    <title>Icons/ion-md-mic-off</title>
    <desc>Created with Sketch.</desc>
    <g id="Icons/ion-md-mic-off" stroke="none" stroke-width="1" fill="none" fill-rule="evenodd" fill-opacity="0.9">
        <path d="M11.6875,10.875 L26.625,25.8125 L23,22.1875 L26.625,25.8125 L28.75,27.875 L27.25,29.375 L21.3125,23.4375 C19.9374931,24.2291706 18.6458394,24.7083325 17.4375,24.875 L17.4375,30 L14.5625,30 L14.5625,24.875 C12.1874881,24.541665 10.166675,23.4583425 8.5,21.625 C6.833325,19.7916575 6,17.6875119 6,15.3125 L8.4375,15.3125 C8.4375,17.3958437 9.1874925,19.1354097 10.6875,20.53125 C12.1875075,21.9270903 13.9583231,22.625 16,22.625 C17.2916731,22.625 18.4791612,22.3333363 19.5625,21.75 L17.5625,19.6875 C17.0208306,19.8958344 16.5000025,20 16,20 C14.8333275,20 13.8229209,19.5833375 12.96875,18.75 C12.1145791,17.9166625 11.6875,16.8958394 11.6875,15.6875 L11.6875,13.875 L3.25,5.5 L4.75,4 L11.6875,10.875 Z M20.3125,15.6875 C20.3125,16.020835 20.2916669,16.2708325 20.25,16.4375 L11.6875,7.875 L11.6875,6.3125 C11.6875,5.10416063 12.1145791,4.0833375 12.96875,3.25 C13.8229209,2.4166625 14.8333275,2 16,2 C17.1666725,2 18.1770791,2.4166625 19.03125,3.25 C19.8854209,4.0833375 20.3125,5.10416063 20.3125,6.3125 L20.3125,15.6875 Z M26.0625,15.3125 C26.0625,17.2291762 25.5000056,18.9791587 24.375,20.5625 L22.6875,18.8125 C23.3125031,17.6458275 23.625,16.4791725 23.625,15.3125 L26.0625,15.3125 Z" id="↳-🎨-Fill" fill="#181C21"></path>
    </g>
</svg>