<?xml version="1.0" encoding="UTF-8"?>
<svg width="32px" height="32px" viewBox="0 0 32 32" version="1.1" xmlns="http://www.w3.org/2000/svg" xmlns:xlink="http://www.w3.org/1999/xlink">
    <!-- Generator: Sketch 63.1 (92452) - https://sketch.com -->
    <title>Icons/ion-ios-woman</title>
    <desc>Created with Sketch.</desc>
    <g id="Icons/ion-ios-woman" stroke="none" stroke-width="1" fill="none" fill-rule="evenodd" fill-opacity="0.9">
        <path d="M18.875,30.5625 C18.5833319,30.8541681 18.2500019,31 17.875,31 C17.4999981,31 17.1666681,30.8541681 16.875,30.5625 C16.5833319,30.2708319 16.4375,29.8958356 16.4375,29.4375 L16.4375,21.9375 L15.5625,21.9375 L15.5625,29.4375 C15.5625,29.9375025 15.4166681,30.3333319 15.125,30.625 C14.8749987,30.8750012 14.5416688,31 14.125,31 C13.6666644,31 13.3125013,30.8750012 13.0625,30.625 C12.7708319,30.3333319 12.625,29.9375025 12.625,29.4375 L12.625,21.9375 L9.875,21.9375 L12.625,11.3125 L12.25,11.3125 L10.6875,16.9375 C10.4374988,17.6875038 10.0000031,18.0625 9.375,18.0625 C8.91666438,18.0625 8.56250125,17.8750019 8.3125,17.5 C8.02083188,17.1249981 7.93749938,16.6250031 8.0625,16 L9.875,9.5 C10.0416675,8.91666375 10.3958306,8.3750025 10.9375,7.875 C11.4791694,7.3749975 12.1458294,7.10416688 12.9375,7.0625 L19.0625,7.0625 C19.8541706,7.10416688 20.5208306,7.38541406 21.0625,7.90625 C21.6041694,8.42708594 21.9583325,8.95833063 22.125,9.5 L23.9375,16.0625 C24.0625006,16.6875031 23.9791681,17.1874981 23.6875,17.5625 C23.4374987,17.895835 23.0833356,18.0625 22.625,18.0625 C21.9999969,18.0625 21.5625012,17.6875038 21.3125,16.9375 L19.8125,11.3125 L19.3125,11.3125 L22.125,21.9375 L19.3125,21.9375 L19.3125,29.4375 C19.3125,29.8958356 19.1666681,30.2708319 18.875,30.5625 Z M17.9375,5.8125 C17.3958306,6.35416938 16.75,6.625 16,6.625 C15.25,6.625 14.6041694,6.35416938 14.0625,5.8125 C13.5208306,5.27083062 13.25,4.60417062 13.25,3.8125 C13.25,3.02082937 13.5208306,2.35416937 14.0625,1.8125 C14.6041694,1.27083063 15.25,1 16,1 C16.75,1 17.3958306,1.27083063 17.9375,1.8125 C18.4791694,2.35416937 18.75,3.02082937 18.75,3.8125 C18.75,4.60417062 18.4791694,5.27083062 17.9375,5.8125 Z" id="↳-🎨-Fill" fill="#181C21"></path>
    </g>
</svg>