<?xml version="1.0" encoding="UTF-8"?>
<svg width="32px" height="32px" viewBox="0 0 32 32" version="1.1" xmlns="http://www.w3.org/2000/svg" xmlns:xlink="http://www.w3.org/1999/xlink">
    <!-- Generator: Sketch 63.1 (92452) - https://sketch.com -->
    <title>Icons/ion-md-person</title>
    <desc>Created with Sketch.</desc>
    <g id="Icons/ion-md-person" stroke="none" stroke-width="1" fill="none" fill-rule="evenodd" fill-opacity="0.9">
        <path d="M20.25,14.25 C19.0833275,15.4166725 17.666675,16 16,16 C14.333325,16 12.9166725,15.4166725 11.75,14.25 C10.5833275,13.0833275 10,11.666675 10,10 C10,8.333325 10.5833275,6.9166725 11.75,5.75 C12.9166725,4.5833275 14.333325,4 16,4 C17.666675,4 19.0833275,4.5833275 20.25,5.75 C21.4166725,6.9166725 22,8.333325 22,10 C22,11.666675 21.4166725,13.0833275 20.25,14.25 Z M8.125,20.6875 C10.8750137,19.5624944 13.4999875,19 16,19 C18.5000125,19 21.1249862,19.5520778 23.875,20.65625 C26.6250138,21.7604222 28,23.2083244 28,25 L28,28 L4,28 L4,25 C4,23.2083244 5.37498625,21.7708387 8.125,20.6875 Z" id="↳-🎨-Fill" fill="#181C21"></path>
    </g>
</svg>