<?xml version="1.0" encoding="UTF-8"?>
<svg width="32px" height="32px" viewBox="0 0 32 32" version="1.1" xmlns="http://www.w3.org/2000/svg" xmlns:xlink="http://www.w3.org/1999/xlink">
    <!-- Generator: Sketch 63.1 (92452) - https://sketch.com -->
    <title>Icons/ion-md-heart-empty</title>
    <desc>Created with Sketch.</desc>
    <g id="Icons/ion-md-heart-empty" stroke="none" stroke-width="1" fill="none" fill-rule="evenodd" fill-opacity="0.9">
        <path d="M21.875,4 C23.87501,4 25.5624931,4.68749312 26.9375,6.0625 C28.3125069,7.43750688 29,9.14582312 29,11.1875 C29,12.3958394 28.7812522,13.5520778 28.34375,14.65625 C27.9062478,15.7604222 27.0729228,17.0208262 25.84375,18.4375 C24.6145772,19.8541738 23.5208381,21.0208287 22.5625,21.9375 C21.6041619,22.8541713 20.0416775,24.31249 17.875,26.3125 L16,28 L14.125,26.3125 C11.9583225,24.31249 10.3958381,22.8541713 9.4375,21.9375 C8.47916187,21.0208287 7.38542281,19.8541738 6.15625,18.4375 C4.92707719,17.0208262 4.09375219,15.7604222 3.65625,14.65625 C3.21874781,13.5520778 3,12.3958394 3,11.1875 C3,9.14582312 3.68749312,7.43750688 5.0625,6.0625 C6.43750688,4.68749312 8.12499,4 10.125,4 C12.5000119,4 14.4583256,4.9166575 16,6.75 C17.5416744,4.9166575 19.4999881,4 21.875,4 Z M16.8125,24.5625 C20.7708531,20.895815 23.3333275,18.3541738 24.5,16.9375 C26.166675,14.8541562 27,12.9375087 27,11.1875 C27,9.72915938 26.5,8.5 25.5,7.5 C24.5,6.5 23.2916738,6 21.875,6 C20.0833244,6 18.6250056,6.66666 17.5,8 L16,9.875 L14.5,8 C13.3749944,6.66666 11.9166756,6 10.125,6 C8.70832625,6 7.5,6.5 6.5,7.5 C5.5,8.5 5,9.72915938 5,11.1875 C5,12.9375087 5.833325,14.8541562 7.5,16.9375 C8.6666725,18.3541738 11.2291469,20.895815 15.1875,24.5625 L15.4375,24.8125 L16,25.3125 L16.5625,24.8125 L16.8125,24.5625 Z" id="↳-🎨-Fill" fill="#181C21"></path>
    </g>
</svg>