<?xml version="1.0" encoding="UTF-8"?>
<svg width="32px" height="32px" viewBox="0 0 32 32" version="1.1" xmlns="http://www.w3.org/2000/svg" xmlns:xlink="http://www.w3.org/1999/xlink">
    <!-- Generator: Sketch 63.1 (92452) - https://sketch.com -->
    <title>Icons/ion-logo-twitter</title>
    <desc>Created with Sketch.</desc>
    <g id="Icons/ion-logo-twitter" stroke="none" stroke-width="1" fill="none" fill-rule="evenodd" fill-opacity="0.9">
        <path d="M30.75,6.875 C29.9999963,8.0416725 29.0000062,9.08332875 27.75,10 L27.75,10.75 C27.75,15.1250219 26.1770991,19.0937322 23.03125,22.65625 C19.8854009,26.2187678 15.7083594,28 10.5,28 C7.16665,28 4.0833475,27.0833425 1.25,25.25 C1.91667,25.3333338 2.39583187,25.375 2.6875,25.375 C5.47918062,25.375 7.97915563,24.5 10.1875,22.75 C8.89582688,22.7083331 7.72917188,22.3020872 6.6875,21.53125 C5.64582812,20.7604128 4.93750187,19.7708394 4.5625,18.5625 C5.0625025,18.6458338 5.43749875,18.6875 5.6875,18.6875 C6.10416875,18.6875 6.64583,18.6041675 7.3125,18.4375 C5.93749312,18.1458319 4.78125469,17.4479222 3.84375,16.34375 C2.90624531,15.2395778 2.4375,13.9583406 2.4375,12.5 L2.4375,12.4375 C3.35417125,12.9375025 4.27082875,13.1875 5.1875,13.1875 C3.39582438,12.0208275 2.5,10.3333444 2.5,8.125 C2.5,7.08332813 2.77083063,6.08333812 3.3125,5.125 C6.52084938,9.08335313 10.6666413,11.1874987 15.75,11.4375 C15.6666662,11.1458319 15.625,10.6875031 15.625,10.0625 C15.625,8.35415813 16.2083275,6.9166725 17.375,5.75 C18.5416725,4.5833275 19.9791581,4 21.6875,4 C23.3958419,4 24.8541606,4.64582687 26.0625,5.9375 C27.3125062,5.72916563 28.60416,5.22917063 29.9375,4.4375 C29.5208313,5.89584062 28.6250069,7.02082937 27.25,7.8125 C28.5416731,7.68749938 29.7083281,7.3750025 30.75,6.875 Z" id="↳-🎨-Fill" fill="#181C21"></path>
    </g>
</svg>