<?xml version="1.0" encoding="UTF-8"?>
<svg width="32px" height="32px" viewBox="0 0 32 32" version="1.1" xmlns="http://www.w3.org/2000/svg" xmlns:xlink="http://www.w3.org/1999/xlink">
    <!-- Generator: Sketch 63.1 (92452) - https://sketch.com -->
    <title>Icons/ion-md-notifications</title>
    <desc>Created with Sketch.</desc>
    <g id="Icons/ion-md-notifications" stroke="none" stroke-width="1" fill="none" fill-rule="evenodd" fill-opacity="0.9">
        <path d="M17.8125,28.1875 C17.3124975,28.7291694 16.7083369,29 16,29 C15.2916631,29 14.6875025,28.7395859 14.1875,28.21875 C13.6874975,27.6979141 13.4375,27.0833369 13.4375,26.375 L18.5625,26.375 C18.5625,27.0833369 18.3125025,27.6874975 17.8125,28.1875 Z M24.4375,21.1875 L27,23.8125 L27,25.125 L5,25.125 L5,23.8125 L7.5625,21.1875 L7.5625,14.0625 C7.5625,12.1041569 8.17707719,10.3645909 9.40625,8.84375 C10.6354228,7.32290906 12.1874906,6.33333563 14.0625,5.875 L14.0625,4.9375 C14.0625,4.39583063 14.2395816,3.93750188 14.59375,3.5625 C14.9479184,3.18749812 15.4166637,3 16,3 C16.5833363,3 17.0520816,3.18749812 17.40625,3.5625 C17.7604184,3.93750188 17.9375,4.39583063 17.9375,4.9375 L17.9375,5.875 C19.8125094,6.33333563 21.3645772,7.32290906 22.59375,8.84375 C23.8229228,10.3645909 24.4375,12.1041569 24.4375,14.0625 L24.4375,21.1875 Z" id="↳-🎨-Fill" fill="#181C21"></path>
    </g>
</svg>