<?xml version="1.0" encoding="UTF-8"?>
<svg width="32px" height="32px" viewBox="0 0 32 32" version="1.1" xmlns="http://www.w3.org/2000/svg" xmlns:xlink="http://www.w3.org/1999/xlink">
    <!-- Generator: Sketch 63.1 (92452) - https://sketch.com -->
    <title>Icons/ion-md-clock</title>
    <desc>Created with Sketch.</desc>
    <g id="Icons/ion-md-clock" stroke="none" stroke-width="1" fill="none" fill-rule="evenodd" fill-opacity="0.9">
        <path d="M16,3 C19.5833512,3 22.6458206,4.27082062 25.1875,6.8125 C27.7291794,9.35417938 29,12.4166488 29,16 C29,19.5833512 27.7291794,22.6458206 25.1875,25.1875 C22.6458206,27.7291794 19.5833512,29 16,29 C12.4166488,29 9.35417938,27.7291794 6.8125,25.1875 C4.27082063,22.6458206 3,19.5833512 3,16 C3,12.4166488 4.27082063,9.35417938 6.8125,6.8125 C9.35417938,4.27082062 12.4166488,3 16,3 Z M24.1875,10.125 C23.6041638,10.4166681 23.479165,10.8749969 23.8125,11.5 C24.1041681,12.0833363 24.5624969,12.208335 25.1875,11.875 C25.7708363,11.5833319 25.895835,11.1250031 25.5625,10.5 C25.2708319,9.91666375 24.8125031,9.791665 24.1875,10.125 Z M6,15 C5.33333,15 5,15.33333 5,16 C5,16.66667 5.33333,17 6,17 C6.66667,17 7,16.66667 7,16 C7,15.33333 6.66667,15 6,15 Z M6.5,21.5 C6.79166813,22.0416694 7.22916375,22.1666681 7.8125,21.875 C8.39583625,21.5833319 8.520835,21.1250031 8.1875,20.5 C7.89583187,19.9166638 7.43750312,19.791665 6.8125,20.125 C6.27083063,20.3750013 6.166665,20.83333 6.5,21.5 Z M8.1875,11.5 C8.520835,10.8749969 8.39583625,10.4166681 7.8125,10.125 C7.22916375,9.83333187 6.79166813,9.95833063 6.5,10.5 C6.166665,11.16667 6.27083063,11.6249987 6.8125,11.875 C7.43750312,12.208335 7.89583187,12.0833363 8.1875,11.5 Z M10.5,6.5 C9.91666375,6.79166813 9.791665,7.24999688 10.125,7.875 C10.3750013,8.41666938 10.83333,8.520835 11.5,8.1875 C12.0416694,7.89583187 12.1666681,7.45833625 11.875,6.875 C11.5833319,6.29166375 11.1250031,6.166665 10.5,6.5 Z M10,13.375 L15,16.3125 L15,24 L16.9375,24 L16.9375,15.3125 L11,11.75 L10,13.375 Z M11.875,25.1875 C12.208335,24.5624969 12.0833362,24.1041681 11.5,23.8125 C10.8749969,23.479165 10.4166681,23.6041638 10.125,24.1875 C9.83333187,24.7708363 9.95833062,25.2083319 10.5,25.5 C11.16667,25.833335 11.6249987,25.7291694 11.875,25.1875 Z M15,26 C15,26.66667 15.33333,27 16,27 C16.66667,27 17,26.66667 17,26 C17,25.33333 16.66667,25 16,25 C15.33333,25 15,25.33333 15,26 Z M15,6 C15,6.66667 15.33333,7 16,7 C16.66667,7 17,6.66667 17,6 C17,5.33333 16.66667,5 16,5 C15.33333,5 15,5.33333 15,6 Z M21.5,25.5 C22.0833362,25.2083319 22.208335,24.7500031 21.875,24.125 C21.6249987,23.5833306 21.16667,23.479165 20.5,23.8125 C19.9583306,24.1041681 19.8333319,24.5416638 20.125,25.125 C20.4166681,25.7083363 20.8749969,25.833335 21.5,25.5 Z M20.5,8.1875 C21.1250031,8.520835 21.5833319,8.39583625 21.875,7.8125 C22.1666681,7.22916375 22.0416694,6.79166813 21.5,6.5 C20.83333,6.166665 20.3750013,6.27083063 20.125,6.8125 C19.791665,7.43750312 19.9166638,7.89583187 20.5,8.1875 Z M25.5,21.5 C25.833335,20.83333 25.7291694,20.3750013 25.1875,20.125 C24.5624969,19.791665 24.1041681,19.9166638 23.8125,20.5 C23.479165,21.1250031 23.6041638,21.5833319 24.1875,21.875 C24.7708363,22.1666681 25.2083319,22.0416694 25.5,21.5 Z M25,16 C25,16.66667 25.33333,17 26,17 C26.66667,17 27,16.66667 27,16 C27,15.33333 26.66667,15 26,15 C25.33333,15 25,15.33333 25,16 Z" id="↳-🎨-Fill" fill="#181C21"></path>
    </g>
</svg>