<?xml version="1.0" encoding="UTF-8"?>
<svg width="32px" height="32px" viewBox="0 0 32 32" version="1.1" xmlns="http://www.w3.org/2000/svg" xmlns:xlink="http://www.w3.org/1999/xlink">
    <!-- Generator: Sketch 63.1 (92452) - https://sketch.com -->
    <title>Icons/ion-md-help</title>
    <desc>Created with Sketch.</desc>
    <g id="Icons/ion-md-help" stroke="none" stroke-width="1" fill="none" fill-rule="evenodd" fill-opacity="0.9">
        <path d="M18.0625,28 L13.9375,28 L13.9375,23.9375 L18.0625,23.9375 L18.0625,28 Z M18,21.875 L14,21.875 C14,20.7083275 14.2083313,19.6875044 14.625,18.8125 C15.0416687,17.9374956 15.5416637,17.2500025 16.125,16.75 C16.7083362,16.2499975 17.2916637,15.7916687 17.875,15.375 C18.4583363,14.9583313 18.9583313,14.4583363 19.375,13.875 C19.7916687,13.2916637 20,12.6458369 20,11.9375 C20,10.8541613 19.6041706,9.92708719 18.8125,9.15625 C18.0208294,8.38541281 17.0833387,8 16,8 C14.9166613,8 13.9791706,8.39582938 13.1875,9.1875 C12.3958294,9.97917063 12,10.9166613 12,12 L8,12 C8,9.79165563 8.78124219,7.90625781 10.34375,6.34375 C11.9062578,4.78124219 13.7916556,4 16,4 C18.2083444,4 20.0937422,4.77082563 21.65625,6.3125 C23.2187578,7.85417437 24,9.72915563 24,11.9375 C24,13.0625056 23.6875031,14.0833287 23.0625,15 C22.4374969,15.9166713 21.7500038,16.6354141 21,17.15625 C20.2499962,17.6770859 19.5625031,18.3541625 18.9375,19.1875 C18.3124969,20.0208375 18,20.9166619 18,21.875 Z" id="↳-🎨-Fill" fill="#181C21"></path>
    </g>
</svg>