<?xml version="1.0" encoding="UTF-8"?>
<svg width="32px" height="32px" viewBox="0 0 32 32" version="1.1" xmlns="http://www.w3.org/2000/svg" xmlns:xlink="http://www.w3.org/1999/xlink">
    <!-- Generator: Sketch 63.1 (92452) - https://sketch.com -->
    <title>Icons/ion-ios-person</title>
    <desc>Created with Sketch.</desc>
    <g id="Icons/ion-ios-person" stroke="none" stroke-width="1" fill="none" fill-rule="evenodd" fill-opacity="0.9">
        <path d="M28,27.375 C28.0833338,27.7916687 27.9166687,28 27.5,28 L4.5,28 C4.08333125,28 3.91666625,27.7916687 4,27.375 C4.29166812,26.04166 5.604155,24.9583375 7.9375,24.125 C8.31250188,23.9583325 8.92707906,23.8125006 9.78125,23.6875 C10.6354209,23.5624994 11.1041663,23.5 11.1875,23.5 C11.9791664,23.2916656 12.4791664,23.0625013 12.6875,22.8125 C12.7708337,22.7291662 12.8125,22.4270859 12.8125,21.90625 C12.8125,21.3854141 12.7916669,20.8958356 12.75,20.4375 L12.75,19.75 C12.4583319,19.2499975 12.2291675,18.7916687 12.0625,18.375 L11.5625,16 C11.229165,16 11.0000006,15.7083362 10.875,15.125 C10.8333331,14.8749987 10.7291675,14.5312522 10.5625,14.09375 C10.3958325,13.6562478 10.3333331,13.2916681 10.375,13 C10.375,12.7916656 10.4166662,12.6250006 10.5,12.5 C10.5833338,12.3749994 10.6666662,12.3125 10.75,12.3125 L10.8125,12.3125 C10.5624987,11.64583 10.4166669,10.5833406 10.375,9.125 C10.3333331,7.74999312 10.8229116,6.55208844 11.84375,5.53125 C12.8645884,4.51041156 14.2499912,4 16,4 C17.7500087,4 19.1354116,4.51041156 20.15625,5.53125 C21.1770884,6.55208844 21.6666669,7.74999312 21.625,9.125 C21.625,9.79167 21.5833338,10.3854141 21.5,10.90625 C21.4166662,11.4270859 21.3333338,11.7916656 21.25,12 L21.1875,12.3125 L21.4375,12.4375 L21.625,13 C21.6666669,13.2916681 21.6041675,13.6562478 21.4375,14.09375 C21.2708325,14.5312522 21.1666669,14.8749987 21.125,15.125 C21.0833331,15.3750013 21.0000006,15.5729159 20.875,15.71875 C20.7499994,15.8645841 20.6458338,15.9583331 20.5625,16 L20.4375,16 C20.2708325,17.1666725 20.1041675,17.9583313 19.9375,18.375 L19.1875,19.75 C19.1041662,21.5833425 19.1458325,22.6041656 19.3125,22.8125 C19.5208344,23.0625013 20.0208294,23.2916656 20.8125,23.5 C20.8958338,23.5 21.3645791,23.5624994 22.21875,23.6875 C23.0729209,23.8125006 23.6874981,23.9583325 24.0625,24.125 C26.395845,24.9583375 27.7083319,26.04166 28,27.375 Z" id="↳-🎨-Fill" fill="#181C21"></path>
    </g>
</svg>