<?xml version="1.0" encoding="UTF-8"?>
<svg width="32px" height="32px" viewBox="0 0 32 32" version="1.1" xmlns="http://www.w3.org/2000/svg" xmlns:xlink="http://www.w3.org/1999/xlink">
    <!-- Generator: Sketch 63.1 (92452) - https://sketch.com -->
    <title>Icons/ion-logo-npm</title>
    <desc>Created with Sketch.</desc>
    <g id="Icons/ion-logo-npm" stroke="none" stroke-width="1" fill="none" fill-rule="evenodd" fill-opacity="0.9">
        <path d="M14.25,16.875 L14.25,13.3125 L16,13.3125 L16,16.875 L14.25,16.875 Z M0,9.75 L32,9.75 L32,20.4375 L16,20.4375 L16,22.25 L8.875,22.25 L8.875,20.4375 L0,20.4375 L0,9.75 Z M8.875,18.6875 L8.875,11.5625 L1.75,11.5625 L1.75,18.6875 L5.3125,18.6875 L5.3125,13.3125 L7.125,13.3125 L7.125,18.6875 L8.875,18.6875 Z M17.75,18.6875 L17.75,11.5625 L10.6875,11.5625 L10.6875,20.5 L14.25,20.5 L14.25,18.6875 L17.75,18.6875 Z M30.25,18.6875 L30.25,11.5625 L19.5625,11.5625 L19.5625,18.6875 L23.125,18.6875 L23.125,13.3125 L24.875,13.3125 L24.875,18.6875 L26.6875,18.6875 L26.6875,13.3125 L28.4375,13.3125 L28.4375,18.6875 L30.25,18.6875 Z" id="↳-🎨-Fill" fill="#181C21"></path>
    </g>
</svg>