<?xml version="1.0" encoding="UTF-8"?>
<svg width="32px" height="32px" viewBox="0 0 32 32" version="1.1" xmlns="http://www.w3.org/2000/svg" xmlns:xlink="http://www.w3.org/1999/xlink">
    <!-- Generator: Sketch 63.1 (92452) - https://sketch.com -->
    <title>Icons/ion-ios-star-outline</title>
    <desc>Created with Sketch.</desc>
    <g id="Icons/ion-ios-star-outline" stroke="none" stroke-width="1" fill="none" fill-rule="evenodd" fill-opacity="0.9">
        <path d="M28.9375,12 C29.2291681,12 29.4791656,12.0937491 29.6875,12.28125 C29.8958344,12.4687509 30,12.7083319 30,13 C30,13.2500013 29.8958344,13.4791656 29.6875,13.6875 L29.5,13.8125 L22,19.1875 L24.875,27.625 C25.0416675,28.1250025 24.9375019,28.5 24.5625,28.75 C24.3124987,28.9166675 24.1250006,29 24,29 C23.8333325,29 23.6250013,28.9166675 23.375,28.75 L16,23.5 L8.625,28.75 C8.37499875,28.9166675 8.1666675,29 8,29 C7.87499937,29 7.68750125,28.9166675 7.4375,28.75 C7.06249812,28.5 6.9583325,28.1250025 7.125,27.625 L10,19.1875 L2.4375,13.875 C2.14583187,13.6249987 2,13.3958344 2,13.1875 L2,13 C2,12.33333 2.33333,12 3,12 L12.25,12 L15.0625,3.6875 C15.2291675,3.22916437 15.5416644,3 16,3 C16.4583356,3 16.7708325,3.22916437 16.9375,3.6875 L19.75,12 L28.9375,12 Z M21,17.75 L25.9375,14.1875 C26.1041675,14.0624994 26.1250006,13.9375006 26,13.8125 C25.9583331,13.7708331 25.8958338,13.75 25.8125,13.75 L19.75,13.75 C18.9166625,13.75 18.3541681,13.3541706 18.0625,12.5625 L16.25,7 C16.2083331,6.87499938 16.1250006,6.8125 16,6.8125 C15.8749994,6.8125 15.7916669,6.87499938 15.75,7 L13.875,12.5625 C13.5833319,13.3541706 13.0416706,13.75 12.25,13.75 L6.0625,13.75 C5.93749937,13.75 5.86458344,13.8125 5.84375,13.9375 C5.82291656,14.0625006 5.85416625,14.1458331 5.9375,14.1875 L11,17.75 C11.7083369,18.2500025 11.9166681,18.9166625 11.625,19.75 L9.75,25.25 C9.70833312,25.3750006 9.73958281,25.4687497 9.84375,25.53125 C9.94791719,25.5937503 10.0416662,25.5833338 10.125,25.5 L15,22.0625 C15.2500013,21.8541656 15.5833313,21.75 16,21.75 C16.4166687,21.75 16.7499987,21.8541656 17,22.0625 L21.875,25.5625 C21.9583338,25.6458337 22.0520828,25.6458337 22.15625,25.5625 C22.2604172,25.4791662 22.2916669,25.3750006 22.25,25.25 L20.375,19.75 C20.0833319,18.9166625 20.2916631,18.2500025 21,17.75 Z" id="↳-🎨-Fill" fill="#181C21"></path>
    </g>
</svg>