<?xml version="1.0" encoding="UTF-8"?>
<svg width="32px" height="32px" viewBox="0 0 32 32" version="1.1" xmlns="http://www.w3.org/2000/svg" xmlns:xlink="http://www.w3.org/1999/xlink">
    <!-- Generator: Sketch 63.1 (92452) - https://sketch.com -->
    <title>Icons/ion-md-food</title>
    <desc>Created with Sketch.</desc>
    <g id="Icons/ion-md-food" stroke="none" stroke-width="1" fill="none" fill-rule="evenodd" fill-opacity="0.9">
        <path d="M21.7678857,11.3060516 L21.4759886,10.3739478 C21.1052066,9.31512992 19.9199431,8.74844567 18.8286254,9.10818568 C18.2147094,9.31055322 17.7325905,9.77831448 17.5240114,10.3739478 L17.2321143,11.3060516 C16.9864797,12.0921419 16.9349317,12.9232825 17.0816191,13.7322564 C17.2154052,14.4133583 17.6610939,14.9985148 18.2928555,15.3225234 L17.965949,22.4127762 C17.9221872,22.8085233 18.0544957,23.2036087 18.3296837,23.4988337 C18.9214914,24.1268899 19.9260811,24.1705616 20.5734151,23.5963781 C20.6084246,23.5653338 20.6419564,23.5328006 20.6739537,23.4988337 C20.9430037,23.2119901 21.0750848,22.8284843 21.0376884,22.4423318 L20.7089631,15.3216411 C21.3398723,14.9974671 21.7848221,14.4126966 21.9183809,13.7322564 C22.0650683,12.9232825 22.0135203,12.0921419 21.7678857,11.3060516 Z M16,3 C23.176325,3.008125 28.991875,8.823675 29,16 C29,23.1796833 23.1796833,29 16,29 C8.82031667,29 3,23.1796833 3,16 C3,8.82031667 8.82031667,3 16,3 Z M16,3.86666667 C9.29893333,3.86666667 3.86666667,9.29893333 3.86666667,16 C3.86666667,22.7010667 9.29893333,28.1333333 16,28.1333333 C22.6978708,28.1256958 28.1256958,22.6978708 28.1333333,16 C28.1333333,9.29893333 22.7010667,3.86666667 16,3.86666667 Z M17.4925272,24.0022499 C17.746773,23.9770984 17.9729813,24.1657055 17.9977815,24.4234938 C18.0225818,24.6813408 17.8366088,24.9107532 17.5824208,24.935846 C16.8603234,25.0213847 16.1308841,25.0213847 15.4087866,24.935846 C15.1550033,24.9056525 14.9734239,24.6726052 15.0031957,24.4152273 C15.0329676,24.1578493 15.26276,23.973698 15.5165434,24.0038915 C16.1676509,24.0805772 16.8254065,24.0805772 17.476514,24.0038915 L17.476514,24.0038915 L17.4746641,24.0043605 Z M14.5454545,9 C14.7964773,9 15,9.19756322 15,9.44129071 L15,9.44129071 L15,13.4124107 C15,13.5294484 14.9520455,13.6416326 14.8668182,13.7243642 L14.8668182,13.7243642 L13.6459091,14.9099642 L14.0336364,22.4370015 C14.0360795,22.4853167 14.0360795,22.5336872 14.0336364,22.5820025 C13.9923864,23.4041898 13.2722727,24.0382453 12.4252841,23.9982031 C11.5782955,23.958161 10.9251136,23.2591336 10.9663636,22.4369463 L10.9663636,22.4369463 L11.3540909,14.909909 L10.1331818,13.7243091 C10.0479545,13.6415774 10,13.5293933 10,13.4123555 L10,13.4123555 L10,9.44123555 C10,9.19756322 10.2035227,9 10.4545455,9 C10.7055682,9 10.9090909,9.19756322 10.9090909,9.44123555 L10.9090909,9.44123555 L10.9090909,13.229684 L12.14,14.4241087 C12.2308523,14.5122455 12.2790909,14.6335852 12.2727273,14.758124 L12.2727273,14.758124 L11.8722727,22.4797461 C11.8627841,22.6462574 11.925,22.8091285 12.0440909,22.9293652 L12.0440909,22.9293652 C12.2991477,23.1748025 12.704375,23.1730375 12.9531818,22.9293652 C13.0722159,22.8091285 13.1344886,22.6462574 13.125,22.4797461 L13.125,22.4797461 L12.7272727,14.758124 C12.7210227,14.6335301 12.7694318,14.5121351 12.8604545,14.4241087 L12.8604545,14.4241087 L14.0909091,13.229684 L14.0909091,9.44123555 C14.0909091,9.19756322 14.2944318,9 14.5454545,9 Z M19.9089742,9.95597884 C20.2318455,10.0718301 20.4863461,10.3188067 20.6057534,10.6320077 L20.8976505,11.5645527 C21.1012283,12.2172018 21.1440807,12.9071262 21.0226843,13.5787438 C20.9242486,14.0680652 20.5648333,14.469547 20.0792475,14.632599 C19.8949363,14.6998159 19.776211,14.8745026 19.7850771,15.0653457 L20.130625,22.51203 C20.1465384,22.6580986 20.0968659,22.803726 19.9942245,22.9116921 C19.7204573,23.1746596 19.2795427,23.1746596 19.0057755,22.9116921 C18.8980191,22.7950137 18.8490854,22.6379721 18.872103,22.4829155 L19.2149229,15.0653457 C19.223789,14.8745026 19.1050637,14.6998159 18.9207525,14.632599 C18.4351667,14.469547 18.0757514,14.0680652 17.9773157,13.5787438 C17.8556919,12.9071262 17.8985444,12.2171466 18.1023495,11.5645527 L18.3942466,10.6320077 C18.6201031,10.0395175 19.2982409,9.73684843 19.9089742,9.95597884 Z M22.5846692,10.1013183 C22.7518885,9.94753913 23.0011614,9.97152651 23.1414082,10.1548161 C25.7888084,13.6001727 25.5857741,18.6944856 22.674281,21.8736527 C22.5196587,22.042539 22.2693484,22.0420517 22.1152696,21.8725697 C21.9611907,21.7030878 21.9616353,21.428722 22.1162576,21.2598357 C24.7360925,18.3982983 24.9183789,13.8136766 22.5355655,10.713186 C22.3949235,10.5302754 22.4161655,10.2570467 22.5829896,10.1028344 C22.5835824,10.1023471 22.5841258,10.1018056 22.5846692,10.1013183 Z M8.52859731,10.1801102 C8.66058173,9.98092651 8.90988565,9.94083036 9.0854672,10.0905565 C9.26104874,10.2402826 9.29639372,10.5230986 9.1644093,10.7222823 C8.27143895,12.10856 7.79201981,13.7821088 7.79594703,15.499081 C7.79137355,17.6481442 8.54276513,19.710417 9.88343858,21.2287131 C10.0389366,21.4052264 10.0388372,21.6913696 9.88323974,21.8677701 C9.72764228,22.0441706 9.47540537,22.0440578 9.31990733,21.8675445 C6.56076169,18.726567 6.2224242,13.7768078 8.5217371,10.190825 C8.52397412,10.1872158 8.52626086,10.183663 8.52859731,10.1801102 Z M11.5,9 C11.776125,9 12,9.1791 12,9.4 L12,9.4 L12,12.6 C12,12.8209 11.776125,13 11.5,13 C11.223875,13 11,12.8209 11,12.6 L11,12.6 L11,9.4 C11,9.1791 11.223875,9 11.5,9 Z M13.5,9 C13.776125,9 14,9.1791 14,9.4 L14,9.4 L14,12.6 C14,12.8209 13.776125,13 13.5,13 C13.223875,13 13,12.8209 13,12.6 L13,12.6 L13,9.4 C13,9.1791 13.223875,9 13.5,9 Z M13.3151698,8.37985185 C15.0196792,7.9627037 16.875717,7.88811111 18.645434,8.16562963 C18.8885472,8.20407407 19.0379245,8.36418519 18.9791698,8.52325926 C18.9204151,8.68233333 18.675717,8.78007407 18.4326038,8.74162963 C16.8389811,8.49155556 15.1675849,8.55862963 13.6326038,8.93422222 C13.582,8.94677778 13.5283396,8.95325926 13.4741698,8.95344444 C13.2857358,8.95333333 13.1170566,8.87692593 13.050717,8.76148148 C12.9626981,8.60833333 13.0810566,8.43744444 13.3151698,8.37985185 Z" id="↳-🎨-Fill" fill="#181C21"></path>
    </g>
</svg>