<?xml version="1.0" encoding="UTF-8"?>
<svg width="32px" height="32px" viewBox="0 0 32 32" version="1.1" xmlns="http://www.w3.org/2000/svg" xmlns:xlink="http://www.w3.org/1999/xlink">
    <!-- Generator: Sketch 63.1 (92452) - https://sketch.com -->
    <title>Icons/ion-logo-dropbox</title>
    <desc>Created with Sketch.</desc>
    <g id="Icons/ion-logo-dropbox" stroke="none" stroke-width="1" fill="none" fill-rule="evenodd" fill-opacity="0.9">
        <path d="M11.0625,4.8125 L16,8.9375 L8.875,13.375 L4,9.4375 L11.0625,4.8125 Z M4,17.25 L8.875,13.375 L16,17.75 L11.0625,21.875 L4,17.25 Z M16,17.75 L23.125,13.375 L28,17.25 L20.9375,21.875 L16,17.75 Z M28,9.4375 L23.125,13.375 L16,8.9375 L20.9375,4.8125 L28,9.4375 Z M16,18.625 L21,22.75 L23.125,21.375 L23.125,22.9375 L16,27.1875 L8.875,22.9375 L8.875,21.375 L11,22.75 L16,18.625 Z" id="↳-🎨-Fill" fill="#181C21"></path>
    </g>
</svg>