<?xml version="1.0" encoding="UTF-8"?>
<svg width="32px" height="32px" viewBox="0 0 32 32" version="1.1" xmlns="http://www.w3.org/2000/svg" xmlns:xlink="http://www.w3.org/1999/xlink">
    <!-- Generator: Sketch 63.1 (92452) - https://sketch.com -->
    <title>Icons/ion-logo-javascript</title>
    <desc>Created with Sketch.</desc>
    <g id="Icons/ion-logo-javascript" stroke="none" stroke-width="1" fill="none" fill-rule="evenodd" fill-opacity="0.9">
        <path d="M13,5.5 L13,18.8125 C13,24.2708606 10.4791919,27 5.4375,27 C4.14582688,27 3,26.833335 2,26.5 L2.5,22.625 C3.12500313,22.8750013 3.937495,23 4.9375,23 C5.97917188,23 6.7499975,22.6875031 7.25,22.0625 C7.7500025,21.4374969 8,20.3333413 8,18.75 L8,5.5 L13,5.5 Z M23.875,5 C25.9166769,5 27.6874925,5.33333 29.1875,6 L28,10 C26.66666,9.29166312 25.2708406,8.9375 23.8125,8.9375 C22.8541619,8.9375 22.1145859,9.13541469 21.59375,9.53125 C21.0729141,9.92708531 20.8125,10.4166637 20.8125,11 C20.8125,11.6250031 21.0833306,12.1354147 21.625,12.53125 C22.1666694,12.9270853 23.1874925,13.4166637 24.6875,14 C28.2291844,15.33334 30,17.4583188 30,20.375 C30,22.2916763 29.2916738,23.8749938 27.875,25.125 C26.4583263,26.3750062 24.3958469,27 21.6875,27 C19.3958219,27 17.5,26.5625044 16,25.6875 L16.9375,21.75 C18.5208413,22.6250044 20.2083244,23.0625 22,23.0625 C24.1666775,23.0625 25.25,22.2708413 25.25,20.6875 C25.25,20.02083 24.9895859,19.4791687 24.46875,19.0625 C23.9479141,18.6458313 23.0625062,18.2083356 21.8125,17.75 C17.9374806,16.3333262 16,14.2083475 16,11.375 C16,9.5416575 16.7187428,8.02083938 18.15625,6.8125 C19.5937572,5.60416062 21.4999881,5 23.875,5 Z" id="↳-🎨-Fill" fill="#181C21"></path>
    </g>
</svg>