<?xml version="1.0" encoding="UTF-8"?>
<svg width="32px" height="32px" viewBox="0 0 32 32" version="1.1" xmlns="http://www.w3.org/2000/svg" xmlns:xlink="http://www.w3.org/1999/xlink">
    <!-- Generator: Sketch 63.1 (92452) - https://sketch.com -->
    <title>Icons/ion-ios-radio</title>
    <desc>Created with Sketch.</desc>
    <g id="Icons/ion-ios-radio" stroke="none" stroke-width="1" fill="none" fill-rule="evenodd" fill-opacity="0.9">
        <path d="M7.125,7.5 C4.87498875,9.95834562 3.75,12.7916506 3.75,16 C3.75,19.2083494 4.87498875,22.0416544 7.125,24.5 C7.2916675,24.6666675 7.375,24.8749987 7.375,25.125 C7.375,25.3750013 7.2916675,25.5833325 7.125,25.75 C6.87499875,25.9166675 6.6666675,26 6.5,26 C6.24999875,26 6.0416675,25.9166675 5.875,25.75 C3.29165375,22.9583194 2,19.7083519 2,16 C2,12.2916481 3.29165375,9.04168062 5.875,6.25 C6.0416675,6.0833325 6.24999875,6 6.5,6 C6.75000125,6 6.9583325,6.0833325 7.125,6.25 C7.5,6.62500188 7.5,7.04166437 7.125,7.5 Z M26.125,6.25 C28.7083462,9.04168062 30,12.2916481 30,16 C30,19.666685 28.7083462,22.8958194 26.125,25.6875 C25.9166656,25.8958344 25.7083344,26 25.5,26 C25.2083319,26 25.0000006,25.9166675 24.875,25.75 C24.4999981,25.3749981 24.4999981,24.9583356 24.875,24.5 C27.1250113,22.0416544 28.25,19.2083494 28.25,16 C28.25,12.7916506 27.1250113,9.95834562 24.875,7.5 C24.7083325,7.3333325 24.625,7.12500125 24.625,6.875 C24.625,6.62499875 24.7083325,6.4166675 24.875,6.25 C25.1250013,6.0833325 25.3333325,6 25.5,6 C25.7500012,6 25.9583325,6.0833325 26.125,6.25 Z M9.9375,21.75 C10.1041675,21.9166675 10.1875,22.1249987 10.1875,22.375 C10.1875,22.5833344 10.1041675,22.7708325 9.9375,22.9375 C9.72916563,23.1458344 9.52083437,23.25 9.3125,23.25 C9.10416563,23.25 8.89583437,23.1458344 8.6875,22.9375 C6.81249062,20.9791569 5.875,18.6875131 5.875,16.0625 C5.875,13.3124862 6.85415687,10.9583431 8.8125,9 C8.9791675,8.8333325 9.18749875,8.75 9.4375,8.75 C9.64583437,8.75 9.85416563,8.85416563 10.0625,9.0625 C10.4375019,9.52083563 10.4375019,9.916665 10.0625,10.25 C8.43749187,11.7916744 7.625,13.729155 7.625,16.0625 C7.625,18.3125113 8.39582563,20.2083256 9.9375,21.75 Z M23.1875,9 C25.1458431,10.9583431 26.125,13.2916531 26.125,16 C26.125,18.66668 25.1875094,20.9791569 23.3125,22.9375 C23.1874994,23.1458344 22.9791681,23.25 22.6875,23.25 C22.4791656,23.25 22.2708344,23.1458344 22.0625,22.9375 C21.6874981,22.5624981 21.6874981,22.1666687 22.0625,21.75 C23.6041744,20.2083256 24.375,18.2916781 24.375,16 C24.375,13.7083219 23.5625081,11.7916744 21.9375,10.25 C21.5624981,9.83333125 21.5624981,9.43750187 21.9375,9.0625 C22.1458344,8.85416563 22.3541656,8.75 22.5625,8.75 C22.8125013,8.75 23.0208325,8.8333325 23.1875,9 Z M12.9375,11.4375 C13.3125019,11.8958356 13.3125019,12.3124981 12.9375,12.6875 C11.9791619,13.6458381 11.5,14.7499938 11.5,16 C11.5,17.2916731 11.9583287,18.3958287 12.875,19.3125 C13.0416675,19.4791675 13.125,19.6875 13.125,19.9375 C13.125,20.1875 13.0416675,20.3958325 12.875,20.5625 C12.7083325,20.7291675 12.5000013,20.8125 12.25,20.8125 C11.9999987,20.8125 11.7916675,20.7291675 11.625,20.5625 C10.3749937,19.3124938 9.75,17.8125087 9.75,16.0625 C9.75,14.2708244 10.3958269,12.7291731 11.6875,11.4375 C11.8541675,11.2708325 12.0624987,11.1875 12.3125,11.1875 C12.5625013,11.1875 12.7708325,11.2708325 12.9375,11.4375 Z M20.375,11.4375 C21.6250062,12.6875 22.25,14.2291575 22.25,16.0625 C22.25,17.8541756 21.6458394,19.3541606 20.4375,20.5625 C20.2708325,20.7291675 20.0625013,20.8125 19.8124984,20.8125 C19.5624987,20.8125 19.3541675,20.7291675 19.1875,20.5625 C19.0208325,20.3958325 18.9375,20.1875 18.9375,19.9375 C18.9375,19.6875 19.0208325,19.4791675 19.1875,19.3125 C20.0625044,18.4374956 20.5,17.3541731 20.5,16.0625 C20.5,14.72916 20.0416713,13.6041713 19.125,12.6875 C18.7083313,12.2708313 18.7083313,11.8541687 19.125,11.4375 C19.2916675,11.2708325 19.4999987,11.1875 19.75,11.1875 C20.0000013,11.1875 20.2083325,11.2708325 20.375,11.4375 Z M14.3125,14.3125 C14.7708356,13.8541644 15.33333,13.625 16,13.625 C16.66667,13.625 17.2291644,13.8541644 17.6875,14.3125 C18.1458356,14.7708356 18.375,15.33333 18.375,16 C18.375,16.66667 18.1458356,17.2291644 17.6875,17.6875 C17.2291644,18.1458356 16.66667,18.375 16,18.375 C15.33333,18.375 14.7708356,18.1458356 14.3125,17.6875 C13.8541644,17.2291644 13.625,16.66667 13.625,16 C13.625,15.33333 13.8541644,14.7708356 14.3125,14.3125 Z" id="↳-🎨-Fill" fill="#181C21"></path>
    </g>
</svg>