<?xml version="1.0" encoding="UTF-8"?>
<svg width="32px" height="32px" viewBox="0 0 32 32" version="1.1" xmlns="http://www.w3.org/2000/svg" xmlns:xlink="http://www.w3.org/1999/xlink">
    <!-- Generator: Sketch 63.1 (92452) - https://sketch.com -->
    <title>Icons/ion-md-locate</title>
    <desc>Created with Sketch.</desc>
    <g id="Icons/ion-md-locate" stroke="none" stroke-width="1" fill="none" fill-rule="evenodd" fill-opacity="0.9">
        <path d="M12.4375,12.5 C13.437505,11.5 14.6249931,11 16,11 C17.3750069,11 18.5520784,11.4895784 19.53125,12.46875 C20.5104216,13.4479216 21,14.6249931 21,16 C21,17.3750069 20.5104216,18.5520784 19.53125,19.53125 C18.5520784,20.5104216 17.3750069,21 16,21 C14.6249931,21 13.4479216,20.5104216 12.46875,19.53125 C11.4895784,18.5520784 11,17.3750069 11,16 C11,14.6249931 11.4791619,13.4583381 12.4375,12.5 Z M27.9375,14.6875 L30,14.6875 L30,17.3125 L27.9375,17.3125 C27.6458319,20.1041806 26.5,22.5 24.5,24.5 C22.49999,26.5 20.1041806,27.6458319 17.3125,27.9375 L17.3125,30 L14.6875,30 L14.6875,27.9375 C11.8958194,27.6458319 9.5,26.5 7.5,24.5 C5.5,22.5 4.35416813,20.1041806 4.0625,17.3125 L2,17.3125 L2,14.6875 L4.0625,14.6875 C4.35416813,11.8958194 5.5,9.5 7.5,7.5 C9.5,5.5 11.8958194,4.35416813 14.6875,4.0625 L14.6875,2 L17.3125,2 L17.3125,4.0625 C20.1041806,4.35416813 22.49999,5.5 24.5,7.5 C26.5,9.5 27.6458319,11.8958194 27.9375,14.6875 Z M9.375,22.625 C11.2083425,24.4166756 13.4166538,25.3125 16,25.3125 C18.5833462,25.3125 20.7812409,24.4062591 22.59375,22.59375 C24.4062591,20.7812409 25.3125,18.5833462 25.3125,16 C25.3125,13.4166538 24.4062591,11.2187591 22.59375,9.40625 C20.7812409,7.59374094 18.5833462,6.6875 16,6.6875 C13.4166538,6.6875 11.2187591,7.59374094 9.40625,9.40625 C7.59374094,11.2187591 6.6875,13.4166538 6.6875,16 C6.6875,18.5833462 7.58332438,20.7916575 9.375,22.625 Z" id="↳-🎨-Fill" fill="#181C21"></path>
    </g>
</svg>