<?xml version="1.0" encoding="UTF-8"?>
<svg width="32px" height="32px" viewBox="0 0 32 32" version="1.1" xmlns="http://www.w3.org/2000/svg" xmlns:xlink="http://www.w3.org/1999/xlink">
    <!-- Generator: Sketch 63.1 (92452) - https://sketch.com -->
    <title>Icons/ion-md-watch</title>
    <desc>Created with Sketch.</desc>
    <g id="Icons/ion-md-watch" stroke="none" stroke-width="1" fill="none" fill-rule="evenodd" fill-opacity="0.9">
        <path d="M22.1875,8.1875 C24.7291794,10.18751 26,12.7916506 26,16 C26,19.2083494 24.7291794,21.81249 22.1875,23.8125 L21,31 L11,31 L9.8125,23.8125 C7.27082063,21.81249 6,19.2083494 6,16 C6,12.7916506 7.27082063,10.18751 9.8125,8.1875 L11,1 L21,1 L22.1875,8.1875 Z M10.6875,10.6875 C9.22915938,12.1458406 8.5,13.9166563 8.5,16 C8.5,18.0833438 9.22915938,19.8541594 10.6875,21.3125 C12.1458406,22.7708406 13.9166563,23.5 16,23.5 C18.0833437,23.5 19.8541594,22.7708406 21.3125,21.3125 C22.7708406,19.8541594 23.5,18.0833438 23.5,16 C23.5,13.9166563 22.7708406,12.1458406 21.3125,10.6875 C19.8541594,9.22915938 18.0833437,8.5 16,8.5 C13.9166563,8.5 12.1458406,9.22915938 10.6875,10.6875 Z" id="↳-🎨-Fill" fill="#181C21"></path>
    </g>
</svg>