<?xml version="1.0" encoding="UTF-8"?>
<svg width="32px" height="32px" viewBox="0 0 32 32" version="1.1" xmlns="http://www.w3.org/2000/svg" xmlns:xlink="http://www.w3.org/1999/xlink">
    <!-- Generator: Sketch 63.1 (92452) - https://sketch.com -->
    <title>Icons/ion-md-pricetags</title>
    <desc>Created with Sketch.</desc>
    <g id="Icons/ion-md-pricetags" stroke="none" stroke-width="1" fill="none" fill-rule="evenodd" fill-opacity="0.9">
        <path d="M27.625,6.6875 L30,9 L30,17 L18.0625,28.25 C17.5624975,28.7500025 16.9166706,29 16.125,29 C15.4166631,29 14.8125,28.7500025 14.3125,28.25 L27.625,15.5 L27.625,6.6875 Z M24,3 L26,5 L26,15 L14.25,26.25 C13.7499975,26.7500025 13.1041706,27 12.3125,27 C11.6041631,27 11,26.7500025 10.5,26.25 L2.75,18.5 C2.2499975,18 2,17.3333375 2,16.5 C2,15.83333 2.2499975,15.2500025 2.75,14.75 L14,3 L24,3 Z M22.0625,9.4375 C22.7708369,9.22916563 23.2291656,8.77083688 23.4375,8.0625 C23.6041675,7.39583 23.4895853,6.80208594 23.09375,6.28125 C22.6979147,5.76041406 22.16667,5.5 21.5,5.5 C20.9166638,5.5 20.4375019,5.68749813 20.0625,6.0625 C19.6874981,6.43750188 19.5,6.91666375 19.5,7.5 C19.5,8.16667 19.7604141,8.69791469 20.28125,9.09375 C20.8020859,9.48958531 21.39583,9.6041675 22.0625,9.4375 Z" id="↳-🎨-Fill" fill="#181C21"></path>
    </g>
</svg>