<?xml version="1.0" encoding="UTF-8"?>
<svg width="32px" height="32px" viewBox="0 0 32 32" version="1.1" xmlns="http://www.w3.org/2000/svg" xmlns:xlink="http://www.w3.org/1999/xlink">
    <!-- Generator: Sketch 63.1 (92452) - https://sketch.com -->
    <title>Icons/ion-ios-mail-unread</title>
    <desc>Created with Sketch.</desc>
    <g id="Icons/ion-ios-mail-unread" stroke="none" stroke-width="1" fill="none" fill-rule="evenodd" fill-opacity="0.9">
        <path d="M23.875,11.625 C23.2916637,11.0416637 23,10.3333375 23,9.5 C23,8.6666625 23.2916637,7.95833625 23.875,7.375 C24.4583363,6.79166375 25.1666625,6.5 26,6.5 C26.8333375,6.5 27.5416637,6.79166375 28.125,7.375 C28.7083363,7.95833625 29,8.6666625 29,9.5 C29,10.3333375 28.7083363,11.0416637 28.125,11.625 C27.5416637,12.2083363 26.8333375,12.5 26,12.5 C25.1666625,12.5 24.4583363,12.2083363 23.875,11.625 Z M26,13.625 C27.2500062,13.625 28.2499962,13.2083375 29,12.375 L29,23.5 C29,24.0833363 28.8125019,24.5624981 28.4375,24.9375 C28.0624981,25.3125019 27.5833362,25.5 27,25.5 L5,25.5 C4.41666375,25.5 3.93750187,25.3125019 3.5625,24.9375 C3.18749813,24.5624981 3,24.0833363 3,23.5 L3,9.8125 C3,9.77083312 3.02083313,9.72916688 3.0625,9.6875 C3.10416687,9.64583312 3.14583313,9.64583312 3.1875,9.6875 L9.9375,16.5625 C9.97916688,16.6041669 9.97916688,16.6666662 9.9375,16.75 L5.25,21.75 C4.87499813,22.1250019 4.87499813,22.4999981 5.25,22.875 C5.4166675,23.0416675 5.60416563,23.125 5.8125,23.125 C6.02083437,23.125 6.2083325,23.0416675 6.375,22.875 L11.0625,17.875 C11.1041669,17.7916662 11.1666663,17.7916662 11.25,17.875 L12.375,19 C13.4166719,20.0416719 14.6249931,20.5625 16,20.5625 C17.5,20.5625 18.7083287,20.062505 19.625,19.0625 L20.75,17.875 C20.8333338,17.7916662 20.8958331,17.7916662 20.9375,17.875 L25.625,22.875 C25.7916675,23.0416675 25.9791656,23.125 26.1875,23.125 C26.3958344,23.125 26.5833325,23.0416675 26.75,22.875 C27.1250019,22.4999981 27.1250019,22.1250019 26.75,21.75 L22.0625,16.75 C22.0208331,16.6666662 22.0208331,16.6041669 22.0625,16.5625 L25,13.5625 C25.2083344,13.6041669 25.5416644,13.625 26,13.625 Z M21.875,9.5 C21.875,10.9166738 22.4166613,12.0208294 23.5,12.8125 L18.4375,17.9375 C17.8124969,18.60417 17.000005,18.9375 16,18.9375 C14.999995,18.9375 14.1875031,18.60417 13.5625,17.9375 L3.75,7.9375 C4.12500188,7.64583187 4.54166437,7.5 5,7.5 L22.375,7.5 C22.041665,8.16667 21.875,8.83333 21.875,9.5 Z" id="↳-🎨-Fill" fill="#181C21"></path>
    </g>
</svg>