<?xml version="1.0" encoding="UTF-8"?>
<svg width="32px" height="32px" viewBox="0 0 32 32" version="1.1" xmlns="http://www.w3.org/2000/svg" xmlns:xlink="http://www.w3.org/1999/xlink">
    <!-- Generator: Sketch 63.1 (92452) - https://sketch.com -->
    <title>Icons/ion-md-mail-unread</title>
    <desc>Created with Sketch.</desc>
    <g id="Icons/ion-md-mail-unread" stroke="none" stroke-width="1" fill="none" fill-rule="evenodd" fill-opacity="0.9">
        <path d="M23.6875,10.8125 C22.8958294,10.0208294 22.5,9.08333875 22.5,8 C22.5,6.91666125 22.8958294,5.97917062 23.6875,5.1875 C24.4791706,4.39582937 25.4166612,4 26.5,4 C27.5833388,4 28.5208294,4.39582937 29.3125,5.1875 C30.1041706,5.97917062 30.5,6.91666125 30.5,8 C30.5,9.08333875 30.1041706,10.0208294 29.3125,10.8125 C28.5208294,11.6041706 27.5833388,12 26.5,12 C25.4166612,12 24.4791706,11.6041706 23.6875,10.8125 Z M23.4375,12.6875 C24.3958381,13.3125031 25.4166612,13.625 26.5,13.625 C27.5833388,13.625 28.5833287,13.3333362 29.5,12.75 L29.5,24.3125 C29.5,25.0625038 29.2395859,25.6979141 28.71875,26.21875 C28.1979141,26.7395859 27.5625037,27 26.8125,27 L4.1875,27 C3.43749625,27 2.80208594,26.7395859 2.28125,26.21875 C1.76041406,25.6979141 1.5,25.0625038 1.5,24.3125 L1.5,7.6875 C1.5,6.93749625 1.76041406,6.30208594 2.28125,5.78125 C2.80208594,5.26041406 3.43749625,5 4.1875,5 L21.75,5 C21.1666637,5.91667125 20.875,6.91666125 20.875,8 C20.875,9.20833938 21.1874969,10.2499956 21.8125,11.125 L15.5,15.3125 L4.5,8 L4.5,10.6875 L15.5,18 L23.4375,12.6875 Z" id="↳-🎨-Fill" fill="#181C21"></path>
    </g>
</svg>