<?xml version="1.0" encoding="UTF-8"?>
<svg width="32px" height="32px" viewBox="0 0 32 32" version="1.1" xmlns="http://www.w3.org/2000/svg" xmlns:xlink="http://www.w3.org/1999/xlink">
    <!-- Generator: Sketch 63.1 (92452) - https://sketch.com -->
    <title>Icons/ion-md-business</title>
    <desc>Created with Sketch.</desc>
    <g id="Icons/ion-md-business" stroke="none" stroke-width="1" fill="none" fill-rule="evenodd" fill-opacity="0.9">
        <path d="M16.3125,9.3125 L29,9.3125 L29,28 L3,28 L3,4 L16.3125,4 L16.3125,9.3125 Z M8.3125,25.3125 L8.3125,22.6875 L5.6875,22.6875 L5.6875,25.3125 L8.3125,25.3125 Z M8.3125,20 L8.3125,17.3125 L5.6875,17.3125 L5.6875,20 L8.3125,20 Z M8.3125,14.6875 L8.3125,12 L5.6875,12 L5.6875,14.6875 L8.3125,14.6875 Z M8.3125,9.3125 L8.3125,6.6875 L5.6875,6.6875 L5.6875,9.3125 L8.3125,9.3125 Z M13.625,25.3125 L13.625,22.6875 L11,22.6875 L11,25.3125 L13.625,25.3125 Z M13.625,20 L13.625,17.3125 L11,17.3125 L11,20 L13.625,20 Z M13.625,14.6875 L13.625,12 L11,12 L11,14.6875 L13.625,14.6875 Z M13.625,9.3125 L13.625,6.6875 L11,6.6875 L11,9.3125 L13.625,9.3125 Z M26.3125,25.3125 L26.3125,12 L16.3125,12 L16.3125,14.6875 L19,14.6875 L19,17.3125 L16.3125,17.3125 L16.3125,20 L19,20 L19,22.6875 L16.3125,22.6875 L16.3125,25.3125 L26.3125,25.3125 Z M24,14.6875 L24,17.3125 L21.3125,17.3125 L21.3125,14.6875 L24,14.6875 Z M24,20 L24,22.6875 L21.3125,22.6875 L21.3125,20 L24,20 Z" id="↳-🎨-Fill" fill="#181C21"></path>
    </g>
</svg>