<?xml version="1.0" encoding="UTF-8"?>
<svg width="32px" height="32px" viewBox="0 0 32 32" version="1.1" xmlns="http://www.w3.org/2000/svg" xmlns:xlink="http://www.w3.org/1999/xlink">
    <!-- Generator: Sketch 63.1 (92452) - https://sketch.com -->
    <title>Icons/ion-md-more</title>
    <desc>Created with Sketch.</desc>
    <g id="Icons/ion-md-more" stroke="none" stroke-width="1" fill="none" fill-rule="evenodd" fill-opacity="0.9">
        <path d="M17.75,6.75 C18.2500025,7.2500025 18.5,7.83333 18.5,8.5 C18.5,9.16667 18.2500025,9.7499975 17.75,10.25 C17.2499975,10.7500025 16.66667,11 16,11 C15.33333,11 14.7500025,10.7500025 14.25,10.25 C13.7499975,9.7499975 13.5,9.16667 13.5,8.5 C13.5,7.83333 13.7499975,7.2500025 14.25,6.75 C14.7500025,6.2499975 15.33333,6 16,6 C16.66667,6 17.2499975,6.2499975 17.75,6.75 Z M17.75,21.75 C18.2500025,22.2500025 18.5,22.83333 18.5,23.5 C18.5,24.16667 18.2500025,24.7499975 17.75,25.25 C17.2499975,25.7500025 16.66667,26 16,26 C15.33333,26 14.7500025,25.7500025 14.25,25.25 C13.7499975,24.7499975 13.5,24.16667 13.5,23.5 C13.5,22.83333 13.7499975,22.2500025 14.25,21.75 C14.7500025,21.2499975 15.33333,21 16,21 C16.66667,21 17.2499975,21.2499975 17.75,21.75 Z M17.75,14.25 C18.2500025,14.7500025 18.5,15.33333 18.5,16 C18.5,16.66667 18.2500025,17.2499975 17.75,17.75 C17.2499975,18.2500025 16.66667,18.5 16,18.5 C15.33333,18.5 14.7500025,18.2500025 14.25,17.75 C13.7499975,17.2499975 13.5,16.66667 13.5,16 C13.5,15.33333 13.7499975,14.7500025 14.25,14.25 C14.7500025,13.7499975 15.33333,13.5 16,13.5 C16.66667,13.5 17.2499975,13.7499975 17.75,14.25 Z" id="↳-🎨-Fill" fill="#181C21"></path>
    </g>
</svg>