<?xml version="1.0" encoding="UTF-8"?>
<svg width="32px" height="32px" viewBox="0 0 32 32" version="1.1" xmlns="http://www.w3.org/2000/svg" xmlns:xlink="http://www.w3.org/1999/xlink">
    <!-- Generator: Sketch 63.1 (92452) - https://sketch.com -->
    <title>Icons/ion-ios-albums</title>
    <desc>Created with Sketch.</desc>
    <g id="Icons/ion-ios-albums" stroke="none" stroke-width="1" fill="none" fill-rule="evenodd" fill-opacity="0.9">
        <path d="M28.8125,10.0625 C29.3958363,10.0625 29.9062478,10.2812478 30.34375,10.71875 C30.7812522,11.1562522 31,11.6666638 31,12.25 L31,26.75 C31,27.3333362 30.7812522,27.8437478 30.34375,28.28125 C29.9062478,28.7187522 29.3958363,28.9375 28.8125,28.9375 L3.1875,28.9375 C2.60416375,28.9375 2.09375219,28.7187522 1.65625,28.28125 C1.21874781,27.8437478 1,27.3333362 1,26.75 L1,12.25 C1,11.6666638 1.21874781,11.1562522 1.65625,10.71875 C2.09375219,10.2812478 2.60416375,10.0625 3.1875,10.0625 L28.8125,10.0625 Z M27.125,8.3125 L4.875,8.3125 C4.29166375,8.3125 4,8.02083625 4,7.4375 C4,6.85416375 4.29166375,6.5625 4.875,6.5625 L27.125,6.5625 C27.7083363,6.5625 28,6.85416375 28,7.4375 C28,8.02083625 27.7083363,8.3125 27.125,8.3125 Z M25.1875,4.8125 L6.8125,4.8125 C6.27083063,4.8125 6,4.54166938 6,4 L6,3.875 C6,3.33333063 6.27083063,3.0625 6.8125,3.0625 L25.1875,3.0625 C25.7291694,3.0625 26,3.33333063 26,3.875 L26,4 C26,4.54166938 25.7291694,4.8125 25.1875,4.8125 Z" id="↳-🎨-Fill" fill="#181C21"></path>
    </g>
</svg>