<?xml version="1.0" encoding="UTF-8"?>
<svg width="32px" height="32px" viewBox="0 0 32 32" version="1.1" xmlns="http://www.w3.org/2000/svg" xmlns:xlink="http://www.w3.org/1999/xlink">
    <!-- Generator: Sketch 63.1 (92452) - https://sketch.com -->
    <title>Icons/ion-md-cube</title>
    <desc>Created with Sketch.</desc>
    <g id="Icons/ion-md-cube" stroke="none" stroke-width="1" fill="none" fill-rule="evenodd" fill-opacity="0.9">
        <path d="M29.1875,10.5 C29.3958344,10.5 29.5833325,10.5729159 29.75,10.71875 C29.9166675,10.8645841 30,11.0416656 30,11.25 L30,22.6875 C30,23.35417 29.7083363,23.8333319 29.125,24.125 L18.1875,29.875 L18.1875,29.9375 C18.1041662,29.9791669 17.9791675,30 17.8125,30 C17.6041656,30 17.4166675,29.9270841 17.25,29.78125 C17.0833325,29.6354159 17,29.4583344 17,29.25 L17,17.6875 C17,17.1041637 17.2499975,16.645835 17.75,16.3125 L17.8125,16.3125 L28.875,10.5625 C28.9583338,10.5208331 29.0624994,10.5 29.1875,10.5 Z M28.375,7.375 C28.708335,7.5416675 28.875,7.74999875 28.875,8 C28.875,8.1666675 28.8333338,8.30208281 28.75,8.40625 C28.6666662,8.51041719 28.5833338,8.58333312 28.5,8.625 L28.375,8.6875 L16.8125,14.8125 C16.5624988,14.9375006 16.2916681,15 16,15 C15.7083319,15 15.4375013,14.9375006 15.1875,14.8125 L3.625,8.75 C3.291665,8.54166563 3.125,8.29166813 3.125,8 C3.125,7.87499938 3.16666625,7.76041719 3.25,7.65625 C3.33333375,7.55208281 3.41666625,7.47916688 3.5,7.4375 L3.625,7.375 L15,2.3125 C15.4166687,2.10416563 15.7499987,2 16,2 L17.0625,2.3125 L28.375,7.375 Z M14.25,16.3125 C14.7500025,16.645835 15,17.1041637 15,17.6875 L15,29.25 C15,29.4583344 14.9166675,29.6354159 14.75,29.78125 C14.5833325,29.9270841 14.3958344,30 14.1875,30 C14.1041662,30 13.9791675,29.9583338 13.8125,29.875 L2.875,24.125 L2.875,24.0625 C2.29166375,23.7708319 2,23.3125031 2,22.6875 L2,11.25 C2,11.0416656 2.0833325,10.8645841 2.25,10.71875 C2.4166675,10.5729159 2.60416563,10.5 2.8125,10.5 C2.93750063,10.5 3.04166625,10.5208331 3.125,10.5625 L14.25,16.3125 Z" id="↳-🎨-Fill" fill="#181C21"></path>
    </g>
</svg>