<?xml version="1.0" encoding="UTF-8"?>
<svg width="32px" height="32px" viewBox="0 0 32 32" version="1.1" xmlns="http://www.w3.org/2000/svg" xmlns:xlink="http://www.w3.org/1999/xlink">
    <!-- Generator: Sketch 63.1 (92452) - https://sketch.com -->
    <title>Icons/ion-ios-arrow-up</title>
    <desc>Created with Sketch.</desc>
    <defs>
        <path d="M16,13.625 L8.0625,21.5625 C7.77083187,21.8541681 7.41666875,22 7,22 C6.58333125,22 6.22916812,21.8541681 5.9375,21.5625 C5.64583187,21.2708319 5.5,20.9166687 5.5,20.5 C5.5,20.0833312 5.64583187,19.7291681 5.9375,19.4375 L15,10.375 C15.66667,9.70833 16.3541631,9.72916312 17.0625,10.4375 L26.0625,19.4375 C26.3541681,19.7291681 26.5,20.0833312 26.5,20.5 C26.5,20.9166687 26.3541681,21.2708319 26.0625,21.5625 C25.7708319,21.8541681 25.4166687,22 25,22 C24.5833313,22 24.2291681,21.8541681 23.9375,21.5625 L16,13.625 Z" id="path-1"></path>
    </defs>
    <g id="Icons/ion-ios-arrow-up" stroke="none" stroke-width="1" fill="none" fill-rule="evenodd">
        <mask id="mask-2" fill="white">
            <use xlink:href="#path-1"></use>
        </mask>
        <use id="↳-🎨-Fill" fill-opacity="0.9" fill="#181C21" xlink:href="#path-1"></use>
    </g>
</svg>