<?xml version="1.0" encoding="UTF-8"?>
<svg width="32px" height="32px" viewBox="0 0 32 32" version="1.1" xmlns="http://www.w3.org/2000/svg" xmlns:xlink="http://www.w3.org/1999/xlink">
    <!-- Generator: Sketch 63.1 (92452) - https://sketch.com -->
    <title>Icons/ion-md-link</title>
    <desc>Created with Sketch.</desc>
    <g id="Icons/ion-md-link" stroke="none" stroke-width="1" fill="none" fill-rule="evenodd" fill-opacity="0.9">
        <path d="M5.9375,13 C5.1041625,13.8333375 4.6875,14.8333275 4.6875,16 C4.6875,17.1666725 5.11457906,18.1770791 5.96875,19.03125 C6.82292094,19.8854209 7.8333275,20.3125 9,20.3125 L14.5,20.3125 L14.5,23 L9,23 C7.08332375,23 5.43750687,22.3125069 4.0625,20.9375 C2.68749312,19.5624931 2,17.9166763 2,16 C2,14.0833237 2.68749312,12.4375069 4.0625,11.0625 C5.43750687,9.68749312 7.08332375,9 9,9 L14.5,9 L14.5,11.6875 L9,11.6875 C7.8333275,11.6875 6.81250437,12.1249956 5.9375,13 Z M10,17.375 L10,14.625 L22,14.625 L22,17.375 L10,17.375 Z M23,9 C24.9166762,9 26.5624931,9.68749312 27.9375,11.0625 C29.3125069,12.4375069 30,14.0833237 30,16 C30,17.9166763 29.3125069,19.5624931 27.9375,20.9375 C26.5624931,22.3125069 24.9166762,23 23,23 L17.5,23 L17.5,20.3125 L23,20.3125 C24.1666725,20.3125 25.1770791,19.8854209 26.03125,19.03125 C26.8854209,18.1770791 27.3125,17.1666725 27.3125,16 C27.3125,14.8333275 26.8854209,13.8229209 26.03125,12.96875 C25.1770791,12.1145791 24.1666725,11.6875 23,11.6875 L17.5,11.6875 L17.5,9 L23,9 Z" id="↳-🎨-Fill" fill="#181C21"></path>
    </g>
</svg>