<?xml version="1.0" encoding="UTF-8"?>
<svg width="32px" height="32px" viewBox="0 0 32 32" version="1.1" xmlns="http://www.w3.org/2000/svg" xmlns:xlink="http://www.w3.org/1999/xlink">
    <!-- Generator: Sketch 63.1 (92452) - https://sketch.com -->
    <title>Icons/ion-md-female</title>
    <desc>Created with Sketch.</desc>
    <g id="Icons/ion-md-female" stroke="none" stroke-width="1" fill="none" fill-rule="evenodd" fill-opacity="0.9">
        <path d="M25,11 C25,13.2083444 24.2812572,15.1562416 22.84375,16.84375 C21.4062428,18.5312584 19.6250106,19.541665 17.5,19.875 L17.5,23 L22,23 L22,26 L17.5,26 L17.5,30 L14.5,30 L14.5,26 L10,26 L10,23 L14.5,23 L14.5,19.875 C12.3749894,19.541665 10.5937572,18.5312584 9.15625,16.84375 C7.71874281,15.1562416 7,13.2083444 7,11 C7,8.4999875 7.87499125,6.37500875 9.625,4.625 C11.3750087,2.87499125 13.4999875,2 16,2 C18.5000125,2 20.6249913,2.87499125 22.375,4.625 C24.1250087,6.37500875 25,8.4999875 25,11 Z M11.75,6.75 C10.5833275,7.9166725 10,9.333325 10,11 C10,12.666675 10.5833275,14.0833275 11.75,15.25 C12.9166725,16.4166725 14.333325,17 16,17 C17.666675,17 19.0833275,16.4166725 20.25,15.25 C21.4166725,14.0833275 22,12.666675 22,11 C22,9.333325 21.4166725,7.9166725 20.25,6.75 C19.0833275,5.5833275 17.666675,5 16,5 C14.333325,5 12.9166725,5.5833275 11.75,6.75 Z" id="↳-🎨-Fill" fill="#181C21"></path>
    </g>
</svg>