<?xml version="1.0" encoding="UTF-8"?>
<svg width="32px" height="32px" viewBox="0 0 32 32" version="1.1" xmlns="http://www.w3.org/2000/svg" xmlns:xlink="http://www.w3.org/1999/xlink">
    <!-- Generator: Sketch 63.1 (92452) - https://sketch.com -->
    <title>Icons/ion-ios-return-right</title>
    <desc>Created with Sketch.</desc>
    <g id="Icons/ion-ios-return-right" stroke="none" stroke-width="1" fill="none" fill-rule="evenodd" fill-opacity="0.9">
        <path d="M27.625,16.5625 C27.8750013,16.8125013 28,17.1458313 28,17.5625 C28,17.895835 27.8541681,18.2083319 27.5625,18.5 L24,22.125 C23.8333325,22.2916675 23.6250013,22.375 23.375,22.375 C23.2083325,22.375 23,22.2916675 22.75,22.125 C22.5833325,21.9583325 22.5,21.7500013 22.5,21.5 C22.5,21.2499987 22.5833325,21.0416675 22.75,20.875 L25.25,18.375 L8.875,18.375 C7.54166,18.375 6.39583812,17.8958381 5.4375,16.9375 C4.47916187,15.9791619 4,14.83334 4,13.5 L4,10.5 C4,9.91666375 4.29166375,9.625 4.875,9.625 C5.45833625,9.625 5.75,9.91666375 5.75,10.5 L5.75,13.5 C5.75,14.3333375 6.06249688,15.0624969 6.6875,15.6875 C7.31250312,16.3125031 8.0416625,16.625 8.875,16.625 L25.1875,16.625 L22.625,14.125 C22.4583325,13.9583325 22.375,13.7500013 22.375,13.5 C22.375,13.2499987 22.4583325,13.0416675 22.625,12.875 C22.7916675,12.7083325 23,12.625 23.25,12.625 C23.5,12.625 23.7083325,12.7083325 23.875,12.875 L27.625,16.5625 Z" id="↳-🎨-Fill" fill="#181C21"></path>
    </g>
</svg>