<?xml version="1.0" encoding="UTF-8"?>
<svg width="32px" height="32px" viewBox="0 0 32 32" version="1.1" xmlns="http://www.w3.org/2000/svg" xmlns:xlink="http://www.w3.org/1999/xlink">
    <!-- Generator: Sketch 63.1 (92452) - https://sketch.com -->
    <title>Icons/ion-md-health</title>
    <desc>Created with Sketch.</desc>
    <g id="Icons/ion-md-health" stroke="none" stroke-width="1" fill="none" fill-rule="evenodd" fill-opacity="0.9">
        <path d="M26.3850297,14.0806331 C26.5716341,13.9802167 26.8045059,14.0500271 26.9049734,14.2367339 C27.9085226,16.1011407 29.0857787,18.66621 28.9950355,20.2983081 C28.9043435,21.930918 27.2539227,23.6717749 24.089631,25.4725642 C21.7236543,26.8190746 19.1168729,27.8435567 18.029541,28.1731085 C17.3067175,28.3921615 15.7223197,28.5337782 13.7913269,28.5519473 L13.7913269,28.5519473 C13.5773408,28.5519473 13.4058858,28.3824372 13.4038723,28.1716755 C13.4018937,27.9597366 13.5721204,27.7862344 13.7841104,27.7842383 C15.6183719,27.7669905 17.1598291,27.6344839 17.8069054,27.4383599 C18.6976526,27.1684334 21.3126229,26.169644 23.7099733,24.8053228 C26.5917993,23.1652917 28.1542918,21.5920001 28.2285548,20.2557258 C28.2906369,19.1379927 27.5618252,17.0767965 26.22898,14.6005768 C26.1284613,14.4139211 26.1983229,14.1811518 26.3850297,14.0806331 Z M13.6555447,4.32550861 C14.4238167,3.90603242 15.8104015,4.0020984 16.5685397,4.09683369 C17.7740987,4.24730465 18.929859,4.57501403 19.6601037,4.97335262 C21.4974872,5.97557111 24.3040265,9.76989597 26.1340912,12.8711332 C26.2418775,13.0536944 26.1811774,13.2890739 25.9986162,13.3967579 C25.8161061,13.5045954 25.5807777,13.4438952 25.4729402,13.2612829 C23.3335912,9.63590516 20.7343845,6.43368864 19.2925247,5.64724757 C17.9040974,4.88997943 14.9003081,4.52040433 14.0234821,4.99930119 C13.8519247,5.09296168 13.504869,5.70462102 13.3038828,6.94697887 C13.0695781,8.39523627 13.2056161,9.55683113 13.4724205,9.8431354 C13.6696706,10.0547672 13.9830494,10.0993455 14.2118778,10.0993455 L14.2118778,10.0993455 C14.8574187,10.0987313 15.6270214,9.75377408 16.0850366,9.26049547 C16.7249476,8.57145107 17.3555949,8.88902668 17.862334,9.14426433 C18.2942983,9.36178187 18.7837383,9.60821645 19.4987313,9.52898889 C19.73017,9.50329623 19.9415459,9.56962628 20.1095718,9.72086495 C20.5963504,10.1591244 20.6141101,11.1939961 20.6035669,12.9852659 C20.5931772,14.7499218 20.5802797,16.9461324 21.3465556,18.0495349 C21.4536766,18.2038445 21.4334091,18.4129684 21.2987018,18.5438372 C21.1639433,18.6746548 20.9543075,18.688883 20.8031712,18.5772581 C20.7922698,18.5691716 19.6449031,17.7373845 17.9653606,17.399439 C15.7783624,16.9594906 13.740351,17.5206858 11.9055265,19.066084 C11.8814716,19.1080009 11.8491767,19.1460793 11.8086416,19.1776065 L11.8086416,19.1776065 L10.4267655,20.2523991 C10.2616057,20.3809136 10.0164506,20.3501029 9.88814086,20.1850966 C9.75793742,20.0177872 9.78808279,19.7766242 9.95544335,19.646472 L9.95544335,19.646472 L10.9772128,18.8517396 C10.6780622,18.6148758 10.1836576,18.2696627 9.56534483,18.0086416 C8.22267301,17.4418165 6.94443755,17.5196622 5.76595309,18.2398756 C4.43049773,19.0560014 3.65168256,20.8660033 3.78178364,22.8510428 C3.90645958,24.7539375 4.83666696,26.3144851 6.20933062,26.9235854 C7.24778496,27.3844667 9.51047923,27.7015305 12.2621018,27.7718015 C12.4740406,27.7772778 12.6414523,27.9534414 12.6360272,28.1653291 C12.6307044,28.3739412 12.4599148,28.5394081 12.2524798,28.5394081 L12.2524798,28.5394081 L12.2424996,28.5394081 C10.8754146,28.5044005 7.52052637,28.3453824 5.89794785,27.6253226 C4.26354662,26.8999911 3.15917166,25.0898869 3.01571244,22.901251 C2.94610683,21.8389976 3.10891231,20.7926615 3.48657395,19.8751981 C3.89755416,18.8768693 4.54729186,18.0849007 5.36556727,17.5847639 C6.7551717,16.7354731 8.31940434,16.6413008 9.88906212,17.3120225 C10.6621962,17.6424445 11.2534857,18.0798339 11.5722896,18.3451029 C14.0471787,16.3476265 16.501749,16.3153315 18.1486895,16.6533282 C18.9688074,16.8216612 19.6664501,17.0925601 20.1920237,17.3442151 C19.8176376,16.0755504 19.8271572,14.4545585 19.8358067,12.9807108 C19.8400547,12.2575801 19.8440468,11.5746262 19.7948623,11.0615407 C19.7346739,10.4344249 19.616805,10.3088788 19.5958721,10.2912215 L19.5958721,10.2912215 L19.5834352,10.2919381 C18.642224,10.3965512 17.9918209,10.0690466 17.5169674,9.82987963 C16.9809018,9.55995315 16.8780799,9.53461875 16.6475625,9.78289584 C16.0462417,10.4305863 15.068334,10.8662356 14.214181,10.8670545 C13.6668045,10.865519 13.2164152,10.6945247 12.9107647,10.3665594 C12.3209594,9.73371128 12.3456285,8.06286946 12.5460005,6.82440133 C12.6714442,6.04896408 12.9824175,4.69308767 13.6555447,4.32550861 Z M9.67485622,9.27411414 L9.85763723,9.28117243 C10.543099,9.33880178 11.3297448,9.79625397 11.4817512,10.9075383 C11.5569355,11.4570132 11.4309288,12.0107873 11.1073651,12.5535064 C10.9987599,12.7356581 10.7631756,12.7952323 10.581075,12.6866271 C10.3989744,12.5780731 10.3394002,12.3424888 10.4479543,12.1603882 C10.6801606,11.7709038 10.772081,11.3843879 10.7211051,11.0116396 C10.6102479,10.2013484 10.0353363,10.0665899 9.79330322,10.04622 C9.3422486,10.0081928 8.9075206,10.237789 8.8038287,10.5687739 C8.75367172,10.7288668 8.60529916,10.8378303 8.43752916,10.8378303 C8.26970798,10.8378303 8.1213866,10.7288668 8.07122961,10.5687739 C7.96753772,10.237789 7.53280972,10.008244 7.0817551,10.04622 C6.83972205,10.0665387 6.26481039,10.2013484 6.15395321,11.0116396 C5.97702188,12.3049734 7.60712395,13.4739894 8.43527721,13.9220756 C8.66036948,13.7978091 9.08342831,13.5465123 9.50602652,13.2005315 C9.67000915,13.0661824 9.91188866,13.0903397 10.0461866,13.2543735 C10.1804844,13.4184073 10.1563784,13.6602868 9.99234456,13.7945335 C9.3965478,14.2823665 8.81289881,14.5944797 8.64946022,14.6779995 L8.60535034,14.700123 C8.50027657,14.7511501 8.37473056,14.7511501 8.26965679,14.700123 C8.13970925,14.636915 5.08970384,13.1268826 5.39335833,10.9075383 C5.54536471,9.79630515 6.33201051,9.33880178 7.01747227,9.28117243 C7.56976211,9.23444454 8.09083178,9.42084428 8.43758034,9.75530949 C8.78438007,9.42084428 9.30519385,9.23444454 9.85763723,9.28117243 Z" id="↳-🎨-Fill" fill="#181C21"></path>
    </g>
</svg>