<?xml version="1.0" encoding="UTF-8"?>
<svg width="32px" height="32px" viewBox="0 0 32 32" version="1.1" xmlns="http://www.w3.org/2000/svg" xmlns:xlink="http://www.w3.org/1999/xlink">
    <!-- Generator: Sketch 63.1 (92452) - https://sketch.com -->
    <title>Icons/ion-md-microwave</title>
    <desc>Created with Sketch.</desc>
    <g id="Icons/ion-md-microwave" stroke="none" stroke-width="1" fill="none" fill-rule="evenodd" fill-opacity="0.9">
        <path d="M27.6803456,8 L4.31965443,8 C3.59199136,8 3,8.59199136 3,9.31965443 L3,22.7969762 C3,23.5246393 3.59199136,24.1166307 4.31965443,24.1166307 L27.6803456,24.1166307 C28.4080086,24.1166307 29,23.5246393 29,22.7969762 L29,9.31965443 C29,8.59199136 28.4080086,8 27.6803456,8 Z M22.7667387,8.84233261 L22.7667387,23.2742981 L4.31965443,23.2742981 C4.05645356,23.2742981 3.84233261,23.0601771 3.84233261,22.7969762 L3.84233261,9.31965443 C3.84233261,9.05645356 4.05645356,8.84233261 4.31965443,8.84233261 L22.7667387,8.84233261 Z M25.8833693,18.7818575 C26.8587343,18.7818575 27.6522678,19.5753909 27.6522678,20.5507559 C27.6522678,21.526121 26.8587343,22.3196544 25.8833693,22.3196544 C24.9080043,22.3196544 24.1144708,21.526121 24.1144708,20.5507559 C24.1144708,19.5753909 24.9080043,18.7818575 25.8833693,18.7818575 Z M25.0022894,20.2652613 C24.9730324,20.3552786 24.9568035,20.4511361 24.9568035,20.5507559 C24.9568035,21.0616587 25.3724665,21.4773218 25.8833693,21.4773218 C25.9830454,21.4773218 26.0788467,21.4610929 26.1688639,21.4318359 L26.1688639,21.4318359 Z M25.8833693,19.6241901 C25.7836933,19.6241901 25.687892,19.640419 25.5978747,19.669676 L25.5978747,19.669676 L26.7644492,20.8362505 C26.7937063,20.7462333 26.8099352,20.6503758 26.8099352,20.5507559 C26.8099352,20.0398531 26.3942721,19.6241901 25.8833693,19.6241901 Z M25.8833693,14.7386609 C26.8587343,14.7386609 27.6522678,15.5321944 27.6522678,16.5075594 C27.6522678,17.4829244 26.8587343,18.2764579 25.8833693,18.2764579 C24.9080043,18.2764579 24.1144708,17.4829244 24.1144708,16.5075594 C24.1144708,15.5321944 24.9080043,14.7386609 25.8833693,14.7386609 Z M25.0022894,16.222121 C24.9730324,16.3121382 24.9568035,16.4079395 24.9568035,16.5075594 C24.9568035,17.0184622 25.3724665,17.4341253 25.8833693,17.4341253 C25.9830454,17.4341253 26.0788467,17.4178963 26.1688639,17.3886393 L26.1688639,17.3886393 Z M25.8833693,15.5809935 C25.7836933,15.5809935 25.687892,15.5972225 25.5978747,15.6264795 L25.5978747,15.6264795 L26.7644492,16.7929978 C26.7937063,16.7029806 26.8099352,16.6071793 26.8099352,16.5075594 C26.8099352,15.9966566 26.3942721,15.5809935 25.8833693,15.5809935 Z M26.7818575,12.9416847 C27.0144536,12.9416847 27.2030238,13.1302549 27.2030238,13.362851 C27.2030238,13.5954471 27.0144536,13.7840173 26.7818575,13.7840173 L26.7818575,13.7840173 L24.9848812,13.7840173 C24.7522851,13.7840173 24.5637149,13.5954471 24.5637149,13.362851 C24.5637149,13.1302549 24.7522851,12.9416847 24.9848812,12.9416847 L24.9848812,12.9416847 Z M26.7818575,11.5939525 C27.0144536,11.5939525 27.2030238,11.7825227 27.2030238,12.0151188 C27.2030238,12.2477149 27.0144536,12.4362851 26.7818575,12.4362851 L26.7818575,12.4362851 L24.9848812,12.4362851 C24.7522851,12.4362851 24.5637149,12.2477149 24.5637149,12.0151188 C24.5637149,11.7825227 24.7522851,11.5939525 24.9848812,11.5939525 L24.9848812,11.5939525 Z M26.7818575,10.2462203 C27.0144536,10.2462203 27.2030238,10.4347905 27.2030238,10.6673866 C27.2030238,10.8999827 27.0144536,11.0885529 26.7818575,11.0885529 L26.7818575,11.0885529 L24.9848812,11.0885529 C24.7522851,11.0885529 24.5637149,10.8999827 24.5637149,10.6673866 C24.5637149,10.4347905 24.7522851,10.2462203 24.9848812,10.2462203 L24.9848812,10.2462203 Z M27.6803456,8.84233261 C27.9435464,8.84233261 28.1576674,9.05645356 28.1576674,9.31965443 L28.1576674,22.7969762 C28.1576674,23.0601771 27.9435464,23.2742981 27.6803456,23.2742981 L23.6090713,23.2742981 L23.6090713,8.84233261 L27.6803456,8.84233261 Z M21.3909287,10.2462203 C21.6235248,10.2462203 21.812095,10.4347905 21.812095,10.6673866 L21.812095,10.6673866 L21.812095,21.4492441 C21.812095,21.6818402 21.6235248,21.8704104 21.3909287,21.8704104 C21.1583326,21.8704104 20.9697624,21.6818402 20.9697624,21.4492441 L20.9697624,21.4492441 L20.9697624,10.6673866 C20.9697624,10.4347905 21.1583326,10.2462203 21.3909287,10.2462203 Z M19.5939525,10.2462203 C19.8265486,10.2462203 20.0151188,10.4347905 20.0151188,10.6673866 L20.0151188,10.6673866 L20.0151188,21.4492441 C20.0151188,21.6818402 19.8265486,21.8704104 19.5939525,21.8704104 L19.5939525,21.8704104 L5.66738661,21.8704104 C5.4347905,21.8704104 5.2462203,21.6818402 5.2462203,21.4492441 L5.2462203,21.4492441 L5.2462203,10.6673866 C5.2462203,10.4347905 5.4347905,10.2462203 5.66738661,10.2462203 L5.66738661,10.2462203 Z M19.1727862,11.0885529 L6.08855292,11.0885529 L6.08855292,21.0280778 L19.1727862,21.0280778 L19.1727862,11.0885529 Z" id="↳-🎨-Fill" fill="#181C21"></path>
    </g>
</svg>