<?xml version="1.0" encoding="UTF-8"?>
<svg width="32px" height="32px" viewBox="0 0 32 32" version="1.1" xmlns="http://www.w3.org/2000/svg" xmlns:xlink="http://www.w3.org/1999/xlink">
    <!-- Generator: Sketch 63.1 (92452) - https://sketch.com -->
    <title>Icons/ion-ios-water</title>
    <desc>Created with Sketch.</desc>
    <g id="Icons/ion-ios-water" stroke="none" stroke-width="1" fill="none" fill-rule="evenodd" fill-opacity="0.9">
        <path d="M22,9.125 C24.66668,12.8750188 26,16.5208156 26,20.0625 C26,22.5208456 25.0208431,24.6249912 23.0625,26.375 C21.1041569,28.1250087 18.7500138,29 16,29 C12.3749819,29 9.58334313,27.6458469 7.625,24.9375 C7.291665,24.4791644 6.97916812,23.9375031 6.6875,23.3125 C6.22916437,22.2708281 6,21.1875056 6,20.0625 L6,19.8125 C6.04166688,16.3541494 7.37498688,12.791685 10,9.125 C11.7916756,6.6249875 13.68749,4.6250075 15.6875,3.125 C15.8958344,2.99999937 16.1041656,2.99999937 16.3125,3.125 C18.5208444,4.87500875 20.4166587,6.87498875 22,9.125 Z M16.625,25.6875 C18.3333419,25.6875 19.8020772,25.1145891 21.03125,23.96875 C22.2604228,22.8229109 22.875,21.4375081 22.875,19.8125 L22.875,19.75 C22.875,19.4583319 22.7291681,19.2812503 22.4375,19.21875 C22.1458319,19.1562497 21.9375006,19.2708319 21.8125,19.5625 C20.7708281,22.1458463 18.9791794,23.8333294 16.4375,24.625 C16.1458319,24.7083338 16.0312497,24.9062484 16.09375,25.21875 C16.1562503,25.5312516 16.3333319,25.6875 16.625,25.6875 Z" id="↳-🎨-Fill" fill="#181C21"></path>
    </g>
</svg>