<?xml version="1.0" encoding="UTF-8"?>
<svg width="32px" height="32px" viewBox="0 0 32 32" version="1.1" xmlns="http://www.w3.org/2000/svg" xmlns:xlink="http://www.w3.org/1999/xlink">
    <!-- Generator: Sketch 63.1 (92452) - https://sketch.com -->
    <title>Icons/ion-md-globe</title>
    <desc>Created with Sketch.</desc>
    <g id="Icons/ion-md-globe" stroke="none" stroke-width="1" fill="none" fill-rule="evenodd" fill-opacity="0.9">
        <path d="M6.8125,6.8125 C9.35417938,4.27082062 12.4166488,3 16,3 C19.5833512,3 22.6458206,4.27082062 25.1875,6.8125 C27.7291794,9.35417938 29,12.4166488 29,16 C29,19.5833512 27.7291794,22.6458206 25.1875,25.1875 C22.6458206,27.7291794 19.5833512,29 16,29 C12.4166488,29 9.35417938,27.7291794 6.8125,25.1875 C4.27082063,22.6458206 3,19.5833512 3,16 C3,12.4166488 4.27082063,9.35417938 6.8125,6.8125 Z M14.625,27.0625 L15.3125,25.6875 C15.3958338,25.5208325 15.4375,25.3437509 15.4375,25.15625 C15.4375,24.9687491 15.3333344,24.7916675 15.125,24.625 C14.45833,24.0416637 13.9791681,23.6041681 13.6875,23.3125 C13.6041662,23.2291662 13.4791675,22.9895853 13.3125,22.59375 C13.1458325,22.1979147 13.0833331,21.9583338 13.125,21.875 C13.3333344,21.4999981 13.4999994,21.0000031 13.625,20.375 C13.7500006,19.8749975 13.47917,19.4166687 12.8125,19 C12.5208319,18.8333325 12.2291681,18.6250013 11.9375,18.375 C11.6458319,18.1249988 11.3229184,17.8541681 10.96875,17.5625 C10.6145816,17.2708319 10.3333344,17.0416675 10.125,16.875 C9.375,16.3333306 8.95833375,15.9375013 8.875,15.6875 C8.49999812,14.6041613 8.29166688,14.0208338 8.25,13.9375 C7.875,13.3958306 7.64583375,12.8229197 7.5625,12.21875 C7.47916625,11.6145803 7.49999937,10.97917 7.625,10.3125 C7.625,10.0208319 7.58333375,9.50000375 7.5,8.75 C5.74999125,10.75 4.875,13.1666525 4.875,16 C4.875,19.0833487 5.9583225,21.7083225 8.125,23.875 C9.91667562,25.6666756 12.0833206,26.729165 14.625,27.0625 Z M23.875,23.875 C25.3333406,22.4166594 26.3124975,20.7083431 26.8125,18.75 L25.625,18.625 C24.7499956,17.624995 24.2708338,16.6875044 24.1875,15.8125 C24.1458331,15.4374981 24.125,14.8541706 24.125,14.0625 C24.125,13.2708294 24.0833337,12.6666687 24,12.25 C23.9166662,11.8749981 23.6354191,11.35417 23.15625,10.6875 C22.6770809,10.02083 22.3958338,9.58333437 22.3125,9.375 C22.1875,9.08333187 21.9895847,8.64583625 21.71875,8.0625 C21.4479153,7.47916375 21.2291675,7.04166813 21.0625,6.75 C21.1041669,6.75 21.1770828,6.77083312 21.28125,6.8125 C21.3854172,6.85416688 21.4583331,6.89583312 21.5,6.9375 C21.9166687,6.85416625 22.2083325,6.8125 22.375,6.8125 C21.04166,5.85416187 19.4583425,5.25000125 17.625,5 L17.625,5.5 L17.875,6.0625 L17,6.875 L16.4375,6.6875 L15.8125,6.0625 L15.1875,5.3125 L14.3125,5 C13.4374956,5.12500062 12.500005,5.39583125 11.5,5.8125 L11.5,6.25 C11.6250006,6.16666625 11.854165,6.08333375 12.1875,6 C12.520835,5.91666625 12.7708325,5.83333375 12.9375,5.75 C13.0208337,5.70833312 13.3541637,5.89583125 13.9375,6.3125 C13.8958331,6.35416688 13.6666687,6.55208156 13.25,6.90625 C12.8333313,7.26041844 12.6041669,7.5 12.5625,7.625 C12.5625,7.66666688 12.6354159,7.76041594 12.78125,7.90625 C12.9270841,8.05208406 13,8.16666625 13,8.25 C13,8.37500062 12.9895834,8.55208219 12.96875,8.78125 C12.9479166,9.01041781 12.9375,9.18749938 12.9375,9.3125 C13.8125044,8.43749563 14.2708331,8 14.3125,8 C14.6875,7.91666625 15.1458306,8.09374781 15.6875,8.53125 C16.2291694,8.96875219 16.5416662,9.33333187 16.625,9.625 C16.6666669,9.75000062 16.5833344,9.92708219 16.375,10.15625 C16.1666656,10.3854178 15.8333356,10.6874981 15.375,11.0625 C14.9166644,11.4375019 14.6458338,11.6666662 14.5625,11.75 C14.4791662,11.8333338 14.2916681,11.9687491 14,12.15625 C13.7083319,12.3437509 13.5000006,12.5208325 13.375,12.6875 C13.2499994,12.8541675 13.2291663,13.0416656 13.3125,13.25 C13.7291687,14.0833375 13.8333344,14.5833325 13.625,14.75 C13.5416663,14.8333338 13.4375006,14.8437503 13.3125,14.78125 C13.1875,14.7187497 13.0937503,14.6458338 13.03125,14.5625 C12.9687497,14.4791662 12.8854172,14.3750006 12.78125,14.25 C12.6770828,14.1249994 12.6041669,14.0416669 12.5625,14 C12.3124987,13.7083319 11.52084,13.5625 10.1875,13.5625 C10.1875,14.89584 10.4999969,15.7916644 11.125,16.25 C12.8333419,17.5 13.8124987,18.1874994 14.0625,18.3125 C14.3125013,18.4375006 14.8124962,18.4375006 15.5625,18.3125 C16.3125038,18.1874994 16.7916656,18.2083325 17,18.375 C18.3750069,19.3333381 19.3541637,19.9374988 19.9375,20.1875 C20.3125019,20.3125006 20.7291644,20.5937478 21.1875,21.03125 C21.6458356,21.4687522 21.7708344,21.8333319 21.5625,22.125 C21.0208306,22.9583375 20.7291669,23.4374994 20.6875,23.5625 C20.354165,24.2708369 19.9375025,24.791665 19.4375,25.125 C18.8958306,25.5416687 18.458335,26.1458294 18.125,26.9375 C20.3750113,26.4791644 22.2916587,25.4583413 23.875,23.875 Z" id="↳-🎨-Fill" fill="#181C21"></path>
    </g>
</svg>