<?xml version="1.0" encoding="UTF-8"?>
<svg width="32px" height="32px" viewBox="0 0 32 32" version="1.1" xmlns="http://www.w3.org/2000/svg" xmlns:xlink="http://www.w3.org/1999/xlink">
    <!-- Generator: Sketch 63.1 (92452) - https://sketch.com -->
    <title>Icons/ion-logo-skype</title>
    <desc>Created with Sketch.</desc>
    <g id="Icons/ion-logo-skype" stroke="none" stroke-width="1" fill="none" fill-rule="evenodd" fill-opacity="0.9">
        <path d="M27.3125,18.5625 C27.7708356,19.4791713 28,20.437495 28,21.4375 C28,23.2708425 27.3541731,24.8229103 26.0625,26.09375 C24.7708269,27.3645897 23.2083425,28 21.375,28 C20.2083275,28 19.1666713,27.7500025 18.25,27.25 C17.58333,27.3750006 16.8750038,27.4375 16.125,27.4375 C12.9583175,27.4375 10.2604278,26.3333444 8.03125,24.125 C5.80207219,21.9166556 4.6875,19.2500156 4.6875,16.125 C4.6875,15.6249975 4.7708325,14.875005 4.9375,13.875 C4.31249687,12.7499944 4,11.6458387 4,10.5625 C4,8.7291575 4.64582688,7.17708969 5.9375,5.90625 C7.22917312,4.63541031 8.7916575,4 10.625,4 C11.9166731,4 13.1041612,4.33333 14.1875,5 C14.6041687,4.91666625 15.2499956,4.875 16.125,4.875 C19.2916825,4.875 21.9895722,5.96873906 24.21875,8.15625 C26.4479278,10.3437609 27.5625,12.9999844 27.5625,16.125 C27.5625,17.0833381 27.4791675,17.89583 27.3125,18.5625 Z M22,21.5 C22.5000025,20.83333 22.75,20.000005 22.75,19 C22.75,18.2083294 22.6041681,17.5416694 22.3125,17 C22.0208319,16.4583306 21.5833362,16.0000019 21,15.625 C20.5416644,15.3333319 19.8958375,15.0416681 19.0625,14.75 C18.4791637,14.5833325 17.6250056,14.3750013 16.5,14.125 C15.6666625,13.9166656 15.1458344,13.7916669 14.9375,13.75 L14,13.375 C13.875,13.3333331 13.6666681,13.1666681 13.375,12.875 C13.2083325,12.6249987 13.125,12.4166675 13.125,12.25 C13.125,11.7916644 13.3541644,11.4166681 13.8125,11.125 C14.2708356,10.8333319 14.9374956,10.6875 15.8125,10.6875 C16.7708381,10.6875 17.416665,10.8333319 17.75,11.125 C18.0416681,11.3750013 18.375,11.7916638 18.75,12.375 C18.9166675,12.6666681 19.1458319,12.9583319 19.4375,13.25 C19.7291681,13.4583344 20.0624981,13.5625 20.4375,13.5625 C20.8541687,13.5625 21.229165,13.395835 21.5625,13.0625 C21.895835,12.729165 22.0625,12.3750019 22.0625,12 C22.0625,11.5833313 21.9375013,11.1458356 21.6875,10.6875 C21.3958319,10.2291644 21.0208356,9.81250188 20.5625,9.4375 C20.0624975,9.06249812 19.4375037,8.75000125 18.6875,8.5 C18.0624969,8.29166563 17.1666725,8.1875 16,8.1875 C14.6249931,8.1875 13.5208375,8.354165 12.6875,8.6875 C11.7291619,9.06250187 10.9791694,9.58333 10.4375,10.25 C9.9374975,10.91667 9.6875,11.6666625 9.6875,12.5 C9.6875,13.4166713 9.91666437,14.1666638 10.375,14.75 C10.7916687,15.2916694 11.4583287,15.7708313 12.375,16.1875 C13.2916713,16.5625019 14.2916613,16.8541656 15.375,17.0625 C16.6250063,17.3125013 17.3333325,17.4791662 17.5,17.5625 C17.9583356,17.6875 18.354165,17.916665 18.6875,18.25 C18.9791681,18.5000013 19.125,18.8541644 19.125,19.3125 C19.125,19.8958363 18.8541694,20.3749981 18.3125,20.75 C17.7708306,21.1250019 17.000005,21.3125 16,21.3125 C15.375,21.3125 14.8125025,21.2083344 14.3125,21 C13.9374981,20.8333325 13.6250013,20.6041681 13.375,20.3125 C13.1249987,19.979165 12.8958344,19.5833356 12.6875,19.125 C12.5208325,18.7499981 12.3125013,18.4375013 12.0625,18.1875 C11.8124987,17.9374987 11.4791687,17.8125 11.0625,17.8125 C10.5624975,17.8125 10.1666681,17.9583319 9.875,18.25 C9.541665,18.583335 9.375,18.9374981 9.375,19.3125 C9.375,20.0208369 9.6249975,20.70833 10.125,21.375 C10.5833356,22.0000031 11.2083294,22.5416644 12,23 C13.0833387,23.5833363 14.4374919,23.875 16.0625,23.875 C17.5208406,23.875 18.7291619,23.6666687 19.6875,23.25 C20.7708387,22.7916644 21.5416644,22.2083369 22,21.5 Z" id="↳-🎨-Fill" fill="#181C21"></path>
    </g>
</svg>