<?xml version="1.0" encoding="UTF-8"?>
<svg width="32px" height="32px" viewBox="0 0 32 32" version="1.1" xmlns="http://www.w3.org/2000/svg" xmlns:xlink="http://www.w3.org/1999/xlink">
    <!-- Generator: Sketch 63.1 (92452) - https://sketch.com -->
    <title>Icons/ion-logo-game-controller-b</title>
    <desc>Created with Sketch.</desc>
    <g id="Icons/ion-logo-game-controller-b" stroke="none" stroke-width="1" fill="none" fill-rule="evenodd" fill-opacity="0.9">
        <path d="M7.25,14 C7.25,13.2083294 7.64582937,12.8125 8.4375,12.8125 C9.22917063,12.8125 9.625,13.2083294 9.625,14 C9.625,14.7916706 9.22917063,15.1875 8.4375,15.1875 C7.64582937,15.1875 7.25,14.7916706 7.25,14 Z M29.125,15.5625 C29.79167,18.3125138 30.0833338,20.6145741 30,22.46875 C29.9166662,24.3229259 29.4791706,25.4374981 28.6875,25.8125 C28.4374987,25.9375006 28.1666681,26 27.875,26 C26.7916613,26 25.3958419,24.9166775 23.6875,22.75 C22.8958294,21.749995 22.1562534,21.1562509 21.46875,20.96875 C20.7812466,20.7812491 19.2083456,20.6875 16.75,20.6875 L15.25,20.6875 C12.7916544,20.6875 11.22917,20.7812491 10.5625,20.96875 C9.89583,21.1562509 9.16667062,21.749995 8.375,22.75 C6.58332438,24.9166775 5.16667188,26 4.125,26 C3.83333187,26 3.56250125,25.9375006 3.3125,25.8125 C2.52082937,25.4374981 2.08333375,24.3229259 2,22.46875 C1.91666625,20.6145741 2.20833,18.3125138 2.875,15.5625 C3.58333687,12.6458188 4.34374594,10.4583406 5.15625,9 C5.96875406,7.54165938 7.04166,6.62500188 8.375,6.25 C8.91666937,6.0833325 9.45833063,6 10,6 C10.4583356,6 11.2916606,6.15624844 12.5,6.46875 C13.7083394,6.78125156 14.8749944,6.9375 16,6.9375 C17.1250056,6.9375 18.2916606,6.78125156 19.5,6.46875 C20.7083394,6.15624844 21.5416644,6 22,6 C22.5416694,6 23.0833306,6.0833325 23.625,6.25 C24.95834,6.62500188 26.0312459,7.54165938 26.84375,9 C27.6562541,10.4583406 28.4166631,12.6458188 29.125,15.5625 Z M6.6875,15.8125 C7.1875025,16.2708356 7.77083,16.5 8.4375,16.5 C9.10417,16.5 9.67708094,16.2604191 10.15625,15.78125 C10.6354191,15.3020809 10.875,14.7083369 10.875,14 C10.875,13.2916631 10.6354191,12.6979191 10.15625,12.21875 C9.67708094,11.7395809 9.10417,11.5 8.4375,11.5 C7.77083,11.5 7.19791906,11.7395809 6.71875,12.21875 C6.23958094,12.6979191 6,13.2916631 6,14 C6,14.7083369 6.22916437,15.3124975 6.6875,15.8125 Z M18.375,14.875 C18.6250013,15.1250013 18.916665,15.25 19.25,15.25 C19.583335,15.25 19.8749987,15.1250013 20.125,14.875 C20.3750013,14.6249987 20.5,14.333335 20.5,14 C20.5,13.666665 20.3750013,13.3750013 20.125,13.125 C19.8749987,12.8749987 19.583335,12.75 19.25,12.75 C18.916665,12.75 18.6250013,12.8749987 18.375,13.125 C18.1249987,13.3750013 18,13.666665 18,14 C18,14.333335 18.1249987,14.6249987 18.375,14.875 Z M21.125,17.625 C21.3750013,17.8750013 21.666665,18 22,18 C22.333335,18 22.6249987,17.8750013 22.875,17.625 C23.1250013,17.3749987 23.25,17.083335 23.25,16.75 C23.25,16.416665 23.1250013,16.1250013 22.875,15.875 C22.6249987,15.6249987 22.333335,15.5 22,15.5 C21.666665,15.5 21.3750013,15.6249987 21.125,15.875 C20.8749987,16.1250013 20.75,16.416665 20.75,16.75 C20.75,17.083335 20.8749987,17.3749987 21.125,17.625 Z M21.125,12.125 C21.3750013,12.3750013 21.666665,12.5 22,12.5 C22.333335,12.5 22.6249987,12.3750013 22.875,12.125 C23.1250013,11.8749987 23.25,11.583335 23.25,11.25 C23.25,10.916665 23.1250013,10.6250013 22.875,10.375 C22.6249987,10.1249987 22.333335,10 22,10 C21.666665,10 21.3750013,10.1249987 21.125,10.375 C20.8749987,10.6250013 20.75,10.916665 20.75,11.25 C20.75,11.583335 20.8749987,11.8749987 21.125,12.125 Z M23.875,14.875 C24.1250013,15.1250013 24.416665,15.25 24.75,15.25 C25.083335,15.25 25.3749987,15.1250013 25.625,14.875 C25.8750013,14.6249987 26,14.333335 26,14 C26,13.666665 25.8750013,13.3750013 25.625,13.125 C25.3749987,12.8749987 25.083335,12.75 24.75,12.75 C24.416665,12.75 24.1250013,12.8749987 23.875,13.125 C23.6249987,13.3750013 23.5,13.666665 23.5,14 C23.5,14.333335 23.6249987,14.6249987 23.875,14.875 Z" id="↳-🎨-Fill" fill="#181C21"></path>
    </g>
</svg>