<?xml version="1.0" encoding="UTF-8"?>
<svg width="32px" height="32px" viewBox="0 0 32 32" version="1.1" xmlns="http://www.w3.org/2000/svg" xmlns:xlink="http://www.w3.org/1999/xlink">
    <!-- Generator: Sketch 63.1 (92452) - https://sketch.com -->
    <title>Icons/ion-ios-moon</title>
    <desc>Created with Sketch.</desc>
    <g id="Icons/ion-ios-moon" stroke="none" stroke-width="1" fill="none" fill-rule="evenodd" fill-opacity="0.9">
        <path d="M7.1357132,3.35600788 C8.22706599,2.44262784 9.44034405,1.67512501 10.74835,1.07691072 C11.1019125,0.914973221 11.5202875,1.01491072 11.7627875,1.31878572 C12.00535,1.62278572 12.0100375,2.05272322 11.773975,2.36172322 C9.9701,4.72328572 9.0165375,7.54578572 9.0165375,10.5237857 C9.0165375,16.4729732 12.89635,21.5331607 18.258725,23.3069107 L18.258725,23.3069107 L20.0621625,23.7667232 C20.845725,23.9090982 21.6526,23.9834732 22.47635,23.9834732 C25.4545375,23.9834732 28.2769125,23.0299732 30.6384125,21.2259732 C30.947475,20.9900357 31.3774125,20.9945982 31.6814125,21.2371607 C31.985225,21.4797857 32.0850375,21.8979732 31.9232875,22.2516607 C31.2006971,23.8314961 30.2312169,25.2731253 29.0560595,26.5286536 C29.0496559,26.5348956 29.0440429,26.5408835 29.0384251,26.5468672 C28.9445547,26.6474407 28.8488008,26.7468164 28.7517459,26.8449683 C28.7064427,26.8902601 28.6610786,26.9355985 28.6154361,26.9806706 C28.5561378,27.0397114 28.4963288,27.0978427 28.4360536,27.155518 C28.3930722,27.1962061 28.3497637,27.2371982 28.3062189,27.2779557 C28.2312196,27.3485547 28.1551556,27.4183681 28.0783927,27.4874679 C28.0396087,27.5220337 28.0009812,27.5564765 27.9621795,27.5907391 C27.8891048,27.6555731 27.8150927,27.7197153 27.7404648,27.7832038 C27.6919181,27.824249 27.6432153,27.8651971 27.5942549,27.9058672 C27.5351094,27.9552146 27.4755271,28.0039752 27.415572,28.0523251 C27.3525459,28.1029744 27.2893845,28.1531421 27.2258185,28.2028548 C27.1803125,28.2385859 27.1340768,28.2743348 27.0876307,28.3098435 C27.0110266,28.3682973 26.9342161,28.4259491 26.856845,28.4829449 C26.8435201,28.4928418 26.8302091,28.5026138 26.8168817,28.5123664 C26.5932359,28.6759869 26.3646111,28.8344333 26.1314875,28.9871982 L26.5049643,28.7349739 C26.3818541,28.8206456 26.2574114,28.9046973 26.1316625,28.9870982 C24.6193569,29.9779458 22.9637964,30.6970352 21.2290813,31.1253201 C21.0713559,31.1641844 20.9136515,31.2005679 20.7553462,31.2345534 C19.6560126,31.4706361 18.5277863,31.5910107 17.38655,31.5910107 C8.57655,31.5910107 1.40905,24.4235732 1.40905,15.6135732 C1.40905,15.3298346 1.4164906,15.0468997 1.43129887,14.765014 C1.45362653,14.3420229 1.49241839,13.9215551 1.54754177,13.5042765 L1.60797722,13.0882542 C1.89033758,11.3120346 2.47027562,9.59927927 3.32850262,8.0149215 C3.53966363,7.62511899 3.76804489,7.24244248 4.0130375,6.86853572 L3.85399375,7.117 L4.012925,6.86869822 C4.05091718,6.8107131 4.08926118,6.75300688 4.12795391,6.69558204 C4.17712885,6.6226034 4.22683725,6.55011199 4.27710093,6.47807815 C4.30945226,6.43173261 4.34238946,6.3850643 4.37556039,6.33859172 C4.42812109,6.26490193 4.48125032,6.19176402 4.53495832,6.11912166 C4.57775278,6.06134662 4.62062621,6.00417898 4.66385921,5.94732524 C4.7143601,5.88075512 4.76555291,5.81449152 4.81723432,5.74866352 C4.85786509,5.69712909 4.89872779,5.64575173 4.93988898,5.59464518 C5.00332824,5.51559301 5.0676037,5.43728532 5.132581,5.35963121 C5.16085767,5.32619323 5.18925532,5.29255084 5.21778498,5.25903281 C5.2977432,5.16467525 5.37877909,5.07163018 5.46083538,4.97957796 C5.47913933,4.95954206 5.49761374,4.93893237 5.51613936,4.91837286 C5.94141026,4.44572374 6.39360274,4.00012188 6.87038935,3.58303905 L6.87111788,3.58367373 Z M0.69818125,24.2621732 C1.08374375,24.2621732 1.39636875,24.5747982 1.39636875,24.9603607 C1.39636875,25.3459857 1.08374375,25.6585482 0.69818125,25.6585482 C0.31261875,25.6585482 -6.24999994e-06,25.3459857 -6.24999994e-06,24.9603607 C-6.24999994e-06,24.5747982 0.31261875,24.2621732 0.69818125,24.2621732 Z M23.4097313,5.08861697 C23.7953563,5.08861697 24.1079188,5.40117947 24.1079188,5.78680447 C24.1079188,6.17242947 23.7953563,6.48499197 23.4097313,6.48499197 C23.0241688,6.48499197 22.7115438,6.17242947 22.7115438,5.78680447 C22.7115438,5.40117947 23.0241688,5.08861697 23.4097313,5.08861697 Z M2.572175,28.3470107 C3.2213625,28.3470107 3.7476125,28.8732607 3.7476125,29.5224482 C3.7476125,30.1715732 3.2213625,30.6978857 2.572175,30.6978857 C1.9229875,30.6978857 1.3967375,30.1715732 1.3967375,29.5224482 C1.3967375,28.8732607 1.9229875,28.3470107 2.572175,28.3470107 Z M18.9326188,15.8792982 C19.3182438,15.8792982 19.6308063,16.1918607 19.6308063,16.5774857 C19.6308063,16.9631107 19.3182438,17.2756732 18.9326188,17.2756732 C18.5469938,17.2756732 18.2344313,16.9631107 18.2344313,16.5774857 C18.2344313,16.1918607 18.5469938,15.8792982 18.9326188,15.8792982 Z M23.871275,14.7038857 C24.5204625,14.7038857 25.0467125,15.2301357 25.0467125,15.8793232 C25.0467125,16.5284482 24.5204625,17.0547607 23.871275,17.0547607 C23.222025,17.0547607 22.695775,16.5284482 22.695775,15.8793232 C22.695775,15.2301357 23.222025,14.7038857 23.871275,14.7038857 Z M18.9326812,6.77661072 C19.0288062,6.77661072 19.1066812,6.85448572 19.1066812,6.95061072 C19.1066812,7.01966361 19.109224,7.08813335 19.1142201,7.15593147 C19.1154896,7.17275059 19.1169075,7.18987003 19.1184812,7.20694507 L19.1142201,7.15593147 C19.1187287,7.21711363 19.1252352,7.27774885 19.1336737,7.33777212 L19.1184812,7.20694507 C19.1252606,7.28050764 19.1349297,7.35324627 19.1473735,7.42504607 L19.1336737,7.33777212 C19.1553442,7.49191313 19.1897565,7.64201844 19.2357973,7.78698695 C19.2438566,7.81254592 19.2523518,7.83800362 19.2612042,7.86329498 L19.2357973,7.78698695 C19.2545081,7.84590155 19.2751394,7.90396777 19.2976165,7.9611117 L19.2612042,7.86329498 C19.2819931,7.92268861 19.304752,7.98116495 19.3294025,8.03864525 L19.2976165,7.9611117 C19.3561606,8.10994929 19.4272265,8.2525301 19.5094937,8.38754822 L19.4997985,8.37165434 C19.9842045,9.17863848 20.8679431,9.71981697 21.8757312,9.71981697 C21.9717937,9.71981697 22.0497937,9.79769197 22.0497313,9.89381697 C22.0497313,9.98994197 21.9718562,10.067817 21.8757312,10.067817 C20.8646497,10.067817 19.9783406,10.6125727 19.4949719,11.4240252 C19.4758923,11.4557577 19.4575931,11.4879469 19.4399273,11.5205278 L19.4949719,11.4240252 C19.454198,11.4924741 19.4162913,11.5628207 19.3814186,11.6348981 C19.3617117,11.6754173 19.3430103,11.7166309 19.3253032,11.7583648 L19.3814186,11.6348981 C19.3544793,11.6905783 19.3293506,11.7472915 19.3061095,11.8049605 L19.3253032,11.7583648 C19.3011583,11.8152723 19.2788623,11.8731474 19.2584919,11.9319146 L19.3061095,11.8049605 C19.280286,11.8690374 19.2567929,11.9342944 19.2357358,12.000626 L19.2584919,11.9319146 C19.2417623,11.9801784 19.2263315,12.0290439 19.212242,12.0784693 L19.2357358,12.000626 C19.2114858,12.0770157 19.1904665,12.1548306 19.1728392,12.2339096 C19.1633545,12.2762944 19.1548543,12.3191944 19.1473607,12.3624352 L19.1728392,12.2339096 C19.1577782,12.3014755 19.1451935,12.3699642 19.1351855,12.4392751 L19.1473607,12.3624352 C19.1350029,12.4337444 19.1253825,12.5059807 19.1186134,12.5790321 L19.1351855,12.4392751 C19.1259965,12.5029145 19.1189799,12.567247 19.1142135,12.6321948 L19.1067312,12.836817 C19.1067312,12.932942 19.0288562,13.010817 18.9327312,13.010817 C18.9135187,13.0104232 18.8950237,13.0073082 18.8777357,13.0015552 L18.8299572,12.977253 C18.7867662,12.945597 18.7587312,12.894492 18.7587312,12.836817 L18.7587312,12.836817 L18.7519317,12.6412471 C18.7478626,12.5831482 18.7419913,12.5255399 18.7343735,12.4684773 C18.7322631,12.4529851 18.7300788,12.4376204 18.7277685,12.4222964 L18.7343735,12.4684773 C18.7177368,12.3438567 18.6927704,12.2218394 18.6600551,12.1030012 C18.6565929,12.0904758 18.6530394,12.0779109 18.6493995,12.0653823 L18.6600551,12.1030012 C18.6444252,12.0462253 18.6270266,11.9901752 18.6079227,11.9349134 L18.6493995,12.0653823 C18.6320199,12.0055615 18.6126721,11.9465695 18.5914311,11.8884813 L18.6079227,11.9349134 C18.5920605,11.8890289 18.5750227,11.843688 18.5568454,11.7989265 L18.5914311,11.8884813 C18.5632097,11.8113041 18.5316464,11.7357225 18.4969172,11.6619127 C18.4543592,11.5717611 18.4072209,11.4843302 18.355685,11.3998594 C18.3521624,11.3937229 18.3490682,11.3886884 18.3459584,11.3836646 L18.355685,11.3998594 C18.3289964,11.3561149 18.3011284,11.3131642 18.2721257,11.2710516 L18.3459584,11.3836646 C18.3099749,11.3255336 18.2719013,11.2688262 18.2318432,11.2136481 L18.2721257,11.2710516 C18.2405576,11.225214 18.2076452,11.1803694 18.1734461,11.1365747 L18.2318432,11.2136481 C18.2000274,11.1698233 18.1669598,11.1269632 18.1326933,11.0851208 L18.1734461,11.1365747 C18.1331005,11.0849089 18.0909641,11.0347045 18.0471315,10.986055 L18.1326933,11.0851208 C18.0959133,11.0402092 18.0577521,10.9964701 18.0182753,10.953969 L18.0471315,10.986055 C17.9196601,10.8445758 17.7778429,10.7162473 17.624005,10.6033738 C17.5642448,10.5589856 17.5028957,10.5176347 17.4398784,10.478738 C17.4020574,10.4558681 17.3637322,10.4334667 17.3248353,10.4119767 L17.4398784,10.478738 C17.3400737,10.4171345 17.2360846,10.3616868 17.1284447,10.3129284 C17.0142437,10.2617982 16.8990562,10.2186107 16.7804937,10.1831107 C16.7801526,10.1830066 16.779811,10.1829028 16.779469,10.1827995 C16.6877019,10.1551776 16.5936358,10.1323917 16.4978521,10.114553 C16.4641487,10.1082151 16.4307772,10.1025892 16.3972437,10.0976107 L16.4768673,10.1107289 C16.4339309,10.1030764 16.3906552,10.0964169 16.3470648,10.0907751 C16.3315624,10.0891626 16.3165083,10.0873627 16.3014146,10.0856828 L16.3470648,10.0907751 C16.2903282,10.0834317 16.2330585,10.0778124 16.1753102,10.0739715 C16.1547321,10.0729603 16.1407718,10.0721344 16.126794,10.0713985 L15.9896687,10.067817 L15.9896687,10.067817 L15.9346107,10.0586177 L15.9346107,10.0586177 L15.8868947,10.034253 C15.8437037,10.002597 15.8156687,9.95149197 15.8156687,9.89381697 C15.8156687,9.87459197 15.8187837,9.85609697 15.8245367,9.83880897 L15.8491827,9.79071172 C15.8808387,9.74752072 15.9319437,9.71948572 15.9896187,9.71948572 L15.9896187,9.71948572 L16.1263968,9.71648375 L16.1263968,9.71648375 L16.1686812,9.71311072 C16.1709697,9.71296769 16.173257,9.71281787 16.1755434,9.71266232 C16.2637645,9.70777975 16.3511029,9.69772334 16.4371229,9.68368942 C16.4820429,9.67576366 16.5274018,9.66710468 16.5723062,9.65742322 L16.5570125,9.66139149 C16.5640068,9.65992944 16.5709915,9.65844092 16.5779665,9.65692603 C16.5859764,9.65432426 16.5945354,9.65221489 16.6031812,9.65023572 C16.6545562,9.63854822 16.7054312,9.62554822 16.7556812,9.61098572 C16.7638687,9.60867322 16.7722437,9.60642322 16.7803687,9.60398572 C16.8989312,9.56848572 17.0141812,9.52529822 17.1255562,9.47492322 C17.1296812,9.47298572 17.1338687,9.47111072 17.1380562,9.46923572 C17.2517437,9.41711072 17.3613687,9.35761072 17.4661812,9.29129822 C17.7195965,9.13088761 17.9453551,8.93055209 18.134489,8.69919203 C18.1450493,8.68740075 18.1546836,8.67539937 18.1642196,8.66331693 L18.134489,8.69919203 C18.1727511,8.65238761 18.2095142,8.60431349 18.2447042,8.55504335 L18.1642196,8.66331693 C18.198957,8.61930345 18.2323891,8.57421433 18.2644569,8.52810852 L18.2447042,8.55504335 C18.319605,8.45017345 18.3873788,8.33988516 18.4473098,8.22488904 L18.5249253,8.06425888 C18.5326147,8.04681887 18.5401294,8.0292851 18.5474669,8.01165979 C18.5863854,7.91746823 18.6206925,7.82035075 18.6495594,7.72094175 C18.652841,7.71037859 18.655859,7.69973173 18.6588146,7.68905918 L18.6495594,7.72094175 C18.6831934,7.6051161 18.709442,7.48617959 18.727758,7.36467519 C18.7300775,7.34999391 18.7322619,7.33462774 18.7343191,7.3192219 L18.727758,7.36467519 C18.7481228,7.22957944 18.7586812,7.09130918 18.7586812,6.95061072 C18.7586812,6.85448572 18.8365562,6.77661072 18.9326812,6.77661072 Z" id="Fill-this" fill="#181C21"></path>
    </g>
</svg>