<?xml version="1.0" encoding="UTF-8"?>
<svg width="32px" height="32px" viewBox="0 0 32 32" version="1.1" xmlns="http://www.w3.org/2000/svg" xmlns:xlink="http://www.w3.org/1999/xlink">
    <!-- Generator: Sketch 63.1 (92452) - https://sketch.com -->
    <title>Icons/ion-md-refresh</title>
    <desc>Created with Sketch.</desc>
    <g id="Icons/ion-md-refresh" stroke="none" stroke-width="1" fill="none" fill-rule="evenodd" fill-opacity="0.9">
        <path d="M16,24.25 C17.7500087,24.25 19.3229097,23.7708381 20.71875,22.8125 C22.1145903,21.8541619 23.1041638,20.5833413 23.6875,19 L26.5625,19 C25.89583,21.333345 24.5937597,23.2499925 22.65625,24.75 C20.7187403,26.2500075 18.5000125,27 16,27 C12.9583181,27 10.3645941,25.9270941 8.21875,23.78125 C6.07290594,21.6354059 5,19.0416819 5,16 C5,12.9583181 6.07290594,10.3645941 8.21875,8.21875 C10.3645941,6.07290594 12.9583181,5 16,5 C19.000015,5 21.5833225,6.0833225 23.75,8.25 L27,5 L27,14.625 L17.375,14.625 L21.75,10.25 C20.1666587,8.583325 18.2500113,7.75 16,7.75 C13.7083219,7.75 11.7604247,8.55207531 10.15625,10.15625 C8.55207531,11.7604247 7.75,13.7083219 7.75,16 C7.75,18.2916781 8.55207531,20.2395753 10.15625,21.84375 C11.7604247,23.4479247 13.7083219,24.25 16,24.25 Z" id="↳-🎨-Fill" fill="#181C21"></path>
    </g>
</svg>