<?xml version="1.0" encoding="UTF-8"?>
<svg width="32px" height="32px" viewBox="0 0 32 32" version="1.1" xmlns="http://www.w3.org/2000/svg" xmlns:xlink="http://www.w3.org/1999/xlink">
    <!-- Generator: Sketch 63.1 (92452) - https://sketch.com -->
    <title>Icons/ion-md-power</title>
    <desc>Created with Sketch.</desc>
    <g id="Icons/ion-md-power" stroke="none" stroke-width="1" fill="none" fill-rule="evenodd" fill-opacity="0.9">
        <path d="M17.4375,3 L17.4375,17.4375 L14.5625,17.4375 L14.5625,3 L17.4375,3 Z M24.4375,6.125 C27.4791819,8.70834625 29,11.99998 29,16 C29,19.5833512 27.7291794,22.6458206 25.1875,25.1875 C22.6458206,27.7291794 19.5833512,29 16,29 C12.4166488,29 9.35417938,27.7291794 6.8125,25.1875 C4.27082063,22.6458206 3,19.5833512 3,16 C3,11.99998 4.52081812,8.70834625 7.5625,6.125 L9.625,8.1875 C7.1249875,10.2708438 5.875,12.8749844 5.875,16 C5.875,18.7916806 6.86457344,21.1770734 8.84375,23.15625 C10.8229266,25.1354266 13.2083194,26.125 16,26.125 C18.7916806,26.125 21.1770734,25.1354266 23.15625,23.15625 C25.1354266,21.1770734 26.125,18.7916806 26.125,16 C26.125,12.7916506 24.8750125,10.18751 22.375,8.1875 L24.4375,6.125 Z" id="↳-🎨-Fill" fill="#181C21"></path>
    </g>
</svg>