<?xml version="1.0" encoding="UTF-8"?>
<svg width="32px" height="32px" viewBox="0 0 32 32" version="1.1" xmlns="http://www.w3.org/2000/svg" xmlns:xlink="http://www.w3.org/1999/xlink">
    <!-- Generator: Sketch 63.1 (92452) - https://sketch.com -->
    <title>Icons/ion-ios-help-buoy</title>
    <desc>Created with Sketch.</desc>
    <g id="Icons/ion-ios-help-buoy" stroke="none" stroke-width="1" fill="none" fill-rule="evenodd" fill-opacity="0.9">
        <path d="M6.8125,6.8125 C9.35417938,4.27082062 12.4166488,3 16,3 C19.5833512,3 22.6458206,4.27082062 25.1875,6.8125 C27.7291794,9.35417938 29,12.4166488 29,16 C29,19.5833512 27.7291794,22.6458206 25.1875,25.1875 C22.6458206,27.7291794 19.5833512,29 16,29 C12.4166488,29 9.35417938,27.7291794 6.8125,25.1875 C4.27082063,22.6458206 3,19.5833512 3,16 C3,12.4166488 4.27082063,9.35417938 6.8125,6.8125 Z M19.4375,5.25 L19.0625,10.8125 C19.9791713,11.3125025 20.6874975,12.0208287 21.1875,12.9375 L26.75,12.5625 C26.1666637,10.8541581 25.2291731,9.35417312 23.9375,8.0625 C22.6458269,6.77082688 21.1458419,5.83333625 19.4375,5.25 Z M12.5625,5.25 C10.8541581,5.83333625 9.35417312,6.77082688 8.0625,8.0625 C6.77082687,9.35417312 5.83333625,10.8541581 5.25,12.5625 L10.8125,12.9375 C11.3125025,12.0208287 12.0208287,11.3125025 12.9375,10.8125 L12.5625,5.25 Z M12.5625,26.75 L12.9375,21.1875 C12.0208287,20.6874975 11.3125025,19.9791713 10.8125,19.0625 L5.25,19.4375 C5.83333625,21.1458419 6.77082687,22.6458269 8.0625,23.9375 C9.35417312,25.2291731 10.8541581,26.1666637 12.5625,26.75 Z M13,19 C13.8333375,19.8333375 14.8333275,20.25 16,20.25 C17.1666725,20.25 18.1666625,19.8333375 19,19 C19.8333375,18.1666625 20.25,17.1666725 20.25,16 C20.25,14.8333275 19.8333375,13.8333375 19,13 C18.1666625,12.1666625 17.1666725,11.75 16,11.75 C14.8333275,11.75 13.8333375,12.1666625 13,13 C12.1666625,13.8333375 11.75,14.8333275 11.75,16 C11.75,17.1666725 12.1666625,18.1666625 13,19 Z M23.9375,23.9375 C25.2291731,22.6458269 26.1666637,21.1250087 26.75,19.375 L21.1875,19 C20.6458306,19.9583381 19.9375044,20.6874975 19.0625,21.1875 L19.4375,26.75 C21.1458419,26.1666637 22.6458269,25.2291731 23.9375,23.9375 Z" id="↳-🎨-Fill" fill="#181C21"></path>
    </g>
</svg>