<?xml version="1.0" encoding="UTF-8"?>
<svg width="32px" height="32px" viewBox="0 0 32 32" version="1.1" xmlns="http://www.w3.org/2000/svg" xmlns:xlink="http://www.w3.org/1999/xlink">
    <!-- Generator: Sketch 63.1 (92452) - https://sketch.com -->
    <title>Icons/ion-md-camera</title>
    <desc>Created with Sketch.</desc>
    <g id="Icons/ion-md-camera" stroke="none" stroke-width="1" fill="none" fill-rule="evenodd" fill-opacity="0.9">
        <path d="M18.9270312,5 C19.5077148,5 20.0298477,5.32276562 20.2896953,5.84230859 L20.2896953,5.84230859 L21.8997656,9.0625 L27.4765625,9.0625 C28.3165859,9.0625 29,9.74591406 29,10.5859375 L29,10.5859375 L29,24.8046875 C29,25.6447109 28.3165859,26.328125 27.4765625,26.328125 L27.4765625,26.328125 L4.5234375,26.328125 C3.68341406,26.328125 3,25.6447109 3,24.8046875 L3,24.8046875 L3,10.5859375 C3,9.74591406 3.68341406,9.0625 4.5234375,9.0625 L4.5234375,9.0625 L5.03125,9.0625 L5.03125,8.5546875 C5.03125,7.71466406 5.71466406,7.03125 6.5546875,7.03125 L6.5546875,7.03125 L7.5703125,7.03125 C8.41033594,7.03125 9.09375,7.71466406 9.09375,8.5546875 L9.09375,8.5546875 L9.09375,9.0625 L10.1002344,9.0625 L11.7103047,5.84235938 C11.9700508,5.32276562 12.4921836,5 13.0729688,5 L13.0729688,5 Z M11.2380391,22.265625 L4.015625,22.265625 L4.015625,24.8046875 C4.015625,25.0846953 4.24342969,25.3125 4.5234375,25.3125 L4.5234375,25.3125 L27.4765625,25.3125 C27.7565703,25.3125 27.984375,25.0846953 27.984375,24.8046875 L27.984375,24.8046875 L27.984375,22.265625 L20.7620117,22.265625 C19.5215781,23.5589219 17.7992305,24.296875 16,24.296875 C14.2010742,24.296875 12.4788789,23.559125 11.2380391,22.265625 L11.2380391,22.265625 Z M16,12.109375 C12.9424609,12.109375 10.4140625,14.5872461 10.4140625,17.6953125 C10.4140625,20.8009922 12.9400742,23.28125 16,23.28125 C19.0571836,23.28125 21.5859375,20.8037344 21.5859375,17.6953125 C21.5859375,14.5833867 19.0536289,12.109375 16,12.109375 Z M16,13.125 C18.5200703,13.125 20.5703125,15.1752422 20.5703125,17.6953125 C20.5703125,20.2153828 18.5200703,22.265625 16,22.265625 C13.4799297,22.265625 11.4296875,20.2153828 11.4296875,17.6953125 C11.4296875,15.1752422 13.4799297,13.125 16,13.125 Z M16,14.140625 C14.0399453,14.140625 12.4453125,15.7352578 12.4453125,17.6953125 C12.4453125,19.6553672 14.0399453,21.25 16,21.25 C17.9600547,21.25 19.5546875,19.6553672 19.5546875,17.6953125 C19.5546875,15.7352578 17.9600547,14.140625 16,14.140625 Z M10.4369648,14.1355469 L4.015625,14.1355469 L4.015625,21.25 L10.4369648,21.25 C9.76213281,20.1959336 9.3984375,18.9653516 9.3984375,17.6953125 C9.3984375,16.425375 9.76208203,15.1898164 10.4369648,14.1355469 L10.4369648,14.1355469 Z M27.984375,14.140625 L21.5630352,14.140625 C22.237918,15.1948945 22.6015625,16.4253242 22.6015625,17.6953125 C22.6015625,18.9653008 22.237918,20.1957305 21.5630352,21.25 L21.5630352,21.25 L27.984375,21.25 L27.984375,14.140625 Z M16,15.15625 C16.2804141,15.15625 16.5078125,15.3835977 16.5078125,15.6640625 C16.5078125,15.9445273 16.2804141,16.171875 16,16.171875 C15.1599766,16.171875 14.4765625,16.8552891 14.4765625,17.6953125 C14.4765625,17.9757773 14.2492148,18.203125 13.96875,18.203125 C13.6882852,18.203125 13.4609375,17.9757773 13.4609375,17.6953125 C13.4609375,16.2952734 14.5999609,15.15625 16,15.15625 Z M27.4765625,10.078125 L4.5234375,10.078125 C4.24342969,10.078125 4.015625,10.3059297 4.015625,10.5859375 L4.015625,10.5859375 L4.015625,13.125 L11.2379883,13.125 C12.4784727,11.8317031 14.2008203,11.09375 16,11.09375 C17.7989766,11.09375 19.5211719,11.8315 20.7619609,13.125 L20.7619609,13.125 L27.984375,13.125 L27.984375,10.5859375 C27.984375,10.3059297 27.7565703,10.078125 27.4765625,10.078125 L27.4765625,10.078125 Z M23.4140625,11.09375 C23.694375,11.09375 23.921875,11.32125 23.921875,11.6015625 C23.921875,11.881875 23.694375,12.109375 23.4140625,12.109375 C23.13375,12.109375 22.90625,11.881875 22.90625,11.6015625 C22.90625,11.32125 23.13375,11.09375 23.4140625,11.09375 Z M26.4609375,11.09375 C26.7413516,11.09375 26.96875,11.3210977 26.96875,11.6015625 C26.96875,11.8820273 26.7413516,12.109375 26.4609375,12.109375 L26.4609375,12.109375 L25.4453125,12.109375 C25.1648984,12.109375 24.9375,11.8820273 24.9375,11.6015625 C24.9375,11.3210977 25.1648984,11.09375 25.4453125,11.09375 L25.4453125,11.09375 Z M18.9270312,6.015625 L13.0729688,6.015625 C12.8793906,6.015625 12.7053633,6.12328125 12.6187305,6.29654687 L12.6187305,6.29654687 L11.2357031,9.0625 L20.7642969,9.0625 L19.3813203,6.29654687 C19.2946875,6.12328125 19.1206094,6.015625 18.9270312,6.015625 L18.9270312,6.015625 Z M7.5703125,8.046875 L6.5546875,8.046875 C6.27467969,8.046875 6.046875,8.27467969 6.046875,8.5546875 L6.046875,8.5546875 L6.046875,9.0625 L8.078125,9.0625 L8.078125,8.5546875 C8.078125,8.27467969 7.85032031,8.046875 7.5703125,8.046875 L7.5703125,8.046875 Z M17.5234375,7.03125 C17.8038516,7.03125 18.03125,7.25859766 18.03125,7.5390625 C18.03125,7.81952734 17.8038516,8.046875 17.5234375,8.046875 L17.5234375,8.046875 L14.4765625,8.046875 C14.1960977,8.046875 13.96875,7.81952734 13.96875,7.5390625 C13.96875,7.25859766 14.1960977,7.03125 14.4765625,7.03125 L14.4765625,7.03125 Z" id="↳-🎨-Fill" fill="#181C21"></path>
    </g>
</svg>