<?xml version="1.0" encoding="UTF-8"?>
<svg width="32px" height="32px" viewBox="0 0 32 32" version="1.1" xmlns="http://www.w3.org/2000/svg" xmlns:xlink="http://www.w3.org/1999/xlink">
    <!-- Generator: Sketch 63.1 (92452) - https://sketch.com -->
    <title>Icons/ion-ios-list</title>
    <desc>Created with Sketch.</desc>
    <g id="Icons/ion-ios-list" stroke="none" stroke-width="1" fill="none" fill-rule="evenodd" fill-opacity="0.9">
        <path d="M4.5,17.25 C4.166665,16.8749981 4,16.4583356 4,16 C4,15.5416644 4.17708156,15.1354184 4.53125,14.78125 C4.88541844,14.4270816 5.29166437,14.25 5.75,14.25 C6.20833563,14.25 6.61458156,14.4270816 6.96875,14.78125 C7.32291844,15.1354184 7.5,15.5416644 7.5,16 C7.5,16.4583356 7.32291844,16.8645816 6.96875,17.21875 C6.61458156,17.5729184 6.20833563,17.75 5.75,17.75 C5.29166437,17.75 4.87500188,17.583335 4.5,17.25 Z M4.5,9.5 C4.166665,9.12499812 4,8.70833563 4,8.25 C4,7.79166437 4.17708156,7.38541844 4.53125,7.03125 C4.88541844,6.67708156 5.29166437,6.5 5.75,6.5 C6.20833563,6.5 6.61458156,6.67708156 6.96875,7.03125 C7.32291844,7.38541844 7.5,7.79166437 7.5,8.25 C7.5,8.70833563 7.32291844,9.11458156 6.96875,9.46875 C6.61458156,9.82291844 6.20833563,10 5.75,10 C5.29166437,10 4.87500188,9.833335 4.5,9.5 Z M4.5,25 C4.166665,24.6249981 4,24.2083356 4,23.75 C4,23.2916644 4.17708156,22.8854184 4.53125,22.53125 C4.88541844,22.1770816 5.29166437,22 5.75,22 C6.20833563,22 6.61458156,22.1770816 6.96875,22.53125 C7.32291844,22.8854184 7.5,23.2916644 7.5,23.75 C7.5,24.2083356 7.32291844,24.6145816 6.96875,24.96875 C6.61458156,25.3229184 6.20833563,25.5 5.75,25.5 C5.29166437,25.5 4.87500188,25.333335 4.5,25 Z M27,15 C27.66667,15 28,15.33333 28,16 C28,16.66667 27.66667,17 27,17 L12,17 C11.33333,17 11,16.66667 11,16 C11,15.33333 11.33333,15 12,15 L27,15 Z M27,22.75 C27.66667,22.75 28,23.08333 28,23.75 C28,24.41667 27.66667,24.75 27,24.75 L12,24.75 C11.33333,24.75 11,24.41667 11,23.75 C11,23.08333 11.33333,22.75 12,22.75 L27,22.75 Z M12,9.25 C11.33333,9.25 11,8.91667 11,8.25 C11,7.58333 11.33333,7.25 12,7.25 L27,7.25 C27.66667,7.25 28,7.58333 28,8.25 C28,8.91667 27.66667,9.25 27,9.25 L12,9.25 Z" id="↳-🎨-Fill" fill="#181C21"></path>
    </g>
</svg>