<?xml version="1.0" encoding="UTF-8"?>
<svg width="32px" height="32px" viewBox="0 0 32 32" version="1.1" xmlns="http://www.w3.org/2000/svg" xmlns:xlink="http://www.w3.org/1999/xlink">
    <!-- Generator: Sketch 63.1 (92452) - https://sketch.com -->
    <title>Icons/ion-md-exit</title>
    <desc>Created with Sketch.</desc>
    <g id="Icons/ion-md-exit" stroke="none" stroke-width="1" fill="none" fill-rule="evenodd" fill-opacity="0.9">
        <path d="M13.4375,20.8125 L16.875,17.3125 L4,17.3125 L4,14.6875 L16.9375,14.6875 L13.4375,11.1875 L15.3125,9.3125 L22,16 L15.3125,22.6875 L13.4375,20.8125 Z M25.3125,4 C26.0208369,4 26.6458306,4.27083062 27.1875,4.8125 C27.7291694,5.35416937 28,5.97916312 28,6.6875 L28,25.3125 C28,26.0208369 27.7291694,26.6458306 27.1875,27.1875 C26.6458306,27.7291694 26.0208369,28 25.3125,28 L6.6875,28 C5.97916312,28 5.35416937,27.7291694 4.8125,27.1875 C4.27083063,26.6458306 4,26.0208369 4,25.3125 L4,20 L6.6875,20 L6.6875,25.3125 L25.3125,25.3125 L25.3125,6.6875 L6.6875,6.6875 L6.6875,12 L4,12 L4,6.6875 C4,5.97916312 4.27083063,5.35416937 4.8125,4.8125 C5.35416937,4.27083062 5.97916312,4 6.6875,4 L25.3125,4 Z" id="↳-🎨-Fill" fill="#181C21"></path>
    </g>
</svg>