<?xml version="1.0" encoding="UTF-8"?>
<svg width="32px" height="32px" viewBox="0 0 32 32" version="1.1" xmlns="http://www.w3.org/2000/svg" xmlns:xlink="http://www.w3.org/1999/xlink">
    <!-- Generator: Sketch 63.1 (92452) - https://sketch.com -->
    <title>Icons/ion-md-event</title>
    <desc>Created with Sketch.</desc>
    <g id="Icons/ion-md-event" stroke="none" stroke-width="1" fill="none" fill-rule="evenodd" fill-opacity="0.9">
        <path d="M9.34923989,3.65456081 C8.86190876,3.19404562 8.20396962,2.958826 7.53526184,3.00591216 C6.34248314,3.11296454 5.3796453,4.0259713 5.20967059,5.21135978 C4.02576011,5.38344595 3.115076,6.34628378 3.00886822,7.53779562 C2.96135978,8.207348 3.19657941,8.86613178 3.65751686,9.35409627 C4.03251686,9.72677362 4.54075168,9.93412162 5.06946789,9.93057795 C5.10240708,9.93057795 5.13597973,9.93057795 5.16934119,9.92778714 L9.49070946,9.92778714 C9.72951859,9.92778714 9.92314189,9.73416384 9.92314189,9.4953547 L9.92314189,5.18834459 C9.95903719,4.61866551 9.75021114,4.06081081 9.34923989,3.65456081 Z M22.040196,9.49269594 L22.1275338,9.50358951 C22.2725929,9.53673989 22.3904138,9.64210303 22.4394003,9.78251686 L22.4394003,9.78251686 L28.9258868,28.3771115 C28.9805743,28.5337838 28.9406672,28.7077703 28.8234797,28.8251689 C28.7060811,28.9423564 28.5320946,28.9822635 28.3754223,28.927576 L28.3754223,28.927576 L9.78082768,22.4410895 C9.64041384,22.392103 9.5350507,22.2744932 9.50168919,22.1294341 C9.46853886,21.984375 9.51224659,21.8325591 9.61739865,21.7271959 L9.61739865,21.7271959 L21.7255068,9.61908784 C21.8306588,9.51393578 21.9826858,9.47022805 22.1275338,9.50358951 Z M21.8496622,10.7179054 L17.4784628,15.0888936 C18.423353,15.6220439 19.0067568,16.6237331 19.004223,17.7086149 C19.0021115,19.3794341 17.6480152,20.7335304 15.9771959,20.7356419 C14.8931588,20.7385979 13.8918919,20.1564611 13.357897,19.213049 L13.357897,19.213049 L10.7166385,21.8543075 L16.8528294,23.9949324 C16.9372889,22.7208615 17.8129223,21.6372466 19.0407517,21.2871622 C20.2685811,20.9370777 21.5840372,21.3959037 22.3277027,22.4339105 C23.0711571,23.4717061 23.0827703,24.8648649 22.3564189,25.9149071 L22.3564189,25.9149071 L27.8146115,27.8175676 L27.453125,26.7797719 C26.2417652,26.7022804 25.1944679,25.9070946 24.7945524,24.7609797 C24.394848,23.6148649 24.7200169,22.3407939 25.6203547,21.5266048 L25.6203547,21.5266048 L24.8895692,19.4326436 C23.8346706,20.0760135 22.4945102,20.0133024 21.5040118,19.2747044 C20.5135135,18.5358952 20.0715794,17.2692145 20.3872466,16.0747466 C20.703125,14.8800676 21.7132601,13.9972551 22.9394003,13.8443835 L22.9394003,13.8443835 L21.8496622,10.7179054 Z M25.9429898,22.4451014 C25.495777,23.0223817 25.3709882,23.7867399 25.6114865,24.4763514 C25.8517736,25.1659628 26.4246199,25.6870777 27.1338682,25.8612754 L27.1338682,25.8612754 Z M21.6898226,23.0244932 C21.1716638,22.2151605 20.1813767,21.8450169 19.2592905,22.1159206 C18.3374156,22.3870355 17.7048142,23.2341638 17.7069204,24.1951014 C17.7069204,24.2261402 17.7077703,24.2580237 17.7094595,24.2907517 L17.7094595,24.2907517 L20.6309122,25.3095439 L21.4980997,25.6121199 C22.1298564,24.8880912 22.2081925,23.833826 21.6898226,23.0244932 Z M5.29180746,24.7529561 C5.46516049,24.5929054 5.73247465,24.5929054 5.90582768,24.7529561 C5.94404562,24.7949746 5.97466216,24.8433277 5.99662162,24.8956925 C6.042652,25.0004223 6.042652,25.1195102 5.99662162,25.2242399 C5.97466216,25.2766048 5.94383449,25.3249578 5.90582768,25.3669763 C5.86359795,25.4049831 5.81545611,25.4358108 5.76309124,25.4577703 C5.60219595,25.5268159 5.41554054,25.4907095 5.29180746,25.3669763 C5.25358951,25.3249578 5.22297297,25.2766048 5.20101351,25.2242399 C5.15477195,25.1195102 5.15477195,25.0004223 5.20101351,24.8956925 C5.22297297,24.8433277 5.25358951,24.7949746 5.29180746,24.7529561 Z M4.30761966,21.5996506 L4.38323481,21.6091638 C4.41195103,21.6131757 4.43982265,21.6220439 4.46579395,21.6351351 C4.49324324,21.6446368 4.51942568,21.6577281 4.54370778,21.6739865 C4.56630065,21.6900338 4.58783784,21.707348 4.60853038,21.7259291 C4.64674832,21.7679476 4.67736486,21.8163006 4.69932432,21.8686655 C4.77639357,22.0496199 4.72149492,22.259924 4.56587838,22.3802787 C4.4100507,22.5006335 4.1927787,22.5006335 4.03716216,22.3802787 C3.88133449,22.259924 3.82643578,22.0496199 3.90371622,21.8686655 C3.97698481,21.6752534 4.18116551,21.5648226 4.38323481,21.6091638 Z M6.67989865,19.0059122 C7.27681589,19.0059122 7.76097973,19.4898649 7.76097973,20.0869932 C7.76097973,20.6841216 7.27681589,21.1680743 6.67989865,21.1680743 C6.08277027,21.1680743 5.59881757,20.6841216 5.59881757,20.0869932 C5.59881757,19.4898649 6.08277027,19.0059122 6.67989865,19.0059122 Z M6.67989865,19.870777 C6.56038854,19.870777 6.46368243,19.9676943 6.46368243,20.0869932 C6.46368243,20.2065034 6.56038854,20.3032095 6.67989865,20.3032095 C6.79919762,20.3032095 6.89611486,20.2065034 6.89611486,20.0869932 C6.89611486,19.9676943 6.79919762,19.870777 6.67989865,19.870777 Z M9.76266892,16.0095017 C9.98437503,15.9206081 10.2362754,16.0278716 10.3251689,16.2495777 C10.4142736,16.4712838 10.306799,16.7231841 10.0853041,16.8122889 C9.65857265,16.9966216 9.31883449,17.3376267 9.13597973,17.7647804 C9.01541384,18.2679476 9.12246622,18.7987754 9.42884292,19.2155828 C9.51182432,19.3481841 9.51668076,19.5152027 9.44172297,19.6524493 C9.36676519,19.7896959 9.22360643,19.8756335 9.0671453,19.8775592 C8.91089524,19.879223 8.76583616,19.7964527 8.68771114,19.6611064 C8.24197632,19.0282939 8.10620778,18.2278294 8.31841216,17.4833192 C8.583826,16.8190456 9.10388514,16.2884291 9.76266892,16.0095017 Z M16.8420608,15.7263514 L13.9949324,18.5734797 C14.3826014,19.4607264 15.3129223,19.9818412 16.2721706,19.8492399 C17.2312078,19.7168497 17.9852196,18.9626267 18.117821,18.0035895 C18.2504223,17.0445524 17.7293075,16.1142314 16.8420608,15.7263514 L16.8420608,15.7263514 Z M23.2345862,14.6836994 C22.3097551,14.7227618 21.5122466,15.3462838 21.2512669,16.234375 C20.9902871,17.1226774 21.3236909,18.0785473 22.0804476,18.6116976 C22.8374156,19.144848 23.8496622,19.1368243 24.5981841,18.5920608 L24.5981841,18.5920608 Z M8.62584459,14.2491554 C8.86465373,14.2491554 9.05827703,14.4427787 9.05827703,14.6815878 C9.05827703,14.920397 8.86465373,15.1140203 8.62584459,15.1140203 C6.71600508,15.1161318 5.16849665,16.6638514 5.16638514,18.5734797 C5.16638514,18.8122889 4.97276184,19.0059122 4.7339527,19.0059122 C4.49514357,19.0059122 4.30152027,18.8122889 4.30152027,18.5734797 C4.30405405,16.1862331 6.23859795,14.2516892 8.62584459,14.2491554 Z M4.08530405,13.3842905 C4.6822213,13.3842905 5.16638514,13.8682432 5.16638514,14.4653716 C5.16638514,15.0625 4.6822213,15.5464527 4.08530405,15.5464527 C3.48817568,15.5464527 3.00422297,15.0625 3.00422297,14.4653716 C3.00422297,13.8682432 3.48817568,13.3842905 4.08530405,13.3842905 Z M14.6768142,14.2494628 L14.7616132,14.2578125 C14.7903294,14.2618243 14.818201,14.2706925 14.8441723,14.2837838 C14.870777,14.2924409 14.8954814,14.3055321 14.917652,14.3226351 C14.9423564,14.3376267 14.9655828,14.3549409 14.9869088,14.3745777 C15.0658784,14.457348 15.1106419,14.5671453 15.1123311,14.6815878 C15.1123311,14.920397 14.9187078,15.1140203 14.6798986,15.1140203 C14.4410895,15.1140203 14.2474662,14.920397 14.2474662,14.6815878 C14.2487331,14.5671453 14.2937078,14.457348 14.3728885,14.3745777 C14.4748733,14.2734375 14.6205659,14.2297297 14.7616132,14.2578125 Z M4.08530405,14.2491554 C3.96579395,14.2491554 3.86908784,14.3460726 3.86908784,14.4653716 C3.86908784,14.5848817 3.96579395,14.6815878 4.08530405,14.6815878 C4.20460303,14.6815878 4.30152027,14.5848817 4.30152027,14.4653716 C4.30152027,14.3460726 4.20460303,14.2491554 4.08530405,14.2491554 Z M12.0654561,8.6296453 C12.5403294,8.59586151 13.0080237,8.76266892 13.3545186,9.08931589 C13.6839105,9.43454389 13.8511402,9.90329395 13.8146115,10.3788006 L13.8146115,10.3788006 L13.8146115,13.3876689 C13.8146115,13.6266892 13.6209882,13.8201014 13.382179,13.8201014 L13.382179,13.8201014 L10.2635135,13.8201014 C9.82495778,13.8287584 9.4009713,13.6621622 9.08551519,13.3574746 C8.75633449,13.0124578 8.58910476,12.5439189 8.62584459,12.0684122 C8.66913005,11.1355574 9.50021114,10.558277 10.3988598,10.400549 C10.5570102,9.50232265 11.1338682,8.67081924 12.0654561,8.6296453 Z M4.06144427,10.8623311 C4.26013514,10.7297297 4.52871622,10.7833615 4.66131757,10.9820524 C5.49978886,12.240076 6.05764357,12.9518581 7.76097973,12.9518581 C7.99978886,12.9518581 8.19341216,13.1454814 8.19341216,13.3842905 C8.19341216,13.6230997 7.99978886,13.816723 7.76097973,13.816723 C5.67271957,13.816723 4.86106422,12.8407939 3.94172297,11.4622044 C3.80912162,11.2635135 3.86275341,10.9949324 4.06144427,10.8623311 Z M12.1649071,9.49324324 L12.1055743,9.49324324 C11.5884713,9.51752535 11.2493665,10.1822213 11.2204392,10.8108108 L11.2204392,10.8108108 C11.2100929,11.0346284 11.0314611,11.2132601 10.808277,11.2233952 C10.1794763,11.2523226 9.51478043,11.5897382 9.49070946,12.1085304 C9.45481416,12.3420608 9.53251686,12.5785473 9.69995778,12.7453547 C9.86718751,12.911951 10.1040963,12.9888091 10.3374156,12.9518581 L10.3374156,12.9518581 L12.9501689,12.9518581 L12.9501689,10.3572635 C12.9780405,10.119299 12.9026605,9.88091216 12.7430321,9.70206924 C12.5863598,9.55743243 12.3777449,9.48205238 12.1649071,9.49324324 L12.1649071,9.49324324 Z M17.6739865,9.14569254 C18.4634713,9.12014357 19.2223395,9.45228043 19.7392314,10.0494088 C19.8937922,10.2191723 19.8889358,10.4799409 19.7278294,10.6435811 C19.5669341,10.8074324 19.3061655,10.816723 19.1338682,10.6651183 C18.7934966,10.2529561 18.2886402,10.0120355 17.7540118,10.0065456 C17.359375,10.0705237 17.0048564,10.2846284 16.7645692,10.6040963 L16.7645692,10.6040963 C16.6273226,10.8002534 16.357897,10.8486064 16.1617399,10.7122044 C15.9657939,10.5760135 15.9172297,10.3063767 16.0536318,10.1104308 C16.4410895,9.58277027 17.025549,9.2347973 17.6739865,9.14569254 Z M7.666174,3.87288854 C8.06165541,3.85937503 8.44657941,4.00190032 8.73775341,4.269848 C8.96959459,4.50886822 9.08657092,4.83635978 9.05827703,5.16807432 L9.05827703,9.05996622 L5.14611486,9.05996622 C4.81989022,9.08614865 4.49873308,8.96896114 4.2660473,8.73902027 C3.97825168,8.42314189 3.83530405,8.00168919 3.87119935,7.57580238 C3.98627535,6.69700168 4.73268584,6.03800676 5.61908784,6.03293919 C5.84248314,6.02259292 6.02111486,5.84375 6.03125,5.6203547 C6.0365287,4.7339527 6.69594595,3.98754222 7.57495778,3.87288854 L7.666174,3.87288854 Z M14.6919341,8.52554897 C15.2943412,6.05067568 17.3331925,4.64527027 19.5386402,5.18010978 C19.7702703,5.23648649 19.9127956,5.47043919 19.8564189,5.70249157 C19.8000422,5.93475508 19.5663006,6.07728043 19.3340372,6.02090373 C17.3842905,5.54856422 15.9472129,7.02491557 15.5320946,8.72951859 C15.4852196,8.92335303 15.3116554,9.05975508 15.1123311,9.05996622 C15.0779138,9.05996622 15.0437078,9.05595438 15.0101351,9.04793076 C14.7780828,8.99155405 14.6355574,8.75760135 14.6919341,8.52554897 Z M19.4668497,7.72297297 C19.6083192,7.14252535 20.1934122,6.78673989 20.7736486,6.92842059 C21.353674,7.06967903 21.7090372,7.65434968 21.5677787,8.23437503 C21.4263091,8.81440032 20.8416385,9.16997465 20.2616132,9.02871622 C19.6815878,8.88745778 19.3258024,8.30299832 19.4668497,7.72297297 Z M20.5026115,7.76281081 L20.4436233,7.77533784 C20.3467061,7.81059968 20.2880068,7.90941724 20.3036318,8.01119086 C20.3192568,8.11317568 20.4047719,8.19003378 20.5078125,8.19446789 C20.6110642,8.19911319 20.7029138,8.13006757 20.7274071,8.02998314 C20.7411318,7.97423989 20.7320524,7.91554054 20.7022804,7.86655405 C20.6488598,7.77829395 20.5405405,7.740076 20.4436233,7.77533784 Z M12.1101139,3.00637239 L12.1872889,3.01794762 C13.8401605,3.42018584 14.7394426,5.35916384 14.2347973,7.4322213 C14.1879223,7.62605573 14.0143581,7.76245778 13.8150338,7.76266892 C13.7806165,7.76266892 13.7464105,7.75865708 13.7128378,7.75063346 C13.4807855,7.69425676 13.3382601,7.46030405 13.3946368,7.22825168 C13.7846284,5.62605573 13.1642736,4.146326 11.9831081,3.85874157 C11.7510557,3.80236486 11.6085304,3.56841216 11.6649071,3.33635978 C11.7212838,3.10409627 11.9552365,2.96157092 12.1872889,3.01794762 Z M22.4636824,5.16807432 C22.7024916,5.16807432 22.8961149,5.36169762 22.8961149,5.60050676 C22.8975929,5.74514357 22.8258024,5.88091216 22.7054476,5.96114865 C22.5850929,6.04138514 22.4322213,6.05532097 22.2994088,5.99831081 C22.2468328,5.97635135 22.1986909,5.94573481 22.1566723,5.90751686 C22.0751689,5.82622465 22.0299831,5.71558276 22.03125,5.60050676 C22.03125,5.36169762 22.2248733,5.16807432 22.4636824,5.16807432 Z M24.8940034,4.77027027 C24.9991554,4.72656249 25.1173986,4.72656249 25.2225507,4.77027027 C25.2753378,4.791174 25.3239021,4.82200168 25.3652871,4.86106422 C25.4035051,4.90308276 25.4341216,4.95143578 25.4560811,5.00380065 C25.5021115,5.10853038 25.5021115,5.22761827 25.4560811,5.332348 C25.4341216,5.38471286 25.4032939,5.43306589 25.3652871,5.47508443 C25.3230574,5.51309124 25.2749156,5.54391892 25.2225507,5.56587838 C25.089527,5.62288854 24.9368665,5.6089527 24.8165118,5.52871622 C24.6959459,5.44847973 24.6243665,5.31271114 24.6258446,5.16807432 C24.6243665,5.11127535 24.6361909,5.05510978 24.660473,5.00380065 C24.6824324,4.95143578 24.713049,4.90308276 24.7512669,4.86106422 C24.792652,4.82200168 24.8410051,4.791174 24.8940034,4.77027027 Z M14.7103041,3.83129222 C14.8517736,3.25105573 15.4366554,2.89527027 16.0168919,3.0365287 L16.0168919,3.0365287 C16.5967061,3.17778714 16.9524916,3.76266892 16.8112331,4.34290541 C16.6699746,4.92314189 16.0850929,5.27913849 15.5048564,5.13788005 C14.9246199,4.99641049 14.5690456,4.4115287 14.7103041,3.83129222 Z M15.9455237,3.97466216 C15.8834459,3.87267735 15.7504223,3.84037162 15.6484375,3.9024493 C15.5648226,3.95333616 15.5259713,4.05405405 15.5534206,4.14780405 C15.5810811,4.24176519 15.6682855,4.30553211 15.7660473,4.30320946 C15.8638091,4.30088681 15.9480574,4.23310811 15.9710726,4.13809124 C15.9845862,4.082348 15.9755068,4.02343751 15.9455237,3.97466216 Z" id="↳-🎨-Fill" fill="#181C21"></path>
    </g>
</svg>