<?xml version="1.0" encoding="UTF-8"?>
<svg width="32px" height="32px" viewBox="0 0 32 32" version="1.1" xmlns="http://www.w3.org/2000/svg" xmlns:xlink="http://www.w3.org/1999/xlink">
    <!-- Generator: Sketch 63.1 (92452) - https://sketch.com -->
    <title>Icons/ion-md-ribbon</title>
    <desc>Created with Sketch.</desc>
    <g id="Icons/ion-md-ribbon" stroke="none" stroke-width="1" fill="none" fill-rule="evenodd" fill-opacity="0.9">
        <path d="M10.3125,4.375 C11.8958413,2.79165875 13.7916556,2 16,2 C18.2083444,2 20.0937422,2.78124219 21.65625,4.34375 C23.2187578,5.90625781 24,7.79165562 24,10 C24,12.2083444 23.2187578,14.0937422 21.65625,15.65625 C20.0937422,17.2187578 18.2083444,18 16,18 C13.7916556,18 11.9062578,17.2187578 10.34375,15.65625 C8.78124219,14.0937422 8,12.2083444 8,10 C8,7.79165562 8.77082563,5.91667437 10.3125,4.375 Z M12.4375,13.5625 C13.437505,14.5208381 14.6249931,15 16,15 C17.3750069,15 18.5520784,14.5104216 19.53125,13.53125 C20.5104216,12.5520784 21,11.3750069 21,10 C21,8.62499312 20.5104216,7.44792156 19.53125,6.46875 C18.5520784,5.48957844 17.3750069,5 16,5 C14.6249931,5 13.4479216,5.48957844 12.46875,6.46875 C11.4895784,7.44792156 11,8.62499312 11,10 C11,11.3750069 11.4791619,12.562495 12.4375,13.5625 Z M12.125,19.1875 C13.45834,19.7291694 14.7499938,20 16,20 C16.4166687,20 16.95833,19.9583338 17.625,19.875 L16,23.375 L13,30 L10,25 L4,25 L8.6875,16.8125 L8.9375,17.0625 C9.85417125,17.9791713 10.9166606,18.6874975 12.125,19.1875 Z M23.3125,16.8125 L28,25 L22,25 L19,30 L17,25.625 L18.375,22.5625 L19.875,19.1875 C21.0833394,18.6874975 22.1458287,17.9791713 23.0625,17.0625 L23.3125,16.8125 Z" id="↳-🎨-Fill" fill="#181C21"></path>
    </g>
</svg>