<?xml version="1.0" encoding="UTF-8"?>
<svg width="32px" height="32px" viewBox="0 0 32 32" version="1.1" xmlns="http://www.w3.org/2000/svg" xmlns:xlink="http://www.w3.org/1999/xlink">
    <!-- Generator: Sketch 63.1 (92452) - https://sketch.com -->
    <title>Icons/ion-ios-share</title>
    <desc>Created with Sketch.</desc>
    <g id="Icons/ion-ios-share" stroke="none" stroke-width="1" fill="none" fill-rule="evenodd" fill-opacity="0.9">
        <path d="M23.5,11 C24.16667,11 24.7499975,11.2499975 25.25,11.75 C25.7500025,12.2500025 26,12.83333 26,13.5 L26,26.5 C26,27.16667 25.7500025,27.7499975 25.25,28.25 C24.7499975,28.7500025 24.16667,29 23.5,29 L8.5,29 C7.83333,29 7.2500025,28.7500025 6.75,28.25 C6.2499975,27.7499975 6,27.16667 6,26.5 L6,13.5 C6,12.83333 6.2499975,12.2500025 6.75,11.75 C7.2500025,11.2499975 7.83333,11 8.5,11 L15.1875,11 L15.1875,20.1875 C15.1875,20.7291694 15.4791638,21 16.0625,21 C16.5625025,21 16.8125,20.7291694 16.8125,20.1875 L16.8125,11 L23.5,11 Z M16.8125,5.75 L16.8125,11 L15.1875,11 L15.1875,5.75 L12.1875,8.6875 C11.8124981,9.06250187 11.4375019,9.06250187 11.0625,8.6875 C10.6874981,8.31249813 10.6874981,7.93750187 11.0625,7.5625 L15.4375,3.25 C15.5208338,3.16666625 15.6041662,3.10416688 15.6875,3.0625 C15.7708338,3.02083312 15.8749994,3 16,3 C16.2083344,3 16.3958325,3.0833325 16.5625,3.25 L20.9375,7.5625 C21.3125019,7.93750187 21.3125019,8.31249813 20.9375,8.6875 C20.5624981,9.06250187 20.1875019,9.06250187 19.8125,8.6875 L16.8125,5.75 Z" id="↳-🎨-Fill" fill="#181C21"></path>
    </g>
</svg>