<?xml version="1.0" encoding="UTF-8"?>
<svg width="32px" height="32px" viewBox="0 0 32 32" version="1.1" xmlns="http://www.w3.org/2000/svg" xmlns:xlink="http://www.w3.org/1999/xlink">
    <!-- Generator: Sketch 63.1 (92452) - https://sketch.com -->
    <title>Icons/ion-ios-images</title>
    <desc>Created with Sketch.</desc>
    <g id="Icons/ion-ios-images" stroke="none" stroke-width="1" fill="none" fill-rule="evenodd" fill-opacity="0.9">
        <path d="M16.375,12.4375 L20.75,20.9375 C20.7916669,21.0208337 20.7812503,21.1145828 20.71875,21.21875 C20.6562497,21.3229172 20.5625006,21.375 20.4375,21.375 L10.375,20.5 C10.041665,20.5 9.97916562,20.3541681 10.1875,20.0625 L15.9375,12.375 C16.1041675,12.2083325 16.2499994,12.2291656 16.375,12.4375 Z M22.9375,16.5 L25.8125,21.375 C25.8958338,21.4583337 25.8958338,21.5624994 25.8125,21.6875 C25.7291663,21.8125006 25.6250006,21.875 25.5,21.875 L22.6875,21.625 L22.5,21.4375 L20.875,18.375 C20.8333331,18.2916662 20.8541665,18.1666675 20.9375,18 L22.5,16.4375 C22.6666675,16.2708325 22.8124994,16.2916656 22.9375,16.5 Z M23.625,14 C23.1666644,14 22.7812516,13.8229184 22.46875,13.46875 C22.1562484,13.1145816 22.0416663,12.7083356 22.125,12.25 C22.2500006,11.4583294 22.7291625,11.0625 23.5625,11.0625 C24.0208356,11.0625 24.4062484,11.2395816 24.71875,11.59375 C25.0312516,11.9479184 25.1458338,12.3541644 25.0625,12.8125 C24.9374994,13.6041706 24.4583375,14 23.625,14 Z M28.4375,8.0625 C28.8958356,8.10416687 29.2812484,8.31249812 29.59375,8.6875 C29.9062516,9.06250187 30.0416669,9.47916437 30,9.9375 L28.375,28.4375 C28.3333331,28.8958356 28.1354184,29.2812484 27.78125,29.59375 C27.4270816,29.9062516 27.0208356,30.0416669 26.5625,30 L7.9375,28.375 C7.47916437,28.3333331 7.10416813,28.1354184 6.8125,27.78125 C6.52083187,27.4270816 6.39583312,27.0208356 6.4375,26.5625 L6.5,25.5 L5.5,25.5625 C5.04166437,25.6041669 4.63541844,25.4791681 4.28125,25.1875 C3.92708156,24.8958319 3.72916687,24.5208356 3.6875,24.0625 L2,5.5 C1.95833313,5.04166437 2.09374844,4.63541844 2.40625,4.28125 C2.71875156,3.92708156 3.10416437,3.72916688 3.5625,3.6875 L22.125,2 C22.5833356,1.95833312 22.9895816,2.09374844 23.34375,2.40625 C23.6979184,2.71875156 23.8958331,3.10416438 23.9375,3.5625 L24.3125,7.75 L28.4375,8.0625 Z M5.5,18.8125 L7.125,18.625 L8.0625,8 C8.10416688,7.54166437 8.30208156,7.15625156 8.65625,6.84375 C9.01041844,6.53124844 9.41666437,6.39583312 9.875,6.4375 L22.5,7.5625 L22.1875,4.25 C22.1875,3.99999875 22.0416681,3.875 21.75,3.875 L4.25,5.4375 C3.99999875,5.4375 3.875,5.604165 3.875,5.9375 L5,18.4375 C5,18.6875013 5.166665,18.8125 5.5,18.8125 Z M28.125,10.3125 C28.125,10.0208319 28.0000013,9.875 27.75,9.875 L24.5,9.5625 L22.625,9.4375 L10.25,8.375 C9.95833187,8.375 9.8125,8.49999875 9.8125,8.75 L8.9375,18.5 L8.75,21.25 C8.75,21.5416681 8.87499875,21.6875 9.125,21.6875 L25.375,23.125 L26.5625,23.1875 C26.8541681,23.1875 27,23.0625013 27,22.8125 L28.125,10.3125 Z" id="↳-🎨-Fill" fill="#181C21"></path>
    </g>
</svg>