<?xml version="1.0" encoding="UTF-8"?>
<svg width="32px" height="32px" viewBox="0 0 32 32" version="1.1" xmlns="http://www.w3.org/2000/svg" xmlns:xlink="http://www.w3.org/1999/xlink">
    <!-- Generator: Sketch 63.1 (92452) - https://sketch.com -->
    <title>Icons/ion-md-volume-high</title>
    <desc>Created with Sketch.</desc>
    <g id="Icons/ion-md-volume-high" stroke="none" stroke-width="1" fill="none" fill-rule="evenodd" fill-opacity="0.9">
        <path d="M4,12 L9.3125,12 L16,5 L16,27 L9.3125,20 L4,20 L4,12 Z M22,16 C22,17.2083394 21.6979197,18.312495 21.09375,19.3125 C20.4895803,20.312505 19.6875,21.0416644 18.6875,21.5 L18.6875,10.4375 C19.6875,10.9375 20.4895803,11.6979116 21.09375,12.71875 C21.6979197,13.7395884 22,14.8333275 22,16 Z M18.6875,4 C21.35418,4.62500312 23.5729078,6.06248875 25.34375,8.3125 C27.1145922,10.5625113 28,13.1249856 28,16 C28,18.8750144 27.1145922,21.4374887 25.34375,23.6875 C23.5729078,25.9375113 21.35418,27.3749969 18.6875,28 L18.6875,25.1875 C20.6458431,24.6041637 22.2395772,23.4583419 23.46875,21.75 C24.6979228,20.0416581 25.3125,18.1250106 25.3125,16 C25.3125,13.8749894 24.6979228,11.9583419 23.46875,10.25 C22.2395772,8.54165813 20.6458431,7.39583625 18.6875,6.8125 L18.6875,4 Z" id="↳-🎨-Fill" fill="#181C21"></path>
    </g>
</svg>