<?xml version="1.0" encoding="UTF-8"?>
<svg width="32px" height="32px" viewBox="0 0 32 32" version="1.1" xmlns="http://www.w3.org/2000/svg" xmlns:xlink="http://www.w3.org/1999/xlink">
    <!-- Generator: Sketch 63.1 (92452) - https://sketch.com -->
    <title>Icons/ion-ios-list-box</title>
    <desc>Created with Sketch.</desc>
    <g id="Icons/ion-ios-list-box" stroke="none" stroke-width="1" fill="none" fill-rule="evenodd" fill-opacity="0.9">
        <path d="M3,5.1875 C3,4.60416375 3.21874781,4.09375219 3.65625,3.65625 C4.09375219,3.21874781 4.60416375,3 5.1875,3 L26.8125,3 C27.3958363,3 27.9062478,3.21874781 28.34375,3.65625 C28.7812522,4.09375219 29,4.60416375 29,5.1875 L29,26.8125 C29,27.3958362 28.7812522,27.9062478 28.34375,28.34375 C27.9062478,28.7812522 27.3958363,29 26.8125,29 L5.1875,29 C4.60416375,29 4.09375219,28.7812522 3.65625,28.34375 C3.21874781,27.9062478 3,27.3958362 3,26.8125 L3,5.1875 Z M8.5625,23.75 C9.18750312,23.6666663 9.54166625,23.3125031 9.625,22.6875 C9.70833375,22.2708313 9.60416812,21.9166681 9.3125,21.625 C9.02083188,21.3333319 8.66666875,21.2083331 8.25,21.25 C7.62499688,21.3333338 7.27083375,21.6874969 7.1875,22.3125 C7.10416625,22.7291688 7.20833187,23.0833319 7.5,23.375 C7.79166813,23.6666681 8.14583125,23.7916669 8.5625,23.75 Z M8.5625,17.25 C9.18750312,17.1666662 9.54166625,16.8125031 9.625,16.1875 C9.70833375,15.7708313 9.60416812,15.4166681 9.3125,15.125 C9.02083188,14.8333319 8.66666875,14.7083331 8.25,14.75 C7.62499688,14.8333338 7.27083375,15.1874969 7.1875,15.8125 C7.10416625,16.2291687 7.20833187,16.5833319 7.5,16.875 C7.79166813,17.1666681 8.14583125,17.2916669 8.5625,17.25 Z M8.5625,10.75 C9.18750312,10.6666662 9.54166625,10.3125031 9.625,9.6875 C9.70833375,9.27083125 9.60416812,8.91666813 9.3125,8.625 C9.02083188,8.33333187 8.66666875,8.20833313 8.25,8.25 C7.62499688,8.33333375 7.27083375,8.68749688 7.1875,9.3125 C7.10416625,9.72916875 7.20833187,10.0833319 7.5,10.375 C7.79166813,10.6666681 8.14583125,10.7916669 8.5625,10.75 Z M24.0625,23.375 C24.6458363,23.375 24.9375,23.0833363 24.9375,22.5 C24.9375,21.9166638 24.6458363,21.625 24.0625,21.625 L12.8125,21.625 C12.2291637,21.625 11.9375,21.9166638 11.9375,22.5 C11.9375,23.0833363 12.2291637,23.375 12.8125,23.375 L24.0625,23.375 Z M24.0625,16.875 C24.6458363,16.875 24.9375,16.5833363 24.9375,16 C24.9375,15.4166637 24.6458363,15.125 24.0625,15.125 L12.8125,15.125 C12.2291637,15.125 11.9375,15.4166637 11.9375,16 C11.9375,16.5833363 12.2291637,16.875 12.8125,16.875 L24.0625,16.875 Z M24.0625,10.375 C24.6458363,10.375 24.9375,10.0833363 24.9375,9.5 C24.9375,8.91666375 24.6458363,8.625 24.0625,8.625 L12.8125,8.625 C12.2291637,8.625 11.9375,8.91666375 11.9375,9.5 C11.9375,10.0833363 12.2291637,10.375 12.8125,10.375 L24.0625,10.375 Z" id="↳-🎨-Fill" fill="#181C21"></path>
    </g>
</svg>