<?xml version="1.0" encoding="UTF-8"?>
<svg width="32px" height="32px" viewBox="0 0 32 32" version="1.1" xmlns="http://www.w3.org/2000/svg" xmlns:xlink="http://www.w3.org/1999/xlink">
    <!-- Generator: Sketch 63.1 (92452) - https://sketch.com -->
    <title>Icons/ion-logo-steam</title>
    <desc>Created with Sketch.</desc>
    <g id="Icons/ion-logo-steam" stroke="none" stroke-width="1" fill="none" fill-rule="evenodd" fill-opacity="0.9">
        <path d="M29.25,11.4375 C29.7083356,11.8541687 29.9375,12.3749969 29.9375,13 C29.9375,13.6250031 29.7187522,14.1562478 29.28125,14.59375 C28.8437478,15.0312522 28.3125031,15.25 27.6875,15.25 C27.0624969,15.25 26.5312522,15.0312522 26.09375,14.59375 C25.6562478,14.1562478 25.4375,13.6250031 25.4375,13 C25.4375,12.3749969 25.6562478,11.8437522 26.09375,11.40625 C26.5312522,10.9687478 27.0624969,10.75 27.6875,10.75 C28.3125031,10.75 28.8333313,10.9791644 29.25,11.4375 Z M24.5625,10 C25.4375044,9.12499563 26.4791606,8.6875 27.6875,8.6875 C28.8958394,8.6875 29.9166625,9.11457906 30.75,9.96875 C31.5833375,10.8229209 32,11.8333275 32,13 C32,14.2083394 31.5729209,15.2395791 30.71875,16.09375 C29.8645791,16.9479209 28.8541725,17.375 27.6875,17.375 L23.5,20.375 C23.4166662,21.2083375 23.0729197,21.9062472 22.46875,22.46875 C21.8645803,23.0312528 21.1458375,23.3125 20.3125,23.3125 C19.5208294,23.3125 18.8333362,23.0625025 18.25,22.5625 C17.6666638,22.0624975 17.2916675,21.4583369 17.125,20.75 L4.875,15.875 C4.41666437,16.1666681 3.87500313,16.3125 3.25,16.3125 C2.37499563,16.3125 1.61458656,15.9895866 0.96875,15.34375 C0.322913438,14.6979134 0,13.9375044 0,13.0625 C0,12.1875 0.322913438,11.4270866 0.96875,10.78125 C1.61458656,10.1354134 2.37499563,9.8125 3.25,9.8125 C4,9.8125 4.66666375,10.0520809 5.25,10.53125 C5.83333625,11.0104191 6.2083325,11.6249962 6.375,12.375 L18.625,17.3125 C19.1666694,16.979165 19.7291638,16.8125 20.3125,16.8125 C20.3541669,16.8125 20.4062497,16.8229166 20.46875,16.84375 C20.5312503,16.8645834 20.5833331,16.875 20.625,16.875 L23.3125,13 C23.3125,11.8333275 23.7291625,10.8333375 24.5625,10 Z M27.6875,10.125 C26.8541625,10.125 26.1562528,10.4062472 25.59375,10.96875 C25.0312472,11.5312528 24.75,12.2083294 24.75,13 C24.75,13.8333375 25.0416638,14.5312472 25.625,15.09375 C26.2083362,15.6562528 26.8958294,15.9375 27.6875,15.9375 C28.4791706,15.9375 29.1562472,15.6562528 29.71875,15.09375 C30.2812528,14.5312472 30.5625,13.8333375 30.5625,13 C30.5625,12.1666625 30.2812528,11.4791694 29.71875,10.9375 C29.1562472,10.3958306 28.4791706,10.125 27.6875,10.125 Z M3.25,10.6875 C2.58333,10.6875 2.02083563,10.9166644 1.5625,11.375 C1.10416437,11.8333356 0.875,12.39583 0.875,13.0625 C0.875,13.72917 1.10416437,14.2916644 1.5625,14.75 C2.02083563,15.2083356 2.58333,15.4375 3.25,15.4375 C3.45833437,15.4375 3.62499937,15.4166669 3.75,15.375 L2.75,15 C2.29166437,14.7916656 1.96875094,14.4479191 1.78125,13.96875 C1.59374906,13.4895809 1.5833325,13.0208356 1.75,12.5625 C1.95833437,12.1041644 2.30208094,11.7708344 2.78125,11.5625 C3.26041906,11.3541656 3.72916437,11.3333325 4.1875,11.5 L5.375,11.9375 C4.95833125,11.1041625 4.250005,10.6875 3.25,10.6875 Z M20.3125,17.6875 C20.2708331,17.6875 20.1875,17.6979166 20.0625,17.71875 C19.9374994,17.7395834 19.8333338,17.75 19.75,17.75 L20.75,18.125 C21.2500025,18.2916675 21.6041656,18.6249975 21.8125,19.125 C22.0208344,19.6250025 22.0208344,20.1249975 21.8125,20.625 C21.6458325,21.1250025 21.3229191,21.4791656 20.84375,21.6875 C20.3645809,21.8958344 19.8750025,21.8958344 19.375,21.6875 C18.9583313,21.4791656 18.5625019,21.3125006 18.1875,21.1875 C18.6041687,22.0208375 19.312495,22.4375 20.3125,22.4375 C20.97917,22.4375 21.5416644,22.2083356 22,21.75 C22.4583356,21.2916644 22.6875,20.72917 22.6875,20.0625 C22.6875,19.39583 22.4583356,18.8333356 22,18.375 C21.5416644,17.9166644 20.97917,17.6875 20.3125,17.6875 Z" id="↳-🎨-Fill" fill="#181C21"></path>
    </g>
</svg>