<?xml version="1.0" encoding="UTF-8"?>
<svg width="32px" height="32px" viewBox="0 0 32 32" version="1.1" xmlns="http://www.w3.org/2000/svg" xmlns:xlink="http://www.w3.org/1999/xlink">
    <!-- Generator: Sketch 63.1 (92452) - https://sketch.com -->
    <title>Icons/ion-md-qr-scanner</title>
    <desc>Created with Sketch.</desc>
    <g id="Icons/ion-md-qr-scanner" stroke="none" stroke-width="1" fill="none" fill-rule="evenodd" fill-opacity="0.9">
        <path d="M6,7.75 L6,12 L3,12 L3,7.75 C3,6.70832813 3.36457969,5.82292031 4.09375,5.09375 C4.82292031,4.36457969 5.72916125,4 6.8125,4 L11,4 L11,7 L6.75,7 C6.2499975,7 6,7.2499975 6,7.75 Z M25.25,4 C26.2916719,4 27.1770797,4.36457969 27.90625,5.09375 C28.6354203,5.82292031 29,6.70832813 29,7.75 L29,12 L26,12 L26,7.75 C26,7.2499975 25.7291694,7 25.1875,7 L21,7 L21,4 L25.25,4 Z M26,24.1875 L26,20 L29,20 L29,24.1875 C29,25.2708387 28.6354203,26.1770797 27.90625,26.90625 C27.1770797,27.6354203 26.2916719,28 25.25,28 L21,28 L21,24.9375 L25.25,24.9375 C25.7500025,24.9375 26,24.6875025 26,24.1875 Z M6.75,24.9375 L11,24.9375 L11,28 L6.8125,28 C5.77082812,28 4.87500375,27.6250038 4.125,26.875 C3.37499625,26.1249962 3,25.2291719 3,24.1875 L3,20 L6,20 L6,24.1875 C6,24.6875025 6.2499975,24.9375 6.75,24.9375 Z" id="↳-🎨-Fill" fill="#181C21"></path>
    </g>
</svg>