<?xml version="1.0" encoding="UTF-8"?>
<svg width="32px" height="32px" viewBox="0 0 32 32" version="1.1" xmlns="http://www.w3.org/2000/svg" xmlns:xlink="http://www.w3.org/1999/xlink">
    <!-- Generator: Sketch 63.1 (92452) - https://sketch.com -->
    <title>Icons/ion-md-cloud-done</title>
    <desc>Created with Sketch.</desc>
    <g id="Icons/ion-md-cloud-done" stroke="none" stroke-width="1" fill="none" fill-rule="evenodd" fill-opacity="0.9">
        <path d="M25.1875,13.5625 C26.8125081,13.6458338 28.1874944,14.2812441 29.3125,15.46875 C30.4375056,16.6562559 31,18.083325 31,19.75 C31,21.4583419 30.3854228,22.9270772 29.15625,24.15625 C27.9270772,25.3854228 26.4583419,26 24.75,26 L8.5,26 C6.41665625,26 4.64584062,25.2708406 3.1875,23.8125 C1.72915938,22.3541594 1,20.5833438 1,18.5 C1,16.5833237 1.64582688,14.9166738 2.9375,13.5 C4.22917312,12.0833262 5.81249063,11.2708344 7.6875,11.0625 C8.47917063,9.52082563 9.61457594,8.29167125 11.09375,7.375 C12.5729241,6.45832875 14.2083244,6 16,6 C18.2500113,6 20.2291581,6.71874281 21.9375,8.15625 C23.6458419,9.59375719 24.7291644,11.3958225 25.1875,13.5625 Z M13.3125,22.6875 L22.125,13.875 L20.25,12 L13.3125,18.9375 L10.5625,16.125 L8.6875,18 L13.3125,22.6875 Z" id="↳-🎨-Fill" fill="#181C21"></path>
    </g>
</svg>