<?xml version="1.0" encoding="UTF-8"?>
<svg width="32px" height="32px" viewBox="0 0 32 32" version="1.1" xmlns="http://www.w3.org/2000/svg" xmlns:xlink="http://www.w3.org/1999/xlink">
    <!-- Generator: Sketch 63.1 (92452) - https://sketch.com -->
    <title>Icons/ion-md-chatbubbles</title>
    <desc>Created with Sketch.</desc>
    <g id="Icons/ion-md-chatbubbles" stroke="none" stroke-width="1" fill="none" fill-rule="evenodd" fill-opacity="0.9">
        <path d="M8.3125,23 L22,23 L22,23.4375 C22,23.9791694 21.8229184,24.4374981 21.46875,24.8125 C21.1145816,25.1875019 20.6666694,25.375 20.125,25.375 L6.625,25.375 L3,29 L3,11.875 C3,11.3333306 3.17708156,10.8854184 3.53125,10.53125 C3.88541844,10.1770816 4.33333063,10 4.875,10 L5.5,10 L5.5,20.1875 C5.5,20.8125031 5.81249687,21.4374969 6.4375,22.0625 C7.06250312,22.6875031 7.68749687,23 8.3125,23 Z M26.8125,3 C27.3958363,3 27.9062478,3.21874781 28.34375,3.65625 C28.7812522,4.09375219 29,4.60416375 29,5.1875 L29,24.8125 L24.25,21.5 L9.375,21.5 C8.79166375,21.5 8.28125219,21.2812522 7.84375,20.84375 C7.40624781,20.4062478 7.1875,19.8958363 7.1875,19.3125 L7.1875,5.1875 C7.1875,4.60416375 7.40624781,4.09375219 7.84375,3.65625 C8.28125219,3.21874781 8.79166375,3 9.375,3 L26.8125,3 Z" id="↳-🎨-Fill" fill="#181C21"></path>
    </g>
</svg>