<?xml version="1.0" encoding="UTF-8"?>
<svg width="32px" height="32px" viewBox="0 0 32 32" version="1.1" xmlns="http://www.w3.org/2000/svg" xmlns:xlink="http://www.w3.org/1999/xlink">
    <!-- Generator: Sketch 63.1 (92452) - https://sketch.com -->
    <title>Icons/ion-ios-flash-off</title>
    <desc>Created with Sketch.</desc>
    <g id="Icons/ion-ios-flash-off" stroke="none" stroke-width="1" fill="none" fill-rule="evenodd" fill-opacity="0.9">
        <path d="M23.875,27.6875 C24.1666681,28.1875025 24.0625025,28.5833319 23.5625,28.875 C23.3958325,28.9583337 23.2500006,29 23.125,29 C22.8333319,29 22.5833344,28.8541681 22.375,28.5625 L8.125,4.3125 C7.83333188,3.8124975 7.9374975,3.41666813 8.4375,3.125 C8.97916937,2.83333187 9.39583187,2.9374975 9.6875,3.4375 L23.875,27.6875 Z M20.3125,19.5625 L17,14 L23.5,14 C23.7083344,14 23.8645828,14.1041656 23.96875,14.3125 C24.0729172,14.5208344 24.0625006,14.7083325 23.9375,14.875 L20.3125,19.5625 Z M20,2.3125 L16.8125,13.6875 L14.1875,9.1875 L19.5625,2.125 C19.6458338,1.99999972 19.7499994,1.96874969 19.875,2.03125 C20.0000006,2.09375031 20.0416669,2.18749938 20,2.3125 Z M11.6875,12.4375 L15,18 L8.5,18 C8.29166563,18 8.14583375,17.8958344 8.0625,17.6875 C7.97916625,17.4791656 7.99999937,17.2916675 8.125,17.125 L11.6875,12.4375 Z M12,29.6875 L15.1875,18.3125 L17.8125,22.8125 L12.4375,29.875 C12.3541663,30.0000003 12.2500006,30.0312503 12.125,29.96875 C11.9999994,29.9062497 11.9583331,29.8125 12,29.6875 Z" id="↳-🎨-Fill" fill="#181C21"></path>
    </g>
</svg>