<?xml version="1.0" encoding="UTF-8"?>
<svg width="32px" height="32px" viewBox="0 0 32 32" version="1.1" xmlns="http://www.w3.org/2000/svg" xmlns:xlink="http://www.w3.org/1999/xlink">
    <!-- Generator: Sketch 63.1 (92452) - https://sketch.com -->
    <title>Icons/ion-md-cloudy-night</title>
    <desc>Created with Sketch.</desc>
    <g id="Icons/ion-md-cloudy-night" stroke="none" stroke-width="1" fill="none" fill-rule="evenodd" fill-opacity="0.9">
        <path d="M21.375,18.9375 C22.70834,19.0208338 23.8124956,19.5520784 24.6875,20.53125 C25.5625044,21.5104216 26,22.66666 26,24 C26,25.375 25.5104216,26.5520784 24.53125,27.53125 C23.5520784,28.5104216 22.3750069,29 21,29 L8,29 C6.333325,29 4.9166725,28.4062559 3.75,27.21875 C2.5833275,26.0312441 2,24.604175 2,22.9375 C2,21.4791594 2.45832875,20.1979222 3.375,19.09375 C4.29167125,17.9895778 5.45832625,17.2916681 6.875,17 C7.08333437,16.9583331 7.45833063,16.9375 8,16.9375 C9.33334,16.9375 10.5104116,17.3020797 11.53125,18.03125 C12.5520884,18.7604203 13.2708313,19.7291606 13.6875,20.9375 L15.4375,20.9375 C15.0208313,19.5208262 14.3541713,18.3541713 13.4375,17.4375 C12.1458269,16.1458269 10.5416763,15.4375006 8.625,15.3125 C9.87500625,13.6874919 11.666655,12.875 14,12.875 C15.7916756,12.875 17.3854097,13.4479109 18.78125,14.59375 C20.1770903,15.7395891 21.041665,17.1874913 21.375,18.9375 Z M7,14.0625 L6.1875,15.125 L6.1875,14.8125 C6.1875,11.9791525 7.05207469,9.46876094 8.78125,7.28125 C10.5104253,5.09373906 12.7291531,3.66667 15.4375,3 C14.8541638,4.37500688 14.5625,5.83332563 14.5625,7.375 C14.5625,8.62500625 14.7499981,9.81249437 15.125,10.9375 C14.8749987,10.8958331 14.5000025,10.875 14,10.875 C12.5833262,10.875 11.3125056,11.1249975 10.1875,11.625 C8.93749375,12.2083363 7.87500437,13.0208281 7,14.0625 Z M26.125,19.1875 L25.5,18.5625 L25.6875,18.5625 C27.1875075,18.5625 28.6249931,18.2708363 30,17.6875 C29.5416644,19.4791756 28.812505,21.0208269 27.8125,22.3125 C27.5624988,21.1875 27,20.1458381 26.125,19.1875 Z" id="↳-🎨-Fill" fill="#181C21"></path>
    </g>
</svg>