<?xml version="1.0" encoding="UTF-8"?>
<svg width="32px" height="32px" viewBox="0 0 32 32" version="1.1" xmlns="http://www.w3.org/2000/svg" xmlns:xlink="http://www.w3.org/1999/xlink">
    <!-- Generator: Sketch 63.1 (92452) - https://sketch.com -->
    <title>Icons/ion-logo-rss</title>
    <desc>Created with Sketch.</desc>
    <g id="Icons/ion-logo-rss" stroke="none" stroke-width="1" fill="none" fill-rule="evenodd" fill-opacity="0.9">
        <path d="M5,22.0625 C5.70833688,21.3541631 6.54166187,21 7.5,21 C8.45833813,21 9.28124656,21.3437466 9.96875,22.03125 C10.6562534,22.7187534 11,23.5416619 11,24.5 C11,25.4583381 10.6562534,26.2812466 9.96875,26.96875 C9.28124656,27.6562534 8.45833813,28 7.5,28 C6.54166187,28 5.71875344,27.6562534 5.03125,26.96875 C4.34374656,26.2812466 4,25.4583381 4,24.5 C4,23.5416619 4.33333,22.72917 5,22.0625 Z M4,12 C8.37502187,12 12.1354009,13.5729009 15.28125,16.71875 C18.4270991,19.8645991 20,23.6249781 20,28 L15,28 C15,24.66665 14,22 12,20 C10,18 7.33335,17 4,17 L4,12 Z M4,4 C10.6250331,4 16.2812266,6.34372656 20.96875,11.03125 C25.6562734,15.7187734 28,21.3749669 28,28 L23,28 C23,22.66664 21.166685,18.166685 17.5,14.5 C13.833315,10.833315 9.33336,9 4,9 L4,4 Z" id="↳-🎨-Fill" fill="#181C21"></path>
    </g>
</svg>