<?xml version="1.0" encoding="UTF-8"?>
<svg width="32px" height="32px" viewBox="0 0 32 32" version="1.1" xmlns="http://www.w3.org/2000/svg" xmlns:xlink="http://www.w3.org/1999/xlink">
    <!-- Generator: Sketch 63.1 (92452) - https://sketch.com -->
    <title>Icons/ion-ios-archive</title>
    <desc>Created with Sketch.</desc>
    <g id="Icons/ion-ios-archive" stroke="none" stroke-width="1" fill="none" fill-rule="evenodd" fill-opacity="0.9">
        <path d="M28.75,7.5 L3.25,7.5 C3.0833325,7.5 3,7.4166675 3,7.25 L3,6 C3,5.41666375 3.18749813,4.93750187 3.5625,4.5625 C3.93750187,4.18749812 4.41666375,4 5,4 L27,4 C27.5833362,4 28.0624981,4.18749812 28.4375,4.5625 C28.8125019,4.93750187 29,5.41666375 29,6 L29,7.25 C29,7.4166675 28.9166675,7.5 28.75,7.5 Z M27.5,9.125 C27.833335,9.125 28,9.291665 28,9.625 L28,26 C28,26.5833362 27.8125019,27.0624981 27.4375,27.4375 C27.0624981,27.8125019 26.5833362,28 26,28 L6,28 C5.41666375,28 4.93750187,27.8125019 4.5625,27.4375 C4.18749813,27.0624981 4,26.5833362 4,26 L4,9.625 C4,9.291665 4.166665,9.125 4.5,9.125 L27.5,9.125 Z M19.125,18 C19.3750013,18 19.5937491,17.8958344 19.78125,17.6875 C19.9687509,17.4791656 20.0416669,17.25 20,17 C19.9166662,16.4999975 19.6250025,16.25 19.125,16.25 L12.875,16.25 C12.6249987,16.25 12.4062509,16.3541656 12.21875,16.5625 C12.0312491,16.7708344 11.9583331,16.9999987 12,17.25 C12.0833337,17.75 12.3749975,18 12.875,18 L19.125,18 Z" id="↳-🎨-Fill" fill="#181C21"></path>
    </g>
</svg>