<?xml version="1.0" encoding="UTF-8"?>
<svg width="32px" height="32px" viewBox="0 0 32 32" version="1.1" xmlns="http://www.w3.org/2000/svg" xmlns:xlink="http://www.w3.org/1999/xlink">
    <!-- Generator: Sketch 63.1 (92452) - https://sketch.com -->
    <title>Icons/ion-md-photos</title>
    <desc>Created with Sketch.</desc>
    <g id="Icons/ion-md-photos" stroke="none" stroke-width="1" fill="none" fill-rule="evenodd" fill-opacity="0.9">
        <path d="M25,26.3125 C25,27.0625038 24.7291694,27.6979141 24.1875,28.21875 C23.6458306,28.7395859 23.0208369,29 22.3125,29 L5.6875,29 C4.93749625,29 4.30208594,28.7395859 3.78125,28.21875 C3.26041406,27.6979141 3,27.0625038 3,26.3125 L3,9.6875 C3,8.93749625 3.26041406,8.30208594 3.78125,7.78125 C4.30208594,7.26041406 4.93749625,7 5.6875,7 L22.3125,7 C23.0625038,7 23.6979141,7.26041406 24.21875,7.78125 C24.7395859,8.30208594 25,8.93749625 25,9.6875 L25,26.3125 Z M9.8125,19 L5.6875,25 L22.3125,25 L16.8125,17 L12.6875,23 L9.8125,19 Z M26.3125,3 C27.0625038,3 27.6979141,3.26041406 28.21875,3.78125 C28.7395859,4.30208594 29,4.93749625 29,5.6875 L29,22.3125 C29,23.0625037 28.7395859,23.6979141 28.21875,24.21875 C27.6979141,24.7395859 27.0625038,25 26.3125,25 L26,25 L26,8.6875 C26,7.93749625 25.7395859,7.30208594 25.21875,6.78125 C24.6979141,6.26041406 24.0625037,6 23.3125,6 L7,6 L7,5.6875 C7,4.93749625 7.26041406,4.30208594 7.78125,3.78125 C8.30208594,3.26041406 8.93749625,3 9.6875,3 L26.3125,3 Z" id="↳-🎨-Fill" fill="#181C21"></path>
    </g>
</svg>