<?xml version="1.0" encoding="UTF-8"?>
<svg width="32px" height="32px" viewBox="0 0 32 32" version="1.1" xmlns="http://www.w3.org/2000/svg" xmlns:xlink="http://www.w3.org/1999/xlink">
    <!-- Generator: Sketch 63.1 (92452) - https://sketch.com -->
    <title>Icons/ion-md-copy</title>
    <desc>Created with Sketch.</desc>
    <g id="Icons/ion-md-copy" stroke="none" stroke-width="1" fill="none" fill-rule="evenodd" fill-opacity="0.9">
        <path d="M18.5,3 L26.5,11 L26.5,23.5 C26.5,24.16667 26.2500025,24.7499975 25.75,25.25 C25.2499975,25.7500025 24.66667,26 24,26 L23.5,26 L23.5,26.5 C23.5,27.16667 23.2500025,27.7499975 22.75,28.25 C22.2499975,28.7500025 21.66667,29 21,29 L8,29 C7.33333,29 6.7500025,28.7500025 6.25,28.25 C5.7499975,27.7499975 5.5,27.16667 5.5,26.5 L5.5,8.5 C5.5,7.83333 5.7499975,7.2500025 6.25,6.75 C6.7500025,6.2499975 7.33333,6 8,6 L8.5,6 L8.5,5.5 C8.5,4.83333 8.7499975,4.2500025 9.25,3.75 C9.7500025,3.2499975 10.33333,3 11,3 L18.5,3 Z M18.5,5.8125 L18.5,11 L23.6875,11 L18.5,5.8125 Z M21.5,26.5 L21.5,26 L10.5,26 C9.16666,26 8.5,25.33334 8.5,24 L8.5,8 L8,8 C7.666665,8 7.5,8.166665 7.5,8.5 L7.5,26.5 C7.5,26.833335 7.666665,27 8,27 L21,27 C21.333335,27 21.5,26.833335 21.5,26.5 Z M24.5,23.5 L24.5,13 L16.5,13 L16.5,5 L11,5 C10.666665,5 10.5,5.166665 10.5,5.5 L10.5,23.5 C10.5,23.833335 10.666665,24 11,24 L24,24 C24.333335,24 24.5,23.833335 24.5,23.5 Z" id="↳-🎨-Fill" fill="#181C21"></path>
    </g>
</svg>