<?xml version="1.0" encoding="UTF-8"?>
<svg width="32px" height="32px" viewBox="0 0 32 32" version="1.1" xmlns="http://www.w3.org/2000/svg" xmlns:xlink="http://www.w3.org/1999/xlink">
    <!-- Generator: Sketch 63.1 (92452) - https://sketch.com -->
    <title>Icons/ion-md-notifications-outline</title>
    <desc>Created with Sketch.</desc>
    <g id="Icons/ion-md-notifications-outline" stroke="none" stroke-width="1" fill="none" fill-rule="evenodd" fill-opacity="0.9">
        <path d="M16.0625,7.5 C15.729165,7.5 15.1875038,7.60416563 14.4375,7.8125 C13.0208262,8.10416813 11.8541713,8.84374406 10.9375,10.03125 C10.0208287,11.2187559 9.5625,12.5624925 9.5625,14.0625 L9.5625,22 L9,22.625 L8.5,23.125 L23.5,23.125 L23,22.625 L22.4375,22 L22.4375,14.0625 C22.4375,12.5624925 21.9791713,11.2187559 21.0625,10.03125 C20.1458287,8.84374406 18.9791738,8.10416813 17.5625,7.8125 L16.0625,7.5 Z M14.5625,3.5625 C14.9375019,3.18749812 15.4166637,3 16,3 C16.5833363,3 17.0520816,3.18749812 17.40625,3.5625 C17.7604184,3.93750188 17.9375,4.39583063 17.9375,4.9375 L17.9375,5.875 C19.8125094,6.33333563 21.3645772,7.32290906 22.59375,8.84375 C23.8229228,10.3645909 24.4375,12.1041569 24.4375,14.0625 L24.4375,21.1875 L27,23.8125 L27,25.125 L5,25.125 L5,23.8125 L7.5625,21.1875 L7.5625,14.0625 C7.5625,12.1041569 8.17707719,10.3645909 9.40625,8.84375 C10.6354228,7.32290906 12.1874906,6.33333563 14.0625,5.875 L14.0625,4.9375 C14.0625,4.39583063 14.229165,3.93750188 14.5625,3.5625 Z M18.5625,26.375 C18.5625,27.0833369 18.3125025,27.6979141 17.8125,28.21875 C17.3124975,28.7395859 16.7083369,29 16,29 C15.2916631,29 14.6875025,28.7395859 14.1875,28.21875 C13.6874975,27.6979141 13.4375,27.0833369 13.4375,26.375 L18.5625,26.375 Z" id="↳-🎨-Fill" fill="#181C21"></path>
    </g>
</svg>