<?xml version="1.0" encoding="UTF-8"?>
<svg width="32px" height="32px" viewBox="0 0 32 32" version="1.1" xmlns="http://www.w3.org/2000/svg" xmlns:xlink="http://www.w3.org/1999/xlink">
    <!-- Generator: Sketch 63.1 (92452) - https://sketch.com -->
    <title>Icons/ion-md-pin</title>
    <desc>Created with Sketch.</desc>
    <g id="Icons/ion-md-pin" stroke="none" stroke-width="1" fill="none" fill-rule="evenodd" fill-opacity="0.9">
        <path d="M8.9375,4.875 C10.8958431,2.95832375 13.2499862,2 16,2 C18.7500138,2 21.1041569,2.95832375 23.0625,4.875 C25.0208431,6.79167625 26,9.10415312 26,11.8125 C26,13.9791775 25.166675,16.5833181 23.5,19.625 C21.833325,22.6666819 20.166675,25.1666569 18.5,27.125 L16,30 C15.7083319,29.7083319 15.3437522,29.3020859 14.90625,28.78125 C14.4687478,28.2604141 13.6770891,27.2500075 12.53125,25.75 C11.3854109,24.2499925 10.3750044,22.7916738 9.5,21.375 C8.62499563,19.9583262 7.82292031,18.3541756 7.09375,16.5625 C6.36457969,14.7708244 6,13.1875069 6,11.8125 C6,9.10415312 6.97915688,6.79167625 8.9375,4.875 Z M13.4375,14.3125 C14.1458369,14.97917 14.999995,15.3125 16,15.3125 C17.000005,15.3125 17.8437466,14.9687534 18.53125,14.28125 C19.2187534,13.5937466 19.5625,12.7708381 19.5625,11.8125 C19.5625,10.8541619 19.2187534,10.0312534 18.53125,9.34375 C17.8437466,8.65624656 17.000005,8.3125 16,8.3125 C14.999995,8.3125 14.1562534,8.65624656 13.46875,9.34375 C12.7812466,10.0312534 12.4375,10.8541619 12.4375,11.8125 C12.4375,12.7708381 12.77083,13.6041631 13.4375,14.3125 Z" id="↳-🎨-Fill" fill="#181C21"></path>
    </g>
</svg>