<?xml version="1.0" encoding="UTF-8"?>
<svg width="32px" height="32px" viewBox="0 0 32 32" version="1.1" xmlns="http://www.w3.org/2000/svg" xmlns:xlink="http://www.w3.org/1999/xlink">
    <!-- Generator: Sketch 63.1 (92452) - https://sketch.com -->
    <title>Icons/ion-logo-vk</title>
    <desc>Created with Sketch.</desc>
    <g id="Icons/ion-logo-vk" stroke="none" stroke-width="1" fill="none" fill-rule="evenodd" fill-opacity="0.9">
        <path d="M26.6875,18.6875 C28.8958444,20.7291769 30,22.1874956 30,23.0625 C30,23.3541681 29.8750013,23.5833325 29.625,23.75 C29.4166656,23.9166675 28.7083394,24 27.5,24 L25.75,24 C24.8749956,24 24.3333344,23.9583338 24.125,23.875 C23.7499981,23.7499994 23.3750019,23.5625013 23,23.3125 C22.7499987,23.1041656 22.1041719,22.4375056 21.0625,21.3125 C20.729165,20.8958313 20.3750019,20.5833344 20,20.375 C19.5416644,20.1249987 19.145835,20.2083313 18.8125,20.625 C18.5208319,20.9166681 18.375,21.4583294 18.375,22.25 C18.375,23.0416706 18.2500013,23.5416656 18,23.75 C17.8333325,23.8333338 17.7083338,23.875 17.625,23.875 C17.291665,23.9583338 16.6041719,24 15.5625,24 C14.7708294,24 13.7291731,23.7708356 12.4375,23.3125 C11.1458269,22.8541644 10,22.0625056 9,20.9375 C6.91665625,18.6874887 5.20834,16.1875138 3.875,13.4375 C3.74999937,13.1874987 3.5,12.7083369 3.125,12 C2.74999812,11.2916631 2.46875094,10.7187522 2.28125,10.28125 C2.09374906,9.84374781 2,9.52083437 2,9.3125 C2,8.93749812 2.20833125,8.75 2.625,8.75 L6.75,8.75 C7.29166937,8.75 7.68749875,8.97916437 7.9375,9.4375 C7.97916688,9.56250062 8.15624844,9.97916312 8.46875,10.6875 C8.78125156,11.3958369 9.08333188,12.0624969 9.375,12.6875 C10.3333381,14.5208425 11.1874963,15.5624987 11.9375,15.8125 C12.3125019,15.8125 12.5208331,15.7500006 12.5625,15.625 C12.6875006,15.3749987 12.8124994,14.8541706 12.9375,14.0625 C13.1458344,12.395825 13.0416687,11 12.625,9.875 C12.5416663,9.7083325 12.3125019,9.52083437 11.9375,9.3125 C11.8124994,9.27083312 11.6666675,9.22916688 11.5,9.1875 C11.3333325,9.10416625 11.25,9.04166687 11.25,9 C11.5416681,8.62499812 11.9374975,8.37500062 12.4375,8.25 C13.0208363,8.0833325 13.8541613,8 14.9375,8 C16.5625081,8 17.5624981,8.14583187 17.9375,8.4375 C18.1041675,8.6041675 18.2083331,8.72916625 18.25,8.8125 C18.3750006,9.06250125 18.3958338,10.2083231 18.3125,12.25 C18.2708331,14.1250094 18.3749987,15.2499981 18.625,15.625 C18.7083338,15.7500006 18.8333325,15.8125 19,15.8125 C19.1666675,15.8125 19.2916662,15.7916669 19.375,15.75 C20.04167,15.416665 20.874995,14.3333425 21.875,12.5 C22.54167,11.2083269 22.9791656,10.2916694 23.1875,9.75 C23.4375013,9.08333 23.729165,8.75 24.0625,8.75 L28.6875,8.75 C29.1875025,8.75 29.5208325,8.81249938 29.6875,8.9375 C29.8541675,9.06250062 29.9375,9.291665 29.9375,9.625 C29.9375,10.2500031 29.27084,11.4583244 27.9375,13.25 C26.270825,15.4583444 25.4375,16.6874987 25.4375,16.9375 C25.4375,17.1458344 25.4583331,17.3124994 25.5,17.4375 C25.5833338,17.6458344 25.9791631,18.0624969 26.6875,18.6875 Z" id="↳-🎨-Fill" fill="#181C21"></path>
    </g>
</svg>