<?xml version="1.0" encoding="UTF-8"?>
<svg width="32px" height="32px" viewBox="0 0 32 32" version="1.1" xmlns="http://www.w3.org/2000/svg" xmlns:xlink="http://www.w3.org/1999/xlink">
    <!-- Generator: Sketch 63.1 (92452) - https://sketch.com -->
    <title>Icons/ion-md-lock</title>
    <desc>Created with Sketch.</desc>
    <g id="Icons/ion-md-lock" stroke="none" stroke-width="1" fill="none" fill-rule="evenodd" fill-opacity="0.9">
        <path d="M23.5,11.625 C24.16667,11.625 24.7499975,11.875 25.25,12.375 C25.7500025,12.875 26,13.45833 26,14.125 L26,26.625 C26,27.29167 25.7500025,27.875 25.25,28.375 C24.7499975,28.875 24.16667,29.125 23.5,29.125 L8.5,29.125 C7.83333,29.125 7.2500025,28.875 6.75,28.375 C6.2499975,27.875 6,27.29167 6,26.625 L6,14.125 C6,13.45833 6.2499975,12.875 6.75,12.375 C7.2500025,11.875 7.83333,11.625 8.5,11.625 L9.75,11.625 L9.75,9.125 C9.75,7.41665812 10.3645772,5.94792281 11.59375,4.71875 C12.8229228,3.48957719 14.2916581,2.875 16,2.875 C17.7083419,2.875 19.1770772,3.48957719 20.40625,4.71875 C21.6354228,5.94792281 22.25,7.41665812 22.25,9.125 L22.25,11.625 L23.5,11.625 Z M14.25,22.25 C14.7500025,22.7500025 15.33333,23 16,23 C16.66667,23 17.2499975,22.7500025 17.75,22.25 C18.2500025,21.7499975 18.5,21.16667 18.5,20.5 C18.5,19.83333 18.2500025,19.2500025 17.75,18.75 C17.2499975,18.2499975 16.66667,18 16,18 C15.33333,18 14.7500025,18.2499975 14.25,18.75 C13.7499975,19.2500025 13.5,19.83333 13.5,20.5 C13.5,21.16667 13.7499975,21.7499975 14.25,22.25 Z M19.875,11.625 L19.875,9.125 C19.875,8.04166125 19.5000038,7.12500375 18.75,6.375 C17.9999962,5.62499625 17.0833387,5.25 16,5.25 C14.9166613,5.25 14.0000038,5.62499625 13.25,6.375 C12.4999962,7.12500375 12.125,8.04166125 12.125,9.125 L12.125,11.625 L19.875,11.625 Z" id="↳-🎨-Fill" fill="#181C21"></path>
    </g>
</svg>