<?xml version="1.0" encoding="UTF-8"?>
<svg width="32px" height="32px" viewBox="0 0 32 32" version="1.1" xmlns="http://www.w3.org/2000/svg" xmlns:xlink="http://www.w3.org/1999/xlink">
    <!-- Generator: Sketch 63.1 (92452) - https://sketch.com -->
    <title>Icons/ion-md-contact</title>
    <desc>Created with Sketch.</desc>
    <g id="Icons/ion-md-contact" stroke="none" stroke-width="1" fill="none" fill-rule="evenodd" fill-opacity="0.9">
        <path d="M6.8125,6.8125 C9.35417938,4.27082062 12.4166488,3 16,3 C19.5833512,3 22.6458206,4.27082062 25.1875,6.8125 C27.7291794,9.35417938 29,12.4166488 29,16 C29,19.5833512 27.7291794,22.6458206 25.1875,25.1875 C22.6458206,27.7291794 19.5833512,29 16,29 C12.4166488,29 9.35417938,27.7291794 6.8125,25.1875 C4.27082063,22.6458206 3,19.5833512 3,16 C3,12.4166488 4.27082063,9.35417938 6.8125,6.8125 Z M18.6875,8.0625 C17.9374963,7.27082937 17.0416719,6.875 16,6.875 C14.9583281,6.875 14.0520872,7.26041281 13.28125,8.03125 C12.5104128,8.80208719 12.125,9.72916125 12.125,10.8125 C12.125,11.8541719 12.4999962,12.7604128 13.25,13.53125 C14.0000038,14.3020872 14.9166613,14.6875 16,14.6875 C17.0833387,14.6875 17.9999962,14.3020872 18.75,13.53125 C19.5000038,12.7604128 19.875,11.8541719 19.875,10.8125 C19.875,9.72916125 19.4791706,8.81250375 18.6875,8.0625 Z M8.1875,21.5 C10.0625094,24.2916806 12.66665,25.6875 16,25.6875 C19.33335,25.6875 21.9374906,24.2916806 23.8125,21.5 C23.7708331,20.3333275 22.8645922,19.3750038 21.09375,18.625 C19.3229078,17.8749963 17.6250081,17.5 16,17.5 C14.3749919,17.5 12.6770922,17.8749963 10.90625,18.625 C9.13540781,19.3750038 8.22916688,20.3333275 8.1875,21.5 Z" id="↳-🎨-Fill" fill="#181C21"></path>
    </g>
</svg>