<?xml version="1.0" encoding="UTF-8"?>
<svg width="32px" height="32px" viewBox="0 0 32 32" version="1.1" xmlns="http://www.w3.org/2000/svg" xmlns:xlink="http://www.w3.org/1999/xlink">
    <!-- Generator: Sketch 63.1 (92452) - https://sketch.com -->
    <title>Icons/ion-md-close-circle-outline</title>
    <desc>Created with Sketch.</desc>
    <g id="Icons/ion-md-close-circle-outline" stroke="none" stroke-width="1" fill="none" fill-rule="evenodd" fill-opacity="0.9">
        <path d="M23.3125,8.6875 C21.2708231,6.64582312 18.8333475,5.625 16,5.625 C13.1666525,5.625 10.7291769,6.64582312 8.6875,8.6875 C6.64582312,10.7291769 5.625,13.1666525 5.625,16 C5.625,18.8333475 6.64582312,21.2708231 8.6875,23.3125 C10.7291769,25.3541769 13.1666525,26.375 16,26.375 C18.8333475,26.375 21.2708231,25.3541769 23.3125,23.3125 C25.3541769,21.2708231 26.375,18.8333475 26.375,16 C26.375,13.1666525 25.3541769,10.7291769 23.3125,8.6875 Z M6.8125,6.8125 C9.35417938,4.27082062 12.4166488,3 16,3 C19.5833512,3 22.6458206,4.27082062 25.1875,6.8125 C27.7291794,9.35417938 29,12.4166488 29,16 C29,19.5833512 27.7291794,22.6458206 25.1875,25.1875 C22.6458206,27.7291794 19.5833512,29 16,29 C12.4166488,29 9.35417938,27.7291794 6.8125,25.1875 C4.27082063,22.6458206 3,19.5833512 3,16 C3,12.4166488 4.27082063,9.35417938 6.8125,6.8125 Z M22.5,20.6875 L20.6875,22.5 L16,17.8125 L11.3125,22.5 L9.5,20.6875 L14.1875,16 L9.5,11.3125 L11.3125,9.5 L16,14.1875 L20.6875,9.5 L22.5,11.3125 L17.8125,16 L22.5,20.6875 Z" id="↳-🎨-Fill" fill="#181C21"></path>
    </g>
</svg>