<?xml version="1.0" encoding="UTF-8"?>
<svg width="32px" height="32px" viewBox="0 0 32 32" version="1.1" xmlns="http://www.w3.org/2000/svg" xmlns:xlink="http://www.w3.org/1999/xlink">
    <!-- Generator: Sketch 63.1 (92452) - https://sketch.com -->
    <title>Icons/ion-ios-apps</title>
    <desc>Created with Sketch.</desc>
    <g id="Icons/ion-ios-apps" stroke="none" stroke-width="1" fill="none" fill-rule="evenodd" fill-opacity="0.9">
        <path d="M27.1875,8.625 C27.7291694,8.87500125 28,9.17708156 28,9.53125 C28,9.88541844 27.7291694,10.1874988 27.1875,10.4375 L17.9375,14.625 C17.3958306,14.8750013 16.7500037,15 16,15 C15.2499963,15 14.6041694,14.8750013 14.0625,14.625 L4.8125,10.4375 C4.27083063,10.1874988 4,9.88541844 4,9.53125 C4,9.17708156 4.27083063,8.87500125 4.8125,8.625 L14.1875,4.375 C15.3958394,3.83333063 16.6249938,3.83333063 17.875,4.375 L27.1875,8.625 Z M14.0625,23.4375 C14.6041694,23.6875013 15.2499963,23.8125 16,23.8125 C16.7500037,23.8125 17.3958306,23.6875013 17.9375,23.4375 L24.1875,20.625 C24.4791681,20.4999994 24.7499987,20.4999994 25,20.625 L27.1875,21.625 C27.7291694,21.8750013 28,22.1770816 28,22.53125 C28,22.8854184 27.7291694,23.1874988 27.1875,23.4375 L17.9375,27.625 C17.3958306,27.8750013 16.7500037,27.9999994 16,27.9999994 C15.2499963,27.9999994 14.6041694,27.8750013 14.0625,27.625 L4.8125,23.4375 C4.27083063,23.1874988 4,22.8854184 4,22.53125 C4,22.1770816 4.27083063,21.8750013 4.8125,21.625 L7,20.625 C7.29166813,20.4583325 7.58333188,20.4583325 7.875,20.625 L14.0625,23.4375 Z M27.1875,15.125 C27.7291694,15.3750013 28,15.6770816 28,16.03125 C28,16.3854184 27.7291694,16.6874987 27.1875,16.9375 L17.9375,21.125 C17.3958306,21.3750013 16.7500037,21.5 16,21.5 C15.2499963,21.5 14.6041694,21.3750013 14.0625,21.125 L4.8125,16.9375 C4.27083063,16.6874987 4,16.3854184 4,16.03125 C4,15.6770816 4.27083063,15.3750013 4.8125,15.125 L6.8125,14.1875 C7.10416813,14.0624994 7.37499875,14.0624994 7.625,14.1875 L14.375,17.25 C15.4583387,17.6250019 16.5416613,17.6250019 17.625,17.25 L24.375,14.1875 C24.6250013,14.0624994 24.8958319,14.0624994 25.1875,14.1875 L27.1875,15.125 Z" id="↳-🎨-Fill" fill="#181C21"></path>
    </g>
</svg>