<?xml version="1.0" encoding="UTF-8"?>
<svg width="32px" height="32px" viewBox="0 0 32 32" version="1.1" xmlns="http://www.w3.org/2000/svg" xmlns:xlink="http://www.w3.org/1999/xlink">
    <!-- Generator: Sketch 63.1 (92452) - https://sketch.com -->
    <title>Icons/ion-md-basket</title>
    <desc>Created with Sketch.</desc>
    <g id="Icons/ion-md-basket" stroke="none" stroke-width="1" fill="none" fill-rule="evenodd" fill-opacity="0.9">
        <path d="M22.625,12.8125 L28.75,12.8125 C29.083335,12.8125 29.3749987,12.9374987 29.625,13.1875 C29.8750013,13.4375013 30,13.729165 30,14.0625 L29.9375,14.4375 L26.75,26.125 C26.3749981,27.3750062 25.5416731,28 24.25,28 L7.75,28 C6.45832688,28 5.62500187,27.3750062 5.25,26.125 L2.0625,14.4375 C2.02083313,14.3541662 2,14.2291675 2,14.0625 C2,13.729165 2.12499875,13.4375013 2.375,13.1875 C2.62500125,12.9374987 2.916665,12.8125 3.25,12.8125 L9.375,12.8125 L14.9375,4.5625 C15.1875013,4.18749812 15.5416644,4 16,4 C16.5,4 16.8541656,4.166665 17.0625,4.5 L22.625,12.8125 Z M12.1875,12.8125 L19.8125,12.8125 L16,7.25 L12.1875,12.8125 Z M14.1875,22.1875 C14.6875025,22.6875025 15.2916631,22.9375 16,22.9375 C16.7083369,22.9375 17.3124975,22.6875025 17.8125,22.1875 C18.3125025,21.6874975 18.5625,21.10417 18.5625,20.4375 C18.5625,19.7291631 18.3020859,19.1250025 17.78125,18.625 C17.2604141,18.1249975 16.66667,17.875 16,17.875 C15.33333,17.875 14.7395859,18.1249975 14.21875,18.625 C13.6979141,19.1250025 13.4375,19.7291631 13.4375,20.4375 C13.4375,21.10417 13.6874975,21.6874975 14.1875,22.1875 Z" id="↳-🎨-Fill" fill="#181C21"></path>
    </g>
</svg>