<?xml version="1.0" encoding="UTF-8"?>
<svg width="32px" height="32px" viewBox="0 0 32 32" version="1.1" xmlns="http://www.w3.org/2000/svg" xmlns:xlink="http://www.w3.org/1999/xlink">
    <!-- Generator: Sketch 63.1 (92452) - https://sketch.com -->
    <title>Icons/ion-md-people</title>
    <desc>Created with Sketch.</desc>
    <g id="Icons/ion-md-people" stroke="none" stroke-width="1" fill="none" fill-rule="evenodd" fill-opacity="0.9">
        <path d="M21.0625,14.5 C20.0208281,14.5 19.1250037,14.1354203 18.375,13.40625 C17.6249963,12.6770797 17.25,11.7916719 17.25,10.75 C17.25,9.70832813 17.6249963,8.82292031 18.375,8.09375 C19.1250037,7.36457969 20.0208281,7 21.0625,7 C22.1458387,7 23.0624962,7.36457969 23.8125,8.09375 C24.5625038,8.82292031 24.9375,9.70832813 24.9375,10.75 C24.9375,11.7916719 24.5625038,12.6770797 23.8125,13.40625 C23.0624962,14.1354203 22.1458387,14.5 21.0625,14.5 Z M10.9375,14.5 C9.85416125,14.5 8.93750375,14.1354203 8.1875,13.40625 C7.43749625,12.6770797 7.0625,11.7916719 7.0625,10.75 C7.0625,9.70832813 7.43749625,8.82292031 8.1875,8.09375 C8.93750375,7.36457969 9.85416125,7 10.9375,7 C11.9791719,7 12.8749963,7.36457969 13.625,8.09375 C14.3750037,8.82292031 14.75,9.70832813 14.75,10.75 C14.75,11.7916719 14.3750037,12.6770797 13.625,13.40625 C12.8749963,14.1354203 11.9791719,14.5 10.9375,14.5 Z M5.0625,18.4375 C7.10417688,17.6458294 9.06249063,17.25 10.9375,17.25 C12.8125094,17.25 14.7916562,17.6458294 16.875,18.4375 C18.9583437,19.2291706 20,20.29166 20,21.625 L20,25 L2,25 L2,21.625 C2,20.29166 3.02082312,19.2291706 5.0625,18.4375 Z M21.0625,17.9375 C23.1458437,17.9375 25.1562403,18.2291637 27.09375,18.8125 C29.0312597,19.3958363 30,20.3333269 30,21.625 L30,25 L22,25 L22,21.625 C22,20.7499956 21.8541681,20.0729191 21.5625,19.59375 C21.2708319,19.1145809 20.7500038,18.5833363 20,18 C20.2916681,17.9583331 20.6458313,17.9375 21.0625,17.9375 Z" id="↳-🎨-Fill" fill="#181C21"></path>
    </g>
</svg>