<?xml version="1.0" encoding="UTF-8"?>
<svg width="32px" height="32px" viewBox="0 0 32 32" version="1.1" xmlns="http://www.w3.org/2000/svg" xmlns:xlink="http://www.w3.org/1999/xlink">
    <!-- Generator: Sketch 63.1 (92452) - https://sketch.com -->
    <title>Icons/ion-ios-redo</title>
    <desc>Created with Sketch.</desc>
    <g id="Icons/ion-ios-redo" stroke="none" stroke-width="1" fill="none" fill-rule="evenodd" fill-opacity="0.9">
        <path d="M2,27 L2,24.6875 C2,20.4791456 3.18748812,17.1666788 5.5625,14.75 C7.97917875,12.2916544 11.3749781,10.9375013 15.75,10.6875 C15.9166675,10.6875 16,10.6041675 16,10.4375 L16,5.25 C16,4.95833187 16.1249987,4.8958325 16.375,5.0625 L29.875,13.9375 C30.0416675,14.0625006 30.0416675,14.2083325 29.875,14.375 L16.375,23.25 C16.1249987,23.4166675 16,23.333335 16,23 L16,17.9375 C16,17.7708325 15.9166675,17.6875 15.75,17.6875 C13.74999,17.7708338 11.7291769,18.2499956 9.6875,19.125 C7.39582187,20.1666719 5.416675,21.9166544 3.75,24.375 C3.08333,25.4166719 2.64583437,26.2291638 2.4375,26.8125 C2.39583313,26.9375006 2.31250063,27 2.1875,27 L2,27 Z" id="↳-🎨-Fill" fill="#181C21"></path>
    </g>
</svg>