<?xml version="1.0" encoding="UTF-8"?>
<svg width="32px" height="32px" viewBox="0 0 32 32" version="1.1" xmlns="http://www.w3.org/2000/svg" xmlns:xlink="http://www.w3.org/1999/xlink">
    <!-- Generator: Sketch 63.1 (92452) - https://sketch.com -->
    <title>Icons/ion-md-clipboard</title>
    <desc>Created with Sketch.</desc>
    <g id="Icons/ion-md-clipboard" stroke="none" stroke-width="1" fill="none" fill-rule="evenodd" fill-opacity="0.9">
        <path d="M25.3125,5 C26.0208369,5 26.6458306,5.27083062 27.1875,5.8125 C27.7291694,6.35416938 28,6.97916312 28,7.6875 L28,27.3125 C28,28.0208369 27.7291694,28.6458306 27.1875,29.1875 C26.6458306,29.7291694 26.0208369,30 25.3125,30 L6.6875,30 C5.97916312,30 5.35416937,29.7291694 4.8125,29.1875 C4.27083063,28.6458306 4,28.0208369 4,27.3125 L4,7.6875 C4,6.97916312 4.27083063,6.35416938 4.8125,5.8125 C5.35416937,5.27083062 5.97916312,5 6.6875,5 L12.125,5 C12.3333344,4.12499563 12.8020797,3.40625281 13.53125,2.84375 C14.2604203,2.28124719 15.0833287,2 16,2 C16.9166713,2 17.7395797,2.28124719 18.46875,2.84375 C19.1979203,3.40625281 19.6666656,4.12499563 19.875,5 L25.3125,5 Z M16.9375,5.375 C16.6875,5.12499875 16.3750019,5 16,5 C15.6249981,5 15.3125013,5.12499875 15.0625,5.375 C14.8124987,5.62500125 14.6875,5.93749813 14.6875,6.3125 C14.6875,6.68750187 14.8124987,7.01041531 15.0625,7.28125 C15.3125013,7.55208469 15.6249981,7.6875 16,7.6875 C16.3750019,7.6875 16.6875,7.55208469 16.9375,7.28125 C17.1875,7.01041531 17.3125,6.68750187 17.3125,6.3125 C17.3125,5.93749813 17.1875,5.62500125 16.9375,5.375 Z M25.5,27.5 L25.5,7.5 L23,7.5 L23,12 L9,12 L9,7.5 L6.5,7.5 L6.5,27.5 L25.5,27.5 Z" id="↳-🎨-Fill" fill="#181C21"></path>
    </g>
</svg>