<?xml version="1.0" encoding="UTF-8"?>
<svg width="32px" height="32px" viewBox="0 0 32 32" version="1.1" xmlns="http://www.w3.org/2000/svg" xmlns:xlink="http://www.w3.org/1999/xlink">
    <!-- Generator: Sketch 63.1 (92452) - https://sketch.com -->
    <title>Icons/ion-md-checkbox-outline</title>
    <desc>Created with Sketch.</desc>
    <g id="Icons/ion-md-checkbox-outline" stroke="none" stroke-width="1" fill="none" fill-rule="evenodd" fill-opacity="0.9">
        <path d="M10.5625,13.4375 L14.6875,17.5625 L26.125,6.125 L28,8 L14.6875,21.3125 L8.6875,15.3125 L10.5625,13.4375 Z M25.3125,25.3125 L25.3125,14.6875 L28,14.6875 L28,25.3125 C28,26.0208369 27.7291694,26.6458306 27.1875,27.1875 C26.6458306,27.7291694 26.0208369,28 25.3125,28 L6.6875,28 C5.97916312,28 5.35416937,27.7291694 4.8125,27.1875 C4.27083063,26.6458306 4,26.0208369 4,25.3125 L4,6.6875 C4,5.97916312 4.27083063,5.35416937 4.8125,4.8125 C5.35416937,4.27083062 5.97916312,4 6.6875,4 L20,4 L20,6.6875 L6.6875,6.6875 L6.6875,25.3125 L25.3125,25.3125 Z" id="↳-🎨-Fill" fill="#181C21"></path>
    </g>
</svg>