<?xml version="1.0" encoding="UTF-8"?>
<svg width="32px" height="32px" viewBox="0 0 32 32" version="1.1" xmlns="http://www.w3.org/2000/svg" xmlns:xlink="http://www.w3.org/1999/xlink">
    <!-- Generator: Sketch 63.1 (92452) - https://sketch.com -->
    <title>Icons/ion-md-key</title>
    <desc>Created with Sketch.</desc>
    <g id="Icons/ion-md-key" stroke="none" stroke-width="1" fill="none" fill-rule="evenodd" fill-opacity="0.9">
        <path d="M15.5625,14 L29,14 L29,18 L26.3125,18 L26.3125,22 L22,22 L22,18 L15.5625,18 C15.1041644,19.2916731 14.3125056,20.3645791 13.1875,21.21875 C12.0624944,22.0729209 10.8125069,22.5 9.4375,22.5 C7.64582438,22.5 6.12500625,21.8645897 4.875,20.59375 C3.62499375,19.3229103 3,17.7916756 3,16 C3,14.2083244 3.61457719,12.6770897 4.84375,11.40625 C6.07292281,10.1354103 7.56249125,9.5 9.3125,9.5 C10.6875069,9.5 11.9583275,9.92707906 13.125,10.78125 C14.2916725,11.6354209 15.1041644,12.7083269 15.5625,14 Z M7.9375,17.5 C8.39583563,17.9166687 8.91666375,18.125 9.5,18.125 C10.0833363,18.125 10.5833313,17.9166687 11,17.5 C11.4166687,17.0833313 11.625,16.5833363 11.625,16 C11.625,15.4166637 11.4166687,14.9166687 11,14.5 C10.5833313,14.0833313 10.0833363,13.875 9.5,13.875 C8.91666375,13.875 8.40625219,14.0833313 7.96875,14.5 C7.53124781,14.9166687 7.3125,15.4166637 7.3125,16 C7.3125,16.5833363 7.52083125,17.0833313 7.9375,17.5 Z" id="↳-🎨-Fill" fill="#181C21"></path>
    </g>
</svg>