<?xml version="1.0" encoding="UTF-8"?>
<svg width="32px" height="32px" viewBox="0 0 32 32" version="1.1" xmlns="http://www.w3.org/2000/svg" xmlns:xlink="http://www.w3.org/1999/xlink">
    <!-- Generator: Sketch 63.1 (92452) - https://sketch.com -->
    <title>Icons/ion-md-accounting</title>
    <desc>Created with Sketch.</desc>
    <g id="Icons/ion-md-accounting" stroke="none" stroke-width="1" fill="none" fill-rule="evenodd" fill-opacity="0.9">
        <path d="M13.8490566,3 C14.5680185,3 15.1509434,3.58208009 15.1509434,4.3 L15.1509434,4.3 L15.1509434,4.73333333 L20.5381781,4.73333333 L26,10.1872396 L26,16.8666667 L25.1320755,16.8666667 L25.1320755,10.8 L19.9245283,10.8 L19.9245283,5.6 L15.1509434,5.6 L15.1509434,16.4333333 C15.1509434,17.1512532 14.5680185,17.7333333 13.8490566,17.7333333 L13.8490566,17.7333333 L6.90566038,17.7333333 L6.90566038,28.1333333 L25.1320755,28.1333333 L25.1320755,22.9333333 L26,22.9333333 L26,29 L6.03773585,29 L6.03773585,17.7333333 L4.30188679,17.7333333 C3.58292491,17.7333333 3,17.1512532 3,16.4333333 L3,16.4333333 L3,4.3 C3,3.58208009 3.58292491,3 4.30188679,3 L4.30188679,3 Z M12.5,18 C14.9842285,18.0026367 16.9973633,20.0157715 17,22.5 C17,24.9853272 14.9853272,27 12.5,27 C10.0146728,27 8,24.9853272 8,22.5 C8,20.0146728 10.0146728,18 12.5,18 Z M26.7441354,16.3748734 C27.2670692,15.8750422 28.0898671,15.8750422 28.612801,16.3748734 C29.1290663,16.8915021 29.1290663,17.7294355 28.612801,18.2460641 L28.612801,18.2460641 L21.0611291,25.8068459 C21.0241302,25.843671 20.9811081,25.8733896 20.9337837,25.8951401 L20.9337837,25.8951401 L18.6243566,26.9598388 C18.4570006,27.0367193 18.2593139,27.0011863 18.129172,26.8706832 C17.9988151,26.7403954 17.9633218,26.5424872 18.0401163,26.3749436 L18.0401163,26.3749436 L19.103623,24.0629281 C19.1253491,24.0155507 19.1552495,23.9724804 19.1918183,23.9354399 L19.1918183,23.9354399 Z M12.5,18.9 C10.5116944,18.9 8.9,20.5116944 8.9,22.5 C8.9,24.4883057 10.5116944,26.1 12.5,26.1 C14.487207,26.0978028 16.0978028,24.487207 16.1,22.5 C16.1,20.5116944 14.4883057,18.9 12.5,18.9 Z M25.5016567,18.8658462 L19.8707072,24.5035376 L19.3389539,25.6591147 L20.4932372,25.1267653 L26.1246169,19.4895047 L25.5016567,18.8658462 Z M12.875,20 L12.875,20.458374 C13.5279541,20.5950928 14,21.0746256 14,21.6666667 L14,21.6666667 L13.25,21.6666667 C13.25,21.496582 12.9579468,21.25 12.5,21.25 C12.0420532,21.25 11.75,21.496582 11.75,21.6666667 C11.75,21.8367513 12.0420532,22.0833333 12.5,22.0833333 C13.3411865,22.0833333 14,22.6320394 14,23.3333333 C14,23.9261881 13.5279541,24.4059245 12.875,24.541626 L12.875,24.541626 L12.875,25 L12.125,25 L12.125,24.541626 C11.4720459,24.4049072 11,23.9253744 11,23.3333333 L11,23.3333333 L11.75,23.3333333 C11.75,23.503418 12.0420532,23.75 12.5,23.75 C12.9579468,23.75 13.25,23.503418 13.25,23.3333333 C13.25,23.1632487 12.9579468,22.9166667 12.5,22.9166667 C11.6588135,22.9166667 11,22.3679606 11,21.6666667 C11,21.0738119 11.4720459,20.5940755 12.125,20.458374 L12.125,20.458374 L12.125,20 L12.875,20 Z M26.4343762,17.9316506 L26.1259076,18.240465 L26.7488679,18.863908 L27.0573364,18.5553091 L26.4343762,17.9316506 Z M18,16 L18,18 L17,18 L17,16 L18,16 Z M24,16 L24,18 L19,18 L19,16 L24,16 Z M27.9913465,16.9965937 C27.8171069,16.8299115 27.542841,16.8299115 27.3688165,16.9965937 L27.3688165,16.9965937 L27.0569062,17.3084229 L27.6798664,17.9320814 L27.9913465,17.6202521 C28.1632198,17.4479708 28.1632198,17.168875 27.9913465,16.9965937 Z M13.8490566,3.86666667 L4.30188679,3.86666667 C4.06223281,3.86666667 3.86792453,4.06069335 3.86792453,4.3 L3.86792453,4.3 L3.86792453,16.4333333 C3.86792453,16.67264 4.06223281,16.8666667 4.30188679,16.8666667 L4.30188679,16.8666667 L5.5028463,16.8678398 C5.20238642,16.6953328 5,16.3712818 5,16 L5,16 L5,15 C5,14.4477539 5.44775388,14 6,14 L6,14 L5.88338601,13.9932717 C5.38607349,13.935502 5,13.5128 5,13 L5,13 L5,12 C5,11.4477539 5.44775388,11 6,11 L6,11 L5.88338601,10.9932717 C5.38607349,10.935502 5,10.5128 5,10 L5,10 L5,9 C5,8.44775388 5.44775388,8 6,8 L6,8 L7,8 C7.55224612,8 8,8.44775388 8,9 L8,9 L8.00672828,8.88338601 C8.06449796,8.38607349 8.48720003,8 9,8 L9,8 L10,8 C10.5522461,8 11,8.44775388 11,9 L11,9 L11.0067283,8.88338601 C11.064498,8.38607349 11.4872,8 12,8 L12,8 L13,8 C13.5522461,8 14,8.44775388 14,9 L14,9 L14,10 C14,10.5522461 13.5522461,11 13,11 L13,11 L13.116614,11.0067283 C13.6139265,11.064498 14,11.4872 14,12 L14,12 L14,13 C14,13.5522461 13.5522461,14 13,14 L13,14 L13.116614,14.0067283 C13.6139265,14.064498 14,14.4872 14,15 L14,15 L14,16 C14,16.3712818 13.7976136,16.6953328 13.4971537,16.8678398 L13.8490566,16.8666667 C14.0887106,16.8666667 14.2830189,16.67264 14.2830189,16.4333333 L14.2830189,16.4333333 L14.2830189,4.3 C14.2830189,4.06069335 14.0887106,3.86666667 13.8490566,3.86666667 L13.8490566,3.86666667 Z M11,16 C11,16.3712818 10.7976136,16.6953328 10.4971537,16.8678398 L11.5028463,16.8678398 C11.2023864,16.6953328 11,16.3712818 11,16 Z M8,16 C8,16.3712818 7.79761358,16.6953328 7.4971537,16.8678398 L8.5028463,16.8678398 C8.20238642,16.6953328 8,16.3712818 8,16 Z M10,15 L9,15 L9,16 L10,16 L10,15 Z M7,15 L6,15 L6,16 L7,16 L7,15 Z M13,15 L12,15 L12,16 L13,16 L13,15 Z M24,14 L24,15 L19,15 L19,14 L24,14 Z M18,14 L18,15 L17,15 L17,14 L18,14 Z M8,13 L7.99327172,13.116614 C7.93550204,13.6139265 7.51279997,14 7,14 L7,14 L7.11661399,14.0067283 C7.61392651,14.064498 8,14.4872 8,15 L8,15 L8.00672828,14.883386 C8.06449796,14.3860735 8.48720003,14 9,14 L9,14 L8.88338601,13.9932717 C8.38607349,13.935502 8,13.5128 8,13 L8,13 Z M11,13 L10.9932717,13.116614 C10.935502,13.6139265 10.5128,14 10,14 L10,14 L10.116614,14.0067283 C10.6139265,14.064498 11,14.4872 11,15 L11,15 L11.0067283,14.883386 C11.064498,14.3860735 11.4872,14 12,14 L12,14 L11.883386,13.9932717 C11.3860735,13.935502 11,13.5128 11,13 L11,13 Z M13,12 L12,12 L12,13 L13,13 L13,12 Z M18,12 L18,13 L17,13 L17,12 L18,12 Z M10,12 L9,12 L9,13 L10,13 L10,12 Z M7,12 L6,12 L6,13 L7,13 L7,12 Z M24,12 L24,13 L19,13 L19,12 L24,12 Z M8,10 L7.99327172,10.116614 C7.93550204,10.6139265 7.51279997,11 7,11 L7,11 L7.11661399,11.0067283 C7.61392651,11.064498 8,11.4872 8,12 L8,12 L8.00672828,11.883386 C8.06449796,11.3860735 8.48720003,11 9,11 L9,11 L8.88338601,10.9932717 C8.38607349,10.935502 8,10.5128 8,10 L8,10 Z M11,10 L10.9932717,10.116614 C10.935502,10.6139265 10.5128,11 10,11 L10,11 L10.116614,11.0067283 C10.6139265,11.064498 11,11.4872 11,12 L11,12 L11.0067283,11.883386 C11.064498,11.3860735 11.4872,11 12,11 L12,11 L11.883386,10.9932717 C11.3860735,10.935502 11,10.5128 11,10 L11,10 Z M7,9 L6,9 L6,10 L7,10 L7,9 Z M10,9 L9,9 L9,10 L10,10 L10,9 Z M13,9 L12,9 L12,10 L13,10 L13,9 Z M20.7924528,6.21276042 L20.7924528,9.93333333 L24.5184257,9.93333333 L20.7924528,6.21276042 Z M14,4 L14,7 L4,7 L4,4 L14,4 Z M13.0909091,4.85714286 L4.90909091,4.85714286 L4.90909091,6.14285714 L13.0909091,6.14285714 L13.0909091,4.85714286 Z" id="↳-🎨-Fill" fill="#181C21"></path>
    </g>
</svg>