<?xml version="1.0" encoding="UTF-8"?>
<svg width="32px" height="32px" viewBox="0 0 32 32" version="1.1" xmlns="http://www.w3.org/2000/svg" xmlns:xlink="http://www.w3.org/1999/xlink">
    <!-- Generator: Sketch 63.1 (92452) - https://sketch.com -->
    <title>Icons/ion-ios-more</title>
    <desc>Created with Sketch.</desc>
    <g id="Icons/ion-ios-more" stroke="none" stroke-width="1" fill="none" fill-rule="evenodd" fill-opacity="0.9">
        <path d="M14.3125,14.3125 C14.7708356,13.8541644 15.33333,13.625 16,13.625 C16.66667,13.625 17.2291644,13.8541644 17.6875,14.3125 C18.1458356,14.7708356 18.375,15.33333 18.375,16 C18.375,16.66667 18.1458356,17.2291644 17.6875,17.6875 C17.2291644,18.1458356 16.66667,18.375 16,18.375 C15.33333,18.375 14.7708356,18.1458356 14.3125,17.6875 C13.8541644,17.2291644 13.625,16.66667 13.625,16 C13.625,15.33333 13.8541644,14.7708356 14.3125,14.3125 Z M4.6875,14.3125 C5.14583563,13.8541644 5.70833,13.625 6.375,13.625 C7.04167,13.625 7.60416437,13.8541644 8.0625,14.3125 C8.52083563,14.7708356 8.75,15.33333 8.75,16 C8.75,16.66667 8.52083563,17.2291644 8.0625,17.6875 C7.60416437,18.1458356 7.04167,18.375 6.375,18.375 C5.70833,18.375 5.14583563,18.1458356 4.6875,17.6875 C4.22916437,17.2291644 4,16.66667 4,16 C4,15.33333 4.22916437,14.7708356 4.6875,14.3125 Z M23.9375,14.3125 C24.3958356,13.8541644 24.95833,13.625 25.625,13.625 C26.29167,13.625 26.8541644,13.8541644 27.3125,14.3125 C27.7708356,14.7708356 28,15.33333 28,16 C28,16.66667 27.7708356,17.2291644 27.3125,17.6875 C26.8541644,18.1458356 26.29167,18.375 25.625,18.375 C24.95833,18.375 24.3958356,18.1458356 23.9375,17.6875 C23.4791644,17.2291644 23.25,16.66667 23.25,16 C23.25,15.33333 23.4791644,14.7708356 23.9375,14.3125 Z" id="↳-🎨-Fill" fill="#181C21"></path>
    </g>
</svg>