<?xml version="1.0" encoding="UTF-8"?>
<svg width="32px" height="32px" viewBox="0 0 32 32" version="1.1" xmlns="http://www.w3.org/2000/svg" xmlns:xlink="http://www.w3.org/1999/xlink">
    <!-- Generator: Sketch 63.1 (92452) - https://sketch.com -->
    <title>Icons/ion-md-happy</title>
    <desc>Created with Sketch.</desc>
    <g id="Icons/ion-md-happy" stroke="none" stroke-width="1" fill="none" fill-rule="evenodd" fill-opacity="0.9">
        <path d="M6.8125,6.8125 C9.35417938,4.27082062 12.4166488,3 16,3 C19.5833512,3 22.6458206,4.27082062 25.1875,6.8125 C27.7291794,9.35417938 29,12.4166488 29,16 C29,19.5833512 27.7291794,22.6458206 25.1875,25.1875 C22.6458206,27.7291794 19.5833512,29 16,29 C12.4166488,29 9.35417938,27.7291794 6.8125,25.1875 C4.27082063,22.6458206 3,19.5833512 3,16 C3,12.4166488 4.27082063,9.35417938 6.8125,6.8125 Z M8.625,23.375 C10.6666769,25.37501 13.1249856,26.375 16,26.375 C18.8750144,26.375 21.3229066,25.3645934 23.34375,23.34375 C25.3645934,21.3229066 26.375,18.8750144 26.375,16 C26.375,13.1249856 25.3645934,10.6770934 23.34375,8.65625 C21.3229066,6.63540656 18.8750144,5.625 16,5.625 C13.1249856,5.625 10.6770934,6.63540656 8.65625,8.65625 C6.63540656,10.6770934 5.625,13.1249856 5.625,16 C5.625,18.8750144 6.625,21.3333231 8.625,23.375 Z M21.9375,14.1875 C21.5624981,14.520835 21.1041694,14.6875 20.5625,14.6875 C20.0208306,14.6875 19.5625019,14.5104184 19.1875,14.15625 C18.8124981,13.8020816 18.625,13.3333362 18.625,12.75 C18.625,12.1666638 18.8124981,11.6979184 19.1875,11.34375 C19.5625019,10.9895816 20.0208306,10.8125 20.5625,10.8125 C21.1041694,10.8125 21.5624981,10.9895816 21.9375,11.34375 C22.3125019,11.6979184 22.5,12.1666638 22.5,12.75 C22.5,13.3333362 22.3125019,13.8125 21.9375,14.1875 Z M12.8125,14.1875 C12.4374981,14.520835 11.9791694,14.6875 11.4375,14.6875 C10.8958306,14.6875 10.4375019,14.5104184 10.0625,14.15625 C9.68749812,13.8020816 9.5,13.3333362 9.5,12.75 C9.5,12.1666638 9.68749812,11.6979184 10.0625,11.34375 C10.4375019,10.9895816 10.8958306,10.8125 11.4375,10.8125 C11.9791694,10.8125 12.4374981,10.9895816 12.8125,11.34375 C13.1875019,11.6979184 13.375,12.1666638 13.375,12.75 C13.375,13.3333362 13.1875019,13.8125 12.8125,14.1875 Z M20,21.9375 C18.8333275,22.7291706 17.5000075,23.125 16,23.125 C14.4999925,23.125 13.1562559,22.7187541 11.96875,21.90625 C10.7812441,21.0937459 9.91666937,20.0000069 9.375,18.625 L22.625,18.625 C22.0833306,20.0000069 21.2083394,21.1041625 20,21.9375 Z" id="↳-🎨-Fill" fill="#181C21"></path>
    </g>
</svg>