<?xml version="1.0" encoding="UTF-8"?>
<svg width="32px" height="32px" viewBox="0 0 32 32" version="1.1" xmlns="http://www.w3.org/2000/svg" xmlns:xlink="http://www.w3.org/1999/xlink">
    <!-- Generator: Sketch 63.1 (92452) - https://sketch.com -->
    <title>Icons/ion-md-megaphone</title>
    <desc>Created with Sketch.</desc>
    <g id="Icons/ion-md-megaphone" stroke="none" stroke-width="1" fill="none" fill-rule="evenodd" fill-opacity="0.9">
        <path d="M23.875,8.9375 C25.2916738,10.3541738 26,12.0416569 26,14 C26,15.9583431 25.2916738,17.6458262 23.875,19.0625 L22.4375,17.625 C23.4375,16.624995 23.9375,15.4166738 23.9375,14 C23.9375,12.5833262 23.4375,11.375005 22.4375,10.375 L23.875,8.9375 Z M26.75,6.1875 C28.9166775,8.3541775 30,10.9583181 30,14 C30,17.0416819 28.9166775,19.6458225 26.75,21.8125 L25.375,20.375 C27.1250087,18.6249913 28,16.5000125 28,14 C28,11.4999875 27.1250087,9.37500875 25.375,7.625 L26.75,6.1875 Z M20,11.5 C20.5833363,11.5833338 21.0624981,11.8541644 21.4375,12.3125 C21.8125019,12.7708356 22,13.33333 22,14 C22,14.66667 21.8125019,15.2291644 21.4375,15.6875 C21.0624981,16.1458356 20.5833363,16.4166662 20,16.5 L20,23 L18,23 L12,19 L10.125,19 L12,27 L9,27 L4,19 L2,18 L2,11 L4,10 L12,10 L18,5 L20,5 L20,11.5 Z" id="↳-🎨-Fill" fill="#181C21"></path>
    </g>
</svg>