<?xml version="1.0" encoding="UTF-8"?>
<svg width="32px" height="32px" viewBox="0 0 32 32" version="1.1" xmlns="http://www.w3.org/2000/svg" xmlns:xlink="http://www.w3.org/1999/xlink">
    <!-- Generator: Sketch 63.1 (92452) - https://sketch.com -->
    <title>Icons/ion-md-crafts</title>
    <desc>Created with Sketch.</desc>
    <g id="Icons/ion-md-crafts" stroke="none" stroke-width="1" fill="none" fill-rule="evenodd" fill-opacity="0.9">
        <path d="M28.1735343,13.8195984 L26.6226456,13.8195984 C26.3351793,13.8195984 26.0818594,13.9650142 25.9337587,14.1847015 C24.7481587,14.0627399 24.5901316,13.875693 24.462082,13.7232409 C24.2877758,13.5158671 24.0811097,13.3399609 23.8476426,13.2004087 L20.283894,11.0692075 C19.5580812,9.40943496 18.3440919,8.37178394 17.4431788,7.79012082 C17.0923825,7.56359274 16.8829371,7.17992179 16.8829371,6.76380596 C16.8829371,6.51831911 16.9563919,6.28104123 17.0953604,6.07738094 L17.9815826,4.7788024 C18.1582711,4.5202203 18.2192187,4.20984366 18.1535065,3.90493961 C18.0877942,3.60003556 17.9039587,3.34086709 17.635948,3.17492894 C17.4507228,3.06058993 17.2373068,3 17.0189277,3 L12.8081813,3 C12.5896037,3 12.3761877,3.06058993 12.1911611,3.17492894 C11.9231504,3.34067165 11.7393148,3.59984007 11.6736026,3.90493961 C11.6078903,4.20984366 11.6688379,4.5202203 11.8455265,4.7788024 L12.7317487,6.07738094 C12.8707172,6.28104123 12.944172,6.51831911 12.944172,6.76380596 C12.944172,7.17992179 12.7347266,7.56359274 12.3839303,7.79012082 C11.0488398,8.65206115 8.06538406,11.1925373 9.19341142,16.1575871 C9.82254184,18.9269367 10.3085346,20.8787135 10.6007656,21.8178572 L4.31561615,21.8178572 C3.79726353,21.8178572 3.34402759,22.1806148 3.238213,22.6801884 L3.02340739,23.6953625 C2.95551131,24.0160981 3.03690714,24.3458244 3.24694816,24.6001066 C3.45679063,24.8541933 3.76808013,25 4.10081049,25 L25.7262986,25 C26.0592275,25 26.3703184,24.8541933 26.5803594,24.6001066 C26.7902019,24.3458244 26.8715978,24.0160981 26.8037017,23.6953625 L26.5888961,22.6801884 C26.4830815,22.1806148 26.0298455,21.8178572 25.5114929,21.8178572 L19.2263435,21.8178572 C19.3136952,21.5369936 19.4191127,21.1632907 19.5412065,20.700462 L19.9549356,20.700462 C21.168925,20.700462 22.3719954,20.5220149 23.531787,20.1700071 L25.9008033,19.8760483 C26.0423527,20.1250533 26.3125472,20.2941187 26.6226456,20.2941187 L28.1735343,20.2941187 C28.6291526,20.2941187 29,19.9292111 29,19.4804549 L29,14.6334577 C29,14.1847015 28.6291526,13.8195984 28.1735343,13.8195984 L28.1735343,13.8195984 Z M12.4194665,4.0607143 C12.4419,3.95614783 12.5048329,3.86741296 12.5967507,3.81053662 C12.6602791,3.77125086 12.7333369,3.75053305 12.8081813,3.75053305 L17.0189277,3.75053305 C17.0937722,3.75053305 17.1670285,3.77125086 17.2303584,3.81053662 C17.3222762,3.86741296 17.3852091,3.95614783 17.4078411,4.0607143 C17.4302746,4.16508528 17.4092307,4.27160623 17.3488787,4.36014571 L16.9103337,5.00278964 L12.9167753,5.00278964 L12.4782304,4.36014571 C12.4176798,4.27160623 12.3968345,4.16508528 12.4194665,4.0607143 L12.4194665,4.0607143 Z M12.8018285,8.41771501 C13.3684231,8.05202559 13.7067122,7.43361763 13.7067122,6.76380596 C13.7067122,6.40593459 13.6086401,6.05920398 13.4240105,5.75332268 L16.4030986,5.75332268 C16.218469,6.05920398 16.1205954,6.40593459 16.1205954,6.76380596 C16.1205954,7.43361763 16.458686,8.05202559 17.0252806,8.41771501 C17.2587477,8.56840794 17.5154424,8.75291398 17.7782915,8.97475123 L12.0510014,8.97475123 C12.317821,8.74920044 12.5751113,8.56410803 12.8018285,8.41771501 L12.8018285,8.41771501 Z M25.8426351,22.8334222 L26.0574407,23.8485963 C26.0860285,23.9834577 26.0266691,24.080597 25.9887505,24.1265281 C25.950832,24.1724592 25.8662597,24.249467 25.7262986,24.249467 L4.10081049,24.249467 C3.96084934,24.249467 3.87627709,24.1724592 3.83835852,24.1265281 C3.80043996,24.080597 3.74108053,23.9834577 3.76966834,23.8485963 L3.984474,22.8334222 C4.01703234,22.6797974 4.1563979,22.5683902 4.31561615,22.5683902 L25.5112944,22.5683902 C25.6707112,22.5683902 25.8098782,22.6797974 25.8426351,22.8334222 Z M18.4262818,21.8178572 L11.4008272,21.8178572 C11.2437928,21.3571784 10.8451516,19.9886283 9.93729011,15.9936034 C9.55453108,14.3090085 9.64605177,12.7839019 10.2074846,11.4493604 L11.6116623,11.4493604 C11.8222989,11.4493604 11.9928331,11.2814677 11.9928331,11.0740938 C11.9928331,10.86672 11.8222989,10.6988273 11.6116623,10.6988273 L10.585479,10.6988273 C10.8006817,10.3337242 11.0401046,10.0102523 11.2884613,9.72528428 L18.5414272,9.72528428 C18.7903794,10.0110341 19.0292067,10.3347015 19.2432183,10.6988273 L13.1383309,10.6988273 C12.9276943,10.6988273 12.75716,10.86672 12.75716,11.0740938 C12.75716,11.2814677 12.9276943,11.4493604 13.1383309,11.4493604 L18.1896383,11.4493604 C18.0925589,11.6829246 18.0727062,11.9397477 18.134845,12.1895345 C18.2128659,12.5016702 18.4096056,12.7655295 18.6883368,12.9316631 L19.3436726,13.323543 L15.1071178,13.323543 C14.4343116,13.323543 13.8887609,13.8330846 13.8653348,14.4835465 C13.8589819,14.6567164 13.889555,14.825 13.9534806,14.9801884 L13.5625819,14.9801884 C13.2276678,14.9801884 12.9153856,15.1107498 12.6827126,15.3480277 C12.4504367,15.5851102 12.32874,15.8974414 12.3408501,16.2273632 C12.359313,16.7427683 12.7057417,17.169634 13.1835949,17.3248223 C13.1079563,17.4811834 13.0656702,17.6559168 13.0656702,17.8404229 C13.0656702,18.5039801 13.6141988,19.0440121 14.2881962,19.0440121 L14.8657096,19.0440121 C14.8077399,19.1839552 14.7757772,19.3369936 14.7757772,19.4970682 C14.7757772,20.1608209 15.3243058,20.7006574 15.9983031,20.7006574 L18.7532549,20.7006574 C18.5930441,21.2971749 18.4900088,21.6315921 18.4262818,21.8178572 L18.4262818,21.8178572 Z M23.4033404,19.4294421 C23.3809069,19.4321784 23.359069,19.4368692 23.3376281,19.4433191 C22.241365,19.7794954 21.1032127,19.9499289 19.9549356,19.9499289 L15.9983031,19.9499289 C15.7445863,19.9499289 15.5381188,19.7466595 15.5381188,19.4968728 C15.5381188,19.247086 15.7445863,19.0438167 15.9983031,19.0438167 L18.4967588,19.0438167 C18.7071968,19.0438167 18.8779296,18.8757285 18.8779296,18.6685501 C18.8779296,18.4611762 18.7071968,18.2932836 18.4967588,18.2932836 L14.2881962,18.2932836 C14.0344794,18.2932836 13.8280118,18.0900142 13.8280118,17.8402274 C13.8280118,17.5904406 14.0344794,17.3871713 14.2881962,17.3871713 L18.4967588,17.3871713 C18.7071968,17.3871713 18.8779296,17.2192786 18.8779296,17.0119047 C18.8779296,16.8045309 18.7071968,16.6366382 18.4967588,16.6366382 L13.5826331,16.6366382 C13.326534,16.6366382 13.1113313,16.4409915 13.1025961,16.2003909 C13.0982285,16.0760839 13.1438896,15.9582267 13.2312413,15.8689054 C13.3189899,15.7797796 13.4365176,15.730526 13.5625819,15.730526 L18.4967588,15.730526 C18.7071968,15.730526 18.8779296,15.5624378 18.8779296,15.3552594 C18.8779296,15.1478856 18.7071968,14.9799929 18.4967588,14.9799929 L15.0870667,14.9799929 C14.9610023,14.9799929 14.8432762,14.9307391 14.755726,14.8414179 C14.6683744,14.7522921 14.6227132,14.634435 14.6270809,14.5099325 C14.635816,14.2695274 14.8512172,14.0738806 15.1071178,14.0738806 L20.3611208,14.0738806 C20.5777132,14.0738806 20.7625413,13.935892 20.8211066,13.7304726 C20.8794734,13.5250533 20.7943055,13.3125977 20.6090804,13.2019723 L19.0838015,12.289801 C18.9785825,12.2270611 18.9047306,12.1279673 18.8753487,12.0103056 C18.8459668,11.8928394 18.8648268,11.7710732 18.9285538,11.6676795 C19.0599783,11.4538557 19.3436726,11.3854478 19.560265,11.5144456 L23.4519794,13.8416845 C23.6125873,13.937651 23.7547322,14.0588308 23.8746422,14.2015103 C24.1863288,14.5722814 24.5865581,14.794705 25.7959813,14.9248756 L25.7959813,19.1321606 L23.4033404,19.4294421 Z M10.2235154,26.0866288 C10.3856998,25.950914 10.6230859,25.9774847 10.7534618,26.146515 C10.8840339,26.3153409 10.8583122,26.5624481 10.6961278,26.6981628 L10.6961278,26.6981628 L8.88441414,28.2151434 L20.1155858,28.2151434 L18.3076028,26.7012287 C18.1454184,26.5655139 18.1196967,26.3184068 18.2502689,26.1495809 C18.3806447,25.9807549 18.6180308,25.9537755 18.7802152,26.0896946 L18.7802152,26.0896946 L20.7437068,27.73401 C20.9728462,27.9257276 21.0576691,28.2361956 20.9600836,28.5247939 C20.8623017,28.8135966 20.6092076,29 20.3152729,29 L20.3152729,29 L8.68472706,29 C8.39079239,29 8.137502,28.8133922 8.03991643,28.5247939 C7.94233092,28.2361956 8.02715375,27.9257276 8.25629323,27.7338056 L8.25629323,27.7338056 Z M28.1735343,14.5701315 C28.208872,14.5701315 28.2376584,14.598472 28.2376584,14.6332623 L28.2376584,19.4804549 C28.2376584,19.5152452 28.208872,19.5435857 28.1735343,19.5435857 L26.6226456,19.5435857 C26.5873079,19.5435857 26.558323,19.5152452 26.558323,19.4804549 L26.558323,14.6332623 C26.558323,14.598472 26.5871093,14.5701315 26.6226456,14.5701315 L28.1735343,14.5701315 Z" id="↳-🎨-Fill" fill="#181C21"></path>
    </g>
</svg>