<?xml version="1.0" encoding="UTF-8"?>
<svg width="32px" height="32px" viewBox="0 0 32 32" version="1.1" xmlns="http://www.w3.org/2000/svg" xmlns:xlink="http://www.w3.org/1999/xlink">
    <!-- Generator: Sketch 63.1 (92452) - https://sketch.com -->
    <title>Icons/ion-md-bookmarks</title>
    <desc>Created with Sketch.</desc>
    <g id="Icons/ion-md-bookmarks" stroke="none" stroke-width="1" fill="none" fill-rule="evenodd" fill-opacity="0.9">
        <path d="M25.3125,4 C26.0625038,4 26.6979141,4.26041406 27.21875,4.78125 C27.7395859,5.30208594 28,5.93749625 28,6.6875 L28,25.3125 C28,26.0625038 27.7395859,26.6979141 27.21875,27.21875 C26.6979141,27.7395859 26.0625038,28 25.3125,28 L24,28 C24.9583381,27.7083319 25.4375,26.8125075 25.4375,25.3125 L25.4375,6.6875 C25.4375,5.27082625 24.9583381,4.37500188 24,4 L25.3125,4 Z M21.625,4 C22.29167,4.04166688 22.8541644,4.32291406 23.3125,4.84375 C23.7708356,5.36458594 24,5.97916312 24,6.6875 L24,25.3125 C24,26.0208369 23.7708356,26.6354141 23.3125,27.15625 C22.8541644,27.6770859 22.29167,27.9583331 21.625,28 L6.6875,28 C5.93749625,28 5.30208594,27.7395859 4.78125,27.21875 C4.26041406,26.6979141 4,26.0625038 4,25.3125 L4,6.6875 C4,5.93749625 4.26041406,5.30208594 4.78125,4.78125 C5.30208594,4.26041406 5.93749625,4 6.6875,4 L21.625,4 Z M13,16 L13,6 L6,6 L6,16 L9.5,14 L13,16 Z" id="↳-🎨-Fill" fill="#181C21"></path>
    </g>
</svg>