<?xml version="1.0" encoding="UTF-8"?>
<svg width="32px" height="32px" viewBox="0 0 32 32" version="1.1" xmlns="http://www.w3.org/2000/svg" xmlns:xlink="http://www.w3.org/1999/xlink">
    <!-- Generator: Sketch 63.1 (92452) - https://sketch.com -->
    <title>Icons/ion-md-beauty</title>
    <desc>Created with Sketch.</desc>
    <g id="Icons/ion-md-beauty" stroke="none" stroke-width="1" fill="none" fill-rule="evenodd" fill-opacity="0.9">
        <path d="M8.63386779,20.5849265 L7.64407892,18.2757659 C7.33606617,17.5783526 6.52088978,17.2626292 5.82333149,17.5705779 C5.12577321,17.8785266 4.80998415,18.6935335 5.1179969,19.3909468 C6.94114479,23.4008784 7.02996174,23.835271 7.83851602,24.6428573 L11.0791344,27.882802 C11.1541458,27.9578205 11.2558902,28.0000047 11.3619884,28.0000047 L15.699216,28.0000047 C15.920172,28.0000047 16.0992923,27.8209169 16.0992923,27.6000068 C16.1531133,26.7889734 16.1086489,25.9744088 15.966867,25.1740482 C16.3210731,25.2076417 16.6776642,25.2076417 17.0318703,25.1740482 C16.8594374,25.9060357 16.899445,26.355628 16.899445,27.5996068 C16.899445,27.8205169 17.0785653,27.9996 17.2995213,27.9996 L21.6383492,27.9996 C21.7444474,27.9995774 21.8461918,27.9574205 21.9212032,27.882402 L25.1618216,24.6424573 C25.9691756,23.834871 26.0335879,23.4540775 27.8823407,19.3905469 C28.08159,18.9393996 28.0249697,18.4162461 27.7338081,18.0181534 C27.4426465,17.6200607 26.961178,17.4075084 26.4707671,17.4605629 C25.9803562,17.5136174 25.555508,17.8242186 25.3562587,18.2753659 L24.3648695,20.5849265 C23.9004545,20.263692 23.3232583,20.1502187 22.7717655,20.2717318 C22.9568874,19.8177838 23.1140118,19.3529205 23.2422553,18.8797556 C24.0364068,18.7197583 25.9603739,18.0225702 25.9603739,14.9998218 C25.9603739,13.9754392 25.7819399,12.7130608 24.7629455,12.5738631 C26.2032796,10.3451093 26.7788487,7.66674418 26.3812543,5.04319159 L26.2212237,4.31320404 C26.18038,4.12949722 26.0169764,3.99910121 25.8287488,4.00000467 L7.16998845,4.00000467 C6.9825096,4.00000467 6.82019685,4.13023054 6.77951395,4.31320404 L6.61148188,5.07319107 C6.22100553,7.68919313 6.79901205,10.3577396 8.23699206,12.5778631 C7.22799952,12.7282605 7.05316616,13.987039 7.05316616,15.0014217 C7.05316616,18.0253701 8.97873359,18.7213583 9.77368528,18.8813555 C9.90265981,19.3558488 10.0604492,19.822039 10.2461754,20.2773317 C9.68939884,20.1480666 9.1039132,20.259765 8.63386779,20.5849265 Z M15.2991396,27.1996137 L11.5260197,27.1996137 L8.4054242,24.0772669 C7.75209953,23.425678 7.75289968,23.252881 5.84653592,19.0597525 C5.76277688,18.8700477 5.78660768,18.6500776 5.90905149,18.4827029 C6.0314953,18.3153281 6.23394999,18.2259768 6.44015284,18.2483068 C6.64635569,18.2706369 6.82497957,18.4012557 6.9087386,18.5909605 C8.52944786,22.372496 7.89932762,21.4513117 11.0775341,24.6308575 C11.177983,24.7348383 11.3267328,24.77654 11.4666112,24.7399345 C11.6064897,24.7033289 11.7157285,24.5941128 11.7523417,24.4542634 C11.7889549,24.314414 11.7472445,24.1656952 11.643242,24.0652671 C9.45162383,21.8745045 9.34800405,21.8137055 9.01394031,21.3021142 C9.46194528,20.9302443 10.1110777,20.9292368 10.5602354,21.2997143 C11.3935218,22.0636426 12.3561904,22.6731427 13.4031778,23.0996836 C14.3389564,23.4104783 15.2991396,24.6228576 15.2991396,26.3196287 L15.2991396,27.1996137 Z M15.6820127,24.3296626 C15.3103726,23.4154135 14.5773118,22.6953886 13.6564262,22.3400965 C12.8702304,22.0221218 12.1406675,21.579072 11.4960139,21.0281189 C10.1213516,18.5929605 9.94451788,15.6582105 9.9425175,12.8618582 C10.7902793,11.3682837 13.0139036,7.92314246 16.4993686,5.82117832 C19.9924352,7.93874219 22.2204603,11.3890833 23.0710226,12.8866578 C23.0646214,15.7266094 22.894989,18.5265616 21.5379301,21.0013194 C20.8836862,21.5636981 20.142254,22.0158682 19.3427112,22.3400965 C18.4210594,22.6961214 17.6875661,23.4171579 17.3159245,24.3324626 C16.7743433,24.4150012 16.2233077,24.4140569 15.6820127,24.3296626 Z M23.984797,21.3001143 C23.6523335,21.8097056 23.5559151,21.8633047 21.3554953,24.0632672 C21.2038775,24.220216 21.2060458,24.4696941 21.3603688,24.623985 C21.5146917,24.7782759 21.7642217,24.7804438 21.9212032,24.6288575 C25.0690039,21.4821112 24.4684893,22.374496 26.0899987,18.5909605 C26.1737577,18.4012557 26.3523816,18.2706368 26.5585845,18.2483068 C26.7647873,18.2259768 26.967242,18.3153281 27.0896858,18.4827028 C27.2121296,18.6500776 27.2359604,18.8700477 27.1522014,19.0597525 C25.274243,23.190482 25.2626408,23.4096783 24.5957136,24.0772669 L21.4727176,27.1996137 L17.6995977,27.1996137 L17.6995977,26.3196287 C17.6859458,25.4513068 17.966543,24.6039103 18.4957496,23.9152697 C19.4339286,22.7424897 19.7331857,23.5764755 22.4385019,21.2997143 C22.8871795,20.9286572 23.5363115,20.9288251 23.984797,21.3001143 L23.984797,21.3001143 Z M25.1602213,14.9998218 C25.1602213,17.0137874 24.1836349,17.7345751 23.4574964,17.9929707 C23.7277987,16.5687859 23.8628251,15.1222413 23.8607733,13.6726444 C24.2308439,13.4098489 24.5589065,13.3002507 24.7409413,13.3882492 C24.83896,13.4354484 25.1602213,13.6922441 25.1602213,14.9998218 L25.1602213,14.9998218 Z M25.5086878,4.79999573 C26.0385635,7.47347524 25.4454004,10.2471661 23.8683748,12.4702649 C23.8303675,9.48271586 23.0410169,7.43595077 21.4543141,6.22237147 C21.2787645,6.08816857 21.0276379,6.1216571 20.8934071,6.2971702 C20.7591763,6.47268329 20.7926718,6.72375772 20.9682214,6.85796063 C22.1248421,7.74234555 22.7877686,9.18952086 22.994608,11.2378859 C21.3903019,8.80192747 18.9126291,6.20717173 16.3273358,4.79999573 L25.5086878,4.79999573 Z M7.49084968,4.79999573 L12.9474909,4.79999573 C12.0548499,5.39112633 11.2586843,6.11629594 10.5870405,6.94995906 C10.4489429,7.12248987 10.4768857,7.37428063 10.6494524,7.51234946 C10.8220191,7.65041829 11.0738622,7.62248134 11.2119597,7.44995053 C12.106218,6.3459313 13.2327113,5.45238047 14.5113893,4.83279517 C14.9178077,4.99249843 15.3156232,5.17327395 15.7032167,5.37438594 C12.3449759,7.53594907 10.2001667,10.765094 9.19357459,12.5598634 C7.56715768,10.3244127 6.94978644,7.51085247 7.49084968,4.79999573 Z M17.5,22 C17.7761424,22 18,22.2238577 18,22.5 C18,22.7761424 17.7761424,23 17.5,23 L17.5,23 L16.5,23 C16.2238576,23 16,22.7761424 16,22.5 C16,22.2238577 16.2238576,22 16.5,22 L16.5,22 Z M16.5,19 C17.0904167,19 18.1129167,19.5333333 18.4583333,19.5333333 C18.5975731,19.5254179 18.7347121,19.5638864 18.8372839,19.6396317 C18.9398557,19.7153771 18.9987413,19.8216652 19,19.9333333 C19,20.4033333 17.8229167,21 16.5,21 C15.1770833,21 14,20.4036667 14,19.9333333 C14.0013428,19.8213859 14.0605493,19.7148767 14.1635596,19.639099 C14.26657,19.5633212 14.4041942,19.5250354 14.54375,19.5333333 C14.8933333,19.5333333 15.9016667,19 16.5,19 Z M16.5,19.6666667 C16.0514246,19.7714058 15.6156192,19.908409 15.1979167,20.076 C16.0130335,20.4189891 16.9869665,20.4189891 17.8020833,20.076 C17.3841978,19.9087374 16.94843,19.7717459 16.5,19.6666667 Z M17.4168522,17.0577752 C17.5283141,16.9896793 17.6709756,16.9812165 17.7910978,17.0355746 C17.9112199,17.0899326 17.9905531,17.1988534 17.9992134,17.3213074 C18.0078736,17.4437614 17.9445452,17.5611449 17.8330834,17.6292408 C17.0263315,18.1235864 15.9737058,18.1235864 15.1669539,17.6292408 C14.9946488,17.5239737 14.9481445,17.3107109 15.0630836,17.152905 C15.1780227,16.9950991 15.41088,16.9525081 15.5831851,17.0577752 C16.1381361,17.3974776 16.8619012,17.3974776 17.4168522,17.0577752 Z M9.15356695,13.6710444 C9.15155437,15.1213205 9.286715,16.5685376 9.55724398,17.9933707 C8.83110542,17.7365751 7.85331884,17.0161874 7.85331884,14.9998218 C7.85331884,13.6906441 8.17337992,13.4338485 8.273399,13.3866493 C8.45183305,13.3006507 8.78669695,13.4118488 9.15356695,13.6710444 Z M20.6910718,14.0799687 C20.835827,13.9605672 21.0383562,13.9764215 21.1662855,14.1171692 C21.293355,14.2616248 21.4572905,14.3602406 21.6364088,14.399973 C21.8372147,14.399973 22,14.5790616 22,14.7999784 C22,15.0208953 21.8372147,15.1999839 21.6364088,15.1999839 C21.3647064,15.1833826 21.1038408,15.077172 20.8877747,14.8951797 C20.833236,14.9311802 20.7786973,14.9623806 20.7241586,14.9931811 C20.7755827,15.0783001 20.8442926,15.1490986 20.924861,15.1999839 C21.0206042,15.1999596 21.1123196,15.242369 21.1792981,15.3176362 C21.2462767,15.3929034 21.2828704,15.4946814 21.2808167,15.5999893 C21.2774337,15.8227824 21.1117635,16.0011213 20.9092265,16 C20.5114578,16 20.1947699,15.5879891 20.0100656,15.2723848 C19.4242824,15.4043591 18.8177298,15.3720326 18.2462849,15.1783836 C18.0562222,15.1070274 17.9547256,14.8796745 18.0195858,14.6705767 C18.0844461,14.4614789 18.2911021,14.3498171 18.4811648,14.4211733 C18.5066162,14.4307734 19.7380994,14.8659793 20.6910718,14.0799687 Z M11.8364862,14.115351 C11.9643671,13.9764837 12.1652324,13.961181 12.3092828,14.0793314 C13.2672414,14.8701619 14.5074231,14.4251196 14.5201523,14.4207172 C14.7101466,14.350306 14.916089,14.4623663 14.9805834,14.6712536 C15.0449707,14.8798755 14.944019,15.10653 14.7547321,15.1783296 C14.1830836,15.3717752 13.5764371,15.404115 12.9904735,15.2723808 C12.3991141,16.2805296 11.7273793,16.092027 11.7273793,15.6001592 C11.7273793,15.379125 11.8902088,15.1999414 12.091069,15.1999414 C12.1653589,15.1467546 12.2288745,15.0772683 12.2776418,14.9958303 C12.2216336,14.9650135 12.1674438,14.9329961 12.1125267,14.8969765 C11.8961873,15.078349 11.6352696,15.1839112 11.3636897,15.1999414 C11.1628294,15.1999414 11,15.0207577 11,14.7997235 C11,14.5786893 11.1628294,14.3995056 11.3636897,14.3995056 C11.5438657,14.3598555 11.7087872,14.2607363 11.8364862,14.115351 Z M19.8237101,12.0926643 C20.4669852,11.9414192 21.1699023,11.9763786 21.7761836,12.1897701 C21.9050774,12.2339921 21.990206,12.32321 21.9992103,12.4235104 C22.0082146,12.5238108 21.9397118,12.6197898 21.8197411,12.674964 C21.6997705,12.7301383 21.5467566,12.7360343 21.418863,12.6904108 C21.0021949,12.5434544 20.5188187,12.5194674 20.0767123,12.623808 C18.6666147,12.9526694 18.5067096,12.994427 18.4364416,12.9993706 L18.3980247,12.9999182 C18.2022407,12.9993358 18.0358797,12.8995415 18.0050287,12.7641734 C17.9741777,12.6288052 18.0879194,12.497717 18.2737218,12.4545024 L18.2737218,12.4545024 Z M11.2238083,12.1898376 C11.8299194,11.9763682 12.5326974,11.941397 13.1758117,12.092703 L13.1758117,12.092703 L14.7261436,12.4538085 C14.8617936,12.485411 14.9630673,12.5652991 14.991816,12.6633795 C15.0205647,12.7614599 14.9724206,12.862832 14.8655193,12.9293098 C14.758618,12.9957877 14.6092002,13.0172717 14.4735502,12.9856692 L14.4735502,12.9856692 L12.9232183,12.623724 C12.4810761,12.5196367 11.9978776,12.5436229 11.5811161,12.6903465 C11.4532271,12.7362634 11.3002187,12.7303656 11.1802524,12.675175 C11.060286,12.6199845 10.9917857,12.5239771 11.0007897,12.4236471 C11.0097937,12.323317 11.0949191,12.2340727 11.2238083,12.1898376 Z M9.5,8 C9.77614237,8 10,8.22385763 10,8.5 C10,8.77614237 9.77614237,9 9.5,9 C9.22385763,9 9,8.77614237 9,8.5 C9,8.22385763 9.22385763,8 9.5,8 Z" id="↳-🎨-Fill" fill="#181C21"></path>
    </g>
</svg>