<?xml version="1.0" encoding="UTF-8"?>
<svg width="32px" height="32px" viewBox="0 0 32 32" version="1.1" xmlns="http://www.w3.org/2000/svg" xmlns:xlink="http://www.w3.org/1999/xlink">
    <!-- Generator: Sketch 63.1 (92452) - https://sketch.com -->
    <title>Icons/ion-md-rocket</title>
    <desc>Created with Sketch.</desc>
    <g id="Icons/ion-md-rocket" stroke="none" stroke-width="1" fill="none" fill-rule="evenodd" fill-opacity="0.9">
        <path d="M16,26.375 C16.625,26.375 17.5208275,26.1458356 18.6875,25.6875 C19.1458356,25.5208325 19.375,25.6666644 19.375,26.125 L19.125,29.3125 C19.125,29.3958338 19.0833338,29.4687497 19,29.53125 C18.9166662,29.5937503 18.8333338,29.5833338 18.75,29.5 L17.8125,28.8125 C17.6458325,28.7291662 17.5416669,28.7499994 17.5,28.875 L16.1875,30.875 C16.0624994,31.0000006 15.9375006,31.0000006 15.8125,30.875 L14.5,28.875 C14.4166662,28.7499994 14.2916675,28.7291662 14.125,28.8125 L13.25,29.5 C13.1666662,29.5833338 13.0833337,29.5937503 13,29.53125 C12.9166663,29.4687497 12.875,29.3958338 12.875,29.3125 L12.625,26.125 C12.625,25.6666644 12.8541644,25.5208325 13.3125,25.6875 C14.4375056,26.1458356 15.33333,26.375 16,26.375 Z M24.875,18.3125 C24.9583338,18.3958337 25,18.5416656 25,18.75 L23.875,25.75 C23.7916662,26.2083356 23.5416687,26.3125012 23.125,26.0625 L18.9375,23.25 C18.1041625,24.0833375 17.1458387,24.5 16.0625,24.5 C15.5624975,24.5 15.0625025,24.3958344 14.5625,24.1875 C14.0624975,23.9791656 13.6875013,23.7708344 13.4375,23.5625 L13.0625,23.25 L8.875,26.0625 C8.5,26.3125012 8.27083375,26.2083356 8.1875,25.75 L7,18.75 C7,18.5416656 7.04166625,18.3958337 7.125,18.3125 L10.125,15.25 C10.125,13.4166575 10.3229147,11.666675 10.71875,10 C11.1145853,8.333325 11.6041638,6.97917187 12.1875,5.9375 C12.7708362,4.89582813 13.3541637,3.97917063 13.9375,3.1875 C14.5208363,2.39582937 15,1.833335 15.375,1.5 L16,1 C16.1666675,1.12500063 16.3749987,1.30208219 16.625,1.53125 C16.8750013,1.76041781 17.3437466,2.30207906 18.03125,3.15625 C18.7187534,4.01042094 19.3229141,4.94791156 19.84375,5.96875 C20.3645859,6.98958844 20.8333313,8.333325 21.25,10 C21.6666687,11.666675 21.875,13.4166575 21.875,15.25 L24.875,18.3125 Z M14.625,11.4375 C15.0000019,11.8125019 15.4583306,12 16,12 C16.5416694,12 16.9999981,11.8020853 17.375,11.40625 C17.7500019,11.0104147 17.9375,10.5416694 17.9375,10 C17.9375,9.45833063 17.7500019,8.98958531 17.375,8.59375 C16.9999981,8.19791469 16.5416694,8 16,8 C15.4583306,8 15.0104184,8.18749813 14.65625,8.5625 C14.3020816,8.93750187 14.125,9.41666375 14.125,10 C14.125,10.5833363 14.291665,11.0624981 14.625,11.4375 Z" id="↳-🎨-Fill" fill="#181C21"></path>
    </g>
</svg>