<?xml version="1.0" encoding="UTF-8"?>
<svg width="32px" height="32px" viewBox="0 0 32 32" version="1.1" xmlns="http://www.w3.org/2000/svg" xmlns:xlink="http://www.w3.org/1999/xlink">
    <!-- Generator: Sketch 63.1 (92452) - https://sketch.com -->
    <title>Icons/ion-logo-linkedin</title>
    <desc>Created with Sketch.</desc>
    <g id="Icons/ion-logo-linkedin" stroke="none" stroke-width="1" fill="none" fill-rule="evenodd" fill-opacity="0.9">
        <path d="M26.0625,4 C26.6041694,4 27.0624981,4.17708156 27.4375,4.53125 C27.8125019,4.88541844 28,5.33333062 28,5.875 L28,25.9375 C28,26.4791694 27.8125019,26.9583313 27.4375,27.375 C27.0624981,27.7916687 26.6041694,28 26.0625,28 L6.0625,28 C5.52083063,28 5.04166875,27.7916687 4.625,27.375 C4.20833125,26.9583313 4,26.4791694 4,25.9375 L4,5.875 C4,5.33333062 4.19791469,4.88541844 4.59375,4.53125 C4.98958531,4.17708156 5.47916375,4 6.0625,4 L26.0625,4 Z M11.4375,24 L11.4375,13.3125 L8,13.3125 L8,24 L11.4375,24 Z M8.5,11.1875 C8.833335,11.520835 9.27083063,11.6875 9.8125,11.6875 C10.3541694,11.6875 10.8020816,11.5104184 11.15625,11.15625 C11.5104184,10.8020816 11.6875,10.3750025 11.6875,9.875 C11.6875,9.33333062 11.520835,8.88541844 11.1875,8.53125 C10.854165,8.17708156 10.4166694,8 9.875,8 C9.33333063,8 8.88541844,8.17708156 8.53125,8.53125 C8.17708156,8.88541844 8,9.33333062 8,9.875 C8,10.3750025 8.166665,10.8124981 8.5,11.1875 Z M24,24 L24,17.75 C24,16.2083256 23.6354203,15.0416706 22.90625,14.25 C22.1770797,13.4583294 21.2291725,13.0625 20.0625,13.0625 C18.8124938,13.0625 17.7708375,13.6458275 16.9375,14.8125 L16.9375,13.3125 L13.5,13.3125 L13.5,24 L16.9375,24 L16.9375,17.9375 C16.9375,17.5208313 16.9791662,17.2291675 17.0625,17.0625 C17.395835,16.2291625 17.9791625,15.8125 18.8125,15.8125 C19.9791725,15.8125 20.5625,16.5833256 20.5625,18.125 L20.5625,24 L24,24 Z" id="↳-🎨-Fill" fill="#181C21"></path>
    </g>
</svg>