<?xml version="1.0" encoding="UTF-8"?>
<svg width="32px" height="32px" viewBox="0 0 32 32" version="1.1" xmlns="http://www.w3.org/2000/svg" xmlns:xlink="http://www.w3.org/1999/xlink">
    <!-- Generator: Sketch 63.1 (92452) - https://sketch.com -->
    <title>Icons/ion-ios-arrow-first</title>
    <desc>Created with Sketch.</desc>
    <g id="Icons/ion-ios-arrow-first" stroke="none" stroke-width="1" fill="none" fill-rule="evenodd" fill-opacity="0.9">
        <g id="Icons/ion-ios-arrow-back" transform="translate(-1.000000, 2.000000)" fill="#181C21">
            <path d="M11.4960937,13.5 L18.1933594,20.1972656 C18.4394544,20.4433606 18.5625,20.7421857 18.5625,21.09375 C18.5625,21.4453143 18.4394544,21.7441394 18.1933594,21.9902344 C17.9472644,22.2363294 17.6484393,22.359375 17.296875,22.359375 C16.9453107,22.359375 16.6464856,22.2363294 16.4003906,21.9902344 L8.75390625,14.34375 C8.19140344,13.7812472 8.20898139,13.2011749 8.80664062,12.6035156 L16.4003906,5.00976562 C16.6464856,4.76367064 16.9453107,4.640625 17.296875,4.640625 C17.6484393,4.640625 17.9472644,4.76367064 18.1933594,5.00976562 C18.4394544,5.25586061 18.5625,5.55468574 18.5625,5.90625 C18.5625,6.25781426 18.4394544,6.55663939 18.1933594,6.80273437 L11.4960937,13.5 Z" id="↳-🎨-Fill"></path>
        </g>
        <g id="Icons/ion-ios-arrow-back" transform="translate(6.000000, 2.000000)" fill="#181C21">
            <path d="M11.4960937,13.5 L18.1933594,20.1972656 C18.4394544,20.4433606 18.5625,20.7421857 18.5625,21.09375 C18.5625,21.4453143 18.4394544,21.7441394 18.1933594,21.9902344 C17.9472644,22.2363294 17.6484393,22.359375 17.296875,22.359375 C16.9453107,22.359375 16.6464856,22.2363294 16.4003906,21.9902344 L8.75390625,14.34375 C8.19140344,13.7812472 8.20898139,13.2011749 8.80664062,12.6035156 L16.4003906,5.00976562 C16.6464856,4.76367064 16.9453107,4.640625 17.296875,4.640625 C17.6484393,4.640625 17.9472644,4.76367064 18.1933594,5.00976562 C18.4394544,5.25586061 18.5625,5.55468574 18.5625,5.90625 C18.5625,6.25781426 18.4394544,6.55663939 18.1933594,6.80273437 L11.4960937,13.5 Z" id="↳-🎨-Fill"></path>
        </g>
    </g>
</svg>