<?xml version="1.0" encoding="UTF-8"?>
<svg width="32px" height="32px" viewBox="0 0 32 32" version="1.1" xmlns="http://www.w3.org/2000/svg" xmlns:xlink="http://www.w3.org/1999/xlink">
    <!-- Generator: Sketch 63.1 (92452) - https://sketch.com -->
    <title>Icons/ion-md-medal</title>
    <desc>Created with Sketch.</desc>
    <g id="Icons/ion-md-medal" stroke="none" stroke-width="1" fill="none" fill-rule="evenodd" fill-opacity="0.9">
        <path d="M17.125,9.5 L3,9.5 L6.375,3 L21.4375,3 L17.125,9.5 Z M12.1875,27.4375 C11.1458281,26.3541613 10.625,25.0625075 10.625,23.5625 C10.625,22.0624925 11.1458281,20.7916719 12.1875,19.75 C13.2291719,18.7083281 14.4999925,18.1875 16,18.1875 C17.5000075,18.1875 18.7812447,18.7083281 19.84375,19.75 C20.9062553,20.7916719 21.4375,22.0624925 21.4375,23.5625 C21.4375,25.0625075 20.9062553,26.3437447 19.84375,27.40625 C18.7812447,28.4687553 17.5000075,29 16,29 C14.4999925,29 13.2291719,28.4791719 12.1875,27.4375 Z M21.8125,18.6875 L21.375,18.25 C19.8749925,16.7499925 18.0833437,16 16,16 L24.6875,3 L29,9.5 L21.8125,18.6875 Z M12.875,16.6875 C11.9583287,17.1041687 11.2083362,17.6041637 10.625,18.1875 C9.624995,19.187505 8.958335,20.3749931 8.625,21.75 L3,11.625 L9.5,11.625 L12.875,16.6875 Z" id="↳-🎨-Fill" fill="#181C21"></path>
    </g>
</svg>