<?xml version="1.0" encoding="UTF-8"?>
<svg width="32px" height="32px" viewBox="0 0 32 32" version="1.1" xmlns="http://www.w3.org/2000/svg" xmlns:xlink="http://www.w3.org/1999/xlink">
    <!-- Generator: Sketch 63.1 (92452) - https://sketch.com -->
    <title>Icons/ion-logo-youtube</title>
    <desc>Created with Sketch.</desc>
    <g id="Icons/ion-logo-youtube" stroke="none" stroke-width="1" fill="none" fill-rule="evenodd" fill-opacity="0.9">
        <path d="M31.8125,9.3125 C31.9375006,11.5625113 32,13.7916556 32,16 C32,18.2083444 31.9375006,20.4374887 31.8125,22.6875 C31.8125,24.1041738 31.3645878,25.3020784 30.46875,26.28125 C29.5729122,27.2604216 28.4791731,27.75 27.1875,27.75 C23.9791506,27.9166675 20.2500212,28 16,28 C11.7499788,28 8.02084938,27.9166675 4.8125,27.75 C3.52082688,27.75 2.42708781,27.2604216 1.53125,26.28125 C0.635412188,25.3020784 0.1875,24.1041738 0.1875,22.6875 C0.062499375,20.4374887 0,18.2083444 0,16 C0,14.5416594 0.0833325,12.312515 0.25,9.3125 C0.25,7.89582625 0.687495625,6.69792156 1.5625,5.71875 C2.43750437,4.73957844 3.52082688,4.25 4.8125,4.25 C7.85418188,4.0833325 11.3958131,4 15.4375,4 L16.5625,4 C20.6041869,4 24.1458181,4.0833325 27.1875,4.25 C28.4791731,4.25 29.5729122,4.73957844 30.46875,5.71875 C31.3645878,6.69792156 31.8125,7.89582625 31.8125,9.3125 Z M12.9375,22.125 L22,16 L12.9375,9.8125 L12.9375,22.125 Z" id="↳-🎨-Fill" fill="#181C21"></path>
    </g>
</svg>