<?xml version="1.0" encoding="UTF-8"?>
<svg width="32px" height="32px" viewBox="0 0 32 32" version="1.1" xmlns="http://www.w3.org/2000/svg" xmlns:xlink="http://www.w3.org/1999/xlink">
    <!-- Generator: Sketch 63.1 (92452) - https://sketch.com -->
    <title>Icons/ion-ios-arrow-dropleft-circle</title>
    <desc>Created with Sketch.</desc>
    <g id="Icons/ion-ios-arrow-dropleft-circle" stroke="none" stroke-width="1" fill="none" fill-rule="evenodd" fill-opacity="0.9">
        <path d="M6.8125,6.8125 C9.35417938,4.27082062 12.4166488,3 16,3 C19.5833512,3 22.6458206,4.27082062 25.1875,6.8125 C27.7291794,9.35417938 29,12.4166488 29,16 C29,19.5833512 27.7291794,22.6458206 25.1875,25.1875 C22.6458206,27.7291794 19.5833512,29 16,29 C12.4166488,29 9.35417938,27.7291794 6.8125,25.1875 C4.27082063,22.6458206 3,19.5833512 3,16 C3,12.4166488 4.27082063,9.35417938 6.8125,6.8125 Z M18.6875,21.0625 L13.75,16 L18.8125,10.9375 C19.3541694,10.3958306 19.3541694,9.83333625 18.8125,9.25 C18.2708306,8.66666375 17.7083362,8.66666375 17.125,9.25 L11.1875,15.1875 C10.6458306,15.7291694 10.6249975,16.2916637 11.125,16.875 L17,22.75 C17.2500013,23.0000013 17.541665,23.125 17.875,23.125 C18.1666681,23.125 18.4374987,23.0000013 18.6875,22.75 C19.2291694,22.1666638 19.2291694,21.6041694 18.6875,21.0625 Z" id="↳-🎨-Fill" fill="#181C21"></path>
    </g>
</svg>