<?xml version="1.0" encoding="UTF-8"?>
<svg width="32px" height="32px" viewBox="0 0 32 32" version="1.1" xmlns="http://www.w3.org/2000/svg" xmlns:xlink="http://www.w3.org/1999/xlink">
    <!-- Generator: Sketch 63.1 (92452) - https://sketch.com -->
    <title>Icons/ion-logo-pinterest</title>
    <desc>Created with Sketch.</desc>
    <g id="Icons/ion-logo-pinterest" stroke="none" stroke-width="1" fill="none" fill-rule="evenodd" fill-opacity="0.9">
        <path d="M6.0625,6.125 C8.81251375,3.37498625 12.1249806,2 16,2 C19.8750194,2 23.1770697,3.36456969 25.90625,6.09375 C28.6354303,8.82293031 30,12.1249806 30,16 C30,19.8750194 28.6354303,23.1770697 25.90625,25.90625 C23.1770697,28.6354303 19.8750194,30 16,30 C14.5833262,30 13.2500063,29.8125019 12,29.4375 C12.7500037,28.10416 13.2291656,27.10417 13.4375,26.4375 L14.4375,22.5625 C15.0625031,23.7291725 16.1874919,24.3125 17.8125,24.3125 C20.0625113,24.3125 21.8854097,23.4166756 23.28125,21.625 C24.6770903,19.8333244 25.375,17.5416806 25.375,14.75 C25.375,12.5833225 24.541675,10.6979247 22.875,9.09375 C21.208325,7.48957531 19.0833462,6.6875 16.5,6.6875 C13.4166513,6.6875 10.9791756,7.59374094 9.1875,9.40625 C7.39582438,11.2187591 6.5,13.2291556 6.5,15.4375 C6.5,18.2291806 7.45832375,20.0208294 9.375,20.8125 C9.75000188,20.9791675 10,20.8541687 10.125,20.4375 C10.125,20.3541662 10.1562497,20.1666681 10.21875,19.875 C10.2812503,19.5833319 10.3333331,19.3958338 10.375,19.3125 C10.4583337,19.0624987 10.3958344,18.8125013 10.1875,18.5625 C9.56249688,17.8124962 9.25,16.8958387 9.25,15.8125 C9.25,13.9791575 9.88541031,12.4062566 11.15625,11.09375 C12.4270897,9.78124344 14.0833231,9.125 16.125,9.125 C17.9583425,9.125 19.3958281,9.61457844 20.4375,10.59375 C21.4791719,11.5729216 22,12.8541587 22,14.4375 C22,16.5208438 21.5833375,18.2812428 20.75,19.71875 C19.9166625,21.1562572 18.8541731,21.875 17.5625,21.875 C16.8124962,21.875 16.2083356,21.6145859 15.75,21.09375 C15.2916644,20.5729141 15.1458325,19.9375037 15.3125,19.1875 C15.3958338,18.7708313 15.5520822,18.2083369 15.78125,17.5 C16.0104178,16.7916631 16.1979159,16.1666694 16.34375,15.625 C16.4895841,15.0833306 16.5625,14.6250019 16.5625,14.25 C16.5625,13.6666638 16.395835,13.1666687 16.0625,12.75 C15.729165,12.3333313 15.2708363,12.125 14.6875,12.125 C13.9374962,12.125 13.3020859,12.4687466 12.78125,13.15625 C12.2604141,13.8437534 12,14.7083281 12,15.75 C12,16.1250019 12.0416663,16.5 12.125,16.875 C12.2083337,17.2500019 12.2916662,17.5416656 12.375,17.75 L12.4375,18 C11.3958281,22.333355 10.7916675,24.8749963 10.625,25.625 C10.3749987,26.625005 10.2916662,27.6874944 10.375,28.8125 C7.8749875,27.6874944 5.85417437,25.9791781 4.3125,23.6875 C2.77082563,21.3958219 2,18.8333475 2,16 C2,12.1249806 3.35415312,8.83334688 6.0625,6.125 Z" id="↳-🎨-Fill" fill="#181C21"></path>
    </g>
</svg>