<?xml version="1.0" encoding="UTF-8"?>
<svg width="32px" height="32px" viewBox="0 0 32 32" version="1.1" xmlns="http://www.w3.org/2000/svg" xmlns:xlink="http://www.w3.org/1999/xlink">
    <!-- Generator: Sketch 63.1 (92452) - https://sketch.com -->
    <title>Icons/ion-md-animal</title>
    <desc>Created with Sketch.</desc>
    <g id="Icons/ion-md-animal" stroke="none" stroke-width="1" fill="none" fill-rule="evenodd" fill-opacity="0.9">
        <path d="M24.9111232,24.3694457 C25.6058225,27.5576486 22.1438188,28.2494275 20.6189094,27.8343225 C19.094,27.4192174 15.9836558,27.3500725 15.9836558,27.3500725 C15.9836558,27.3500725 12.864692,27.4192645 11.3397826,27.8343225 C9.81487319,28.2523007 6.34999638,27.5576014 7.04182246,24.3694457 C7.73364855,21.1812899 10.7834674,21.3196268 11.6194239,17.0216667 C12.4525072,12.7237065 15.9865761,13.0004275 15.9865761,13.0004275 C15.9865761,13.0004275 19.5119783,12.7237065 20.3451087,17.0216667 C21.1752717,21.3196268 24.2192971,21.1812428 24.9111232,24.3694457 Z M19.1833986,12.7208333 C21.0599674,13.2627355 23.1325725,11.7811123 23.815779,9.41157971 C24.4989384,7.04496739 23.5332645,4.68697464 21.6566957,4.14507246 C19.7800797,3.60312319 17.7075217,5.08479348 17.0243152,7.45432609 C16.3411558,9.82093841 17.3068297,12.1789312 19.1833986,12.7208333 Z M26.9606486,11.858971 C25.1532717,11.1209855 22.933663,12.3720942 22.0025616,14.6550543 C21.0714601,16.9381087 21.7806196,19.3854529 23.5879964,20.120471 C25.3953732,20.8555362 27.6149819,19.6073478 28.5460833,17.3243406 C29.4771848,15.0413333 28.7680725,12.5969094 26.9606486,11.858971 Z M12.7695942,12.7208333 C14.646163,12.1788841 15.611837,9.82093841 14.9286775,7.45432609 C14.2455181,5.08771377 12.1700399,3.60604348 10.2962971,4.14799275 C8.42260145,4.68989493 7.45405435,7.04784058 8.13721377,9.4145 C8.82042029,11.7811123 10.8930254,13.2627355 12.7695942,12.7208333 Z M8.36782246,20.120471 C10.1752464,19.3825326 10.8843587,16.9351884 9.95325725,14.6550543 C9.0221558,12.3749203 6.8025471,11.1209855 4.99517029,11.858971 C3.18779348,12.5969094 2.47868116,15.0442536 3.40978261,17.3243406 C4.34083696,19.6073478 6.56044565,20.8584094 8.36782246,20.120471 Z" id="↳-🎨-Fill" fill="#181C21"></path>
    </g>
</svg>