<?xml version="1.0" encoding="UTF-8"?>
<svg width="32px" height="32px" viewBox="0 0 32 32" version="1.1" xmlns="http://www.w3.org/2000/svg" xmlns:xlink="http://www.w3.org/1999/xlink">
    <!-- Generator: Sketch 63.1 (92452) - https://sketch.com -->
    <title>Icons/ion-md-analytics</title>
    <desc>Created with Sketch.</desc>
    <g id="Icons/ion-md-analytics" stroke="none" stroke-width="1" fill="none" fill-rule="evenodd" fill-opacity="0.9">
        <path d="M23.6875,11.125 C24.020835,11.2083338 24.2916656,11.25 24.5,11.25 C25.2083369,11.25 25.8333306,11.0416687 26.375,10.625 L30,13.0625 L30,26.3125 C30,27.0625038 29.7395859,27.6979141 29.21875,28.21875 C28.6979141,28.7395859 28.0625038,29 27.3125,29 L4.6875,29 C3.93749625,29 3.30208594,28.7395859 2.78125,28.21875 C2.26041406,27.6979141 2,27.0625038 2,26.3125 L2,22.75 L5.8125,19.1875 C6.27083563,19.4375013 6.77083063,19.5625 7.3125,19.5625 C8.06250375,19.5625 8.74999688,19.2916694 9.375,18.75 L13,20.8125 C13,20.8958338 12.9895834,20.9999994 12.96875,21.125 C12.9479166,21.2500006 12.9375,21.3333331 12.9375,21.375 C12.9375,22.2083375 13.2395803,22.9166638 13.84375,23.5 C14.4479197,24.0833363 15.1458294,24.375 15.9375,24.375 C16.7291706,24.375 17.4270803,24.0833363 18.03125,23.5 C18.6354197,22.9166638 18.9375,22.2083375 18.9375,21.375 C18.9375,20.6666631 18.7083356,20.0416694 18.25,19.5 L23.6875,11.125 Z M9.375,14.5 C8.79166375,13.8749969 8.10417063,13.5625 7.3125,13.5625 C6.52082937,13.5625 5.82291969,13.8645803 5.21875,14.46875 C4.61458031,15.0729197 4.3125,15.7708294 4.3125,16.5625 C4.3125,16.9375019 4.37499937,17.291665 4.5,17.625 L2,20 L2,5.6875 C2,4.93749625 2.26041406,4.30208594 2.78125,3.78125 C3.30208594,3.26041406 3.93749625,3 4.6875,3 L27.3125,3 C28.0625038,3 28.6979141,3.26041406 29.21875,3.78125 C29.7395859,4.30208594 30,4.93749625 30,5.6875 L30,10.6875 L27.4375,8.9375 C27.4791669,8.7708325 27.5,8.54166813 27.5,8.25 C27.5,7.4166625 27.2083362,6.70833625 26.625,6.125 C26.0416638,5.54166375 25.3333375,5.25 24.5,5.25 C23.6666625,5.25 22.9583363,5.54166375 22.375,6.125 C21.7916637,6.70833625 21.5,7.4166625 21.5,8.25 C21.5,8.91667 21.6874981,9.5 22.0625,10 L16.625,18.4375 C16.5,18.3958331 16.270835,18.375 15.9375,18.375 C15.2291631,18.375 14.6041694,18.6041644 14.0625,19.0625 L10.3125,16.9375 L10.3125,16.5625 C10.3125,15.7708294 10,15.0833363 9.375,14.5 Z" id="↳-🎨-Fill" fill="#181C21"></path>
    </g>
</svg>