<?xml version="1.0" encoding="UTF-8"?>
<svg width="32px" height="32px" viewBox="0 0 32 32" version="1.1" xmlns="http://www.w3.org/2000/svg" xmlns:xlink="http://www.w3.org/1999/xlink">
    <!-- Generator: Sketch 63.1 (92452) - https://sketch.com -->
    <title>Icons/ion-md-sketch</title>
    <desc>Created with Sketch.</desc>
    <g id="Icons/ion-md-sketch" stroke="none" stroke-width="1" fill="none" fill-rule="evenodd" fill-opacity="0.9">
        <path d="M25.7612108,21.0294804 C25.6167022,20.9695766 25.4503732,21.0026678 25.3397274,21.1132633 L21.1132621,25.339772 C21.0026677,25.450419 20.9695769,25.6167497 21.0294801,25.7612598 C21.0892803,25.9058214 21.2303923,26 21.3867889,26 L25.6132542,26 C25.8268779,26 26,25.8268761 26,25.6132502 L26,21.3867414 C25.9999485,21.2303432 25.9057195,21.0893327 25.7612108,21.0294804 Z M23.9734688,3 C24.28425,3 24.5765469,3.12140106 24.7962773,3.34183847 L24.7962773,3.34183847 L25.9822227,4.53159939 C26.2019531,4.75213869 26.3229648,5.0452741 26.3229648,5.35705524 C26.3229648,5.66883639 26.2019531,5.96207368 25.9822227,6.1825111 L25.9822227,6.1825111 L24.9566445,7.21138887 L24.9566445,7.21138887 L23.8918125,8.27969778 L26.8239727,8.27969778 C27.0347148,8.27969778 27.2055937,8.45107552 27.2055937,8.66254668 L27.2055937,8.66254668 L27.2055937,16.4586545 L28.3485273,15.3120437 C28.457707,15.2025637 28.621832,15.1698063 28.7644258,15.2291058 C28.9069688,15.2883544 29,15.4279937 29,15.5828144 L29,15.5828144 L29,28.6171511 C29,28.8286223 28.8291211,29 28.6183789,29 L28.6183789,29 L15.6257422,29 C15.471418,29 15.3322266,28.9067204 15.273168,28.7636679 C15.2141094,28.6205644 15.2467617,28.4559623 15.3558906,28.3464313 L15.3558906,28.3464313 L17.5521289,26.143127 L5.89082422,26.143127 C5.13255859,26.143127 4.41608594,25.8506539 3.87333594,25.319607 C3.36557422,24.8226931 3.06175,24.1681055 3.00903906,23.4635922 C3.00325,23.437101 3,23.4095909 3,23.3813166 L3,23.3813166 L3,7.12050365 C3,5.46011623 4.34646484,4.10942123 6.00142578,4.10931934 C6.21216797,4.10931934 6.38304687,4.28069708 6.38304687,4.49216824 L6.38304687,4.49216824 L6.38304687,8.27964684 L18.2286875,8.27964684 L20.8846992,5.6150898 L22.1245742,4.37122569 L23.1506602,3.34183847 C23.3704414,3.12140106 23.6626875,3 23.9734688,3 Z M5.61975391,4.90767265 C4.56680469,5.08995254 3.76314063,6.01291642 3.76314063,7.12050365 L3.76314063,7.12050365 L3.76314063,21.3769001 C3.80894531,21.3255479 3.85596875,21.2750109 3.90558203,21.2264097 C4.37723828,20.7643419 4.97539063,20.4759953 5.61980469,20.3942291 L5.61980469,20.3942291 L5.61980469,17.9770592 C5.61980469,17.7655881 5.79068359,17.5942103 6.00142578,17.5942103 C6.21216797,17.5942103 6.38304687,17.7655881 6.38304687,17.9770592 L6.38304687,17.9770592 L6.38304687,20.7529812 C6.38304687,20.9644524 6.21216797,21.1358301 6.00142578,21.1358301 C5.96359375,21.1358301 5.92591406,21.1367981 5.88853906,21.138683 C5.8795,21.1391415 5.87046094,21.1401095 5.86142188,21.1406699 C5.83288281,21.1424529 5.80434375,21.1443379 5.77605859,21.1471908 C5.76778125,21.1480059 5.75960547,21.1492795 5.75137891,21.1501965 C5.72207813,21.1535079 5.69277734,21.1569722 5.66378125,21.1614043 C5.65834766,21.1622195 5.65301563,21.1632893 5.64768359,21.1641554 C5.61558984,21.1693008 5.58369922,21.1748537 5.55211328,21.1813237 C5.55018359,21.1817313 5.54825391,21.1821898 5.54632422,21.1825973 C4.857375,21.3259555 4.28329297,21.7879724 3.98480078,22.4076727 C3.98419141,22.4089365 3.98363281,22.4102101 3.98302344,22.4114837 C3.96870313,22.4413373 3.95514453,22.4715474 3.94209375,22.5021142 C3.93909766,22.5091955 3.93625391,22.5163787 3.93335938,22.52346 C3.92320313,22.5480663 3.91335156,22.5728763 3.90405859,22.5979411 C3.89908203,22.6111357 3.89451172,22.6244323 3.88989063,22.6377288 C3.88323828,22.6567312 3.8766875,22.6757335 3.87054297,22.6949396 C3.86439844,22.7141458 3.85860938,22.7335557 3.85302344,22.7530165 L3.85302344,22.7530165 L3.84164844,22.7931609 C3.83494531,22.8179709 3.82869922,22.8428828 3.82291016,22.8679476 C3.82098047,22.8761497 3.81905078,22.8844027 3.81722266,22.8926557 C3.81067188,22.9223055 3.80467969,22.9520572 3.79934766,22.9819617 L3.79934766,22.9819617 L3.79731641,22.9934242 C3.79147656,23.0269458 3.78634766,23.0606711 3.78208203,23.0945493 C3.78203125,23.0949569 3.78198047,23.0953644 3.78192969,23.095772 C3.77289063,23.1670945 3.76725391,23.2392321 3.76507031,23.311981 C3.80173438,24.4710223 4.73346875,25.3775311 5.890875,25.3775311 L5.890875,25.3775311 L18.3153711,25.3775311 L19.8619648,23.8259614 C19.9939453,23.6936072 20.1983906,23.6785786 20.3469766,23.7806716 C20.3662227,23.7939172 20.3846055,23.808793 20.4017188,23.8259614 C20.5507617,23.9754839 20.5507617,24.2178275 20.4017188,24.3674009 L20.4017188,24.3674009 L16.5470156,28.234455 L28.2368594,28.234455 L28.2368594,26.4084976 L27.5327773,26.4084976 C27.3219844,26.4084976 27.1511562,26.2371198 27.1511562,26.0256487 C27.1511562,25.8142284 27.3219844,25.6427998 27.5327773,25.6427998 L27.5327773,25.6427998 L28.2368594,25.6427998 L28.2368594,24.4891076 L27.5327773,24.4891076 C27.3219844,24.4891076 27.1511562,24.3177299 27.1511562,24.1062587 C27.1511562,23.8947876 27.3219844,23.7234098 27.5327773,23.7234098 L27.5327773,23.7234098 L28.2368594,23.7234098 L28.2368594,22.5697687 L27.5327773,22.5697687 C27.3219844,22.5697687 27.1511562,22.3983909 27.1511562,22.1869198 C27.1511562,21.9754486 27.3219844,21.8040709 27.5327773,21.8040709 L27.5327773,21.8040709 L28.2368594,21.8040709 L28.2368594,20.6503788 L27.5327773,20.6503788 C27.3219844,20.6503788 27.1511562,20.479001 27.1511562,20.2675299 C27.1511562,20.0560587 27.3219844,19.8846809 27.5327773,19.8846809 L27.5327773,19.8846809 L28.2368594,19.8846809 L28.2368594,16.50695 L21.523375,23.242085 L21.523375,23.242085 L21.5089912,23.2558209 L21.5089912,23.2558209 L21.4942266,23.2685252 C21.4243008,23.3257361 21.3387852,23.3543669 21.2533711,23.3543669 C21.167957,23.3543669 21.0824922,23.3257361 21.0125156,23.2685252 C21.0025117,23.2603231 20.9928125,23.2515607 20.9835195,23.2422378 C20.8344766,23.0927153 20.8344766,22.8503717 20.9835195,22.7007983 L20.9835195,22.7007983 L26.4423008,17.2244033 L26.4423008,9.04544653 L23.1285703,9.04544653 L15.2755547,16.9236771 C15.2657031,16.9335604 15.255293,16.9427813 15.2446797,16.95134 C15.2425469,16.9530722 15.2402617,16.9545496 15.2380781,16.9562307 C15.229293,16.9630573 15.2203555,16.9695273 15.2111641,16.9754369 C15.2083711,16.9772199 15.2054258,16.9787992 15.202582,16.9805313 C15.1937461,16.9859314 15.1847578,16.990975 15.1756172,16.99556 C15.1722148,16.9972412 15.1687109,16.9987695 15.165207,17.0003997 C15.1564219,17.0044243 15.1475352,17.0081942 15.1384961,17.0115566 L15.1384961,17.0115566 L15.1328086,17.013951 L12.8055039,17.8381332 L20.3878047,17.8381332 C20.5985977,17.8381332 20.7694258,18.009511 20.7694258,18.2209821 C20.7694258,18.4324533 20.5985977,18.603831 20.3878047,18.603831 L20.3878047,18.603831 L9.81951563,18.603831 C9.60877344,18.603831 9.43789453,18.4324533 9.43789453,18.2209821 C9.43789453,18.009511 9.60877344,17.8381332 9.81951563,17.8381332 L9.81951563,17.8381332 L11.0886406,17.8381332 C11.0922461,17.8185195 11.0970703,17.7990587 11.1037734,17.7799035 L11.1037734,17.7799035 L11.6106719,16.3392403 L12.3541602,14.2263117 C12.355125,14.2236117 12.3564453,14.2210644 12.3574609,14.2183644 C12.3603555,14.2107227 12.3635039,14.203081 12.3669063,14.1955921 C12.3691406,14.1905995 12.3713242,14.1857598 12.3737617,14.180971 C12.3774688,14.173584 12.3815313,14.1663499 12.3857461,14.1592176 L12.3857461,14.1592176 L12.3937188,14.1458192 L12.3937188,14.1458192 L12.4093086,14.1238621 L12.4093086,14.1238621 L12.4172305,14.1130618 C12.4256094,14.1026691 12.4345469,14.0925311 12.4440938,14.0829535 L12.4440938,14.0829535 L14.2307305,12.2906195 C14.3797227,12.141148 14.6213398,12.141148 14.7703828,12.2906195 C14.9194258,12.440142 14.9194258,12.6824856 14.7703828,12.8320591 L14.7703828,12.8320591 L13.2536484,14.3536733 L15.0058047,16.1114669 L22.7005859,8.39182691 L22.7005859,8.39182691 L22.7010938,8.39136841 L22.9066563,8.18514455 L21.1545508,6.42730005 L18.656875,8.93301173 L18.656875,8.93301173 L15.8954922,11.7032789 C15.7465,11.8527504 15.5048828,11.8527504 15.3558398,11.7032789 C15.2067969,11.5537564 15.2067969,11.3114128 15.3558398,11.1618393 L15.3558398,11.1618393 L17.4654961,9.04539559 L6.38299609,9.04539559 L6.38299609,16.4457146 L6.37524203,16.5229168 C6.3396535,16.6973643 6.18577441,16.8286144 6.001375,16.8286144 C5.79063281,16.8286144 5.61975391,16.6571857 5.61975391,16.4457655 L5.61975391,16.4457655 Z M25.2264055,22.3204476 L25.2264055,25.2265519 L22.320331,25.2265519 L25.2264055,22.3204476 Z M12.8722812,15.0538563 L12.4863945,16.1504904 L13.2146992,16.8811383 L14.3078164,16.4940101 L12.8722812,15.0538563 Z M22.3944766,5.18343594 L21.6943555,5.88591146 L23.4464609,7.64370501 L24.1466836,6.94122949 L22.3944766,5.18343594 Z M24.256625,3.88332896 C24.100625,3.72672516 23.8464648,3.72672516 23.6904648,3.88332896 L23.6904648,3.88332896 L22.9341797,4.6419964 L24.6864375,6.3998409 L25.4426211,5.64117345 C25.5987227,5.48456966 25.5987227,5.22969367 25.4426211,5.07314081 L25.4426211,5.07314081 Z" id="↳-🎨-Fill" fill="#181C21"></path>
    </g>
</svg>