<?xml version="1.0" encoding="UTF-8"?>
<svg width="32px" height="32px" viewBox="0 0 32 32" version="1.1" xmlns="http://www.w3.org/2000/svg" xmlns:xlink="http://www.w3.org/1999/xlink">
    <!-- Generator: Sketch 63.1 (92452) - https://sketch.com -->
    <title>Icons/ion-md-apps</title>
    <desc>Created with Sketch.</desc>
    <g id="Icons/ion-md-apps" stroke="none" stroke-width="1" fill="none" fill-rule="evenodd" fill-opacity="0.9">
        <path d="M6,11 L6,6 L11,6 L11,11 L6,11 Z M13.5,26 L13.5,21 L18.5,21 L18.5,26 L13.5,26 Z M6,26 L6,21 L11,21 L11,26 L6,26 Z M6,18.5 L6,13.5 L11,13.5 L11,18.5 L6,18.5 Z M13.5,18.5 L13.5,13.5 L18.5,13.5 L18.5,18.5 L13.5,18.5 Z M21,6 L26,6 L26,11 L21,11 L21,6 Z M13.5,11 L13.5,6 L18.5,6 L18.5,11 L13.5,11 Z M21,18.5 L21,13.5 L26,13.5 L26,18.5 L21,18.5 Z M21,26 L21,21 L26,21 L26,26 L21,26 Z" id="↳-🎨-Fill" fill="#181C21"></path>
    </g>
</svg>