<?xml version="1.0" encoding="UTF-8"?>
<svg width="32px" height="32px" viewBox="0 0 32 32" version="1.1" xmlns="http://www.w3.org/2000/svg" xmlns:xlink="http://www.w3.org/1999/xlink">
    <!-- Generator: Sketch 63.1 (92452) - https://sketch.com -->
    <title>Icons/ion-md-computer</title>
    <desc>Created with Sketch.</desc>
    <g id="Icons/ion-md-computer" stroke="none" stroke-width="1" fill="none" fill-rule="evenodd" fill-opacity="0.9">
        <path d="M27.266274,4 C28.2222329,4 29,4.75582392 29,5.68464162 L29,5.68464162 L29,19.578963 C29,19.8113647 28.8058629,20 28.5666827,20 L28.5666827,20 L28.6445374,20.0064484 C28.846608,20.0403364 29,20.2037352 29,20.3999859 L29,20.3999859 L29,22.3995875 C29,23.2820128 28.2221836,24 27.2662266,24 L27.2662266,24 L18.5273932,24.0008116 C18.6265718,25.023492 18.9946616,25.6924582 19.6270919,26.0014976 L21.6874503,26 C22.4110676,26 23,26.6730078 23,27.5 C23,28.3269922 22.4111189,29 21.6875016,29 L21.6875016,29 L10.3124984,29 C9.58888112,29 9,28.3269922 9,27.5 C9,26.6730078 9.58888112,26 10.3124984,26 L10.3124984,26 L12.3729081,26.0014976 C13.0053384,25.6924582 13.3734282,25.023492 13.4726068,24.0008116 L4.73377344,24 C3.77781641,24 3,23.2820128 3,22.3995875 L3,22.3995875 L3,20.3999859 C3,20.1792038 3.19413672,20 3.43331641,20 L3.43331641,20 L3.35546331,19.9932122 C3.15339227,19.9575407 3,19.7855423 3,19.578963 L3,19.578963 L3,5.68464162 C3,4.75582392 3.77781793,4 4.73377682,4 L4.73377682,4 Z M21.6875016,27.0000195 L10.3124984,27.0000195 C10.0710192,27.0000195 9.87501602,27.2244922 9.87501602,27.5 C9.87501602,27.7755078 10.0710192,27.9999805 10.3124984,27.9999805 L10.3124984,27.9999805 L21.6874503,27.9999805 C21.9289808,27.9999805 22.124984,27.7755078 22.124984,27.5 C22.124984,27.2244922 21.9289808,27.0000195 21.6875016,27.0000195 L21.6875016,27.0000195 Z M17.694,24 L14.307006,24.001556 C14.231373,24.8308761 13.9950216,25.5043393 13.614649,26.001399 L18.3855719,26.001399 C17.9745609,25.4646607 17.7317633,24.7222313 17.6783041,23.7999812 L17.694,24 Z M5.07269024,20.8011285 L3.86668359,20.8000188 L3.86668359,22.3996344 C3.86668359,22.8412455 4.25582031,23.2000281 4.73377344,23.2000281 L4.73377344,23.2000281 L13.5561308,23.1994716 C13.6282862,23.0802338 13.7627799,23 13.9166646,23 L13.9166646,23 L18.0833354,23 C18.2372201,23 18.3717138,23.0802338 18.4438692,23.1994716 L27.2662266,23.2000281 C27.7441797,23.2000281 28.1333672,22.8412455 28.1333672,22.3996344 L28.1333672,22.3996344 L28.1333672,20.8000188 L27.9273098,20.8011285 C27.848195,20.9208995 27.712152,21 27.5577093,21 L27.5577093,21 L17.625011,21 C17.8319954,21 18,21.2240127 18,21.5 C18,21.7759873 17.8319954,22 17.625011,22 L17.625011,22 L15.374989,22 C15.1680046,22 15,21.7759873 15,21.5 C15,21.2240127 15.1680046,21 15.374989,21 L15.374989,21 L5.44229075,21 C5.287848,21 5.15180495,20.9208995 5.07269024,20.8011285 Z M27.266274,4.84212344 L4.73377682,4.84212344 C4.25582277,4.84212344 3.86668529,5.21978869 3.86668529,5.68464162 L3.86668529,5.68464162 L3.86668529,19.1579259 L5,19.157 L5,6.44115974 C5,6.22470729 5.15656885,6.04448854 5.36282454,6.00711218 L5.44229075,6 L27.5576574,6 C27.8018425,6 28,6.19765073 28,6.44115974 L28,6.44115974 L28,19.157 L28.1333655,19.1579259 L28.1333655,5.68464162 C28.1333655,5.21978869 27.744228,4.84212344 27.266274,4.84212344 L27.266274,4.84212344 Z M27.1153667,6.88231949 L5.88458149,6.88231949 L5.884,19.157 L27.115,19.157 L27.1153667,6.88231949 Z M21.5666328,7 C21.8058125,7 22,7.19200442 22,7.42855708 L22,7.42855708 L22,13.7705791 C22,13.862601 21.9701876,13.9510531 21.9165656,14.0235736 L23.1814153,14.4041108 C23.3361284,14.4511655 23.4550143,14.5757793 23.4944995,14.733169 C23.5339847,14.8905588 23.488098,15.0576299 23.3737846,15.1725623 L23.3737846,15.1725623 L22.7572993,15.7923859 L23.8654128,16.9064999 C24.0448714,17.0869843 24.0448714,17.3786691 23.865359,17.5590995 L23.865359,17.5590995 L22.5671894,18.8647854 C22.4813333,18.9515391 22.3642764,19 22.242647,19 C22.1210175,19 22.0039606,18.9515391 21.9181046,18.8647854 L21.9181046,18.8647854 L20.809991,17.7501847 L20.1609062,18.4032711 C20.0465928,18.5181494 19.8799373,18.5634192 19.7238794,18.5246397 C19.5673373,18.4849407 19.4429644,18.365411 19.3965935,18.2094275 L19.3965935,18.2094275 L18.737,16 L9.43331641,16 C9.22071224,16 9.04369758,15.8482928 9.00698573,15.6484416 L9,15.5714429 L9,7.42855708 C9,7.19200442 9.19413672,7 9.43331641,7 L9.43331641,7 Z M19.833,14.357 L20.1644102,15.4479936 C20.2038672,15.5778715 20.1787305,15.7184471 20.0968203,15.8272814 C20.0153164,15.9361659 19.8866367,16 19.7492734,16 L19.7492734,16 L19.695,16 L20.0548772,17.2037015 L20.3863053,16.8704787 C20.502878,16.7537074 20.6561924,16.6946457 20.809991,16.6946457 C20.9633054,16.6946457 21.1166198,16.7532747 21.2336767,16.8709655 L21.2336767,16.8709655 L22.242647,17.885886 L22.8917318,17.2327997 L21.8267614,16.1620625 C21.7285326,16.0642213 21.6743615,15.9322518 21.6743615,15.7923859 C21.6743615,15.6530067 21.7280485,15.5219027 21.8258469,15.4231419 L21.8258469,15.4231419 L22.1811598,15.065905 L19.833,14.357 Z M21.133,10 L9.866,10 L9.86663281,15.1429361 L18.481,15.142 L18.0194535,13.5941215 C17.9789283,13.4587266 18.0027697,13.3137541 18.0811715,13.1997369 L18.1346814,13.1353655 C18.2540514,13.015349 18.4289374,12.970566 18.5909666,13.0195136 L18.5358067,13.0085034 C18.5335087,12.8935869 18.5781041,12.7808762 18.6628594,12.6970519 C18.775543,12.5856059 18.9406328,12.5440209 19.0935859,12.5894732 L19.0935859,12.5894732 L21.1333164,13.194616 L21.133,10 Z M14.6000141,12 C14.8207962,12 15,12.2240083 15,12.5 L15,12.5 L15,14.5 C15,14.7759917 14.8207962,15 14.6000141,15 L14.6000141,15 L11.3999859,15 C11.1792038,15 11,14.7759917 11,14.5 L11,14.5 L11,12.5 C11,12.2240083 11.1792038,12 11.3999859,12 L11.3999859,12 Z M14.1999812,12.9999805 L11.7999719,12.9999805 L11.7999719,14.0000195 L14.1999812,14.0000195 L14.1999812,12.9999805 Z M21.1333164,7.85716438 L9.8666362,7.85716438 L9.8666362,9.14288584 L21.1333638,9.14288584 L21.1333164,7.85716438 Z" id="↳-🎨-Fill" fill="#181C21"></path>
    </g>
</svg>