<?xml version="1.0" encoding="UTF-8"?>
<svg width="32px" height="32px" viewBox="0 0 32 32" version="1.1" xmlns="http://www.w3.org/2000/svg" xmlns:xlink="http://www.w3.org/1999/xlink">
    <!-- Generator: Sketch 63.1 (92452) - https://sketch.com -->
    <title>Icons/ion-md-images</title>
    <desc>Created with Sketch.</desc>
    <g id="Icons/ion-md-images" stroke="none" stroke-width="1" fill="none" fill-rule="evenodd" fill-opacity="0.9">
        <path d="M28.625,8.75 C29.0416688,8.79166688 29.3854153,8.95833187 29.65625,9.25 C29.9270847,9.54166813 30.0416669,9.87499813 30,10.25 L29.125,26.6875 C29.0833331,27.1041687 28.9166681,27.4374987 28.625,27.6875 C28.3333319,27.9375012 27.9791688,28.0416669 27.5625,28 L6.9375,27 C6.52083125,26.9583331 6.17708469,26.8125012 5.90625,26.5625 C5.63541531,26.3124987 5.52083312,25.9791687 5.5625,25.5625 L5.6875,22.6875 L4.75,22.75 C4.37499813,22.7916669 4.05208469,22.6979178 3.78125,22.46875 C3.51041531,22.2395822 3.35416687,21.958335 3.3125,21.625 L2,6.875 C1.95833313,6.541665 2.05208219,6.23958469 2.28125,5.96875 C2.51041781,5.69791531 2.81249812,5.54166688 3.1875,5.5 L21.6875,4 C22.0625019,3.95833312 22.3854153,4.05208219 22.65625,4.28125 C22.9270847,4.51041781 23.0833331,4.791665 23.125,5.125 L23.4375,8.5 L28.625,8.75 Z M6.4375,9.125 C6.47916688,8.74999812 6.63541531,8.42708469 6.90625,8.15625 C7.17708469,7.88541531 7.52083125,7.75 7.9375,7.75 L21.625,8.4375 L21.5,6.5 L21.4375,6.5 L21.4375,6.4375 C21.3541662,6.104165 21.145835,5.9375 20.8125,5.9375 L4.5,7.3125 C4.166665,7.3125 3.95833375,7.49999813 3.875,7.875 L3.875,7.9375 L4.875,19.0625 L6,17.5 L6.4375,9.125 Z M27.3125,23.875 L27.9375,11.4375 L27.875,11.4375 C27.875,11.0208313 27.6666687,10.8125 27.25,10.8125 L9.0625,9.9375 C8.64583125,9.9375 8.39583375,10.1249981 8.3125,10.5 L7.6875,22.9375 L15.3125,14.75 L19.625,19.8125 L22,17.6875 L27.3125,23.875 Z M25.4375,15.4375 C25.0624981,15.8125019 24.5833362,16 24,16 C23.4166637,16 22.9375019,15.8125019 22.5625,15.4375 C22.1874981,15.0624981 22,14.5833363 22,14 C22,13.4166637 22.1874981,12.9375019 22.5625,12.5625 C22.9375019,12.1874981 23.4166637,12 24,12 C24.5833362,12 25.0624981,12.1874981 25.4375,12.5625 C25.8125019,12.9375019 26,13.4166637 26,14 C26,14.5833363 25.8125019,15.0624981 25.4375,15.4375 Z" id="↳-🎨-Fill" fill="#181C21"></path>
    </g>
</svg>