<?xml version="1.0" encoding="UTF-8"?>
<svg width="32px" height="32px" viewBox="0 0 32 32" version="1.1" xmlns="http://www.w3.org/2000/svg" xmlns:xlink="http://www.w3.org/1999/xlink">
    <!-- Generator: Sketch 63.1 (92452) - https://sketch.com -->
    <title>Icons/ion-md-pie</title>
    <desc>Created with Sketch.</desc>
    <g id="Icons/ion-md-pie" stroke="none" stroke-width="1" fill="none" fill-rule="evenodd" fill-opacity="0.9">
        <path d="M2.0625,16 C2.0625,15.9166662 2.05208344,15.7500013 2.03125,15.5 C2.01041656,15.2499987 2,15.0833338 2,15 C2,11.4166488 3.27082062,8.35417938 5.8125,5.8125 C8.35417938,3.27082062 11.4166488,2 15,2 C15.0833338,2 15.2499987,2.01041656 15.5,2.03125 C15.7500013,2.05208344 15.9166662,2.0625 16,2.0625 L16,16 L2.0625,16 Z M6.875,25.125 C5.16665812,23.0416562 4.2291675,20.66668 4.0625,18 L18,18 L18,4.0625 C20.66668,4.2291675 23.0416562,5.16665812 25.125,6.875 C28.3750163,9.50001312 30,12.8749794 30,17 C30,20.5833512 28.7291794,23.6458206 26.1875,26.1875 C23.6458206,28.7291794 20.5833512,30 17,30 C12.8749794,30 9.50001313,28.3750163 6.875,25.125 Z" id="↳-🎨-Fill" fill="#181C21"></path>
    </g>
</svg>