<?xml version="1.0" encoding="UTF-8"?>
<svg width="32px" height="32px" viewBox="0 0 32 32" version="1.1" xmlns="http://www.w3.org/2000/svg" xmlns:xlink="http://www.w3.org/1999/xlink">
    <!-- Generator: Sketch 63.1 (92452) - https://sketch.com -->
    <title>Icons/ion-md-alarm</title>
    <desc>Created with Sketch.</desc>
    <g id="Icons/ion-md-alarm" stroke="none" stroke-width="1" fill="none" fill-rule="evenodd" fill-opacity="0.9">
        <path d="M29.375,7.8125 L27.625,9.875 L21.5,4.75 L23.25,2.6875 L29.375,7.8125 Z M10.4375,4.6875 L4.375,9.875 L2.625,7.8125 L8.6875,2.625 L10.4375,4.6875 Z M16.6875,10.8125 L16.6875,17.75 L22,20.875 L21,22.5625 L14.6875,18.75 L14.6875,10.8125 L16.6875,10.8125 Z M7.4375,9 C9.81251188,6.666655 12.66665,5.5 16,5.5 C19.33335,5.5 22.1770716,6.666655 24.53125,9 C26.8854284,11.333345 28.0625,14.1458169 28.0625,17.4375 C28.0625,20.7291831 26.8854284,23.541655 24.53125,25.875 C22.1770716,28.208345 19.33335,29.375 16,29.375 C12.66665,29.375 9.82292844,28.208345 7.46875,25.875 C5.11457156,23.541655 3.9375,20.7291831 3.9375,17.4375 C3.9375,14.1458169 5.104155,11.333345 7.4375,9 Z M9.375,24 C11.2083425,25.8333425 13.4166538,26.75 16,26.75 C18.5833462,26.75 20.7916575,25.8437591 22.625,24.03125 C24.4583425,22.2187409 25.375,20.0208462 25.375,17.4375 C25.375,14.8958206 24.4583425,12.7083425 22.625,10.875 C20.7916575,9.0416575 18.5833462,8.125 16,8.125 C13.4166538,8.125 11.2083425,9.0416575 9.375,10.875 C7.5416575,12.7083425 6.625,14.8958206 6.625,17.4375 C6.625,19.9791794 7.5416575,22.1666575 9.375,24 Z" id="↳-🎨-Fill" fill="#181C21"></path>
    </g>
</svg>