<?xml version="1.0" encoding="UTF-8"?>
<svg width="32px" height="32px" viewBox="0 0 32 32" version="1.1" xmlns="http://www.w3.org/2000/svg" xmlns:xlink="http://www.w3.org/1999/xlink">
    <!-- Generator: Sketch 63.1 (92452) - https://sketch.com -->
    <title>Icons/ion-md-laptop</title>
    <desc>Created with Sketch.</desc>
    <g id="Icons/ion-md-laptop" stroke="none" stroke-width="1" fill="none" fill-rule="evenodd" fill-opacity="0.9">
        <path d="M27.3125,26 L32,26 C32,26.6250031 31.3229234,27.1145816 29.96875,27.46875 C28.6145766,27.8229184 27.2916731,28 26,28 L6,28 C4.70832688,28 3.38542344,27.8229184 2.03125,27.46875 C0.677076562,27.1145816 0,26.6250031 0,26 L4.6875,26 C3.97916313,26 3.35416937,25.7291694 2.8125,25.1875 C2.27083063,24.6458306 2,24.0208369 2,23.3125 L2,6.6875 C2,5.97916312 2.27083063,5.35416937 2.8125,4.8125 C3.35416937,4.27083062 3.97916313,4 4.6875,4 L27.3125,4 C28.0208369,4 28.6458306,4.27083062 29.1875,4.8125 C29.7291694,5.35416937 30,5.97916312 30,6.6875 L30,23.3125 C30,24.0208369 29.7291694,24.6458306 29.1875,25.1875 C28.6458306,25.7291694 28.0208369,26 27.3125,26 Z M4.6875,6.6875 L4.6875,23.6875 L27.3125,23.6875 L27.3125,6.6875 L4.6875,6.6875 Z M15.0625,26.8125 C15.3125013,27.0625013 15.6249981,27.1875 16,27.1875 C16.3750019,27.1875 16.6875,27.0520847 16.9375,26.78125 C17.1875,26.5104153 17.3125,26.1875019 17.3125,25.8125 C17.3125,25.4374981 17.1875,25.1250013 16.9375,24.875 C16.6875,24.6249987 16.3750019,24.5 16,24.5 C15.6249981,24.5 15.3125013,24.6249987 15.0625,24.875 C14.8124987,25.1250013 14.6875,25.4374981 14.6875,25.8125 C14.6875,26.1875019 14.8124987,26.5208319 15.0625,26.8125 Z" id="↳-🎨-Fill" fill="#181C21"></path>
    </g>
</svg>