<?xml version="1.0" encoding="UTF-8"?>
<svg width="32px" height="32px" viewBox="0 0 32 32" version="1.1" xmlns="http://www.w3.org/2000/svg" xmlns:xlink="http://www.w3.org/1999/xlink">
    <!-- Generator: Sketch 63.1 (92452) - https://sketch.com -->
    <title>Icons/ion-logo-closed-captioning</title>
    <desc>Created with Sketch.</desc>
    <g id="Icons/ion-logo-closed-captioning" stroke="none" stroke-width="1" fill="none" fill-rule="evenodd" fill-opacity="0.9">
        <path d="M2,6 L30,6 L30,26 L2,26 L2,6 Z M27.375,16 C27.375,14.4166587 27.3125006,12.95834 27.1875,11.625 C26.9791656,9.58332312 25.8958431,8.4791675 23.9375,8.3125 C22.60416,8.18749938 19.9583531,8.125 16,8.125 C12.0416469,8.125 9.39584,8.18749938 8.0625,8.3125 C6.10415687,8.4791675 5.02083437,9.58332312 4.8125,11.625 C4.68749937,12.95834 4.625,14.4166587 4.625,16 C4.625,17.0833387 4.68749937,18.5416575 4.8125,20.375 C4.93750063,22.4166769 6.02082312,23.5208325 8.0625,23.6875 C9.52084062,23.8125006 12.1666475,23.875 16,23.875 C19.8333525,23.875 22.4791594,23.8125006 23.9375,23.6875 C25.9791769,23.5208325 27.0624994,22.4166769 27.1875,20.375 C27.3125006,18.5833244 27.375,17.125 27.375,16 Z M22.375,17.5 L22.3125,17.3125 L25.1875,17.3125 C25.1875,18.8541744 24.85417,19.9791631 24.1875,20.6875 C23.4791631,21.4791706 22.3541744,21.875 20.8125,21.875 C20.14583,21.875 19.5000031,21.7708344 18.875,21.5625 C18.4166644,21.3958325 17.9791687,21.0833356 17.5625,20.625 C17.229165,20.2083313 16.9583344,19.625 16.75,18.875 C16.5416656,18.0416625 16.4375,17.0833387 16.4375,16 C16.4375,14.8749944 16.5624987,13.9375037 16.8125,13.1875 C17.1041681,12.3124956 17.416665,11.708335 17.75,11.375 C18.1666687,10.9583313 18.6666638,10.6458344 19.25,10.4375 C19.8750031,10.2291656 20.4999969,10.125 21.125,10.125 C22.45834,10.125 23.4791631,10.5208294 24.1875,11.3125 C24.8958369,12.1041706 25.25,13.2291594 25.25,14.6875 L22.375,14.6875 L22.375,14.625 C22.375,14.0833306 22.2291681,13.645835 21.9375,13.3125 C21.6458319,12.979165 21.2916687,12.8125 20.875,12.8125 C19.9999956,12.8125 19.5000006,13.3541613 19.375,14.4375 C19.3333331,14.8541687 19.3125,15.39583 19.3125,16.0625 L19.375,17.5625 C19.4583338,18.6458387 19.9583287,19.1875 20.875,19.1875 C21.875005,19.1875 22.375,18.6458387 22.375,17.5625 L22.375,17.5 Z M12.6875,17.5 L12.625,17.3125 L15.5,17.3125 C15.5,18.8541744 15.16667,19.9791631 14.5,20.6875 C13.7916631,21.4791706 12.6666744,21.875 11.125,21.875 C10.4999969,21.875 9.87500312,21.7708344 9.25,21.5625 C8.70833063,21.3958325 8.25,21.0833356 7.875,20.625 C7.541665,20.2083313 7.27083437,19.625 7.0625,18.875 C6.85416563,18.0416625 6.75,17.0833387 6.75,16 C6.75,14.8749944 6.87499875,13.9375037 7.125,13.1875 C7.41666812,12.3124956 7.729165,11.708335 8.0625,11.375 C8.52083563,10.9583313 9.02083063,10.6458344 9.5625,10.4375 C10.1875031,10.2291656 10.8124969,10.125 11.4375,10.125 C12.77084,10.125 13.7916631,10.5208294 14.5,11.3125 C15.2083369,12.1041706 15.5625,13.2291594 15.5625,14.6875 L12.75,14.6875 L12.75,14.625 C12.75,14.0833306 12.6041681,13.645835 12.3125,13.3125 C12.0208319,12.979165 11.6666687,12.8125 11.25,12.8125 C10.3333287,12.8125 9.81250063,13.3541613 9.6875,14.4375 C9.64583312,14.8541687 9.625,15.39583 9.625,16.0625 L9.6875,17.5625 C9.77083375,18.6458387 10.2708287,19.1875 11.1875,19.1875 C12.187505,19.1875 12.6875,18.6458387 12.6875,17.5625 L12.6875,17.5 Z" id="↳-🎨-Fill" fill="#181C21"></path>
    </g>
</svg>