<?xml version="1.0" encoding="UTF-8"?>
<svg width="32px" height="32px" viewBox="0 0 32 32" version="1.1" xmlns="http://www.w3.org/2000/svg" xmlns:xlink="http://www.w3.org/1999/xlink">
    <!-- Generator: Sketch 63.1 (92452) - https://sketch.com -->
    <title>Icons/ion-ios-thumbs-down</title>
    <desc>Created with Sketch.</desc>
    <g id="Icons/ion-ios-thumbs-down" stroke="none" stroke-width="1" fill="none" fill-rule="evenodd" fill-opacity="0.9">
        <path d="M5.0625,7.6875 C5.2291675,7.5208325 5.29166687,7.3541675 5.25,7.1875 L5.25,7.125 L5.1875,7 C4.93749875,6.54166437 4.91666563,6.0625025 5.125,5.5625 C5.6250025,4.35416062 7.20832,3.583335 9.875,3.25 C11.2916738,3.0833325 12.4583287,3 13.375,3 C15.4166769,3 17.77082,3.166665 20.4375,3.5 C21.5208387,3.62500062 22.4791625,3.87499812 23.3125,4.25 C24.64584,4.7500025 26.0416594,5 27.5,5 C27.833335,5 28,5.166665 28,5.5 L28,15.5 C28,15.833335 27.833335,16 27.5,16 C27,16 26.5416687,16.2083313 26.125,16.625 C25.8749988,16.8750013 25.583335,17.2708306 25.25,17.8125 C24.58333,18.812505 24.0416687,19.5 23.625,19.875 C23.5833331,19.9166669 23.4895841,20 23.34375,20.125 C23.1979159,20.2500006 23.0833338,20.3541662 23,20.4375 C20.9583231,22.2291756 19.770835,23.4791631 19.4375,24.1875 C19.3124994,24.4791681 19.0625019,25.3541594 18.6875,26.8125 C18.6041662,27.0625013 18.5416669,27.3229153 18.5,27.59375 C18.4583331,27.8645847 18.4270834,28.0624994 18.40625,28.1875 C18.3854166,28.3125006 18.3541669,28.4166662 18.3125,28.5 C18.0208319,28.833335 17.4375044,29 16.5625,29 C15.9374969,29 15.3958356,28.6041706 14.9375,27.8125 C14.1041625,26.3541594 14.0416631,24.4791781 14.75,22.1875 C14.9166675,21.5624969 15.2291644,20.8125044 15.6875,19.9375 C15.8958344,19.5208313 16,19.2500006 16,19.125 C15.9583331,18.8749987 15.60417,18.7708331 14.9375,18.8125 C14.6874987,18.8125 14.2500031,18.8749994 13.625,19 C11.0416538,19.4166687 9.35417063,19.6458331 8.5625,19.6875 C7.14582625,19.8125006 6.1875025,19.5625031 5.6875,18.9375 C5.06249687,18.2291631 4.89583187,17.4375044 5.1875,16.5625 C5.31250063,16.1041644 5.22916813,15.7291681 4.9375,15.4375 C4.52083125,15.0208313 4.3125,14.5416694 4.3125,14 C4.3125,13.33333 4.43749875,12.7916687 4.6875,12.375 C4.81250063,12.1666656 4.85416687,11.9583344 4.8125,11.75 L4.75,11.6875 C4.75,11.6041662 4.72916687,11.5416669 4.6875,11.5 C4.22916437,10.9583306 4,10.35417 4,9.6875 C4,8.89582938 4.35416312,8.22916938 5.0625,7.6875 Z" id="↳-🎨-Fill" fill="#181C21"></path>
    </g>
</svg>