<?xml version="1.0" encoding="UTF-8"?>
<svg width="32px" height="32px" viewBox="0 0 32 32" version="1.1" xmlns="http://www.w3.org/2000/svg" xmlns:xlink="http://www.w3.org/1999/xlink">
    <!-- Generator: Sketch 63.1 (92452) - https://sketch.com -->
    <title>Icons/ion-md-pricetag</title>
    <desc>Created with Sketch.</desc>
    <g id="Icons/ion-md-pricetag" stroke="none" stroke-width="1" fill="none" fill-rule="evenodd" fill-opacity="0.9">
        <path d="M26,4 L28,6 L28,16 L16.25,27.1875 C15.7083306,27.7291694 15.0625037,28 14.3125,28 C13.64583,28 13.0416694,27.7291694 12.5,27.1875 L4.8125,19.5 C4.27083063,18.9583306 4,18.3125037 4,17.5625 C4,16.89583 4.27083063,16.2916694 4.8125,15.75 L16.125,4 L26,4 Z M24.0625,10.4375 C24.7708369,10.2291656 25.2291656,9.77083688 25.4375,9.0625 C25.6041675,8.39583 25.4895853,7.80208594 25.09375,7.28125 C24.6979147,6.76041406 24.16667,6.5 23.5,6.5 C22.9166638,6.5 22.4375019,6.68749813 22.0625,7.0625 C21.6874981,7.43750187 21.5,7.91666375 21.5,8.5 C21.5,9.16667 21.7604141,9.69791469 22.28125,10.09375 C22.8020859,10.4895853 23.39583,10.6041675 24.0625,10.4375 Z" id="↳-🎨-Fill" fill="#181C21"></path>
    </g>
</svg>