<?xml version="1.0" encoding="UTF-8"?>
<svg width="32px" height="32px" viewBox="0 0 32 32" version="1.1" xmlns="http://www.w3.org/2000/svg" xmlns:xlink="http://www.w3.org/1999/xlink">
    <!-- Generator: Sketch 63.1 (92452) - https://sketch.com -->
    <title>Icons/ion-md-city</title>
    <desc>Created with Sketch.</desc>
    <g id="Icons/ion-md-city" stroke="none" stroke-width="1" fill="none" fill-rule="evenodd" fill-opacity="0.9">
        <path d="M27.7419355,16.4193548 L26.9032258,16.4193548 L26.9032258,6.77419355 C26.9032258,6.08058065 26.3387742,5.51612903 25.6451613,5.51612903 L24.6114516,5.51612903 L23.3076774,3.56025806 C23.0736774,3.20967742 22.6824194,3 22.2609677,3 L9.73903226,3 C9.31758065,3 8.92632258,3.20967742 8.69232258,3.56025806 L7.38854839,5.51612903 L6.35483871,5.51612903 C5.66122581,5.51612903 5.09677419,6.08058065 5.09677419,6.77419355 L5.09677419,16.4193548 L4.25806452,16.4193548 C3.56445161,16.4193548 3,16.9838065 3,17.6774194 L3,19.3548387 C3,19.9008387 3.35183871,20.362129 3.83870968,20.5357419 L3.83870968,29 L28.1612903,29 L28.1612903,20.5357419 C28.6481613,20.362129 29,19.9008387 29,19.3548387 L29,17.6774194 C29,16.9838065 28.4355484,16.4193548 27.7419355,16.4193548 Z M25.2258065,16.4193548 L25.2258065,8.87096774 L26.0645161,8.87096774 L26.0645161,16.4193548 L25.2258065,16.4193548 Z M24.3870968,8.87096774 L24.3870968,16.4193548 L7.61290323,16.4193548 L7.61290323,8.87096774 L24.3870968,8.87096774 Z M9.39012903,4.02532258 C9.46812903,3.90874194 9.59854839,3.83870968 9.73903226,3.83870968 L22.2609677,3.83870968 C22.4014516,3.83870968 22.531871,3.90874194 22.609871,4.02532258 L23.6037419,5.51612903 L8.39625806,5.51612903 L9.39012903,4.02532258 Z M6.35483871,6.35483871 L25.6451613,6.35483871 C25.8766452,6.35483871 26.0645161,6.54312903 26.0645161,6.77419355 L26.0645161,8.03225806 L5.93548387,8.03225806 L5.93548387,6.77419355 C5.93548387,6.54312903 6.12335484,6.35483871 6.35483871,6.35483871 Z M5.93548387,8.87096774 L6.77419355,8.87096774 L6.77419355,16.4193548 L5.93548387,16.4193548 L5.93548387,8.87096774 Z M4.67741935,20.6129032 L15.5806452,20.6129032 L15.5806452,28.1612903 L4.67741935,28.1612903 L4.67741935,20.6129032 Z M17.2580645,20.6129032 L17.2580645,28.1612903 L16.4193548,28.1612903 L16.4193548,20.6129032 L17.2580645,20.6129032 Z M22.2903226,23.1290323 L22.2903226,28.1612903 L20.6129032,28.1612903 L20.6129032,23.1290323 L22.2903226,23.1290323 Z M24.8064516,23.1290323 L24.8064516,28.1612903 L23.1290323,28.1612903 L23.1290323,23.1290323 L24.8064516,23.1290323 Z M25.6451613,28.1612903 L25.6451613,23.1290323 L26.483871,23.1290323 L26.483871,22.2903226 L18.9354839,22.2903226 L18.9354839,23.1290323 L19.7741935,23.1290323 L19.7741935,28.1612903 L18.0967742,28.1612903 L18.0967742,20.6129032 L27.3225806,20.6129032 L27.3225806,28.1612903 L25.6451613,28.1612903 Z M10,22 L10,26 L6,26 L6,22 L10,22 Z M15,22 L15,26 L11,26 L11,22 L15,22 Z M9.2,22.8 L6.8,22.8 L6.8,25.2 L9.2,25.2 L9.2,22.8 Z M14.2,22.8 L11.8,22.8 L11.8,25.2 L14.2,25.2 L14.2,22.8 Z M27.7419355,17.2580645 C27.9734194,17.2580645 28.1612903,17.4463548 28.1612903,17.6774194 L28.1612903,19.3548387 C28.1612903,19.5859032 27.9734194,19.7741935 27.7419355,19.7741935 L4.25806452,19.7741935 C4.02658065,19.7741935 3.83870968,19.5859032 3.83870968,19.3548387 L3.83870968,17.6774194 C3.83870968,17.4463548 4.02658065,17.2580645 4.25806452,17.2580645 L27.7419355,17.2580645 Z M15,10 L15,16 L9,16 L9,10 L15,10 Z M23,10 L23,16 L17,16 L17,10 L23,10 Z M11.5714286,13.4285714 L9.85714286,13.4285714 L9.85714286,15.1428571 L11.5714286,15.1428571 L11.5714286,13.4285714 Z M14.1428571,13.4285714 L12.4285714,13.4285714 L12.4285714,15.1428571 L14.1428571,15.1428571 L14.1428571,13.4285714 Z M19.5714286,13.4285714 L17.8571429,13.4285714 L17.8571429,15.1428571 L19.5714286,15.1428571 L19.5714286,13.4285714 Z M22.1428571,13.4285714 L20.4285714,13.4285714 L20.4285714,15.1428571 L22.1428571,15.1428571 L22.1428571,13.4285714 Z M14.1428571,10.8571429 L12.4285714,10.8571429 L12.4285714,12.5714286 L14.1428571,12.5714286 L14.1428571,10.8571429 Z M11.5714286,10.8571429 L9.85714286,10.8571429 L9.85714286,12.5714286 L11.5714286,12.5714286 L11.5714286,10.8571429 Z M22.1428571,10.8571429 L20.4285714,10.8571429 L20.4285714,12.5714286 L22.1428571,12.5714286 L22.1428571,10.8571429 Z M19.5714286,10.8571429 L17.8571429,10.8571429 L17.8571429,12.5714286 L19.5714286,12.5714286 L19.5714286,10.8571429 Z" id="↳-🎨-Fill" fill="#181C21"></path>
    </g>
</svg>