<?xml version="1.0" encoding="UTF-8"?>
<svg width="32px" height="32px" viewBox="0 0 32 32" version="1.1" xmlns="http://www.w3.org/2000/svg" xmlns:xlink="http://www.w3.org/1999/xlink">
    <!-- Generator: Sketch 63.1 (92452) - https://sketch.com -->
    <title>Icons/ion-ios-sync</title>
    <desc>Created with Sketch.</desc>
    <g id="Icons/ion-ios-sync" stroke="none" stroke-width="1" fill="none" fill-rule="evenodd" fill-opacity="0.9">
        <path d="M30.75,16.0625 C31.1666688,16.4375019 31.1666688,16.8333313 30.75,17.25 L28.125,19.875 C27.9999994,20.0000006 27.8541675,20.0625 27.6875,20.0625 C27.5208325,20.0625 27.3750006,20.0000006 27.25,19.875 L24.5625,17.25 C24.1874981,16.8333313 24.1874981,16.4375019 24.5625,16.0625 C24.7291675,15.8958325 24.9374987,15.8125 25.1875,15.8125 C25.3958344,15.8125 25.5833325,15.8958325 25.75,16.0625 L26.9375,17.1875 C27.1041675,15.7708262 26.9583356,14.2916744 26.5,12.75 C25.9999975,11.0416581 25.08334,9.52084 23.75,8.1875 C22.6666613,7.10416125 21.45834,6.29166937 20.125,5.75 C18.8749938,5.20833062 17.5000075,4.9375 16,4.9375 C14.4999925,4.9375 13.1250063,5.20833062 11.875,5.75 C10.54166,6.29166937 9.33333875,7.10416125 8.25,8.1875 C7.49999625,8.93750375 6.8750025,9.74999563 6.375,10.625 C6.2083325,10.9166681 5.958335,11.0625 5.625,11.0625 C5.41666563,11.0625 5.27083375,11.0416669 5.1875,11 C4.93749875,10.8333325 4.79166688,10.6458344 4.75,10.4375 C4.66666625,10.1458319 4.68749938,9.9166675 4.8125,9.75 C5.39583625,8.70832813 6.1041625,7.7708375 6.9375,6.9375 C8.1041725,5.6875 9.520825,4.75000312 11.1875,4.125 C12.7291744,3.49999688 14.333325,3.1875 16,3.1875 C19.2916831,3.1875 22.1666544,4.31248875 24.625,6.5625 C27.625015,9.31251375 29.0000013,12.7499794 28.75,16.875 L29.5625,16.0625 C29.7291675,15.8958325 29.9166656,15.8125 30.125,15.8125 C30.3750013,15.8125 30.5833325,15.8958325 30.75,16.0625 Z M26.8125,21 C27.0625013,21.1250006 27.2083331,21.2916656 27.25,21.5 C27.3333338,21.833335 27.3125006,22.0833325 27.1875,22.25 C26.7291644,23.1250044 26.000005,24.062495 25,25.0625 C23.7499938,26.3125062 22.3541744,27.2499969 20.8125,27.875 C19.3124925,28.5000031 17.7083419,28.8125 16,28.8125 C14.2916581,28.8125 12.6875075,28.5000031 11.1875,27.875 C9.60415875,27.2499969 8.18750625,26.3125062 6.93749844,25.0625 C5.52082625,23.6458262 4.47917,21.9166769 3.8125,19.875 C3.3124975,18.375 3.12499937,16.791675 3.25,15.125 L2.43749844,15.9375 C2.2708325,16.1041675 2.08333437,16.1875 1.875,16.1875 C1.62499875,16.1875 1.4166675,16.1041675 1.25,15.9375 C0.83333125,15.5624981 0.83333125,15.1666687 1.25,14.75 L3.875,12.0625 C4.00000063,11.9374994 4.1458325,11.875 4.3125,11.875 C4.4791675,11.875 4.62499937,11.9374994 4.75,12.0625 L7.43749844,14.75 C7.81250188,15.1250019 7.81250188,15.4999981 7.43749844,15.875 L7.375,15.9375 C7.2083325,16.1041675 7.02083437,16.1875 6.8125,16.1875 C6.60416563,16.1875 6.4166675,16.1041675 6.25,15.9375 L5.0625,14.8125 C4.64583125,18.3125175 5.6874875,21.3124875 8.1875,23.8125 C9.22917188,24.8541719 10.4583263,25.6666638 11.875,26.25 C13.0416725,26.7500025 14.4166588,27 16,27 C17.5833413,27 18.9583275,26.7500025 20.125,26.25 C21.45834,25.7083306 22.6666613,24.8958387 23.75,23.8125 C24.5000038,23.0624963 25.1249975,22.2500044 25.625,21.375 C25.7916675,21.041665 26.041665,20.875 26.375,20.875 C26.5000006,20.875 26.6458325,20.9166662 26.8125,21 Z" id="↳-🎨-Fill" fill="#181C21"></path>
    </g>
</svg>