<?xml version="1.0" encoding="UTF-8"?>
<svg width="32px" height="32px" viewBox="0 0 32 32" version="1.1" xmlns="http://www.w3.org/2000/svg" xmlns:xlink="http://www.w3.org/1999/xlink">
    <!-- Generator: Sketch 63.1 (92452) - https://sketch.com -->
    <title>Icons/ion-md-book</title>
    <desc>Created with Sketch.</desc>
    <g id="Icons/ion-md-book" stroke="none" stroke-width="1" fill="none" fill-rule="evenodd" fill-opacity="0.9">
        <path d="M26.625,5 C27.29167,4.91666625 27.8541644,5.1249975 28.3125,5.625 C28.7708356,6.1250025 29,6.70833 29,7.375 L29,22.625 C29,23.8333394 28.2083413,24.6249981 26.625,25 L16,27 L5.375,25 C3.79165875,24.6249981 3,23.8333394 3,22.625 L3,7.375 C3,6.70833 3.22916437,6.1250025 3.6875,5.625 C4.14583563,5.1249975 4.70833,4.91666625 5.375,5 L16,7 L26.625,5 Z M26.625,22.625 L26.625,7.375 L17.1875,9.375 L17.1875,24.625 L26.625,22.625 Z M14.8125,24.625 L14.8125,9.375 L5.375,7.375 L5.375,22.625 L14.8125,24.625 Z" id="↳-🎨-Fill" fill="#181C21"></path>
    </g>
</svg>