<?xml version="1.0" encoding="UTF-8"?>
<svg width="32px" height="32px" viewBox="0 0 32 32" version="1.1" xmlns="http://www.w3.org/2000/svg" xmlns:xlink="http://www.w3.org/1999/xlink">
    <!-- Generator: Sketch 63.1 (92452) - https://sketch.com -->
    <title>Icons/ion-md-delivery-trock</title>
    <desc>Created with Sketch.</desc>
    <g id="Icons/ion-md-delivery-trock" stroke="none" stroke-width="1" fill="none" fill-rule="evenodd" fill-opacity="0.9">
        <path d="M24.2174797,19.9445122 C23.5833333,19.9445122 22.9808943,20.1928862 22.5264228,20.6420732 C22.0719512,21.0965447 21.8182927,21.6884146 21.8182927,22.322561 C21.8182927,22.9567073 22.0666667,23.5485772 22.5264228,24.0030488 C22.9861789,24.4522358 23.5833333,24.7006098 24.2174797,24.7006098 C25.5174797,24.7006098 26.5743902,23.6331301 26.5743902,22.322561 C26.5743902,21.0119919 25.5174797,19.9445122 24.2174797,19.9445122 Z M24.2174797,23.6436992 C23.4882114,23.6436992 22.8752033,23.0412602 22.8752033,22.322561 C22.8752033,21.6038618 23.4882114,21.0014228 24.2174797,21.0014228 C24.9361789,21.0014228 25.5174797,21.5932927 25.5174797,22.322561 C25.5174797,23.0518293 24.9361789,23.6436992 24.2174797,23.6436992 Z M24.8304878,12.0229675 C24.7353659,11.9331301 24.6085366,11.8855691 24.4764228,11.8855691 L21.7654472,11.8855691 C21.4747967,11.8855691 21.2369919,12.123374 21.2369919,12.4140244 L21.2369919,16.7473577 C21.2369919,17.0380081 21.4747967,17.275813 21.7654472,17.275813 L26.0670732,17.275813 C26.3577236,17.275813 26.5955285,17.0380081 26.5955285,16.7473577 L26.5955285,13.8461382 C26.5955285,13.6981707 26.5321138,13.5554878 26.4211382,13.4550813 L24.8304878,12.0229675 Z M25.5386179,16.2189024 L22.2939024,16.2189024 L22.2939024,12.9371951 L24.2703252,12.9371951 L25.5386179,14.0786585 L25.5386179,16.2189024 Z M11.3126016,19.9445122 C10.6784553,19.9445122 10.0760163,20.1928862 9.62154472,20.6420732 C9.16707317,21.0965447 8.91341463,21.6884146 8.91341463,22.322561 C8.91341463,22.9567073 9.16178862,23.5485772 9.62154472,24.0030488 C10.0813008,24.4522358 10.6784553,24.7006098 11.3126016,24.7006098 C12.6126016,24.7006098 13.6695122,23.6331301 13.6695122,22.322561 C13.6695122,21.0119919 12.6126016,19.9445122 11.3126016,19.9445122 Z M11.3126016,23.6436992 C10.5833333,23.6436992 9.9703252,23.0412602 9.9703252,22.322561 C9.9703252,21.6038618 10.5833333,21.0014228 11.3126016,21.0014228 C12.0313008,21.0014228 12.6126016,21.5932927 12.6126016,22.322561 C12.6126016,23.0518293 12.0313008,23.6436992 11.3126016,23.6436992 Z M7.78780488,20.5945122 L6.72560976,20.5945122 L6.72560976,19.1888211 C6.72560976,18.8981707 6.48780488,18.6603659 6.19715447,18.6603659 C5.90650407,18.6603659 5.66869919,18.8981707 5.66869919,19.1888211 L5.66869919,21.1229675 C5.66869919,21.4136179 5.90650407,21.6514228 6.19715447,21.6514228 L7.78780488,21.6514228 C8.07845528,21.6514228 8.31626016,21.4136179 8.31626016,21.1229675 C8.31626016,20.8323171 8.07845528,20.5945122 7.78780488,20.5945122 Z M10.4670732,17.7144309 C10.4670732,17.4237805 10.2292683,17.1859756 9.93861789,17.1859756 L3.52845528,17.1859756 C3.23780488,17.1859756 3,17.4237805 3,17.7144309 C3,18.0050813 3.23780488,18.2428862 3.52845528,18.2428862 L9.93861789,18.2428862 C10.2292683,18.2428862 10.4670732,18.0103659 10.4670732,17.7144309 Z M4.60121951,15.8067073 L11.0113821,15.8436992 C11.3020325,15.8436992 11.5398374,15.6111789 11.545122,15.3205285 C11.5504065,15.0245935 11.3126016,14.7867886 11.0219512,14.7867886 L4.61178862,14.7497967 C4.60650407,14.7497967 4.60650407,14.7497967 4.60650407,14.7497967 C4.31585366,14.7497967 4.07804878,14.9823171 4.07804878,15.2729675 C4.07276423,15.5689024 4.31056911,15.8067073 4.60121951,15.8067073 Z M5.67926829,13.4075203 L12.0894309,13.4075203 C12.3800813,13.4075203 12.6178862,13.1697154 12.6178862,12.879065 C12.6178862,12.5884146 12.3800813,12.3506098 12.0894309,12.3506098 L5.67926829,12.3506098 C5.38861789,12.3506098 5.15081301,12.5884146 5.15081301,12.879065 C5.15081301,13.1697154 5.38861789,13.4075203 5.67926829,13.4075203 Z M28.7569106,12.6941057 L28.7569106,12.6941057 L24.9731707,9.56036585 C24.8780488,9.48109756 24.7617886,9.43882114 24.6349593,9.43882114 L20.1853659,9.43882114 L20.1853659,7.53638211 C20.1853659,7.24573171 19.947561,7.00792683 19.6569106,7.00792683 L6.19715447,7.00792683 C5.90650407,7.00792683 5.66869919,7.24573171 5.66869919,7.53638211 L5.66869919,11.4046748 C5.66869919,11.6953252 5.90650407,11.9331301 6.19715447,11.9331301 C6.48780488,11.9331301 6.72560976,11.6953252 6.72560976,11.4046748 L6.72560976,8.0648374 L19.1337398,8.0648374 L19.1337398,20.5945122 L14.8004065,20.5945122 C14.5097561,20.5945122 14.2719512,20.8323171 14.2719512,21.1229675 C14.2719512,21.4136179 14.5097561,21.6514228 14.8004065,21.6514228 L21.2528455,21.6514228 C21.5434959,21.6514228 21.7813008,21.4136179 21.7813008,21.1229675 C21.7813008,20.8323171 21.5434959,20.5945122 21.2528455,20.5945122 L20.1906504,20.5945122 L20.1906504,10.4957317 L24.45,10.4957317 L27.8955285,13.3493902 L27.8585366,20.5839431 L27.3089431,20.5839431 C27.0182927,20.5839431 26.7804878,20.821748 26.7804878,21.1123984 C26.7804878,21.4030488 27.0182927,21.6408537 27.3089431,21.6408537 L28.3817073,21.6408537 C28.6723577,21.6408537 28.9101626,21.4083333 28.9101626,21.1176829 L28.952439,13.1063008 C28.9471545,12.9477642 28.8784553,12.7945122 28.7569106,12.6941057 Z" id="↳-🎨-Fill" fill="#181C21"></path>
    </g>
</svg>