<?xml version="1.0" encoding="UTF-8"?>
<svg width="32px" height="32px" viewBox="0 0 32 32" version="1.1" xmlns="http://www.w3.org/2000/svg" xmlns:xlink="http://www.w3.org/1999/xlink">
    <!-- Generator: Sketch 63.1 (92452) - https://sketch.com -->
    <title>Icons/ion-md-archive</title>
    <desc>Created with Sketch.</desc>
    <g id="Icons/ion-md-archive" stroke="none" stroke-width="1" fill="none" fill-rule="evenodd" fill-opacity="0.9">
        <path d="M28.375,6.25 C28.7916687,6.66666875 29,7.27082937 29,8.0625 L29,26.125 C29,26.9166706 28.7187528,27.5937472 28.15625,28.15625 C27.5937472,28.7187528 26.9166706,29 26.125,29 L5.875,29 C5.08332937,29 4.40625281,28.7187528 3.84375,28.15625 C3.28124719,27.5937472 3,26.9166706 3,26.125 L3,8.0625 C3,7.27082937 3.20833125,6.66666875 3.625,6.25 L5.6875,3.8125 C6.10416875,3.27083062 6.64583,3 7.3125,3 L24.6875,3 C25.35417,3 25.8958313,3.27083062 26.3125,3.8125 L28.375,6.25 Z M16,23.9375 L23.9375,16 L18.875,16 L18.875,13.125 L13.125,13.125 L13.125,16 L8.0625,16 L16,23.9375 Z M6.0625,5.875 L25.875,5.875 L24.5,4.4375 L7.1875,4.4375 L6.0625,5.875 Z" id="↳-🎨-Fill" fill="#181C21"></path>
    </g>
</svg>