<?xml version="1.0" encoding="UTF-8"?>
<svg width="32px" height="32px" viewBox="0 0 32 32" version="1.1" xmlns="http://www.w3.org/2000/svg" xmlns:xlink="http://www.w3.org/1999/xlink">
    <!-- Generator: Sketch 63.1 (92452) - https://sketch.com -->
    <title>Icons/ion-logo-chrome</title>
    <desc>Created with Sketch.</desc>
    <g id="Icons/ion-logo-chrome" stroke="none" stroke-width="1" fill="none" fill-rule="evenodd" fill-opacity="0.9">
        <path d="M13,19 C12.2083294,18.1666625 11.8125,17.1666725 11.8125,16 C11.8125,14.8333275 12.2187459,13.8437541 13.03125,13.03125 C13.8437541,12.2187459 14.8333275,11.8125 16,11.8125 C17.1666725,11.8125 18.1562459,12.2187459 18.96875,13.03125 C19.7812541,13.8437541 20.1875,14.8333275 20.1875,16 C20.1875,17.1666725 19.7812541,18.1562459 18.96875,18.96875 C18.1562459,19.7812541 17.1666725,20.1875 16,20.1875 C14.8333275,20.1875 13.8333375,19.7916706 13,19 Z M29.5781249,12.5468741 C29.6510414,12.8489567 29.7291662,13.2083313 29.8125,13.625 C29.7291662,13.2083313 29.6510414,12.8489567 29.5781249,12.5468741 C29.6510414,12.8489567 29.7291662,13.2083313 29.8125,13.625 C29.9375,14.3750038 30,15.1666625 30,16 C30,19.2916831 28.9791769,22.2083206 26.9375,24.75 C24.8958231,27.2916794 22.2916825,28.9166631 19.125,29.625 C18.2916625,29.7916675 17.6666687,29.8958331 17.25,29.9375 C16.9583319,29.9791669 16.5416694,30 16,30 C15.2916631,30 14.770835,29.9791669 14.4375,29.9375 L14.4375,29.875 L20.8125,18.8125 C21.3541694,17.9374956 21.625,17.000005 21.625,16 C21.625,14.4166587 20.95834,13.0208394 19.625,11.8125 L29.375,11.8125 C29.4375,12.0000009 29.5052084,12.2447916 29.5781249,12.5468741 C29.5052084,12.2447916 29.4375,12.0000009 29.375,11.8125 C29.4375,12.0000009 29.5052084,12.2447916 29.5781249,12.5468741 Z M16,21.5625 C16.5833363,21.5625 17.1874969,21.4583344 17.8125,21.25 L12.9375,29.6875 C10.3541538,29.1458306 8.10417625,27.9166762 6.1875,26 C3.39581938,23.2916531 2,19.9583531 2,16 C2,13.99999 2.37499625,12.166675 3.125,10.5 C3.54166875,9.58332875 4.08333,8.64583813 4.75,7.6875 L11.1875,18.8125 C12.2708387,20.6458425 13.8749894,21.5625 16,21.5625 Z M28.0468751,8.87499937 C28.3072911,9.33333156 28.5624987,9.83333063 28.8125,10.3749994 C28.5624987,9.83333063 28.3072911,9.33333156 28.0468751,8.87499937 Z M28.0468751,8.87499937 C27.7864591,8.41666719 27.5208347,8 27.25,7.625 L27.1875,7.625 C27.85417,8.54167125 28.3958313,9.45832875 28.8125,10.375 L16,10.375 C14.66666,10.375 13.4895884,10.8020791 12.46875,11.65625 C11.4479116,12.5104209 10.8125013,13.5833269 10.5625,14.875 L5.6875,6.5625 L5.6875,6.5 C7.27084125,4.79165812 9.1458225,3.56250375 11.3125,2.8125 C12.8541744,2.27083063 14.4166587,2 16,2 C18.2500113,2 20.3437403,2.5 22.28125,3.5 C24.2187597,4.5 25.85416,5.87499125 27.1875,7.625 L27.25,7.625 C27.5208347,8 27.7864591,8.41666719 28.0468751,8.87499937 Z" id="↳-🎨-Fill" fill="#181C21"></path>
    </g>
</svg>