<?xml version="1.0" encoding="UTF-8"?>
<svg width="32px" height="32px" viewBox="0 0 32 32" version="1.1" xmlns="http://www.w3.org/2000/svg" xmlns:xlink="http://www.w3.org/1999/xlink">
    <!-- Generator: Sketch 63.1 (92452) - https://sketch.com -->
    <title>Icons/ion-ios-folder-open</title>
    <desc>Created with Sketch.</desc>
    <g id="Icons/ion-ios-folder-open" stroke="none" stroke-width="1" fill="none" fill-rule="evenodd" fill-opacity="0.9">
        <path d="M28,7.4375 L28,10 L4,10 L4,5.4375 C4,5.02083125 4.14583187,4.67708469 4.4375,4.40625 C4.72916812,4.13541531 5.10416437,4 5.5625,4 L11.5625,4 C11.9791688,4 12.3333319,4.14583187 12.625,4.4375 L14.0625,5.875 C14.1458338,5.95833375 14.2708325,6 14.4375,6 L26.5625,6 C26.9791687,6 27.3229153,6.13541531 27.59375,6.40625 C27.8645847,6.67708469 28,7.02083125 28,7.4375 Z M3.5,11.75 L28.5,11.75 C29.5833387,11.75 30.0833337,12.3749937 30,13.625 L28.5,26.4375 C28.3749994,27.4791719 27.8958375,28 27.0625,28 L5.0625,28 C4.18749563,28 3.6666675,27.4791719 3.5,26.4375 C2.58332875,18.43746 2.08333375,14.0416706 2,13.25 C1.87499937,12.25 2.37499437,11.75 3.5,11.75 Z" id="↳-🎨-Fill" fill="#181C21"></path>
    </g>
</svg>