<?xml version="1.0" encoding="UTF-8"?>
<svg width="32px" height="32px" viewBox="0 0 32 32" version="1.1" xmlns="http://www.w3.org/2000/svg" xmlns:xlink="http://www.w3.org/1999/xlink">
    <!-- Generator: Sketch 63.1 (92452) - https://sketch.com -->
    <title>Icons/ion-md-cloud-circle</title>
    <desc>Created with Sketch.</desc>
    <g id="Icons/ion-md-cloud-circle" stroke="none" stroke-width="1" fill="none" fill-rule="evenodd" fill-opacity="0.9">
        <path d="M6.8125,6.8125 C9.35417938,4.27082062 12.4166488,3 16,3 C19.5833512,3 22.6458206,4.27082062 25.1875,6.8125 C27.7291794,9.35417938 29,12.4166488 29,16 C29,19.5833512 27.7291794,22.6458206 25.1875,25.1875 C22.6458206,27.7291794 19.5833512,29 16,29 C12.4166488,29 9.35417938,27.7291794 6.8125,25.1875 C4.27082063,22.6458206 3,19.5833512 3,16 C3,12.4166488 4.27082063,9.35417938 6.8125,6.8125 Z M21.875,21.1875 C22.7916713,21.1875 23.5624969,20.8750031 24.1875,20.25 C24.8125031,19.6249969 25.125,18.8541713 25.125,17.9375 C25.125,17.0208287 24.8125031,16.2500031 24.1875,15.625 C23.5624969,15 22.7916713,14.6875 21.875,14.6875 L21.1875,14.6875 C21.1875,13.2291594 20.6770884,12 19.65625,11 C18.6354116,10 17.4166738,9.5 16,9.5 C14.8333275,9.5 13.7812547,9.86457969 12.84375,10.59375 C11.9062453,11.3229203 11.2916681,12.2499944 11,13.375 L10.8125,13.375 C9.77082812,13.375 8.85417063,13.7708294 8.0625,14.5625 C7.27082937,15.3541706 6.875,16.2708281 6.875,17.3125 C6.875,18.3541719 7.26041281,19.2604128 8.03125,20.03125 C8.80208719,20.8020872 9.72916125,21.1875 10.8125,21.1875 L21.875,21.1875 Z" id="↳-🎨-Fill" fill="#181C21"></path>
    </g>
</svg>