<?xml version="1.0" encoding="UTF-8"?>
<svg width="32px" height="32px" viewBox="0 0 32 32" version="1.1" xmlns="http://www.w3.org/2000/svg" xmlns:xlink="http://www.w3.org/1999/xlink">
    <!-- Generator: Sketch 63.1 (92452) - https://sketch.com -->
    <title>Icons/ion-ios-mail-open</title>
    <desc>Created with Sketch.</desc>
    <g id="Icons/ion-ios-mail-open" stroke="none" stroke-width="1" fill="none" fill-rule="evenodd" fill-opacity="0.9">
        <path d="M28.375,13.125 C28.7916687,13.5416687 29,14.0624969 29,14.6875 L29,28 C29,28.5833362 28.8125019,29.0624981 28.4375,29.4375 C28.0624981,29.8125019 27.5833362,30 27,30 L5,30 C4.41666375,30 3.93750187,29.8125019 3.5625,29.4375 C3.18749813,29.0624981 3,28.5833362 3,28 L3,14.75 C3,14.08333 3.20833125,13.5416687 3.625,13.125 L13.5625,3 C14.1875031,2.33333 15,2 16,2 C17,2 17.8124969,2.33333 18.4375,3 C24.8958656,9.58336625 28.2083325,12.9583325 28.375,13.125 Z M27.125,15.75 C27.458335,15.416665 27.5000013,14.9583363 27.25,14.375 C26.9999988,13.7916637 26.6250025,13.5 26.125,13.5 L5.875,13.5 C5.33333063,13.5 4.94791781,13.7916637 4.71875,14.375 C4.48958219,14.9583363 4.541665,15.416665 4.875,15.75 L9.9375,21.0625 C9.97916688,21.1041669 9.97916688,21.1666662 9.9375,21.25 L5.25,26.25 C4.87499813,26.6250019 4.87499813,27 5.25,27.375 C5.4166675,27.5416675 5.60416563,27.625 5.8125,27.625 C6.02083438,27.625 6.2083325,27.5416675 6.375,27.375 L15.8125,17.3125 C15.9375006,17.1874994 16.0624994,17.1874994 16.1875,17.3125 L25.625,27.375 C25.7916675,27.5416675 25.9791656,27.625 26.1875,27.625 C26.3958344,27.625 26.5833325,27.5416675 26.75,27.375 C27.1250019,27 27.1250019,26.6250019 26.75,26.25 L22.0625,21.25 C22.0208331,21.1666662 22.0208331,21.1041669 22.0625,21.0625 L27.125,15.75 Z" id="↳-🎨-Fill" fill="#181C21"></path>
    </g>
</svg>