<?xml version="1.0" encoding="UTF-8"?>
<svg width="32px" height="32px" viewBox="0 0 32 32" version="1.1" xmlns="http://www.w3.org/2000/svg" xmlns:xlink="http://www.w3.org/1999/xlink">
    <!-- Generator: Sketch 63.1 (92452) - https://sketch.com -->
    <title>Icons/ion-ios-arrow-dropdown-circle</title>
    <desc>Created with Sketch.</desc>
    <g id="Icons/ion-ios-arrow-dropdown-circle" stroke="none" stroke-width="1" fill="none" fill-rule="evenodd" fill-opacity="0.9">
        <path d="M6.8125,25.1875 C4.27082063,22.6458206 3,19.5833512 3,16 C3,12.4166488 4.27082063,9.35417938 6.8125,6.8125 C9.35417938,4.27082062 12.4166488,3 16,3 C19.5833512,3 22.6458206,4.27082062 25.1875,6.8125 C27.7291794,9.35417938 29,12.4166488 29,16 C29,19.5833512 27.7291794,22.6458206 25.1875,25.1875 C22.6458206,27.7291794 19.5833512,29 16,29 C12.4166488,29 9.35417938,27.7291794 6.8125,25.1875 Z M21.0625,13.3125 L16,18.25 L10.9375,13.1875 C10.3958306,12.6458306 9.83333625,12.6458306 9.25,13.1875 C8.66666375,13.7291694 8.66666375,14.2916637 9.25,14.875 L15.1875,20.8125 C15.7291694,21.3541694 16.2916637,21.3750025 16.875,20.875 L22.75,15 C23.0000012,14.7499987 23.125,14.458335 23.125,14.125 C23.125,13.8333319 23.0000012,13.5625013 22.75,13.3125 C22.1666637,12.7708306 21.6041694,12.7708306 21.0625,13.3125 Z" id="↳-🎨-Fill" fill="#181C21"></path>
    </g>
</svg>