<?xml version="1.0" encoding="UTF-8"?>
<svg width="32px" height="32px" viewBox="0 0 32 32" version="1.1" xmlns="http://www.w3.org/2000/svg" xmlns:xlink="http://www.w3.org/1999/xlink">
    <!-- Generator: Sketch 63.1 (92452) - https://sketch.com -->
    <title>Icons/ion-ios-bug</title>
    <desc>Created with Sketch.</desc>
    <g id="Icons/ion-ios-bug" stroke="none" stroke-width="1" fill="none" fill-rule="evenodd" fill-opacity="0.9">
        <path d="M23.4375,7.9375 C23.104165,8.85417125 22.5000044,9.74999563 21.625,10.625 C20.0833256,12.1666744 18.2083444,12.9375 16,12.9375 C13.7499887,12.9375 11.8541744,12.1666744 10.3125,10.625 C9.52082937,9.83332937 8.93750188,8.937505 8.5625,7.9375 C10.5208431,5.31248687 12.999985,4 16,4 C19.000015,4 21.4791569,5.31248687 23.4375,7.9375 Z M7.625,9.375 C8.33333688,10.8333406 9.37499313,12.0416619 10.75,13 C12.1250069,13.9583381 13.6249919,14.4791662 15.25,14.5625 L15.25,28 C12.916655,27.8749994 10.8333425,26.7291775 9,24.5625 L8.6875,24.875 C8.354165,25.1250012 8.2708325,25.4791644 8.4375,25.9375 C8.64583438,26.4791694 8.54166875,26.9999975 8.125,27.5 C7.45833,28.2500037 6.75000375,28.29167 6,27.625 C5.24999625,26.95833 5.20833,26.2500037 5.875,25.5 L6.0625,25.3125 L6.1875,25.25 C6.43750125,24.3749956 6.99999563,23.60417 7.875,22.9375 C6.83332813,21.1458244 6.2291675,19.2916762 6.0625,17.375 C6.02083312,17.375 5.95833375,17.3854166 5.875,17.40625 C5.79166625,17.4270834 5.72916687,17.4375 5.6875,17.4375 C5.31249813,17.4791669 5.06250063,17.666665 4.9375,18 C4.64583188,18.7500037 4.12500375,19.0833338 3.375,19 C2.5416625,18.9166662 2.08333375,18.4583375 2,17.625 C1.95833313,17.1666644 2.09374844,16.7812516 2.40625,16.46875 C2.71875156,16.1562484 3.08333125,16 3.5,16 L3.6875,16 L4.4375,15.625 C5.02083625,15.4583325 5.54166438,15.375 6,15.375 C6.04166688,14.04166 6.3124975,12.6875069 6.8125,11.3125 C6.3124975,10.979165 6.00000063,10.7500006 5.875,10.625 C5.58333188,10.3749987 5.33333438,10.083335 5.125,9.75 C4.9583325,9.54166563 4.83333375,9.39583375 4.75,9.3125 C4.66666625,9.27083312 4.5416675,9.1666675 4.375,9 C3.95833125,8.58333125 3.89583187,8.02083688 4.1875,7.3125 C4.39583438,6.93749812 4.69791469,6.68750062 5.09375,6.5625 C5.48958531,6.43749938 5.87499813,6.47916563 6.25,6.6875 C7.04167063,7.14583563 7.25000188,7.7916625 6.875,8.625 C7.00000063,8.87500125 7.12499938,9.06249938 7.25,9.1875 L7.625,9.375 Z M28.5,16 C28.9166688,16 29.2812484,16.1562484 29.59375,16.46875 C29.9062516,16.7812516 30.0416669,17.1666644 30,17.625 C29.9166663,18.4583375 29.4583375,18.9166662 28.625,19 C27.9166631,19.0833338 27.4166681,18.7708369 27.125,18.0625 C26.9999994,17.729165 26.7291688,17.5208338 26.3125,17.4375 C26.2708331,17.4375 26.2083338,17.4270834 26.125,17.40625 C26.0416663,17.3854166 25.9791669,17.375 25.9375,17.375 C25.7708325,19.3333431 25.1666719,21.2083244 24.125,23 C25.0000044,23.66667 25.5624987,24.4166625 25.8125,25.25 C25.8541669,25.25 25.8958331,25.2708331 25.9375,25.3125 L26.125,25.5 C26.79167,26.2500038 26.75,26.95833 26,27.625 C25.25,28.29167 24.54167,28.2500038 23.875,27.5 C23.4583313,27.0416644 23.3541656,26.5416694 23.5625,26 C23.7291675,25.4999975 23.645835,25.1250013 23.3125,24.875 C23.2291663,24.8333331 23.1250006,24.7500006 23,24.625 C21.2083244,26.7500106 19.1250119,27.8749994 16.75,28 L16.75,14.5625 C18.3750081,14.4791663 19.8749931,13.9583381 21.25,13 C22.6250069,12.0416619 23.6666631,10.8541738 24.375,9.4375 C24.5416675,9.35416625 24.6666662,9.27083375 24.75,9.1875 L25.125,8.625 C24.75,7.7916625 24.9583294,7.14583563 25.75,6.6875 C26.7083381,6.22916437 27.3958313,6.4166625 27.8125,7.25 C28.2708356,8.20833813 28.0833375,8.89583125 27.25,9.3125 C27.0833325,9.39583375 26.9583338,9.5208325 26.875,9.6875 C26.6249987,10.1041687 26.3750013,10.4166656 26.125,10.625 C25.9999994,10.7500006 25.6875025,10.979165 25.1875,11.3125 C25.6875025,12.6875069 25.9583331,14.04166 26,15.375 C26.4583356,15.375 26.9791638,15.4583325 27.5625,15.625 L28.3125,16 L28.5,16 Z" id="↳-🎨-Fill" fill="#181C21"></path>
    </g>
</svg>