<?xml version="1.0" encoding="UTF-8"?>
<svg width="32px" height="32px" viewBox="0 0 32 32" version="1.1" xmlns="http://www.w3.org/2000/svg" xmlns:xlink="http://www.w3.org/1999/xlink">
    <!-- Generator: Sketch 63.1 (92452) - https://sketch.com -->
    <title>Icons/ion-md-appstore</title>
    <desc>Created with Sketch.</desc>
    <g id="Icons/ion-md-appstore" stroke="none" stroke-width="1" fill="none" fill-rule="evenodd" fill-opacity="0.9">
        <path d="M29,9.5 C28.666665,13.4583531 28.4270841,17.0624838 28.28125,20.3125 C28.1354159,23.5625163 28.0833331,25.8333269 28.125,27.125 L28.1875,29 L3.8125,29 C4.06250125,24.99998 3.79167063,18.500045 3,9.5 L9.5,9.5 C9.5,7.70832438 10.1354103,6.17708969 11.40625,4.90625 C12.6770897,3.63541031 14.2083244,3 16,3 C17.7916756,3 19.3229103,3.63541031 20.59375,4.90625 C21.8645897,6.17708969 22.5,7.70832438 22.5,9.5 L29,9.5 Z M19.4375,6.0625 C18.4791619,5.10416188 17.33334,4.625 16,4.625 C14.66666,4.625 13.5208381,5.10416188 12.5625,6.0625 C11.6041619,7.02083813 11.125,8.16666 11.125,9.5 L20.875,9.5 C20.875,8.16666 20.3958381,7.02083813 19.4375,6.0625 Z M12.75,24.875 L21.6875,19.5625 L12.75,14.3125 L12.75,24.875 Z" id="↳-🎨-Fill" fill="#181C21"></path>
    </g>
</svg>