<?xml version="1.0" encoding="UTF-8"?>
<svg width="32px" height="32px" viewBox="0 0 32 32" version="1.1" xmlns="http://www.w3.org/2000/svg" xmlns:xlink="http://www.w3.org/1999/xlink">
    <!-- Generator: Sketch 63.1 (92452) - https://sketch.com -->
    <title>Icons/ion-ios-body</title>
    <desc>Created with Sketch.</desc>
    <g id="Icons/ion-ios-body" stroke="none" stroke-width="1" fill="none" fill-rule="evenodd" fill-opacity="0.9">
        <path d="M13.875,7.125 C13.2916638,6.54166375 13,5.8333375 13,5 C13,4.1666625 13.2916638,3.45833625 13.875,2.875 C14.4583362,2.29166375 15.1666625,2 16,2 C16.8333375,2 17.5416638,2.29166375 18.125,2.875 C18.7083362,3.45833625 19,4.1666625 19,5 C19,5.8333375 18.7083362,6.54166375 18.125,7.125 C17.5416638,7.70833625 16.8333375,8 16,8 C15.1666625,8 14.4583362,7.70833625 13.875,7.125 Z M26.5,9 C26.9166687,9 27.2708319,9.14583187 27.5625,9.4375 C27.8541681,9.72916812 28,10.0833312 28,10.5 C28,10.9166687 27.8541681,11.2708319 27.5625,11.5625 C27.2708319,11.8541681 26.9166687,12 26.5,12 L20.375,12 C19.8333306,12.0833337 19.4583344,12.3749975 19.25,12.875 C19.0416656,13.4166694 19.0624987,14.5 19.3125,16.125 L19.5625,17.4375 L19.5625,17.5 L21.4375,28.25 C21.5208338,28.6666687 21.4479178,29.0520816 21.21875,29.40625 C20.9895822,29.7604184 20.6666687,29.9583331 20.25,30 C19.8333313,30.0833337 19.4479184,30 19.09375,29.75 C18.7395816,29.5 18.5416669,29.1666687 18.5,28.75 L17.1875,21.25 C16.9374987,19.91666 16.5625025,19.25 16.0625,19.25 L16,19.25 C15.7916656,19.25 15.5833344,19.416665 15.375,19.75 C15.1666656,20.083335 15.0208338,20.416665 14.9375,20.75 L14.8125,21.25 L13.5,28.75 C13.4583331,29.1666687 13.2604184,29.5 12.90625,29.75 C12.5520816,30 12.1666688,30.0833337 11.75,30 C11.3333313,29.9583331 11.0104178,29.7604184 10.78125,29.40625 C10.5520822,29.0520816 10.4791663,28.6666687 10.5625,28.25 L12.4375,17.5 L12.4375,17.4375 L12.6875,16.125 C12.9375013,14.5 12.9583344,13.4166694 12.75,12.875 C12.5416656,12.3749975 12.1666694,12.0833337 11.625,12 L5.5,12 C5.08333125,12 4.72916813,11.8541681 4.4375,11.5625 C4.14583187,11.2708319 4,10.9166687 4,10.5 C4,10.0833312 4.14583187,9.72916812 4.4375,9.4375 C4.72916813,9.14583187 5.08333125,9 5.5,9 L26.5,9 Z" id="↳-🎨-Fill" fill="#181C21"></path>
    </g>
</svg>