<?xml version="1.0" encoding="UTF-8"?>
<svg width="32px" height="32px" viewBox="0 0 32 32" version="1.1" xmlns="http://www.w3.org/2000/svg" xmlns:xlink="http://www.w3.org/1999/xlink">
    <!-- Generator: Sketch 63.1 (92452) - https://sketch.com -->
    <title>Icons/ion-logo-whatsapp</title>
    <desc>Created with Sketch.</desc>
    <g id="Icons/ion-logo-whatsapp" stroke="none" stroke-width="1" fill="none" fill-rule="evenodd" fill-opacity="0.9">
        <path d="M6.5,6 C9.20834688,3.33332 12.4583144,2 16.25,2 C20.0416856,2 23.2812366,3.32290344 25.96875,5.96875 C28.6562634,8.61459656 30,11.8333144 30,15.625 C30,19.4166856 28.6562634,22.6354034 25.96875,25.28125 C23.2812366,27.9270966 20.0416856,29.25 16.25,29.25 C13.9583219,29.25 11.7500106,28.6875056 9.625,27.5625 L2,30 L4.5,22.6875 C3.16666,20.4791556 2.5,18.1250125 2.5,15.625 C2.5,11.8333144 3.83332,8.62501312 6.5,6 Z M23.0625,20.8125 C23.395835,19.9791625 23.5000006,19.4375 23.375,19.1875 C23.3333331,19.1041662 23.1041687,18.9583344 22.6875,18.75 C22.6041662,18.7083331 22.22917,18.5000019 21.5625,18.125 C20.89583,17.7499981 20.5000006,17.5416669 20.375,17.5 C20.041665,17.3749994 19.7708344,17.4375 19.5625,17.6875 C19.4791662,17.7708338 19.2812516,17.9895816 18.96875,18.34375 C18.6562484,18.6979184 18.4583338,18.9166662 18.375,19 C18.2083325,19.2083344 17.958335,19.2291675 17.625,19.0625 C16.5416612,18.5208306 15.6250038,17.8958369 14.875,17.1875 C14.0416625,16.3958294 13.4166687,15.5833375 13,14.75 C12.8749994,14.4999987 12.9374987,14.2500013 13.1875,14 L13.75,13.4375 C13.8750006,13.3124994 13.9999994,13.1250013 14.125,12.875 C14.2083338,12.7083325 14.2083338,12.5000013 14.125,12.25 C14.125,12.2083331 14.0520841,12.020835 13.90625,11.6875 C13.7604159,11.354165 13.6145841,10.9791687 13.46875,10.5625 C13.3229159,10.1458313 13.2083337,9.83333437 13.125,9.625 C12.9583325,9.16666437 12.6875019,8.9375 12.3125,8.9375 L11.6875,8.9375 C11.354165,8.9375 11.0416681,9.08333187 10.75,9.375 C9.87499563,10.2500044 9.41666688,11.2083281 9.375,12.25 C9.33333312,13.4583394 9.77082875,14.6666606 10.6875,15.875 L10.875,16.125 C11.0000006,16.3333344 11.1458325,16.5624987 11.3125,16.8125 C11.4791675,17.0625013 11.6874987,17.354165 11.9375,17.6875 C12.1875013,18.020835 12.479165,18.354165 12.8125,18.6875 C13.145835,19.020835 13.4895816,19.354165 13.84375,19.6875 C14.1979184,20.020835 14.6145809,20.3333319 15.09375,20.625 C15.5729191,20.9166681 16.0416644,21.1666656 16.5,21.375 C18.0000075,22.0000031 19.0624969,22.3541662 19.6875,22.4375 C20.3125031,22.5208338 20.6458331,22.5000006 20.6875,22.375 C21.0625019,22.3333331 21.5208306,22.1562516 22.0625,21.84375 C22.6041694,21.5312484 22.9374994,21.1875019 23.0625,20.8125 Z" id="↳-🎨-Fill" fill="#181C21"></path>
    </g>
</svg>