<?xml version="1.0" encoding="UTF-8"?>
<svg width="32px" height="32px" viewBox="0 0 32 32" version="1.1" xmlns="http://www.w3.org/2000/svg" xmlns:xlink="http://www.w3.org/1999/xlink">
    <!-- Generator: Sketch 63.1 (92452) - https://sketch.com -->
    <title>Icons/ion-ios-arrow-dropleft</title>
    <desc>Created with Sketch.</desc>
    <g id="Icons/ion-ios-arrow-dropleft" stroke="none" stroke-width="1" fill="none" fill-rule="evenodd" fill-opacity="0.9">
        <path d="M17.125,9.25 C17.7083362,8.66666375 18.2708306,8.66666375 18.8125,9.25 C19.3541694,9.83333625 19.3541694,10.3958306 18.8125,10.9375 L13.75,16 L18.6875,21.0625 C19.2291694,21.6041694 19.2291694,22.1666638 18.6875,22.75 C18.4374987,23.0000013 18.1666681,23.125 17.875,23.125 C17.541665,23.125 17.2500013,23.0000013 17,22.75 L11.125,16.875 C10.6249975,16.2916637 10.6458306,15.7291694 11.1875,15.1875 L17.125,9.25 Z M6.8125,6.8125 C9.35417938,4.27082062 12.4166488,3 16,3 C19.5833512,3 22.6458206,4.27082062 25.1875,6.8125 C27.7291794,9.35417938 29,12.4166488 29,16 C29,19.5833512 27.7291794,22.6458206 25.1875,25.1875 C22.6458206,27.7291794 19.5833512,29 16,29 C12.4166488,29 9.35417938,27.7291794 6.8125,25.1875 C4.27082063,22.6458206 3,19.5833512 3,16 C3,12.4166488 4.27082063,9.35417938 6.8125,6.8125 Z M16,27 C19.000015,27 21.5833225,25.9166775 23.75,23.75 C25.9166775,21.5833225 27,19.000015 27,16 C27,12.999985 25.9166775,10.4166775 23.75,8.25 C21.5833225,6.0833225 19.000015,5 16,5 C12.999985,5 10.4166775,6.0833225 8.25,8.25 C6.0833225,10.4166775 5,12.999985 5,16 C5,19.000015 6.0833225,21.5833225 8.25,23.75 C10.4166775,25.9166775 12.999985,27 16,27 Z" id="↳-🎨-Fill" fill="#181C21"></path>
    </g>
</svg>