<?xml version="1.0" encoding="UTF-8"?>
<svg width="32px" height="32px" viewBox="0 0 32 32" version="1.1" xmlns="http://www.w3.org/2000/svg" xmlns:xlink="http://www.w3.org/1999/xlink">
    <!-- Generator: Sketch 63.1 (92452) - https://sketch.com -->
    <title>Icons/ion-ios-save</title>
    <desc>Created with Sketch.</desc>
    <g id="Icons/ion-ios-save" stroke="none" stroke-width="1" fill="none" fill-rule="evenodd" fill-opacity="0.9">
        <path d="M17,4 C17.333335,4 17.5,4.166665 17.5,4.5 L17.5,9 C17.5,9.333335 17.333335,9.5 17,9.5 L16.25,9.5 C16.1249994,9.5 15.9687509,9.44791719 15.78125,9.34375 C15.5937491,9.23958281 15.5,9.12500062 15.5,9 L15.5,4.5 C15.5,4.166665 15.666665,4 16,4 L17,4 Z M27.125,8.125 C27.7083363,8.70833625 28,9.4166625 28,10.25 L28,26 C28,26.5833362 27.8125019,27.0624981 27.4375,27.4375 C27.0624981,27.8125019 26.5833362,28 26,28 L6,28 C5.41666375,28 4.93750187,27.8125019 4.5625,27.4375 C4.18749813,27.0624981 4,26.5833362 4,26 L4,6 C4,5.41666375 4.18749813,4.93750188 4.5625,4.5625 C4.93750187,4.18749812 5.41666375,4 6,4 L8,4 C8.66667,4 9,4.33333 9,5 L9,10 C9,10.66667 9.33333,11 10,11 L18,11 C18.66667,11 19,10.66667 19,10 L19,5 C19,4.33333 19.33333,4 20,4 L21.75,4 C22.5833375,4 23.2916637,4.29166375 23.875,4.875 L27.125,8.125 Z M20.125,25 L20.125,19 C20.125,18.33333 19.7500038,18 19,18 L9,18 C8.24999625,18 7.875,18.33333 7.875,19 L7.875,25 C7.875,25.66667 8.24999625,26 9,26 L19,26 C19.7500038,26 20.125,25.66667 20.125,25 Z" id="↳-🎨-Fill" fill="#181C21"></path>
    </g>
</svg>