<?xml version="1.0" encoding="UTF-8"?>
<svg width="32px" height="32px" viewBox="0 0 32 32" version="1.1" xmlns="http://www.w3.org/2000/svg" xmlns:xlink="http://www.w3.org/1999/xlink">
    <!-- Generator: Sketch 63.1 (92452) - https://sketch.com -->
    <title>Icons/ion-md-heart-dislike</title>
    <desc>Created with Sketch.</desc>
    <g id="Icons/ion-md-heart-dislike" stroke="none" stroke-width="1" fill="none" fill-rule="evenodd" fill-opacity="0.9">
        <path d="M3.25,4.8125 L4.75,3.25 L28.75,27.25 L27.25,28.75 L21.5,23 C20.9583306,23.5000025 19.7500094,24.6041581 17.875,26.3125 L16,28 L14.125,26.3125 C11.9583225,24.31249 10.3958381,22.8541713 9.4375,21.9375 C8.47916187,21.0208287 7.38542281,19.8541738 6.15625,18.4375 C4.92707719,17.0208262 4.09375219,15.7604222 3.65625,14.65625 C3.21874781,13.5520778 3,12.3958394 3,11.1875 C3,9.31249062 3.60416063,7.70834 4.8125,6.375 L3.25,4.8125 Z M29,11.1875 C29,13.85418 27.500015,16.7916506 24.5,20 L8.625,4.125 C8.958335,4.04166625 9.45833,4 10.125,4 C12.5000119,4 14.4583256,4.9166575 16,6.75 C17.5416744,4.9166575 19.4999881,4 21.875,4 C23.87501,4 25.5624931,4.68749312 26.9375,6.0625 C28.3125069,7.43750688 29,9.14582312 29,11.1875 Z" id="↳-🎨-Fill" fill="#181C21"></path>
    </g>
</svg>