<?xml version="1.0" encoding="UTF-8"?>
<svg width="32px" height="32px" viewBox="0 0 32 32" version="1.1" xmlns="http://www.w3.org/2000/svg" xmlns:xlink="http://www.w3.org/1999/xlink">
    <!-- Generator: Sketch 63.1 (92452) - https://sketch.com -->
    <title>Icons/ion-ios-browsers</title>
    <desc>Created with Sketch.</desc>
    <g id="Icons/ion-ios-browsers" stroke="none" stroke-width="1" fill="none" fill-rule="evenodd" fill-opacity="0.9">
        <path d="M3,11.3125 C3,10.6041631 3.2499975,10.0104191 3.75,9.53125 C4.2500025,9.05208094 4.83333,8.8125 5.5,8.8125 L20.6875,8.8125 C21.3958369,8.8125 21.9895809,9.05208094 22.46875,9.53125 C22.9479191,10.0104191 23.1875,10.6041631 23.1875,11.3125 L23.1875,26.5 C23.1875,27.16667 22.9479191,27.7499975 22.46875,28.25 C21.9895809,28.7500025 21.3958369,29 20.6875,29 L5.5,29 C4.83333,29 4.2500025,28.7500025 3.75,28.25 C3.2499975,27.7499975 3,27.16667 3,26.5 L3,11.3125 Z M8.8125,5.5 C8.8125,4.83333 9.05208094,4.2500025 9.53125,3.75 C10.0104191,3.2499975 10.6041631,3 11.3125,3 L26.5,3 C27.16667,3 27.7499975,3.2499975 28.25,3.75 C28.7500025,4.2500025 29,4.83333 29,5.5 L29,20.6875 C29,21.3958369 28.7500025,21.9895809 28.25,22.46875 C27.7499975,22.9479191 27.16667,23.1875 26.5,23.1875 L24.75,23.1875 C24.5833325,23.1875 24.5,23.1041675 24.5,22.9375 L24.5,10.5 C24.5,9.6666625 24.2083362,8.95833625 23.625,8.375 C23.0416638,7.79166375 22.3333375,7.5 21.5,7.5 L9.0625,7.5 C8.8958325,7.5 8.8125,7.4166675 8.8125,7.25 L8.8125,5.5 Z" id="↳-🎨-Fill" fill="#181C21"></path>
    </g>
</svg>