<?xml version="1.0" encoding="UTF-8"?>
<svg width="32px" height="32px" viewBox="0 0 32 32" version="1.1" xmlns="http://www.w3.org/2000/svg" xmlns:xlink="http://www.w3.org/1999/xlink">
    <!-- Generator: Sketch 63.1 (92452) - https://sketch.com -->
    <title>Icons/ion-ios-calendar</title>
    <desc>Created with Sketch.</desc>
    <g id="Icons/ion-ios-calendar" stroke="none" stroke-width="1" fill="none" fill-rule="evenodd" fill-opacity="0.9">
        <path d="M26.5,6 C27.16667,6 27.7499975,6.2499975 28.25,6.75 C28.7500025,7.2500025 29,7.83333 29,8.5 L29,25.5 C29,26.16667 28.7500025,26.7499975 28.25,27.25 C27.7499975,27.7500025 27.16667,28 26.5,28 L5.5,28 C4.83333,28 4.2500025,27.7500025 3.75,27.25 C3.2499975,26.7499975 3,26.16667 3,25.5 L3,8.5 C3,7.83333 3.2499975,7.2500025 3.75,6.75 C4.2500025,6.2499975 4.83333,6 5.5,6 L8,6 L8,7.5 C8,7.833335 8.166665,8 8.5,8 L9.5,8 C9.833335,8 10,7.833335 10,7.5 L10,6 L22,6 L22,7.5 C22,7.833335 22.166665,8 22.5,8 L23.5,8 C23.833335,8 24,7.833335 24,7.5 L24,6 L26.5,6 Z M27,24.75 L27,13.5 C27,13.166665 26.833335,13 26.5,13 L5.5,13 C5.166665,13 5,13.166665 5,13.5 L5,24.75 C5,25.083335 5.12499875,25.3749987 5.375,25.625 C5.62500125,25.8750013 5.916665,26 6.25,26 L25.75,26 C26.083335,26 26.3749987,25.8750013 26.625,25.625 C26.8750013,25.3749987 27,25.083335 27,24.75 Z M10,4.5 L10,6 L8,6 L8,4.5 C8,4.166665 8.166665,4 8.5,4 L9.5,4 C9.833335,4 10,4.166665 10,4.5 Z M24,4.5 L24,6 L22,6 L22,4.5 C22,4.166665 22.166665,4 22.5,4 L23.5,4 C23.833335,4 24,4.166665 24,4.5 Z" id="↳-🎨-Fill" fill="#181C21"></path>
    </g>
</svg>