<?xml version="1.0" encoding="UTF-8"?>
<svg width="32px" height="32px" viewBox="0 0 32 32" version="1.1" xmlns="http://www.w3.org/2000/svg" xmlns:xlink="http://www.w3.org/1999/xlink">
    <!-- Generator: Sketch 63.1 (92452) - https://sketch.com -->
    <title>Icons/ion-md-cart</title>
    <desc>Created with Sketch.</desc>
    <g id="Icons/ion-md-cart" stroke="none" stroke-width="1" fill="none" fill-rule="evenodd" fill-opacity="0.9">
        <path d="M8.75,24.375 C9.29166937,23.8749975 9.91666312,23.625 10.625,23.625 C11.3333369,23.625 11.9374975,23.8749975 12.4375,24.375 C12.9375025,24.8750025 13.1875,25.4791631 13.1875,26.1875 C13.1875,26.8958369 12.9375025,27.5104141 12.4375,28.03125 C11.9374975,28.5520859 11.3333369,28.8125 10.625,28.8125 C9.91666312,28.8125 9.30208594,28.5520859 8.78125,28.03125 C8.26041406,27.5104141 8,26.8958369 8,26.1875 C8,25.4791631 8.2499975,24.8750025 8.75,24.375 Z M3,3.1875 L7.25,3.1875 L8.4375,5.8125 L27.6875,5.8125 C28.020835,5.8125 28.3229153,5.93749875 28.59375,6.1875 C28.8645847,6.43750125 29,6.729165 29,7.0625 C29,7.31250125 28.9583338,7.5208325 28.875,7.6875 L24.1875,15.75 C23.7291644,16.6666713 22.9791719,17.125 21.9375,17.125 L12.25,17.125 L10.9375,19.125 C10.8541663,19.3333344 10.8125,19.4583331 10.8125,19.5 C10.8125,19.7083344 10.9166656,19.8125 11.125,19.8125 L26,19.8125 L26,22.3125 L10.8125,22.3125 C9.9791625,22.3125 9.30208594,22.0833356 8.78125,21.625 C8.26041406,21.1666644 8,20.5208375 8,19.6875 C8,19.1875 8.10416563,18.770835 8.3125,18.4375 L10.25,15.25 L5.625,5.8125 L3,5.8125 L3,3.1875 Z M21.5625,24.375 C22.0625025,23.8749975 22.6666631,23.625 23.375,23.625 C24.0833369,23.625 24.6979141,23.8749975 25.21875,24.375 C25.7395859,24.8750025 26,25.4791631 26,26.1875 C26,26.8958369 25.7395859,27.5104141 25.21875,28.03125 C24.6979141,28.5520859 24.0833369,28.8125 23.375,28.8125 C22.6666631,28.8125 22.0625025,28.5520859 21.5625,28.03125 C21.0624975,27.5104141 20.8125,26.8958369 20.8125,26.1875 C20.8125,25.4791631 21.0624975,24.8750025 21.5625,24.375 Z" id="↳-🎨-Fill" fill="#181C21"></path>
    </g>
</svg>