<?xml version="1.0" encoding="UTF-8"?>
<svg width="32px" height="32px" viewBox="0 0 32 32" version="1.1" xmlns="http://www.w3.org/2000/svg" xmlns:xlink="http://www.w3.org/1999/xlink">
    <!-- Generator: Sketch 63.1 (92452) - https://sketch.com -->
    <title>Icons/ion-ios-man</title>
    <desc>Created with Sketch.</desc>
    <g id="Icons/ion-ios-man" stroke="none" stroke-width="1" fill="none" fill-rule="evenodd" fill-opacity="0.9">
        <path d="M16,6.6875 C15.2083294,6.6875 14.5312528,6.40625281 13.96875,5.84375 C13.4062472,5.28124719 13.125,4.60417062 13.125,3.8125 C13.125,3.02082937 13.4062472,2.35416937 13.96875,1.8125 C14.5312528,1.27083063 15.2083294,1 16,1 C16.7916706,1 17.4583306,1.27083063 18,1.8125 C18.5416694,2.35416937 18.8125,3.02082937 18.8125,3.8125 C18.8125,4.6458375 18.5416694,5.3124975 18,5.8125 C17.4999975,6.39583625 16.8333375,6.6875 16,6.6875 Z M15,30.5 C14.666665,30.833335 14.2708356,31 13.8125,31 C13.3541644,31 12.958335,30.833335 12.625,30.5 C12.291665,30.166665 12.125,29.7083363 12.125,29.125 L12.1875,11.75 L11.5625,11.75 L11.5625,18.3125 C11.5625,18.8125025 11.4375013,19.1875 11.1875,19.4375 C10.8958319,19.7291681 10.583335,19.875 10.25,19.875 C9.875,19.875 9.54166813,19.7291681 9.25,19.4375 C8.99999875,19.1875 8.875,18.8125025 8.875,18.3125 L8.875,10.6875 C8.875,9.81249563 9.16666375,9.02083688 9.75,8.3125 C10.375,7.56249625 11.187495,7.1875 12.1875,7.1875 L19.8125,7.1875 C20.812505,7.1875 21.6249969,7.56249625 22.25,8.3125 C22.8333363,9.02083688 23.125,9.81249563 23.125,10.6875 L23.125,18.3125 C23.125,18.8125025 22.9791681,19.1875 22.6875,19.4375 C22.3958319,19.7291681 22.083335,19.875 21.75,19.875 C21.375,19.875 21.0416681,19.7291681 20.75,19.4375 C20.4999987,19.2291656 20.375,18.8541694 20.375,18.3125 L20.375,11.75 L19.8125,11.75 L19.8125,29.125 C19.8125,29.7083363 19.6354184,30.166665 19.28125,30.5 C18.9270816,30.833335 18.5208356,31 18.0625,31 C17.6041644,31 17.2187516,30.833335 16.90625,30.5 C16.5937484,30.166665 16.4166669,29.7083363 16.375,29.125 L16.375,20.3125 L15.625,20.3125 L15.625,29.125 C15.5833331,29.7083363 15.375,30.166665 15,30.5 Z" id="↳-🎨-Fill" fill="#181C21"></path>
    </g>
</svg>