<?xml version="1.0" encoding="UTF-8"?>
<svg width="32px" height="32px" viewBox="0 0 32 32" version="1.1" xmlns="http://www.w3.org/2000/svg" xmlns:xlink="http://www.w3.org/1999/xlink">
    <!-- Generator: Sketch 63.1 (92452) - https://sketch.com -->
    <title>Icons/ion-ios-analytics</title>
    <desc>Created with Sketch.</desc>
    <g id="Icons/ion-ios-analytics" stroke="none" stroke-width="1" fill="none" fill-rule="evenodd" fill-opacity="0.9">
        <path d="M6.8125,6.8125 C9.35417938,4.27082062 12.4166488,3 16,3 C19.5833512,3 22.6458206,4.27082062 25.1875,6.8125 C27.7291794,9.35417938 29,12.4166488 29,16 C29,19.5833512 27.7291794,22.6458206 25.1875,25.1875 C22.6458206,27.7291794 19.5833512,29 16,29 C12.4166488,29 9.35417938,27.7291794 6.8125,25.1875 C4.27082063,22.6458206 3,19.5833512 3,16 C3,12.4166488 4.27082063,9.35417938 6.8125,6.8125 Z M4.75,16 C4.75,16.75 4.81249937,17.45833 4.9375,18.125 C5.72917063,18.79167 6.49999625,19.0625006 7.25,18.9375 C7.83333625,18.8541662 8.624995,18.0000081 9.625,16.375 C9.958335,15.8749975 10.1874994,15.5416675 10.3125,15.375 C11.1875044,14.3333281 12.124995,13.8958325 13.125,14.0625 C13.8333369,14.1458338 14.4687472,14.4895803 15.03125,15.09375 C15.5937528,15.6979197 16.041665,16.3749962 16.375,17.125 C16.8333356,18.25 17.5208287,18.8541662 18.4375,18.9375 C19.437505,19.0208338 20.3124963,18.4166731 21.0625,17.125 C21.1041669,17.0833331 21.1562497,17.0104172 21.21875,16.90625 C21.2812503,16.8020828 21.3125,16.7291669 21.3125,16.6875 C22.2708381,14.8958244 23.3333275,14 24.5,14 C25.4166713,14 26.3333287,14.499995 27.25,15.5 C27.1249994,12.6249856 26.0208438,10.1458438 23.9375,8.0625 C21.7291556,5.85415562 19.0833487,4.75 16,4.75 C12.9166513,4.75 10.2708444,5.85415562 8.0625,8.0625 C5.85415562,10.2708444 4.75,12.9166513 4.75,16 Z" id="↳-🎨-Fill" fill="#181C21"></path>
    </g>
</svg>