<?xml version="1.0" encoding="UTF-8"?>
<svg width="32px" height="32px" viewBox="0 0 32 32" version="1.1" xmlns="http://www.w3.org/2000/svg" xmlns:xlink="http://www.w3.org/1999/xlink">
    <!-- Generator: Sketch 63.1 (92452) - https://sketch.com -->
    <title>Icons/ion-logo-nodejs</title>
    <desc>Created with Sketch.</desc>
    <g id="Icons/ion-logo-nodejs" stroke="none" stroke-width="1" fill="none" fill-rule="evenodd" fill-opacity="0.9">
        <path d="M17.0625,29.6875 C16.729165,29.8958344 16.3750019,30 16,30 C15.6249981,30 15.270835,29.8958344 14.9375,29.6875 L11.625,27.6875 C11.291665,27.4791656 11.2708319,27.3333338 11.5625,27.25 C12.1458363,27.0416656 12.6666644,26.7916681 13.125,26.5 C13.2083337,26.4166663 13.2916662,26.4166663 13.375,26.5 L15.8125,27.9374984 C15.8541669,27.9791669 15.9062497,28 15.96875,28 C16.0312503,28 16.0833331,27.9791669 16.125,27.9374984 L25.875,22.1875 C25.9583338,22.1041662 26,22.0208338 26,21.9374984 L26,10.25 C26,10.0833325 25.9583338,9.97916688 25.875,9.93749844 L16.125,4.0625 C16.0416662,3.97916625 15.9583338,3.97916625 15.875,4.0625 L6.1875,9.93749844 C6.06249937,9.97916688 6,10.0833325 6,10.25 L6,21.9374984 C6,22.0625006 6.04166625,22.1458331 6.125,22.1875 L8.625,23.6875 C9.37500375,24.020835 9.95833125,24.0729178 10.375,23.84375 C10.7916687,23.6145822 11,23.2500025 11,22.75 L11,11.3125 C11,11.1041656 11.1041656,11 11.3125,11 L12.6875,11 C12.8958344,11 13,11.1041656 13,11.3125 L13,22.75 C13,23.7916719 12.7291694,24.5937472 12.1875,25.15625 C11.6458306,25.7187528 10.8958381,26 9.9375,26 C9.31249688,26 8.54167125,25.7708356 7.625,25.3125 L5.0625,23.8125 C4.35416312,23.3958313 4,22.7708375 4,21.9374984 L4,10.0625 C4,9.2291625 4.35416312,8.60416875 5.0625,8.1875 L14.9375,2.25 C15.6458369,1.83333125 16.3541631,1.83333125 17.0625,2.25 L26.9375,8.1875 C27.6458369,8.60416875 28,9.2291625 28,10.0625 L28,21.9374984 C28,22.7708375 27.6458369,23.3958313 26.9375,23.8125 L17.0625,29.6875 Z M19.0625,22 C17.1874906,22 15.8437541,21.6458369 15.03125,20.9375 C14.2187459,20.2291631 13.8125,19.3541719 13.8125,18.3125 C13.8125,18.1041656 13.8958325,18 14.0625,18 L15.375,18 C15.5833344,18 15.6875,18.0833325 15.6875,18.25 C15.7708338,18.9583369 16.0624975,19.4583319 16.5625,19.75 C17.0625025,20.0416681 17.8958275,20.1875 19.0625,20.1875 C21.0208431,20.1875 22,19.5833394 22,18.375 C22,17.9583313 21.8020853,17.6458344 21.40625,17.4375 C21.0104147,17.2291656 20.0625075,17.0625006 18.5625,16.9375 C17.1041594,16.8124994 16.0000038,16.5104191 15.25,16.03125 C14.4999962,15.5520809 14.125,14.7916719 14.125,13.75 C14.125,12.7083281 14.5312459,11.9062528 15.34375,11.34375 C16.1562541,10.7812472 17.2708262,10.5 18.6875,10.5 C21.8125156,10.5 23.4583325,11.5624894 23.625,13.6875 C23.625,13.7291669 23.5833338,13.7916662 23.5,13.875 C23.4166662,13.9583338 23.3541669,14 23.3125,14 L22.0625,14 C21.8541656,14 21.75,13.9166675 21.75,13.75 C21.5416656,12.7916619 20.5208425,12.3125 18.6875,12.3125 C16.9791581,12.3125 16.125,12.7708287 16.125,13.6875 C16.125,14.0625019 16.3229147,14.3437491 16.71875,14.53125 C17.1145853,14.7187509 18.0416594,14.9166656 19.5,15.125 C21.166675,15.3750013 22.33333,15.7083313 23,16.125 C23.66667,16.5416687 24,17.2708281 24,18.3125 C24,19.4375056 23.5625044,20.33333 22.6875,21 C21.8125,21.66667 20.6041744,22 19.0625,22 Z" id="↳-🎨-Fill" fill="#181C21"></path>
    </g>
</svg>