<?xml version="1.0" encoding="UTF-8"?>
<svg width="32px" height="32px" viewBox="0 0 32 32" version="1.1" xmlns="http://www.w3.org/2000/svg" xmlns:xlink="http://www.w3.org/1999/xlink">
    <!-- Generator: Sketch 63.1 (92452) - https://sketch.com -->
    <title>Icons/ion-md-contacts</title>
    <desc>Created with Sketch.</desc>
    <g id="Icons/ion-md-contacts" stroke="none" stroke-width="1" fill="none" fill-rule="evenodd" fill-opacity="0.9">
        <path d="M14.9375,21.5 C16.3125069,21.9166687 17.4687453,22.7395772 18.40625,23.96875 C19.3437547,25.1979228 20,26.5416594 20.375,28 L2,28 C2.37500187,26.5416594 3.03124531,25.1979228 3.96875,23.96875 C4.90625469,22.7395772 6.06249312,21.9166687 7.4375,21.5 C8.64583937,22.16667 9.89582688,22.5 11.1875,22.5 C12.4791731,22.5 13.7291606,22.16667 14.9375,21.5 Z M6.5,9.4375 C7.83334,8.14582688 9.39582438,7.5 11.1875,7.5 C12.9791756,7.5 14.5312434,8.14582688 15.84375,9.4375 C17.1562566,10.7291731 17.8125,12.2916575 17.8125,14.125 C17.8125,15.9583425 17.1562566,17.5208269 15.84375,18.8125 C14.5312434,20.1041731 12.9791756,20.75 11.1875,20.75 C9.39582438,20.75 7.84375656,20.1041731 6.53125,18.8125 C5.21874344,17.5208269 4.5625,15.9583425 4.5625,14.125 C4.5625,12.2916575 5.20832688,10.7291731 6.5,9.4375 Z M8.375,18.3125 C9.2083375,18.8958363 10.1458281,19.1875 11.1875,19.1875 C12.2291719,19.1875 13.1666625,18.8854197 14,18.28125 C14.8333375,17.6770803 15.4374981,16.9166713 15.8125,16 L6.5625,16 C6.93750187,16.9166713 7.5416625,17.6874969 8.375,18.3125 Z M20.1875,24 C19.1041613,22.333325 17.8541738,21.2291694 16.4375,20.6875 C17.0625031,20.1874975 17.6458306,19.4583381 18.1875,18.5 C19.0625044,18.833335 19.9375,19 20.8125,19 C22.1041731,19 23.3541606,18.66667 24.5625,18 C27.3541806,18.8333375 29.1666625,20.8333175 30,24 L20.1875,24 Z M19.1875,12.5 C18.6458306,10.0416544 17.3333438,8.2291725 15.25,7.0625 C16.58334,5.02082312 18.4374881,4 20.8125,4 C22.6041756,4 24.1562434,4.64582687 25.46875,5.9375 C26.7812566,7.22917312 27.4375,8.7916575 27.4375,10.625 C27.4375,12.4583425 26.7812566,14.0208269 25.46875,15.3125 C24.1562434,16.6041731 22.6041756,17.25 20.8125,17.25 C20.1874969,17.25 19.5208369,17.1458344 18.8125,16.9375 C19.0625013,16.27083 19.2083331,15.7500019 19.25,15.375 C19.7083356,15.5416675 20.2291638,15.625 20.8125,15.625 C21.8541719,15.625 22.7916625,15.3333362 23.625,14.75 C24.4583375,14.1666638 25.0624981,13.4166713 25.4375,12.5 L19.1875,12.5 Z" id="↳-🎨-Fill" fill="#181C21"></path>
    </g>
</svg>