<?xml version="1.0" encoding="UTF-8"?>
<svg width="32px" height="32px" viewBox="0 0 32 32" version="1.1" xmlns="http://www.w3.org/2000/svg" xmlns:xlink="http://www.w3.org/1999/xlink">
    <!-- Generator: Sketch 63.1 (92452) - https://sketch.com -->
    <title>Icons/ion-md-log-in</title>
    <desc>Created with Sketch.</desc>
    <g id="Icons/ion-md-log-in" stroke="none" stroke-width="1" fill="none" fill-rule="evenodd" fill-opacity="0.9">
        <path d="M16,3 C19.5833512,3 22.6458206,4.27082062 25.1875,6.8125 C27.7291794,9.35417938 29,12.4166488 29,16 C29,19.5833512 27.7291794,22.6458206 25.1875,25.1875 C22.6458206,27.7291794 19.5833512,29 16,29 C13.2499862,29 10.7708444,28.2083413 8.5625,26.625 C6.3958225,25.0833256 4.83333813,23.0833456 3.875,20.625 L3.625,20 L6.5,20 L6.625,20.3125 C7.125,21.4375056 7.81249563,22.4374956 8.6875,23.3125 C10.68751,25.31251 13.1249856,26.3125 16,26.3125 C18.8750144,26.3125 21.31249,25.31251 23.3125,23.3125 C25.31251,21.31249 26.3125,18.8750144 26.3125,16 C26.3125,13.1249856 25.31251,10.68751 23.3125,8.6875 C21.31249,6.68749 18.8750144,5.6875 16,5.6875 C13.1249856,5.6875 10.68751,6.68749 8.6875,8.6875 C7.81249563,9.56250437 7.125,10.5624944 6.625,11.6875 L6.5,12 L3.625,12 L3.875,11.375 C4.83333813,8.91665438 6.3958225,6.91667437 8.5625,5.375 C10.8541781,3.79165875 13.33332,3 16,3 Z M3,17.3125 L3,14.6875 L14.875,14.6875 L12.0625,11.875 L14,10 L20,16 L14,22 L12.125,20.125 L14.875,17.3125 L3,17.3125 Z" id="↳-🎨-Fill" fill="#181C21"></path>
    </g>
</svg>