<?xml version="1.0" encoding="UTF-8"?>
<svg width="32px" height="32px" viewBox="0 0 32 32" version="1.1" xmlns="http://www.w3.org/2000/svg" xmlns:xlink="http://www.w3.org/1999/xlink">
    <!-- Generator: Sketch 63.1 (92452) - https://sketch.com -->
    <title>Icons/ion-ios-image</title>
    <desc>Created with Sketch.</desc>
    <g id="Icons/ion-ios-image" stroke="none" stroke-width="1" fill="none" fill-rule="evenodd" fill-opacity="0.9">
        <path d="M7.0625,19.5 C6.93749938,19.5 6.83333375,19.4479172 6.75,19.34375 C6.66666625,19.2395828 6.66666625,19.1250006 6.75,19 L12.6874997,9.375 C12.7291669,9.29166625 12.8124994,9.25 12.9375,9.25 C13.0625006,9.25 13.1666662,9.29166625 13.25,9.375 L19.25,19 C19.3333338,19.1250006 19.3333338,19.2395828 19.25,19.34375 C19.1666662,19.4479172 19.0625006,19.5 18.9375,19.5 L7.0625,19.5 Z M19.1875,15.875 C19.1458331,15.7499994 19.1458331,15.6250006 19.1875,15.5 L20.8125,13.5 C20.8541669,13.4166662 20.9374994,13.375 21.0625,13.375 C21.1875006,13.375 21.2916662,13.4166662 21.375,13.5 L25.25,19 C25.3333338,19.1250006 25.3333338,19.2395828 25.25,19.34375 C25.1666662,19.4479172 25.0625006,19.5 24.9375,19.5 L21.625,19.5 C21.4999994,19.5 21.4166669,19.4583338 21.375,19.375 L19.1875,15.875 Z M21.9375,10.5 C21.3541638,10.5833338 20.8645853,10.4166687 20.46875,10 C20.0729147,9.58333125 19.9166663,9.10416938 20,8.5625 C20.0416669,8.14583125 20.2083319,7.79166813 20.5,7.5 C20.7916681,7.20833187 21.1458313,7.04166688 21.5625,7 C22.1041694,6.91666625 22.5833313,7.08333125 23,7.5 C23.4166688,7.91666875 23.5833338,8.39583063 23.5,8.9375 C23.4583331,9.35416875 23.2916681,9.70833187 23,10 C22.7083319,10.2916681 22.3541688,10.4583331 21.9375,10.5 Z M27,3 C27.5833362,3 28.0624981,3.18749812 28.4375,3.5625 C28.8125019,3.93750188 29,4.41666375 29,5 L29,27 C29,27.5833362 28.8125019,28.0624981 28.4375,28.4375 C28.0624981,28.8125019 27.5833362,29 27,29 L5,29 C4.41666375,29 3.93750187,28.8125019 3.5625,28.4375 C3.18749813,28.0624981 3,27.5833362 3,27 L3,5 C3,4.41666375 3.18749813,3.93750188 3.5625,3.5625 C3.93750187,3.18749812 4.41666375,3 5,3 L27,3 Z M26.8125,20.5 L26.8125,5.6875 C26.8125,5.354165 26.645835,5.1875 26.3125,5.1875 L5.6875,5.1875 C5.354165,5.1875 5.1875,5.354165 5.1875,5.6875 L5.1875,20.5 C5.1875,20.833335 5.354165,21 5.6875,21 L26.3125,21 C26.645835,21 26.8125,20.833335 26.8125,20.5 Z" id="↳-🎨-Fill" fill="#181C21"></path>
    </g>
</svg>