<?xml version="1.0" encoding="UTF-8"?>
<svg width="32px" height="32px" viewBox="0 0 32 32" version="1.1" xmlns="http://www.w3.org/2000/svg" xmlns:xlink="http://www.w3.org/1999/xlink">
    <!-- Generator: Sketch 63.1 (92452) - https://sketch.com -->
    <title>Icons/ion-ios-chatbubbles</title>
    <desc>Created with Sketch.</desc>
    <g id="Icons/ion-ios-chatbubbles" stroke="none" stroke-width="1" fill="none" fill-rule="evenodd" fill-opacity="0.9">
        <path d="M26.9375,20.0625 L27.9375,23.6875 C27.9791669,23.7708338 28,23.8333331 28,23.875 C28,24.208335 27.833335,24.375 27.5,24.375 L27.25,24.3125 L23.6875,23 C23.4374987,22.9166662 23.2291675,22.875 23.0625,22.875 C22.9374994,22.875 22.75,22.9166662 22.5,23 C21.8749969,23.2083344 21.3333356,23.3749994 20.875,23.5 C19.6666606,23.833335 18.6875038,24 17.9375,24 C14.9791519,24 12.4583438,22.9583438 10.375,20.875 C8.29165625,18.7916563 7.25,16.3125144 7.25,13.4375 C7.25,12.9374975 7.3333325,12.2291713 7.5,11.3125 C8.0000025,8.93748813 9.25,6.95834125 11.25,5.375 C13.25,3.79165875 15.5416537,3 18.125,3 C21.125015,3 23.6874894,4.02082312 25.8125,6.0625 C27.9375106,8.10417688 29,10.5624856 29,13.4375 C29,15.3958431 28.4166725,17.2708244 27.25,19.0625 C27.25,19.1041669 27.2291669,19.125 27.1875,19.125 L27.125,19.25 C26.9999994,19.5 26.9375,19.7708319 26.9375,20.0625 Z M19.5,24.625 C19.6666675,24.5416662 19.7916662,24.5 19.875,24.5 C19.9583338,24.5 20.0937491,24.4791669 20.28125,24.4375 C20.4687509,24.3958331 20.6041662,24.3541669 20.6875,24.3125 L20.25,24.875 C18.24999,27.208345 15.750015,28.375 12.75,28.375 C11.5833275,28.375 10.3125069,28.1250025 8.9375,27.625 L8.5625,27.5 C8.3958325,27.5 8.27083375,27.5208331 8.1875,27.5625 L4.6875,28.9375 C4.64583313,28.9375 4.58333375,28.9583331 4.5,29 C4.45833313,29 4.3541675,28.9583338 4.1875,28.875 C4.0208325,28.7083325 3.95833312,28.5416675 4,28.375 C4.5,25.8749875 4.75,24.5833338 4.75,24.5 C4.75,24.4166662 4.68750063,24.2500013 4.5625,24 C3.52082813,22.4583256 3,20.7500094 3,18.875 C3,16.1666531 4.0833225,13.8541762 6.25,11.9375 L6.75,11.5 C6.75,11.5833338 6.70833375,11.7187491 6.625,11.90625 C6.54166625,12.0937509 6.5,12.2291662 6.5,12.3125 C6.5,12.3958338 6.47916688,12.5312491 6.4375,12.71875 C6.39583312,12.9062509 6.375,13.0416662 6.375,13.125 C6.29166625,13.6250025 6.25,14.0624981 6.25,14.4375 C6.25,17.3125144 7.29165625,19.7916563 9.375,21.875 C11.4583438,23.9583438 13.9791519,25 16.9375,25 C17.5208362,25 18.2291625,24.9166675 19.0625,24.75 C19.1875006,24.7083331 19.3333325,24.6666669 19.5,24.625 Z" id="↳-🎨-Fill" fill="#181C21"></path>
    </g>
</svg>