<?xml version="1.0" encoding="UTF-8"?>
<svg width="32px" height="32px" viewBox="0 0 32 32" version="1.1" xmlns="http://www.w3.org/2000/svg" xmlns:xlink="http://www.w3.org/1999/xlink">
    <!-- Generator: Sketch 63.1 (92452) - https://sketch.com -->
    <title>Icons/ion-md-desktop</title>
    <desc>Created with Sketch.</desc>
    <g id="Icons/ion-md-desktop" stroke="none" stroke-width="1" fill="none" fill-rule="evenodd" fill-opacity="0.9">
        <path d="M27.3125,2 C28.0208369,2 28.6458306,2.27083063 29.1875,2.8125 C29.7291694,3.35416937 30,3.97916312 30,4.6875 L30,22.3125 C30,23.0208369 29.7291694,23.6458306 29.1875,24.1875 C28.6458306,24.7291694 28.0208369,25 27.3125,25 L18.6875,25 L21.3125,28 L21.3125,30 L10.6875,30 L10.6875,28 L13.3125,25 L4.6875,25 C3.97916313,25 3.35416937,24.7291694 2.8125,24.1875 C2.27083063,23.6458306 2,23.0208369 2,22.3125 L2,4.6875 C2,3.97916312 2.27083063,3.35416937 2.8125,2.8125 C3.35416937,2.27083063 3.97916313,2 4.6875,2 L27.3125,2 Z M27.3125,20 L27.3125,4.6875 L4.6875,4.6875 L4.6875,20 L27.3125,20 Z" id="↳-🎨-Fill" fill="#181C21"></path>
    </g>
</svg>