<?xml version="1.0" encoding="UTF-8"?>
<svg width="32px" height="32px" viewBox="0 0 32 32" version="1.1" xmlns="http://www.w3.org/2000/svg" xmlns:xlink="http://www.w3.org/1999/xlink">
    <!-- Generator: Sketch 63.1 (92452) - https://sketch.com -->
    <title>Icons/ion-md-speaker</title>
    <desc>Created with Sketch.</desc>
    <g id="Icons/ion-md-speaker" stroke="none" stroke-width="1" fill="none" fill-rule="evenodd" fill-opacity="0.9">
        <path d="M18.9373703,3 L4.06262972,3 C3.47787202,3 3,3.48777109 3,4.08346562 L3,27.9165344 C3,28.5122289 3.47787202,29 4.06262972,29 L18.9373703,29 C19.521609,29 20,28.5122289 20,27.9165344 L20,4.08346562 C20,3.48777109 19.521609,3 18.9373703,3 Z M12,17 C13.657008,17 15,18.3433711 15,20.0002441 C15,21.6566289 13.657008,23 12,23 C10.342992,23 9,21.6566289 9,20.0002441 C9,18.3433711 10.342992,17 12,17 Z M11.5000001,6.24986767 C13.2662067,6.24986767 14.6873703,7.69889713 14.6873703,9.50026445 C14.6873703,11.3011029 13.2662067,12.7501322 11.5000001,12.7501322 C9.73379312,12.7501322 8.31262975,11.3011029 8.31262975,9.50026445 C8.31262975,7.71265213 9.74676477,6.24986767 11.5000001,6.24986767 Z M26.6306055,15 C29.7897982,18.0413871 29.7897982,22.9580702 26.6306055,26 L26.6306055,26 L25,24.4307419 C27.2506077,22.2499506 27.2506077,18.7359412 25,16.5692581 L25,16.5692581 Z M11.5000001,14.9165344 C14.4352033,14.9165344 16.8126297,17.3405771 16.8126297,20.3333334 C16.8126297,23.3260896 14.4352033,25.7496032 11.5000001,25.7496032 C8.56479669,25.7496032 6.18737032,23.3260896 6.18737032,20.3333334 C6.18737032,17.3405771 8.56479669,14.9165344 11.5000001,14.9165344 Z M23.231719,18 C24.2560937,19.3720181 24.2560937,21.6135761 23.231719,23 L23.231719,23 L22,21.3185432 C22.3380521,20.8615881 22.3380521,20.1090238 22,19.6520687 L22,19.6520687 Z M12,9 C12.552246,9 13,9.44786333 13,10.0002442 C13,10.5526252 12.552246,11 12,11 C11.4477539,11 11,10.5526252 11,10.0002442 C11,9.44786333 11.4477539,9 12,9 Z" id="↳-🎨-Fill" fill="#181C21"></path>
    </g>
</svg>