<?xml version="1.0" encoding="UTF-8"?>
<svg width="32px" height="32px" viewBox="0 0 32 32" version="1.1" xmlns="http://www.w3.org/2000/svg" xmlns:xlink="http://www.w3.org/1999/xlink">
    <!-- Generator: Sketch 63.1 (92452) - https://sketch.com -->
    <title>Icons/ion-ios-folder</title>
    <desc>Created with Sketch.</desc>
    <g id="Icons/ion-ios-folder" stroke="none" stroke-width="1" fill="none" fill-rule="evenodd" fill-opacity="0.9">
        <path d="M30,7.4375 L30,10.0625 C30,10.1875006 29.9375006,10.1875006 29.8125,10.0625 C29.7708331,10.0208331 29.6250013,10 29.375,10 L2.625,10 C2.37499875,10 2.22916687,10.0208331 2.1875,10.0625 C2.06249937,10.1875006 2,10.1875006 2,10.0625 L2,5.4375 C2,5.02083125 2.14583187,4.67708469 2.4375,4.40625 C2.72916813,4.13541531 3.10416437,4 3.5625,4 L9.5625,4 C9.97916875,4 10.3333319,4.14583187 10.625,4.4375 L12.0625,5.875 C12.1458338,5.95833375 12.2708325,6 12.4375,6 L28.5625,6 C28.9791687,6 29.3229153,6.13541531 29.59375,6.40625 C29.8645847,6.67708469 30,7.02083125 30,7.4375 Z M2,26 L2,12.75 C2,12.08333 2.33333,11.75 3,11.75 L29,11.75 C29.66667,11.75 30,12.08333 30,12.75 L30,26 C30,26.5833362 29.8125019,27.0624981 29.4375,27.4375 C29.0624981,27.8125019 28.5833362,28 28,28 L4,28 C3.45833063,28 2.98958531,27.8020853 2.59375,27.40625 C2.19791469,27.0104147 2,26.5416694 2,26 Z" id="↳-🎨-Fill" fill="#181C21"></path>
    </g>
</svg>