<?xml version="1.0" encoding="UTF-8"?>
<svg width="32px" height="32px" viewBox="0 0 32 32" version="1.1" xmlns="http://www.w3.org/2000/svg" xmlns:xlink="http://www.w3.org/1999/xlink">
    <!-- Generator: Sketch 63.1 (92452) - https://sketch.com -->
    <title>Icons/ion-md-hammer</title>
    <desc>Created with Sketch.</desc>
    <g id="Icons/ion-md-hammer" stroke="none" stroke-width="1" fill="none" fill-rule="evenodd" fill-opacity="0.9">
        <path d="M29.625,24.875 C29.8750013,25.0416675 29.9895834,25.3229147 29.96875,25.71875 C29.9479166,26.1145853 29.7916681,26.4374987 29.4999994,26.6875 L26.5625,29.625 C25.9791638,30.2083363 25.3958363,30.2083363 24.8125,29.625 L11.375,12.875 C10.5833294,12.6666656 9.7708375,12.7916644 8.9375,13.25 L7.99999937,14.125 L8.625,14.75 C8.7916675,14.9166675 8.7916675,15.1041656 8.625,15.3125 L6.375,17.5625 C6.29166625,17.6041669 6.18750063,17.625 6.0625,17.625 C5.93749938,17.625 5.85416688,17.6041669 5.8125,17.5625 L2.125,13.875 C1.9583325,13.7083325 1.9583325,13.5416675 2.125,13.375 L4.4375,11.0625 C4.6041675,10.8958325 4.7708325,10.8958325 4.9375,11.0625 L5.1875,11.3125 L6.4375,10.25 C6.35416625,9.79166437 6.45833187,9.37500187 6.75,9 C7.33333625,8.24999625 7.85416438,7.64583563 8.3125,7.1875 C9.89584125,5.60415875 11.4374925,4.43750375 12.9375,3.6875 C15.1875113,2.56249437 17.2083244,2 18.9999994,2 L18.9999994,4 C17.7499938,4.75000375 16.7500038,5.41666375 15.9999994,6 C15.666665,6.25000125 15.3645847,6.74999625 15.09375,7.5 C14.8229153,8.25000375 14.6250006,8.93749688 14.4999994,9.5625 L14.375,10.5 L29.625,24.875 Z" id="↳-🎨-Fill" fill="#181C21"></path>
    </g>
</svg>