<?xml version="1.0" encoding="UTF-8"?>
<svg width="32px" height="32px" viewBox="0 0 32 32" version="1.1" xmlns="http://www.w3.org/2000/svg" xmlns:xlink="http://www.w3.org/1999/xlink">
    <!-- Generator: Sketch 63.1 (92452) - https://sketch.com -->
    <title>Icons/ion-ios-sad</title>
    <desc>Created with Sketch.</desc>
    <g id="Icons/ion-ios-sad" stroke="none" stroke-width="1" fill="none" fill-rule="evenodd" fill-opacity="0.9">
        <path d="M6.8125,6.8125 C9.35417938,4.27082062 12.4166488,3 16,3 C19.5833512,3 22.6458206,4.27082062 25.1875,6.8125 C27.7291794,9.35417938 29,12.4166488 29,16 C29,19.5833512 27.7291794,22.6458206 25.1875,25.1875 C22.6458206,27.7291794 19.5833512,29 16,29 C12.4166488,29 9.35417938,27.7291794 6.8125,25.1875 C4.27082063,22.6458206 3,19.5833512 3,16 C3,12.4166488 4.27082063,9.35417938 6.8125,6.8125 Z M11.375,12.5 C10.5416625,12.5833338 10.0833338,13.0416625 10,13.875 C9.95833312,14.3333356 10.104165,14.729165 10.4375,15.0625 C10.770835,15.395835 11.1666644,15.5416669 11.625,15.5 C12.4583375,15.4166662 12.9166663,14.9583375 13,14.125 C13.0416669,13.6666644 12.895835,13.270835 12.5625,12.9375 C12.229165,12.604165 11.8333356,12.4583331 11.375,12.5 Z M11.3125,22 C12.9375081,21.8333325 14.5416587,21.75 16.125,21.75 L20.6875,22 C21.0625019,22 21.3437491,21.8541681 21.53125,21.5625 C21.7187509,21.2708319 21.7291675,20.958335 21.5625,20.625 C21.0624975,19.5416613 20.312505,18.6562534 19.3125,17.96875 C18.312495,17.2812466 17.2083394,16.9375 16,16.9375 C14.7916606,16.9375 13.687505,17.2812466 12.6875,17.96875 C11.687495,18.6562534 10.9375025,19.5416613 10.4375,20.625 C10.2708325,20.958335 10.2812491,21.2708319 10.46875,21.5625 C10.6562509,21.8541681 10.9374981,22 11.3125,22 Z M20.625,15.5 C21.4583375,15.4166662 21.9166662,14.9583375 22,14.125 C22.0416669,13.6666644 21.895835,13.270835 21.5625,12.9375 C21.229165,12.604165 20.8333356,12.4583331 20.375,12.5 C19.5416625,12.5833338 19.0833338,13.0416625 19,13.875 C18.9583331,14.3333356 19.104165,14.729165 19.4375,15.0625 C19.770835,15.395835 20.1666644,15.5416669 20.625,15.5 Z" id="↳-🎨-Fill" fill="#181C21"></path>
    </g>
</svg>