<?xml version="1.0" encoding="UTF-8"?>
<svg width="32px" height="32px" viewBox="0 0 32 32" version="1.1" xmlns="http://www.w3.org/2000/svg" xmlns:xlink="http://www.w3.org/1999/xlink">
    <!-- Generator: Sketch 63.1 (92452) - https://sketch.com -->
    <title>Icons/ion-md-color-filter</title>
    <desc>Created with Sketch.</desc>
    <g id="Icons/ion-md-color-filter" stroke="none" stroke-width="1" fill="none" fill-rule="evenodd" fill-opacity="0.9">
        <path d="M27.625,7.5 C27.8750013,7.75000125 28,8.06249812 28,8.4375 C28,8.81250188 27.8750013,9.12499875 27.625,9.375 L23.4375,13.5625 L26,16.125 L24.125,18 L22.25,16.125 L10.3125,28 L4,28 L4,21.6875 L15.875,9.75 L14,7.875 L15.875,6 L18.4375,8.5625 L22.625,4.375 C22.8750013,4.12499875 23.1874981,4 23.5625,4 C23.9375019,4 24.2499987,4.12499875 24.5,4.375 L27.625,7.5 Z M9.25,25.3125 L20,14.625 L17.375,12 L6.6875,22.75 L9.25,25.3125 Z" id="↳-🎨-Fill" fill="#181C21"></path>
    </g>
</svg>