<?xml version="1.0" encoding="UTF-8"?>
<svg width="32px" height="32px" viewBox="0 0 32 32" version="1.1" xmlns="http://www.w3.org/2000/svg" xmlns:xlink="http://www.w3.org/1999/xlink">
    <!-- Generator: Sketch 63.1 (92452) - https://sketch.com -->
    <title>Icons/ion-md-volume-off</title>
    <desc>Created with Sketch.</desc>
    <g id="Icons/ion-md-volume-off" stroke="none" stroke-width="1" fill="none" fill-rule="evenodd" fill-opacity="0.9">
        <path d="M25.375,16 C25.375,13.8749894 24.7500063,11.9583419 23.5,10.25 C22.2499938,8.54165813 20.6458431,7.39583625 18.6875,6.8125 L18.6875,4 C21.35418,4.62500312 23.5729078,6.06248875 25.34375,8.3125 C27.1145922,10.5625113 28,13.1249856 28,16 C28,18.2500113 27.500005,20.2499913 26.5,22 L24.5,20 C25.0833363,18.7499938 25.375,17.4166738 25.375,16 Z M16,5 L16,11.5 L12.8125,8.3125 L16,5 Z M5.6875,4.1875 L27.8125,26.3125 L26.3125,27.8125 L23.8125,25.3125 C22.3124925,26.6875 20.6041763,27.5833313 18.6875,28 L18.6875,25.1875 C19.9791731,24.7708313 21.0624956,24.1875 21.9375,23.4375 L16,17.5 L16,27 L9.3125,20 L4,20 L4,12 L9.3125,12 L9.875,11.375 L4.1875,5.6875 L5.6875,4.1875 Z M22,16 C22,16.6250031 21.9583338,17.0833319 21.875,17.375 L18.6875,14.1875 L18.6875,10.4375 C19.6875,10.9375 20.4895803,11.6979116 21.09375,12.71875 C21.6979197,13.7395884 22,14.8333275 22,16 Z" id="↳-🎨-Fill" fill="#181C21"></path>
    </g>
</svg>