<?xml version="1.0" encoding="UTF-8"?>
<svg width="32px" height="32px" viewBox="0 0 32 32" version="1.1" xmlns="http://www.w3.org/2000/svg" xmlns:xlink="http://www.w3.org/1999/xlink">
    <!-- Generator: Sketch 63.1 (92452) - https://sketch.com -->
    <title>Icons/ion-md-medkit</title>
    <desc>Created with Sketch.</desc>
    <g id="Icons/ion-md-medkit" stroke="none" stroke-width="1" fill="none" fill-rule="evenodd" fill-opacity="0.9">
        <path d="M22,9 L29,9 L29,25.5 C29,26.16667 28.7500025,26.7499975 28.25,27.25 C27.7499975,27.7500025 27.16667,28 26.5,28 L5.5,28 C4.83333,28 4.2500025,27.7500025 3.75,27.25 C3.2499975,26.7499975 3,26.16667 3,25.5 L3,9 L10,9 L10,6.5 C10,5.83333 10.2499975,5.2500025 10.75,4.75 C11.2500025,4.2499975 11.83333,4 12.5,4 L19.5,4 C20.16667,4 20.7499975,4.2499975 21.25,4.75 C21.7500025,5.2500025 22,5.83333 22,6.5 L22,9 Z M12.5,6.5 L12.5,9 L19.5,9 L19.5,6.5 L12.5,6.5 Z M21,20.5 L21,17.5 L17.5,17.5 L17.5,14 L14.5,14 L14.5,17.5 L11,17.5 L11,20.5 L14.5,20.5 L14.5,24 L17.5,24 L17.5,20.5 L21,20.5 Z" id="↳-🎨-Fill" fill="#181C21"></path>
    </g>
</svg>