<?xml version="1.0" encoding="UTF-8"?>
<svg width="32px" height="32px" viewBox="0 0 32 32" version="1.1" xmlns="http://www.w3.org/2000/svg" xmlns:xlink="http://www.w3.org/1999/xlink">
    <!-- Generator: Sketch 63.1 (92452) - https://sketch.com -->
    <title>Icons/ion-md-eye-off</title>
    <desc>Created with Sketch.</desc>
    <g id="Icons/ion-md-eye-off" stroke="none" stroke-width="1" fill="none" fill-rule="evenodd" fill-opacity="0.9">
        <path d="M16,9.0625 C15.1666625,9.0625 14.3958369,9.20833187 13.6875,9.5 L10.9375,6.75 C12.5625081,6.16666375 14.2499913,5.875 16,5.875 C19.1250156,5.875 21.9583206,6.74999125 24.5,8.5 C27.0416794,10.2500087 28.8749944,12.5416525 30,15.375 C29.0833287,17.708345 27.62501,19.708325 25.625,21.375 L21.9375,17.6875 C22.2291681,16.9791631 22.375,16.2083375 22.375,15.375 C22.375,13.6249913 21.7500062,12.1354228 20.5,10.90625 C19.2499937,9.67707719 17.7500087,9.0625 16,9.0625 Z M3.25,5.625 L4.875,4 L27.5,26.375 L25.875,28 L22.125,24.3125 L21.5625,23.75 C19.6458237,24.5 17.7916756,24.875 16,24.875 C12.8749844,24.875 10.0416794,24 7.5,22.25 C4.95832062,20.5 3.12500563,18.2083475 2,15.375 C3.04167187,12.7916538 4.62498938,10.6875081 6.75,9.0625 L6.1875,8.5 L3.25,5.625 Z M10.3125,12.5625 C9.85416437,13.4791713 9.625,14.4166619 9.625,15.375 C9.625,17.1250087 10.2499937,18.6145772 11.5,19.84375 C12.7500063,21.0729228 14.2499913,21.6875 16,21.6875 C16.9583381,21.6875 17.8958287,21.4583356 18.8125,21 L16.8125,19.0625 C16.6458325,19.1041669 16.3750019,19.125 16,19.125 C14.9166613,19.125 14.0104203,18.7604203 13.28125,18.03125 C12.5520797,17.3020797 12.1875,16.4166719 12.1875,15.375 C12.1875,15.1666656 12.2291663,14.895835 12.3125,14.5625 L10.3125,12.5625 Z M15.8125,11.625 L16,11.625 C17.0833387,11.625 17.9895797,11.9895797 18.71875,12.71875 C19.4479203,13.4479203 19.8125,14.3333281 19.8125,15.375 L19.8125,15.5625 L15.8125,11.625 Z" id="↳-🎨-Fill" fill="#181C21"></path>
    </g>
</svg>