<?xml version="1.0" encoding="UTF-8"?>
<svg width="32px" height="32px" viewBox="0 0 32 32" version="1.1" xmlns="http://www.w3.org/2000/svg" xmlns:xlink="http://www.w3.org/1999/xlink">
    <!-- Generator: Sketch 63.1 (92452) - https://sketch.com -->
    <title>Icons/ion-ios-link</title>
    <desc>Created with Sketch.</desc>
    <g id="Icons/ion-ios-link" stroke="none" stroke-width="1" fill="none" fill-rule="evenodd" fill-opacity="0.9">
        <path d="M17.5,21.3125 C17.9583356,21.2708331 18.2916656,21.4583313 18.5,21.875 C18.7083344,22.2916687 18.645835,22.666665 18.3125,23 L14.1875,27.0625 C12.8958269,28.3541731 11.3541756,29 9.5625,29 C7.77082438,29 6.22917312,28.3541731 4.9375,27.0625 C3.64582688,25.7708269 3,24.2291756 3,22.4375 C3,20.5625 3.62499375,19.0000062 4.875,17.75 L9.1875,13.5 C9.6875025,12.9999975 10.27083,12.583335 10.9375,12.25 C11.2291681,12.0833325 11.6249975,11.9375006 12.125,11.8125 L12.25,11.75 L12.375,11.75 C13,11.6249994 13.3333331,11.5625 13.375,11.5625 L13.8125,11.5625 C13.8958338,11.5625 14.0104159,11.5729166 14.15625,11.59375 C14.3020841,11.6145834 14.4166663,11.625 14.5,11.625 L14.875,11.625 C16.2916738,11.8750013 17.5,12.499995 18.5,13.5 C19.2500038,14.2500037 19.7499988,15.1041619 20,16.0625 C20.1666675,16.72917 19.9583363,17.1249994 19.375,17.25 L19.3125,17.25 C18.7291638,17.3750006 18.3333344,17.1666694 18.125,16.625 C17.8333319,15.9166631 17.4791688,15.3541687 17.0625,14.9375 C16.2708294,14.1458294 15.2916725,13.7083338 14.125,13.625 L13.1875,13.625 C12.7708313,13.7083338 12.4583344,13.7916662 12.25,13.875 C11.9583319,14.0000006 11.6666681,14.1458325 11.375,14.3125 C11.041665,14.5625 10.7916675,14.7708325 10.625,14.9375 L6.375,19.1875 C5.45832875,20.1041713 5,21.1874938 5,22.4375 C5,23.6458394 5.45832875,24.7083287 6.375,25.625 C7.29167125,26.5416713 8.35416063,27 9.5625,27 C10.8125063,27 11.8958288,26.5416713 12.8125,25.625 L16.8125,21.625 C17.1041681,21.4166656 17.3124994,21.3125 17.4375,21.3125 L17.5,21.3125 Z M22.4375,3 C24.2291756,3 25.7708269,3.64582687 27.0625,4.9375 C28.3541731,6.22917312 29,7.77082438 29,9.5625 C29,11.4375094 28.3750062,13 27.125,14.25 L22.8125,18.5 C22.3124975,19 21.72917,19.416665 21.0625,19.75 C20.7708319,19.9166675 20.3750025,20.0624994 19.875,20.1875 C19.4999981,20.3125006 19.0833356,20.375 18.625,20.375 C18.5416662,20.375 18.4583338,20.3854166 18.375,20.40625 C18.2916662,20.4270834 18.2291669,20.4375 18.1875,20.4375 C18.1041662,20.4375 17.9895841,20.4270834 17.84375,20.40625 C17.6979159,20.3854166 17.5833338,20.375 17.5,20.375 C15.9583256,20.2499994 14.6250056,19.6250056 13.5,18.5 C12.7499963,17.7499963 12.2500013,16.9583375 12,16.125 C11.7916656,15.45833 12.0416631,15.0416675 12.75,14.875 C13.3333362,14.7499994 13.7291656,14.9583306 13.9375,15.5 C14.1875013,16.1250031 14.5208313,16.6458313 14.9375,17.0625 C15.7291706,17.8541706 16.7083275,18.2916662 17.875,18.375 L18.8125,18.375 C19.2291687,18.2916662 19.5416656,18.2083338 19.75,18.125 C19.8333338,18.0833331 20.1249975,17.9166681 20.625,17.625 L21.375,17.0625 L25.625,12.8125 C26.5416713,11.8958287 27,10.8125062 27,9.5625 C27,8.35416062 26.5416713,7.29167125 25.625,6.375 C24.7083287,5.45832875 23.6458394,5 22.4375,5 C21.2291606,5 20.1666713,5.45832875 19.25,6.375 L15.25,10.3125 C15.0416656,10.5208344 14.770835,10.625 14.4375,10.625 C14.0208313,10.5833331 13.7291675,10.3541687 13.5625,9.9375 C13.3958325,9.52083125 13.479165,9.16666813 13.8125,8.875 L17.8125,4.9375 C19.1041731,3.64582687 20.6458244,3 22.4375,3 Z" id="↳-🎨-Fill" fill="#181C21"></path>
    </g>
</svg>