<?xml version="1.0" encoding="UTF-8"?>
<svg width="32px" height="32px" viewBox="0 0 32 32" version="1.1" xmlns="http://www.w3.org/2000/svg" xmlns:xlink="http://www.w3.org/1999/xlink">
    <!-- Generator: Sketch 63.1 (92452) - https://sketch.com -->
    <title>Icons/ion-ios-flame</title>
    <desc>Created with Sketch.</desc>
    <g id="Icons/ion-ios-flame" stroke="none" stroke-width="1" fill="none" fill-rule="evenodd" fill-opacity="0.9">
        <path d="M13.75,3 C17.08335,5.00001 19.8437391,7.499985 22.03125,10.5 C24.2187609,13.500015 25.2083344,16.5624844 25,19.6875 C24.8749994,21.4791756 24.4270872,23.04166 23.65625,24.375 C22.8854128,25.70834 21.9687553,26.6770803 20.90625,27.28125 C19.8437447,27.8854197 18.9062541,28.3229153 18.09375,28.59375 C17.2812459,28.8645847 16.6041694,29 16.0625,29 C15.5624975,29 14.8541713,28.833335 13.9375,28.5 C13.0208288,28.166665 12.0312553,27.66667 10.96875,27 C9.90624469,26.33333 8.97917063,25.3541731 8.1875,24.0625 C7.39582937,22.7708269 7,21.3125081 7,19.6875 C7,18.1458256 7.28124719,16.7604228 7.84375,15.53125 C8.40625281,14.3020772 9.08332937,13.2916706 9.875,12.5 C10.6666706,11.7083294 11.4270797,10.9062541 12.15625,10.09375 C12.8854203,9.28124594 13.416665,8.28125594 13.75,7.09375 C14.083335,5.90624406 14.083335,4.54167437 13.75,3 Z M18.375,25.1875 C18.5,24.8124981 18.5625,24.4375019 18.5625,24.0625 C18.5625,23.3124962 18.3437522,22.4791713 17.90625,21.5625 C17.4687478,20.6458287 17.0416687,19.9166694 16.625,19.375 L16,18.5625 C14.333325,20.5208431 13.5,22.3541581 13.5,24.0625 C13.5,24.5625 13.5416663,24.9374987 13.625,25.1875 C13.958335,26.3958394 14.7499938,27 16,27 C17.2500062,27 18.041665,26.3958394 18.375,25.1875 Z" id="↳-🎨-Fill" fill="#181C21"></path>
    </g>
</svg>