<?xml version="1.0" encoding="UTF-8"?>
<svg width="32px" height="32px" viewBox="0 0 32 32" version="1.1" xmlns="http://www.w3.org/2000/svg" xmlns:xlink="http://www.w3.org/1999/xlink">
    <!-- Generator: Sketch 63.1 (92452) - https://sketch.com -->
    <title>Icons/ion-md-sunny</title>
    <desc>Created with Sketch.</desc>
    <g id="Icons/ion-md-sunny" stroke="none" stroke-width="1" fill="none" fill-rule="evenodd" fill-opacity="0.9">
        <path d="M17.3125,2 L17.3125,6 L14.6875,6 L14.6875,2 L17.3125,2 Z M25.375,4.75 L27.25,6.625 L24.875,9 L23,7.125 L25.375,4.75 Z M6.625,4.75 L9,7.125 L7.125,9 L4.75,6.625 L6.625,4.75 Z M10.375,10.375 C11.9583413,8.79165875 13.8333225,8 16,8 C18.1666775,8 20.0416587,8.79165875 21.625,10.375 C23.2083413,11.9583413 24,13.8333225 24,16 C24,18.1666775 23.2083413,20.0416587 21.625,21.625 C20.0416587,23.2083413 18.1666775,24 16,24 C13.8333225,24 11.9583413,23.2083413 10.375,21.625 C8.79165875,20.0416587 8,18.1666775 8,16 C8,13.8333225 8.79165875,11.9583413 10.375,10.375 Z M30,14.6875 L30,17.3125 L26,17.3125 L26,14.6875 L30,14.6875 Z M6,14.6875 L6,17.3125 L2,17.3125 L2,14.6875 L6,14.6875 Z M24.875,23 L27.25,25.375 L25.375,27.25 L23,24.875 L24.875,23 Z M7.125,23 L9,24.875 L6.625,27.25 L4.75,25.375 L7.125,23 Z M17.3125,26 L17.3125,30 L14.6875,30 L14.6875,26 L17.3125,26 Z" id="↳-🎨-Fill" fill="#181C21"></path>
    </g>
</svg>