<?xml version="1.0" encoding="UTF-8"?>
<svg width="32px" height="32px" viewBox="0 0 32 32" version="1.1" xmlns="http://www.w3.org/2000/svg" xmlns:xlink="http://www.w3.org/1999/xlink">
    <!-- Generator: Sketch 63.1 (92452) - https://sketch.com -->
    <title>Icons/ion-md-rings</title>
    <desc>Created with Sketch.</desc>
    <g id="Icons/ion-md-rings" stroke="none" stroke-width="1" fill="none" fill-rule="evenodd" fill-opacity="0.9">
        <path d="M28.614703,17.9305923 C28.1301994,16.3955334 27.2367546,15.0771766 26.0142983,14.0832543 C26.9679188,13.5529941 27.6095903,12.8490732 27.8735003,12.0188631 C28.2652266,10.7864861 27.7529965,9.55276884 26.7073096,9.21029299 C25.9968296,8.97761147 25.3867948,9.1579216 25.005631,9.34544827 C24.8042835,8.96709595 24.4131665,8.45900075 23.7026357,8.22626768 C23.1694329,8.05162767 22.6065739,8.13523632 22.1180586,8.46178427 C21.6682894,8.76240425 21.3206919,9.24240654 21.1391998,9.8133371 C20.9015945,10.5608664 20.971571,11.407056 21.329731,12.2953077 C20.3952042,12.2549467 19.4664665,12.3825246 18.5604788,12.6771652 C18.4751156,12.7047942 18.3906664,12.7341242 18.3070805,12.7643821 C17.6939989,11.34953 16.7086909,10.1605037 15.4230628,9.29395318 C14.1366222,8.42688719 12.6185685,7.95513237 11.0866515,7.93595702 C11.2147725,7.65796601 11.315624,7.38291315 11.3876825,7.11167474 C11.4424247,6.90553974 11.3222255,6.69337378 11.1191007,6.63780651 C10.9162805,6.58208459 10.7069095,6.70425012 10.6522181,6.91043667 C10.5462377,7.309253 10.3655582,7.72224466 10.1126677,8.14570029 C10.111195,8.14817453 10.1097224,8.15064876 10.1083005,8.15317455 C9.90791783,8.48766068 9.66244142,8.82864168 9.37273457,9.17436498 C9.17702376,9.4078197 8.86121536,9.51137689 8.56815695,9.43787139 C6.83550179,9.00426108 5.70110016,8.19869023 5.37396755,7.16956162 C5.10904194,6.33605249 5.3992566,5.54707966 6.04905306,5.3342436 C6.72723623,5.11212914 7.27414995,5.46156379 7.42532564,5.57372927 C7.53409901,5.65445131 7.67532158,5.67775039 7.80339181,5.63594607 C7.93151282,5.5940902 8.03297369,5.49151239 8.07491898,5.36130558 C8.13316504,5.18022225 8.37564535,4.57222966 9.05377774,4.35016675 C9.70367577,4.13707295 10.3934371,4.60537415 10.6581088,5.43800698 C10.6618158,5.44975961 10.6655228,5.46151225 10.6690267,5.47341952 C10.7296595,5.67780194 10.9420266,5.79357568 11.1435264,5.73218364 C11.3449755,5.67063695 11.4590809,5.45496582 11.3984481,5.25053186 C11.3936239,5.23434621 11.3886982,5.21831521 11.3833661,5.20151101 C10.9916398,3.969134 9.86576942,3.27181109 8.81993023,3.61439005 C8.10929787,3.84707157 7.71813014,4.35537296 7.51683339,4.73351909 C7.13551723,4.54604397 6.52548245,4.36568228 5.81515477,4.59841535 C4.76946793,4.94089121 4.25723778,6.17450533 4.6489641,7.40693388 C4.90271785,8.20523665 5.50569403,8.88688938 6.39959581,9.40957229 C5.11990912,10.3226694 4.11835115,11.6139127 3.54452339,13.1061878 C2.87791834,14.8396497 2.82144962,16.7714115 3.38562895,18.5455952 C3.89212082,20.1391595 4.85264757,21.5138567 6.16331081,22.5210265 C6.23211936,22.5738618 6.31281071,22.5994289 6.39294347,22.5994289 C6.50816606,22.5994289 6.62201755,22.5465936 6.69691985,22.4461808 C6.82387289,22.2759222 6.7908651,22.0334468 6.62318552,21.9045802 C5.43769798,20.9936481 4.56888212,19.7500339 4.11063241,18.3081198 C3.0913518,15.1026406 4.38815176,11.5575722 7.19731797,9.80199684 C7.49753653,9.92570876 7.82035273,10.0354 8.16434471,10.1301427 C6.92965017,10.7332384 5.89965472,11.739171 5.23436998,13.0583526 C4.19894094,15.110218 4.29014401,17.5130645 5.47832295,19.4859605 C6.66228705,21.4517946 8.72415685,22.6253569 10.993925,22.6253569 C11.7598073,22.6253569 12.5022795,22.4930882 13.207529,22.2324169 C13.2575993,22.4505622 13.3166071,22.6677282 13.3847047,22.8835024 C13.3942516,22.9136572 13.4044586,22.9434512 13.4143102,22.9734513 C13.3487516,22.9970081 13.2829899,23.0198948 13.2170251,23.0414413 C11.4737059,23.6126812 9.59972662,23.4948456 7.94045032,22.7096356 C7.74976684,22.6194806 7.52323183,22.7031923 7.43431391,22.8966984 C7.34544678,23.0902045 7.42796626,23.3202571 7.61859895,23.4104637 C8.68764516,23.9162909 9.83702725,24.1715498 10.991589,24.1715498 C11.8179518,24.1715498 12.647006,24.0407244 13.4507711,23.7773727 C13.5302437,23.7513932 13.6095132,23.7236611 13.6885287,23.6950527 C14.4238916,25.3882566 15.6967228,26.7649642 17.3402569,27.6235766 C18.4889281,28.2236825 19.7349976,28.5273438 20.9907156,28.5273438 C21.8110354,28.5273438 22.6356716,28.3976009 23.4393859,28.1362594 C25.4736307,27.4747614 27.1322976,26.0489814 28.1097345,24.121498 C29.0869683,22.1941177 29.2664291,19.9954474 28.614703,17.9305923 Z M21.8641017,10.0507609 C21.9925274,9.64673836 22.2315038,9.31178831 22.5370037,9.10756054 C22.6849801,9.00864254 22.8961792,8.91008537 23.1498822,8.91008537 C23.249972,8.91008537 23.3566633,8.92544627 23.4687882,8.96214747 C24.1469714,9.18426193 24.3895025,9.79225452 24.4476978,9.97354404 C24.4895415,10.1034416 24.5909008,10.2059163 24.7188187,10.2477722 C24.8467874,10.2896796 24.9880099,10.2665867 25.0967833,10.1860708 C25.0968341,10.1860193 25.0968849,10.1859677 25.0969864,10.1859162 C25.248416,10.0734414 25.7954313,9.72405832 26.4734621,9.94617278 C27.1232586,10.1590088 27.413524,10.9480848 27.1485984,11.7814908 C26.821415,12.810671 25.6870642,13.6162418 23.9544598,14.0498521 C23.6613506,14.1230999 23.3453899,14.0198004 23.1498314,13.7863457 C21.9935938,12.4065453 21.5370199,11.0799411 21.8641017,10.0507609 Z M18.7924982,13.413612 C19.7509429,13.101961 20.7367587,12.9963419 21.7258753,13.0991775 C21.8965002,13.3922717 22.0966797,13.6879432 22.325703,13.9843879 C22.3079804,13.9807281 22.2905116,13.9763466 22.2727382,13.9728414 C21.1144694,13.7440259 19.8986147,13.8346965 18.8002677,14.2258323 C18.7493849,14.0002127 18.6888029,13.7760879 18.6190803,13.5557776 C18.6112092,13.530829 18.6031858,13.5057774 18.5949593,13.4807257 C18.6601623,13.4575813 18.7260764,13.4351585 18.7924982,13.413612 Z M10.6590228,8.71637311 C13.9202942,8.55766101 16.8712924,10.6240111 17.8801628,13.798253 C18.8110333,16.7259473 17.818616,19.9520967 15.4635862,21.8301469 C15.3904105,21.5383929 15.3398324,21.243907 15.3119535,20.9488025 C16.7688159,19.6197756 17.5659794,17.6849725 17.4625889,15.7194477 C17.4679209,15.6891898 17.4698506,15.6581587 17.4679209,15.6268184 C17.4345069,15.0904756 17.3336554,14.5524318 17.169175,14.0307283 C17.1516555,13.9736146 17.1326125,13.917068 17.113468,13.8610368 C17.1006711,13.8236139 17.0820344,13.7892839 17.059386,13.7582012 C16.1690897,11.3098906 14.0277981,9.68323338 11.4422723,9.5036449 C10.9693976,9.47086124 10.5049018,9.48874792 10.0536599,9.55266575 C10.2813121,9.27230359 10.4834214,8.99328164 10.6590228,8.71637311 Z M15.312766,19.8448797 C15.38193,19.1244124 15.5855119,18.416677 15.9216328,17.7539935 C16.1359803,17.3319812 16.3917653,16.9467731 16.6844175,16.600122 C16.5719371,17.7915194 16.090785,18.9299785 15.312766,19.8448797 Z M13.4643804,17.6895086 C13.0348729,18.9137413 12.9027402,20.1951391 13.0685916,21.4595266 C12.4108225,21.7200948 11.7142565,21.8522089 10.9938234,21.8522089 C8.99157075,21.8522089 7.1726383,20.8168947 6.12822098,19.0827111 C5.07948727,17.3414142 4.99874513,15.2211464 5.91229924,13.4108285 C6.96910717,11.315303 9.06804726,10.1140602 11.3903232,10.2749888 C13.6090054,10.4291132 15.4567308,11.7903568 16.2792341,13.8533048 C14.9948756,14.807897 14.001341,16.1588312 13.4643804,17.6895086 Z M27.4322623,23.7677335 C26.5479074,25.5115562 25.0472716,26.8015623 23.2068079,27.4000188 C21.366395,27.9984753 19.4067986,27.8336807 17.6887684,26.9362022 C15.9706367,26.0386206 14.6996844,24.5155721 14.1101144,22.6476766 C13.1870134,19.7227657 14.1813097,16.5042453 16.5316676,14.6294425 C16.6039293,14.9164026 16.6544058,15.206404 16.6827925,15.4964569 C16.1009413,16.0262017 15.6176564,16.66538 15.2445668,17.3999196 C14.4533447,18.9596693 14.3080596,20.7393685 14.8355241,22.4113868 C14.8523835,22.4647891 14.8707155,22.5173151 14.888692,22.5699958 C14.891485,22.5798927 14.8949381,22.5897382 14.8985944,22.5994805 C15.7557306,25.0719149 17.8686863,26.7321806 20.4585792,26.9497074 C20.649872,26.9657899 20.8396414,26.9737281 21.027989,26.9737281 C23.4634562,26.973625 25.6235877,25.646196 26.7548916,23.4142782 C27.546063,21.8546316 27.6913481,20.0747262 27.1639343,18.4022955 C27.0498289,18.0408505 26.9080478,17.6908488 26.7423995,17.3620844 C26.6465753,17.1719288 26.4170442,17.0967738 26.2299154,17.1938362 C26.0425835,17.2910531 25.9683921,17.5239408 26.0641655,17.7140448 C26.2110756,18.0055926 26.3369622,18.3165735 26.4384739,18.6380698 C26.9037822,20.113747 26.7756612,21.6842184 26.0775717,23.0603589 C25.0022795,25.1816062 22.8730738,26.376818 20.5213955,26.1790851 C18.330643,25.9950636 16.5263863,24.640985 15.7150548,22.6069547 C17.0042376,21.6493213 18.000362,20.2922014 18.5362054,18.7547714 C18.9610918,17.5355904 19.0915488,16.2605327 18.9268653,15.0026402 C21.0989811,14.166296 23.6402764,14.7400616 25.1954512,16.4472862 C25.2705566,16.5297093 25.3726777,16.5714105 25.4752049,16.5714105 C25.5676775,16.5714105 25.6604548,16.5374413 25.7336813,16.4686781 C25.888107,16.3236774 25.8975523,16.0790886 25.7547555,15.9223353 C25.3332207,15.4595496 24.8502913,15.0680013 24.3198814,14.7528452 C24.6426469,14.6654221 24.9465217,14.5645968 25.231252,14.4517612 C26.493927,15.3732605 27.4116959,16.6529573 27.8893948,18.1664697 C28.478914,20.0346744 28.3166172,22.0239107 27.4322623,23.7677335 Z" id="↳-🎨-Fill" fill="#181C21"></path>
    </g>
</svg>