<?xml version="1.0" encoding="UTF-8"?>
<svg width="32px" height="32px" viewBox="0 0 32 32" version="1.1" xmlns="http://www.w3.org/2000/svg" xmlns:xlink="http://www.w3.org/1999/xlink">
    <!-- Generator: Sketch 63.1 (92452) - https://sketch.com -->
    <title>Icons/ion-ios-warning</title>
    <desc>Created with Sketch.</desc>
    <g id="Icons/ion-ios-warning" stroke="none" stroke-width="1" fill="none" fill-rule="evenodd" fill-opacity="0.9">
        <path d="M14.3125,5 C14.6875019,4.33333 15.2499963,4 16,4 C16.7500037,4 17.3124981,4.33333 17.6875,5 L28.75,25.1875 C29.083335,25.8125031 29.0625019,26.4374969 28.6875,27.0625 C28.3124981,27.6875031 27.7708369,28 27.0625,28 L4.9375,28 C4.22916313,28 3.68750187,27.6875031 3.3125,27.0625 C2.93749812,26.4374969 2.916665,25.8125031 3.25,25.1875 L14.3125,5 Z M17.125,13.375 L14.875,13.375 L15.125,21 L16.875,21 L17.125,13.375 Z M15.125,24.8125 C15.3750013,25.0208344 15.666665,25.125 16,25.125 C16.333335,25.125 16.6145822,25.0208344 16.84375,24.8125 C17.0729178,24.6041656 17.1875,24.333335 17.1875,24 C17.1875,23.666665 17.0729178,23.3958344 16.84375,23.1875 C16.6145822,22.9791656 16.333335,22.875 16,22.875 C15.666665,22.875 15.3854178,22.9791656 15.15625,23.1875 C14.9270822,23.3958344 14.8125,23.666665 14.8125,24 C14.8125,24.333335 14.9166656,24.6041656 15.125,24.8125 Z" id="↳-🎨-Fill" fill="#181C21"></path>
    </g>
</svg>