<?xml version="1.0" encoding="UTF-8"?>
<svg width="32px" height="32px" viewBox="0 0 32 32" version="1.1" xmlns="http://www.w3.org/2000/svg" xmlns:xlink="http://www.w3.org/1999/xlink">
    <!-- Generator: Sketch 63.1 (92452) - https://sketch.com -->
    <title>Icons/ion-md-checklist</title>
    <desc>Created with Sketch.</desc>
    <g id="Icons/ion-md-checklist" stroke="none" stroke-width="1" fill="none" fill-rule="evenodd" fill-opacity="0.9">
        <path d="M15.9999764,4 C16.7199309,4 17.3689419,4.40978045 17.6848389,5.03124799 L17.6848389,5.03124799 L18.0980474,5.03124799 C18.8725304,5.03124799 19.5765415,5.33499739 20.0973446,5.8281683 L20.0973446,5.8281683 L23.7001361,5.8281683 C24.9682995,5.8281683 26,6.85346318 26,8.11369509 L26,8.11369509 L26,25.7144732 C26,26.9747051 24.9682523,28 23.7000889,28 L23.7000889,28 L8.29991108,28 C7.03174772,28 6,26.9747051 6,25.7144732 L6,25.7144732 L6,8.11369509 C6,6.85346318 7.03174772,5.8281683 8.29991108,5.8281683 L8.29991108,5.8281683 L11.9016649,5.8281683 C12.422468,5.33499739 13.1264319,5.03124799 13.9009149,5.03124799 L13.9009149,5.03124799 L14.315114,5.03124799 C14.6310581,4.40978045 15.2800219,4 15.9999764,4 Z M11.2408142,6.76566647 L8.29991108,6.76566647 C7.55193762,6.76566647 6.94339845,7.37039967 6.94339845,8.11369509 L6.94339845,8.11369509 L6.94339845,25.7145201 C6.94339845,26.4578155 7.55193762,27.0625487 8.29991108,27.0625487 L8.29991108,27.0625487 L23.7001361,27.0625487 C24.4481095,27.0625487 25.0566487,26.4578155 25.0566487,25.7145201 L25.0566487,25.7145201 L25.0566487,8.11369509 C25.0566487,7.37039967 24.4481095,6.76566647 23.7001361,6.76566647 L23.7001361,6.76566647 L20.7582424,6.76566647 C20.912771,7.11779079 20.9990448,7.50605565 20.9990448,7.91410173 L20.9990448,7.91410173 L20.9990448,8.21878864 C20.9990448,8.47767875 20.7878651,8.68753772 20.5273456,8.68753772 L20.5273456,8.68753772 L11.471711,8.68753772 C11.2111915,8.68753772 11.0000118,8.47767875 11.0000118,8.21878864 L11.0000118,8.21878864 L11.0000118,7.91410173 C11.0000118,7.50600878 11.0862856,7.11779079 11.2408142,6.76566647 L11.2408142,6.76566647 Z M21.5,23 C21.6315,23 21.7605,23.0535 21.8535,23.1465 C21.9465,23.2395 22,23.3685 22,23.5 C22,23.6315 21.9465,23.7605 21.8535,23.8535 C21.7605,23.9465 21.6315,24 21.5,24 C21.3685,24 21.2395,23.9465 21.1465,23.8535 C21.0535,23.7605 21,23.6315 21,23.5 C21,23.3685 21.0535,23.2395 21.1465,23.1465 C21.2395,23.0535 21.3685,23 21.5,23 Z M19.4992301,23 C19.7758053,23 20,23.22385 20,23.5 C20,23.77615 19.7758053,24 19.4992301,24 L19.4992301,24 L16.5007699,24 C16.2241947,24 16,23.77615 16,23.5 C16,23.22385 16.2241947,23 16.5007699,23 L16.5007699,23 Z M12.5588235,21 C12.8024853,21 13,21.1975147 13,21.4411765 L13,21.4411765 L13,23.5588235 C13,23.8024853 12.8024853,24 12.5588235,24 L12.5588235,24 L10.4411765,24 C10.1975147,24 10,23.8024853 10,23.5588235 L10,23.5588235 L10,21.4411765 C10,21.1975147 10.1975147,21 10.4411765,21 L10.4411765,21 Z M12.1176471,21.8823529 L10.8823529,21.8823529 L10.8823529,23.1176471 L12.1176471,23.1176471 L12.1176471,21.8823529 Z M23.5122011,21 C23.7816124,21 24,21.22385 24,21.5 C24,21.77615 23.7816124,22 23.5122011,22 L23.5122011,22 L16.4877989,22 C16.2183876,22 16,21.77615 16,21.5 C16,21.22385 16.2183876,21 16.4877989,21 L16.4877989,21 Z M21.5,18 C21.6315,18 21.7605,18.0535 21.8535,18.1465 C21.9465,18.2395 22,18.3685 22,18.5 C22,18.6315 21.9465,18.7605 21.8535,18.8535 C21.7605,18.9465 21.6315,19 21.5,19 C21.3685,19 21.2395,18.9465 21.1465,18.8535 C21.0535,18.7605 21,18.6315 21,18.5 C21,18.3685 21.0535,18.2395 21.1465,18.1465 C21.2395,18.0535 21.3685,18 21.5,18 Z M19.4992301,18 C19.7758053,18 20,18.22385 20,18.5 C20,18.77615 19.7758053,19 19.4992301,19 L19.4992301,19 L16.5007699,19 C16.2241947,19 16,18.77615 16,18.5 C16,18.22385 16.2241947,18 16.5007699,18 L16.5007699,18 Z M12.5588235,16 C12.8024853,16 13,16.1975147 13,16.4411765 L13,16.4411765 L13,18.5588235 C13,18.8024853 12.8024853,19 12.5588235,19 L12.5588235,19 L10.4411765,19 C10.1975147,19 10,18.8024853 10,18.5588235 L10,18.5588235 L10,16.4411765 C10,16.1975147 10.1975147,16 10.4411765,16 L10.4411765,16 Z M12.1176471,16.8823529 L10.8823529,16.8823529 L10.8823529,18.1176471 L12.1176471,18.1176471 L12.1176471,16.8823529 Z M23.5122011,16 C23.7816124,16 24,16.22385 24,16.5 C24,16.77615 23.7816124,17 23.5122011,17 L23.5122011,17 L16.4877989,17 C16.2183876,17 16,16.77615 16,16.5 C16,16.22385 16.2183876,16 16.4877989,16 L16.4877989,16 Z M21.5,13 C21.6315,13 21.7605,13.0535 21.8535,13.1465 C21.9465,13.2395 22,13.3685 22,13.5 C22,13.6315 21.9465,13.7605 21.8535,13.8535 C21.7605,13.9465 21.6315,14 21.5,14 C21.3685,14 21.2395,13.9465 21.1465,13.8535 C21.0535,13.7605 21,13.6315 21,13.5 C21,13.3685 21.0535,13.2395 21.1465,13.1465 C21.2395,13.0535 21.3685,13 21.5,13 Z M19.4992301,13 C19.7758053,13 20,13.22385 20,13.5 C20,13.77615 19.7758053,14 19.4992301,14 L19.4992301,14 L16.5007699,14 C16.2241947,14 16,13.77615 16,13.5 C16,13.22385 16.2241947,13 16.5007699,13 L16.5007699,13 Z M12.2419528,11.1257789 C12.415359,10.9580666 12.6965391,10.9580666 12.8699453,11.1258218 C13.0433516,11.29362 13.0433516,11.565637 12.8699453,11.7333923 L12.8699453,11.7333923 L10.6570509,13.8741728 C10.57037,13.9580719 10.4566901,14 10.3430546,14 C10.2294191,14 10.1157836,13.9580719 10.0290583,13.8741728 L10.0290583,13.8741728 L9.13005468,13.004466 C8.95664844,12.8366677 8.95664844,12.5646508 9.13005468,12.3968955 C9.30350531,12.2291832 9.58468541,12.2291832 9.75809164,12.3968955 L9.75809164,12.3968955 L10.3430546,12.9628386 Z M23.5122011,11 C23.7816124,11 24,11.22385 24,11.5 C24,11.77615 23.7816124,12 23.5122011,12 L23.5122011,12 L16.4877989,12 C16.2183876,12 16,11.77615 16,11.5 C16,11.22385 16.2183876,11 16.4877989,11 L16.4877989,11 Z M16.0000236,4.93749817 C15.5771924,4.93749817 15.2033236,5.22010699 15.0908233,5.62477808 C15.0343609,5.8279808 14.8483228,5.96874615 14.6361524,5.96874615 L14.6361524,5.96874615 L13.900962,5.96874615 C12.877186,5.96874615 12.034401,6.75390087 11.9502971,7.75003955 L11.9502971,7.75003955 L20.0487124,7.75003955 C19.9646084,6.75390087 19.1218706,5.96874615 18.0980474,5.96874615 L18.0980474,5.96874615 L17.3638476,5.96874615 C17.1517244,5.96874615 16.9656391,5.8279808 16.9091767,5.62477808 C16.7967236,5.22010699 16.4228548,4.93749817 16.0000236,4.93749817 Z M16.5,6 C16.6315,6 16.7605,6.0535 16.8535,6.1465 C16.9465,6.2395 17,6.3685 17,6.5 C17,6.6315 16.9465,6.7605 16.8535,6.8535 C16.7605,6.9465 16.6315,7 16.5,7 C16.3685,7 16.2395,6.9465 16.1465,6.8535 C16.0535,6.7605 16,6.6315 16,6.5 C16,6.3685 16.0535,6.2395 16.1465,6.1465 C16.2395,6.0535 16.3685,6 16.5,6 Z" id="↳-🎨-Fill" fill="#181C21"></path>
    </g>
</svg>