<?xml version="1.0" encoding="UTF-8"?>
<svg width="32px" height="32px" viewBox="0 0 32 32" version="1.1" xmlns="http://www.w3.org/2000/svg" xmlns:xlink="http://www.w3.org/1999/xlink">
    <!-- Generator: Sketch 63.1 (92452) - https://sketch.com -->
    <title>Icons/ion-logo-python</title>
    <desc>Created with Sketch.</desc>
    <g id="Icons/ion-logo-python" stroke="none" stroke-width="1" fill="none" fill-rule="evenodd" fill-opacity="0.9">
        <path d="M12.0625,15.5625 C11.1874956,15.7291675 10.4583363,16.14583 9.875,16.8125 C9.29166375,17.47917 9,18.2499956 9,19.125 L9,22 L8.0625,22 C7.14582875,22 6.33333688,21.5937541 5.625,20.78125 C4.91666313,19.9687459 4.43750125,18.9375062 4.1875,17.6875 C4.06249937,17.1458306 4,16.5833363 4,16 L4,15.9375 C4,14.270825 4.39582937,12.8645891 5.1875,11.71875 C5.97917063,10.5729109 6.93749437,10 8.0625,10 L16,10 L16,9 L10,9 L10,7.1875 C10,6.31249563 10.1874981,5.65625219 10.5625,5.21875 C10.9375019,4.78124781 11.7083275,4.45833437 12.875,4.25 C13.9583387,4.0833325 14.8958294,4 15.6875,4 C17.1041738,4 18.2499956,4.0833325 19.125,4.25 C19.9166706,4.37500062 20.5937472,4.70833063 21.15625,5.25 C21.7187528,5.79166937 22,6.43749625 22,7.1875 L22,12.6875 C22,14.1041738 21.3125069,15 19.9375,15.375 C19.604165,15.4583338 19.3333344,15.5 19.125,15.5 L12.625,15.5 L12.8125,15.5 C12.479165,15.5 12.2291675,15.5208331 12.0625,15.5625 Z M12.75,7.9375 C13.4583369,7.9375 13.8125,7.58333688 13.8125,6.875 C13.8125,6.12499625 13.4583369,5.75 12.75,5.75 C12.416665,5.75 12.1458344,5.85416563 11.9375,6.0625 C11.7291656,6.27083437 11.625,6.541665 11.625,6.875 C11.625,7.58333688 11.9999962,7.9375 12.75,7.9375 Z M27.75,13.9375 C27.9166675,14.4791694 28,15.1666625 28,16 C28,16.8333375 27.8541681,17.7291619 27.5625,18.6875 C26.7708294,20.8958444 25.5625081,22 23.9375,22 L16,22 L16,23 L22,23 L22,24.625 C22,26 21.0416762,26.9791638 19.125,27.5625 C16.9999894,28.1458363 14.9791762,28.1458363 13.0625,27.5625 C11.0208231,26.9791638 10,26 10,24.625 L10,19.1875 C10,17.85416 10.6874931,17 12.0625,16.625 C12.395835,16.5416662 12.6666656,16.5 12.875,16.5 L19.375,16.5 C19.4583338,16.5 19.5624994,16.4895834 19.6875,16.46875 C19.8125006,16.4479166 19.8958331,16.4375 19.9375,16.4375 C20.8125044,16.3124994 21.5416638,15.8958369 22.125,15.1875 C22.7083362,14.4791631 23,13.6041719 23,12.5625 L23,10 L23.9375,10 C24.8125044,10 25.5937466,10.3645797 26.28125,11.09375 C26.9687534,11.8229203 27.4583319,12.7708275 27.75,13.9375 Z M19.25,23.9375 C18.4999962,23.9375 18.125,24.2916631 18.125,25 C18.125,25.333335 18.2291656,25.6041656 18.4375,25.8125 C18.6458344,26.0208344 18.916665,26.125 19.25,26.125 C19.9583369,26.125 20.3125,25.7500038 20.3125,25 C20.3125,24.2916631 19.9583369,23.9375 19.25,23.9375 Z" id="↳-🎨-Fill" fill="#181C21"></path>
    </g>
</svg>