<?xml version="1.0" encoding="UTF-8"?>
<svg width="32px" height="32px" viewBox="0 0 32 32" version="1.1" xmlns="http://www.w3.org/2000/svg" xmlns:xlink="http://www.w3.org/1999/xlink">
    <!-- Generator: Sketch 63.1 (92452) - https://sketch.com -->
    <title>Icons/ion-ios-contact</title>
    <desc>Created with Sketch.</desc>
    <g id="Icons/ion-ios-contact" stroke="none" stroke-width="1" fill="none" fill-rule="evenodd" fill-opacity="0.9">
        <path d="M16,3 C19.5833512,3 22.6458206,4.27082062 25.1875,6.8125 C27.7291794,9.35417938 29,12.4166488 29,16 C29,19.5833512 27.7291794,22.6458206 25.1875,25.1875 C22.6458206,27.7291794 19.5833512,29 16,29 C12.6249831,29 9.70834562,27.8854278 7.25,25.65625 C4.79165438,23.4270722 3.395835,20.6666831 3.0625,17.375 C3.02083313,17.0833319 3,16.6250031 3,16 C3,15.3749969 3.02083313,14.9166681 3.0625,14.625 C3.395835,11.3333169 4.79165438,8.57292781 7.25,6.34375 C9.70834562,4.11457219 12.6249831,3 16,3 Z M24.5,23.375 C26.3333425,21.2916562 27.25,18.8333475 27.25,16 C27.25,12.9166513 26.1458444,10.2708444 23.9375,8.0625 C21.7291556,5.85415563 19.0833487,4.75 16,4.75 C12.9166513,4.75 10.2708444,5.85415563 8.0625,8.0625 C5.85415562,10.2708444 4.75,12.9166513 4.75,16 C4.75,18.8333475 5.6666575,21.2916562 7.5,23.375 C9.6666775,22.5416625 11.3333275,21.958335 12.5,21.625 C12.6250006,21.5416662 12.6875,21.333335 12.6875,21 C12.6875,20.33333 12.6041675,19.833335 12.4375,19.5 C12.2291656,19.0416644 12.0416675,18.3958375 11.875,17.5625 C11.4999981,17.0624975 11.2083344,16.3750044 11,15.5 C10.8749994,14.83333 10.8958325,14.25 11.0625,13.75 L11.0625,13.625 C11.1875006,13.2083313 11.1250013,12.4166725 10.875,11.25 C10.6666656,10.1666613 10.9791625,9.08333875 11.8125,8 C12.6041706,6.95832813 13.8124919,6.37500062 15.4375,6.25 L16.5625,6.25 C18.1875081,6.33333375 19.3958294,6.91666125 20.1875,8 C21.0208375,9.08333875 21.3333344,10.1666613 21.125,11.25 C20.8749987,12.4166725 20.8124994,13.2083313 20.9375,13.625 C20.9791669,13.6666669 21,13.7083331 21,13.75 C21.1250006,14.1666687 21.1250006,14.75 21,15.5 C20.8333325,16.3333375 20.5416687,16.9999975 20.125,17.5 C19.9583325,18.4166713 19.7708344,19.0833313 19.5625,19.5 C19.3124987,20.0833363 19.1875,20.5624981 19.1875,20.9375 C19.1875,21.3541687 19.2291662,21.5833331 19.3125,21.625 C21.4375106,22.29167 23.16666,22.8749975 24.5,23.375 Z" id="↳-🎨-Fill" fill="#181C21"></path>
    </g>
</svg>