<?xml version="1.0" encoding="UTF-8"?>
<svg width="32px" height="32px" viewBox="0 0 32 32" version="1.1" xmlns="http://www.w3.org/2000/svg" xmlns:xlink="http://www.w3.org/1999/xlink">
    <!-- Generator: Sketch 63.1 (92452) - https://sketch.com -->
    <title>Icons/ion-ios-arrow-last</title>
    <desc>Created with Sketch.</desc>
    <g id="Icons/ion-ios-arrow-last" stroke="none" stroke-width="1" fill="none" fill-rule="evenodd" fill-opacity="0.9">
        <g id="Icons/ion-ios-arrow-forward" transform="translate(-1.000000, 2.000000)" fill="#181C21">
            <path d="M15.5039063,13.5 L8.80664062,6.80273438 C8.56054564,6.55663939 8.4375,6.25781426 8.4375,5.90625 C8.4375,5.55468574 8.56054564,5.25586061 8.80664062,5.00976562 C9.05273561,4.76367064 9.35156074,4.640625 9.703125,4.640625 C10.0546893,4.640625 10.3535144,4.76367064 10.5996094,5.00976562 L18.1933594,12.6035156 C18.7910186,13.2011749 18.8085966,13.7812472 18.2460938,14.34375 L10.5996094,21.9902344 C10.3535144,22.2363294 10.0546893,22.359375 9.703125,22.359375 C9.35156074,22.359375 9.05273561,22.2363294 8.80664062,21.9902344 C8.56054564,21.7441394 8.4375,21.4453143 8.4375,21.09375 C8.4375,20.7421857 8.56054564,20.4433606 8.80664062,20.1972656 L15.5039063,13.5 Z" id="↳-🎨-Fill"></path>
        </g>
        <g id="Icons/ion-ios-arrow-forward" transform="translate(6.000000, 2.000000)" fill="#181C21">
            <path d="M15.5039063,13.5 L8.80664062,6.80273438 C8.56054564,6.55663939 8.4375,6.25781426 8.4375,5.90625 C8.4375,5.55468574 8.56054564,5.25586061 8.80664062,5.00976562 C9.05273561,4.76367064 9.35156074,4.640625 9.703125,4.640625 C10.0546893,4.640625 10.3535144,4.76367064 10.5996094,5.00976562 L18.1933594,12.6035156 C18.7910186,13.2011749 18.8085966,13.7812472 18.2460938,14.34375 L10.5996094,21.9902344 C10.3535144,22.2363294 10.0546893,22.359375 9.703125,22.359375 C9.35156074,22.359375 9.05273561,22.2363294 8.80664062,21.9902344 C8.56054564,21.7441394 8.4375,21.4453143 8.4375,21.09375 C8.4375,20.7421857 8.56054564,20.4433606 8.80664062,20.1972656 L15.5039063,13.5 Z" id="↳-🎨-Fill"></path>
        </g>
    </g>
</svg>