<?xml version="1.0" encoding="UTF-8"?>
<svg width="32px" height="32px" viewBox="0 0 32 32" version="1.1" xmlns="http://www.w3.org/2000/svg" xmlns:xlink="http://www.w3.org/1999/xlink">
    <!-- Generator: Sketch 63.1 (92452) - https://sketch.com -->
    <title>Icons/ion-md-recording</title>
    <desc>Created with Sketch.</desc>
    <g id="Icons/ion-md-recording" stroke="none" stroke-width="1" fill="none" fill-rule="evenodd" fill-opacity="0.9">
        <path d="M18.875,11.75 C20.0416725,10.5833275 21.458325,10 23.125,10 C24.791675,10 26.2083275,10.5833275 27.375,11.75 C28.5416725,12.9166725 29.125,14.333325 29.125,16 C29.125,17.666675 28.5416725,19.0833275 27.375,20.25 C26.2083275,21.4166725 24.791675,22 23.125,22 L8.875,22 C7.208325,22 5.7916725,21.4166725 4.625,20.25 C3.4583275,19.0833275 2.875,17.666675 2.875,16 C2.875,14.333325 3.4583275,12.9166725 4.625,11.75 C5.7916725,10.5833275 7.208325,10 8.875,10 C10.541675,10 11.9687441,10.5833275 13.15625,11.75 C14.3437559,12.9166725 14.9375,14.333325 14.9375,16 C14.9375,17.4166738 14.4791713,18.6874944 13.5625,19.8125 L18.5,19.8125 C17.5833287,18.6874944 17.125,17.4166738 17.125,16 C17.125,14.333325 17.7083275,12.9166725 18.875,11.75 Z M6.125,18.75 C6.87500375,19.4583369 7.79166125,19.8125 8.875,19.8125 C9.95833875,19.8125 10.8645797,19.4479203 11.59375,18.71875 C12.3229203,17.9895797 12.6875,17.0833387 12.6875,16 C12.6875,14.9166613 12.3229203,14.0104203 11.59375,13.28125 C10.8645797,12.5520797 9.95833875,12.1875 8.875,12.1875 C7.79166125,12.1875 6.88542031,12.5520797 6.15625,13.28125 C5.42707969,14.0104203 5.0625,14.9166613 5.0625,16 C5.0625,17.0833387 5.41666312,17.9999963 6.125,18.75 Z M20.375,18.75 C21.1250037,19.4583369 22.0416613,19.8125 23.125,19.8125 C24.2083388,19.8125 25.1145797,19.4479203 25.84375,18.71875 C26.5729203,17.9895797 26.9375,17.0833387 26.9375,16 C26.9375,14.9166613 26.5729203,14.0104203 25.84375,13.28125 C25.1145797,12.5520797 24.2083388,12.1875 23.125,12.1875 C22.0416613,12.1875 21.1354203,12.5520797 20.40625,13.28125 C19.6770797,14.0104203 19.3125,14.9166613 19.3125,16 C19.3125,17.0833387 19.6666631,17.9999963 20.375,18.75 Z" id="↳-🎨-Fill" fill="#181C21"></path>
    </g>
</svg>