<?xml version="1.0" encoding="UTF-8"?>
<svg width="32px" height="32px" viewBox="0 0 32 32" version="1.1" xmlns="http://www.w3.org/2000/svg" xmlns:xlink="http://www.w3.org/1999/xlink">
    <!-- Generator: Sketch 63.1 (92452) - https://sketch.com -->
    <title>Icons/ion-md-cloud-outline</title>
    <desc>Created with Sketch.</desc>
    <g id="Icons/ion-md-cloud-outline" stroke="none" stroke-width="1" fill="none" fill-rule="evenodd" fill-opacity="0.9">
        <path d="M25.1875,13.5625 C26.8125081,13.6458338 28.1874944,14.2812441 29.3125,15.46875 C30.4375056,16.6562559 31,18.083325 31,19.75 C31,21.4583419 30.3854228,22.9270772 29.15625,24.15625 C27.9270772,25.3854228 26.4583419,26 24.75,26 L8.5,26 C6.41665625,26 4.64584062,25.2708406 3.1875,23.8125 C1.72915938,22.3541594 1,20.5833438 1,18.5 C1,16.5833237 1.64582688,14.9166738 2.9375,13.5 C4.22917312,12.0833262 5.81249063,11.2708344 7.6875,11.0625 C8.47917063,9.52082563 9.61457594,8.29167125 11.09375,7.375 C12.5729241,6.45832875 14.2083244,6 16,6 C18.2500113,6 20.2291581,6.71874281 21.9375,8.15625 C23.6458419,9.59375719 24.7291644,11.3958225 25.1875,13.5625 Z M24.75,23.5 C25.7916719,23.5 26.6770797,23.1354203 27.40625,22.40625 C28.1354203,21.6770797 28.5,20.7916719 28.5,19.75 C28.5,18.7083281 28.1354203,17.8229203 27.40625,17.09375 C26.6770797,16.3645797 25.7916719,16 24.75,16 L22.875,16 L22.875,15.375 C22.875,13.4583237 22.20834,11.83334 20.875,10.5 C19.54166,9.16666 17.9166763,8.5 16,8.5 C14.4166587,8.5 13.0208394,8.96874531 11.8125,9.90625 C10.6041606,10.8437547 9.79166875,12.0416594 9.375,13.5 L8.5,13.5 C7.12499312,13.5 5.94792156,13.9895784 4.96875,14.96875 C3.98957844,15.9479216 3.5,17.1249931 3.5,18.5 C3.5,19.8750069 3.98957844,21.0520784 4.96875,22.03125 C5.94792156,23.0104216 7.12499312,23.5 8.5,23.5 L24.75,23.5 Z" id="↳-🎨-Fill" fill="#181C21"></path>
    </g>
</svg>