<?xml version="1.0" encoding="UTF-8"?>
<svg width="32px" height="32px" viewBox="0 0 32 32" version="1.1" xmlns="http://www.w3.org/2000/svg" xmlns:xlink="http://www.w3.org/1999/xlink">
    <!-- Generator: Sketch 63.1 (92452) - https://sketch.com -->
    <title>Icons/ion-logo-dribbble</title>
    <desc>Created with Sketch.</desc>
    <g id="Icons/ion-logo-dribbble" stroke="none" stroke-width="1" fill="none" fill-rule="evenodd" fill-opacity="0.9">
        <path d="M7.5,7.5 C9.833345,5.166655 12.66665,4 16,4 C19.33335,4 22.166655,5.166655 24.5,7.5 C26.833345,9.833345 28,12.66665 28,16 C28,19.33335 26.833345,22.166655 24.5,24.5 C22.166655,26.833345 19.33335,28 16,28 C12.66665,28 9.833345,26.833345 7.5,24.5 C5.166655,22.166655 4,19.33335 4,16 C4,12.66665 5.166655,9.833345 7.5,7.5 Z M23.625,9.5 C22.5833281,11.0416744 20.8125125,12.3749944 18.3125,13.5 C18.5625013,14.0416694 18.8333319,14.6874962 19.125,15.4375 C21.458345,15.2291656 23.7499887,15.1874994 26,15.3125 C25.8749994,13.1041556 25.0833406,11.166675 23.625,9.5 Z M16,6 C15.2916631,6 14.4791713,6.10416563 13.5625,6.3125 C14.8125062,7.56250625 16.10416,9.37498813 17.4375,11.75 C19.6875113,10.8333287 21.3333281,9.68750688 22.375,8.3125 C20.4999906,6.77082563 18.3750119,6 16,6 Z M11.5,7.125 C8.83332,8.50000688 7.10417063,10.6458188 6.3125,13.5625 L7.875,13.5625 C10.5833469,13.5625 13.104155,13.2083369 15.4375,12.5 C14.2291606,10.3333225 12.9166737,8.54167375 11.5,7.125 Z M6,15.5 L6,16 C6,18.5416794 6.833325,20.75 8.5,22.625 C10.0833413,19.6666519 12.6249825,17.4583406 16.125,16 C16.3333344,15.9166662 16.6249981,15.8333338 17,15.75 C16.7499987,15.08333 16.5416675,14.583335 16.375,14.25 C13.8749875,15.0416706 11.0000162,15.4791662 7.75,15.5625 C7.5833325,15.5625 7.29166875,15.5520834 6.875,15.53125 C6.45833125,15.5104166 6.1666675,15.5 6,15.5 Z M16,26 C17.2916731,26 18.4791612,25.7916687 19.5625,25.375 C19.3541656,23.6249913 19.0416687,21.9791744 18.625,20.4375 C18.4583325,19.7291631 18.1250025,18.70834 17.625,17.375 C17.1249975,17.5000006 16.7708344,17.6249994 16.5625,17.75 C13.4374844,19.1666738 11.20834,21.20832 9.875,23.875 C11.7083425,25.2916738 13.7499887,26 16,26 Z M21.375,24.375 C24.1250138,22.5833244 25.6458319,20.1666819 25.9375,17.125 C23.4791544,16.9583325 21.416675,16.9583325 19.75,17.125 C20.2083356,18.4166731 20.4583331,19.2083319 20.5,19.4999994 C20.8750019,20.9583406 21.1666656,22.5833244 21.375,24.375 Z" id="↳-🎨-Fill" fill="#181C21"></path>
    </g>
</svg>