<?xml version="1.0" encoding="UTF-8"?>
<svg width="32px" height="32px" viewBox="0 0 32 32" version="1.1" xmlns="http://www.w3.org/2000/svg" xmlns:xlink="http://www.w3.org/1999/xlink">
    <!-- Generator: Sketch 63.1 (92452) - https://sketch.com -->
    <title>Icons/ion-md-law</title>
    <desc>Created with Sketch.</desc>
    <g id="Icons/ion-md-law" stroke="none" stroke-width="1" fill="none" fill-rule="evenodd" fill-opacity="0.9">
        <path d="M28.9566667,18.8540328 L28.9605667,18.8527329 L24.6918019,9.53875754 L25.7270348,9.02352926 L25.3396349,8.2478702 L24.330402,8.75053193 L24.1939021,8.45283485 C24.0941271,8.23530365 23.8369439,8.13980876 23.6194107,8.23952861 C23.5250524,8.28280735 23.4493816,8.35847744 23.4061024,8.45283485 L23.2843358,8.71889891 C22.5498361,8.37776059 21.749849,8.20074566 20.9400035,8.200204 L17.3000051,8.200204 L17.3000051,7.33354583 L18.1666714,7.33354583 L18.1666714,6.46688766 L17.4217717,6.46688766 L17.7333382,5.22019989 C17.9725381,4.26292178 17.3904634,3.29296879 16.4331763,3.05371697 C15.4758892,2.81451932 14.5059271,3.39658861 14.2666731,4.35386672 C14.1956064,4.63823893 14.1956064,4.93577351 14.2666731,5.22014572 L14.5782396,6.4668335 L13.8333399,6.4668335 L13.8333399,7.33349166 L14.7000062,7.33349166 L14.7000062,8.20014983 L11.0621745,8.20014983 C10.2515165,8.20079982 9.45071684,8.37824808 8.7156755,8.72014473 L8.59390888,8.45408067 C8.49418809,8.23654947 8.23695071,8.14105458 8.01941747,8.24077443 C7.92505917,8.28405317 7.84938837,8.35972327 7.80610923,8.45408067 L7.66960929,8.75177775 L6.66037639,8.24694937 L6.27297656,9.02347509 L7.30820944,9.54087002 L3.03944463,18.8527329 C3.01311965,18.9093365 2.99968632,18.9710317 3.00000556,19.0334311 C3.00190715,20.7078688 4.35888989,22.0648389 6.03334333,22.0667347 L10.3666748,22.0667347 C12.0411282,22.0648389 13.398111,20.7078688 13.4000068,19.0334311 C13.3989235,18.9711942 13.384136,18.9099323 13.3566735,18.8540328 L9.07620867,9.50495787 C9.6984209,9.21614403 10.3762081,9.0666455 11.0621745,9.06686216 L14.7000062,9.06686216 L14.7000062,24.92064 L13.2206069,26.4000255 L11.6666742,26.4000255 C10.4706747,26.4014338 9.50141682,27.3706826 9.50000556,28.5666709 C9.50000556,28.8059769 9.6940334,29 9.93334163,29 L22.0666697,29 C22.3059779,29 22.5000056,28.8059769 22.5000056,28.5666709 C22.4985945,27.3706826 21.5293366,26.4014338 20.3333371,26.4000255 L18.7794044,26.4000255 L17.3000051,24.92064 L17.3000051,9.06686216 L20.9400035,9.06686216 C21.6259699,9.0666455 22.3037571,9.21614403 22.9259693,9.50495787 L18.6394378,18.8527329 C18.6131129,18.9093365 18.5996795,18.9710317 18.6000045,19.0334311 C18.6019004,20.7078688 19.9588831,22.0648389 21.6333365,22.0667347 L25.966668,22.0667347 C27.6411214,22.0648389 28.9981042,20.7078688 29.0000056,19.0334311 C28.9989708,18.9711942 28.9841833,18.9099323 28.9566667,18.8540328 Z M10.3666748,21.2000765 L6.03334333,21.2000765 C5.00406878,21.198939 4.11719833,20.4749544 3.91001092,19.4667602 L12.4900072,19.4667602 C12.2828739,20.4749544 11.3959493,21.198939 10.3666748,21.2000765 Z M12.2915406,18.600102 L4.1084775,18.600102 L8.08907577,9.91575384 C8.1617674,9.93525365 8.2382507,9.93525365 8.31094234,9.91575384 L12.2915406,18.600102 Z M15.2750393,4.2205097 C15.6124975,3.82011362 16.2106597,3.76914329 16.6110596,4.10659831 C16.652172,4.14126464 16.6903054,4.1793976 16.724972,4.2205097 C16.9002553,4.44345751 16.9621677,4.73508798 16.8926719,5.01003529 L16.5282388,6.46688766 L15.4717726,6.46688766 L15.1073394,5.01003529 C15.0378436,4.73508798 15.0998102,4.44345751 15.2750393,4.2205097 Z M15.5666725,8.200204 L15.5666725,7.33354583 L16.4333388,7.33354583 L16.4333388,8.200204 L15.5666725,8.200204 Z M16.4333388,9.06686216 L16.4333388,24.6667092 L15.5666725,24.6667092 L15.5666725,9.06686216 L16.4333388,9.06686216 Z M20.3333371,27.2666837 C20.8841035,27.2673337 21.3749075,27.6143219 21.5592366,28.1333418 L10.4407747,28.1333418 C10.6251038,27.6143219 11.1159078,27.2673337 11.6666742,27.2666837 L20.3333371,27.2666837 Z M17.5539383,26.4000255 L14.446073,26.4000255 L15.3127393,25.5333673 L16.687272,25.5333673 L17.5539383,26.4000255 Z M23.6882023,9.91705383 C23.7597564,9.94224108 23.8382439,9.93899111 23.9074689,9.90795391 L27.8915338,18.600102 L19.7084707,18.600102 L23.6882023,9.91705383 Z M25.966668,21.2000765 L21.6333365,21.2000765 C20.604062,21.198939 19.7171915,20.4749544 19.5100041,19.4667602 L28.0900004,19.4667602 C27.8828672,20.4749544 26.9959425,21.198939 25.966668,21.2000765 Z" id="↳-🎨-Fill" fill="#181C21"></path>
    </g>
</svg>