<?xml version="1.0" encoding="UTF-8"?>
<svg width="32px" height="32px" viewBox="0 0 32 32" version="1.1" xmlns="http://www.w3.org/2000/svg" xmlns:xlink="http://www.w3.org/1999/xlink">
    <!-- Generator: Sketch 63.1 (92452) - https://sketch.com -->
    <title>Icons/ion-logo-xbox</title>
    <desc>Created with Sketch.</desc>
    <g id="Icons/ion-logo-xbox" stroke="none" stroke-width="1" fill="none" fill-rule="evenodd" fill-opacity="0.9">
        <path d="M7.9375,15.5 C5.85415625,18.5416819 4.8125,21.5208188 4.8125,24.4375 C2.93749063,21.8958206 2,19.0833487 2,16 C2,11.7499788 3.60415062,8.22918062 6.8125,5.4375 L7,5.5 C7.95833813,5.833335 8.91666188,6.35416312 9.875,7.0625 C10.8333381,7.77083688 11.5624975,8.39583063 12.0625,8.9375 L12.8125,9.75 C11.2291587,11.1250069 9.604175,13.0416544 7.9375,15.5 Z M30,16 C30,19.0833487 29.0625094,21.8958206 27.1875,24.4375 C27.1875,21.5208188 26.1458437,18.5416819 24.0625,15.5 C23.3124963,14.4166613 22.5312541,13.3958381 21.71875,12.4375 C20.9062459,11.4791619 20.2916687,10.7916687 19.875,10.375 L19.1875,9.75 C20.9375087,7.66665625 22.8749894,6.25000375 25,5.5 L25.1875,5.4375 C28.3958494,8.22918062 30,11.7499788 30,16 Z M12.5625,5.0625 C10.8541581,4.27082938 9.35417312,4.06249813 8.0625,4.4375 C10.395845,2.81249187 13.0416519,2 16,2 C18.9583481,2 21.604155,2.81249187 23.9375,4.4375 C22.7291606,4.104165 21.2291756,4.31249625 19.4375,5.0625 C18.8958306,5.31250125 18.3437528,5.61458156 17.78125,5.96875 C17.2187472,6.32291844 16.7916681,6.62499875 16.5,6.875 L16,7.25 C14.9166613,6.33332875 13.7708394,5.60416937 12.5625,5.0625 Z M22.4375,18.3125 C24.2291756,20.4791775 25.5208294,22.729155 26.3125,25.0625 L26.4375,25.375 C23.6874862,28.4583487 20.2083544,30 16,30 C11.7916456,30 8.31251375,28.4583487 5.5625,25.375 L5.625,25.0625 C6.41667063,22.8124887 7.7291575,20.5625113 9.5625,18.3125 C10.3958375,17.2708281 11.3541613,16.2604216 12.4375,15.28125 C13.5208388,14.3020784 14.3749969,13.5833356 15,13.125 L16,12.4375 C18.3750119,13.9791744 20.5208237,15.9374881 22.4375,18.3125 Z" id="↳-🎨-Fill" fill="#181C21"></path>
    </g>
</svg>