<?xml version="1.0" encoding="UTF-8"?>
<svg width="32px" height="32px" viewBox="0 0 32 32" version="1.1" xmlns="http://www.w3.org/2000/svg" xmlns:xlink="http://www.w3.org/1999/xlink">
    <!-- Generator: Sketch 63.1 (92452) - https://sketch.com -->
    <title>Icons/ion-md-umbrella</title>
    <desc>Created with Sketch.</desc>
    <g id="Icons/ion-md-umbrella" stroke="none" stroke-width="1" fill="none" fill-rule="evenodd" fill-opacity="0.9">
        <path d="M25.625,15.25 C24.4583275,15.25 23.6875019,15.7916613 23.3125,16.875 L22.0625,16.875 C21.6041644,15.7916613 20.8125056,15.25 19.6875,15.25 C18.020825,15.25 17.1458338,15.91666 17.0625,17.25 L17.0625,24.6875 C17.0625,26.1875075 16.7708363,27.2291638 16.1875,27.8125 C15.3958294,28.6041706 14.5,29 13.5,29 C12.3749944,29 11.4687534,28.6458369 10.78125,27.9375 C10.0937466,27.2291631 9.75,26.3125056 9.75,25.1875 L9.75,23.875 L12.4375,23.875 L12.4375,25.1875 C12.4375,25.85417 12.7916631,26.1875 13.5,26.1875 C14.0416694,26.1875 14.3125,25.687505 14.3125,24.6875 L14.3125,17.3125 C14.2708331,16.7291638 14.0416687,16.2395853 13.625,15.84375 C13.2083313,15.4479147 12.7291694,15.25 12.1875,15.25 C11.1041613,15.25 10.4166681,15.7916613 10.125,16.875 L8.875,16.875 C8.5,15.7916613 7.75000563,15.25 6.625,15.25 C5.624995,15.25 4.8750025,15.7916613 4.375,16.875 L3,16.875 L3,16.625 C3,13.29165 4.07290594,10.4166787 6.21875,8 C8.36459406,5.58332125 11.0624838,4.22916813 14.3125,3.9375 C14.5208344,3.31249688 14.95833,3 15.625,3 C16.3333369,3 16.7916656,3.31249688 17,3.9375 C20.1666825,4.270835 22.9374881,5.64582125 25.3125,8.0625 C27.7708456,10.6041794 29,13.54165 29,16.875 L27.75,16.875 C27.2499975,15.7916613 26.5416713,15.25 25.625,15.25 Z" id="↳-🎨-Fill" fill="#181C21"></path>
    </g>
</svg>