<?xml version="1.0" encoding="UTF-8"?>
<svg width="32px" height="32px" viewBox="0 0 32 32" version="1.1" xmlns="http://www.w3.org/2000/svg" xmlns:xlink="http://www.w3.org/1999/xlink">
    <!-- Generator: Sketch 63.1 (92452) - https://sketch.com -->
    <title>Icons/ion-md-help-circle-outline</title>
    <desc>Created with Sketch.</desc>
    <g id="Icons/ion-md-help-circle-outline" stroke="none" stroke-width="1" fill="none" fill-rule="evenodd" fill-opacity="0.9">
        <path d="M23.3125,8.6875 C21.2708231,6.64582312 18.8333475,5.625 16,5.625 C13.1666525,5.625 10.7291769,6.64582312 8.6875,8.6875 C6.64582312,10.7291769 5.625,13.1666525 5.625,16 C5.625,18.8333475 6.64582312,21.2708231 8.6875,23.3125 C10.7291769,25.3541769 13.1666525,26.375 16,26.375 C18.8333475,26.375 21.2708231,25.3541769 23.3125,23.3125 C25.3541769,21.2708231 26.375,18.8333475 26.375,16 C26.375,13.1666525 25.3541769,10.7291769 23.3125,8.6875 Z M6.8125,6.8125 C9.35417938,4.27082062 12.4166488,3 16,3 C19.5833512,3 22.6458206,4.27082062 25.1875,6.8125 C27.7291794,9.35417938 29,12.4166488 29,16 C29,19.5833512 27.7291794,22.6458206 25.1875,25.1875 C22.6458206,27.7291794 19.5833512,29 16,29 C12.4166488,29 9.35417938,27.7291794 6.8125,25.1875 C4.27082063,22.6458206 3,19.5833512 3,16 C3,12.4166488 4.27082063,9.35417938 6.8125,6.8125 Z M14.6875,23.8125 L14.6875,21.1875 L17.3125,21.1875 L17.3125,23.8125 L14.6875,23.8125 Z M17.3125,19.875 L14.6875,19.875 C14.6875,18.9166619 14.8958313,18.1145866 15.3125,17.46875 C15.7291687,16.8229134 16.1770809,16.3541681 16.65625,16.0625 C17.1354191,15.7708319 17.5833313,15.3958356 18,14.9375 C18.4166687,14.4791644 18.625,13.9583363 18.625,13.375 C18.625,12.6666631 18.3645859,12.0520859 17.84375,11.53125 C17.3229141,11.0104141 16.7083369,10.75 16,10.75 C15.2916631,10.75 14.6770859,11.0104141 14.15625,11.53125 C13.6354141,12.0520859 13.375,12.6666631 13.375,13.375 L10.8125,13.375 C10.8125,11.9583262 11.3229116,10.7395884 12.34375,9.71875 C13.3645884,8.69791156 14.5833262,8.1875 16,8.1875 C17.4166738,8.1875 18.6354116,8.69791156 19.65625,9.71875 C20.6770884,10.7395884 21.1875,11.9583262 21.1875,13.375 C21.1875,14.5000056 20.5416731,15.6354109 19.25,16.78125 C17.9583269,17.9270891 17.3125,18.9583287 17.3125,19.875 Z" id="↳-🎨-Fill" fill="#181C21"></path>
    </g>
</svg>