<?xml version="1.0" encoding="UTF-8"?>
<svg width="32px" height="32px" viewBox="0 0 32 32" version="1.1" xmlns="http://www.w3.org/2000/svg" xmlns:xlink="http://www.w3.org/1999/xlink">
    <!-- Generator: Sketch 63.1 (92452) - https://sketch.com -->
    <title>Icons/ion-md-cog</title>
    <desc>Created with Sketch.</desc>
    <g id="Icons/ion-md-cog" stroke="none" stroke-width="1" fill="none" fill-rule="evenodd" fill-opacity="0.9">
        <path d="M30,18 L27.8125,18 C27.6874994,18.7916706 27.5,19.52083 27.25,20.1875 L29.125,21.25 L27.125,24.75 L25.25,23.625 C24.7499975,24.2083363 24.2083362,24.7499975 23.625,25.25 L24.75,27.125 L21.25,29.125 L20.1875,27.25 C19.52083,27.5 18.7916706,27.6874994 18,27.8125 L18,30 L14,30 L14,27.8125 C13.2083294,27.6874994 12.47917,27.5 11.8125,27.25 L10.75,29.125 L7.25,27.125 L8.375,25.25 C7.79166375,24.7499975 7.2500025,24.2083363 6.75,23.625 L4.875,24.75 L2.875,21.25 L4.75,20.1875 C4.5,19.52083 4.31250063,18.7916706 4.1875,18 L2,18 L2,14 L4.1875,14 C4.31250063,13.2083294 4.5,12.47917 4.75,11.8125 L2.875,10.75 L4.875,7.25 L6.75,8.375 C7.2500025,7.79166375 7.79166375,7.2500025 8.375,6.75 L7.25,4.875 L10.75,2.875 L11.8125,4.75 C12.47917,4.5 13.2083294,4.31250062 14,4.1875 L14,2 L18,2 L18,4.1875 C18.7916706,4.31250062 19.52083,4.5 20.1875,4.75 L21.25,2.875 L24.75,4.875 L23.625,6.75 C24.2083362,7.2500025 24.7499975,7.79166375 25.25,8.375 L27.125,7.25 L29.125,10.75 L27.25,11.8125 C27.5,12.47917 27.6874994,13.2083294 27.8125,14 L30,14 L30,18 Z M17.4375,14.5625 C17.0624981,14.1874981 16.5833363,14 16,14 C15.4166637,14 14.9375019,14.1874981 14.5625,14.5625 C14.1874981,14.9375019 14,15.4166637 14,16 C14,16.5833363 14.1874981,17.0624981 14.5625,17.4375 C14.9375019,17.8125019 15.4166637,18 16,18 C16.5833363,18 17.0624981,17.8125019 17.4375,17.4375 C17.8125019,17.0624981 18,16.5833363 18,16 C18,15.4166637 17.8125019,14.9375019 17.4375,14.5625 Z M8.8125,21.4375 L10.8125,19.0625 C10.2708306,18.1041619 10,17.0833387 10,16 L10,15.9375 L7.0625,14.875 C7.02083312,15.1250013 7,15.4999975 7,16 C7,18.00001 7.60416063,19.8124919 8.8125,21.4375 Z M11.375,12.1875 C12.0833369,11.3541625 12.9583281,10.75 14,10.375 L14,7.25 C11.6249881,7.75 9.77084,9.04165625 8.4375,11.125 L11.375,12.1875 Z M11.875,24 C13.20834,24.66667 14.5833262,25 16,25 C17.4166738,25 18.79166,24.66667 20.125,24 L18.125,21.625 C17.4999969,21.8750013 16.7916706,22 16,22 C15.2083294,22 14.5000031,21.8750013 13.875,21.625 L11.875,24 Z M18,10.375 C19.0416719,10.75 19.9166631,11.3541625 20.625,12.1875 L23.5625,11.125 C22.22916,9.04165625 20.3750119,7.75 18,7.25 L18,10.375 Z M23.1875,21.4375 C24.3958394,19.8124919 25,18.00001 25,16 C25,15.4999975 24.9791669,15.1250013 24.9375,14.875 L22,15.9375 L22,16 C22,17.0833387 21.7291694,18.1041619 21.1875,19.0625 L23.1875,21.4375 Z" id="↳-🎨-Fill" fill="#181C21"></path>
    </g>
</svg>