<?xml version="1.0" encoding="UTF-8"?>
<svg width="32px" height="32px" viewBox="0 0 32 32" version="1.1" xmlns="http://www.w3.org/2000/svg" xmlns:xlink="http://www.w3.org/1999/xlink">
    <!-- Generator: Sketch 63.1 (92452) - https://sketch.com -->
    <title>Icons/ion-md-partly-sunny</title>
    <desc>Created with Sketch.</desc>
    <g id="Icons/ion-md-partly-sunny" stroke="none" stroke-width="1" fill="none" fill-rule="evenodd" fill-opacity="0.9">
        <path d="M16.6875,8.5 L15.5,7.3125 L17.0625,5.75 L18.25,6.9375 L16.6875,8.5 Z M11,7.875 C12.9583431,7.875 14.4166619,8.68749187 15.375,10.3125 C14.875,10.4375006 14.4791681,10.5833325 14.1875,10.75 C12.9374937,11.3333362 11.875,12.1458281 11,13.1875 L10.1875,14.1875 C8.93749375,14.4791681 7.812505,15.0624956 6.8125,15.9375 C6.18749688,15.0208287 5.875,14.0416719 5.875,13 C5.875,11.5833262 6.375,10.375 7.375,9.375 C8.375,8.375 9.58332625,7.875 11,7.875 Z M10.125,6.5625 L10.125,4 L11.875,4 L11.875,6.5625 L10.125,6.5625 Z M2,13.875 L2,12.125 L4.5625,12.125 L4.5625,13.875 L2,13.875 Z M5.0625,17.25 L6.25,18.4375 L4.6875,20 L3.5,18.8125 L5.0625,17.25 Z M3.75,6.9375 L4.9375,5.75 L6.5,7.3125 L5.3125,8.5 L3.75,6.9375 Z M25.375,18.0625 C26.70834,18.1458338 27.8124956,18.6666619 28.6875,19.625 C29.5625044,20.5833381 30,21.7083269 30,23 C30,24.3750069 29.5104216,25.5520784 28.53125,26.53125 C27.5520784,27.5104216 26.3750069,28 25,28 L12,28 C10.333325,28 8.9166725,27.4166725 7.75,26.25 C6.5833275,25.0833275 6,23.666675 6,22 C6,20.5416594 6.44791219,19.2708387 7.34375,18.1875 C8.23958781,17.1041613 9.41665938,16.4166681 10.875,16.125 C11.2916687,16.0416662 11.666665,16 12,16 C13.33334,16 14.5104116,16.3749962 15.53125,17.125 C16.5520884,17.8750038 17.2708313,18.8333275 17.6875,20 L19.4375,20 C19.0624981,18.66666 18.3958381,17.5208381 17.4375,16.5625 C16.1458269,15.2708269 14.5416763,14.5625006 12.625,14.4375 C13.8750063,12.8124919 15.666655,12 18,12 C19.7916756,12 21.3854097,12.5729109 22.78125,13.71875 C24.1770903,14.8645891 25.041665,16.3124913 25.375,18.0625 Z" id="↳-🎨-Fill" fill="#181C21"></path>
    </g>
</svg>