<?xml version="1.0" encoding="UTF-8"?>
<svg width="32px" height="32px" viewBox="0 0 32 32" version="1.1" xmlns="http://www.w3.org/2000/svg" xmlns:xlink="http://www.w3.org/1999/xlink">
    <!-- Generator: Sketch 63.1 (92452) - https://sketch.com -->
    <title>Icons/ion-logo-octocat</title>
    <desc>Created with Sketch.</desc>
    <g id="Icons/ion-logo-octocat" stroke="none" stroke-width="1" fill="none" fill-rule="evenodd" fill-opacity="0.9">
        <path d="M11.125,18 C11.7083363,18 12.166665,18.2499975 12.5,18.75 C12.9166687,19.2916694 13.125,19.9583294 13.125,20.75 C13.125,21.5 12.9166687,22.1458306 12.5,22.6875 C12.0833313,23.2291694 11.625,23.5 11.125,23.5 C10.5833306,23.5 10.1041687,23.2291694 9.6875,22.6875 C9.31249813,22.1874975 9.125,21.5416706 9.125,20.75 C9.125,19.9166625 9.31249813,19.2500025 9.6875,18.75 C10.020835,18.2499975 10.4999969,18 11.125,18 Z M20.9375,18 C21.5208362,18 21.979165,18.2499975 22.3125,18.75 C22.6875019,19.2500025 22.875,19.9166625 22.875,20.75 C22.875,21.5416706 22.6875019,22.1874975 22.3125,22.6875 C21.8958313,23.2291694 21.4375025,23.5 20.9375,23.5 C20.3958306,23.5 19.9166687,23.2291694 19.5,22.6875 C19.0833313,22.1458306 18.875,21.5 18.875,20.75 C18.875,19.9583294 19.0833313,19.2916694 19.5,18.75 C19.833335,18.2499975 20.3124969,18 20.9375,18 Z M27.875,10.75 C29.2916738,12.3333413 30,14.3333213 30,16.75 C30,18.6666763 29.8750013,20.0208294 29.625,20.8125 C29.2499981,22.0208394 28.8125025,23 28.3125,23.75 C27.7291638,24.5 27.0625038,25.1666638 26.3125,25.75 C25.2708281,26.5 24.5625019,26.9374994 24.1875,27.0625 C23.5624969,27.3125013 22.8125044,27.5 21.9375,27.625 C20.8541613,27.7916675 20.2083344,27.875 20,27.875 C18.8333275,27.9583338 17.5,28 16,28 L12,27.875 C11.7916656,27.875 11.1458387,27.7916675 10.0625,27.625 C9.18749563,27.5 8.43750312,27.3125013 7.8125,27.0625 C7.27083063,26.8541656 6.56250437,26.41667 5.6875,25.75 C4.97916312,25.2499975 4.31250313,24.5833375 3.6875,23.75 C3.1874975,23 2.75000187,22.0208394 2.375,20.8125 C2.12499875,19.8541619 2,18.5 2,16.75 C2,14.2916544 2.70832625,12.2916744 4.125,10.75 C4.04166625,10.1666638 4.04166625,9.35417187 4.125,8.3125 C4.25000063,6.68749187 4.58333063,5.25000625 5.125,4 C6.9583425,4.1666675 9.2916525,5.22915687 12.125,7.1875 C13.0416713,6.93749875 14.333325,6.8125 16,6.8125 C17.7083419,6.8125 19,6.93749875 19.875,7.1875 C21.0416725,6.3541625 22.2499938,5.66666937 23.5,5.125 C24.6666725,4.6249975 25.5208306,4.31250062 26.0625,4.1875 L26.875,4 C27.4166694,5.25000625 27.7499994,6.68749187 27.875,8.3125 L27.875,10.75 Z M23.75,25.375 C25.5000087,24.5416625 26.375,22.8541794 26.375,20.3125 C26.375,18.8124925 25.8333388,17.5833381 24.75,16.625 C24.2083306,16.125 23.5416706,15.8125006 22.75,15.6875 C22.1666637,15.6041662 21.0000087,15.625 19.25,15.75 C17.1666562,15.9166675 16.0833338,16 16,16 C15.7083319,16 15.2604197,15.9687503 14.65625,15.90625 C14.0520803,15.8437497 13.6250013,15.8125 13.375,15.8125 C13.041665,15.8125 12.6041694,15.7812503 12.0625,15.71875 C11.5208306,15.6562497 11.1458344,15.625 10.9375,15.625 C9.937495,15.625 9.29166813,15.6666662 9,15.75 C8.29166312,15.9583344 7.70833563,16.2499981 7.25,16.625 C6.20832812,17.5416713 5.6875,18.7708256 5.6875,20.3125 C5.6875,22.8958462 6.54165812,24.5833294 8.25,25.375 C9.79167437,26.125 12.3541488,26.5 15.9375,26.5 L16.0625,26.5 C19.5625175,26.5 22.1249919,26.125 23.75,25.375 Z" id="↳-🎨-Fill" fill="#181C21"></path>
    </g>
</svg>