<?xml version="1.0" encoding="UTF-8"?>
<svg width="32px" height="32px" viewBox="0 0 32 32" version="1.1" xmlns="http://www.w3.org/2000/svg" xmlns:xlink="http://www.w3.org/1999/xlink">
    <!-- Generator: Sketch 63.1 (92452) - https://sketch.com -->
    <title>Icons/ion-logo-apple</title>
    <desc>Created with Sketch.</desc>
    <g id="Icons/ion-logo-apple" stroke="none" stroke-width="1" fill="none" fill-rule="evenodd" fill-opacity="0.9">
        <path d="M20.875,9.625 C22.5833419,9.625 24.0624938,10.4374919 25.3125,12.0625 C24.0624938,12.7708369 23.2500019,13.79166 22.875,15.125 C22.4999981,16.45834 22.6041638,17.7499938 23.1875,19 C23.7708363,20.2500062 24.7083269,21.125 26,21.625 C25.5416644,22.7083387 25.0416694,23.6666625 24.5,24.5 C22.9999925,26.833345 21.6458394,28 20.4375,28 L20.375,28 C19.9166644,28 19.3229203,27.833335 18.59375,27.5 C17.8645797,27.166665 17.1458369,27 16.4375,27 C15.6874962,27 14.9479203,27.166665 14.21875,27.5 C13.4895797,27.833335 12.8958356,28 12.4375,28 L12.375,28 C11.1249938,28 9.79167375,26.8958444 8.375,24.6875 C7.04166,22.6041562 6.27083437,20.395845 6.0625,18.0625 C5.85416563,15.729155 6.18749563,13.9166731 7.0625,12.625 C8.31250625,10.625 9.93749,9.625 11.9375,9.625 C12.5625031,9.625 13.3437453,9.791665 14.28125,10.125 C15.2187547,10.458335 15.9166644,10.625 16.375,10.625 C16.7916687,10.625 17.4583287,10.458335 18.375,10.125 C19.2916713,9.791665 20.1249963,9.625 20.875,9.625 Z M20.375,4 C20.5416675,5.33334 20.1666713,6.62499375 19.25,7.875 C18.2916619,9.12500625 17.1250069,9.75 15.75,9.75 L15.6875,9.75 C15.4791656,8.54166062 15.8541619,7.29167312 16.8125,6 C17.8541719,4.74999375 19.04166,4.08333375 20.375,4 Z" id="↳-🎨-Fill" fill="#181C21"></path>
    </g>
</svg>