<?xml version="1.0" encoding="UTF-8"?>
<svg width="32px" height="32px" viewBox="0 0 32 32" version="1.1" xmlns="http://www.w3.org/2000/svg" xmlns:xlink="http://www.w3.org/1999/xlink">
    <!-- Generator: Sketch 63.1 (92452) - https://sketch.com -->
    <title>Icons/ion-md-thumbs-up</title>
    <desc>Created with Sketch.</desc>
    <g id="Icons/ion-md-thumbs-up" stroke="none" stroke-width="1" fill="none" fill-rule="evenodd" fill-opacity="0.9">
        <path d="M12.375,28 C11.70833,28 11.1458356,27.7708356 10.6875,27.3125 C10.2291644,26.8541644 10,26.29167 10,25.625 L10,13.625 C10,12.95833 10.2291644,12.3958356 10.6875,11.9375 L18.5625,4 L19.8125,5.25 C20.1875019,5.62500188 20.375,6.04166437 20.375,6.5 L20.3125,6.875 L19.1875,12 L26.625,12 C27.2500031,12 27.8020809,12.3020803 28.28125,12.90625 C28.7604191,13.5104197 29,14.14583 29,14.8125 L29,17.1875 C29,17.520835 28.9375006,17.8124987 28.8125,18.0625 L25.25,26.5625 C24.8333313,27.5208381 24.125005,28 23.125,28 L12.375,28 Z M3,28 L3,14 L7,14 L7,28 L3,28 Z" id="↳-🎨-Fill" fill="#181C21"></path>
    </g>
</svg>