<?xml version="1.0" encoding="UTF-8"?>
<svg width="32px" height="32px" viewBox="0 0 32 32" version="1.1" xmlns="http://www.w3.org/2000/svg" xmlns:xlink="http://www.w3.org/1999/xlink">
    <!-- Generator: Sketch 63.1 (92452) - https://sketch.com -->
    <title>Icons/ion-ios-thumbs-up</title>
    <desc>Created with Sketch.</desc>
    <g id="Icons/ion-ios-thumbs-up" stroke="none" stroke-width="1" fill="none" fill-rule="evenodd" fill-opacity="0.9">
        <path d="M26.9375,24.3125 C26.7708325,24.4791675 26.7083331,24.6458325 26.75,24.8125 L26.75,24.875 L26.8125,25 C27.0625012,25.4583356 27.0833344,25.9374975 26.875,26.4375 C26.3749975,27.6458394 24.79168,28.416665 22.125,28.75 C20.7083262,28.9166675 19.5416713,29 18.625,29 C16.5833231,29 14.22918,28.833335 11.5625,28.5 C10.4791613,28.3749994 9.5208375,28.1250019 8.6875,27.75 C7.35416,27.2499975 5.95834062,27 4.5,27 C4.166665,27 4,26.833335 4,26.5 L4,16.5 C4,16.166665 4.166665,16 4.5,16 C5,16 5.45833125,15.7916687 5.875,15.375 C6.12500125,15.1249987 6.416665,14.7291694 6.75,14.1875 C7.41667,13.187495 7.95833125,12.5 8.375,12.125 C8.41666688,12.0833331 8.51041594,12 8.65625,11.875 C8.80208406,11.7499994 8.91666625,11.6458338 9,11.5625 C11.0416769,9.77082438 12.229165,8.52083688 12.5625,7.8125 C12.6875006,7.52083187 12.9374981,6.64584062 13.3125,5.1875 C13.3958337,4.93749875 13.4583331,4.67708469 13.5,4.40625 C13.5416669,4.13541531 13.5729166,3.93750062 13.59375,3.8125 C13.6145834,3.68749937 13.6458331,3.58333375 13.6875,3.5 C13.9791681,3.166665 14.5624956,3 15.4375,3 C16.0625031,3 16.6041644,3.39582937 17.0625,4.1875 C17.8958375,5.64584062 17.9583369,7.52082187 17.25,9.8125 C17.0833325,10.4375031 16.7708356,11.1874956 16.3125,12.0625 C16.1041656,12.4791687 16,12.7499994 16,12.875 C16.0416669,13.1250013 16.39583,13.2291669 17.0625,13.1875 C17.3125013,13.1875 17.7499969,13.1250006 18.375,13 C21.0000131,12.5833313 22.6666631,12.3541669 23.375,12.3125 C24.8333406,12.1874994 25.8124975,12.4374969 26.3125,13.0625 C26.9375031,13.7708369 27.1041681,14.5624956 26.8125,15.4375 C26.6874994,15.8958356 26.7708319,16.2708319 27.0625,16.5625 C27.4791687,16.9791687 27.6875,17.4583306 27.6875,18 C27.6875,18.66667 27.5625013,19.2083313 27.3125,19.625 C27.1874994,19.8333344 27.1458331,20.0416656 27.1875,20.25 L27.1875,20.3125 C27.1875,20.3541669 27.2291662,20.4166662 27.3125,20.5 C27.7708356,21.0416694 28,21.64583 28,22.3125 C28,23.1041706 27.6458369,23.7708306 26.9375,24.3125 Z" id="↳-🎨-Fill" fill="#181C21"></path>
    </g>
</svg>