<?xml version="1.0" encoding="UTF-8"?>
<svg width="32px" height="32px" viewBox="0 0 32 32" version="1.1" xmlns="http://www.w3.org/2000/svg" xmlns:xlink="http://www.w3.org/1999/xlink">
    <!-- Generator: Sketch 63.1 (92452) - https://sketch.com -->
    <title>Icons/ion-md-demolition</title>
    <desc>Created with Sketch.</desc>
    <g id="Icons/ion-md-demolition" stroke="none" stroke-width="1" fill="none" fill-rule="evenodd" fill-opacity="0.9">
        <path d="M13.5,24 C14.8807119,24 16,25.1192881 16,26.5 C16,27.8807119 14.8807119,29 13.5,29 L13.5,29 L5.5,29 C4.11928813,29 3,27.8807119 3,26.5 C3,25.1192881 4.11928813,24 5.5,24 L5.5,24 Z M5.5,25 C4.67157288,25 4,25.6715729 4,26.5 C4,27.3284271 4.67157288,28 5.5,28 C6.32842712,28 7,27.3284271 7,26.5 C7,25.6715729 6.32842712,25 5.5,25 Z M10.0740251,25.1141807 C9.51351356,24.8820092 8.86833682,25.0103428 8.43933983,25.4393398 C8.01034283,25.8683368 7.8820092,26.5135136 8.1141807,27.0740251 C8.3463522,27.6345367 8.89330663,28 9.5,28 C10.3284271,28 11,27.3284271 11,26.5 C11,25.8933066 10.6345367,25.3463522 10.0740251,25.1141807 Z M13.5,25 C12.6715729,25 12,25.6715729 12,26.5 C12,27.3284271 12.6715729,28 13.5,28 C14.3284271,28 15,27.3284271 15,26.5 C15,25.6715729 14.3284271,25 13.5,25 Z M5.5,26 C5.77614237,26 6,26.2238576 6,26.5 C6,26.7761424 5.77614237,27 5.5,27 C5.22385763,27 5,26.7761424 5,26.5 C5,26.2238576 5.22385763,26 5.5,26 Z M9.5,26 C9.77614237,26 10,26.2238576 10,26.5 C10,26.7761424 9.77614237,27 9.5,27 C9.22385763,27 9,26.7761424 9,26.5 C9,26.2238576 9.22385763,26 9.5,26 Z M25.5,20 C27.4329966,20 29,21.5670034 29,23.5 C29,25.4329966 27.4329966,27 25.5,27 C23.5670034,27 22,25.4329966 22,23.5 C22,21.5670034 23.5670034,20 25.5,20 Z M13.5,26 C13.7761424,26 14,26.2238576 14,26.5 C14,26.7761424 13.7761424,27 13.5,27 C13.2238576,27 13,26.7761424 13,26.5 C13,26.2238576 13.2238576,26 13.5,26 Z M13.6875629,22 C14.4983181,22.0000239 15.2951572,22.1517311 16,22.4402563 L16,22.4402563 L15.2227322,23 C14.7420929,22.8382389 14.2181001,22.7542262 13.6875629,22.7538636 L13.6875629,22.7538636 L5.3129605,22.7538636 C4.78242336,22.7542262 4.25843047,22.8382389 3.7777912,23 L3.7777912,23 L3,22.4398794 C3.70512909,22.1515675 4.50210281,22 5.3129605,22 L5.3129605,22 Z M7.5,17 L7.5,18.1336262 C7.49922288,18.4303871 7.70049575,18.6775899 7.9615,18.7004393 L7.9615,18.7004393 L14,19.2253082 L14,21 C13.835,20.9835624 13.669,20.9676917 13.5,20.9676917 L13.5,20.9676917 L5.5,20.9676917 C5.3315,20.9676917 5.1655,20.9835624 5,21 L5,21 L5,17 L7.5,17 Z M10.1428571,12 C11.7200304,12.0017083 12.9981108,13.1573959 13,14.5835343 L13,14.5835343 L13,18 L9,17.7220117 L9,12 Z M26,17 L26,18 C25.6678281,17.9617753 25.3321719,17.9617753 25,18 L25,18 L25,17 L26,17 Z M26,7 L26,16 L25,16 L25,7 L26,7 Z M8,12 L8,16 L6,16 L6,12 L8,12 Z M15.731378,8 L18,10.3361244 L13.2549005,15 L13.2549005,14.6530353 C13.252466,13.1491948 12.3586142,11.7993286 11,11.2477572 L11,11.2477572 L15.731378,8 Z M22.548196,4 L24,5.45966432 L19.2692515,10 L17,7.71846237 L22.548196,4 Z M23.5858764,2.86025762 L26.4337143,5.70809552 L25.6251446,6.51666519 L22.7773067,3.66882729 L23.5858764,2.86025762 Z" id="↳-🎨-Fill" fill="#181C21"></path>
    </g>
</svg>