<?xml version="1.0" encoding="UTF-8"?>
<svg width="32px" height="32px" viewBox="0 0 32 32" version="1.1" xmlns="http://www.w3.org/2000/svg" xmlns:xlink="http://www.w3.org/1999/xlink">
    <!-- Generator: Sketch 63.1 (92452) - https://sketch.com -->
    <title>Icons/ion-md-thunderstorm</title>
    <desc>Created with Sketch.</desc>
    <g id="Icons/ion-md-thunderstorm" stroke="none" stroke-width="1" fill="none" fill-rule="evenodd" fill-opacity="0.9">
        <path d="M24.5625,10.0625 C26.0625075,10.1458338 27.3437447,10.7499944 28.40625,11.875 C29.4687553,13 30,14.3333256 30,15.875 C30,17.4583413 29.4479222,18.7083287 28.34375,19.625 C27.2395778,20.5416713 25.854175,21 24.1875,21 L18.3125,21 L19.4375,18.75 L17.375,18.75 L19.4375,14.5625 L13.25,14.5625 L13.25,21 L9,21 C7,21 5.33334,20.4270891 4,19.28125 C2.66666,18.1354109 2,16.6250094 2,14.75 C2,13.0416581 2.53124469,11.5416731 3.59375,10.25 C4.65625531,8.95832688 6.020825,8.145835 7.6875,7.8125 C8.1875025,7.72916625 8.62499813,7.6875 9,7.6875 C10.5416744,7.6875 11.9166606,8.12499563 13.125,9 C14.3333394,9.87500437 15.1666644,11 15.625,12.375 L17.6875,12.375 C17.3124981,10.8333256 16.5416725,9.4791725 15.375,8.3125 C13.9166594,6.85415938 12.020845,6.02083437 9.6875,5.8125 C11.1875075,3.93749062 13.2916531,3 16,3 C18.1250106,3 19.9791587,3.66666 21.5625,5 C23.1458413,6.33334 24.1458313,8.02082312 24.5625,10.0625 Z M13.25,23 L13.25,21 L18.3125,21 L14.625,29 L14.625,23 L13.25,23 Z" id="↳-🎨-Fill" fill="#181C21"></path>
    </g>
</svg>