<?xml version="1.0" encoding="UTF-8"?>
<svg width="32px" height="32px" viewBox="0 0 32 32" version="1.1" xmlns="http://www.w3.org/2000/svg" xmlns:xlink="http://www.w3.org/1999/xlink">
    <!-- Generator: Sketch 63.1 (92452) - https://sketch.com -->
    <title>Icons/ion-md-grid</title>
    <desc>Created with Sketch.</desc>
    <g id="Icons/ion-md-grid" stroke="none" stroke-width="1" fill="none" fill-rule="evenodd" fill-opacity="0.9">
        <path d="M25.625,4 C26.29167,4 26.8541644,4.22916437 27.3125,4.6875 C27.7708356,5.14583563 28,5.70833 28,6.375 L28,25.625 C28,26.29167 27.7708356,26.8541644 27.3125,27.3125 C26.8541644,27.7708356 26.29167,28 25.625,28 L6.375,28 C5.70833,28 5.14583563,27.7708356 4.6875,27.3125 C4.22916437,26.8541644 4,26.29167 4,25.625 L4,6.375 C4,5.70833 4.22916437,5.14583563 4.6875,4.6875 C5.14583563,4.22916437 5.70833,4 6.375,4 L25.625,4 Z M11.1875,25.625 L11.1875,20.8125 L6.375,20.8125 L6.375,25.625 L11.1875,25.625 Z M11.1875,18.375 L11.1875,13.625 L6.375,13.625 L6.375,18.375 L11.1875,18.375 Z M11.1875,11.1875 L11.1875,6.375 L6.375,6.375 L6.375,11.1875 L11.1875,11.1875 Z M18.375,25.625 L18.375,20.8125 L13.625,20.8125 L13.625,25.625 L18.375,25.625 Z M18.375,18.375 L18.375,13.625 L13.625,13.625 L13.625,18.375 L18.375,18.375 Z M18.375,11.1875 L18.375,6.375 L13.625,6.375 L13.625,11.1875 L18.375,11.1875 Z M25.625,25.625 L25.625,20.8125 L20.8125,20.8125 L20.8125,25.625 L25.625,25.625 Z M25.625,18.375 L25.625,13.625 L20.8125,13.625 L20.8125,18.375 L25.625,18.375 Z M25.625,11.1875 L25.625,6.375 L20.8125,6.375 L20.8125,11.1875 L25.625,11.1875 Z" id="↳-🎨-Fill" fill="#181C21"></path>
    </g>
</svg>