<?xml version="1.0" encoding="UTF-8"?>
<svg width="32px" height="32px" viewBox="0 0 32 32" version="1.1" xmlns="http://www.w3.org/2000/svg" xmlns:xlink="http://www.w3.org/1999/xlink">
    <!-- Generator: Sketch 63.1 (92452) - https://sketch.com -->
    <title>Icons/ion-md-person-add</title>
    <desc>Created with Sketch.</desc>
    <g id="Icons/ion-md-person-add" stroke="none" stroke-width="1" fill="none" fill-rule="evenodd" fill-opacity="0.9">
        <path d="M23.25,14.25 C22.0833275,15.4166725 20.666675,16 19,16 C17.333325,16 15.9166725,15.4166725 14.75,14.25 C13.5833275,13.0833275 13,11.666675 13,10 C13,8.333325 13.5833275,6.9166725 14.75,5.75 C15.9166725,4.5833275 17.333325,4 19,4 C20.666675,4 22.0833275,4.5833275 23.25,5.75 C24.4166725,6.9166725 25,8.333325 25,10 C25,11.666675 24.4166725,13.0833275 23.25,14.25 Z M11.125,20.6875 C13.8750137,19.5624944 16.4999875,19 19,19 C21.5000125,19 24.1249862,19.5520778 26.875,20.65625 C29.6250138,21.7604222 31,23.2083244 31,25 L31,28 L7,28 L7,25 C7,23.2083244 8.37498625,21.7708387 11.125,20.6875 Z M7,14 L11,14 L11,16 L7,16 L7,20 L5,20 L5,16 L1,16 L1,14 L5,14 L5,10 L7,10 L7,14 Z" id="↳-🎨-Fill" fill="#181C21"></path>
    </g>
</svg>