<?xml version="1.0" encoding="UTF-8"?>
<svg width="32px" height="32px" viewBox="0 0 32 32" version="1.1" xmlns="http://www.w3.org/2000/svg" xmlns:xlink="http://www.w3.org/1999/xlink">
    <!-- Generator: Sketch 63.1 (92452) - https://sketch.com -->
    <title>Icons/ion-md-cryptocurrency</title>
    <desc>Created with Sketch.</desc>
    <g id="Icons/ion-md-cryptocurrency" stroke="none" stroke-width="1" fill="none" fill-rule="evenodd" fill-opacity="0.9">
        <path d="M11.3616629,4.33984375 C13.512012,4.33984375 15.540822,4.61969397 17.0743672,5.12787238 C19.2637201,5.8533856 19.7232743,6.78954639 19.7232743,7.44712349 L19.7232743,7.44712349 L19.7232743,10.9736213 C20.1340481,10.9123217 20.5544956,10.8804054 20.9823529,10.8804054 C22.8066764,10.8804054 24.5402828,11.4484142 25.9958722,12.5229803 C27.4031442,13.5618812 28.4618529,15.0408724 28.977031,16.6875508 C29.0606986,16.9548878 28.9083372,17.2384869 28.636752,17.3208107 C28.3652698,17.4032865 28.0772187,17.2532292 27.9935512,16.9857909 C27.0405847,13.9400134 24.2230562,11.8935706 20.9824043,11.8935706 C16.9384203,11.8935706 13.6484221,15.1308966 13.6484221,19.1100993 C13.6484221,23.0893019 16.9384203,26.3266279 20.9824043,26.3266279 C24.2230047,26.3266279 27.0405847,24.2801852 27.9935512,21.2344076 C28.0771673,20.9669693 28.3651155,20.816912 28.636752,20.8993878 C28.9083372,20.9817623 29.0606986,21.26526 28.9770825,21.5326984 C28.4618529,23.1793768 27.4031442,24.658368 25.9959236,25.6972689 C24.5403343,26.7718349 22.8066764,27.3398438 20.9824043,27.3398438 C19.0642249,27.3398438 17.2951138,26.7006565 15.8825417,25.6278636 C14.5449412,25.9302578 12.9883951,26.0896874 11.3616114,26.0896874 C9.21126224,26.0896874 7.1824523,25.8098371 5.64890704,25.3016587 C3.45955416,24.5761455 3,23.6399847 3,22.9824076 L3,22.9824076 L3,7.44712349 C3,6.78954639 3.45955416,5.8533856 5.64890704,5.12787238 C7.18250376,4.61969397 9.21131369,4.33984375 11.3616629,4.33984375 Z M4.0291214,20.6668548 L4.0291214,22.9824076 C4.0291214,23.8362446 6.88560223,25.0765222 11.3616629,25.0765222 C12.6256812,25.0765222 13.8405591,24.9761631 14.9305015,24.784564 C14.1944739,24.0247534 13.6043757,23.1269429 13.2046135,22.1352072 C12.6007765,22.1819164 11.9827891,22.2059297 11.3616114,22.2059297 C9.21126224,22.2059297 7.1824523,21.9260288 5.64890704,21.4178504 C4.94313558,21.1839495 4.41792347,20.9281125 4.0291214,20.6668548 L4.0291214,20.6668548 Z M21.6811309,13.3398438 C21.9611045,13.3398438 22.188054,13.5573322 22.188054,13.8256344 L22.188054,13.8256344 L22.188054,14.4371962 C23.2235965,14.6593482 24,15.5463533 24,16.6043567 C24,17.3060813 23.658131,17.9324597 23.1259632,18.3398438 C23.658131,18.7472278 24,19.3735576 24,20.0753308 C24,21.1333342 23.2235965,22.0203393 22.188054,22.2424913 L22.188054,22.2424913 L22.188054,22.8540531 C22.188054,23.1223553 21.9611045,23.3398438 21.6811309,23.3398438 C21.4011572,23.3398438 21.1742078,23.1223553 21.1742078,22.8540531 L21.1742078,22.8540531 L21.1742078,22.2966084 L19.56569,22.2966084 L19.56569,22.8540531 C19.56569,23.1223553 19.3387405,23.3398438 19.0587669,23.3398438 C18.7787932,23.3398438 18.5518438,23.1223553 18.5518438,22.8540531 L18.5518438,22.8540531 L18.5518438,22.2966084 L17.5069231,22.2966084 C17.2269495,22.2966084 17,22.0791199 17,21.8108178 C17,21.5425156 17.2269495,21.3250271 17.5069231,21.3250271 L17.5069231,21.3250271 L18.4800127,21.3250271 L18.4800127,15.3546604 L17.5069231,15.3546604 C17.2269495,15.3546604 17,15.1371719 17,14.8688697 C17,14.6005676 17.2269495,14.3830791 17.5069231,14.3830791 L17.5069231,14.3830791 L18.5518438,14.3830791 L18.5518438,13.8256344 C18.5518438,13.5573322 18.7787932,13.3398438 19.0587669,13.3398438 C19.3387405,13.3398438 19.56569,13.5573322 19.56569,13.8256344 L19.56569,13.8256344 L19.56569,14.3830791 L21.1742078,14.3830791 L21.1742078,13.8256344 C21.1742078,13.5573322 21.4011572,13.3398438 21.6811309,13.3398438 Z M21.6811309,18.8256344 L19.493859,18.8256344 L19.493859,21.3250271 L21.6811309,21.3250271 C22.4007082,21.3250271 22.9861538,20.7644248 22.9861538,20.0753308 C22.9861538,19.3862368 22.4007082,18.8256344 21.6811309,18.8256344 L21.6811309,18.8256344 Z M4.0291214,16.783401 L4.0291214,19.0985993 C4.0291214,19.9524363 6.88560223,21.1927138 11.3616114,21.1927138 C11.8716954,21.1927138 12.3792067,21.1757424 12.8776102,21.1428129 C12.7090915,20.4924297 12.6192492,19.8113966 12.6192492,19.1100993 C12.6192492,18.8323261 12.6335026,18.5577446 12.6609801,18.2869627 C12.2305501,18.3105706 11.7959521,18.3235398 11.3616629,18.3235398 C9.21157097,18.3235398 7.18270958,18.0434363 5.64885558,17.5347512 C4.94308412,17.3006984 4.41792347,17.04476 4.0291214,16.783401 L4.0291214,16.783401 Z M28.5,18.3398438 C28.77615,18.3398438 29,18.5619828 29,18.8376968 L29,18.8376968 C29,19.1163067 28.77615,19.3398438 28.5,19.3398438 C28.22385,19.3398438 28,19.1163067 28,18.8405428 C28,18.5647788 28.22385,18.3398438 28.5,18.3398438 Z M21.6811309,15.3546604 L19.493859,15.3546604 L19.493859,17.8540531 L21.6811309,17.8540531 C22.4007082,17.8540531 22.9861538,17.2934507 22.9861538,16.6043567 C22.9861538,15.9152627 22.4007082,15.3546604 21.6811309,15.3546604 L21.6811309,15.3546604 Z M4.0291214,12.899542 L4.0291214,15.2147909 C4.0291214,16.0691852 6.88560223,17.3103239 11.3616629,17.3102733 C11.8538916,17.3102733 12.346635,17.2936565 12.8319686,17.2620442 C13.089249,16.162705 13.5713923,15.1471081 14.2273543,14.2640904 C13.3175081,14.3795464 12.3481272,14.4396808 11.3616629,14.4396808 C9.21157097,14.4396808 7.18270958,14.1595772 5.64885558,13.6508922 C4.94308412,13.4168393 4.41792347,13.160901 4.0291214,12.899542 L4.0291214,12.899542 Z M18.6942043,9.01573362 C18.3054023,9.27709265 17.7802416,9.53303097 17.0744702,9.76708384 C15.5406162,10.2757182 13.5117548,10.5558724 11.3616629,10.5558724 C9.21157097,10.5558724 7.18270958,10.2757689 5.64885558,9.76708384 C4.94308412,9.53303097 4.41792347,9.27709265 4.0291214,9.01573362 L4.0291214,9.01573362 L4.0291214,11.3309825 C4.0291214,12.1853768 6.88560223,13.4264649 11.3616629,13.4264649 C12.7669281,13.4264649 14.1313888,13.2998129 15.3189434,13.06039 C16.2681021,12.1992578 17.4193802,11.550749 18.6942043,11.1934385 L18.6942043,11.1934385 Z M11.3616629,5.35305961 C6.88560223,5.35305961 4.0291214,6.59328648 4.0291214,7.44712349 C4.0291214,8.30156842 6.88560223,9.54265653 11.3616629,9.54265653 C15.8377235,9.54265653 18.6942043,8.30151776 18.6942043,7.44712349 C18.6942043,6.59328648 15.8377235,5.35305961 11.3616629,5.35305961 Z" id="↳-🎨-Fill" fill="#181C21"></path>
    </g>
</svg>