<?xml version="1.0" encoding="UTF-8"?>
<svg width="32px" height="32px" viewBox="0 0 32 32" version="1.1" xmlns="http://www.w3.org/2000/svg" xmlns:xlink="http://www.w3.org/1999/xlink">
    <!-- Generator: Sketch 63.1 (92452) - https://sketch.com -->
    <title>Icons/ion-ios-return-left</title>
    <desc>Created with Sketch.</desc>
    <g id="Icons/ion-ios-return-left" stroke="none" stroke-width="1" fill="none" fill-rule="evenodd" fill-opacity="0.9">
        <path d="M4.375,16.5625 L8.125,12.875 C8.2916675,12.7083325 8.5,12.625 8.75,12.625 C9,12.625 9.2083325,12.7083325 9.375,12.875 C9.5416675,13.0416675 9.625,13.2499987 9.625,13.5 C9.625,13.7500013 9.5416675,13.9583325 9.375,14.125 L6.8125,16.625 L23.125,16.625 C23.9583375,16.625 24.6874969,16.3125031 25.3125,15.6875 C25.9375031,15.1458306 26.25,14.4166713 26.25,13.5 L26.25,10.5 C26.25,9.91666375 26.5416637,9.625 27.125,9.625 C27.7083363,9.625 28,9.91666375 28,10.5 L28,13.5 C28,14.83334 27.5208381,15.9791619 26.5625,16.9375 C25.6041619,17.8958381 24.45834,18.375 23.125,18.375 L6.75,18.375 L9.25,20.875 C9.4166675,21.0416675 9.5,21.2499987 9.5,21.5 C9.5,21.7500013 9.4166675,21.9583325 9.25,22.125 C9,22.2916675 8.7916675,22.375 8.625,22.375 C8.37499875,22.375 8.1666675,22.2916675 8,22.125 L4.375,18.5 C4.12499875,18.2499987 4,17.9375019 4,17.5625 C4,17.1458313 4.12499875,16.8125013 4.375,16.5625 Z" id="↳-🎨-Fill" fill="#181C21"></path>
    </g>
</svg>