<?xml version="1.0" encoding="UTF-8"?>
<svg width="32px" height="32px" viewBox="0 0 32 32" version="1.1" xmlns="http://www.w3.org/2000/svg" xmlns:xlink="http://www.w3.org/1999/xlink">
    <!-- Generator: Sketch 63.1 (92452) - https://sketch.com -->
    <title>Icons/ion-logo-vimeo</title>
    <desc>Created with Sketch.</desc>
    <g id="Icons/ion-logo-vimeo" stroke="none" stroke-width="1" fill="none" fill-rule="evenodd" fill-opacity="0.9">
        <path d="M29.8125,7.125 C30.2291687,9.04167625 29.9583381,11.0624894 29,13.1875 C28.2083294,14.9375087 27.14584,16.7499906 25.8125,18.625 C23.7291562,21.5000144 21.9583406,23.60416 20.5,24.9375 C19.0833262,26.3125069 17.70834,27.2291644 16.375,27.6875 C14.5416575,28.35417 13.0625056,27.8958412 11.9375,26.3125 C11.1874962,25.312495 10.6041687,24.0000081 10.1875,22.375 C9.56249688,20.0833219 8.77083813,17.2916831 7.8125,14 C7.60416562,13.4166637 7.29166875,12.7291706 6.875,11.9375 C6.74999937,11.7291656 6.5,11.4375019 6.125,11.0625 C5.83333187,10.8541656 5.47916875,10.8541656 5.0625,11.0625 L3.3125,12.1875 L2,10.5 L7.125,6.0625 C8.37500625,5.02082813 9.37499625,4.45833375 10.125,4.375 C11.45834,4.16666563 12.5,4.62499437 13.25,5.75 C13.7500025,6.54167063 14.1249987,7.72915875 14.375,9.3125 C15.1250037,13.6875219 15.6041656,16.2291631 15.8125,16.9375 C15.9791675,17.4375025 16.2499981,18.0416631 16.625,18.75 C17.0833356,19.4583369 17.6041637,19.5625025 18.1875,19.0625 C18.4375012,18.8958325 18.6458325,18.6875012 18.8125,18.4375 C20.14584,16.8541588 21.14583,15.1666756 21.8125,13.375 C21.9375006,12.9999981 22,12.4375037 22,11.6875 C22,11.2708313 21.8541681,10.9062516 21.5625,10.59375 C21.2708319,10.2812484 20.8958356,10.1041669 20.4375,10.0625 C19.6874962,10.0208331 18.8750044,10.166665 18,10.5 C18.5833363,8.24998875 19.708325,6.50000625 21.375,5.25 C22.2500044,4.62499688 23.2812441,4.2291675 24.46875,4.0625 C25.6562559,3.8958325 26.58333,3.95833187 27.25,4.25 C28.6666737,4.7500025 29.5208319,5.70832625 29.8125,7.125 Z" id="↳-🎨-Fill" fill="#181C21"></path>
    </g>
</svg>