<?xml version="1.0" encoding="UTF-8"?>
<svg width="32px" height="32px" viewBox="0 0 32 32" version="1.1" xmlns="http://www.w3.org/2000/svg" xmlns:xlink="http://www.w3.org/1999/xlink">
    <!-- Generator: Sketch 63.1 (92452) - https://sketch.com -->
    <title>Icons/ion-md-share</title>
    <desc>Created with Sketch.</desc>
    <g id="Icons/ion-md-share" stroke="none" stroke-width="1" fill="none" fill-rule="evenodd" fill-opacity="0.9">
        <path d="M21.375,22.5 C22.04167,21.83333 22.9166613,21.5 24,21.5 C25.0833387,21.5 26,21.8749963 26.75,22.625 C27.5,23.3750038 27.875,24.2916613 27.875,25.375 C27.875,26.4583387 27.5,27.3749962 26.75,28.125 C26,28.8750038 25.0833387,29.25 24,29.25 C22.9166613,29.25 22,28.8750038 21.25,28.125 C20.5,27.3749962 20.125,26.4583387 20.125,25.375 C20.125,25.1249987 20.1666662,24.833335 20.25,24.5 L10.75,19 C9.95832937,19.7083369 9.04167187,20.0625 8,20.0625 C6.91666125,20.0625 5.97917063,19.6666706 5.1875,18.875 C4.39582937,18.0833294 4,17.1458387 4,16.0625 C4,14.9791612 4.38541281,14.0416706 5.15625,13.25 C5.92708719,12.4583294 6.85416125,12.0625 7.9375,12.0625 C8.97917188,12.0625 9.89582937,12.4166631 10.6875,13.125 L20.125,7.6875 C20.0416662,7.27083125 20,6.95833437 20,6.75 C20,5.66666125 20.3958294,4.72917063 21.1875,3.9375 C21.9791706,3.14582937 22.9166613,2.75 24,2.75 C25.0833387,2.75 26.0208294,3.14582937 26.8125,3.9375 C27.6041706,4.72917063 28,5.66666125 28,6.75 C28,7.83333875 27.6041706,8.77082937 26.8125,9.5625 C26.0208294,10.3541706 25.0833387,10.75 24,10.75 C22.9583281,10.75 22.0416706,10.3958369 21.25,9.6875 L11.8125,15.125 C11.8958337,15.5416687 11.9375,15.8541656 11.9375,16.0625 C11.9375,16.2708344 11.8958337,16.5833313 11.8125,17 L21.375,22.5 Z" id="↳-🎨-Fill" fill="#181C21"></path>
    </g>
</svg>