<?xml version="1.0" encoding="UTF-8"?>
<svg width="32px" height="32px" viewBox="0 0 32 32" version="1.1" xmlns="http://www.w3.org/2000/svg" xmlns:xlink="http://www.w3.org/1999/xlink">
    <!-- Generator: Sketch 63.1 (92452) - https://sketch.com -->
    <title>Icons/ion-md-aperture</title>
    <desc>Created with Sketch.</desc>
    <g id="Icons/ion-md-aperture" stroke="none" stroke-width="1" fill="none" fill-rule="evenodd" fill-opacity="0.9">
        <path d="M6.0625,6.125 C8.81251375,3.37498625 12.1249806,2 16,2 C19.8750194,2 23.1770697,3.36456969 25.90625,6.09375 C28.6354303,8.82293031 30,12.1249806 30,16 C30,19.8750194 28.6354303,23.1770697 25.90625,25.90625 C23.1770697,28.6354303 19.8750194,30 16,30 C12.1249806,30 8.82293031,28.6354303 6.09375,25.90625 C3.36456969,23.1770697 2,19.8750194 2,16 C2,12.1249806 3.35415312,8.83334688 6.0625,6.125 Z M16,28 C19.33335,28 22.166655,26.833345 24.5,24.5 C26.833345,22.166655 28,19.33335 28,16 C28,12.66665 26.833345,9.833345 24.5,7.5 C22.166655,5.166655 19.33335,4 16,4 C12.66665,4 9.833345,5.166655 7.5,7.5 C5.166655,9.833345 4,12.66665 4,16 C4,19.33335 5.166655,22.166655 7.5,24.5 C9.833345,26.833345 12.66665,28 16,28 Z M12.5,6.625 L16,12 L6.8125,12 C7.93750563,9.41665375 9.83332,7.625 12.5,6.625 Z M25.8125,18 L19.4375,18 L23.9375,9.9375 C25.3125069,11.6875087 26,13.7083219 26,16 C26,16.7083369 25.9375,17.3749969 25.8125,18 Z M22.5,8.375 L19.4375,14 L14.5625,6.125 C15.22917,6.04166625 15.7083319,6 16,6 C18.5000125,6 20.6666575,6.79165875 22.5,8.375 Z M6.1875,14 L12.5625,14 L8.0625,22.0625 C6.68749312,20.3124913 6,18.2916781 6,16 C6,15.2916631 6.06249937,14.6250031 6.1875,14 Z M19.5,25.375 L16,20 L25.1875,20 C24.0624944,22.5833462 22.16668,24.374995 19.5,25.375 Z M9.5,23.625 L12.5625,18 L17.4375,25.875 C16.77083,25.9583338 16.2916681,26 16,26 C13.4999875,26 11.3333425,25.2083413 9.5,23.625 Z" id="↳-🎨-Fill" fill="#181C21"></path>
    </g>
</svg>