<?xml version="1.0" encoding="UTF-8"?>
<svg width="32px" height="32px" viewBox="0 0 32 32" version="1.1" xmlns="http://www.w3.org/2000/svg" xmlns:xlink="http://www.w3.org/1999/xlink">
    <!-- Generator: Sketch 63.1 (92452) - https://sketch.com -->
    <title>Icons/ion-md-walk</title>
    <desc>Created with Sketch.</desc>
    <g id="Icons/ion-md-walk" stroke="none" stroke-width="1" fill="none" fill-rule="evenodd" fill-opacity="0.9">
        <path d="M19.75,6.25 C19.2499975,6.7500025 18.66667,7 18,7 C17.33333,7 16.7500025,6.7500025 16.25,6.25 C15.7499975,5.7499975 15.5,5.16667 15.5,4.5 C15.5,3.83333 15.7499975,3.2500025 16.25,2.75 C16.7500025,2.2499975 17.33333,2 18,2 C18.66667,2 19.2499975,2.2499975 19.75,2.75 C20.2500025,3.2500025 20.5,3.83333 20.5,4.5 C20.5,5.16667 20.2500025,5.7499975 19.75,6.25 Z M18,14.5 L16.75,12.125 L15.5,16 L19.0625,22 L19.0625,30 L16.6875,30 L16.6875,24 L13.5625,19.75 L10,30 L7.5,30 L12.5625,10 L10,11 L10,16 L7.5,16 L7.5,9 L14.4375,6.625 C14.6041675,6.58333312 14.8749981,6.5625 15.25,6.5625 C16.0416706,6.5625 16.6874975,6.93749625 17.1875,7.6875 L20,12 L24.5,12 L24.5,14.5 L18,14.5 Z" id="↳-🎨-Fill" fill="#181C21"></path>
    </g>
</svg>