<?xml version="1.0" encoding="UTF-8"?>
<svg width="32px" height="32px" viewBox="0 0 32 32" version="1.1" xmlns="http://www.w3.org/2000/svg" xmlns:xlink="http://www.w3.org/1999/xlink">
    <!-- Generator: Sketch 63.1 (92452) - https://sketch.com -->
    <title>Icons/ion-md-switch</title>
    <desc>Created with Sketch.</desc>
    <g id="Icons/ion-md-switch" stroke="none" stroke-width="1" fill="none" fill-rule="evenodd" fill-opacity="0.9">
        <path d="M10.5,13.5 C9.54166187,13.5 8.71875344,13.1562534 8.03125,12.46875 C7.34374656,11.7812466 7,10.9583381 7,10 C7,9.04166187 7.34374656,8.21875344 8.03125,7.53125 C8.71875344,6.84374656 9.54166187,6.5 10.5,6.5 L16.4375,6.5 C17.3541713,5.5 18.5416594,5 20,5 C21.3750069,5 22.5520784,5.48957844 23.53125,6.46875 C24.5104216,7.44792156 25,8.62499312 25,10 C25,11.3750069 24.5104216,12.5520784 23.53125,13.53125 C22.5520784,14.5104216 21.3750069,15 20,15 C18.5416594,15 17.3541713,14.5 16.4375,13.5 L10.5,13.5 Z M9.4375,8.9375 C9.14583187,9.18750125 9,9.54166437 9,10 C9,10.4166687 9.14583187,10.7708319 9.4375,11.0625 C9.68750125,11.3541681 10.0416644,11.5 10.5,11.5 L15.25,11.5 C15.0833325,10.83333 15,10.333335 15,10 C15,9.666665 15.0833325,9.16667 15.25,8.5 L10.5,8.5 C10.0833313,8.5 9.72916813,8.64583187 9.4375,8.9375 Z M21.5,18.5 C22.4583381,18.5 23.2812466,18.8437466 23.96875,19.53125 C24.6562534,20.2187534 25,21.0416619 25,22 C25,22.9583381 24.6562534,23.7812466 23.96875,24.46875 C23.2812466,25.1562534 22.4583381,25.5 21.5,25.5 L15.5625,25.5 C14.6458287,26.5 13.4583406,27 12,27 C10.6249931,27 9.44792156,26.5104216 8.46875,25.53125 C7.48957844,24.5520784 7,23.3750069 7,22 C7,20.6249931 7.48957844,19.4479216 8.46875,18.46875 C9.44792156,17.4895784 10.6249931,17 12,17 C13.4583406,17 14.6458287,17.5 15.5625,18.5 L21.5,18.5 Z M22.5625,23.0625 C22.8541681,22.8124987 23,22.4583356 23,22 C23,21.5833313 22.8541681,21.2291681 22.5625,20.9375 C22.3124987,20.6458319 21.9583356,20.5 21.5,20.5 L16.75,20.5 C16.9166675,21.16667 17,21.666665 17,22 C17,22.333335 16.9166675,22.83333 16.75,23.5 L21.5,23.5 C21.9166687,23.5 22.2708319,23.3541681 22.5625,23.0625 Z" id="↳-🎨-Fill" fill="#181C21"></path>
    </g>
</svg>