<?xml version="1.0" encoding="UTF-8"?>
<svg width="32px" height="32px" viewBox="0 0 32 32" version="1.1" xmlns="http://www.w3.org/2000/svg" xmlns:xlink="http://www.w3.org/1999/xlink">
    <!-- Generator: Sketch 63.1 (92452) - https://sketch.com -->
    <title>Icons/ion-md-text</title>
    <desc>Created with Sketch.</desc>
    <g id="Icons/ion-md-text" stroke="none" stroke-width="1" fill="none" fill-rule="evenodd" fill-opacity="0.9">
        <path d="M25.5,4 C26.16667,4 26.7499975,4.2499975 27.25,4.75 C27.7500025,5.2500025 28,5.83333 28,6.5 L28,21.5 C28,22.16667 27.7500025,22.7499975 27.25,23.25 C26.7499975,23.7500025 26.16667,24 25.5,24 L8,24 L4,28 L4,6.5 C4,4.833325 4.66666,4 6,4 L25.5,4 Z M12.375,15.125 L12.375,12.625 L10,12.625 L10,15.125 L12.375,15.125 Z M17.1875,15.125 L17.1875,12.625 L14.8125,12.625 L14.8125,15.125 L17.1875,15.125 Z M22,15.125 L22,12.625 L19.625,12.625 L19.625,15.125 L22,15.125 Z" id="↳-🎨-Fill" fill="#181C21"></path>
    </g>
</svg>