<?xml version="1.0" encoding="UTF-8"?>
<svg width="32px" height="32px" viewBox="0 0 32 32" version="1.1" xmlns="http://www.w3.org/2000/svg" xmlns:xlink="http://www.w3.org/1999/xlink">
    <!-- Generator: Sketch 63.1 (92452) - https://sketch.com -->
    <title>Icons/ion-ios-arrow-down</title>
    <desc>Created with Sketch.</desc>
    <g id="Icons/ion-ios-arrow-down" stroke="none" stroke-width="1" fill="none" fill-rule="evenodd" fill-opacity="0.9">
        <path d="M16,18.375 L23.9375,10.4375 C24.2291681,10.1458319 24.5833313,10 25,10 C25.4166687,10 25.7708319,10.1458319 26.0625,10.4375 C26.3541681,10.7291681 26.5,11.0833313 26.5,11.5 C26.5,11.9166687 26.3541681,12.2708319 26.0625,12.5625 L17.0625,21.5625 C16.3541631,22.2708369 15.66667,22.29167 15,21.625 L5.9375,12.5625 C5.64583187,12.2708319 5.5,11.9166687 5.5,11.5 C5.5,11.0833313 5.64583187,10.7291681 5.9375,10.4375 C6.22916812,10.1458319 6.58333125,10 7,10 C7.41666875,10 7.77083187,10.1458319 8.0625,10.4375 L16,18.375 Z" id="↳-🎨-Fill" fill="#181C21"></path>
    </g>
</svg>