<?xml version="1.0" encoding="UTF-8"?>
<svg width="32px" height="32px" viewBox="0 0 32 32" version="1.1" xmlns="http://www.w3.org/2000/svg" xmlns:xlink="http://www.w3.org/1999/xlink">
    <!-- Generator: Sketch 63.1 (92452) - https://sketch.com -->
    <title>Icons/ion-md-disc</title>
    <desc>Created with Sketch.</desc>
    <g id="Icons/ion-md-disc" stroke="none" stroke-width="1" fill="none" fill-rule="evenodd" fill-opacity="0.9">
        <path d="M6.8125,6.8125 C9.35417938,4.27082062 12.4166488,3 16,3 C19.5833512,3 22.6458206,4.27082062 25.1875,6.8125 C27.7291794,9.35417938 29,12.4166488 29,16 C29,19.5833512 27.7291794,22.6458206 25.1875,25.1875 C22.6458206,27.7291794 19.5833512,29 16,29 C12.4166488,29 9.35417938,27.7291794 6.8125,25.1875 C4.27082063,22.6458206 3,19.5833512 3,16 C3,12.4166488 4.27082063,9.35417938 6.8125,6.8125 Z M11.8125,20.1875 C12.9791725,21.3125056 14.3749919,21.875 16,21.875 C17.625,21.875 19.0104109,21.3020891 20.15625,20.15625 C21.3020891,19.0104109 21.875,17.625 21.875,16 C21.875,14.3749919 21.3020891,12.9895891 20.15625,11.84375 C19.0104109,10.6979109 17.625,10.125 16,10.125 C14.3749919,10.125 12.9895891,10.6979109 11.84375,11.84375 C10.6979109,12.9895891 10.125,14.3749919 10.125,16 C10.125,17.625 10.6874944,19.0208275 11.8125,20.1875 Z M15.0625,15.125 C15.3541681,14.8333319 15.666665,14.6875 16,14.6875 C16.333335,14.6875 16.6354153,14.8229153 16.90625,15.09375 C17.1770847,15.3645847 17.3125,15.666665 17.3125,16 C17.3125,16.333335 17.1770847,16.6354153 16.90625,16.90625 C16.6354153,17.1770847 16.333335,17.3125 16,17.3125 C15.666665,17.3125 15.3645847,17.1770847 15.09375,16.90625 C14.8229153,16.6354153 14.6875,16.333335 14.6875,16 C14.6875,15.666665 14.8124987,15.3750013 15.0625,15.125 Z" id="↳-🎨-Fill" fill="#181C21"></path>
    </g>
</svg>