<?xml version="1.0" encoding="UTF-8"?>
<svg width="32px" height="32px" viewBox="0 0 32 32" version="1.1" xmlns="http://www.w3.org/2000/svg" xmlns:xlink="http://www.w3.org/1999/xlink">
    <!-- Generator: Sketch 63.1 (92452) - https://sketch.com -->
    <title>Icons/ion-logo-wordpress</title>
    <desc>Created with Sketch.</desc>
    <g id="Icons/ion-logo-wordpress" stroke="none" stroke-width="1" fill="none" fill-rule="evenodd" fill-opacity="0.9">
        <path d="M16.1875,16.9375 L19.5,26.0625 C19.5,26.1041669 19.6874981,26.4999962 20.0625,27.25 C20.0208331,27.25 19.9375006,27.2708331 19.8125,27.3125 C19.6874994,27.3541669 19.6041669,27.3958331 19.5625,27.4375 C18.7291625,27.6875013 18.0625,27.8333331 17.5625,27.875 C16.89583,27.9583338 16.3750019,28 16,28 C14.9166613,28 13.875005,27.8750013 12.875,27.625 C12.8333331,27.625 12.7812503,27.6041669 12.71875,27.5625 C12.6562497,27.5208331 12.6041669,27.5 12.5625,27.5 L14.125,22.9375 L16.1875,16.9375 Z M5.0625,11.25 C5.18750063,11.25 5.3333325,11.2604166 5.5,11.28125 C5.6666675,11.3020834 5.8333325,11.3125 6,11.3125 L11.8125,27.25 C11.7708331,27.25 11.6979172,27.2291669 11.59375,27.1875 C11.4895828,27.1458331 11.3958337,27.1041669 11.3125,27.0625 C9.31249,26.2291625 7.65625656,24.9270922 6.34375,23.15625 C5.03124344,21.3854078 4.27083437,19.3958444 4.0625,17.1875 C4.02083313,16.9374987 4,16.5416694 4,16 C4,14.4583256 4.35416312,12.8750081 5.0625,11.25 Z M26.875,10.9375 C27.6250038,12.5625081 28,14.2499913 28,16 C28,16.4166687 27.9583338,16.95833 27.875,17.625 C27.5833319,19.62501 26.8437559,21.4479084 25.65625,23.09375 C24.4687441,24.7395916 22.9791756,25.9791625 21.1875,26.8125 C21.1458331,26.8541669 21.0937503,26.875 21.03125,26.875 C20.9687497,26.875 20.9166669,26.8958331 20.875,26.9375 L22.25,22.875 L24.6875,15.8125 C25.2291694,14.4374931 25.5,13.1458394 25.5,11.9375 L25.5,10.75 C25.4583331,10.0416631 25.2604184,9.40625281 24.90625,8.84375 C24.5520816,8.28124719 24.0000038,8.02083312 23.25,8.0625 L23.125,8.0625 C22.6249975,8.0625 22.1979184,8.24999812 21.84375,8.625 C21.4895816,9 21.3125,9.4374975 21.3125,9.9375 C21.3125,10.5625031 21.6666631,11.4166613 22.375,12.5 C22.9583363,13.5 23.25,14.4791619 23.25,15.4375 C23.25,16.437505 22.9791694,17.60416 22.4375,18.9375 L21.375,22.5625 L17.5,10.9375 L18.75,10.875 C18.9166675,10.875 19.0312497,10.7916675 19.09375,10.625 C19.1562503,10.4583325 19.1354172,10.3020841 19.03125,10.15625 C18.9270828,10.0104159 18.7916675,9.9375 18.625,9.9375 C17.4583275,10.0625006 16.5000038,10.125 15.75,10.125 L12.9375,9.9375 C12.7708325,9.9375 12.6458338,10.0104159 12.5625,10.15625 C12.4791662,10.3020841 12.4687497,10.4583325 12.53125,10.625 C12.5937503,10.7916675 12.7083325,10.875 12.875,10.875 C13.2500019,10.9166669 13.6249981,10.9375 14,10.9375 L15.6875,15.5625 L13.3125,22.625 L9.375,10.9375 L10.625,10.8125 C10.7916675,10.8125 10.9062497,10.7291675 10.96875,10.5625 C11.0312503,10.3958325 11.0208338,10.2500006 10.9375,10.125 C10.8541663,10 10.7291675,9.9375 10.5625,9.9375 C9.3958275,10.0208338 8.43750375,10.0625 7.6875,10.0625 L5.5625,10.0625 C5.77083437,9.68749813 6.1249975,9.16667 6.625,8.5 C9.00001188,5.499985 12.1249806,4 16,4 C17.4583406,4 18.8958262,4.27083062 20.3125,4.8125 C22.3958438,5.60417063 24.1666594,6.95832375 25.625,8.875 C25.6666669,8.91666688 25.7187497,8.98958281 25.78125,9.09375 C25.8437503,9.19791719 25.8958331,9.27083312 25.9375,9.3125 C26.270835,9.77083563 26.5833319,10.3124969 26.875,10.9375 Z" id="↳-🎨-Fill" fill="#181C21"></path>
    </g>
</svg>