<?xml version="1.0" encoding="UTF-8"?>
<svg width="32px" height="32px" viewBox="0 0 32 32" version="1.1" xmlns="http://www.w3.org/2000/svg" xmlns:xlink="http://www.w3.org/1999/xlink">
    <!-- Generator: Sketch 63.1 (92452) - https://sketch.com -->
    <title>Icons/ion-logo-android</title>
    <desc>Created with Sketch.</desc>
    <g id="Icons/ion-logo-android" stroke="none" stroke-width="1" fill="none" fill-rule="evenodd" fill-opacity="0.9">
        <path d="M9,22.375 L9,12 L23,12 L23,22.375 C23,22.9583363 22.7708356,23.25 22.3125,23.25 L20.5625,23.25 L20.5625,26.5 C20.5625,26.9166687 20.4166681,27.2708319 20.125,27.5625 C19.8333319,27.8541681 19.4791687,28 19.0625,28 L19,28 C18.7083319,28 18.4166681,27.8958344 18.125,27.6875 C17.7499981,27.3958319 17.5625,27 17.5625,26.5 L17.5625,23.25 L14.5,23.25 L14.5,26.5 C14.5,26.9166687 14.3541681,27.2708319 14.0625,27.5625 C13.7708319,27.8541681 13.4166687,28 13,28 C12.5833313,28 12.2291681,27.8541681 11.9375,27.5625 C11.6458319,27.2708319 11.5,26.9166687 11.5,26.5 L11.5,23.25 L9.6875,23.25 C9.22916437,23.25 9,22.9583363 9,22.375 Z M24.4375,11.4375 C24.7291681,11.1458319 25.0833313,11 25.5,11 C25.9166687,11 26.2708319,11.1458319 26.5625,11.4375 C26.8541681,11.7291681 27,12.0833313 27,12.5 L27,18.5 C27,18.9166687 26.8541681,19.2708319 26.5625,19.5625 C26.2708319,19.8541681 25.9166687,20 25.5,20 C25.0833313,20 24.7291681,19.8541681 24.4375,19.5625 C24.1458319,19.2708319 24,18.9166687 24,18.5 L24,12.5 C24,12.0833313 24.1458319,11.7291681 24.4375,11.4375 Z M5.4375,11.4375 C5.72916812,11.1458319 6.08333125,11 6.5,11 C6.91666875,11 7.27083187,11.1458319 7.5625,11.4375 C7.85416813,11.7291681 8,12.0833313 8,12.5 L8,18.5 C8,18.9166687 7.85416813,19.2708319 7.5625,19.5625 C7.27083187,19.8541681 6.91666875,20 6.5,20 C6.08333125,20 5.72916812,19.8541681 5.4375,19.5625 C5.14583187,19.2708319 5,18.9166687 5,18.5 L5,12.5 C5,12.0833313 5.14583187,11.7291681 5.4375,11.4375 Z M19.4375,5.5625 C20.3541713,5.97916875 21.0937472,6.59374594 21.65625,7.40625 C22.2187528,8.21875406 22.5729159,8.89583063 22.71875,9.4375 C22.8645841,9.97916937 22.9583331,10.5 23,11 L9,11 C9.1666675,8.33332 10.3333225,6.52083813 12.5,5.5625 L11.375,4.1875 C11.375,4.14583313 11.3958331,4.10416688 11.4375,4.0625 L11.625,4 L12.8125,5.4375 C13.8541719,5.06249813 14.9166613,4.875 16,4.875 C17.0416719,4.875 18.0833281,5.06249813 19.125,5.4375 L20.375,4 C20.4166669,4 20.4583331,4.02083312 20.5,4.0625 L20.625,4.1875 L19.4375,5.5625 Z M12.9375,8.6875 C13.4791694,8.6875 13.75,8.41666938 13.75,7.875 C13.75,7.66666563 13.6666675,7.46875094 13.5,7.28125 C13.3333325,7.09374906 13.1458344,7 12.9375,7 C12.6874987,7 12.4791675,7.09374906 12.3125,7.28125 C12.1458325,7.46875094 12.0625,7.66666563 12.0625,7.875 C12.0625,8.08333437 12.1562491,8.2708325 12.34375,8.4375 C12.5312509,8.6041675 12.7291656,8.6875 12.9375,8.6875 Z M19.0625,8.6875 C19.2708344,8.6875 19.4687491,8.6041675 19.65625,8.4375 C19.8437509,8.2708325 19.9375,8.08333437 19.9375,7.875 C19.9375,7.66666563 19.8437509,7.46875094 19.65625,7.28125 C19.4687491,7.09374906 19.2708344,7 19.0625,7 C18.5208306,7 18.25,7.29166375 18.25,7.875 C18.25,8.41666938 18.5208306,8.6875 19.0625,8.6875 Z" id="↳-🎨-Fill" fill="#181C21"></path>
    </g>
</svg>