<?xml version="1.0" encoding="UTF-8"?>
<svg width="32px" height="32px" viewBox="0 0 32 32" version="1.1" xmlns="http://www.w3.org/2000/svg" xmlns:xlink="http://www.w3.org/1999/xlink">
    <!-- Generator: Sketch 63.1 (92452) - https://sketch.com -->
    <title>Icons/ion-md-card</title>
    <desc>Created with Sketch.</desc>
    <g id="Icons/ion-md-card" stroke="none" stroke-width="1" fill="none" fill-rule="evenodd" fill-opacity="0.9">
        <path d="M27.1875,5 C27.9791706,5 28.6458306,5.27083062 29.1875,5.8125 C29.7291694,6.35416938 30,7 30,7.75 L30,24.25 C30,25 29.7291694,25.6458306 29.1875,26.1875 C28.6458306,26.7291694 27.9791706,27 27.1875,27 L4.8125,27 C4.02082937,27 3.35416937,26.7291694 2.8125,26.1875 C2.27083063,25.6458306 2,25 2,24.25 L2,7.75 C2,7 2.27083063,6.35416938 2.8125,5.8125 C3.35416937,5.27083062 4.02082937,5 4.8125,5 L27.1875,5 Z M27.1875,24.25 L27.1875,16 L4.8125,16 L4.8125,24.25 L27.1875,24.25 Z M27.1875,10.5 L27.1875,7.75 L4.8125,7.75 L4.8125,10.5 L27.1875,10.5 Z" id="↳-🎨-Fill" fill="#181C21"></path>
    </g>
</svg>