<?xml version="1.0" encoding="UTF-8"?>
<svg width="32px" height="32px" viewBox="0 0 32 32" version="1.1" xmlns="http://www.w3.org/2000/svg" xmlns:xlink="http://www.w3.org/1999/xlink">
    <!-- Generator: Sketch 63.1 (92452) - https://sketch.com -->
    <title>Icons/ion-md-headset</title>
    <desc>Created with Sketch.</desc>
    <g id="Icons/ion-md-headset" stroke="none" stroke-width="1" fill="none" fill-rule="evenodd" fill-opacity="0.9">
        <path d="M7.5,6.625 C9.833345,4.20832125 12.66665,3 16,3 C19.33335,3 22.166655,4.19790469 24.5,6.59375 C26.833345,8.98959531 28,11.8958162 28,15.3125 L28,24.875 C28,26 27.6041706,26.9687459 26.8125,27.78125 C26.0208294,28.5937541 25.0833387,29 24,29 L20,29 L20,18 L25.3125,18 L25.3125,15.3125 C25.3125,12.64582 24.4062591,10.3854259 22.59375,8.53125 C20.7812409,6.67707406 18.5833462,5.75 16,5.75 C13.4166538,5.75 11.2187591,6.67707406 9.40625,8.53125 C7.59374094,10.3854259 6.6875,12.64582 6.6875,15.3125 L6.6875,18 L12,18 L12,29 L8,29 C6.91666125,29 5.97917063,28.5937541 5.1875,27.78125 C4.39582937,26.9687459 4,26 4,24.875 L4,15.3125 C4,11.8958162 5.166655,9.00001187 7.5,6.625 Z" id="↳-🎨-Fill" fill="#181C21"></path>
    </g>
</svg>