<?xml version="1.0" encoding="UTF-8"?>
<svg width="32px" height="32px" viewBox="0 0 32 32" version="1.1" xmlns="http://www.w3.org/2000/svg" xmlns:xlink="http://www.w3.org/1999/xlink">
    <!-- Generator: Sketch 63.1 (92452) - https://sketch.com -->
    <title>Icons/ion-md-git-compare</title>
    <desc>Created with Sketch.</desc>
    <g id="Icons/ion-md-git-compare" stroke="none" stroke-width="1" fill="none" fill-rule="evenodd" fill-opacity="0.9">
        <path d="M12,23.875 L12,20 L18,26 L12,32 L12,28 L10.625,28 C8.33332187,28 6.58333938,27.2500075 5.375,25.75 C4.45832875,24.5833275 4,22.6250138 4,19.875 L4,9.4375 C2.66666,8.64582937 2,7.5 2,6 C2,4.91666125 2.39582937,3.97917063 3.1875,3.1875 C3.97917063,2.39582937 4.91666125,2 6,2 C7.08333875,2 8.02082937,2.39582937 8.8125,3.1875 C9.60417063,3.97917063 10,4.91666125 10,6 C10,7.5 9.33334,8.64582937 8,9.4375 L8,19.875 C8,21.7500094 8.166665,22.8749981 8.5,23.25 C8.833335,23.6666687 9.54166125,23.875 10.625,23.875 L12,23.875 Z M7.75,4.25 C7.2499975,3.7499975 6.66667,3.5 6,3.5 C5.33333,3.5 4.7500025,3.7499975 4.25,4.25 C3.7499975,4.7500025 3.5,5.33333 3.5,6 C3.5,6.66667 3.7499975,7.2499975 4.25,7.75 C4.7500025,8.2500025 5.33333,8.5 6,8.5 C6.66667,8.5 7.2499975,8.2500025 7.75,7.75 C8.2500025,7.2499975 8.5,6.66667 8.5,6 C8.5,5.33333 8.2500025,4.7500025 7.75,4.25 Z M28,22.5625 C29.33334,23.3541706 30,24.5 30,26 C30,27.0833387 29.6041706,28.0208294 28.8125,28.8125 C28.0208294,29.6041706 27.0833387,30 26,30 C24.9166613,30 23.9791706,29.6041706 23.1875,28.8125 C22.3958294,28.0208294 22,27.0833387 22,26 C22,24.5 22.66666,23.3541706 24,22.5625 L24,11.9375 C24,10.0624906 23.833335,8.93750187 23.5,8.5625 C23.166665,8.18749813 22.4583387,8 21.375,8 L20,8 L20,12 L14,6 L20,0 L20,3.875 L21.375,3.875 C23.708345,3.875 25.4583275,4.60415938 26.625,6.0625 C27.5416713,7.2291725 28,9.18748625 28,11.9375 L28,22.5625 Z M24.25,27.75 C24.7500025,28.2500025 25.33333,28.5 26,28.5 C26.66667,28.5 27.2499975,28.2500025 27.75,27.75 C28.2500025,27.2499975 28.5,26.66667 28.5,26 C28.5,25.33333 28.2500025,24.7500025 27.75,24.25 C27.2499975,23.7499975 26.66667,23.5 26,23.5 C25.33333,23.5 24.7500025,23.7499975 24.25,24.25 C23.7499975,24.7500025 23.5,25.33333 23.5,26 C23.5,26.66667 23.7499975,27.2499975 24.25,27.75 Z" id="↳-🎨-Fill" fill="#181C21"></path>
    </g>
</svg>