<?xml version="1.0" encoding="UTF-8"?>
<svg width="32px" height="32px" viewBox="0 0 32 32" version="1.1" xmlns="http://www.w3.org/2000/svg" xmlns:xlink="http://www.w3.org/1999/xlink">
    <!-- Generator: Sketch 63.1 (92452) - https://sketch.com -->
    <title>Icons/ion-ios-cloud-download</title>
    <desc>Created with Sketch.</desc>
    <g id="Icons/ion-ios-cloud-download" stroke="none" stroke-width="1" fill="none" fill-rule="evenodd" fill-opacity="0.9">
        <path d="M27.3125,10.375 C28.64584,10.6250013 29.7604122,11.2916613 30.65625,12.375 C31.5520878,13.4583387 32,14.7083262 32,16.125 C32,17.7083413 31.4375056,19.0833275 30.3125,20.25 C29.1874944,21.4166725 27.8541744,22 26.3125,22 L16.8125,22 L16.8125,13.1875 C16.8125,12.6458306 16.5416694,12.375 16,12.375 C15.4583306,12.375 15.1875,12.6458306 15.1875,13.1875 L15.1875,22 L5.6875,22 C4.14582563,22 2.81250563,21.4166725 1.6875,20.25 C0.562494375,19.0833275 0,17.7083413 0,16.125 C0,14.8333269 0.37499625,13.6458387 1.125,12.5625 C1.87500375,11.4791613 2.87499375,10.7291687 4.125,10.3125 C4.16666688,9.06249375 4.62499563,7.97917125 5.5,7.0625 C6.37500437,6.14582875 7.41666063,5.6875 8.625,5.6875 C9.08333563,5.6875 9.64583,5.81249875 10.3125,6.0625 C12.1875094,3.35415312 14.7499837,2 18,2 C20.3750119,2 22.4583244,2.80207531 24.25,4.40625 C26.0416756,6.01042469 27.0624987,7.99998813 27.3125,10.375 Z M15.1875,27.25 L15.1875,22 L16.8125,22 L16.8125,27.25 L19.8125,24.3125 C20.1875019,23.9374981 20.5624981,23.9374981 20.9375,24.3125 C21.3125019,24.6875019 21.3125019,25.0624981 20.9375,25.4375 L16.5625,29.75 C16.4791662,29.8333338 16.3958338,29.8958331 16.3125,29.9375 C16.2291662,29.9791669 16.1250006,30 16,30 C15.7916656,30 15.6041675,29.9166675 15.4375,29.75 L11.0625,25.4375 C10.6874981,25.0624981 10.6874981,24.6875019 11.0625,24.3125 C11.4375019,23.9374981 11.8124981,23.9374981 12.1875,24.3125 L15.1875,27.25 Z" id="↳-🎨-Fill" fill="#181C21"></path>
    </g>
</svg>