<?xml version="1.0" encoding="UTF-8"?>
<svg width="32px" height="32px" viewBox="0 0 32 32" version="1.1" xmlns="http://www.w3.org/2000/svg" xmlns:xlink="http://www.w3.org/1999/xlink">
    <!-- Generator: Sketch 63.1 (92452) - https://sketch.com -->
    <title>Icons/ion-ios-person-add</title>
    <desc>Created with Sketch.</desc>
    <g id="Icons/ion-ios-person-add" stroke="none" stroke-width="1" fill="none" fill-rule="evenodd" fill-opacity="0.9">
        <path d="M24.0625,24.125 C26.395845,24.9583375 27.7083319,26.04166 28,27.375 C28.0833338,27.7916687 27.9166687,28 27.5,28 L4.5,28 C4.08333125,28 3.91666625,27.7916687 4,27.375 C4.29166812,26.04166 5.604155,24.9583375 7.9375,24.125 C8.31250188,23.9583325 8.92707906,23.8125006 9.78125,23.6875 C10.6354209,23.5624994 11.1041663,23.5 11.1875,23.5 C11.9791664,23.2916656 12.4791664,23.0625013 12.6875,22.8125 C12.7708337,22.7291662 12.8125,21.7500094 12.8125,19.875 C12.8125,19.7916662 12.7708337,19.7083338 12.6875,19.625 L12.0625,18.375 C11.8958325,17.8749975 11.7500006,17.1875044 11.625,16.3125 C11.625,16.1458325 11.5416675,16.0208338 11.375,15.9375 C11.1249987,15.7708325 10.9583338,15.5 10.875,15.125 C10.8333331,14.8749987 10.7291675,14.5312522 10.5625,14.09375 C10.3958325,13.6562478 10.3333331,13.2916681 10.375,13 C10.375,12.7916656 10.4583325,12.6041675 10.625,12.4375 C10.7916675,12.3124994 10.8333338,12.1458344 10.75,11.9375 C10.4999987,10.937495 10.375,10 10.375,9.125 C10.3333331,7.74999312 10.8229116,6.55208844 11.84375,5.53125 C12.8645884,4.51041156 14.2499912,4 16,4 C17.7500087,4 19.1354116,4.51041156 20.15625,5.53125 C21.1770884,6.55208844 21.6666669,7.74999312 21.625,9.125 C21.625,10 21.5000013,10.937495 21.25,11.9375 C21.1666662,12.1458344 21.2083325,12.3124994 21.375,12.4375 C21.5416675,12.6041675 21.625,12.7916656 21.625,13 C21.6666669,13.2916681 21.6041675,13.6562478 21.4375,14.09375 C21.2708325,14.5312522 21.1666669,14.8749987 21.125,15.125 C21.0416662,15.5 20.8750013,15.7708325 20.625,15.9375 C20.4583325,16.0208338 20.375,16.1458325 20.375,16.3125 C20.2499994,17.1875044 20.1041675,17.8749975 19.9375,18.375 C19.8541662,18.5833344 19.7083344,18.8333319 19.5,19.125 L19.25,19.625 C19.2083331,19.6666669 19.1875,19.7499994 19.1875,19.875 C19.1875,21.7500094 19.2291662,22.7291662 19.3125,22.8125 C19.5208344,23.0625013 20.0208294,23.2916656 20.8125,23.5 C20.8958338,23.5 21.3645791,23.5624994 22.21875,23.6875 C23.0729209,23.8125006 23.6874981,23.9583325 24.0625,24.125 Z M27.3125,18.375 C27.7708356,18.375 28,18.5833313 28,19 C28,19.4166687 27.7708356,19.625 27.3125,19.625 L25.625,19.625 L25.625,21.375 C25.625,21.7916687 25.4166687,22 25,22 C24.5416644,22 24.3125,21.7916687 24.3125,21.375 L24.3125,19.625 L22.625,19.625 C22.2083313,19.625 22,19.4166687 22,19 C22,18.5833313 22.2083313,18.375 22.625,18.375 L24.3125,18.375 L24.3125,16.625 C24.3125,16.2083313 24.5416644,16 25,16 C25.4166687,16 25.625,16.2083313 25.625,16.625 L25.625,18.375 L27.3125,18.375 Z" id="↳-🎨-Fill" fill="#181C21"></path>
    </g>
</svg>