<?xml version="1.0" encoding="UTF-8"?>
<svg width="32px" height="32px" viewBox="0 0 32 32" version="1.1" xmlns="http://www.w3.org/2000/svg" xmlns:xlink="http://www.w3.org/1999/xlink">
    <!-- Generator: Sketch 63.1 (92452) - https://sketch.com -->
    <title>Icons/ion-logo-reddit</title>
    <desc>Created with Sketch.</desc>
    <g id="Icons/ion-logo-reddit" stroke="none" stroke-width="1" fill="none" fill-rule="evenodd" fill-opacity="0.9">
        <path d="M18.15625,18 C18.15625,17.4583306 18.3437481,17.0000019 18.71875,16.625 C19.0937519,16.2499981 19.5729138,16.0625 20.15625,16.0625 C20.7395862,16.0625 21.2187481,16.2499981 21.59375,16.625 C21.9687519,17.0000019 22.15625,17.4583306 22.15625,18 C22.15625,18.5833363 21.9583353,19.0625 21.5625,19.4375 C21.1666647,19.8125019 20.6979194,20 20.15625,20 C19.6145806,20 19.1458353,19.8125019 18.75,19.4375 C18.3541647,19.0625 18.15625,18.5833363 18.15625,18 Z M9.90625,18 C9.90625,17.4583306 10.0937481,17.0000019 10.46875,16.625 C10.8437519,16.2499981 11.3229137,16.0625 11.90625,16.0625 C12.4895863,16.0625 12.9687481,16.2499981 13.34375,16.625 C13.7187519,17.0000019 13.90625,17.4583306 13.90625,18 C13.90625,18.5833363 13.7083353,19.0625 13.3125,19.4375 C12.9166647,19.8125019 12.4479194,20 11.90625,20 C11.3645806,20 10.8958353,19.8125019 10.5,19.4375 C10.1041647,19.0625 9.90625,18.5833363 9.90625,18 Z M30.03125,15.6875 C30.03125,16.9791731 29.46875,17.9166637 28.34375,18.5 C28.3854169,18.7083344 28.40625,19 28.40625,19.375 C28.40625,21.7500119 27.1979287,23.7812416 24.78125,25.46875 C22.3645712,27.1562584 19.4479337,28 16.03125,28 C12.5728994,28 9.63542875,27.166675 7.21875,25.5 C4.80207125,23.833325 3.59375,21.8125119 3.59375,19.4375 C3.59375,19.0208313 3.61458313,18.7083344 3.65625,18.5 C2.53124437,17.9166637 1.96875,16.9791731 1.96875,15.6875 C1.96875,14.8124956 2.28124687,14.0729197 2.90625,13.46875 C3.53125313,12.8645803 4.2604125,12.5625 5.09375,12.5625 C5.84375375,12.5625 6.53124688,12.8333306 7.15625,13.375 C9.44792813,11.7916587 12.1354013,10.9375006 15.21875,10.8125 L15.65625,10.8125 L17.46875,4.6875 L22.84375,5.75 C23.3437525,4.5833275 24.1979106,4 25.40625,4 C26.1979206,4 26.8541641,4.27083062 27.375,4.8125 C27.8958359,5.35416937 28.15625,6.02082938 28.15625,6.8125 C28.15625,7.60417063 27.8958359,8.27083063 27.375,8.8125 C26.8541641,9.35416937 26.1979206,9.625 25.40625,9.625 C24.6562462,9.625 24.0000028,9.35416937 23.4375,8.8125 C22.8749972,8.27083063 22.59375,7.62500375 22.59375,6.875 L18.28125,6 L16.78125,10.8125 C19.8645987,10.9375006 22.5520719,11.7916587 24.84375,13.375 C25.46875,12.8333306 26.1770794,12.5625 26.96875,12.5625 C27.8020875,12.5625 28.5208303,12.8645803 29.125,13.46875 C29.7291697,14.0729197 30.03125,14.8124956 30.03125,15.6875 Z M26.59375,5.625 C26.260415,5.291665 25.8645856,5.125 25.40625,5.125 C24.9479144,5.125 24.552085,5.291665 24.21875,5.625 C23.885415,5.958335 23.71875,6.35416437 23.71875,6.8125 C23.71875,7.27083563 23.885415,7.666665 24.21875,8 C24.552085,8.333335 24.9479144,8.5 25.40625,8.5 C25.8645856,8.5 26.260415,8.333335 26.59375,8 C26.927085,7.666665 27.09375,7.27083563 27.09375,6.8125 C27.09375,6.35416437 26.927085,5.958335 26.59375,5.625 Z M3.09375,15.6875 C3.09375,16.3958369 3.38541375,16.9583313 3.96875,17.375 C4.42708563,16.1249938 5.19791125,15.0208381 6.28125,14.0625 C5.947915,13.8124987 5.55208563,13.6875 5.09375,13.6875 C4.51041375,13.6875 4.03125188,13.8854147 3.65625,14.28125 C3.28124813,14.6770853 3.09375,15.1458306 3.09375,15.6875 Z M24.15625,24.5625 C26.2395938,23.1458262 27.28125,21.4166769 27.28125,19.375 L27.28125,18.8125 C27.2395831,18.5624987 27.1354175,18.1875025 26.96875,17.6875 C26.5937481,16.6458281 25.9687544,15.7500037 25.09375,15 C25.0104162,14.9166662 24.9166672,14.8333338 24.8125,14.75 C24.7083328,14.6666662 24.5937506,14.5729172 24.46875,14.46875 C24.3437494,14.3645828 24.2395837,14.2916669 24.15625,14.25 C21.9062387,12.7083256 19.1979325,11.9375 16.03125,11.9375 C12.8229006,11.9375 10.0937613,12.7083256 7.84375,14.25 L6.90625,15 C6.03124563,15.7500037 5.40625187,16.6458281 5.03125,17.6875 C4.8645825,18.1875025 4.76041687,18.5624987 4.71875,18.8125 L4.71875,19.375 C4.71875,21.4166769 5.76040625,23.1458262 7.84375,24.5625 C10.0937613,26.1041744 12.8229006,26.875 16.03125,26.875 C19.1979325,26.875 21.9062387,26.1041744 24.15625,24.5625 Z M28.03125,17.375 C28.6145863,16.9583313 28.90625,16.3958369 28.90625,15.6875 C28.90625,15.1041637 28.71875,14.6250019 28.34375,14.25 C27.9687481,13.8749981 27.5104194,13.6875 26.96875,13.6875 C26.4687475,13.6875 26.052085,13.8124987 25.71875,14.0625 C26.8020887,15.0208381 27.5729144,16.1249938 28.03125,17.375 Z M20.03125,22.375 L20.84375,23.125 C19.5937438,24.375 17.9895931,25 16.03125,25 C14.03124,25 12.4062563,24.375 11.15625,23.125 L11.96875,22.375 C12.968755,23.375 14.3229081,23.875 16.03125,23.875 C16.7812537,23.875 17.48958,23.7500013 18.15625,23.5 C18.82292,23.2499987 19.3020819,23.0000013 19.59375,22.75 L20.03125,22.375 Z" id="↳-🎨-Fill" fill="#181C21"></path>
    </g>
</svg>