<?xml version="1.0" encoding="UTF-8"?>
<svg width="32px" height="32px" viewBox="0 0 32 32" version="1.1" xmlns="http://www.w3.org/2000/svg" xmlns:xlink="http://www.w3.org/1999/xlink">
    <!-- Generator: Sketch 63.1 (92452) - https://sketch.com -->
    <title>Icons/ion-md-lent</title>
    <desc>Created with Sketch.</desc>
    <g id="Icons/ion-md-lent" stroke="none" stroke-width="1" fill="none" fill-rule="evenodd" fill-opacity="0.9">
        <path d="M25.3538218,8.09790099 C25.6215446,8.09790099 25.8382574,8.31429703 25.8382574,8.58170297 C25.8382574,8.84942574 25.6215446,9.06582178 25.3538218,9.06582178 L24.8700198,9.06582178 C24.6026139,9.06582178 24.3862178,8.84942574 24.3862178,8.58170297 C24.3862178,8.31429703 24.6026139,8.09790099 24.8700198,8.09790099 L25.3538218,8.09790099 Z M7.44681188,8.09790099 C7.71390099,8.09790099 7.93061386,8.31429703 7.93061386,8.58170297 C7.93061386,8.84942574 7.71390099,9.06582178 7.44681188,9.06582178 L6.96269307,9.06582178 C6.69560396,9.06582178 6.47889109,8.84942574 6.47889109,8.58170297 C6.47889109,8.31429703 6.69560396,8.09790099 6.96269307,8.09790099 L7.44681188,8.09790099 Z M19.546297,10.5175446 L19.546297,9.54994059 L20.5142178,9.54994059 C20.7809901,9.54994059 20.9980198,9.76665347 20.9980198,10.0337426 C20.9980198,10.3008317 20.7809901,10.5175446 20.5142178,10.5175446 L19.546297,10.5175446 Z M21.4824554,13.4216238 C21.7495446,13.4216238 21.9662574,13.2052277 21.9662574,12.937505 L21.9662574,11.9695842 C21.9662574,11.6647921 21.8591683,11.2830099 21.6066535,10.9870891 C21.829703,10.7317228 21.9662574,10.3987327 21.9662574,10.0337426 C21.9662574,9.23310891 21.3148515,8.58170297 20.5142178,8.58170297 L19.062495,8.58170297 C18.7950891,8.58170297 18.5783762,8.79841584 18.5783762,9.06582178 L18.5783762,12.937505 C18.5783762,13.2052277 18.7950891,13.4216238 19.062495,13.4216238 C19.329901,13.4216238 19.546297,13.2052277 19.546297,12.937505 L19.546297,11.4857822 L20.5142178,11.4857822 C20.9042376,11.4857822 20.9926337,11.751604 20.9980198,11.9695842 L20.9980198,12.937505 C20.9980198,13.2052277 21.2150495,13.4216238 21.4824554,13.4216238 Z M12.7705347,11.4857822 L11.318495,11.4857822 L11.318495,12.937505 C11.318495,13.2052277 11.1017822,13.4216238 10.8346931,13.4216238 C10.5672871,13.4216238 10.3505743,13.2052277 10.3505743,12.937505 L10.3505743,10.0337426 C10.3505743,9.23310891 11.0019802,8.58170297 11.8026139,8.58170297 L13.2546535,8.58170297 C13.5217426,8.58170297 13.7384554,8.79841584 13.7384554,9.06582178 C13.7384554,9.33322772 13.5217426,9.54994059 13.2546535,9.54994059 L11.8026139,9.54994059 C11.5358416,9.54994059 11.318495,9.76665347 11.318495,10.0337426 L11.318495,10.5175446 L12.7705347,10.5175446 C13.0379406,10.5175446 13.2546535,10.7342574 13.2546535,11.0016634 C13.2546535,11.2693861 13.0379406,11.4857822 12.7705347,11.4857822 Z M15.190495,11.7278416 L15.190495,10.275802 C15.190495,9.87532673 15.516198,9.54994059 15.9163564,9.54994059 C16.3168317,9.54994059 16.6422178,9.87532673 16.6422178,10.275802 L16.6422178,11.7278416 C16.6422178,12.128 16.3168317,12.453703 15.9163564,12.453703 C15.516198,12.453703 15.190495,12.128 15.190495,11.7278416 Z M17.6104554,11.7278416 L17.6104554,10.275802 C17.6104554,9.34178218 16.8506931,8.58170297 15.9163564,8.58170297 C14.9826535,8.58170297 14.2225743,9.34178218 14.2225743,10.275802 L14.2225743,11.7278416 C14.2225743,12.6615446 14.9826535,13.4216238 15.9163564,13.4216238 C16.8506931,13.4216238 17.6104554,12.6615446 17.6104554,11.7278416 Z M22.2083168,19.7135842 L22.2083168,16.3253861 L21.724198,16.3253861 C21.4571089,16.3253861 21.240396,16.1089901 21.240396,15.8415842 C21.240396,15.5738614 21.4571089,15.3574653 21.724198,15.3574653 L23.6603564,15.3574653 C23.9274455,15.3574653 24.1441584,15.5738614 24.1441584,15.8415842 C24.1441584,16.1089901 23.9274455,16.3253861 23.6603564,16.3253861 L23.1759208,16.3253861 L23.1759208,19.7135842 C23.1759208,19.9806733 22.9595248,20.1973861 22.6921188,20.1973861 C22.4247129,20.1973861 22.2083168,19.9806733 22.2083168,19.7135842 Z M13.496396,16.3253861 L13.496396,17.2936238 L14.9484356,17.2936238 C15.2158416,17.2936238 15.4325545,17.5100198 15.4325545,17.7774257 C15.4325545,18.0451485 15.2158416,18.2615446 14.9484356,18.2615446 L13.496396,18.2615446 L13.496396,19.2294653 L15.4325545,19.2294653 C15.6996436,19.2294653 15.9163564,19.4458614 15.9163564,19.7135842 C15.9163564,19.9806733 15.6996436,20.1973861 15.4325545,20.1973861 L13.0125941,20.1973861 C12.7451881,20.1973861 12.5284752,19.9806733 12.5284752,19.7135842 L12.5284752,15.8415842 C12.5284752,15.5738614 12.7451881,15.3574653 13.0125941,15.3574653 L15.4325545,15.3574653 C15.6996436,15.3574653 15.9163564,15.5738614 15.9163564,15.8415842 C15.9163564,16.1089901 15.6996436,16.3253861 15.4325545,16.3253861 L13.496396,16.3253861 Z M16.8842772,19.7135842 L16.8842772,15.8415842 C16.8842772,15.625505 17.0274851,15.4360396 17.2350099,15.3764752 C17.4415842,15.3169109 17.6643168,15.401505 17.7790099,15.5849505 L19.3045545,18.0261386 L19.3045545,15.8415842 C19.3045545,15.5738614 19.5209505,15.3574653 19.7883564,15.3574653 C20.0557624,15.3574653 20.2721584,15.5738614 20.2721584,15.8415842 L20.2721584,19.7135842 C20.2721584,19.9293465 20.1292673,20.1188119 19.9217426,20.1783762 C19.877703,20.1913663 19.8330297,20.1973861 19.7883564,20.1973861 C19.6245545,20.1973861 19.4677228,20.1140594 19.3777426,19.969901 L17.8525149,17.5290297 L17.8525149,19.7135842 C17.8525149,19.9806733 17.635802,20.1973861 17.368396,20.1973861 C17.1013069,20.1973861 16.8842772,19.9806733 16.8842772,19.7135842 Z M9.14059406,17.2936238 L9.14059406,16.3253861 L10.1085149,16.3253861 C10.375604,16.3253861 10.5926337,16.5424158 10.5926337,16.8098218 C10.5926337,17.0762772 10.375604,17.2936238 10.1085149,17.2936238 L9.14059406,17.2936238 Z M10.1085149,15.3574653 L8.65679208,15.3574653 C8.38938614,15.3574653 8.17267327,15.5738614 8.17267327,15.8415842 L8.17267327,19.7135842 C8.17267327,19.9806733 8.38938614,20.1973861 8.65679208,20.1973861 C8.92419802,20.1973861 9.14059406,19.9806733 9.14059406,19.7135842 L9.14059406,18.2615446 L10.1085149,18.2615446 C10.4982178,18.2615446 10.5872475,18.5276832 10.5926337,18.7453465 L10.5926337,19.7135842 C10.5926337,19.9806733 10.8093465,20.1973861 11.0764356,20.1973861 C11.3438416,20.1973861 11.5605545,19.9806733 11.5605545,19.7135842 L11.5605545,18.7453465 C11.5605545,18.4405545 11.4537822,18.0587723 11.2012673,17.7628515 C11.4243168,17.5074851 11.5605545,17.174495 11.5605545,16.8098218 C11.5605545,16.0088713 10.9094653,15.3574653 10.1085149,15.3574653 Z M27.774099,11.0694653 C27.774099,11.3352871 27.5564356,11.5532673 27.290297,11.5532673 C27.0238416,11.5532673 26.8058614,11.3352871 26.8058614,11.0694653 C26.8058614,10.8033267 27.0238416,10.5853465 27.290297,10.5853465 C27.5564356,10.5853465 27.774099,10.8033267 27.774099,11.0694653 Z M14.7066931,6.16174257 L16.6425347,6.16174257 L16.6425347,5.19382178 L14.7066931,5.19382178 L14.7066931,6.16174257 Z M25.3538218,6.16174257 L17.6104554,6.16174257 L17.6104554,5.19382178 C17.6104554,4.66027723 17.176396,4.22590099 16.6422178,4.22590099 L14.7066931,4.22590099 C14.1725149,4.22590099 13.7384554,4.66027723 13.7384554,5.19382178 L13.7384554,6.16174257 L6.96269307,6.16174257 C5.62693069,6.16174257 4.54273267,7.24625743 4.54273267,8.58170297 L4.54273267,20.1973861 C4.54273267,21.5331485 5.62693069,22.6173465 6.96269307,22.6173465 L13.7384554,22.6173465 L13.7384554,26.9731485 C13.7384554,27.2408713 13.9551683,27.4572673 14.2225743,27.4572673 C14.4896634,27.4572673 14.7066931,27.2408713 14.7066931,26.9731485 L14.7066931,22.6173465 L16.6422178,22.6173465 L16.6422178,26.9731485 C16.6422178,27.2408713 16.8592475,27.4572673 17.1266535,27.4572673 C17.3934257,27.4572673 17.6104554,27.2408713 17.6104554,26.9731485 L17.6104554,22.6173465 L25.3538218,22.6173465 C26.689901,22.6173465 27.774099,21.5331485 27.774099,20.1973861 L27.774099,13.0053069 C27.774099,12.7391683 27.5564356,12.521505 27.290297,12.521505 C27.0238416,12.521505 26.8058614,12.7391683 26.8058614,13.0053069 L26.8058614,20.1973861 C26.8058614,20.995802 26.1525545,21.6494257 25.3538218,21.6494257 L6.96269307,21.6494257 C6.1639604,21.6494257 5.51065347,20.995802 5.51065347,20.1973861 L5.51065347,8.58170297 C5.51065347,7.7829703 6.1639604,7.1299802 6.96269307,7.1299802 L25.3538218,7.1299802 C26.1525545,7.1299802 26.8058614,7.7829703 26.8058614,8.58170297 L26.8058614,9.13330693 C26.8058614,9.39944554 27.0238416,9.61742574 27.290297,9.61742574 C27.5564356,9.61742574 27.774099,9.39944554 27.774099,9.13330693 L27.774099,8.58170297 C27.774099,7.24625743 26.689901,6.16174257 25.3538218,6.16174257 L25.3538218,6.16174257 Z" id="↳-🎨-Fill" fill="#181C21"></path>
    </g>
</svg>