<?xml version="1.0" encoding="UTF-8"?>
<svg width="32px" height="32px" viewBox="0 0 32 32" version="1.1" xmlns="http://www.w3.org/2000/svg" xmlns:xlink="http://www.w3.org/1999/xlink">
    <!-- Generator: Sketch 63.1 (92452) - https://sketch.com -->
    <title>Icons/ion-md-musical-notes</title>
    <desc>Created with Sketch.</desc>
    <g id="Icons/ion-md-musical-notes" stroke="none" stroke-width="1" fill="none" fill-rule="evenodd" fill-opacity="0.9">
        <path d="M10,4 L28,4 L28,23.6875 C28,24.9375062 27.5729209,25.9687459 26.71875,26.78125 C25.8645791,27.5937541 24.8333394,28 23.625,28 C22.4166606,28 21.3958375,27.6145872 20.5625,26.84375 C19.7291625,26.0729128 19.3125,25.1041725 19.3125,23.9375 C19.3125,22.7708275 19.7291625,21.8020872 20.5625,21.03125 C21.3958375,20.2604128 22.4166606,19.875 23.625,19.875 C24.29167,19.875 24.8541644,19.9583325 25.3125,20.125 L25.3125,12.5 L12.6875,12.5 L12.6875,23.6875 C12.6875,24.9375062 12.2604209,25.9687459 11.40625,26.78125 C10.5520791,27.5937541 9.52083937,28 8.3125,28 C7.10416063,28 6.0833375,27.6145872 5.25,26.84375 C4.4166625,26.0729128 4,25.1041725 4,23.9375 C4,22.7708275 4.4166625,21.8020872 5.25,21.03125 C6.0833375,20.2604128 7.10416063,19.875 8.3125,19.875 C8.97917,19.875 9.54166437,19.9583325 10,20.125 L10,4 Z M25.3125,10 L25.3125,6.6875 L12.6875,6.6875 L12.6875,10 L25.3125,10 Z" id="↳-🎨-Fill" fill="#181C21"></path>
    </g>
</svg>