<?xml version="1.0" encoding="UTF-8"?>
<svg width="32px" height="32px" viewBox="0 0 32 32" version="1.1" xmlns="http://www.w3.org/2000/svg" xmlns:xlink="http://www.w3.org/1999/xlink">
    <!-- Generator: Sketch 63.1 (92452) - https://sketch.com -->
    <title>Icons/ion-ios-globe</title>
    <desc>Created with Sketch.</desc>
    <g id="Icons/ion-ios-globe" stroke="none" stroke-width="1" fill="none" fill-rule="evenodd" fill-opacity="0.9">
        <path d="M16,3 C19.5833512,3 22.6458206,4.27082062 25.1875,6.8125 C27.7291794,9.35417938 29,12.4166488 29,16 C29,19.5833512 27.7291794,22.6458206 25.1875,25.1875 C22.6458206,27.7291794 19.5833512,29 16,29 L15.9375,29 C12.3958156,29 9.35417938,27.7291794 6.8125,25.1875 C4.27082063,22.6458206 3,19.5833512 3,16 C3,12.4166488 4.27082063,9.35417938 6.8125,6.8125 C9.35417938,4.27082062 12.3958156,3 15.9375,3 L16,3 Z M27.25,15.125 C27.0416656,12.8749887 26.2500069,10.8541756 24.875,9.0625 C23.8333281,9.60416938 22.8125,10.041665 21.8125,10.375 C22.145835,11.7916738 22.3541662,13.3749913 22.4375,15.125 L27.25,15.125 Z M15.125,15.125 L15.125,11.25 C13.8749937,11.1666662 12.7708381,11.0208344 11.8125,10.8125 C11.5208319,12.1041731 11.3333337,13.5416587 11.25,15.125 L15.125,15.125 Z M15.125,16.875 L11.25,16.875 C11.3333337,18.4583413 11.5208319,19.8958269 11.8125,21.1875 C12.7708381,20.9791656 13.8749937,20.8333338 15.125,20.75 L15.125,16.875 Z M16.875,16.875 L16.875,20.75 C18.0833394,20.8333338 19.1666619,20.9791656 20.125,21.1875 C20.4166681,19.8958269 20.6041662,18.4583413 20.6875,16.875 L16.875,16.875 Z M16.875,15.125 L20.6875,15.125 C20.6041662,13.5416587 20.4166681,12.1041731 20.125,10.8125 C19.1666619,11.0208344 18.0833394,11.1666662 16.875,11.25 L16.875,15.125 Z M23.6875,7.75 C22.3958269,6.5833275 21.0625069,5.77083563 19.6875,5.3125 C20.3125031,6.27083813 20.8541644,7.41666 21.3125,8.75 C21.97917,8.54166563 22.7708287,8.20833563 23.6875,7.75 Z M19.6875,9.1875 C18.9791631,6.97915563 18.0416725,5.56250312 16.875,4.9375 L16.875,9.5625 C17.7916713,9.52083312 18.7291619,9.39583437 19.6875,9.1875 Z M15.125,4.9375 C13.9999944,5.52083625 13.0416706,6.93748875 12.25,9.1875 C13.1666713,9.3541675 14.124995,9.47916625 15.125,9.5625 L15.125,4.9375 Z M12.25,5.3125 C10.8333262,5.77083563 9.52083937,6.5833275 8.3125,7.75 C9.3125,8.2500025 10.0833306,8.5833325 10.625,8.75 C11.1250025,7.29165938 11.6666637,6.1458375 12.25,5.3125 Z M7.125,9.0625 C5.75,10.8125087 4.95833437,12.8333219 4.75,15.125 L9.5625,15.125 C9.64583375,13.3749913 9.854165,11.7916738 10.1875,10.375 C9.47916312,10.1666656 8.45834,9.72917 7.125,9.0625 Z M4.75,16.875 C4.95833437,19.208345 5.72916,21.2291581 7.0625,22.9375 C8.02083813,22.4791644 9.06249437,22.0416687 10.1875,21.625 C9.854165,20.2083262 9.64583375,18.6250087 9.5625,16.875 L4.75,16.875 Z M8.25,24.25 C9.45833938,25.3750056 10.7916594,26.1874975 12.25,26.6875 C11.6249969,25.7291619 11.0833356,24.58334 10.625,23.25 C9.95833,23.4583344 9.16667125,23.7916644 8.25,24.25 Z M12.25,22.8125 C13.0416706,25.0625113 13.9999944,26.4791638 15.125,27.0625 L15.125,22.4375 C14.124995,22.5208338 13.1666713,22.6458325 12.25,22.8125 Z M16.875,27.0625 C18.0416725,26.4375 18.9791631,25.0208444 19.6875,22.8125 C18.7291619,22.6041656 17.7916713,22.4791669 16.875,22.4375 L16.875,27.0625 Z M19.6875,26.6875 C21.1041738,26.2291644 22.4583269,25.4166725 23.75,24.25 C22.8333287,23.7916644 22.04167,23.4583344 21.375,23.25 C20.9583313,24.4583394 20.3958369,25.6041613 19.6875,26.6875 Z M24.875,22.9375 C26.2500069,21.1458244 27.0416656,19.1250113 27.25,16.875 L22.4375,16.875 C22.3541662,18.6250087 22.145835,20.2083262 21.8125,21.625 C22.8125,21.958335 23.8333281,22.3958306 24.875,22.9375 Z" id="↳-🎨-Fill" fill="#181C21"></path>
    </g>
</svg>