<?xml version="1.0" encoding="UTF-8"?>
<svg width="32px" height="32px" viewBox="0 0 32 32" version="1.1" xmlns="http://www.w3.org/2000/svg" xmlns:xlink="http://www.w3.org/1999/xlink">
    <!-- Generator: Sketch 63.1 (92452) - https://sketch.com -->
    <title>Icons/ion-ios-flash</title>
    <desc>Created with Sketch.</desc>
    <g id="Icons/ion-ios-flash" stroke="none" stroke-width="1" fill="none" fill-rule="evenodd" fill-opacity="0.9">
        <path d="M23.5,13.9999997 C23.7083344,13.9999997 23.8645828,14.1041656 23.96875,14.3125 C24.0729172,14.5208344 24.0625006,14.7083325 23.9375,14.875 L12.4375,29.875 C12.3541663,29.9999997 12.2500006,30.0312503 12.125,29.96875 C11.9999994,29.9062497 11.9583331,29.8125006 12,29.6875 L15.25,17.9999997 L8.5,17.9999997 C8.29166563,17.9999997 8.14583375,17.9166675 8.0625,17.75 C7.97916625,17.5833325 7.99999938,17.3958344 8.125,17.1875 L19.5625,2.125 C19.6458338,1.99999972 19.7499994,1.96874969 19.875,2.03125 C20.0000006,2.09375031 20.0416669,2.18749938 20,2.3125 L16.75,13.9999997 L23.5,13.9999997 Z" id="↳-🎨-Fill" fill="#181C21"></path>
    </g>
</svg>