<?xml version="1.0" encoding="UTF-8"?>
<svg width="32px" height="32px" viewBox="0 0 32 32" version="1.1" xmlns="http://www.w3.org/2000/svg" xmlns:xlink="http://www.w3.org/1999/xlink">
    <!-- Generator: Sketch 63.1 (92452) - https://sketch.com -->
    <title>Icons/ion-ios-camera</title>
    <desc>Created with Sketch.</desc>
    <g id="Icons/ion-ios-camera" stroke="none" stroke-width="1" fill="none" fill-rule="evenodd" fill-opacity="0.9">
        <path d="M13.4375,19.75 C12.7291631,19.0416631 12.375,18.187505 12.375,17.1875 C12.375,16.187495 12.7291631,15.3437534 13.4375,14.65625 C14.1458369,13.9687466 14.999995,13.625 16,13.625 C17.000005,13.625 17.8541631,13.9687466 18.5625,14.65625 C19.2708369,15.3437534 19.625,16.187495 19.625,17.1875 C19.625,18.187505 19.2708369,19.0312466 18.5625,19.71875 C17.8541631,20.4062534 17.000005,20.75 16,20.75 C14.999995,20.75 14.1458369,20.41667 13.4375,19.75 Z M26.125,10 C26.6666694,10 27.1145816,10.1770816 27.46875,10.53125 C27.8229184,10.8854184 28,11.3541638 28,11.9375 L28,22.9375 C28,23.5208363 27.8229184,24.0104147 27.46875,24.40625 C27.1145816,24.8020853 26.6666694,25 26.125,25 L6.125,25 C5.54166375,25 5.04166875,24.7916687 4.625,24.375 C4.20833125,23.9583313 4,23.4791694 4,22.9375 L4,11.9375 C4,11.3958306 4.20833125,10.9375019 4.625,10.5625 C5.04166875,10.1874981 5.54166375,10 6.125,10 L6.5625,10 L6.5625,9.5 C6.5625,9.166665 6.729165,9 7.0625,9 L8.6875,9 C9.020835,9 9.1875,9.166665 9.1875,9.5 L9.1875,10 L9.4375,10 C9.72916813,10 9.97916563,9.89583437 10.1875,9.6875 C11.7708413,7.89582438 12.8541637,7 13.4375,7 L18.75,7 C19.2916694,7 20.3541587,7.89582438 21.9375,9.6875 C22.1458344,9.89583437 22.3958319,10 22.6875,10 L26.125,10 Z M16.25,22.5 C17.6250069,22.4166663 18.8020784,21.8958381 19.78125,20.9375 C20.7604216,19.9791619 21.2708331,18.8125069 21.3125,17.4375 C21.3541669,15.8958256 20.8333387,14.5625056 19.75,13.4375 C18.6666612,12.3124944 17.3333412,11.7916662 15.75,11.875 C14.3749931,11.9583338 13.1979216,12.4791619 12.21875,13.4375 C11.2395784,14.3958381 10.7291669,15.5624931 10.6875,16.9375 C10.6458331,18.5208413 11.1666613,19.8645778 12.25,20.96875 C13.3333387,22.0729222 14.6666587,22.5833338 16.25,22.5 Z M21.1875,12.8125 C21.1875,13.3541694 21.4583306,13.625 22,13.625 C22.5416694,13.625 22.8125,13.3541694 22.8125,12.8125 C22.8125,12.2708306 22.5416694,12 22,12 C21.4583306,12 21.1875,12.2708306 21.1875,12.8125 Z" id="↳-🎨-Fill" fill="#181C21"></path>
    </g>
</svg>