<?xml version="1.0" encoding="UTF-8"?>
<svg width="32px" height="32px" viewBox="0 0 32 32" version="1.1" xmlns="http://www.w3.org/2000/svg" xmlns:xlink="http://www.w3.org/1999/xlink">
    <!-- Generator: Sketch 63.1 (92452) - https://sketch.com -->
    <title>Icons/ion-ios-people</title>
    <desc>Created with Sketch.</desc>
    <g id="Icons/ion-ios-people" stroke="none" stroke-width="1" fill="none" fill-rule="evenodd" fill-opacity="0.9">
        <path d="M21.84375,20.9375 C22.177085,21.0625006 22.5312481,21.2499987 22.90625,21.5 C23.28125,21.7500013 23.6666647,22.20833 24.0625,22.875 C24.4583353,23.54167 24.65625,24.2916625 24.65625,25.125 L7.28125,25.125 C7.28125,23.9166606 7.60416344,22.9687534 8.25,22.28125 C8.89583656,21.5937466 9.53124688,21.1458344 10.15625,20.9375 C10.4062513,20.8541662 10.8124972,20.7604172 11.375,20.65625 C11.9375028,20.5520828 12.3020825,20.4791669 12.46875,20.4375 C13.13542,20.2291656 13.5104162,20.0625006 13.59375,19.9375 L13.78125,18.1875 C13.4895819,17.8958319 13.28125,17.6041681 13.15625,17.3125 L12.84375,15.5625 L12.71875,15.625 C12.6770831,15.625 12.6041672,15.5729172 12.5,15.46875 C12.3958328,15.3645828 12.3229169,15.1875013 12.28125,14.9375 C12.2395831,14.7708325 12.1875003,14.5729178 12.125,14.34375 C12.0624997,14.1145822 12.0208334,13.9270841 12,13.78125 C11.9791666,13.6354159 11.96875,13.4791675 11.96875,13.3125 C12.0520838,13.0624987 12.1562494,12.9375 12.28125,12.9375 C12.0729156,12.5624981 11.96875,11.7708394 11.96875,10.5625 C11.96875,9.562495 12.3229131,8.69792031 13.03125,7.96875 C13.7395869,7.23957969 14.7187438,6.875 15.96875,6.875 C17.2187562,6.875 18.2083297,7.23957969 18.9375,7.96875 C19.6666703,8.69792031 20.03125,9.562495 20.03125,10.5625 C20.03125,11.1041694 20.0000003,11.5729147 19.9375,11.96875 C19.8749997,12.3645853 19.8020838,12.6249994 19.71875,12.75 L19.65625,12.9375 L19.90625,13 L20.03125,13.3125 C20.03125,13.4791675 20.0208334,13.6354159 20,13.78125 C19.9791666,13.9270841 19.9375003,14.1145822 19.875,14.34375 C19.8124997,14.5729178 19.7604169,14.7708325 19.71875,14.9375 C19.6770831,15.1875013 19.6041672,15.3645828 19.5,15.46875 C19.3958328,15.5729172 19.3020838,15.625 19.21875,15.625 L19.09375,15.5625 C19.0520831,16.4375044 18.9687506,17.0208319 18.84375,17.3125 L18.21875,18.1875 C18.21875,19.187505 18.28125,19.7708325 18.40625,19.9375 C18.4895838,20.0625006 18.8437469,20.2291656 19.46875,20.4375 C19.6354175,20.4791669 20.0104138,20.5520828 20.59375,20.65625 C21.1770863,20.7604172 21.5937487,20.8541662 21.84375,20.9375 Z M8.71875,17.875 C8.67708312,18.4583363 8.69791625,18.7916662 8.78125,18.875 L9.96875,19.25 C10.1770844,19.2916669 10.3333328,19.3541662 10.4375,19.4375 C10.5416672,19.5208338 10.59375,19.6041662 10.59375,19.6875 L10.53125,19.8125 C9.61457875,19.9375 9.09375063,20.0416662 8.96875,20.125 C7.8020775,20.7500031 7.1354175,21.3749969 6.96875,22 L1.96875,22 C1.96875,21.4166638 2.135415,20.9062522 2.46875,20.46875 C2.802085,20.0312478 3.11458187,19.7500006 3.40625,19.625 C3.78125188,19.4583325 4.30208,19.3125006 4.96875,19.1875 C5.34375188,19.1041662 5.59374937,19.0000006 5.71875,18.875 L5.84375,17.8125 C4.843745,17.8541669 4.13541875,17.6875019 3.71875,17.3125 C4.01041813,16.9375 4.19791625,16.4583363 4.28125,15.875 C4.36458375,15.2916637 4.37500031,14.7291694 4.3125,14.1875 C4.24999969,13.6458306 4.26041625,13.0833363 4.34375,12.5 C4.55208437,10.7916581 5.51040812,9.9375 7.21875,9.9375 L7.28125,9.9375 C9.03125875,9.9375 10.0104156,10.7916581 10.21875,12.5 C10.3020837,13.0833363 10.3125003,13.6249975 10.25,14.125 C10.1874997,14.6250025 10.1979162,15.1666638 10.28125,15.75 C10.3645837,16.3333362 10.5520819,16.8541644 10.84375,17.3125 C10.6770825,17.4791675 10.4166684,17.6041662 10.0625,17.6875 C9.70833156,17.7708338 9.38541813,17.8333331 9.09375,17.875 L8.71875,17.875 Z M23.21875,17.875 C22.2604119,17.8333331 21.5729187,17.645835 21.15625,17.3125 C21.4479181,16.8541644 21.6354162,16.3333362 21.71875,15.75 C21.8020838,15.1666638 21.8125003,14.6250025 21.75,14.125 C21.6874997,13.6249975 21.6979162,13.0833363 21.78125,12.5 C21.9895844,10.7916581 22.9687413,9.9375 24.71875,9.9375 C26.4687587,9.9375 27.4479156,10.7916581 27.65625,12.5 C27.7395838,13.0833363 27.7500003,13.6458306 27.6875,14.1875 C27.6249997,14.7291694 27.6354163,15.2916637 27.71875,15.875 C27.8020838,16.4583363 27.9895819,16.9375 28.28125,17.3125 C28.1145825,17.4791675 27.8541684,17.6041662 27.5,17.6875 C27.1458316,17.7708338 26.8437512,17.8125 26.59375,17.8125 L26.21875,17.8125 C26.1354162,18.4375 26.1354162,18.7916662 26.21875,18.875 C26.3437506,19.0000006 26.5937481,19.1041662 26.96875,19.1875 C27.7187537,19.3541675 28.260415,19.4999994 28.59375,19.625 C28.8854181,19.7500006 29.197915,20.0312478 29.53125,20.46875 C29.864585,20.9062522 30.03125,21.4166638 30.03125,22 L25.03125,22 C24.8645825,21.3749969 24.1979225,20.7500031 23.03125,20.125 C22.9062494,20.0416662 22.3854213,19.9375 21.46875,19.8125 C21.3437494,19.5208319 21.5312475,19.3333338 22.03125,19.25 C22.7395869,19.0833325 23.1354162,18.9583338 23.21875,18.875 L23.21875,17.875 Z" id="↳-🎨-Fill" fill="#181C21"></path>
    </g>
</svg>