<?xml version="1.0" encoding="UTF-8"?>
<svg width="32px" height="32px" viewBox="0 0 32 32" version="1.1" xmlns="http://www.w3.org/2000/svg" xmlns:xlink="http://www.w3.org/1999/xlink">
    <!-- Generator: Sketch 63.1 (92452) - https://sketch.com -->
    <title>Icons/ion-md-repair</title>
    <desc>Created with Sketch.</desc>
    <g id="Icons/ion-md-repair" stroke="none" stroke-width="1" fill="none" fill-rule="evenodd" fill-opacity="0.9">
        <path d="M23.9219184,3 C24.4767601,3 25.0222785,3.08911381 25.5435957,3.26486474 C25.7094333,3.32080349 25.8348033,3.4580717 25.8752709,3.62826843 C25.9159368,3.79866346 25.8659474,3.97778658 25.7431562,4.10235946 L25.7431562,4.10235946 L23.6680044,6.20839494 L23.6680044,7.23175714 L24.7790765,8.3828661 L25.7883847,8.3828661 L27.8936888,6.26096151 C28.0174719,6.13599188 28.1975921,6.08421877 28.3689841,6.12409001 C28.540376,6.1637629 28.6790368,6.28972434 28.7351756,6.45654884 C28.9109317,6.97785064 29,7.52335292 29,8.0781783 C29,10.8780926 26.7221137,13.1561101 23.9219184,13.1561101 C23.4749901,13.1561101 23.0338145,13.0981876 22.6063265,12.9839297 L22.6063265,12.9839297 L19.5990326,15.9911349 L20.3451033,16.675889 L20.6575365,16.3632666 C20.8561053,16.1649022 21.1774651,16.1649022 21.3758354,16.3632666 C21.5742057,16.5616311 21.5742057,16.8831798 21.3758354,17.081346 L21.3758354,17.081346 L21.0941496,17.3630235 L28.0920591,23.7828908 L28.0920591,23.7828908 L28.1079287,23.7979665 C29.2953734,24.9859712 29.2953734,26.9190328 28.1079287,28.1070376 C26.9171117,29.2978194 24.9887539,29.2974227 23.7985321,28.107236 C23.7935728,28.1022768 23.7886135,28.0973177 23.7838526,28.0921603 L23.7838526,28.0921603 L17.3514969,21.1053673 L17.0666372,21.3902187 C16.8680685,21.5883848 16.5467086,21.5883848 16.3483382,21.3902187 C16.1499679,21.1918542 16.1499679,20.8703054 16.3483382,20.671941 L16.3483382,20.671941 L16.6629536,20.3575333 L15.9773858,19.6128731 L12.9845729,22.6055977 C13.3836939,24.0820244 13.1045869,25.6252999 12.1998199,26.8847158 C11.2341533,28.228635 9.73209325,28.9994793 8.07808162,28.9994793 C7.52343823,28.9994793 6.97772149,28.9104137 6.45660267,28.7346628 C6.28977325,28.6785256 6.16380809,28.5398688 6.12413402,28.368482 C6.0842616,28.1968967 6.13603624,28.0169801 6.26100956,27.8930024 L6.26100956,27.8930024 L8.38277842,25.7879587 L8.38277842,24.7731262 L7.22647783,23.6168598 L6.21161537,23.6168598 L4.10650957,25.738566 C3.98252814,25.8635356 3.80260631,25.9153087 3.63101595,25.8754374 C3.459624,25.8357646 3.32096314,25.7098031 3.26482438,25.5429786 C3.08906826,25.0218752 3,24.4761745 3,23.9215476 C3,22.2675847 3.77066865,20.7653707 5.11462752,19.7999308 C6.37408062,18.8951906 7.91760005,18.6160918 9.39407024,19.015201 L9.39407024,19.015201 L13.1204565,15.2889247 L6.88785975,9.04282467 L5.66232794,9.04242791 C5.48399302,9.04222956 5.31875056,8.94879989 5.2271035,8.79586088 L5.2271035,8.79586088 L3.07280192,5.20526584 C2.95298625,5.00531447 2.98452709,4.74962269 3.14917447,4.58478182 L3.14917447,4.58478182 L4.58537553,3.14882155 C4.75002291,2.98398067 5.00572223,2.95244071 5.20567951,3.07245119 L5.20567951,3.07245119 L8.7963805,5.22708596 C8.94932403,5.31873031 9.04295481,5.48416629 9.04295481,5.66249595 L9.04295481,5.66249595 L9.04295481,6.88838825 L15.2749565,13.1344883 L19.0156255,9.39392973 C18.6163061,7.91750311 18.8950163,6.37482268 19.7991882,5.11600186 C20.7652516,3.77128919 22.2679067,3 23.9219184,3 Z M23.92172,4.0156742 C22.5987884,4.0156742 21.3968627,4.63258769 20.624012,5.70851651 C19.8501694,6.78583384 19.6486252,8.12241358 20.0709555,9.3758786 C20.1324504,9.55877061 20.0852382,9.76050725 19.9487594,9.896982 C19.9416181,9.90412312 9.9251076,19.9205364 9.89713735,19.9483074 C9.76065858,20.0847822 9.55871762,20.1321913 9.37601858,20.0705 C8.12231821,19.648182 6.7851039,19.8503154 5.70715966,20.6247302 C4.63199257,21.3969631 4.01545764,22.5984566 4.01545764,23.9213492 C4.01545764,24.0699241 4.02339245,24.2177057 4.03926208,24.3640986 L4.03926208,24.3640986 L5.63951534,22.7511972 C5.7349315,22.6551889 5.86466566,22.6010353 6.00015259,22.6010353 L6.00015259,22.6010353 L7.43675041,22.6010353 C7.57144382,22.6010353 7.7005829,22.6545938 7.79580065,22.7498087 L7.79580065,22.7498087 L9.24965665,24.2036218 C9.3448744,24.2988367 9.39843441,24.427972 9.39843441,24.5626615 L9.39843441,24.5626615 L9.39843441,25.9992169 C9.39843441,26.1346998 9.34427933,26.2644301 9.24826805,26.3596451 L9.24826805,26.3596451 L7.63531908,27.9600495 C7.78171635,27.9757203 7.92950222,27.9838533 8.07808162,27.9838533 C9.40081486,27.9838533 10.6025422,27.3671382 11.3747978,26.2922012 C12.1492355,25.2140903 12.3511765,23.8771139 11.9290445,22.6236489 C11.8673513,22.4407568 11.9147618,22.2388219 12.0512406,22.1023471 C13.8876087,20.2658529 18.5882145,15.5655333 21.3404543,12.813403 L22.1028626,12.0510217 C22.2393414,11.9147453 22.4412824,11.8675345 22.6239815,11.9288292 C23.0409558,12.0692712 23.4777673,12.140484 23.9219184,12.140484 C26.1619159,12.140484 27.984344,10.3181098 27.984344,8.0781783 C27.984344,7.92960333 27.9764092,7.78182177 27.9605396,7.63542883 L27.9605396,7.63542883 L26.3602863,9.24813184 C26.2648701,9.34433864 26.1351359,9.39829378 25.9998474,9.39829378 L25.9998474,9.39829378 L24.5632496,9.39829378 C24.4253823,9.39829378 24.293466,9.34235497 24.1978515,9.24317274 L24.1978515,9.24317274 L22.7947783,7.78935965 C22.7033296,7.69473981 22.6523484,7.56838166 22.6523484,7.43666766 L22.6523484,7.43666766 L22.6523484,6.00011224 C22.6523484,5.86681132 22.7047181,5.73886626 22.7983489,5.64384967 L22.7983489,5.64384967 L24.3777734,4.0408665 C24.2270119,4.02420389 24.0748619,4.0156742 23.92172,4.0156742 Z M20.3752556,18.0818963 L18.0701925,20.3864945 L24.5235756,27.3960994 C25.3178503,28.1826145 26.598529,28.1802341 27.3896298,27.3891566 C28.1789453,26.5994677 28.1813257,25.3160497 27.3969695,24.5233853 L27.3969695,24.5233853 L20.3752556,18.0818963 Z M20.1590707,20.1605858 C20.3712349,19.9470059 20.7164009,19.9463658 20.9294164,20.1593056 L20.9294164,20.1593056 L25.8398385,25.0669481 C26.0528541,25.2798878 26.0534925,25.6257548 25.8411154,25.8393347 C25.6283127,26.0533413 25.2833595,26.0533413 25.0705568,25.8406149 L25.0705568,25.8406149 L20.1601347,20.9329724 C19.9471192,20.7200327 19.9464808,20.374379 20.1590707,20.1605858 Z M11.5,20 C11.7759765,20 12,20.2240234 12,20.5 C12,20.7765625 11.7759765,21 11.5,21 C11.2234375,21 11,20.7765625 11,20.5 C11,20.2240234 11.2234375,20 11.5,20 Z M18.1765094,13.1413 C18.3649081,12.9529 18.6703023,12.9529 18.858701,13.1413 C19.0470997,13.3296999 19.0470997,13.6350962 18.858701,13.8233078 L18.858701,13.8233078 L12.8233493,19.8587 C12.6349507,20.0471 12.3295564,20.0471 12.1411577,19.8587 C11.9529474,19.6703001 11.9529474,19.3649038 12.1411577,19.1766923 L12.1411577,19.1766923 Z M18.8801385,16.7098093 L16.6960814,18.8940003 L17.3816492,19.6386605 L19.6262093,17.3945634 L18.8801385,16.7098093 Z M5.02317882,4.1473882 L4.1477706,5.02277054 L5.95016327,8.03195939 L7.0987274,8.03235609 C7.23361922,8.03235609 7.36275825,8.08095542 7.457976,8.17636872 L7.457976,8.17636872 L13.8385571,14.5708454 L14.556856,13.852766 L8.17567981,7.45729757 C8.08066042,7.36208263 8.02729882,7.23314571 8.02729882,7.09865463 L8.02729882,7.09865463 L8.02729882,5.95012439 L5.02317882,4.1473882 Z M20.5,11 C20.7765625,11 21,11.2234812 21,11.4999023 C21,11.7761282 20.7765625,12 20.5,12 C20.2240234,12 20,11.7761282 20,11.4999023 C20,11.2234812 20.2240234,11 20.5,11 Z" id="↳-🎨-Fill" fill="#181C21"></path>
    </g>
</svg>