<?xml version="1.0" encoding="UTF-8"?>
<svg width="32px" height="32px" viewBox="0 0 32 32" version="1.1" xmlns="http://www.w3.org/2000/svg" xmlns:xlink="http://www.w3.org/1999/xlink">
    <!-- Generator: Sketch 63.1 (92452) - https://sketch.com -->
    <title>Icons/ion-md-support</title>
    <desc>Created with Sketch.</desc>
    <g id="Icons/ion-md-support" stroke="none" stroke-width="1" fill="none" fill-rule="evenodd" fill-opacity="0.9">
        <path d="M16.5,2 C20.9951087,2 24.6521739,5.67992187 24.6521739,10.203125 L24.6521739,10.203125 L24.6521739,13.6484375 C24.6521739,14.5530781 23.9207609,15.2890625 23.0217391,15.2890625 L23.0217391,15.2890625 L22.032663,15.2890625 L21.9170109,15.9866016 C21.721413,17.1674688 21.1413587,18.2996094 20.3059239,19.15525 L20.3059239,19.15525 L21.2332609,21.0215703 L23.816413,21.8878203 C26.8200543,22.8956562 29,26.0773203 29,29.453125 C29,29.7551641 28.7566304,30 28.4565217,30 L28.4565217,30 L4.54347826,30 C4.24331522,30 4,29.7551641 4,29.453125 C4,26.0773203 6.18,22.8956562 9.18353261,21.887875 L9.18353261,21.887875 L11.7667391,21.0215703 L12.693587,19.1562891 C12.6113587,19.0723438 12.531087,18.9860469 12.4541304,18.8970156 C12.0830435,18.4685391 11.7780978,17.9915547 11.5425,17.4765625 L11.5425,17.4765625 L11.0652174,17.4765625 C10.1661957,17.4765625 9.43478261,16.7405781 9.43478261,15.8359375 L9.43478261,15.8359375 L9.43478261,15.195 C8.80222826,14.96925 8.34782609,14.3613437 8.34782609,13.6484375 L8.34782609,13.6484375 L8.34782609,10.203125 C8.34782609,5.66936719 11.9933696,2 16.5,2 Z M11.815,22.1583047 L9.52728261,22.9254609 C7.11586957,23.7346172 5.32407609,26.1970859 5.10869565,28.90625 L5.10869565,28.90625 L15.5211957,28.90625 L14.8526087,27.8262266 C14.3100543,27.0962031 13.8096196,26.3272422 13.365,25.5403437 L13.365,25.5403437 L13.3634239,25.5374932 C12.7533696,24.4580234 12.2341304,23.3245156 11.815,22.1583047 L11.815,22.1583047 Z M21.185,22.1583047 C20.7689674,23.3158203 20.255163,24.4394844 19.6543478,25.5058906 C19.6540217,25.5064922 19.6536957,25.5070391 19.6533696,25.5076406 C19.6506522,25.5124531 19.6480978,25.517375 19.6453804,25.5221875 C19.1963043,26.3183281 18.6922826,27.0934688 18.147337,27.8262813 L18.147337,27.8262813 L17.4788043,28.90625 L27.8913043,28.90625 C27.6759239,26.1970859 25.8841304,23.7346172 23.472663,22.9254609 L23.472663,22.9254609 Z M16.450163,23.2857969 L14.5119565,25.3482812 C14.8858696,25.9806328 15.296413,26.5984375 15.7365217,27.1891719 C15.7458696,27.20175 15.7546739,27.2147109 15.7629348,27.2280547 L15.7629348,27.2280547 L16.5,28.4187656 C17.1736767,27.3315781 17.2329868,27.2323219 17.2545075,27.201445 L17.263587,27.1890625 C17.7040761,26.5981641 18.1160326,25.9777891 18.4924457,25.3408437 L18.4924457,25.3408437 L16.450163,23.2857969 Z M24.0912756,25.2300093 C24.2393984,24.9720424 24.5155833,24.9237841 24.7081825,25.1222972 C25.2289218,25.6588541 25.6595644,26.3591002 25.9535663,27.1473191 C26.0620958,27.4384598 25.9738908,27.792354 25.7565679,27.9377771 C25.5395968,28.0829644 25.2752019,27.9655889 25.1664084,27.6739768 C24.9315324,27.044262 24.587599,26.4849018 24.1716939,26.0563516 C23.9791387,25.8578974 23.9431088,25.4879761 24.0912756,25.2300093 Z M22.5,24 C22.776,24 23,24.224 23,24.5 C23,24.776 22.776,25 22.5,25 C22.224,25 22,24.776 22,24.5 C22,24.224 22.224,24 22.5,24 Z M19.5198913,20.0192031 L17.1972826,22.49075 L19.0422826,24.3472812 C19.5163587,23.4343281 19.9242391,22.4827109 20.2592391,21.5071953 L20.2592391,21.5071953 L19.5198913,20.0192031 Z M13.3879891,20.2044844 L12.7406522,21.50725 C13.0751087,22.481125 13.4828804,23.4324141 13.9574457,24.3464609 L13.9574457,24.3464609 L15.68125,22.5121328 L13.3879891,20.2044844 Z M15.367337,20.6493125 L16.4284239,21.7170859 L17.38875,20.6951406 C17.0947283,20.7437031 16.797337,20.76875 16.5,20.76875 C16.120163,20.76875 15.7401087,20.7283359 15.367337,20.6493125 L15.367337,20.6493125 Z M15.1982609,8.56867969 C14.0864674,8.6329375 13.0413043,9.19277344 12.3695109,10.0938047 L12.3695109,10.0938047 L11.6380435,11.0752266 C11.7068478,12.7924141 12.0181522,15.4721016 12.2902174,16.3828125 L12.2902174,16.3828125 L13.875163,16.3828125 C14.093587,15.7598125 14.68875,15.2890625 15.4130435,15.2890625 L15.4130435,15.2890625 L16.5,15.2890625 C17.3990217,15.2890625 18.1304348,16.0250469 18.1304348,16.9296875 C18.1304348,17.8361875 17.4008152,18.5703125 16.5,18.5703125 L16.5,18.5703125 L15.4130435,18.5703125 C14.7045109,18.5703125 14.1004348,18.1130703 13.876087,17.4765625 L13.876087,17.4765625 L12.7681522,17.4765625 C13.3964674,18.5361875 14.3700543,19.2754531 15.4318478,19.5425469 C16.1313043,19.7183125 16.868587,19.7183672 17.5684239,19.5425469 C19.268913,19.1147266 20.5570652,17.5438281 20.8448913,15.8066797 C20.9451087,15.1975156 20.9843478,14.9794219 21.0341304,14.6405234 C21.0341848,14.6401406 21.0342391,14.6397578 21.0342935,14.6394297 L21.122497,13.9966923 C21.2323543,13.1270316 21.3108587,12.2107578 21.3536413,11.2970391 L21.3536413,11.2970391 L20.5535326,11.1819766 C18.5536413,10.8946484 16.6611413,9.96955469 15.1982609,8.56867969 Z M16.5,16.3828125 L15.4130435,16.3828125 C15.1129348,16.3828125 14.8695652,16.6277578 14.8695652,16.9296875 C14.8695652,17.2312344 15.1133696,17.4765625 15.4130435,17.4765625 L15.4130435,17.4765625 L16.5,17.4765625 C16.8000543,17.4765625 17.0434783,17.2316719 17.0434783,16.9296875 C17.0434783,16.6281406 16.7996739,16.3828125 16.5,16.3828125 L16.5,16.3828125 Z M10.9672826,15.2890625 L10.5217391,15.2890625 L10.5217391,15.8359375 C10.5217391,16.1374844 10.7655435,16.3828125 11.0652174,16.3828125 L11.0652174,16.3828125 L11.1634783,16.3828125 C11.1321196,16.2515625 11.105,16.1194375 11.0829348,15.9868203 L11.0829348,15.9868203 L10.9672826,15.2890625 Z M23.5652174,10.75 L22.4624457,10.75 C22.4614674,10.7812812 22.4605978,10.8122344 22.4595109,10.8440625 C22.4225,11.9726484 22.3304348,13.1185156 22.1922826,14.1953125 L22.1922826,14.1953125 L23.0217391,14.1953125 C23.321413,14.1953125 23.5652174,13.9499844 23.5652174,13.6484375 L23.5652174,13.6484375 L23.5652174,10.75 Z M10.5379348,10.75 L9.43478261,10.75 L9.43478261,13.6484375 C9.43478261,13.9499844 9.67858696,14.1953125 9.97826087,14.1953125 L9.97826087,14.1952578 L10.8078804,14.1952578 C10.6728804,13.1421953 10.5820109,12.0260781 10.5439674,10.9283906 L10.5439674,10.9283906 C10.5416304,10.8643516 10.5397283,10.8070391 10.5379348,10.75 L10.5379348,10.75 Z M16.986413,5.28125 L16.013587,5.28125 C13.7311413,5.28125 11.8603261,7.04158594 11.6327174,9.26840625 C12.5563043,8.13790625 13.9534783,7.46875 15.4130435,7.46875 C15.5571739,7.46875 15.6953804,7.52639063 15.797337,7.62892969 C17.1167935,8.95663281 18.8604891,9.83392969 20.7072283,10.0992734 L20.7072283,10.0992734 L21.3870109,10.197 L21.3870109,10.197 C21.3899457,10.0553047 21.3913051,9.90546094 21.3913051,9.73335937 C21.3927174,7.28560156 19.4216848,5.28125 16.986413,5.28125 L16.986413,5.28125 Z M16.5,3.09375 C12.7704891,3.09375 9.73070652,5.99103906 9.45543478,9.65625 L9.45543478,9.65625 L10.522663,9.65625 C10.5617391,6.63602344 13.006087,4.1875 16.0136413,4.1875 L16.0136413,4.1875 L16.9864674,4.1875 C19.9940761,4.1875 22.4382609,6.63602344 22.4773913,9.65625 L22.4773913,9.65625 L23.5445109,9.65625 C23.266087,5.99065625 20.2129348,3.09375 16.5,3.09375 Z" id="↳-🎨-Fill" fill="#181C21"></path>
    </g>
</svg>