<?xml version="1.0" encoding="UTF-8"?>
<svg width="32px" height="32px" viewBox="0 0 32 32" version="1.1" xmlns="http://www.w3.org/2000/svg" xmlns:xlink="http://www.w3.org/1999/xlink">
    <!-- Generator: Sketch 63.1 (92452) - https://sketch.com -->
    <title>Icons/ion-md-color-fill</title>
    <desc>Created with Sketch.</desc>
    <g id="Icons/ion-md-color-fill" stroke="none" stroke-width="1" fill="none" fill-rule="evenodd" fill-opacity="0.9">
        <path d="M8.5,4.875 L10.375,3 L26.4375,19 L23.0625,19.6875 L13.5,29 L2,17.875 L10.875,9.0625 L8.5,4.875 Z M20,17.875 L13.625,11.4375 L7.1875,17.875 L20,17.875 Z M26.4375,19 C28.8125119,21.5416794 30,23.4583269 30,24.75 C30,25.7083381 29.6458369,26.5312466 28.9375,27.21875 C28.2291631,27.9062534 27.3958381,28.25 26.4375,28.25 C25.4791619,28.25 24.6562534,27.9062534 23.96875,27.21875 C23.2812466,26.5312466 22.9375,25.7083381 22.9375,24.75 C22.9375,24.1666637 23.2291638,23.3958381 23.8125,22.4375 C24.3958363,21.4791619 24.9791638,20.66667 25.5625,20 L26.4375,19 Z" id="↳-🎨-Fill" fill="#181C21"></path>
    </g>
</svg>