<?xml version="1.0" encoding="UTF-8"?>
<svg width="32px" height="32px" viewBox="0 0 32 32" version="1.1" xmlns="http://www.w3.org/2000/svg" xmlns:xlink="http://www.w3.org/1999/xlink">
    <!-- Generator: Sketch 63.1 (92452) - https://sketch.com -->
    <title>Icons/ion-md-speedometer</title>
    <desc>Created with Sketch.</desc>
    <g id="Icons/ion-md-speedometer" stroke="none" stroke-width="1" fill="none" fill-rule="evenodd" fill-opacity="0.9">
        <path d="M8,29 L8,26 L24,26 L24,29 L8,29 Z M17.4375,17.4375 C17.0624981,17.8125019 16.5833363,18 16,18 C15.4166637,18 14.9375019,17.8125019 14.5625,17.4375 C14.1874981,17.0624981 14,16.5833363 14,16 C14,15.7499987 14.0208331,15.5625006 14.0625,15.4375 L11,11.25 L11.25,11 L15.4375,14.0625 C15.5625006,14.0208331 15.7499987,14 16,14 C16.5833363,14 17.0624981,14.1874981 17.4375,14.5625 C17.8125019,14.9375019 18,15.4166637 18,16 C18,16.5833363 17.8125019,17.0624981 17.4375,17.4375 Z M6.8125,6.8125 C9.35417938,4.27082062 12.4166488,3 16,3 C19.5833512,3 22.6458206,4.27082062 25.1875,6.8125 C27.7291794,9.35417938 29,12.4166488 29,16 C29,19.0416819 28.0833425,21.7083219 26.25,24 L22.5625,24 L20.9375,22.375 L22.375,20.9375 L23.75,22.3125 C25,20.8124925 25.7291656,19.0416769 25.9375,17 L24,17 L24,15 L25.9375,15 C25.7291656,12.9583231 25,11.1875075 23.75,9.6875 L22.375,11.0625 L20.9375,9.625 L22.3125,8.25 C20.8124925,7 19.0416769,6.27083437 17,6.0625 L17,8 L15,8 L15,6.0625 C12.9583231,6.27083437 11.1875075,7 9.6875,8.25 L11.0625,9.625 L9.625,11.0625 L8.25,9.6875 C7,11.1875075 6.27083437,12.9583231 6.0625,15 L8,15 L8,17 L6.0625,17 C6.27083437,19.0416769 7,20.8124925 8.25,22.3125 L9.625,20.9375 L11.0625,22.375 L9.4375,24 L5.75,24 C3.9166575,21.7083219 3,19.0416819 3,16 C3,12.4166488 4.27082063,9.35417938 6.8125,6.8125 Z" id="↳-🎨-Fill" fill="#181C21"></path>
    </g>
</svg>