<?xml version="1.0" encoding="UTF-8"?>
<svg width="32px" height="32px" viewBox="0 0 32 32" version="1.1" xmlns="http://www.w3.org/2000/svg" xmlns:xlink="http://www.w3.org/1999/xlink">
    <!-- Generator: Sketch 63.1 (92452) - https://sketch.com -->
    <title>Icons/ion-md-mic</title>
    <desc>Created with Sketch.</desc>
    <g id="Icons/ion-md-mic" stroke="none" stroke-width="1" fill="none" fill-rule="evenodd" fill-opacity="0.9">
        <path d="M19,18.75 C18.1666625,19.5833375 17.1666725,20 16,20 C14.8333275,20 13.8229209,19.5833375 12.96875,18.75 C12.1145791,17.9166625 11.6875,16.8958394 11.6875,15.6875 L11.6875,6.3125 C11.6875,5.10416063 12.1145791,4.0833375 12.96875,3.25 C13.8229209,2.4166625 14.8333275,2 16,2 C17.1666725,2 18.1770791,2.4166625 19.03125,3.25 C19.8854209,4.0833375 20.3125,5.10416063 20.3125,6.3125 L20.3125,15.6875 C20.3125,16.8958394 19.8750044,17.9166625 19,18.75 Z M23.5625,15.3125 L26,15.3125 C26,17.7291787 25.166675,19.8437409 23.5,21.65625 C21.833325,23.4687591 19.8125119,24.541665 17.4375,24.875 L17.4375,30 L14.5625,30 L14.5625,24.875 C12.1874881,24.541665 10.166675,23.4687591 8.5,21.65625 C6.833325,19.8437409 6,17.7291787 6,15.3125 L8.4375,15.3125 C8.4375,17.3958437 9.1874925,19.1249931 10.6875,20.5 C12.1875075,21.8750069 13.9583231,22.5625 16,22.5625 C18.0416769,22.5625 19.8124925,21.8750069 21.3125,20.5 C22.8125075,19.1249931 23.5625,17.3958437 23.5625,15.3125 Z" id="↳-🎨-Fill" fill="#181C21"></path>
    </g>
</svg>