<?xml version="1.0" encoding="UTF-8"?>
<svg width="32px" height="32px" viewBox="0 0 32 32" version="1.1" xmlns="http://www.w3.org/2000/svg" xmlns:xlink="http://www.w3.org/1999/xlink">
    <!-- Generator: Sketch 63.1 (92452) - https://sketch.com -->
    <title>Icons/ion-logo-tux</title>
    <desc>Created with Sketch.</desc>
    <g id="Icons/ion-logo-tux" stroke="none" stroke-width="1" fill="none" fill-rule="evenodd" fill-opacity="0.9">
        <path d="M26.7738865,24.75 C26.3527299,24.5 25.9441451,24.0625 26.0195761,23.575 C26.1641523,22.61875 26.1767241,22.23125 26.0070043,21.9625 C25.8875718,21.7625 25.6612787,21.65 25.4664152,21.6 C25.5921336,21.44375 25.6612787,21.2625 25.7052802,20.91875 C25.7869971,20.29375 25.409842,18.35625 24.9069684,16.8125 C24.4040948,15.26875 23.0274784,13.6875 22.0971624,12.5625 C20.4628233,10.575 20.6639727,10.1125 20.4439655,6.33125 C20.3056753,3.925 19.230783,2 16.0689655,2 C12.907148,2 11.8573994,4 11.8573994,5.6875 C11.8573994,7.48125 11.9831178,8.875 11.9831178,8.875 C12.0648348,10.9625 12.045977,11.3375 11.4802443,12.33125 C11.1722342,12.875 9.78304598,14.20625 9.23617098,15.125 C8.68929598,16.04375 8.75844109,16.96875 7.68983477,18.425 C6.91038075,19.4875 6.82237787,20.2 7.08010057,21.175 C6.64008621,21.6875 6.85380747,22.41875 6.7658046,22.73125 C6.60237069,23.275 5.90463362,23.375 5.36404454,23.41875 C4.82345546,23.4625 4.40229885,23.41875 4.18857759,23.75 C3.97485632,24.08125 4.23257902,24.75 4.45887213,25.625 C4.68516523,26.5 4,26.5625 4,27.5625 C4,28.5625 5.88577586,28.5625 7.75269397,28.98125 C9.61961207,29.4 10.3110632,30 11.2728089,30 C12.2345546,30 12.9574353,29.3625 13.6614583,28.79375 C14.1140445,28.425 15.484375,28.5625 16.3204023,28.5625 C17.1564296,28.5625 18.4764727,28.525 19.1930675,28.7125 C19.9096624,28.9 19.9033764,30 21.6634339,30 C23.4234914,30 23.844648,28.70625 25.4978448,27.85625 C27.1510417,27.00625 28.137931,26.60625 28.137931,26 C28.137931,25.39375 27.1950431,25 26.7738865,24.75 Z M12.6763265,28.0234998 C12.5954922,28.8326018 11.8928557,29.0877801 11.1777832,29.0255415 C10.3694403,28.957079 9.37455685,28.552528 8.43563555,28.2724543 C7.49671425,27.9923805 6.22823779,27.8056647 5.38880484,27.656292 C4.43744749,27.4882477 5.38880484,26.8098468 5.37636879,25.5277314 C5.37015077,25.0298224 4.93488924,24.3203022 5.11521187,23.9904376 C5.29553451,23.6605729 6.19092966,23.8410649 6.50183075,23.7539309 C6.81273184,23.6667968 7.29151952,23.3991708 7.45318809,23.0132913 C7.5402404,22.8016801 7.56511249,21.9116679 7.63351073,21.5942509 C7.70190897,21.2892817 8.12473445,21.1461329 9.01391158,21.6004748 C9.90308871,22.0548167 10.8109199,23.971766 11.6441348,25.3223439 C12.4773498,26.6729219 12.7571607,27.2143978 12.6763265,28.0234998 L12.6763265,28.0234998 Z M20.3822339,23.8355847 C20.5115446,24.4656977 20.589131,25.3343973 20.4274927,26.0562743 C20.2658543,26.7781514 19.9749054,27.0045027 19.7356807,27.4633229 C19.5934389,27.0473259 20.0783539,26.6190938 20.0201641,25.5791014 C19.9878364,24.9979291 19.9684398,25.1019284 19.2766278,25.6892182 C18.4878329,26.3499193 17.4921408,26.9188563 15.8498955,27.0656787 C14.4921337,27.1880308 13.7485974,26.5579177 13.7485974,26.5579177 C14.071874,27.5367341 13.4705795,28.0689655 13.4705795,28.0689655 C13.4899761,27.8426142 13.5223038,27.1941484 13.3089412,26.7475634 C13.0503199,26.1969792 12.7076467,25.6035718 12.7076467,25.6035718 C12.7076467,25.6035718 13.2636825,25.4383965 13.4576484,24.9918115 C13.6516144,24.5452266 13.5869591,23.9334663 12.8951471,23.2972357 C12.2033351,22.661005 9.50074245,20.9970172 9.28091434,20.7217251 C8.96410324,20.3240809 8.84772366,20.0977296 8.82832706,19.3024413 C8.80893046,18.507153 9.17746582,17.785276 9.10634496,18.0605681 C9.0546207,18.2563313 9.11281049,18.476565 9.11281049,19.2718533 C9.11281049,20.0671416 9.60419098,20.6972547 10.0115195,20.8012539 C10.6257451,20.9603116 10.1408302,19.2045597 10.5287621,17.5528071 C10.9166941,15.9010544 11.2852295,15.5462335 11.7701444,14.8732972 C12.2550594,14.200361 13.0115267,13.6191888 12.869285,12.2366106 C12.7270433,10.8540325 12.8628194,11.0069725 13.1990271,11.5147335 C13.4576484,11.9123777 14.058943,12.9829581 14.7960137,12.8606061 C16.050327,12.6587252 17.6343825,11.3556759 17.8736073,11.1354422 C18.112832,10.9152085 17.918866,10.7010924 17.7249,10.7806213 C16.7227424,11.1905006 14.860669,12.0959058 14.3951507,11.8940249 C13.9296323,11.692144 13.2248893,10.6337988 13.3089412,10.7010924 C14.3046332,11.5330863 14.5955822,11.3801463 15.0158418,11.2516766 C15.5589466,11.0803838 15.84343,10.9886197 16.8585186,10.5603876 C17.8736073,10.1321554 18.1968839,10.2361546 18.3003324,10.0281562 C18.4037809,9.82015769 18.2744703,9.61827681 17.9964524,9.67945284 C17.5826583,9.77121687 17.7766243,9.99145056 16.5287765,10.4319179 C14.8929967,11.0130901 14.3757541,11.062031 13.6839421,10.615446 C13.1279063,10.2545075 12.7141122,9.8385105 12.7141122,9.5938064 C12.7141122,9.34910231 13.2507514,9.08604541 13.5093727,8.90251734 C13.767994,8.71898927 14.3046332,8.23569868 14.3046332,8.23569868 C14.3046332,8.23569868 14.3692886,7.79523131 14.26584,7.45876318 C14.1429949,7.06111903 13.7615285,6.88982616 13.4964416,6.96323739 C13.2313548,7.03053102 12.979199,7.29970552 13.0567854,7.86864254 C13.1214407,8.37640353 13.5093727,8.5415788 13.5093727,8.5415788 C13.5093727,8.5415788 13.3348033,8.75569488 13.173165,8.82910611 C13.173165,8.82910611 13.1214407,8.8107533 12.9468714,8.44369716 C12.772302,8.07664102 12.5201462,7.2507647 12.9274748,6.54112283 C13.3348033,5.83148095 14.1947192,6.2230075 14.4662715,6.77359172 C14.7184273,7.28135271 14.6214443,8.16228745 14.6214443,8.16228745 C15.0093763,8.0277002 15.4619636,8.0399354 15.9792062,8.37640353 C15.5201534,6.55335803 16.5934318,5.86206897 17.4016234,5.86206897 C18.209815,5.86206897 18.8434372,6.44935879 18.8434372,7.39146955 C18.8434372,8.12558184 18.6171435,8.50487318 18.3973154,8.73734207 C18.1322286,8.70675406 17.8671417,8.64557804 17.9899868,8.52934359 C18.0740388,8.44369716 18.2744703,8.18064026 18.2744703,7.72182008 C18.2744703,7.26299991 17.8930039,6.88370856 17.3886923,6.88370856 C16.7938633,6.88370856 16.5740352,7.39146955 16.5029143,7.67899687 C16.4317935,7.96652418 16.4770522,8.20511067 16.4899833,8.31522751 C16.5287765,8.62110763 17.1947263,8.90251734 18.0352456,9.10439821 C18.8757648,9.30627909 18.7658508,9.65498243 18.5718848,10.6521516 C18.3779188,11.6493208 18.9792133,11.7716728 19.496456,12.7199012 C20.0136986,13.6681296 19.8649913,14.0535385 20.5244757,14.8732972 C21.18396,15.693056 21.7529269,17.7975112 21.584823,19.5716158 C21.5266332,20.2139641 21.3326672,20.1956113 22.0568069,19.9814952 C22.4188767,19.877496 22.8326708,19.8163199 22.8326708,19.8163199 C23.0331023,19.430911 23.0524989,18.8191508 23.0589645,18.4520946 C23.0718955,17.6262183 23.1042232,15.9132896 21.3326672,14.0780089 C21.3326672,14.0780089 23.2399994,15.4055286 23.5309483,17.8709224 C23.6925867,19.2351477 23.4016377,19.8530256 23.4016377,19.8530256 C23.7443109,19.9325544 24.0352599,20.2996105 24.2162948,20.5749026 C24.4555195,20.9480764 23.964139,20.2200817 22.9231883,20.2200817 C22.373618,20.2200817 21.9339618,20.4586682 21.7270647,20.7033723 C21.5201677,20.9480764 21.5266332,21.1683101 21.5201677,21.4191318 C21.0611149,21.3457205 20.7184416,21.4191318 20.4339582,21.7188943 C20.0718884,22.1471264 20.2529233,23.199354 20.3822339,23.8355847 L20.3822339,23.8355847 Z M25.5642344,26.93921 C24.0640815,27.5570144 23.5287573,28.3352103 22.5950522,28.8104444 C21.6613471,29.2856785 20.8708102,28.9470742 20.4973281,28.3352103 C20.1238461,27.7233463 21.144697,26.66001 20.7898891,24.794716 C20.5160022,23.3571328 20.3977329,22.9531838 20.4848787,22.608639 C20.5720245,22.2819156 21.0700006,22.3472603 21.2007193,22.3769624 C21.2816404,22.6977454 21.6177742,23.5353456 22.8813884,23.5353456 C22.8813884,23.5353456 24.325519,23.6897967 24.9168655,22.2759752 C24.9168655,22.2759752 25.2716734,22.2640943 25.3650439,22.4838901 C25.5082121,22.8284348 25.1845276,23.4640605 25.1907523,23.7492009 C25.2094264,24.6818479 25.9190423,25.0026309 26.9585673,25.6501374 C27.4689927,25.9828013 27.089286,26.3095248 25.5642344,26.93921 Z" id="↳-🎨-Fill" fill="#181C21"></path>
    </g>
</svg>