<?xml version="1.0" encoding="UTF-8"?>
<svg width="32px" height="32px" viewBox="0 0 32 32" version="1.1" xmlns="http://www.w3.org/2000/svg" xmlns:xlink="http://www.w3.org/1999/xlink">
    <!-- Generator: Sketch 63.1 (92452) - https://sketch.com -->
    <title>Icons/ion-md-male</title>
    <desc>Created with Sketch.</desc>
    <g id="Icons/ion-md-male" stroke="none" stroke-width="1" fill="none" fill-rule="evenodd" fill-opacity="0.9">
        <path d="M18,3 L29,3 L29,14 L26,14 L26,8.125 L19.3125,14.8125 C20.4375056,16.3958413 21,18.1249906 21,20 C21,22.5000125 20.1250087,24.6249913 18.375,26.375 C16.6249913,28.1250087 14.5000125,29 12,29 C9.4999875,29 7.37500875,28.1250087 5.625,26.375 C3.87499125,24.6249913 3,22.5000125 3,20 C3,17.4999875 3.87499125,15.3750087 5.625,13.625 C7.37500875,11.8749913 9.4999875,11 12,11 C13.8750094,11 15.6041587,11.5624944 17.1875,12.6875 L23.875,6 L18,6 L18,3 Z M7.75,24.25 C8.9166725,25.4166725 10.333325,26 12,26 C13.666675,26 15.0833275,25.4166725 16.25,24.25 C17.4166725,23.0833275 18,21.666675 18,20 C18,18.333325 17.4166725,16.9166725 16.25,15.75 C15.0833275,14.5833275 13.666675,14 12,14 C10.333325,14 8.9166725,14.5833275 7.75,15.75 C6.5833275,16.9166725 6,18.333325 6,20 C6,21.666675 6.5833275,23.0833275 7.75,24.25 Z" id="↳-🎨-Fill" fill="#181C21"></path>
    </g>
</svg>