<?xml version="1.0" encoding="UTF-8"?>
<svg width="32px" height="32px" viewBox="0 0 32 32" version="1.1" xmlns="http://www.w3.org/2000/svg" xmlns:xlink="http://www.w3.org/1999/xlink">
    <!-- Generator: Sketch 63.1 (92452) - https://sketch.com -->
    <title>Icons/ion-md-filing</title>
    <desc>Created with Sketch.</desc>
    <g id="Icons/ion-md-filing" stroke="none" stroke-width="1" fill="none" fill-rule="evenodd" fill-opacity="0.9">
        <path d="M28.0625,13 L29,16 L29,26.4375 C29,27.10417 28.7291694,27.6979141 28.1875,28.21875 C27.6458306,28.7395859 27.0208369,29 26.3125,29 L6.6875,29 C5.8541625,29 5.03125406,28.7291694 4.21875,28.1875 C3.40624594,27.6458306 3,27.0208369 3,26.3125 L3,16 L3.9375,13 L5.5625,13 L5.5625,11 L6.4375,8 L8.0625,8 L8.0625,6 L9,3 L23,3 L23.9375,6 L23.9375,8 L25.5625,8 L26.4375,11 L26.4375,13 L28.0625,13 Z M11,6 L11,8 L21,8 L21,6 L11,6 Z M8.4375,11 L8.4375,13 L23.5625,13 L23.5625,11 L8.4375,11 Z M26.0625,18 L26.0625,16 L5.9375,16 L5.9375,18 L11.125,18 C11.3333344,19.1250056 11.8958287,20.0729128 12.8125,20.84375 C13.7291713,21.6145872 14.7916606,22 16,22 C17.2083394,22 18.2708287,21.6145872 19.1875,20.84375 C20.1041713,20.0729128 20.6666656,19.1250056 20.875,18 L26.0625,18 Z" id="↳-🎨-Fill" fill="#181C21"></path>
    </g>
</svg>