<?xml version="1.0" encoding="UTF-8"?>
<svg width="32px" height="32px" viewBox="0 0 32 32" version="1.1" xmlns="http://www.w3.org/2000/svg" xmlns:xlink="http://www.w3.org/1999/xlink">
    <!-- Generator: Sketch 63.1 (92452) - https://sketch.com -->
    <title>Icons/ion-ios-search</title>
    <desc>Created with Sketch.</desc>
    <g id="Icons/ion-ios-search" stroke="none" stroke-width="1" fill="none" fill-rule="evenodd" fill-opacity="0.9">
        <path d="M27.75,26.25 C28.2083356,26.7916694 28.1875025,27.2916644 27.6875,27.75 C27.5208325,27.9166675 27.2916681,28 27,28 C26.7083319,28 26.4583344,27.8958344 26.25,27.6875 L19.625,21 C17.8749913,22.4166738 15.8541781,23.125 13.5625,23.125 C10.89582,23.125 8.63542594,22.1875094 6.78125,20.3125 C4.92707406,18.4374906 4,16.1875131 4,13.5625 C4,10.9374869 4.92707406,8.68750938 6.78125,6.8125 C8.63542594,4.93749062 10.89582,4 13.5625,4 C16.22918,4 18.4895741,4.93749062 20.34375,6.8125 C22.1979259,8.68750938 23.125,10.9374869 23.125,13.5625 C23.125,15.8125113 22.4375069,17.7916581 21.0625,19.5 L27.75,26.25 Z M8.25,18.875 C9.70834062,20.3333406 11.4791562,21.0625 13.5625,21.0625 C15.6458438,21.0625 17.4166594,20.3333406 18.875,18.875 C20.3333406,17.4166594 21.0625,15.6458438 21.0625,13.5625 C21.0625,11.4791562 20.3333406,9.70834062 18.875,8.25 C17.4166594,6.79165938 15.6458438,6.0625 13.5625,6.0625 C11.4791562,6.0625 9.70834062,6.79165938 8.25,8.25 C6.79165938,9.70834062 6.0625,11.4791562 6.0625,13.5625 C6.0625,15.6458438 6.79165938,17.4166594 8.25,18.875 Z" id="↳-🎨-Fill" fill="#181C21"></path>
    </g>
</svg>