<?xml version="1.0" encoding="UTF-8"?>
<svg width="32px" height="32px" viewBox="0 0 32 32" version="1.1" xmlns="http://www.w3.org/2000/svg" xmlns:xlink="http://www.w3.org/1999/xlink">
    <!-- Generator: Sketch 63.1 (92452) - https://sketch.com -->
    <title>Icons/ion-logo-playstation</title>
    <desc>Created with Sketch.</desc>
    <g id="Icons/ion-logo-playstation" stroke="none" stroke-width="1" fill="none" fill-rule="evenodd" fill-opacity="0.9">
        <path d="M25,12.6875 C25,13.6041713 24.9583338,14.2916644 24.875,14.75 C24.7083325,15.5 24.5,16.0833313 24.25,16.5 C24,16.9583356 23.6250025,17.3124987 23.125,17.5625 C22.7083313,17.8125013 22.2083363,17.9375 21.625,17.9375 C20.7083288,17.9375 19.8333375,17.7500019 19,17.375 L19,9.0625 C19,8.77083187 18.9062509,8.52083437 18.71875,8.3125 C18.5312491,8.10416563 18.3125013,8 18.0625,8 L18,8 C17.7083319,8 17.4687509,8.10416563 17.28125,8.3125 C17.0937491,8.52083437 17,8.77083187 17,9.0625 L17,28 L12,26.375 L12,4 C13.1666725,4.1666675 14.7291569,4.54166375 16.6875,5.125 C19.3125131,5.91667063 21.0624956,6.5624975 21.9375,7.0625 C22.3958356,7.35416813 22.8333313,7.70833125 23.25,8.125 C23.7500025,8.6250025 24.1041656,9.10416437 24.3125,9.5625 C24.6875019,10.3125038 24.9166663,11.35416 25,12.6875 Z M5.4375,22.375 C5.02083125,22.5833344 4.79166688,22.7083331 4.75,22.75 C4.62499938,22.8750006 4.58333313,22.9791662 4.625,23.0625 C4.66666688,23.1875006 4.79166563,23.2916662 5,23.375 C5.37500188,23.5000006 5.77083125,23.5625 6.1875,23.5625 C6.81250313,23.5625 7.27083188,23.5208338 7.5625,23.4375 C7.68750063,23.3958331 7.97916438,23.2916675 8.4375,23.125 L11,22.375 L11,25 C9.8333275,25.1666675 8.79167125,25.25 7.875,25.25 C6.08332438,25.2916669 4.25000938,25.0208363 2.375,24.4375 C1.5416625,24.1458319 0.979168125,23.8958344 0.6875,23.6875 C0.395831875,23.4791656 0.187500625,23.208335 0.0625,22.875 C-0.062500625,22.6249987 -0.0416675,22.3541681 0.125,22.0625 C0.250000625,21.7708319 0.43749875,21.5416675 0.6875,21.375 C1.10416875,21.0833319 1.68749625,20.7916681 2.4375,20.5 C2.770835,20.3333325 3.31249625,20.1250013 4.0625,19.875 L11,17.5625 L11,20.5 C8.41665375,21.3333375 6.56250563,21.9583313 5.4375,22.375 Z M32,21.625 C32,21.8750013 31.8958344,22.1458319 31.6875,22.4375 C31.4374987,22.7291681 30.97917,23.041665 30.3125,23.375 C29.7291637,23.6666681 29.1875025,23.8958325 28.6875,24.0625 L18,27.75 L18,24.75 C21.8333525,23.4999938 24.6041581,22.5833363 26.3125,22 C26.7291687,21.8749994 27.0624987,21.7083344 27.3125,21.5 C27.4791675,21.3333325 27.5416669,21.2083338 27.5,21.125 C27.4583331,20.9999994 27.3333344,20.8958338 27.125,20.8125 C26.7499981,20.6874994 26.3541687,20.625 25.9375,20.625 C25.3958306,20.625 24.7708369,20.7291656 24.0625,20.9375 L18,22.9375 L18,19.875 C19.8750094,19.2916637 21.2708287,18.9583338 22.1875,18.875 C22.520835,18.8333331 23.1666619,18.8125 24.125,18.8125 C26,18.8125 27.6458262,19.0416644 29.0625,19.5 C29.2708344,19.5833338 29.5624981,19.6874994 29.9375,19.8125 C30.5208362,20.0208344 31.0416644,20.3125 31.5,20.6875 C31.833335,21.020835 32,21.3333319 32,21.625 Z" id="↳-🎨-Fill" fill="#181C21"></path>
    </g>
</svg>