<?xml version="1.0" encoding="UTF-8"?>
<svg width="32px" height="32px" viewBox="0 0 32 32" version="1.1" xmlns="http://www.w3.org/2000/svg" xmlns:xlink="http://www.w3.org/1999/xlink">
    <!-- Generator: Sketch 63.1 (92452) - https://sketch.com -->
    <title>Icons/ion-ios-construct</title>
    <desc>Created with Sketch.</desc>
    <g id="Icons/ion-ios-construct" stroke="none" stroke-width="1" fill="none" fill-rule="evenodd" fill-opacity="0.9">
        <path d="M17.1875,3.625 C17.9375037,4.1250025 18.145835,4.375 17.8125,4.375 C16.3541594,4.12499875 15.1041719,4.43749563 14.0625,5.3125 C12.8124938,6.39583875 12.1666669,7.5 12.125,8.625 C12.0833331,9.29167 12.2083319,9.8749975 12.4999994,10.375 C12.7916681,10.8750025 13.3958287,11.5833287 14.3125,12.5 L14.625,12.3125 C14.6666669,12.2708331 14.7499994,12.25 14.875,12.25 C15.0833344,12.25 15.2291662,12.2916662 15.3125,12.375 L16.1875,13.25 L13.0625,16.1875 L12.25,15.375 C12.0833325,15.2083325 12.0624994,15 12.1875,14.75 L12.4375,14.3125 C10.9374925,12.8124925 9.87500312,11.9791675 9.25,11.8125 C8.916665,11.7291662 8.6666675,11.6875 8.49999937,11.6875 C7.91666375,11.6875 7.47916812,11.8333319 7.1875,12.125 C6.60416375,12.7083363 6.49999937,13.1874981 6.875,13.5625 L7.625,14.3125 C7.7916675,14.4791675 7.7916675,14.6458325 7.625,14.8125 L5.5625,17 C5.52083312,17.0416669 5.43750063,17.0625 5.3125,17.0625 C5.18749937,17.0625 5.10416687,17.0416669 5.0625,17 L1.125,13 C0.9583325,12.8333325 0.9583325,12.6875006 1.125,12.5625 L3.25,10.4375 C3.33333375,10.3541662 3.41666625,10.3125 3.49999937,10.3125 C4.16667,10.645835 4.666665,10.645835 4.99999937,10.3125 C5.1666675,10.1458325 5.23958344,9.85416875 5.21875,9.4375 C5.19791656,9.02083125 5.24999937,8.70833437 5.375,8.5 C5.62500125,8.12499813 6.10416312,7.58333688 6.8125,6.875 C8.18750688,5.5 9.87499,4.3958375 11.875,3.5625 C12.7500044,3.18749812 13.7291613,3 14.8125,3 C15.7708381,3 16.5624969,3.20833125 17.1875,3.625 Z M28.875,25 C29.0416675,25.1666675 29.0416675,25.3333325 28.875,25.5 L25.4375,28.875 C25.3541662,28.9583338 25.2708338,29 25.1875,29 C25.1041663,29 25.0208338,28.9583338 24.9375,28.875 C22.604155,26.1249862 20.2291788,23.4791794 17.8125,20.9375 L20.75,17.75 C21.8750056,18.8333387 23.1145766,19.9791606 24.46875,21.1875 C25.8229234,22.3958394 26.8958294,23.33333 27.6875,24 L28.875,25 Z M29.9375,7.8125 C30.7291706,8.60417063 31.0833338,9.45832875 31,10.375 C30.8749994,11.7500069 30.2500056,13 29.125,14.125 C27.8749938,15.3750062 26.3750087,16 24.625,16 C23.95833,16 23.29167,15.833335 22.625,15.5 C22.4583325,15.4166662 22.2708344,15.375 22.0625,15.375 C21.8124988,15.375 21.5833344,15.4791656 21.375,15.6875 C21.3333331,15.7291669 21.2604172,15.8124994 21.15625,15.9375 C21.0520828,16.0625006 20.8958344,16.2291656 20.6875,16.4375 L20.0625,17.0625 C19.9374994,17.2291675 19.708335,17.479165 19.375,17.8125 C18.6666631,18.5208369 18.1250019,19.0833313 17.75,19.5 C17.6666662,19.5833338 17.5520841,19.7083325 17.40625,19.875 C17.2604159,20.0416675 17.1458338,20.1666662 17.0625,20.25 L9.625,28.1875 C9.1249975,28.7291694 8.52083687,29 7.8125,29 C7.02082937,29 6.35416937,28.7291694 5.8125,28.1875 C5.27083062,27.6458306 5,27 5,26.25 C5,25.5 5.27083062,24.8750025 5.8125,24.375 C8.72918125,21.6666531 11.3749881,19.1875113 13.75,16.9375 C13.8333337,16.8541662 13.9583325,16.7395841 14.125,16.59375 C14.2916675,16.4479159 14.4166662,16.3333338 14.5,16.25 C14.9166687,15.8749981 15.4791631,15.3333369 16.1875,14.625 L16.40625,14.40625 C16.5104172,14.3020828 16.5937497,14.2083338 16.65625,14.125 C16.7187503,14.0416662 16.7916662,13.9791669 16.875,13.9375 C17.7916713,13.0624956 18.2708331,12.625 18.3125,12.625 C18.645835,12.2499981 18.7083344,11.8333356 18.5,11.375 C17.5,9.041655 17.9583237,6.87501 19.875,4.875 C20.9583388,3.74999437 22.2083262,3.12500063 23.625,3 L23.75,3 C24.6666713,3 25.4791631,3.35416312 26.1875,4.0625 L22.875,7.375 L23.5,10.5625 L26.6875,11.125 L29.9375,7.8125 Z M8.5625,26.625 C8.93750188,26.2499981 8.93750188,25.8333356 8.5625,25.375 C8.18749812,24.9999981 7.79166875,24.9999981 7.375,25.375 C6.99999812,25.7500019 6.99999812,26.1666644 7.375,26.625 C7.75000188,27.0000019 8.14583125,27.0000019 8.5625,26.625 Z" id="↳-🎨-Fill" fill="#181C21"></path>
    </g>
</svg>