<?xml version="1.0" encoding="UTF-8"?>
<svg width="32px" height="32px" viewBox="0 0 32 32" version="1.1" xmlns="http://www.w3.org/2000/svg" xmlns:xlink="http://www.w3.org/1999/xlink">
    <!-- Generator: Sketch 63.1 (92452) - https://sketch.com -->
    <title>Icons/ion-md-syringe</title>
    <desc>Created with Sketch.</desc>
    <g id="Icons/ion-md-syringe" stroke="none" stroke-width="1" fill="none" fill-rule="evenodd" fill-opacity="0.9">
        <path d="M23.526571,3.44640032 C24.1310707,2.84332028 25.0922578,2.85926565 25.6803044,3.44599407 L25.6803044,3.44599407 L28.5534553,6.31900319 C29.1489159,6.9145168 29.1487636,7.87799252 28.5535061,8.473303 C27.9599751,9.06835958 26.9939639,9.06957833 26.3987571,8.47279519 L26.3987571,8.47279519 L26.0402417,8.11427842 L23.6018796,10.5521924 C23.748777,10.6990459 24.8888869,11.8391933 25.2805154,12.2308323 L25.3974529,12.3477723 C25.5958044,12.5461245 25.5957536,12.8676724 25.3974529,13.0659738 C25.1991522,13.2642752 24.8776563,13.2642752 24.6793048,13.0659738 L24.6793048,13.0659738 L24.3203324,12.707 C23.4753608,13.5519327 22.0843518,14.9428786 20.6015983,16.4255614 L15.0391494,21.9877092 C14.2276654,22.7992977 13.0542129,23.1790411 11.8994478,22.9728686 L11.8994478,22.9728686 L10.9726904,23.8996293 C10.3787532,24.4935687 9.41238652,24.4935179 8.81850009,23.8996801 L8.81850009,23.8996801 L3.86692438,28.8512739 C3.66857292,29.0495754 3.34707698,29.0495754 3.14872551,28.8512739 C2.95042483,28.6529725 2.95042483,28.3314246 3.14872551,28.1330724 L3.14872551,28.1330724 L8.10040278,23.1815294 C7.50656714,22.5875392 7.50656714,21.6212705 8.10045356,21.0273311 L8.10045356,21.0273311 L9.02705858,20.1007227 C8.82845321,18.9937387 9.15619524,17.8168795 10.0123667,16.9607557 C10.6522101,16.3208592 19.1114482,7.86103153 19.2929403,7.67958954 L19.2929403,7.67958954 L18.9339678,7.32061575 C18.7356163,7.12226356 18.7356671,6.80071566 18.9339678,6.60241425 C19.1322685,6.40416362 19.4537644,6.4042144 19.6521159,6.60241425 C19.8146158,6.76496555 21.2812284,8.23158348 21.4476385,8.39799417 L21.4476385,8.39799417 L23.8855943,5.95967393 L23.526571,5.60064935 C22.9311612,5.00518652 22.9312119,4.04176159 23.526571,3.44640032 Z M9.39928496,21.1646441 L8.81850009,21.7454311 C8.62055487,21.943377 8.62055487,22.2654327 8.81855087,22.4632771 C8.86899839,22.5137248 8.69950321,22.3442706 9.31497331,22.9597508 L9.53659739,23.181377 C9.73449183,23.379323 10.0565971,23.379323 10.2545424,23.181377 L10.2545424,23.181377 L10.8352764,22.60059 C10.514136,22.4267653 10.2215346,22.2032763 9.96869484,21.9413458 C9.74525745,21.7098841 9.55284739,21.4483598 9.39928496,21.1646441 L9.39928496,21.1646441 Z M13.8453336,14.5636192 L10.730464,17.6789064 C9.73657386,18.6726987 9.75282385,20.2500201 10.6928859,21.2305076 C11.6837292,22.2640108 13.3221346,22.2684288 14.3209505,21.2695077 L14.3209505,21.2695077 L14.5635832,21.0269249 L13.4862087,19.9499019 C13.2879081,19.7516005 13.2878065,19.4300526 13.4861072,19.2317004 C13.6844079,19.033399 14.0059546,19.033399 14.2042553,19.2315989 L14.2042553,19.2315989 L15.2817821,20.3088249 L15.9998286,19.5908266 L15.6408561,19.2318528 C15.4425554,19.0335006 15.4425554,18.7119527 15.6408561,18.5136513 C15.8391568,18.3154007 16.1607035,18.3154007 16.3590042,18.5136513 L16.3590042,18.5136513 L16.7180275,18.8726759 L17.4362263,18.1544744 L13.8453336,14.5636192 Z M12.1465884,18.1466433 C12.3415396,17.9511189 12.6584604,17.9511189 12.8534116,18.1466433 C13.0488628,18.3416677 13.0488628,18.6582073 12.8534116,18.8537317 C12.6584604,19.0487561 12.3415396,19.0487561 12.1465884,18.8537317 C11.9511372,18.6582073 11.9511372,18.3416677 12.1465884,18.1466433 Z M20.0110376,8.39784182 L14.5633293,13.8455701 L18.1542221,17.4364252 L18.872421,16.7182745 L17.7953512,15.6412008 C17.5970505,15.4428486 17.5970505,15.1213007 17.7953512,14.9229993 C17.9936519,14.7247486 18.3151986,14.7247486 18.5134993,14.9229993 L18.5134993,14.9229993 L19.5906198,16.0001238 L20.3085648,15.282227 L19.9494907,14.9231008 C19.7511393,14.7247486 19.7511901,14.4032007 19.9494907,14.2048993 C20.1477914,14.0066487 20.4692874,14.0066995 20.6676388,14.2048993 L20.6676388,14.2048993 L21.0267637,14.5640255 L21.7451657,13.8456716 L20.6676388,12.7684963 C20.4693381,12.5701949 20.4692366,12.248647 20.6675373,12.0502948 C20.865838,11.8519934 21.1873847,11.8519426 21.3856854,12.0501933 L21.3856854,12.0501933 L22.4633645,13.1275209 L23.6021335,11.9887985 L20.0110376,8.39784182 Z M24.6036916,6.67777386 L22.1657358,9.1160941 L22.8837315,9.83409248 L25.3220936,7.39617849 L24.6036916,6.67777386 Z M24.9626133,4.16450026 C24.764465,3.96680823 24.4447464,3.96487853 24.2442113,4.16495729 C24.046977,4.36224308 24.0456567,4.68333394 24.2447191,4.88234629 C24.6313674,5.26899595 26.8735616,7.51119838 27.117413,7.75505072 C27.318202,7.95639902 27.6401042,7.95076228 27.8348502,7.75555854 C28.0350298,7.55532743 28.0325923,7.23443969 27.8353072,7.03715391 L27.8353072,7.03715391 Z" id="↳-🎨-Fill" fill="#181C21"></path>
    </g>
</svg>