<?xml version="1.0" encoding="UTF-8"?>
<svg width="32px" height="32px" viewBox="0 0 32 32" version="1.1" xmlns="http://www.w3.org/2000/svg" xmlns:xlink="http://www.w3.org/1999/xlink">
    <!-- Generator: Sketch 63.1 (92452) - https://sketch.com -->
    <title>Icons/ion-ios-arrow-round-up</title>
    <desc>Created with Sketch.</desc>
    <g id="Icons/ion-ios-arrow-round-up" stroke="none" stroke-width="1" fill="none" fill-rule="evenodd" fill-opacity="0.9">
        <path d="M21.75,12.375 C22.1250019,12.7500019 22.1250019,13.1249981 21.75,13.5 C21.3749981,13.8750019 21.0000019,13.8750019 20.625,13.5 L16.8125,9.75 L16.8125,24.1875 C16.8125,24.7291694 16.5416694,25 16,25 C15.4583306,25 15.1875,24.7291694 15.1875,24.1875 L15.1875,9.75 L11.375,13.5625 C11.041665,13.9375019 10.6666687,13.9166687 10.25,13.5 C9.87499812,13.1249981 9.87499812,12.7500019 10.25,12.375 L15.4375,7.25 C15.5208338,7.16666625 15.6041662,7.10416688 15.6875,7.0625 C15.7708338,7.02083312 15.8749994,7 16,7 C16.2083344,7 16.3958325,7.0833325 16.5625,7.25 L21.75,12.375 Z" id="↳-🎨-Fill" fill="#181C21"></path>
    </g>
</svg>