<?xml version="1.0" encoding="UTF-8"?>
<svg width="32px" height="32px" viewBox="0 0 32 32" version="1.1" xmlns="http://www.w3.org/2000/svg" xmlns:xlink="http://www.w3.org/1999/xlink">
    <!-- Generator: Sketch 63.1 (92452) - https://sketch.com -->
    <title>Icons/ion-ios-calculator</title>
    <desc>Created with Sketch.</desc>
    <g id="Icons/ion-ios-calculator" stroke="none" stroke-width="1" fill="none" fill-rule="evenodd" fill-opacity="0.9">
        <path d="M23.25,3 C23.8333362,3 24.3124981,3.18749812 24.6875,3.5625 C25.0625019,3.93750188 25.25,4.41666375 25.25,5 L25.25,27 C25.25,27.5833362 25.0625019,28.0624981 24.6875,28.4375 C24.3124981,28.8125019 23.8333362,29 23.25,29 L8.75,29 C8.16666375,29 7.68750187,28.8125019 7.3125,28.4375 C6.93749813,28.0624981 6.75,27.5833362 6.75,27 L6.75,5 C6.75,4.41666375 6.93749813,3.93750188 7.3125,3.5625 C7.68750187,3.18749812 8.16666375,3 8.75,3 L23.25,3 Z M22.5,20 C22.5,19.5833313 22.3541681,19.2291681 22.0625,18.9375 C21.7708319,18.6458319 21.4166687,18.5 21,18.5 C20.5833313,18.5 20.2291681,18.6458319 19.9375,18.9375 C19.6458319,19.2291681 19.5,19.5833313 19.5,20 L19.5,25 C19.5,25.4166687 19.6458319,25.7708319 19.9375,26.0625 C20.2291681,26.3541681 20.5833313,26.5 21,26.5 C21.4166687,26.5 21.7708319,26.3541681 22.0625,26.0625 C22.3541681,25.7708319 22.5,25.4166687 22.5,25 L22.5,20 Z M22.0625,16.0625 C22.3541681,15.7708319 22.5,15.4166687 22.5,15 C22.5,14.5833313 22.3541681,14.2291681 22.0625,13.9375 C21.7708319,13.6458319 21.4166687,13.5 21,13.5 C20.5833313,13.5 20.2291681,13.6458319 19.9375,13.9375 C19.6458319,14.2291681 19.5,14.5833313 19.5,15 C19.5,15.4166687 19.6458319,15.7708319 19.9375,16.0625 C20.2291681,16.3541681 20.5833313,16.5 21,16.5 C21.4166687,16.5 21.7708319,16.3541681 22.0625,16.0625 Z M17.0625,26.0625 C17.3541681,25.7708319 17.5,25.4166687 17.5,25 C17.5,24.5833313 17.3541681,24.2291681 17.0625,23.9375 C16.7708319,23.6458319 16.4166687,23.5 16,23.5 C15.5833313,23.5 15.2291681,23.6458319 14.9375,23.9375 C14.6458319,24.2291681 14.5,24.5833313 14.5,25 C14.5,25.4166687 14.6458319,25.7708319 14.9375,26.0625 C15.2291681,26.3541681 15.5833313,26.5 16,26.5 C16.4166687,26.5 16.7708319,26.3541681 17.0625,26.0625 Z M17.0625,21.0625 C17.3541681,20.7708319 17.5,20.4166687 17.5,20 C17.5,19.5833313 17.3541681,19.2291681 17.0625,18.9375 C16.7708319,18.6458319 16.4166687,18.5 16,18.5 C15.5833313,18.5 15.2291681,18.6458319 14.9375,18.9375 C14.6458319,19.2291681 14.5,19.5833313 14.5,20 C14.5,20.4166687 14.6458319,20.7708319 14.9375,21.0625 C15.2291681,21.3541681 15.5833313,21.5 16,21.5 C16.4166687,21.5 16.7708319,21.3541681 17.0625,21.0625 Z M17.0625,16.0625 C17.3541681,15.7708319 17.5,15.4166687 17.5,15 C17.5,14.5833313 17.3541681,14.2291681 17.0625,13.9375 C16.7708319,13.6458319 16.4166687,13.5 16,13.5 C15.5833313,13.5 15.2291681,13.6458319 14.9375,13.9375 C14.6458319,14.2291681 14.5,14.5833313 14.5,15 C14.5,15.4166687 14.6458319,15.7708319 14.9375,16.0625 C15.2291681,16.3541681 15.5833313,16.5 16,16.5 C16.4166687,16.5 16.7708319,16.3541681 17.0625,16.0625 Z M12.0625,26.0625 C12.3541681,25.7708319 12.5,25.4166687 12.5,25 C12.5,24.5833313 12.3541681,24.2291681 12.0625,23.9375 C11.7708319,23.6458319 11.4166687,23.5 11,23.5 C10.5833313,23.5 10.2291681,23.6458319 9.9375,23.9375 C9.64583187,24.2291681 9.5,24.5833313 9.5,25 C9.5,25.4166687 9.64583187,25.7708319 9.9375,26.0625 C10.2291681,26.3541681 10.5833313,26.5 11,26.5 C11.4166687,26.5 11.7708319,26.3541681 12.0625,26.0625 Z M12.0625,21.0625 C12.3541681,20.7708319 12.5,20.4166687 12.5,20 C12.5,19.5833313 12.3541681,19.2291681 12.0625,18.9375 C11.7708319,18.6458319 11.4166687,18.5 11,18.5 C10.5833313,18.5 10.2291681,18.6458319 9.9375,18.9375 C9.64583187,19.2291681 9.5,19.5833313 9.5,20 C9.5,20.4166687 9.64583187,20.7708319 9.9375,21.0625 C10.2291681,21.3541681 10.5833313,21.5 11,21.5 C11.4166687,21.5 11.7708319,21.3541681 12.0625,21.0625 Z M12.0625,16.0625 C12.3541681,15.7708319 12.5,15.4166687 12.5,15 C12.5,14.5833313 12.3541681,14.2291681 12.0625,13.9375 C11.7708319,13.6458319 11.4166687,13.5 11,13.5 C10.5833313,13.5 10.2291681,13.6458319 9.9375,13.9375 C9.64583187,14.2291681 9.5,14.5833313 9.5,15 C9.5,15.4166687 9.64583187,15.7708319 9.9375,16.0625 C10.2291681,16.3541681 10.5833313,16.5 11,16.5 C11.4166687,16.5 11.7708319,16.3541681 12.0625,16.0625 Z M9.5,10 C9.5,10.66667 9.83333,11 10.5,11 L21.5,11 C22.16667,11 22.5,10.66667 22.5,10 L22.5,7 C22.5,6.33333 22.16667,6 21.5,6 L10.5,6 C9.83333,6 9.5,6.33333 9.5,7 L9.5,10 Z" id="↳-🎨-Fill" fill="#181C21"></path>
    </g>
</svg>