<?xml version="1.0" encoding="UTF-8"?>
<svg width="32px" height="32px" viewBox="0 0 32 32" version="1.1" xmlns="http://www.w3.org/2000/svg" xmlns:xlink="http://www.w3.org/1999/xlink">
    <!-- Generator: Sketch 63.1 (92452) - https://sketch.com -->
    <title>Icons/ion-md-build</title>
    <desc>Created with Sketch.</desc>
    <g id="Icons/ion-md-build" stroke="none" stroke-width="1" fill="none" fill-rule="evenodd" fill-opacity="0.9">
        <path d="M29.625,24.875 C29.8750013,25.0416675 29.9895834,25.3229147 29.96875,25.71875 C29.9479166,26.1145853 29.7916681,26.4374988 29.5,26.6875 L26.5625,29.625 C25.9791638,30.2083363 25.3958363,30.2083363 24.8125,29.625 L13.25,18 C11.7916594,18.5833363 10.2708413,18.708335 8.6875,18.375 C7.10415875,18.041665 5.70833937,17.2708394 4.5,16.0625 C3.20832687,14.7708269 2.41666812,13.2604253 2.125,11.53125 C1.83333187,9.80207469 2.06249625,8.16667438 2.8125,6.625 L8.4375,12.125 L12.25,8.25 L6.75,2.75 C8.2500075,2.04166312 9.88540781,1.83333187 11.65625,2.125 C13.4270922,2.41666812 14.9374938,3.18749375 16.1875,4.4375 C17.3958394,5.64583938 18.1562484,7.05207531 18.46875,8.65625 C18.7812516,10.2604247 18.6458363,11.7916594 18.0625,13.25 L29.625,24.875 Z" id="↳-🎨-Fill" fill="#181C21"></path>
    </g>
</svg>