<?xml version="1.0" encoding="UTF-8"?>
<svg width="32px" height="32px" viewBox="0 0 32 32" version="1.1" xmlns="http://www.w3.org/2000/svg" xmlns:xlink="http://www.w3.org/1999/xlink">
    <!-- Generator: Sketch 63.1 (92452) - https://sketch.com -->
    <title>Icons/ion-ios-magnet</title>
    <desc>Created with Sketch.</desc>
    <g id="Icons/ion-ios-magnet" stroke="none" stroke-width="1" fill="none" fill-rule="evenodd" fill-opacity="0.9">
        <path d="M28.875,16.375 C29.0416675,16.5416675 29.0416675,16.7083325 28.875,16.875 L25.3125,20.5 C25.1041656,20.6666675 24.9166675,20.6666675 24.75,20.5 L14.5625,10.3125 C13.7708294,9.52082937 12.8958381,9.06250062 11.9375,8.9375 C11.0624956,8.81249938 10.3125031,9.06249688 9.6875,9.6875 C9.02083,10.35417 8.74999937,11.1249956 8.875,12 C9,12.8750044 9.4791625,13.7291625 10.3125,14.5625 L20.5,24.75 C20.6666675,24.9166675 20.6666675,25.1041656 20.5,25.3125 L16.875,28.875 C16.7916662,28.9583338 16.7083338,29 16.625,29 C16.5416662,29 16.4583338,28.9583338 16.375,28.875 L5.5625,18.125 C3.85415812,16.4166581 3,14.3333456 3,11.875 C3,9.3749875 3.85415812,7.27084188 5.5625,5.5625 C7.27084188,3.85415812 9.3749875,3 11.875,3 C14.3333456,3 16.4166581,3.85415812 18.125,5.5625 L28.875,16.375 Z M17.25,23.75 L15.375,25.625 L16.625,26.875 L18.5,25 L17.25,23.75 Z M25,18.5 L26.875,16.625 L25.625,15.375 L23.75,17.25 L25,18.5 Z" id="↳-🎨-Fill" fill="#181C21"></path>
    </g>
</svg>