<?xml version="1.0" encoding="UTF-8"?>
<svg width="32px" height="32px" viewBox="0 0 32 32" version="1.1" xmlns="http://www.w3.org/2000/svg" xmlns:xlink="http://www.w3.org/1999/xlink">
    <!-- Generator: Sketch 63.1 (92452) - https://sketch.com -->
    <title>Icons/ion-md-git-merge</title>
    <desc>Created with Sketch.</desc>
    <g id="Icons/ion-md-git-merge" stroke="none" stroke-width="1" fill="none" fill-rule="evenodd" fill-opacity="0.9">
        <path d="M24,14 C25.0833387,14 26.0208294,14.3958294 26.8125,15.1875 C27.6041706,15.9791706 28,16.9166613 28,18 C28,19.0833387 27.6041706,20.0208294 26.8125,20.8125 C26.0208294,21.6041706 25.0833387,22 24,22 C22.5,22 21.3541706,21.33334 20.5625,20 C17.9374869,20 15.6666762,19.4375056 13.75,18.3125 C12.5416606,17.5624962 11.2916731,16.5416731 10,15.25 L10,22.5625 C11.33334,23.3541706 12,24.5 12,26 C12,27.0833387 11.6041706,28.0208294 10.8125,28.8125 C10.0208294,29.6041706 9.08333875,30 8,30 C6.91666125,30 5.97917063,29.6041706 5.1875,28.8125 C4.39582937,28.0208294 4,27.0833387 4,26 C4,24.5 4.66666,23.3541706 6,22.5625 L6,9.4375 C4.66666,8.64582937 4,7.5 4,6 C4,4.91666125 4.39582937,3.97917063 5.1875,3.1875 C5.97917063,2.39582937 6.91666125,2 8,2 C9.08333875,2 10.0208294,2.39582937 10.8125,3.1875 C11.6041706,3.97917063 12,4.91666125 12,6 C12,7.33334 11.4583387,8.39582938 10.375,9.1875 C11.8750075,11.7291794 13.6874894,13.6249938 15.8125,14.875 C17.0625062,15.6250037 18.6458237,16 20.5625,16 C21.3541706,14.66666 22.5,14 24,14 Z M6.25,4.25 C5.7499975,4.7500025 5.5,5.33333 5.5,6 C5.5,6.66667 5.7499975,7.2499975 6.25,7.75 C6.7500025,8.2500025 7.33333,8.5 8,8.5 C8.66667,8.5 9.2499975,8.2500025 9.75,7.75 C10.2500025,7.2499975 10.5,6.66667 10.5,6 C10.5,5.33333 10.2500025,4.7500025 9.75,4.25 C9.2499975,3.7499975 8.66667,3.5 8,3.5 C7.33333,3.5 6.7500025,3.7499975 6.25,4.25 Z M9.75,27.75 C10.2500025,27.2499975 10.5,26.66667 10.5,26 C10.5,25.33333 10.2500025,24.7500025 9.75,24.25 C9.2499975,23.7499975 8.66667,23.5 8,23.5 C7.33333,23.5 6.7500025,23.7499975 6.25,24.25 C5.7499975,24.7500025 5.5,25.33333 5.5,26 C5.5,26.66667 5.7499975,27.2499975 6.25,27.75 C6.7500025,28.2500025 7.33333,28.5 8,28.5 C8.66667,28.5 9.2499975,28.2500025 9.75,27.75 Z M22.25,19.75 C22.7500025,20.2500025 23.33333,20.5 24,20.5 C24.66667,20.5 25.2499975,20.2500025 25.75,19.75 C26.2500025,19.2499975 26.5,18.66667 26.5,18 C26.5,17.33333 26.2500025,16.7500025 25.75,16.25 C25.2499975,15.7499975 24.66667,15.5 24,15.5 C23.33333,15.5 22.7500025,15.7499975 22.25,16.25 C21.7499975,16.7500025 21.5,17.33333 21.5,18 C21.5,18.66667 21.7499975,19.2499975 22.25,19.75 Z" id="↳-🎨-Fill" fill="#181C21"></path>
    </g>
</svg>