<?xml version="1.0" encoding="UTF-8"?>
<svg width="32px" height="32px" viewBox="0 0 32 32" version="1.1" xmlns="http://www.w3.org/2000/svg" xmlns:xlink="http://www.w3.org/1999/xlink">
    <!-- Generator: Sketch 63.1 (92452) - https://sketch.com -->
    <title>Icons/ion-md-paper</title>
    <desc>Created with Sketch.</desc>
    <g id="Icons/ion-md-paper" stroke="none" stroke-width="1" fill="none" fill-rule="evenodd" fill-opacity="0.9">
        <path d="M29,4 C29.66667,4 30,4.33333 30,5 L30,22.875 C30,24.2916738 29.5,25.5 28.5,26.5 C27.5,27.5 26.2916738,28 24.875,28 L7.375,28 C5.91665938,28 4.65625531,27.4791719 3.59375,26.4375 C2.53124469,25.3958281 2,24.1250075 2,22.625 L2,9.625 C2,8.91666312 2.26041406,8.30208594 2.78125,7.78125 C3.30208594,7.26041406 3.91666312,7 4.625,7 L11,7 L11,5 C11,4.33333 11.33333,4 12,4 L29,4 Z M11,9 L8.1875,9 C8.31250063,9.37500187 8.375,9.77083125 8.375,10.1875 L8.375,21 L11,21 L11,9 Z M9.9375,24.9375 C10.5208363,24.3541637 10.8749994,23.7083369 11,23 L7.375,23 C6.70833,23 6.375,22.66667 6.375,22 L6.375,10.1875 C6.375,9.39582938 5.97917063,9 5.1875,9 C4.39582937,9 4,9.39582938 4,10.1875 L4,22.625 C4,23.5416713 4.33333,24.33333 5,25 C5.66667,25.66667 6.45832875,26 7.375,26 C8.375005,26 9.22916312,25.6458369 9.9375,24.9375 Z M28,22.875 L28,6.0625 L13,6.0625 L13,22.625 C13,23.8750062 12.5625044,24.999995 11.6875,26 L24.875,26 C25.7083375,26 26.4374969,25.6875031 27.0625,25.0625 C27.6875,24.4374969 28,23.7083375 28,22.875 Z M15.5,12 L15.5,8.5 L25.5,8.5 L25.5,12 L15.5,12 Z M15.5,16 L15.5,14 L25.5,14 L25.5,16 L15.5,16 Z M15.5,20 L15.5,18 L25.5,18 L25.5,20 L15.5,20 Z M25.5,22 C25.5,23.33334 25.1041706,24 24.3125,24 L15,24 C15.1666675,24 15.2916662,23.833335 15.375,23.5 C15.4583338,23.166665 15.5,22.833335 15.5,22.5 L15.5,22 L25.5,22 Z" id="↳-🎨-Fill" fill="#181C21"></path>
    </g>
</svg>