<?xml version="1.0" encoding="UTF-8"?>
<svg width="32px" height="32px" viewBox="0 0 32 32" version="1.1" xmlns="http://www.w3.org/2000/svg" xmlns:xlink="http://www.w3.org/1999/xlink">
    <!-- Generator: Sketch 63.1 (92452) - https://sketch.com -->
    <title>Icons/ion-ios-appstore</title>
    <desc>Created with Sketch.</desc>
    <g id="Icons/ion-ios-appstore" stroke="none" stroke-width="1" fill="none" fill-rule="evenodd" fill-opacity="0.9">
        <path d="M6.8125,6.8125 C9.35417938,4.27082062 12.4166488,3 16,3 C19.5833512,3 22.6458206,4.27082062 25.1875,6.8125 C27.7291794,9.35417938 29,12.4166488 29,16 C29,19.5833512 27.7291794,22.6458206 25.1875,25.1875 C22.6458206,27.7291794 19.5833512,29 16,29 C12.4166488,29 9.35417938,27.7291794 6.8125,25.1875 C4.27082063,22.6458206 3,19.5833512 3,16 C3,12.4166488 4.27082063,9.35417938 6.8125,6.8125 Z M11.0625,21.5625 L12.1875,19.6875 C12.0208325,19.1874975 11.60417,18.9375 10.9375,18.9375 L10.8125,18.9375 C10.6874994,18.9375 10.5416675,19.0208325 10.375,19.1875 L9.5,20.625 C9.20833187,21.1666694 9.3124975,21.5833319 9.8125,21.875 C9.9791675,21.9583338 10.1458325,22 10.3125,22 C10.645835,22 10.8958325,21.8541681 11.0625,21.5625 Z M18.5625,18.625 C18.6041669,18.5833331 18.625,18.5000006 18.625,18.375 C18.625,18.0833319 18.5416675,17.7916681 18.375,17.5 L18.3125,17.4375 C18.1041656,17.0624981 17.7291694,16.875 17.1875,16.875 L13.8125,16.875 L16.125,13 L17.125,11.25 L18.25,9.375 C18.5416681,8.83333062 18.4375025,8.41666813 17.9375,8.125 C17.3958306,7.83333187 16.9791681,7.9374975 16.6875,8.4375 L16.125,9.4375 L15.5,8.4375 C15.2083319,7.9374975 14.7916694,7.83333187 14.25,8.125 C13.7499975,8.41666813 13.666665,8.83333062 14,9.375 L15.0625,11.25 L11.75,16.875 L8.9375,16.875 C8.31249688,16.875 8,17.1666637 8,17.75 C8,18.3750031 8.29166375,18.6875 8.875,18.6875 L12.75,18.6875 L18.5625,18.625 Z M23.125,18.6875 C23.7083362,18.6875 24,18.3750031 24,17.75 C24,17.1666637 23.6875031,16.875 23.0625,16.875 L20.5,16.875 L17.4375,11.75 C17.2708325,11.7916669 17.1041675,11.979165 16.9375,12.3125 C16.5624981,13.0208369 16.5833312,13.7708294 17,14.5625 L18.375,16.875 L19.4375,18.6875 L21.125,21.5625 C21.3333344,21.8541681 21.5833319,22 21.875,22 C22.0416675,22 22.2083325,21.9583338 22.375,21.875 C22.8750025,21.5833319 22.9791681,21.1666694 22.6875,20.625 L21.5,18.6875 L23.125,18.6875 Z" id="↳-🎨-Fill" fill="#181C21"></path>
    </g>
</svg>