<?xml version="1.0" encoding="UTF-8"?>
<svg width="32px" height="32px" viewBox="0 0 32 32" version="1.1" xmlns="http://www.w3.org/2000/svg" xmlns:xlink="http://www.w3.org/1999/xlink">
    <!-- Generator: Sketch 63.1 (92452) - https://sketch.com -->
    <title>Icons/ion-md-list-box</title>
    <desc>Created with Sketch.</desc>
    <g id="Icons/ion-md-list-box" stroke="none" stroke-width="1" fill="none" fill-rule="evenodd" fill-opacity="0.9">
        <path d="M25.5,4 C26.16667,4 26.7499975,4.2499975 27.25,4.75 C27.7500025,5.2500025 28,5.83333 28,6.5 L28,25.5 C28,26.16667 27.7500025,26.7499975 27.25,27.25 C26.7499975,27.7500025 26.16667,28 25.5,28 L6.5,28 C5.83333,28 5.2500025,27.7500025 4.75,27.25 C4.2499975,26.7499975 4,26.16667 4,25.5 L4,6.5 C4,5.83333 4.2499975,5.2500025 4.75,4.75 C5.2500025,4.2499975 5.83333,4 6.5,4 L25.5,4 Z M19,23 L19,20 L9,20 L9,23 L19,23 Z M23,17.5 L23,14.5 L9,14.5 L9,17.5 L23,17.5 Z M23,12 L23,9 L9,9 L9,12 L23,12 Z" id="↳-🎨-Fill" fill="#181C21"></path>
    </g>
</svg>