<?xml version="1.0" encoding="UTF-8"?>
<svg width="32px" height="32px" viewBox="0 0 32 32" version="1.1" xmlns="http://www.w3.org/2000/svg" xmlns:xlink="http://www.w3.org/1999/xlink">
    <!-- Generator: Sketch 63.1 (92452) - https://sketch.com -->
    <title>Icons/ion-md-bonfire</title>
    <desc>Created with Sketch.</desc>
    <g id="Icons/ion-md-bonfire" stroke="none" stroke-width="1" fill="none" fill-rule="evenodd" fill-opacity="0.9">
        <path d="M17,21.9375 L18,27.5 C18.0833338,27.7500013 18.125,27.9166662 18.125,28 C18.125,28.5416694 17.9062522,29.0104147 17.46875,29.40625 C17.0312478,29.8020853 16.5208362,30 15.9375,30 C15.3541638,30 14.8437522,29.8020853 14.40625,29.40625 C13.9687478,29.0104147 13.75,28.5416694 13.75,28 C13.75,27.9583331 13.7604166,27.8854172 13.78125,27.78125 C13.8020834,27.6770828 13.8125,27.6041669 13.8125,27.5625 L14.875,21.75 C15.0000006,21.2499975 15.3541638,21 15.9375,21 C16.5625031,21 16.9166662,21.3124969 17,21.9375 Z M25.25,24.375 C25.583335,24.6250012 25.75,24.9791644 25.75,25.4375 C25.75,25.8958356 25.583335,26.2708319 25.25,26.5625 C24.916665,26.8541681 24.5104191,27 24.03125,27 C23.5520809,27 23.1875012,26.8541681 22.9375,26.5625 L22.6875,26.3125 L19.375,22.1875 C19.1666656,21.854165 19.2083319,21.5416681 19.5,21.25 C19.833335,20.916665 20.2083312,20.8958319 20.625,21.1875 L24.9375,24.125 C24.9791669,24.125 25.0312497,24.1666662 25.09375,24.25 C25.1562503,24.3333337 25.2083331,24.375 25.25,24.375 Z M28.125,20.125 C28.7083363,20.1666669 29,20.5624963 29,21.3125 C29,21.6041681 28.8750013,21.8229159 28.625,21.96875 C28.3749988,22.1145841 28.1041681,22.1458338 27.8125,22.0625 L23.875,20.9375 C23.6249988,20.8124994 23.5208331,20.6250013 23.5625,20.375 C23.6458338,20.041665 23.8333319,19.9166662 24.125,20 L28.125,20.125 Z M8.125,20.9375 L8.0625,20.9375 L4.1875,22.0625 C3.89583187,22.1458338 3.62500125,22.1145841 3.375,21.96875 C3.12499875,21.8229159 3,21.6041681 3,21.3125 C3,20.5624963 3.27083063,20.1666669 3.8125,20.125 L7.875,20 C8.16666812,19.9166662 8.35416625,20.041665 8.4375,20.375 C8.47916688,20.6250013 8.37500125,20.8124994 8.125,20.9375 Z M11.375,21.1875 C11.708335,20.8958319 12.0833313,20.916665 12.5,21.25 C12.7916681,21.5416681 12.8333344,21.854165 12.625,22.1875 L9.3125,26.25 C9.27083312,26.3333337 9.18750063,26.4374994 9.0625,26.5625 C8.77083188,26.8541681 8.39583563,27 7.9375,27 C7.47916437,27 7.083335,26.8541681 6.75,26.5625 C6.416665,26.2708319 6.25,25.9166687 6.25,25.5 C6.25,25.0833312 6.416665,24.708335 6.75,24.375 C6.87500063,24.2499994 6.97916625,24.1666669 7.0625,24.125 L11.375,21.1875 Z M16,2 C18.1250106,2.66667 19.7812441,4.0833225 20.96875,6.25 C22.1562559,8.4166775 22.75,10.7291544 22.75,13.1875 C22.75,15.0625094 22.0937566,16.6562434 20.78125,17.96875 C19.4687434,19.2812566 17.8750094,19.9375 16,19.9375 C14.1249906,19.9375 12.5312566,19.2812566 11.21875,17.96875 C9.90624344,16.6562434 9.25,15.0625094 9.25,13.1875 C9.25,10.3124856 10.1666575,7.7916775 12,5.625 L11.9375,6 C11.9375,6.87500437 12.2291637,7.62499688 12.8125,8.25 C13.3958363,8.87500312 14.1249956,9.1875 15,9.1875 C15.8750044,9.1875 16.5729141,8.88541969 17.09375,8.28125 C17.6145859,7.67708031 17.875,6.91667125 17.875,6 C17.875,5.45833062 17.7187516,4.85417 17.40625,4.1875 C17.0937484,3.52083 16.7916681,3 16.5,2.625 L16,2 Z M15.75,17.4375 C16.8750056,17.4375 17.8333294,17.0416706 18.625,16.25 C19.4166706,15.4583294 19.8125,14.5 19.8125,13.375 C19.8125,12.2499944 19.645835,11.1250056 19.3125,10 C18.4791625,11.0416719 17.1875087,11.7499981 15.4375,12.125 C13.8541587,12.458335 13.0625,13.3333262 13.0625,14.75 C13.0625,15.4583369 13.3229141,16.0833306 13.84375,16.625 C14.3645859,17.1666694 14.9999962,17.4375 15.75,17.4375 Z" id="↳-🎨-Fill" fill="#181C21"></path>
    </g>
</svg>