<?xml version="1.0" encoding="UTF-8"?>
<svg width="32px" height="32px" viewBox="0 0 32 32" version="1.1" xmlns="http://www.w3.org/2000/svg" xmlns:xlink="http://www.w3.org/1999/xlink">
    <!-- Generator: Sketch 63.1 (92452) - https://sketch.com -->
    <title>Icons/ion-ios-film</title>
    <desc>Created with Sketch.</desc>
    <g id="Icons/ion-ios-film" stroke="none" stroke-width="1" fill="none" fill-rule="evenodd" fill-opacity="0.9">
        <path d="M28,5 C28.5833362,5 29.0624981,5.18749812 29.4375,5.5625 C29.8125019,5.93750188 30,6.41666375 30,7 L30,25 C30,25.5833362 29.8125019,26.0624981 29.4375,26.4375 C29.0624981,26.8125019 28.5833362,27 28,27 L4,27 C3.41666375,27 2.93750188,26.8125019 2.5625,26.4375 C2.18749812,26.0624981 2,25.5833362 2,25 L2,7 C2,6.41666375 2.18749812,5.93750188 2.5625,5.5625 C2.93750188,5.18749812 3.41666375,5 4,5 L28,5 Z M7.5,25 L7.5,22 C7.5,21.666665 7.333335,21.5 7,21.5 L4,21.5 C3.666665,21.5 3.5,21.666665 3.5,22 L3.5,25 C3.5,25.333335 3.666665,25.5 4,25.5 L7,25.5 C7.333335,25.5 7.5,25.333335 7.5,25 Z M7.5,20 L7.5,17 C7.5,16.666665 7.333335,16.5 7,16.5 L4,16.5 C3.666665,16.5 3.5,16.666665 3.5,17 L3.5,20 C3.5,20.333335 3.666665,20.5 4,20.5 L7,20.5 C7.333335,20.5 7.5,20.333335 7.5,20 Z M7.5,15 L7.5,12 C7.5,11.666665 7.333335,11.5 7,11.5 L4,11.5 C3.666665,11.5 3.5,11.666665 3.5,12 L3.5,15 C3.5,15.333335 3.666665,15.5 4,15.5 L7,15.5 C7.333335,15.5 7.5,15.333335 7.5,15 Z M7.5,10 L7.5,7 C7.5,6.666665 7.333335,6.5 7,6.5 L4,6.5 C3.666665,6.5 3.5,6.666665 3.5,7 L3.5,10 C3.5,10.333335 3.666665,10.5 4,10.5 L7,10.5 C7.333335,10.5 7.5,10.333335 7.5,10 Z M22,16.75 C22.5000025,16.75 22.75,16.5000025 22.75,16 C22.75,15.4999975 22.5000025,15.25 22,15.25 L10,15.25 C9.4999975,15.25 9.25,15.4999975 9.25,16 C9.25,16.5000025 9.4999975,16.75 10,16.75 L22,16.75 Z M28.5,25 L28.5,22 C28.5,21.666665 28.333335,21.5 28,21.5 L25,21.5 C24.666665,21.5 24.5,21.666665 24.5,22 L24.5,25 C24.5,25.333335 24.666665,25.5 25,25.5 L28,25.5 C28.333335,25.5 28.5,25.333335 28.5,25 Z M28.5,20 L28.5,17 C28.5,16.666665 28.333335,16.5 28,16.5 L25,16.5 C24.666665,16.5 24.5,16.666665 24.5,17 L24.5,20 C24.5,20.333335 24.666665,20.5 25,20.5 L28,20.5 C28.333335,20.5 28.5,20.333335 28.5,20 Z M28.5,15 L28.5,12 C28.5,11.666665 28.333335,11.5 28,11.5 L25,11.5 C24.666665,11.5 24.5,11.666665 24.5,12 L24.5,15 C24.5,15.333335 24.666665,15.5 25,15.5 L28,15.5 C28.333335,15.5 28.5,15.333335 28.5,15 Z M28.5,10 L28.5,7 C28.5,6.666665 28.333335,6.5 28,6.5 L25,6.5 C24.666665,6.5 24.5,6.666665 24.5,7 L24.5,10 C24.5,10.333335 24.666665,10.5 25,10.5 L28,10.5 C28.333335,10.5 28.5,10.333335 28.5,10 Z" id="↳-🎨-Fill" fill="#181C21"></path>
    </g>
</svg>