<?xml version="1.0" encoding="UTF-8"?>
<svg width="32px" height="32px" viewBox="0 0 32 32" version="1.1" xmlns="http://www.w3.org/2000/svg" xmlns:xlink="http://www.w3.org/1999/xlink">
    <!-- Generator: Sketch 63.1 (92452) - https://sketch.com -->
    <title>Icons/ion-ios-download</title>
    <desc>Created with Sketch.</desc>
    <g id="Icons/ion-ios-download" stroke="none" stroke-width="1" fill="none" fill-rule="evenodd" fill-opacity="0.9">
        <path d="M23.5,9 C24.16667,9 24.7499975,9.2499975 25.25,9.75 C25.7500025,10.2500025 26,10.83333 26,11.5 L26,26.5 C26,27.16667 25.7500025,27.7499975 25.25,28.25 C24.7499975,28.7500025 24.16667,29 23.5,29 L8.5,29 C7.83333,29 7.2500025,28.7500025 6.75,28.25 C6.2499975,27.7499975 6,27.16667 6,26.5 L6,11.5 C6,10.83333 6.2499975,10.2500025 6.75,9.75 C7.2500025,9.2499975 7.83333,9 8.5,9 L15.1875,9 L15.1875,20.25 L12.1875,17.3125 C11.8124981,16.9374981 11.4375019,16.9374981 11.0625,17.3125 C10.6874981,17.6875019 10.6874981,18.0624981 11.0625,18.4375 L15.4375,22.75 C15.5208338,22.8333338 15.6041662,22.8958331 15.6875,22.9375 C15.7708338,22.9791669 15.8749994,23 16,23 C16.2083344,23 16.3958325,22.9166675 16.5625,22.75 L20.9375,18.4375 C21.3125019,18.0624981 21.3125019,17.6875019 20.9375,17.3125 C20.5624981,16.9374981 20.1875019,16.9374981 19.8125,17.3125 L16.8125,20.25 L16.8125,9 L23.5,9 Z M16.8125,3.8125 L16.8125,9 L15.1875,9 L15.1875,3.8125 C15.1875,3.27083062 15.4583306,3 16,3 C16.5416694,3 16.8125,3.27083062 16.8125,3.8125 Z" id="↳-🎨-Fill" fill="#181C21"></path>
    </g>
</svg>