<?xml version="1.0" encoding="UTF-8"?>
<svg width="32px" height="32px" viewBox="0 0 32 32" version="1.1" xmlns="http://www.w3.org/2000/svg" xmlns:xlink="http://www.w3.org/1999/xlink">
    <!-- Generator: Sketch 63.1 (92452) - https://sketch.com -->
    <title>Icons/ion-md-eye</title>
    <desc>Created with Sketch.</desc>
    <g id="Icons/ion-md-eye" stroke="none" stroke-width="1" fill="none" fill-rule="evenodd" fill-opacity="0.9">
        <path d="M7.5,9.1875 C10.0416794,7.43749125 12.8749844,6.5625 16,6.5625 C19.1250156,6.5625 21.9583206,7.42707469 24.5,9.15625 C27.0416794,10.8854253 28.8749944,13.1666525 30,16 C28.8749944,18.8333475 27.0416794,21.1145747 24.5,22.84375 C21.9583206,24.5729253 19.1250156,25.4375 16,25.4375 C12.8749844,25.4375 10.0416794,24.5729253 7.5,22.84375 C4.95832062,21.1145747 3.12500563,18.8333475 2,16 C3.12500563,13.1666525 4.95832062,10.8958419 7.5,9.1875 Z M11.5,20.4375 C12.7500063,21.6875 14.2499913,22.3125 16,22.3125 C17.7500087,22.3125 19.2499937,21.6875 20.5,20.4375 C21.7500062,19.1875 22.375,17.7083419 22.375,16 C22.375,14.2916581 21.7500062,12.8125062 20.5,11.5625 C19.2499937,10.3124938 17.7500087,9.6875 16,9.6875 C14.2499913,9.6875 12.7500063,10.3124938 11.5,11.5625 C10.2499937,12.8125062 9.625,14.2916581 9.625,16 C9.625,17.7083419 10.2499937,19.1875 11.5,20.4375 Z M13.3125,13.375 C14.0625037,12.6249962 14.9583281,12.25 16,12.25 C17.0416719,12.25 17.9374963,12.6145797 18.6875,13.34375 C19.4375037,14.0729203 19.8125,14.9583281 19.8125,16 C19.8125,17.0416719 19.4375037,17.9270797 18.6875,18.65625 C17.9374963,19.3854203 17.0416719,19.75 16,19.75 C14.9583281,19.75 14.0625037,19.3854203 13.3125,18.65625 C12.5624963,17.9270797 12.1875,17.0416719 12.1875,16 C12.1875,14.9583281 12.5624963,14.0833369 13.3125,13.375 Z" id="↳-🎨-Fill" fill="#181C21"></path>
    </g>
</svg>