<?xml version="1.0" encoding="UTF-8"?>
<svg width="32px" height="32px" viewBox="0 0 32 32" version="1.1" xmlns="http://www.w3.org/2000/svg" xmlns:xlink="http://www.w3.org/1999/xlink">
    <!-- Generator: Sketch 63.1 (92452) - https://sketch.com -->
    <title>Icons/ion-md-git-pull-request</title>
    <desc>Created with Sketch.</desc>
    <g id="Icons/ion-md-git-pull-request" stroke="none" stroke-width="1" fill="none" fill-rule="evenodd" fill-opacity="0.9">
        <path d="M26,23.5625 C27.33334,24.3541706 28,25.5 28,27 C28,28.0833387 27.6041706,29.0208294 26.8125,29.8125 C26.0208294,30.6041706 25.0833387,31 24,31 C22.9166613,31 21.9791706,30.6041706 21.1875,29.8125 C20.3958294,29.0208294 20,28.0833387 20,27 C20,25.5 20.66666,24.3541706 22,23.5625 L22,12.9375 C22,11.0624906 21.833335,9.93750187 21.5,9.5625 C21.166665,9.14583125 20.4583387,8.9375 19.375,8.9375 L18,8.9375 L18,13 L12,7 L18,1 L18,4.8125 L19.375,4.8125 C21.6666781,4.8125 23.4166606,5.5624925 24.625,7.0625 C25.5416713,8.2291725 26,10.1874862 26,12.9375 L26,23.5625 Z M22.25,28.75 C22.7500025,29.2500025 23.33333,29.5 24,29.5 C24.66667,29.5 25.2499975,29.2500025 25.75,28.75 C26.2500025,28.2499975 26.5,27.66667 26.5,27 C26.5,26.33333 26.2500025,25.7500025 25.75,25.25 C25.2499975,24.7499975 24.66667,24.5 24,24.5 C23.33333,24.5 22.7500025,24.7499975 22.25,25.25 C21.7499975,25.7500025 21.5,26.33333 21.5,27 C21.5,27.66667 21.7499975,28.2499975 22.25,28.75 Z M5.1875,4.1875 C5.97917063,3.39582937 6.91666125,3 8,3 C9.08333875,3 10.0208294,3.39582937 10.8125,4.1875 C11.6041706,4.97917063 12,5.91666125 12,7 C12,8.5 11.33334,9.64582937 10,10.4375 L10,23.5625 C11.33334,24.3541706 12,25.5 12,27 C12,28.0833387 11.6041706,29.0208294 10.8125,29.8125 C10.0208294,30.6041706 9.08333875,31 8,31 C6.91666125,31 5.97917063,30.6041706 5.1875,29.8125 C4.39582937,29.0208294 4,28.0833387 4,27 C4,25.5 4.66666,24.3541706 6,23.5625 L6,10.4375 C4.66666,9.64582937 4,8.5 4,7 C4,5.91666125 4.39582937,4.97917063 5.1875,4.1875 Z M6.25,28.75 C6.7500025,29.2500025 7.33333,29.5 8,29.5 C8.66667,29.5 9.2499975,29.2500025 9.75,28.75 C10.2500025,28.2499975 10.5,27.66667 10.5,27 C10.5,26.33333 10.2500025,25.7500025 9.75,25.25 C9.2499975,24.7499975 8.66667,24.5 8,24.5 C7.33333,24.5 6.7500025,24.7499975 6.25,25.25 C5.7499975,25.7500025 5.5,26.33333 5.5,27 C5.5,27.66667 5.7499975,28.2499975 6.25,28.75 Z M6.25,8.75 C6.7500025,9.2500025 7.33333,9.5 8,9.5 C8.66667,9.5 9.2499975,9.2500025 9.75,8.75 C10.2500025,8.2499975 10.5,7.66667 10.5,7 C10.5,6.33333 10.2500025,5.7500025 9.75,5.25 C9.2499975,4.7499975 8.66667,4.5 8,4.5 C7.33333,4.5 6.7500025,4.7499975 6.25,5.25 C5.7499975,5.7500025 5.5,6.33333 5.5,7 C5.5,7.66667 5.7499975,8.2499975 6.25,8.75 Z" id="↳-🎨-Fill" fill="#181C21"></path>
    </g>
</svg>