<?xml version="1.0" encoding="UTF-8"?>
<svg width="32px" height="32px" viewBox="0 0 32 32" version="1.1" xmlns="http://www.w3.org/2000/svg" xmlns:xlink="http://www.w3.org/1999/xlink">
    <!-- Generator: Sketch 63.1 (92452) - https://sketch.com -->
    <title>Icons/ion-md-timer</title>
    <desc>Created with Sketch.</desc>
    <g id="Icons/ion-md-timer" stroke="none" stroke-width="1" fill="none" fill-rule="evenodd" fill-opacity="0.9">
        <path d="M14.9375,24.3125 C14.6874987,24.0208319 14.5625,23.6666687 14.5625,23.25 C14.5625,22.8333313 14.6979153,22.4791681 14.96875,22.1875 C15.2395847,21.8958319 15.5833313,21.75 16,21.75 C16.4166687,21.75 16.7604153,21.8958319 17.03125,22.1875 C17.3020847,22.4791681 17.4375,22.8333313 17.4375,23.25 C17.4375,23.6666687 17.3020847,24.0104153 17.03125,24.28125 C16.7604153,24.5520847 16.4166687,24.6875 16,24.6875 C15.5833313,24.6875 15.2291681,24.5625013 14.9375,24.3125 Z M14.5625,3 L16,3 C19.5833512,3 22.6458206,4.27082062 25.1875,6.8125 C27.7291794,9.35417938 29,12.4166488 29,16 C29,19.5833512 27.7291794,22.6458206 25.1875,25.1875 C22.6458206,27.7291794 19.5833512,29 16,29 C12.4166488,29 9.35417938,27.7291794 6.8125,25.1875 C4.27082063,22.6458206 3,19.5833512 3,16 C3,11.666645 4.72914938,8.20834625 8.1875,5.625 L8.1875,5.5625 L18.0625,15.375 L16,17.4375 L8.1875,9.625 C6.64582563,11.5 5.875,13.6249881 5.875,16 C5.875,18.7916806 6.86457344,21.1770734 8.84375,23.15625 C10.8229266,25.1354266 13.2083194,26.125 16,26.125 C18.7916806,26.125 21.1770734,25.1354266 23.15625,23.15625 C25.1354266,21.1770734 26.125,18.7916806 26.125,16 C26.125,13.4583206 25.291675,11.2395928 23.625,9.34375 C21.958325,7.44790719 19.8958456,6.333335 17.4375,6 L17.4375,8.75 L14.5625,8.75 L14.5625,3 Z M24.25,15 C24.5416681,15.2500013 24.6875,15.5833313 24.6875,16 C24.6875,16.4166687 24.5520847,16.7604153 24.28125,17.03125 C24.0104153,17.3020847 23.6666687,17.4375 23.25,17.4375 C22.8333313,17.4375 22.4791681,17.3020847 22.1875,17.03125 C21.8958319,16.7604153 21.75,16.4166687 21.75,16 C21.75,15.5833313 21.8958319,15.2395847 22.1875,14.96875 C22.4791681,14.6979153 22.8333313,14.5625 23.25,14.5625 C23.6666687,14.5625 23.9999987,14.7083319 24.25,15 Z M7.6875,17.0625 C7.43749875,16.7708319 7.3125,16.4166687 7.3125,16 C7.3125,15.5833313 7.44791531,15.2395847 7.71875,14.96875 C7.98958469,14.6979153 8.33333125,14.5625 8.75,14.5625 C9.16666875,14.5625 9.52083188,14.6979153 9.8125,14.96875 C10.1041681,15.2395847 10.25,15.5833313 10.25,16 C10.25,16.4166687 10.1041681,16.7604153 9.8125,17.03125 C9.52083188,17.3020847 9.16666875,17.4375 8.75,17.4375 C8.33333125,17.4375 7.97916813,17.3125013 7.6875,17.0625 Z" id="↳-🎨-Fill" fill="#181C21"></path>
    </g>
</svg>