<?xml version="1.0" encoding="UTF-8"?>
<svg width="32px" height="32px" viewBox="0 0 32 32" version="1.1" xmlns="http://www.w3.org/2000/svg" xmlns:xlink="http://www.w3.org/1999/xlink">
    <!-- Generator: Sketch 63.1 (92452) - https://sketch.com -->
    <title>Icons/ion-ios-arrow-back</title>
    <desc>Created with Sketch.</desc>
    <g id="Icons/ion-ios-arrow-back" stroke="none" stroke-width="1" fill="none" fill-rule="evenodd" fill-opacity="0.9">
        <path d="M13.625,16 L21.5625,23.9375 C21.8541681,24.2291681 22,24.5833312 22,25 C22,25.4166687 21.8541681,25.7708319 21.5625,26.0625 C21.2708319,26.3541681 20.9166687,26.5 20.5,26.5 C20.0833312,26.5 19.7291681,26.3541681 19.4375,26.0625 L10.375,17 C9.70833,16.33333 9.72916312,15.6458369 10.4375,14.9375 L19.4375,5.9375 C19.7291681,5.64583187 20.0833312,5.5 20.5,5.5 C20.9166687,5.5 21.2708319,5.64583187 21.5625,5.9375 C21.8541681,6.22916812 22,6.58333125 22,7 C22,7.41666875 21.8541681,7.77083187 21.5625,8.0625 L13.625,16 Z" id="↳-🎨-Fill" fill="#181C21"></path>
    </g>
</svg>