<?xml version="1.0" encoding="UTF-8"?>
<svg width="32px" height="32px" viewBox="0 0 32 32" version="1.1" xmlns="http://www.w3.org/2000/svg" xmlns:xlink="http://www.w3.org/1999/xlink">
    <!-- Generator: Sketch 63.1 (92452) - https://sketch.com -->
    <title>Icons/ion-logo-flickr</title>
    <desc>Created with Sketch.</desc>
    <g id="Icons/ion-logo-flickr" stroke="none" stroke-width="1" fill="none" fill-rule="evenodd" fill-opacity="0.9">
        <path d="M22,4 C23.666675,4 25.0833275,4.5833275 26.25,5.75 C27.4166725,6.9166725 28,8.333325 28,10 L28,22 C28,23.666675 27.4166725,25.0833275 26.25,26.25 C25.0833275,27.4166725 23.666675,28 22,28 L10,28 C8.333325,28 6.9166725,27.4166725 5.75,26.25 C4.5833275,25.0833275 4,23.666675 4,22 L4,10 C4,8.333325 4.5833275,6.9166725 5.75,5.75 C6.9166725,4.5833275 8.333325,4 10,4 L22,4 Z M9.375,18.125 C9.95833625,18.7083363 10.6666625,19 11.5,19 C12.3333375,19 13.0416637,18.7083363 13.625,18.125 C14.2083363,17.5416638 14.5,16.8333375 14.5,16 C14.5,15.1666625 14.2083363,14.4583363 13.625,13.875 C13.0416637,13.2916637 12.3333375,13 11.5,13 C10.6666625,13 9.95833625,13.2916637 9.375,13.875 C8.79166375,14.4583363 8.5,15.1666625 8.5,16 C8.5,16.8333375 8.79166375,17.5416638 9.375,18.125 Z M18.375,18.125 C18.9583363,18.7083363 19.6666625,19 20.5,19 C21.3333375,19 22.0416638,18.7083363 22.625,18.125 C23.2083362,17.5416638 23.5,16.8333375 23.5,16 C23.5,15.1666625 23.2083362,14.4583363 22.625,13.875 C22.0416638,13.2916637 21.3333375,13 20.5,13 C19.6666625,13 18.9583363,13.2916637 18.375,13.875 C17.7916637,14.4583363 17.5,15.1666625 17.5,16 C17.5,16.8333375 17.7916637,17.5416638 18.375,18.125 Z" id="↳-🎨-Fill" fill="#181C21"></path>
    </g>
</svg>