<?xml version="1.0" encoding="UTF-8"?>
<svg width="32px" height="32px" viewBox="0 0 32 32" version="1.1" xmlns="http://www.w3.org/2000/svg" xmlns:xlink="http://www.w3.org/1999/xlink">
    <!-- Generator: Sketch 63.1 (92452) - https://sketch.com -->
    <title>Icons/ion-md-cafe</title>
    <desc>Created with Sketch.</desc>
    <g id="Icons/ion-md-cafe" stroke="none" stroke-width="1" fill="none" fill-rule="evenodd" fill-opacity="0.9">
        <path d="M3,28 L3,25 L26,25 L26,28 L3,28 Z M26.5,4 C27.16667,4 27.7499975,4.2499975 28.25,4.75 C28.7500025,5.2500025 29,5.83333 29,6.5 L29,11.5 C29,12.16667 28.7500025,12.7499975 28.25,13.25 C27.7499975,13.7500025 27.16667,14 26.5,14 L24,14 L24,18 C24,19.3750069 23.5104216,20.5520784 22.53125,21.53125 C21.5520784,22.5104216 20.3750069,23 19,23 L10,23 C8.62499312,23 7.44792156,22.5104216 6.46875,21.53125 C5.48957844,20.5520784 5,19.3750069 5,18 L5,4 L26.5,4 Z M26.5,11 L26.5,7 L24,7 L24,11 L26.5,11 Z" id="↳-🎨-Fill" fill="#181C21"></path>
    </g>
</svg>