<?xml version="1.0" encoding="UTF-8"?>
<svg width="32px" height="32px" viewBox="0 0 32 32" version="1.1" xmlns="http://www.w3.org/2000/svg" xmlns:xlink="http://www.w3.org/1999/xlink">
    <!-- Generator: Sketch 63.1 (92452) - https://sketch.com -->
    <title>Icons/ion-logo-ionic</title>
    <desc>Created with Sketch.</desc>
    <g id="Icons/ion-logo-ionic" stroke="none" stroke-width="1" fill="none" fill-rule="evenodd" fill-opacity="0.9">
        <path d="M11.8125,11.8125 C12.9791725,10.6458275 14.3749919,10.0625 16,10.0625 C17.6250081,10.0625 19.0208275,10.6458275 20.1875,11.8125 C21.3541725,12.9791725 21.9375,14.3749919 21.9375,16 C21.9375,17.6250081 21.3541725,19.0208275 20.1875,20.1875 C19.0208275,21.3541725 17.6250081,21.9375 16,21.9375 C14.3749919,21.9375 12.9791725,21.3541725 11.8125,20.1875 C10.6458275,19.0208275 10.0625,17.6250081 10.0625,16 C10.0625,14.3749919 10.6458275,12.9791725 11.8125,11.8125 Z M22.5625,9.8125 C22.0624975,9.27083063 21.8125,8.62500375 21.8125,7.875 C21.8125,7.12499625 22.0729141,6.48958594 22.59375,5.96875 C23.1145859,5.44791406 23.7499962,5.1875 24.5,5.1875 C25.2500037,5.1875 25.8854141,5.44791406 26.40625,5.96875 C26.9270859,6.48958594 27.1875,7.12499625 27.1875,7.875 C27.1875,8.62500375 26.9270859,9.27083063 26.40625,9.8125 C25.8854141,10.3541694 25.2500037,10.625 24.5,10.625 C23.7499962,10.625 23.1041694,10.3541694 22.5625,9.8125 Z M27.8125,10.625 C28.6041706,12.4166756 29,14.2083244 29,16 C29,19.5833512 27.7291794,22.6458206 25.1875,25.1875 C22.6458206,27.7291794 19.5833512,29 16,29 C12.4166488,29 9.35417938,27.7291794 6.8125,25.1875 C4.27082063,22.6458206 3,19.5833512 3,16 C3,12.4166488 4.27082063,9.35417938 6.8125,6.8125 C9.35417938,4.27082062 12.4166488,3 16,3 C18.0416769,3 20.0208238,3.47916187 21.9375,4.4375 L22.1875,4.5625 L22,4.75 C21.4166638,5.2500025 21.0208344,5.77083063 20.8125,6.3125 L20.75,6.5 L20.5625,6.375 C19.1874931,5.70833 17.666675,5.375 16,5.375 C13.0833188,5.375 10.5833438,6.41665625 8.5,8.5 C6.41665625,10.5833438 5.375,13.0833188 5.375,16 C5.375,18.9166812 6.41665625,21.4166562 8.5,23.5 C10.5833438,25.5833438 13.0833188,26.625 16,26.625 C18.9166812,26.625 21.4166562,25.5833438 23.5,23.5 C25.5833438,21.4166562 26.625,18.9166812 26.625,16 C26.625,14.5416594 26.3541694,13.1875062 25.8125,11.9375 L25.75,11.75 L25.875,11.6875 C26.5833369,11.3958319 27.1458313,11.0208356 27.5625,10.5625 L27.75,10.375 L27.8125,10.625 Z" id="↳-🎨-Fill" fill="#181C21"></path>
    </g>
</svg>