<?xml version="1.0" encoding="UTF-8"?>
<svg width="32px" height="32px" viewBox="0 0 32 32" version="1.1" xmlns="http://www.w3.org/2000/svg" xmlns:xlink="http://www.w3.org/1999/xlink">
    <!-- Generator: Sketch 63.1 (92452) - https://sketch.com -->
    <title>Icons/ion-md-infinite</title>
    <desc>Created with Sketch.</desc>
    <g id="Icons/ion-md-infinite" stroke="none" stroke-width="1" fill="none" fill-rule="evenodd" fill-opacity="0.9">
        <path d="M27.1875,11.75 C28.3958394,12.8750056 29,14.2916581 29,16 C29,17.666675 28.3750062,19.0833275 27.125,20.25 C25.8749938,21.4166725 24.416675,22 22.75,22 C21.083325,22 19.6250062,21.4166725 18.375,20.25 L16,18 L13.625,20.25 C12.3749937,21.4166725 10.916675,22 9.25,22 C7.54165813,22 6.06250625,21.4166725 4.8125,20.25 C3.60416063,19.1249944 3,17.7083419 3,16 C3,14.2916581 3.60416063,12.8750056 4.8125,11.75 C6.06250625,10.5833275 7.54165813,10 9.25,10 C10.916675,10 12.3749937,10.5833275 13.625,11.75 L20.375,18.25 C21,18.8750031 21.7916619,19.1875 22.75,19.1875 C23.7083381,19.1875 24.5,18.8750031 25.125,18.25 C25.7500031,17.6249969 26.0625,16.8750044 26.0625,16 C26.0625,15.1249956 25.7500031,14.3750031 25.125,13.75 C24.5,13.1249969 23.7083381,12.8125 22.75,12.8125 C21.7916619,12.8125 21,13.1249969 20.375,13.75 L19.3125,14.75 L17.25,12.75 L18.375,11.75 C19.6250062,10.5833275 21.083325,10 22.75,10 C24.4583419,10 25.9374938,10.5833275 27.1875,11.75 Z M11.625,18.25 L13.9375,16 L11.625,13.75 C10.9999969,13.1249969 10.2083381,12.8125 9.25,12.8125 C8.29166187,12.8125 7.50000312,13.1249969 6.875,13.75 C6.24999688,14.3750031 5.9375,15.1249956 5.9375,16 C5.9375,16.8750044 6.24999688,17.6249969 6.875,18.25 C7.50000312,18.8750031 8.29166187,19.1875 9.25,19.1875 C10.2083381,19.1875 10.9999969,18.8750031 11.625,18.25 Z" id="↳-🎨-Fill" fill="#181C21"></path>
    </g>
</svg>