<?xml version="1.0" encoding="UTF-8"?>
<svg width="32px" height="32px" viewBox="0 0 32 32" version="1.1" xmlns="http://www.w3.org/2000/svg" xmlns:xlink="http://www.w3.org/1999/xlink">
    <!-- Generator: Sketch 63.1 (92452) - https://sketch.com -->
    <title>Icons/ion-ios-speedometer</title>
    <desc>Created with Sketch.</desc>
    <g id="Icons/ion-ios-speedometer" stroke="none" stroke-width="1" fill="none" fill-rule="evenodd" fill-opacity="0.9">
        <path d="M6.0625,8.125 C8.81251375,5.37498625 12.1249806,4 16,4 C19.8750194,4 23.1770697,5.36456969 25.90625,8.09375 C28.6354303,10.8229303 30,14.1249806 30,18 C30,21.5000175 28.833345,24.58332 26.5,27.25 L26.25,27.5 C25.916665,27.833335 25.5416687,28 25.125,28 C24.6666644,28 24.270835,27.833335 23.9375,27.5 C21.7291556,25.166655 19.0833487,24 16,24 C12.9166513,24 10.2708444,25.166655 8.0625,27.5 C7.729165,27.833335 7.33333563,28 6.875,28 C6.45833125,28 6.083335,27.833335 5.75,27.5 L5.5,27.25 C3.166655,24.58332 2,21.5000175 2,18 C2,14.1249806 3.35415312,10.8333469 6.0625,8.125 Z M15.125,6.875 L15.125,9.125 C15.125,9.70833625 15.4166637,10 16,10 C16.5833363,10 16.875,9.70833625 16.875,9.125 L16.875,6.875 C16.875,6.29166375 16.5833363,6 16,6 C15.4166637,6 15.125,6.29166375 15.125,6.875 Z M7.125,18.875 C7.70833625,18.875 8,18.5833363 8,18 C8,17.4166637 7.70833625,17.125 7.125,17.125 L4.875,17.125 C4.29166375,17.125 4,17.4166637 4,18 C4,18.5833363 4.29166375,18.875 4.875,18.875 L7.125,18.875 Z M10.375,12.3125 C10.7916687,11.9374981 10.7916687,11.5416687 10.375,11.125 L8.75,9.5 C8.33333125,9.08333125 7.91666875,9.08333125 7.5,9.5 C7.08333125,9.91666875 7.08333125,10.3333313 7.5,10.75 L9.125,12.3125 C9.54166875,12.7291687 9.95833125,12.7291687 10.375,12.3125 Z M20.375,14.5 C20.6250013,14.166665 20.583335,13.8750013 20.25,13.625 C19.9583319,13.4999994 19.7083344,13.4999994 19.5,13.625 L14.8125,16.5625 C14.3541644,16.8541681 14.0937503,17.2499975 14.03125,17.75 C13.9687497,18.2500025 14.0833319,18.7291644 14.375,19.1875 C14.708335,19.6458356 15.1145809,19.9166662 15.59375,20 C16.0729191,20.0833338 16.5416644,19.958335 17,19.625 C17.1666675,19.4999994 17.3124994,19.3541675 17.4375,19.1875 L20.375,14.5 Z M22.875,12.3125 L24.5,10.75 C24.9166687,10.3333313 24.9166687,9.91666875 24.5,9.5 C24.0833313,9.08333125 23.6666687,9.08333125 23.25,9.5 L21.625,11.125 C21.2083313,11.5416687 21.2083313,11.9374981 21.625,12.3125 C22.0416687,12.7291687 22.4583313,12.7291687 22.875,12.3125 Z M27.125,18.875 C27.7083363,18.875 28,18.5833363 28,18 C28,17.4166637 27.7083363,17.125 27.125,17.125 L24.875,17.125 C24.2916638,17.125 24,17.4166637 24,18 C24,18.5833363 24.2916638,18.875 24.875,18.875 L27.125,18.875 Z" id="↳-🎨-Fill" fill="#181C21"></path>
    </g>
</svg>