<?xml version="1.0" encoding="UTF-8"?>
<svg width="32px" height="32px" viewBox="0 0 32 32" version="1.1" xmlns="http://www.w3.org/2000/svg" xmlns:xlink="http://www.w3.org/1999/xlink">
    <!-- Generator: Sketch 63.1 (92452) - https://sketch.com -->
    <title>Icons/ion-md-backspace</title>
    <desc>Created with Sketch.</desc>
    <g id="Icons/ion-md-backspace" stroke="none" stroke-width="1" fill="none" fill-rule="evenodd" fill-opacity="0.9">
        <path d="M27.0625,6 C27.6875,6 28.2187478,6.21874781 28.65625,6.65625 C29.0937522,7.09375219 29.3125,7.62499688 29.3125,8.25 L29.3125,23.75 C29.3125,24.3750031 29.0937522,24.9062478 28.65625,25.34375 C28.2187478,25.7812522 27.6875,26 27.0625,26 L10.4375,26 C9.72916312,26 9.14583563,25.66667 8.6875,25 L2.6875,16 L8.6875,7 C9.14583563,6.33333 9.72916312,6 10.4375,6 L27.0625,6 Z M23.75,20 L19.8125,16 L23.75,12 L22.1875,10.4375 L18.1875,14.4375 L14.25,10.4375 L12.6875,12 L16.6875,16 L12.6875,20 L14.25,21.5625 L18.1875,17.5625 L22.1875,21.5625 L23.75,20 Z" id="↳-🎨-Fill" fill="#181C21"></path>
    </g>
</svg>