<?xml version="1.0" encoding="UTF-8"?>
<svg width="32px" height="32px" viewBox="0 0 32 32" version="1.1" xmlns="http://www.w3.org/2000/svg" xmlns:xlink="http://www.w3.org/1999/xlink">
    <!-- Generator: Sketch 63.1 (92452) - https://sketch.com -->
    <title>Icons/ion-logo-foursquare</title>
    <desc>Created with Sketch.</desc>
    <g id="Icons/ion-logo-foursquare" stroke="none" stroke-width="1" fill="none" fill-rule="evenodd" fill-opacity="0.9">
        <path d="M23.5625,2 C25.6041769,2 26.3750025,3.18748813 25.875,5.5625 C25.7083325,6.27083688 25.4062522,7.76040531 24.96875,10.03125 C24.5312478,12.3020947 24.1354184,14.2916581 23.78125,16 C23.4270816,17.7083419 23.2291669,18.6666656 23.1875,18.875 C23.1041662,19.2500019 23.0104172,19.5624987 22.90625,19.8125 C22.8020828,20.0625013 22.5625019,20.3229153 22.1875,20.59375 C21.8124981,20.8645847 21.3333363,21 20.75,21 L16.25,21 C16.1249994,21 16,21.0624994 15.875,21.1875 L8.6875,29.5 C8.22916437,30.0416694 7.64583688,30.1666681 6.9375,29.875 C6.31249688,29.6249988 6,29.0833375 6,28.25 L6,4.5 C6,3.87499688 6.21874781,3.30208594 6.65625,2.78125 C7.09375219,2.26041406 7.77082875,2 8.6875,2 L23.5625,2 Z M23.1875,18.875 C23.2291669,18.6666656 23.4270816,17.7083419 23.78125,16 C24.1354184,14.2916581 24.5312478,12.3020947 24.96875,10.03125 C25.4062522,7.76040531 24.8125081,10.7082925 23.1875,18.875 Z M22.6875,6.0625 C22.7291669,5.81249875 22.6770841,5.58333437 22.53125,5.375 C22.3854159,5.16666563 22.1875013,5.0625 21.9375,5.0625 L10,5.0625 C9.74999875,5.0625 9.53125094,5.15624906 9.34375,5.34375 C9.15624906,5.53125094 9.0625,5.74999875 9.0625,6 L9.0625,24.5 C9.0625,24.5833337 9.10416625,24.5833337 9.1875,24.5 C12.1041812,20.9999825 13.729165,19.0416687 14.0625,18.625 C14.4375019,18.1666644 14.9166637,17.9375 15.5,17.9375 L19.5,17.9375 C20.0000025,17.9375 20.3124994,17.6875025 20.4375,17.1875 C20.4375,17.1041662 20.5312491,16.5937547 20.71875,15.65625 C20.9062509,14.7187453 21.0208331,14.1666675 21.0625,14 C21.1041669,13.7499987 21.0416675,13.5208344 20.875,13.3125 C20.7083325,13.1041656 20.5000013,13 20.25,13 L15.125,13 C14.791665,13 14.5208344,12.8958344 14.3125,12.6875 C14.1041656,12.4791656 14,12.208335 14,11.875 L14,11.0625 C14,10.3541631 14.3749963,10 15.125,10 L21.125,10 C21.6666694,10 21.9791662,9.7500025 22.0625,9.25 L22.6875,6.0625 Z" id="↳-🎨-Fill" fill="#181C21"></path>
    </g>
</svg>